<svg xmlns="http://www.w3.org/2000/svg" fill="none" viewBox="0 0 22 22" class="design-iconfont">
  <path d="M21.4258 16.5859C20.8644 15.8189 19.9798 15.516 19.1984 15.2518C19.1333 15.2303 19.0681 15.2066 19.003 15.1852C18.6258 15.0541 18.2463 14.9252 17.8691 14.7963C17.2427 14.5836 16.596 14.3623 15.965 14.1389C15.3184 13.909 14.8109 13.4922 14.6066 13.0217C14.4517 12.665 14.4696 12.2826 14.6582 11.8873C14.7256 11.7455 14.8805 11.6316 15.0579 11.4984C15.1477 11.4318 15.2375 11.3652 15.3296 11.2857C15.718 10.9506 15.8932 10.566 16.0391 10.2029C16.0571 10.1578 16.0751 10.0998 16.0975 10.0225C16.12 9.94941 16.1694 9.78613 16.212 9.68086C16.5713 9.53262 16.8789 9.24902 17.0877 8.86875C17.3864 8.3252 17.4582 7.66133 17.2763 7.13496C17.2067 6.93516 17.0967 6.79766 17.0091 6.68594C16.9912 6.6623 16.9732 6.64082 16.9575 6.62148C16.9844 4.57188 16.5376 3.03789 15.5901 1.93359C14.5235 0.685352 12.8911 0 10.9983 0C9.10542 0 7.47303 0.685352 6.40648 1.9293C5.45893 3.03359 5.00986 4.56758 5.03905 6.61719C5.02333 6.63867 5.00536 6.66016 4.9874 6.68164C4.89983 6.79336 4.78981 6.93086 4.7202 7.12852C4.53833 7.65488 4.61018 8.31875 4.90881 8.8623C5.11988 9.24473 5.42525 9.52832 5.78451 9.67441C5.82717 9.77969 5.87657 9.94297 5.89902 10.016C5.92372 10.0955 5.93944 10.1514 5.9574 10.1965C6.10335 10.5617 6.27625 10.9441 6.66694 11.2793C6.759 11.3588 6.84882 11.4254 6.93863 11.492C7.11826 11.6252 7.27095 11.7391 7.33831 11.8809C7.52692 12.2762 7.54488 12.6586 7.38995 13.0152C7.18562 13.4857 6.67817 13.9025 6.0315 14.1324C5.40055 14.3559 4.75388 14.5771 4.12742 14.7898C3.74796 14.9188 3.37073 15.0477 2.99351 15.1787C2.92839 15.2002 2.86328 15.2238 2.79816 15.2453C2.01677 15.516 1.12985 15.8189 0.568505 16.5859C-0.0871439 17.4818 -0.057954 18.6807 0.0812592 19.5336C0.162093 19.9934 0.377648 20.6357 1.28029 20.8957C3.90289 21.6498 6.99028 22 10.9983 22V21.0439C7.09132 21.0439 4.09599 20.7066 1.56994 19.9805C1.24885 19.8881 1.13659 19.7527 1.06922 19.3811C0.979409 18.8289 0.900821 17.8041 1.39031 17.1359C1.76754 16.6203 2.43217 16.3926 3.13497 16.1541C3.20233 16.1305 3.26745 16.109 3.33481 16.0854C3.71203 15.9543 4.08701 15.8275 4.46423 15.6986C5.09293 15.4838 5.74409 15.2625 6.38178 15.0369C7.29789 14.7125 8.00294 14.1109 8.31505 13.3891C8.57775 12.7854 8.55306 12.1279 8.24993 11.4898C8.08153 11.1354 7.78738 10.9184 7.55386 10.7443C7.47528 10.6863 7.40118 10.6305 7.33831 10.5768C7.13398 10.4006 7.02845 10.1986 6.89597 9.86563C6.88699 9.84199 6.87576 9.80332 6.86229 9.75605C6.7343 9.33281 6.61305 8.93106 6.25155 8.82363L6.24257 8.82148C6.01129 8.75703 5.86534 8.54434 5.79798 8.42188C5.62958 8.1168 5.57794 7.71074 5.67449 7.43574C5.6902 7.39062 5.72838 7.34121 5.789 7.26602C5.85187 7.18652 5.93046 7.08984 5.99558 6.96309L6.04946 6.85781L6.04722 6.73965C6.00231 4.85762 6.37504 3.48477 7.18562 2.5416C8.06132 1.52324 9.41753 0.960352 11.0073 0.960352C12.5947 0.960352 13.9532 1.52109 14.8266 2.5416C15.6372 3.48691 16.0099 4.85977 15.965 6.73965L15.9628 6.85781L16.0167 6.96309C16.0818 7.0877 16.1604 7.18652 16.2233 7.26602C16.2839 7.34121 16.3221 7.39062 16.3378 7.43574C16.4343 7.71074 16.3827 8.1168 16.2143 8.42188C16.1469 8.54434 16.001 8.75918 15.7697 8.82148L15.7607 8.82363C15.3992 8.93106 15.278 9.33066 15.15 9.75605C15.1365 9.80332 15.1253 9.84199 15.1163 9.86348C14.9838 10.1986 14.8783 10.4006 14.6717 10.5768C14.6066 10.6326 14.5325 10.6863 14.4561 10.7443C14.2204 10.9184 13.9285 11.1354 13.7601 11.4898C13.4547 12.1279 13.4323 12.7854 13.695 13.3891C14.0071 14.1109 14.7121 14.7125 15.6282 15.0369C16.2659 15.2625 16.9171 15.4859 17.5458 15.6986C17.923 15.8275 18.3002 15.9564 18.6752 16.0854C18.7403 16.109 18.8077 16.1305 18.875 16.1541C19.5778 16.3926 20.2402 16.6203 20.6197 17.1359C21.1092 17.8041 21.0306 18.8311 20.9408 19.3746C20.8734 19.7527 20.7612 19.8881 20.4401 19.9805C17.914 20.7066 14.9164 21.0439 11.0117 21.0439V22C15.0197 22 18.1071 21.6498 20.7297 20.8957C21.6324 20.6357 21.8457 19.9934 21.9288 19.5271C22.0545 18.6807 22.0814 17.4818 21.4258 16.5859Z" fill="#3E8FFF"/>
  <path d="M9.34571 19.1813L10.3629 20.1546C10.538 20.3222 10.7693 20.406 10.9983 20.406C11.2273 20.406 11.4586 20.3222 11.6337 20.1546L12.6509 19.1813C12.8934 18.9493 12.9765 18.6142 12.8687 18.3026L12.24 16.4786C12.7093 16.2122 12.9944 15.8019 12.9944 15.3507C12.9944 14.5472 12.1165 13.9155 10.9961 13.9155C9.87562 13.9155 8.99768 14.545 8.99768 15.3507C8.99768 15.8019 9.28284 16.2122 9.75213 16.4786L9.12342 18.3026C9.02013 18.6142 9.10321 18.9493 9.34571 19.1813ZM10.9983 14.8737C11.6091 14.8737 11.9975 15.1573 11.9975 15.3528C11.9975 15.4817 11.8201 15.6622 11.4788 15.7632C11.4766 15.7632 11.4766 15.7653 11.4743 15.7653C11.4721 15.7653 11.4698 15.7653 11.4698 15.7675C11.4541 15.7718 11.4406 15.7804 11.4249 15.7868C11.4115 15.7933 11.3957 15.7976 11.3823 15.804C11.3665 15.8126 11.3531 15.8233 11.3396 15.8319C11.3261 15.8405 11.3149 15.847 11.3037 15.8577C11.2902 15.8685 11.279 15.8813 11.2678 15.8921C11.2565 15.9028 11.2453 15.9114 11.2363 15.9243C11.2251 15.9372 11.2184 15.9501 11.2094 15.9651C11.2004 15.978 11.1914 15.9888 11.1847 16.0017C11.1779 16.0167 11.1712 16.0296 11.1667 16.0446C11.16 16.0575 11.1532 16.0726 11.1487 16.0854C11.1443 16.1005 11.142 16.1155 11.1398 16.1327C11.1375 16.1478 11.133 16.1606 11.1308 16.1757C11.1285 16.1929 11.1308 16.2079 11.1308 16.2251V16.2681C11.133 16.2853 11.1375 16.3024 11.142 16.3196C11.1443 16.3325 11.1465 16.3454 11.151 16.3583C11.151 16.3604 11.1532 16.3604 11.1532 16.3626V16.3669L11.9032 18.5433L10.9983 19.4112L10.0957 18.5476L10.8456 16.3712V16.3669C10.8456 16.3647 10.8479 16.3647 10.8479 16.3626C10.8524 16.3497 10.8524 16.3368 10.8569 16.3218C10.8613 16.3046 10.8658 16.2874 10.8681 16.2702C10.8703 16.2552 10.8681 16.2401 10.8681 16.2251C10.8681 16.2079 10.8703 16.1929 10.8681 16.1757C10.8658 16.1606 10.8636 16.1456 10.8591 16.1306C10.8569 16.1155 10.8546 16.1005 10.8501 16.0833C10.8456 16.0683 10.8389 16.0554 10.8322 16.0403C10.8254 16.0253 10.8209 16.0103 10.8142 15.9974C10.8075 15.9845 10.7985 15.9716 10.7895 15.9587C10.7805 15.9458 10.7738 15.9329 10.7625 15.92C10.7536 15.9071 10.7401 15.8985 10.7311 15.8878C10.7199 15.8771 10.7087 15.8642 10.6974 15.8534C10.6862 15.8427 10.6705 15.8362 10.6593 15.8276C10.6458 15.819 10.6323 15.8083 10.6188 15.7997C10.6054 15.7933 10.5897 15.7868 10.5739 15.7804C10.5582 15.7739 10.5447 15.7675 10.5313 15.761H10.5268C10.5245 15.761 10.5245 15.7589 10.5223 15.7589C10.181 15.6579 10.0036 15.4753 10.0036 15.3485C9.99912 15.1573 10.3876 14.8737 10.9983 14.8737Z" fill="#3E8FFF"/>
</svg>
