<svg xmlns="http://www.w3.org/2000/svg" fill="none" viewBox="0 0 22 22" class="design-iconfont">
  <path d="M8.01678 0C9.76973 0 11.3216 0.944506 12.4101 2.44514L12.4168 2.44093C13.1295 1.99353 13.9199 1.75531 14.7385 1.75531C17.7043 1.75531 20 4.82359 20 8.51324C20 11.4805 18.5153 14.0459 16.3913 14.9367C16.6475 15.3529 16.7814 15.8105 16.7814 16.3048C16.7814 16.839 16.5065 17.2512 16.066 17.5309L16.0449 17.5441L16.0135 17.5634L15.9875 17.5789L15.9615 17.594L15.951 17.5999L15.9301 17.6116L15.9197 17.6173L15.8986 17.6286L15.8721 17.6425L15.8453 17.6561L15.8236 17.6668L15.8016 17.6774L15.7793 17.6878L15.7451 17.7033L15.71 17.7187L15.686 17.7289L15.6615 17.739L15.6365 17.7492L15.6108 17.7594L15.5846 17.7697L15.5576 17.7799L15.5301 17.7903L15.5017 17.8008L15.4725 17.8114L15.4273 17.8275L15.3801 17.844L15.3307 17.8609L15.2792 17.8783L15.2253 17.8963L15.0315 17.96L14.9659 17.982L14.9292 17.9944L14.8832 18.0103L14.8405 18.0253L14.8106 18.0361L14.7734 18.0498L14.739 18.0628L14.715 18.0721L14.6926 18.0812L14.6784 18.087L14.6583 18.0955L14.6456 18.1011L14.6309 18.1077L14.6316 18.1091C14.7002 18.2567 14.8294 18.406 15.0352 18.5599L15.0488 18.5699C15.2635 18.728 15.5455 18.8789 15.8943 19.0195L15.9392 19.0374C15.9694 19.0493 16 19.0611 16.0312 19.0729L16.0783 19.0904C16.1099 19.1021 16.142 19.1137 16.1746 19.1252L16.2238 19.1424C16.2486 19.151 16.2736 19.1595 16.299 19.168L16.3501 19.1849L16.3758 19.1933L16.4279 19.21L16.4808 19.2266C16.4986 19.2321 16.5164 19.2375 16.5344 19.243C16.9599 19.3723 17.1997 19.8208 17.0699 20.2447C16.94 20.6686 16.4898 20.9073 16.0642 20.778C15.246 20.5294 14.589 20.2272 14.0909 19.8603C13.5321 19.4488 13.1638 18.9474 13.0216 18.3619C12.8734 17.7523 13.0935 17.2215 13.5711 16.873C13.722 16.7629 13.8902 16.6748 14.0882 16.5936L14.1201 16.5806L14.1643 16.5632L14.2082 16.5463L14.2438 16.533L14.2805 16.5197L14.3092 16.5095L14.3492 16.4955L14.4144 16.4733L14.4747 16.4531L14.6994 16.3792L14.7651 16.3573L14.8136 16.3408L14.8586 16.3252L14.8902 16.314L14.9296 16.2998L14.9573 16.2896L14.9916 16.2764L15.0157 16.267L15.0456 16.2548L15.0596 16.2489L15.0797 16.2402L15.0924 16.2345L15.1046 16.2289L15.1221 16.2206L15.1331 16.2151L15.1489 16.207L15.159 16.2016L15.1645 16.1985L15.1643 16.1957C15.1289 15.8756 14.9347 15.572 14.5342 15.2662C13.468 15.2145 12.4647 14.7584 11.6317 13.9777C11.0667 14.5253 10.4223 14.9475 9.72119 15.211C10.0617 15.7108 10.2394 16.2644 10.2394 16.8657C10.2394 17.4391 9.94444 17.8809 9.46539 18.1848L9.44475 18.1978L9.42421 18.2105L9.40369 18.2229L9.38322 18.2351L9.36275 18.247L9.34226 18.2588L9.3217 18.2703L9.30105 18.2816L9.28028 18.2927L9.24886 18.3092L9.22235 18.3226L9.19552 18.3358L9.17374 18.3463L9.15166 18.3566L9.12926 18.3669L9.10655 18.3772L9.08344 18.3873L9.05993 18.3975L9.03596 18.4076L9.01154 18.4177L8.98664 18.4278L8.96122 18.438L8.93524 18.4481L8.89516 18.4635L8.86769 18.4738L8.82522 18.4895L8.78119 18.5054L8.71989 18.5271L8.67181 18.5437L8.63873 18.555L8.56992 18.5783L8.45966 18.6149L8.29182 18.6699L8.21957 18.694L8.16569 18.7122L8.10293 18.7339L8.05628 18.7503L8.01263 18.766L7.97185 18.7811L7.93383 18.7956L7.90705 18.806L7.88162 18.8162L7.8576 18.8262L7.82757 18.839L7.81337 18.8453L7.79305 18.8546L7.78014 18.8607L7.7677 18.8667L7.75653 18.8723C7.73669 18.8823 7.71879 18.8921 7.70248 18.9017L7.68976 18.9094L7.69042 18.9116C7.85808 19.4541 8.5953 19.9827 10.003 20.4163L10.0472 20.4298C10.4727 20.559 10.7126 21.0074 10.5829 21.4313C10.4531 21.8552 10.003 22.0941 9.5774 21.9649C9.53385 21.9517 9.49037 21.9382 9.44696 21.9245L9.38267 21.9041C9.32984 21.8871 9.27714 21.8697 9.22457 21.852L9.16244 21.8308C8.40989 21.5719 7.79293 21.2683 7.31013 20.913C6.68058 20.4498 6.26885 19.8897 6.11047 19.2386C5.95061 18.5812 6.18542 18.0152 6.70142 17.6391C6.86838 17.5174 7.05654 17.419 7.27969 17.3276L7.32221 17.3105L7.34958 17.2997L7.3858 17.2856L7.42218 17.2718L7.4686 17.2546L7.51694 17.2372L7.5473 17.2265L7.60072 17.208L7.65857 17.1884L7.76264 17.1538L7.96034 17.089L8.03151 17.0654L8.11003 17.0388L8.17002 17.0181L8.22543 16.9985L8.27654 16.9799L8.31448 16.9656L8.34134 16.9552L8.36691 16.9451L8.39909 16.932L8.42922 16.9192L8.45055 16.9098L8.46422 16.9036L8.47743 16.8975L8.49651 16.8883L8.50875 16.8823L8.52645 16.8733L8.54336 16.8643L8.5596 16.8553L8.57521 16.8462L8.58528 16.8402L8.59998 16.8311L8.60693 16.8266L8.61967 16.8181L8.6271 16.8128L8.62669 16.8029C8.60512 16.3501 8.34796 15.9293 7.79391 15.5166C4.51899 15.3663 2 11.911 2 7.76097C2 3.51724 4.63404 0 8.01678 0ZM8.01678 1.60485C5.64343 1.60485 3.61119 4.31851 3.61119 7.76097C3.61119 11.2034 5.64343 13.9171 8.01678 13.9171C10.3901 13.9171 12.4224 11.2034 12.4224 7.76097C12.4224 4.31851 10.3901 1.60485 8.01678 1.60485ZM14.7385 3.36016C14.2387 3.36016 13.7515 3.50477 13.2962 3.78595L13.2758 3.79864C13.2551 3.81168 13.2339 3.82364 13.2125 3.83457C13.7361 4.99062 14.0336 6.33476 14.0336 7.76097C14.0336 9.6391 13.5177 11.3749 12.6493 12.7266C12.6546 12.7313 12.6599 12.7363 12.6652 12.7413L12.6731 12.749C13.2859 13.3487 14.0003 13.6663 14.7385 13.6663C16.6945 13.6663 18.3888 11.4018 18.3888 8.51324C18.3888 5.62466 16.6945 3.36016 14.7385 3.36016ZM10.207 7.23438C10.6519 7.23438 11.0126 7.59364 11.0126 8.0368C11.0126 9.06423 10.7347 10.0385 10.2342 10.7805C9.68675 11.5922 8.89841 12.0865 8.01678 12.0865C7.57187 12.0865 7.21119 11.7273 7.21119 11.2841C7.21119 10.8454 7.56469 10.4889 8.00344 10.4818L8.01678 10.4817C8.31271 10.4817 8.62808 10.2839 8.89679 9.88552C9.21251 9.41743 9.4014 8.75533 9.4014 8.0368C9.4014 7.59364 9.76208 7.23438 10.207 7.23438Z" fill="#3E8FFF"/>
</svg>
