<svg xmlns="http://www.w3.org/2000/svg" fill="none" viewBox="0 0 22 22" class="design-iconfont">
  <path d="M14.8546 13.0346C15.2862 13.0346 15.6364 12.6795 15.6364 12.2415C15.6364 11.8043 15.2862 11.4492 14.8546 11.4492H13.8442L15.0681 8.85532C15.2263 8.56147 15.0557 8.13811 14.6872 7.90993C14.3186 7.68185 13.8917 7.73491 13.7332 8.02873L12.1414 11.4031C12.1339 11.4176 12.1361 11.4347 12.1302 11.4492H11.7079C11.6989 11.422 11.7008 11.391 11.6864 11.3652L10.1133 8.14945C9.95663 7.86765 9.53309 7.81639 9.16795 8.03575C8.80283 8.25436 8.63379 8.66073 8.79043 8.94247L10.0168 11.4492H8.78178C8.34989 11.4492 7.99997 11.8043 7.99997 12.2417C7.99997 12.6795 8.34992 13.0346 8.78178 13.0346H11.0472V14.0848H8.78178C8.34989 14.0848 7.99997 14.4393 7.99997 14.8772C7.99997 15.3151 8.34992 15.6696 8.78178 15.6696H11.0472V17.9829C11.0472 18.4145 11.3921 18.7646 11.8181 18.7646C12.2438 18.7646 12.5891 18.4145 12.5891 17.9829V15.6696H14.8546C15.2861 15.6696 15.6364 15.3151 15.6364 14.8772C15.6364 14.4393 15.2861 14.0848 14.8546 14.0848H12.5891V13.0346H14.8546H14.8546ZM22 18.9322V18.9245H21.9996C21.9954 18.5687 21.7109 18.2816 21.3601 18.2816C21.0067 18.2816 20.7202 18.5729 20.7202 18.9322C20.7202 18.9634 20.7231 18.9938 20.7273 19.0238V20.0587C20.7273 20.4157 20.4424 20.7058 20.0909 20.7058H2.90916C2.55767 20.7058 2.27272 20.4157 2.27272 20.0587V1.97648L10.9987 6.1025L11.8185 6.4625L12.6383 6.1025L20.7273 2.27764V13.0378C20.7231 13.0678 20.7202 13.0982 20.7202 13.1293C20.7202 13.4887 21.0067 13.78 21.3601 13.78C21.7086 13.78 21.9914 13.4966 21.9992 13.1441H22V13.1294C22 13.1294 22 13.1293 22 13.1293V13.1293V1.94109C22.0001 1.8037 21.986 1.66963 21.9592 1.54032C21.9592 1.54032 21.8998 1.27629 21.7937 1.05602C21.7588 0.983619 21.7234 0.908824 21.595 0.745465C21.2456 0.29163 20.7017 0 20.091 0H2.90904C1.8549 0 1 0.86882 1 1.94112V20.0588C1 21.1311 1.85487 22 2.90904 22H20.091C21.1452 22 22 21.1311 22 20.0588V18.9324C22 18.9324 22 18.9323 22 18.9323C22 18.9322 22 18.9322 22 18.9322ZM19.6573 1.29405L11.8185 5.00062L3.97976 1.29405H19.6573Z" fill="#3E8FFF"/>
</svg>
