<svg xmlns="http://www.w3.org/2000/svg" fill="none" viewBox="0 0 22 22" class="design-iconfont">
  <path d="M21.7969 7.37686C21.7969 7.28024 21.7491 7.23196 21.7491 7.23196L19.8889 2.54592C19.5551 1.57972 18.6489 1 17.5519 1L4.57875 1C3.48174 1 2.62329 1.57969 2.28945 2.49755L0.286236 7.28021C0.286236 7.32845 0.286236 7.32845 0.238452 7.37682C0.0953909 7.81161 0 8.29468 0 8.72947C0 10.3719 0.906197 11.8696 2.28945 12.5941C2.86177 12.9323 3.57713 13.0773 4.3403 13.0773C5.62813 13.0773 6.82053 12.4975 7.67895 11.483C8.48987 12.4493 9.68216 13.0289 10.97 13.0289C12.2578 13.0289 13.4501 12.4493 14.261 11.483C15.0718 12.4493 16.2642 13.0289 17.5997 13.0289C18.4104 13.0289 19.0782 12.8357 19.6983 12.5459C21.0814 11.773 21.9876 10.2754 21.9876 8.6811C22.0353 8.29472 21.9399 7.81168 21.7969 7.37686ZM18.9827 11.1933C18.6012 11.3866 18.172 11.4831 17.6472 11.4831C16.6934 11.4831 15.7871 11 15.3102 10.1305C15.2626 10.0338 15.2148 9.93731 15.1194 9.7923C14.9763 9.6474 14.7379 9.4541 14.3564 9.4541C14.0225 9.4541 13.7363 9.59912 13.5932 9.7923C13.4978 9.93731 13.4501 10.0338 13.4024 10.1305C12.8777 10.9518 12.0192 11.4831 11.0654 11.4831C10.1114 11.4831 9.25288 11 8.72831 10.1305C8.68058 10.0338 8.63289 9.93731 8.53746 9.8407C8.15598 9.40588 7.34506 9.40588 7.01121 9.79233C6.86818 9.93734 6.82051 10.0338 6.77273 10.1305C6.24807 10.9518 5.38963 11.4349 4.43567 11.4831C3.91101 11.4831 3.48175 11.3866 3.14784 11.1933C2.24164 10.7103 1.66934 9.74405 1.66934 8.72957C1.66934 8.43968 1.71695 8.10151 1.81238 7.81171V7.76334L3.76795 3.07749C3.81556 2.98081 3.91101 2.59429 4.53106 2.59429H17.5519C17.7904 2.59429 18.2196 2.64263 18.4104 3.1257L20.2706 7.76334V7.85999C20.3659 8.14991 20.4136 8.48808 20.4136 8.77785C20.4136 9.7923 19.8889 10.7102 18.9827 11.1933ZM19.6028 13.802C19.1736 13.802 18.7921 14.1401 18.7921 14.6232V18.971C18.7921 19.2126 18.6013 19.4058 18.3628 19.4058H3.48173C3.24325 19.4058 3.05255 19.2126 3.05255 18.971V14.6715C3.05255 14.2367 2.71871 13.8502 2.24166 13.8502C1.81239 13.8502 1.43088 14.1884 1.43088 14.6715V18.971C1.43088 20.0822 2.33708 21 3.43409 21H18.315C19.4121 21 20.3182 20.0822 20.3182 18.9228V14.5749C20.366 14.1401 20.0321 13.802 19.6028 13.802ZM17.218 8.14985H4.57872C4.14945 8.14985 3.76794 7.81168 3.76794 7.32849C3.76794 6.89382 4.10178 6.50728 4.57872 6.50728H17.218C17.6473 6.50728 18.0289 6.84545 18.0289 7.32849C18.0289 7.81168 17.6473 8.14985 17.218 8.14985Z" fill="#3E8FFF"/>
</svg>
