<svg xmlns="http://www.w3.org/2000/svg" fill="none" viewBox="0 0 22 22" class="design-iconfont">
  <path d="M20.625 2.65762C18.7494 1.07207 15.1422 0 11 0C6.85781 0 3.25059 1.07207 1.375 2.65762C0.498437 3.39883 0 4.24961 0 5.15625V16.8438C0 19.6904 4.92422 22 11 22C17.0758 22 22 19.6904 22 16.8438V5.15625C22 4.24961 21.5016 3.39883 20.625 2.65762ZM1.88633 4.06914C2.31172 3.59863 2.97559 3.14316 3.80703 2.7543C4.71582 2.32891 5.78574 1.9916 6.98672 1.75313C8.2543 1.50176 9.60352 1.375 11 1.375C12.3965 1.375 13.7457 1.50176 15.0133 1.75313C16.2143 1.9916 17.2842 2.32891 18.193 2.7543C19.0244 3.14316 19.6883 3.59863 20.1137 4.06914C20.4531 4.44512 20.625 4.81035 20.625 5.1541C20.625 5.5 20.4531 5.86523 20.1137 6.23906C19.6883 6.70957 19.0244 7.16504 18.193 7.55391C17.2842 7.98144 16.2143 8.3166 15.0133 8.55508C13.7457 8.80645 12.3943 8.9332 11 8.9332C9.60566 8.9332 8.2543 8.80645 6.98672 8.55508C5.78574 8.3166 4.71582 7.9793 3.80703 7.55391C2.97559 7.16504 2.31172 6.70957 1.88633 6.23906C1.54688 5.86738 1.375 5.50215 1.375 5.15625C1.375 4.81035 1.54688 4.44512 1.88633 4.06914ZM1.375 7.65488C3.25059 9.24043 6.85781 10.3125 11 10.3125C15.1422 10.3125 18.7494 9.24043 20.625 7.65488V10.9914C20.625 11.3373 20.4531 11.7025 20.1137 12.0764C19.6883 12.5469 19.0244 13.0023 18.193 13.3912C17.2842 13.8166 16.2143 14.1539 15.0133 14.3924C13.7457 14.6438 12.3943 14.7705 11 14.7705C9.60566 14.7705 8.2543 14.6438 6.98672 14.3924C5.78574 14.1539 4.71582 13.8166 3.80703 13.3912C2.97559 13.0023 2.31172 12.5469 1.88633 12.0764C1.54688 11.7004 1.375 11.3352 1.375 10.9914V7.65488ZM20.625 16.8438C20.625 17.1896 20.4531 17.5549 20.1137 17.9287C19.6883 18.3992 19.0244 18.8547 18.193 19.2436C17.2842 19.6711 16.2143 20.0062 15.0133 20.2447C13.7457 20.4961 12.3943 20.6229 11 20.6229C9.60566 20.6229 8.2543 20.4961 6.98672 20.2447C5.78574 20.0062 4.71582 19.6689 3.80703 19.2436C2.97559 18.8547 2.31172 18.3992 1.88633 17.9287C1.54688 17.5549 1.375 17.1896 1.375 16.8438V13.4879C3.25059 15.0734 6.85781 16.1455 11 16.1455C15.1422 16.1455 18.7494 15.0734 20.625 13.4879V16.8438Z" fill="#3E8FFF"/>
  <path d="M2.75 11.1657C2.74998 11.2785 2.7722 11.3903 2.81538 11.4946C2.85856 11.5989 2.92186 11.6936 3.00166 11.7734C3.08146 11.8532 3.1762 11.9165 3.28048 11.9597C3.38475 12.0029 3.49651 12.0252 3.60938 12.0252C3.72224 12.0252 3.834 12.0029 3.93828 11.9597C4.04255 11.9165 4.13729 11.8532 4.21709 11.7734C4.2969 11.6936 4.36019 11.5989 4.40337 11.4946C4.44655 11.3903 4.46877 11.2785 4.46875 11.1657C4.46877 11.0528 4.44655 10.941 4.40337 10.8368C4.36019 10.7325 4.2969 10.6377 4.21709 10.5579C4.13729 10.4781 4.04255 10.4148 3.93828 10.3716C3.834 10.3284 3.72224 10.3062 3.60938 10.3062C3.49651 10.3062 3.38475 10.3284 3.28048 10.3716C3.1762 10.4148 3.08146 10.4781 3.00166 10.5579C2.92186 10.6377 2.85856 10.7325 2.81538 10.8368C2.7722 10.941 2.74998 11.0528 2.75 11.1657Z" fill="#3E8FFF"/>
  <path d="M2.75 17.0094C2.74998 17.1223 2.7722 17.234 2.81538 17.3383C2.85856 17.4426 2.92186 17.5374 3.00166 17.6172C3.08146 17.697 3.1762 17.7603 3.28048 17.8035C3.38475 17.8467 3.49651 17.8689 3.60938 17.8689C3.72224 17.8689 3.834 17.8467 3.93828 17.8035C4.04255 17.7603 4.13729 17.697 4.21709 17.6172C4.2969 17.5374 4.36019 17.4426 4.40337 17.3383C4.44655 17.234 4.46877 17.1223 4.46875 17.0094C4.46877 16.8965 4.44655 16.7848 4.40337 16.6805C4.36019 16.5762 4.2969 16.4815 4.21709 16.4017C4.13729 16.3218 4.04255 16.2585 3.93828 16.2153C3.834 16.1721 3.72224 16.1499 3.60938 16.1499C3.49651 16.1499 3.38475 16.1721 3.28048 16.2153C3.1762 16.2585 3.08146 16.3218 3.00166 16.4017C2.92186 16.4815 2.85856 16.5762 2.81538 16.6805C2.7722 16.7848 2.74998 16.8965 2.75 17.0094Z" fill="#3E8FFF"/>
</svg>
