<svg xmlns="http://www.w3.org/2000/svg" fill="none" viewBox="0 0 22 22" class="design-iconfont">
  <g clip-path="url(#16cavstn5__clip0_937_7366)">
    <path d="M21.8583 11.7826L10.2174 0.141701C10.0285 -0.0472337 9.72113 -0.0472337 9.5322 0.141701C9.34326 0.330636 9.34326 0.63797 9.5322 0.826905L10.4693 1.76402C10.4366 1.79677 10.4089 1.83456 10.3862 1.87738L3.54674 14.9088L0.387752 15.5613C0.118205 15.6167 -0.0480575 15.8737 0.0124016 16.1382C0.0275164 16.2062 0.0602651 16.2692 0.100571 16.3221C0.123243 16.3851 0.158511 16.443 0.208894 16.4934L5.56457 21.849C5.64518 21.9297 5.75098 21.975 5.85678 21.9851C5.8593 21.9851 5.8593 21.9851 5.86182 21.9876C6.12381 22.0481 6.38328 21.8818 6.4387 21.6122L7.0962 18.4356L9.05608 17.4053C9.19463 17.8134 9.42639 18.1988 9.75388 18.5263C10.89 19.6599 12.7315 19.6599 13.8676 18.5263C14.9055 17.4909 14.9937 15.8711 14.1372 14.735L19.9412 11.6844C20.0395 11.6315 20.1125 11.5483 20.1554 11.4526L21.1731 12.4703C21.362 12.6593 21.6694 12.6593 21.8583 12.4703C22.0472 12.2789 22.0472 11.9715 21.8583 11.7826ZM13.1824 17.8411C12.4242 18.5968 11.1973 18.5968 10.4391 17.8411C10.1821 17.5842 10.0133 17.2743 9.93022 16.9443L13.263 15.1935C13.9382 15.9518 13.9104 17.1156 13.1824 17.8411ZM19.4954 10.8354L6.61504 17.6043C6.41099 17.6219 6.23465 17.7731 6.18931 17.9897L5.65022 20.597L1.40296 16.3473L4.01026 15.8082C4.22943 15.7628 4.38309 15.5814 4.39569 15.3724L11.1721 2.46686L19.5256 10.8203C19.5155 10.8253 19.5029 10.8279 19.4954 10.8354Z" fill="#3E8FFF"/>
  </g>
  <defs>
    <clipPath id="16cavstn5__clip0_937_7366">
      <path fill="#fff" d="M0 0H22V22H0z"/>
    </clipPath>
  </defs>
</svg>
