<svg xmlns="http://www.w3.org/2000/svg" fill="none" viewBox="0 0 22 22" class="design-iconfont">
  <path d="M19.3792 2.38063C19.7068 2.38063 20.0149 2.51007 20.2492 2.74305C20.4835 2.97603 20.6137 3.28452 20.6137 3.6081V7.3919C20.6137 7.71764 20.4835 8.02397 20.2492 8.25695C20.0149 8.48993 19.7047 8.61937 19.3792 8.61937H13.5823C13.2547 8.61937 12.9467 8.48993 12.7124 8.25695C12.4781 8.02613 12.3479 7.7198 12.3479 7.39406V3.6081C12.3479 3.28236 12.4781 2.97603 12.7124 2.74305C12.9467 2.51007 13.2569 2.38063 13.5823 2.38063H19.3792ZM19.3792 1H13.5823C12.1396 1 10.9594 2.17354 10.9594 3.6081V7.3919C10.9594 8.82646 12.1396 10 13.5823 10H19.3771C20.8198 10 22 8.82646 22 7.3919V3.6081C22.0022 2.17354 20.822 1 19.3792 1ZM2.01891 9.24065C1.96468 8.45542 1.956 6.42977 3.02339 4.54866C3.54624 3.62536 4.2535 2.87895 5.1278 2.32886C6.13011 1.69679 7.35371 1.32574 8.75955 1.22651L8.85717 2.60283C3.27071 2.99545 3.3358 8.1232 3.40522 9.14789L2.01891 9.24065Z" fill="#3E8FFF"/>
  <path d="M3.21051 10.0586L0 7H6.39065L3.21051 10.0586ZM8.41674 13.4853C8.7443 13.4853 9.05234 13.6129 9.28662 13.8426C9.5209 14.0723 9.65106 14.3765 9.65106 14.6955V18.4263C9.65106 18.7475 9.5209 19.0495 9.28662 19.2792C9.05234 19.509 8.74213 19.6366 8.41674 19.6366H2.62264C2.29508 19.6366 1.98705 19.509 1.75276 19.2792C1.51848 19.0495 1.38833 18.7454 1.38833 18.4263V14.6977C1.38833 14.3765 1.51848 14.0744 1.75276 13.8447C1.98705 13.615 2.29725 13.4874 2.62264 13.4874H8.41674V13.4853ZM8.41674 12.124H2.62264C1.18008 12.124 0 13.2832 0 14.6977V18.4284C0 19.8429 1.18008 21 2.62264 21H8.41674C9.8593 21 11.0394 19.8429 11.0394 18.4284V14.6977C11.0394 13.2832 9.8593 12.124 8.41674 12.124ZM19.9811 12.8769C20.0353 13.6512 20.044 15.6484 18.9767 17.5032C18.4539 18.4136 17.7467 19.1495 16.8725 19.6919C15.8703 20.3151 14.6469 20.681 13.2412 20.7788L13.1436 19.4218C18.7294 19.0368 18.6643 13.9787 18.5949 12.9684L19.9811 12.8769Z" fill="#3E8FFF"/>
  <path d="M18.4834 12L22 15H15L18.4834 12Z" fill="#3E8FFF"/>
</svg>
