<svg xmlns="http://www.w3.org/2000/svg" fill="none" viewBox="0 0 22 22" class="design-iconfont">
  <path d="M0 3.35711C-2.53239e-09 3.53533 0.0334734 3.71181 0.0985089 3.87646C0.163544 4.04111 0.258868 4.19072 0.379038 4.31674C0.499208 4.44276 0.641871 4.54272 0.79888 4.61092C0.95589 4.67913 1.12417 4.71423 1.29412 4.71423C1.46406 4.71423 1.63235 4.67913 1.78936 4.61092C1.94637 4.54272 2.08903 4.44276 2.2092 4.31674C2.32937 4.19072 2.42469 4.04111 2.48973 3.87646C2.55476 3.71181 2.58824 3.53533 2.58824 3.35711C2.58824 3.1789 2.55476 3.00242 2.48973 2.83777C2.42469 2.67312 2.32937 2.52351 2.2092 2.39749C2.08903 2.27147 1.94637 2.17151 1.78936 2.1033C1.63235 2.0351 1.46406 2 1.29412 2C1.12417 2 0.95589 2.0351 0.79888 2.1033C0.641871 2.17151 0.499208 2.27147 0.379038 2.39749C0.258868 2.52351 0.163544 2.67312 0.0985089 2.83777C0.0334734 3.00242 -2.53239e-09 3.1789 0 3.35711Z" fill="#3E8FFF"/>
  <path d="M1.29412 10.1431C0.579446 10.1431 0 10.7504 0 11.4999C0 12.2496 0.579446 12.8569 1.29412 12.8569C2.00879 12.8569 2.58826 12.2497 2.58826 11.4999C2.58824 10.7504 2.00879 10.1431 1.29412 10.1431Z" fill="#3E8FFF"/>
  <path d="M1.29412 18.2854C0.579446 18.2854 0 18.8931 0 19.6425C0 20.3924 0.579446 21 1.29412 21C2.00879 21 2.58826 20.3924 2.58826 19.6425C2.58824 18.8931 2.00879 18.2854 1.29412 18.2854Z" fill="#3E8FFF"/>
  <path d="M4.52942 18.964H22.0001V20.3211H4.52942V18.964Z" fill="#3E8FFF"/>
  <path d="M4.52942 10.8213H22.0001V12.1784H4.52942V10.8213Z" fill="#3E8FFF"/>
  <path d="M4.52942 2.67859H22.0001V4.03573H4.52942V2.67859Z" fill="#3E8FFF"/>
</svg>
