<svg xmlns="http://www.w3.org/2000/svg" fill="none" viewBox="0 0 80 80" class="design-iconfont">
  <path d="M78.3608 69.6501H75.2459V64.6253C75.2459 63.7 74.5121 62.9502 73.6066 62.9502H67.0493C66.1439 62.9502 65.41 63.7 65.41 64.6253V69.6501H62.0123C61.2144 63.976 56.4267 59.6001 50.6559 59.6001H48.033C48.033 59.6001 48.0208 48.4999 47.9987 48.3898C48.1948 45.9066 47.3674 43.354 45.5121 41.4584L36.8471 32.6048L47.1069 22.1218C47.6021 21.6165 48.0197 21.0378 48.3457 20.4051H58.5249C59.4304 20.4051 60.1643 19.6552 60.1643 18.73V17.0553H63.9894V18.7329C63.9894 19.0269 64.0652 19.3157 64.2091 19.5704C64.353 19.825 64.5599 20.0364 64.8092 20.1834L70.4923 23.5357C70.7415 23.6829 71.0242 23.7603 71.312 23.7603C71.5951 23.7603 71.878 23.6854 72.1316 23.5357L77.8148 20.1833C78.5989 19.7208 78.8676 18.6963 78.4148 17.8953C77.9621 17.0941 76.9593 16.8195 76.1755 17.2822L71.312 20.1509L67.2682 17.7656V12.9945L71.312 10.6091L76.1755 13.478C76.9596 13.9407 77.9623 13.6661 78.4148 12.865C78.8676 12.0638 78.5989 11.0394 77.8148 10.5769L72.1316 7.22448C71.8824 7.07742 71.5997 7 71.312 7C71.0242 7 70.7415 7.07742 70.4923 7.22448L64.8092 10.5769C64.5599 10.7239 64.353 10.9353 64.2091 11.19C64.0652 11.4446 63.9894 11.7335 63.9894 12.0275V13.7051H60.1643V12.03C60.1643 11.1049 59.4304 10.3551 58.5249 10.3551H44.4377C42.0013 9.5068 39.1937 10.0726 37.254 12.0543L25.3276 24.2403C20.913 25.039 17.5485 28.9849 17.5485 33.7214C17.5485 36.8901 19.0545 39.7057 21.373 41.4619C21.6688 41.9002 22.0028 42.3102 22.3711 42.6868L31.3491 51.8599V59.6001H29.3444C23.5737 59.6001 18.7861 63.9759 17.9881 69.6501H14.5902V64.6253C14.5902 63.7 13.8563 62.9502 12.9507 62.9502H6.39344C5.48801 62.9502 4.75405 63.7 4.75405 64.6253V69.6501H1.6393C0.733866 69.6501 0 70.3999 0 71.3249C0 72.2502 0.733866 73 1.6393 73H78.3607C79.2661 73 80 72.2502 80 71.3249C80.0001 70.3999 79.2661 69.6501 78.3608 69.6501V69.6501ZM56.8854 13.7052V17.0552H49.1434C49.138 15.9006 48.8598 14.7472 48.3094 13.7052H56.8854ZM11.3114 69.6501H8.03275V66.3001H11.3115V69.6501H11.3114ZM39.5721 14.4232C40.2688 13.7114 41.1949 13.3194 42.1802 13.3194C43.1656 13.3194 44.0916 13.7113 44.7884 14.4232C46.2265 15.8926 46.2265 18.2835 44.7884 19.7531L35.3785 29.3679C34.2239 27.0499 32.1792 25.2707 29.7061 24.5041L39.5721 14.4232V14.4232ZM20.8268 33.7214C20.8268 30.258 23.5845 27.4402 26.9742 27.4402C30.364 27.4402 33.1218 30.2581 33.1218 33.7214C33.1218 37.1848 30.364 40.0027 26.9742 40.0027C23.5845 40.0027 20.8268 37.1849 20.8268 33.7214ZM27.6338 43.3264C31.6018 43.0446 34.9004 40.2441 36.0041 36.4814L43.1937 43.8273C45.2709 45.9498 45.2709 49.4033 43.1937 51.5258C42.1871 52.554 40.8494 53.1201 39.4262 53.1201C38.0032 53.1201 36.6652 52.554 35.6589 51.5258L27.6338 43.3264V43.3264ZM44.7542 54.5808V59.6005H34.6277V54.9761C36.0731 55.9686 37.7492 56.4667 39.4263 56.4667C41.3127 56.4663 43.1977 55.8364 44.7542 54.5808V54.5808ZM21.3122 69.6501C22.0739 65.8321 25.3859 62.9502 29.3444 62.9502H50.6558C54.6141 62.9502 57.9261 65.8322 58.688 69.6501H21.3122V69.6501ZM71.9673 69.6501H68.6886V66.3001H71.9673V69.6501Z" fill="url(#paint0_linear_707_5775)"/>
  <path d="M26.9662 31.75C25.9751 31.75 25.1685 32.5724 25.1685 33.5833C25.1685 34.5941 25.975 35.4167 26.9662 35.4167C27.9575 35.4167 28.764 34.5941 28.764 33.5833C28.764 32.5724 27.9575 31.75 26.9662 31.75Z" fill="#2BB7F7"/>
  <defs>
    <linearGradient id="paint0_linear_707_5775" x1="80" y1="-2.16667" x2="2.15308" y2="71.4752" gradientUnits="userSpaceOnUse">
      <stop/>
      <stop offset=".0001" stop-color="#0B8AFA"/>
      <stop offset="1" stop-color="#47DEF6"/>
    </linearGradient>
  </defs>
</svg>
