<svg xmlns="http://www.w3.org/2000/svg" fill="none" viewBox="0 0 80 80" class="design-iconfont">
  <path d="M37.0861 16.4647C44.0646 16.4647 53.3694 18.6174 53.3694 37.2144C53.3694 38.7372 54.6437 39.9967 56.1849 39.9967C57.7254 39.9967 59 38.7375 59 37.2144C59 15.4836 47.117 10.9589 37.1452 10.9589C27.1734 10.9589 15.2905 15.5275 15.2905 37.2144C15.2905 46.396 19.5577 55.2698 26.2103 60.2484V60.6583C11.4234 62.7671 2 68.7268 2 76.1218C2 77.6446 3.27429 78.9041 4.81539 78.9041C6.35621 78.9041 7.63063 77.6449 7.63063 76.1218C7.63063 72.2265 15.7501 67.2918 29.3518 65.8131C30.7594 65.6813 31.8409 64.4658 31.8409 63.0749V58.8135C31.8409 57.8764 31.3371 57.0271 30.5666 56.4855C24.803 52.7661 20.9063 45.0195 20.9063 37.2148C20.8616 18.5585 30.1071 16.4647 37.0861 16.4647Z" fill="url(#paint0_linear_707_5770)"/>
  <path d="M72.3639 29.5381L68.7979 28.6435C67.6641 12.6573 54.0563 0 37.5246 0C20.679 0 6.93749 13.1117 6.20634 29.4798L4.1175 31.2396C3.47596 31.7821 3.11768 32.5448 3.11768 33.3514V44.2925C3.11768 45.8177 4.4009 47.0792 5.95267 47.0792C7.50443 47.0792 8.78752 45.8179 8.78752 44.2925V34.642L10.8914 32.9408C11.533 32.3981 11.8912 31.6355 11.8912 30.8288C11.8912 16.8664 23.4397 5.55839 37.5994 5.55839C51.759 5.55839 63.3074 16.9102 63.3074 30.8288C63.3074 32.0902 64.1727 33.205 65.4558 33.5275L68.9774 34.3782V44.3366C68.9774 45.8619 70.2603 47.1233 71.8122 47.1233C73.3639 47.1233 74.6471 45.8622 74.6471 44.3366V32.2221C74.5127 30.9169 73.647 29.8021 72.3639 29.5381Z" fill="url(#paint1_linear_707_5770)"/>
  <path d="M61.316 40.548C60.8139 42.0477 56.163 45.864 40.5701 45.864C39.0347 45.864 37.7646 47.1411 37.7646 48.6854C37.7646 50.2298 39.0346 51.5069 40.5701 51.5069C64.2986 51.5069 66.602 43.1913 66.8235 41.5134L64.0623 41.1569L61.316 40.548Z" fill="url(#paint2_linear_707_5770)"/>
  <path d="M47.8983 60.2788V58.5373C47.8983 57.0888 46.6168 55.8904 45.0667 55.8904C43.5174 55.8904 42.2354 57.0885 42.2354 58.5373V62.5911C42.2354 63.9148 43.3233 65.057 44.739 65.1962C46.1993 65.3634 47.6151 65.5306 48.9412 65.7534V60.4317C48.6285 60.4041 48.256 60.3622 47.8983 60.2788Z" fill="url(#paint3_linear_707_5770)"/>
  <path d="M75.3172 72.1224H73.7521V68.1851C73.7521 67.7523 73.4009 67.3986 72.971 67.3986H65.9296V62.6722H67.4947C68.3547 62.6722 69.0598 61.9622 69.0598 61.0966V56.3699C69.0598 55.5046 68.3546 54.7946 67.4947 54.7946H62.7997C61.9398 54.7946 61.2344 55.5046 61.2344 56.3699V61.0966C61.2344 61.9622 61.9398 62.6722 62.7997 62.6722H64.3646V67.3986H57.3233C56.8934 67.3986 56.5422 67.7523 56.5422 68.1851V72.1224H54.9768C54.117 72.1224 53.4117 72.8323 53.4117 73.6978V78.4244C53.4117 79.29 54.117 80 54.9768 80H59.6723C60.5321 80 61.2374 79.29 61.2374 78.4244V73.6978C61.2374 72.8323 60.5321 72.1224 59.6723 72.1224H58.1072V68.9714H72.1955V72.1224H70.6221C69.7624 72.1224 69.0569 72.8323 69.0569 73.6978V78.4244C69.0569 79.29 69.7624 80 70.6221 80H75.3173C76.1772 80 76.8823 79.29 76.8823 78.4244V73.6978C76.8823 72.8323 76.177 72.1224 75.3172 72.1224ZM62.7967 56.3617H67.4918V61.0882H62.7967V56.3617ZM59.6666 78.4245H54.9713V73.6979H59.6666V78.4245ZM75.3172 78.4245H70.6221V73.6979H75.3172V78.4245Z" fill="url(#paint4_linear_707_5770)"/>
  <path d="M75.6587 80H70.8113C69.5144 80 68.4586 78.9836 68.4586 77.7353V73.0693C68.4586 71.821 69.5144 70.8047 70.8113 70.8047H71.6903V69.1125H58.6155V70.8047H59.4945C60.7912 70.8047 61.8472 71.821 61.8472 73.0693V77.7353C61.8472 78.9836 60.7912 80 59.4945 80H54.6469C53.3502 80 52.2941 78.9836 52.2941 77.7353V73.0693C52.2941 71.821 53.3502 70.8047 54.6469 70.8047H55.526V67.627C55.526 66.8062 56.2193 66.1414 57.0692 66.1414H63.6022V62.8939H62.7232C61.4265 62.8939 60.3706 61.8775 60.3706 60.6292V55.9631C60.3706 54.7151 61.4265 53.6986 62.7232 53.6986H67.5707C68.8674 53.6986 69.9236 54.7151 69.9236 55.9631V60.6292C69.9236 61.8775 68.8674 62.8939 67.5707 62.8939H66.6919V66.1414H73.2248C74.0776 66.1414 74.768 66.8089 74.768 67.627V70.8047H75.6471C76.944 70.8047 77.9999 71.821 77.9999 73.0693V77.7353C78.0115 78.9807 76.9526 80 75.6587 80ZM70.3325 78.4445C70.4746 78.5312 70.6341 78.5814 70.8113 78.5814H75.6587C75.8357 78.5814 75.9952 78.5309 76.1373 78.4445H70.3325ZM54.1741 78.4445C54.3162 78.5312 54.4757 78.5814 54.6528 78.5814H59.5004C59.6774 78.5814 59.837 78.5309 59.979 78.4445H54.1741ZM70.0743 72.6085C69.9844 72.7454 69.9322 72.899 69.9322 73.0692V77.7352C69.9322 77.9056 69.9844 78.0592 70.0743 78.1959V72.6085ZM60.2371 72.6085V78.1959C60.3272 78.0592 60.3792 77.9056 60.3792 77.7352V73.0692C60.3792 72.899 60.3272 72.7455 60.2371 72.6085ZM76.3957 72.6085V78.1959C76.4855 78.0592 76.5376 77.9056 76.5376 77.7352V73.0692C76.5377 72.899 76.4828 72.7455 76.3957 72.6085ZM53.9102 72.6085C53.8202 72.7454 53.768 72.899 53.768 73.0692V77.7352C53.768 77.9056 53.8202 78.0592 53.9102 78.1959V72.6085ZM71.548 77.0259H74.9218V73.7784H71.548V77.0259ZM55.3925 77.0259H58.7664V73.7784H55.3925V77.0259ZM70.3325 72.36H76.1373C75.9952 72.2736 75.8357 72.2231 75.6587 72.2231H73.3061V67.627C73.3061 67.5934 73.2712 67.5599 73.2364 67.5599H65.2298V61.4754H67.5824C67.7595 61.4754 67.9189 61.4252 68.0611 61.3388H62.2536C62.3957 61.4252 62.5553 61.4754 62.7321 61.4754H65.0848V67.5599H57.0781C57.0433 67.5599 57.0084 67.5934 57.0084 67.627V72.2231H54.6559C54.4788 72.2231 54.3193 72.2736 54.1772 72.36H59.9819C59.8398 72.2736 59.6802 72.2231 59.5033 72.2231H57.1507V67.694H73.1727V72.2231H70.8112C70.6341 72.2231 70.4746 72.2736 70.3325 72.36ZM68.3165 55.4942V61.0818C68.4064 60.9449 68.4586 60.7914 68.4586 60.621V55.955C68.4586 55.7845 68.4064 55.631 68.3165 55.4942ZM61.9951 55.4942C61.9054 55.6309 61.8529 55.7845 61.8529 55.9549V60.621C61.8529 60.7914 61.9054 60.9449 61.9951 61.0818V55.4942ZM63.4688 59.9117H66.8426V56.6641H63.4688V59.9117ZM62.2536 55.2457H68.0581C67.916 55.1591 67.7565 55.1088 67.5794 55.1088H62.732C62.5552 55.109 62.3868 55.1591 62.2536 55.2457Z" fill="url(#paint5_linear_707_5770)"/>
  <defs>
    <linearGradient id="paint0_linear_707_5770" x1="72.4118" y1=".00001985" x2="3.56365" y2="80.2457" gradientUnits="userSpaceOnUse">
      <stop stop-color="#0B8AFA"/>
      <stop offset="1" stop-color="#47DEF6"/>
    </linearGradient>
    <linearGradient id="paint1_linear_707_5770" x1="78" y1=".00000485" x2=".858417" y2="84.2528" gradientUnits="userSpaceOnUse">
      <stop stop-color="#0B8AFA"/>
      <stop offset="1" stop-color="#47DEF6"/>
    </linearGradient>
    <linearGradient id="paint2_linear_707_5770" x1="52.2941" y1="40.548" x2="52.2941" y2="51.5069" gradientUnits="userSpaceOnUse">
      <stop stop-color="#0B8AFA"/>
      <stop offset="1" stop-color="#47DEF6"/>
    </linearGradient>
    <linearGradient id="paint3_linear_707_5770" x1="78.0001" y1="1.6438" x2="3.54672" y2="80.3669" gradientUnits="userSpaceOnUse">
      <stop stop-color="#0B8AFA"/>
      <stop offset="1" stop-color="#47DEF6"/>
    </linearGradient>
    <linearGradient id="paint4_linear_707_5770" x1="65.147" y1="54.7946" x2="65.147" y2="80" gradientUnits="userSpaceOnUse">
      <stop stop-color="#0B8AFA"/>
      <stop offset="1" stop-color="#47DEF6"/>
    </linearGradient>
    <linearGradient id="paint5_linear_707_5770" x1="77.9999" y1="3.28765" x2="7.4419" y2="81.3825" gradientUnits="userSpaceOnUse">
      <stop stop-color="#0B8AFA"/>
      <stop offset="1" stop-color="#47DEF6"/>
    </linearGradient>
  </defs>
</svg>
