<svg xmlns="http://www.w3.org/2000/svg" fill="none" viewBox="0 0 80 80" class="design-iconfont">
  <path d="M76.6667 10.3C76.6667 8.485 75.1667 7 73.3333 7H66.6667C64.8333 7 63.3333 8.485 63.3333 10.3V63.1H76.6667V10.3ZM73.3333 59.8H66.6667V10.3H73.3333V59.8ZM13.3333 69.7H80V73H13.3333V69.7ZM16.6667 43.3C16.6667 41.485 15.1667 40 13.3333 40H6.66667C4.83333 40 3.33333 41.485 3.33333 43.3V63.1H16.6667V43.3ZM13.3333 59.8H6.66667V43.3H13.3333V59.8ZM36.6667 23.5C36.6667 21.685 35.1667 20.2 33.3333 20.2H26.6667C24.8333 20.2 23.3333 21.685 23.3333 23.5V63.1H36.6667V23.5ZM33.3333 59.8H26.6667V23.5H33.3333V59.8ZM0 69.7H6.66667V73H0V69.7ZM56.6667 30.1C56.6667 28.285 55.1667 26.8 53.3333 26.8H46.6667C44.8333 26.8 43.3333 28.285 43.3333 30.1V63.1H56.6667V30.1ZM53.3333 59.8H46.6667V30.1H53.3333V59.8Z" fill="url(#paint0_linear_707_5771)"/>
  <defs>
    <linearGradient id="paint0_linear_707_5771" x1="72.4706" y1=".87143" x2="-.128448" y2="72.8705" gradientUnits="userSpaceOnUse">
      <stop stop-color="#0B8AFA"/>
      <stop offset="1" stop-color="#47DEF6"/>
    </linearGradient>
  </defs>
</svg>
