<svg xmlns="http://www.w3.org/2000/svg" fill="none" viewBox="0 0 18 18" class="design-iconfont">
  <path d="M4.59134 5.55301C4.51918 5.7407 4.4831 5.94282 4.4831 6.15217C4.4831 7.07617 5.23359 7.82692 6.15726 7.82692C7.08094 7.82692 7.83143 7.07617 7.83143 6.15217C7.83143 5.22816 7.08094 4.47741 6.15726 4.47741C5.94799 4.47741 5.74594 4.51351 5.55832 4.58569L3.06872 2.09522C2.80171 1.82812 2.36874 1.82812 2.10174 2.09522C1.83474 2.36231 1.83474 2.79544 2.10174 3.06253L4.59134 5.55301Z" fill="#1D2129"/>
  <path d="M17.2919 8.31783L9.68599 0.709244C8.74067 -0.236415 7.20361 -0.236415 6.25828 0.709244L5.28409 1.68378L5.2913 1.691C5.19028 1.8065 5.13255 1.95087 5.13255 2.1169C5.13255 2.47062 5.4212 2.75937 5.77479 2.75937C5.93355 2.75937 6.08509 2.70162 6.20055 2.60056L6.20777 2.60778L7.17474 1.62603C7.61493 1.18568 8.32934 1.18568 8.76231 1.62603L16.3682 9.23461C16.8084 9.67495 16.8012 10.3896 16.3682 10.8227L10.8262 16.3668C10.386 16.8071 9.67156 16.8071 9.23859 16.3668L1.63267 8.76539C1.19248 8.32505 1.1997 7.61039 1.63267 7.17726L2.60686 6.20273L2.59965 6.19551C2.70068 6.08001 2.75841 5.93563 2.75841 5.7696C2.75841 5.41588 2.46976 5.12713 2.11616 5.12713C1.9574 5.12713 1.80586 5.18488 1.6904 5.28594L1.68319 5.27872L0.708995 6.25326C-0.236332 7.19892 -0.236332 8.73652 0.708995 9.68217L8.31491 17.2908C9.26023 18.2364 10.7973 18.2364 11.7426 17.2908L17.2847 11.7467C18.2372 10.8011 18.2372 9.26349 17.2919 8.31783Z" fill="#1D2129"/>
</svg>
