<svg xmlns="http://www.w3.org/2000/svg" fill="none" viewBox="0 0 18 18" class="design-iconfont">
  <path d="M16.5579 1.14542L14.889 0.860155L15.029 0L18 0.507718L17.5057 3.58325L16.6664 3.44149L16.8974 2.00339L15.8666 2.94293L15.3013 2.29084L16.5579 1.14542V1.14542ZM1.08605 1.9022L1.33406 3.44149L0.494316 3.58325L0 0.507718L2.97143 0L3.11096 0.860155L1.51017 1.13408L4.3191 3.39526C4.91574 2.73432 5.63935 2.20717 6.44439 1.847C7.24943 1.48682 8.11847 1.30141 8.99681 1.30244C10.9439 1.30244 12.6876 2.19662 13.8579 3.60637L14.6653 2.87053L15.2306 3.52262L14.3671 4.30993C15.0288 5.36404 15.3798 6.59159 15.3778 7.8452C15.3778 11.312 12.748 14.1494 9.42221 14.3736V16.5501L10.8558 15.3576L11.3918 16.0354L9.02999 18L6.60648 16.0389L7.13313 15.3541L8.57141 16.5178V14.3736C5.24562 14.1494 2.61579 11.312 2.61579 7.8452C2.61579 6.44069 3.04757 5.13868 3.78267 4.07265L1.08647 1.9022H1.08605ZM8.99681 13.5156C12.0512 13.5156 14.527 10.977 14.527 7.8452C14.527 4.7134 12.0512 2.17481 8.99681 2.17481C5.94243 2.17481 3.46659 4.7134 3.46659 7.8452C3.46659 10.977 5.94243 13.5156 8.99681 13.5156Z" fill="#1D2129"/>
</svg>
