<svg xmlns="http://www.w3.org/2000/svg" fill="none" viewBox="0 0 24 30" class="design-iconfont">
  <path d="M15.619 7.62376C15.619 8.76788 15.4055 9.84598 14.9784 10.8581C14.5512 11.8702 13.9798 12.7558 13.2641 13.5149C12.5483 14.2739 11.7229 14.8735 10.7879 15.3135C9.85281 15.7536 8.8658 15.9736 7.82684 15.9736C6.78788 15.9736 5.79509 15.7646 4.84848 15.3465C3.90188 14.9285 3.07071 14.3399 2.35498 13.5809C1.63925 12.8218 1.06782 11.9197 0.640693 10.8746C0.213564 9.82948 0 8.67987 0 7.42574C0 6.43564 0.207792 5.49505 0.623377 4.60396C1.03896 3.71287 1.59885 2.92629 2.30303 2.24422C3.00722 1.56216 3.82107 1.0176 4.74459 0.610561C5.66811 0.20352 6.64935 0 7.68831 0C8.72727 0 9.72006 0.214521 10.6667 0.643564C11.6133 1.07261 12.456 1.63916 13.1948 2.34323C13.9336 3.0473 14.5224 3.85589 14.961 4.76898C15.3997 5.68207 15.619 6.63366 15.619 7.62376ZM6.44156 18.2838L6.40693 30L7.65368 28.4488L8.9697 30V18.2838H6.44156ZM14.684 1.58416C15.1688 2.13421 15.6075 2.72827 16 3.36634C16.3232 3.91639 16.6234 4.54345 16.9004 5.24752C17.1775 5.9516 17.316 6.68867 17.316 7.45875C17.2698 8.80088 17.114 9.92299 16.8485 10.8251C16.583 11.7272 16.2886 12.4532 15.9654 13.0033C15.5729 13.6414 15.1457 14.1474 14.684 14.5215C15.3535 14.4554 16.0231 14.3564 16.6926 14.2244C17.2698 14.1144 17.8932 13.9714 18.5628 13.7954C19.2323 13.6194 19.8672 13.3773 20.4675 13.0693C20.9986 12.8053 21.5007 12.4587 21.974 12.0297C22.4473 11.6007 22.8514 11.0891 23.1861 10.495C23.5209 9.90099 23.7576 9.23542 23.8961 8.49835C24.0346 7.76128 24.0346 6.94169 23.8961 6.0396C23.7576 5.11551 23.3535 4.29043 22.684 3.56436C22.0144 2.83828 21.2179 2.26073 20.2944 1.83168C19.3708 1.40264 18.4069 1.14962 17.4026 1.07261C16.3983 0.9956 15.4921 1.16612 14.684 1.58416ZM14.7186 16.3696L14.684 27.5578L15.8961 26.0396L17.2121 27.5578V16.3696H14.7186Z" fill="url(#paint0_linear_670_5890)"/>
  <defs>
    <linearGradient id="paint0_linear_670_5890" x1="12" y1="0" x2="12" y2="30" gradientUnits="userSpaceOnUse">
      <stop stop-color="#8EEBFF"/>
      <stop offset="1" stop-color="#3E8FFF"/>
    </linearGradient>
  </defs>
</svg>
