<svg xmlns="http://www.w3.org/2000/svg" fill="none" viewBox="0 0 30 24" class="design-iconfont">
  <path d="M30 18.8911C30 20.3658 29.4099 20.6818 27.1031 20.6818C26.513 14.9936 23.6161 12.2547 20.6119 10.8327C22.5968 8.19921 22.7041 4.35435 20.8265 1.51021C23.1333 0.825511 25.5474 2.40559 26.1375 4.82838C26.6203 6.98782 25.6547 9.35794 23.6161 10.2533C27.3713 11.2014 30 14.7829 30 18.8911ZM17.6614 11.3067C21.4166 12.0967 25.7083 14.6775 25.7083 22.0512C25.7083 24 23.1869 24 15.0864 24C6.87851 24 4.46443 24 4.46443 22.0512C4.46443 14.7829 8.75612 12.1494 12.4577 11.3594C9.56081 9.77929 8.54154 6.14511 9.93634 3.19563C11.3311 0.246148 14.8181 -0.859907 17.5541 0.720172C20.29 2.30025 21.363 5.93443 19.8609 8.77857C19.3781 9.9373 18.5734 10.7273 17.6614 11.3067ZM9.39987 10.8327C6.39569 12.2021 3.4988 15.0462 2.90869 20.6818C0.601904 20.6818 0.0117965 20.3658 0.0117965 18.8911C-0.202788 14.7829 2.53317 11.1487 6.34204 10.2533C4.14255 9.14726 3.12327 6.51379 4.14255 4.14368C5.05454 2.08957 7.14674 0.983519 9.23894 1.56288C7.25403 4.35435 7.36132 8.09387 9.39987 10.8327Z" fill="url(#paint0_linear_670_5953)"/>
  <defs>
    <linearGradient id="paint0_linear_670_5953" x1="15" y1="0" x2="15" y2="24" gradientUnits="userSpaceOnUse">
      <stop stop-color="#8EEBFF"/>
      <stop offset=".0001" stop-color="#5EE2FF"/>
      <stop offset="1" stop-color="#3E8FFF"/>
    </linearGradient>
  </defs>
</svg>
