<svg xmlns="http://www.w3.org/2000/svg" fill="none" viewBox="0 0 24 30" class="design-iconfont">
  <g clip-path="url(#0j9srj9ja__clip0_870_6503)">
    <path d="M21.9648 7.01213C22.4516 7.38019 22.8339 7.87648 23.1165 8.41551C23.3563 8.8928 23.4869 9.42234 23.4941 9.95662C23.4964 15.3303 23.4964 20.7016 23.4941 26.0753C23.4869 26.9848 23.1094 27.88 22.473 28.5259C21.953 29.0697 21.2643 29.4449 20.5306 29.6039C20.1554 29.6894 19.766 29.7037 19.3837 29.6966L4.41426 29.6966C3.85386 29.7061 3.28633 29.6039 2.77342 29.3807C1.7761 28.9628 0.966366 28.0961 0.65292 27.056C0.536565 26.6785 0.493822 26.2843 0.498571 25.8901C0.503321 20.647 0.503321 15.4039 0.503321 10.1608C0.498572 9.77615 0.536565 9.38672 0.645796 9.01628C0.759777 8.62685 0.942621 8.25879 1.1777 7.92872C1.42704 7.55591 1.73811 7.22585 2.10142 6.96227C4.62323 5.08159 7.14741 3.2033 9.66923 1.32262C10.4148 0.771719 11.3599 0.501016 12.286 0.572254C13.0221 0.624495 13.7369 0.888074 14.3305 1.325C16.8761 3.21992 19.4217 5.11484 21.9648 7.01213ZM15.0572 9.47458C14.397 8.88093 13.5588 8.48438 12.6778 8.35377C11.7161 8.20892 10.7093 8.37989 9.85207 8.83819C9.06133 9.25849 8.39407 9.91625 7.96902 10.707C7.66033 11.2769 7.47273 11.9109 7.42762 12.5592C7.35638 13.5422 7.61046 14.5467 8.14712 15.3731C8.74076 16.2991 9.67397 16.9949 10.7307 17.2965C11.8111 17.6075 13.0031 17.5078 14.0123 17.0068C14.993 16.5295 15.7885 15.6912 16.216 14.6892C16.6814 13.6064 16.7075 12.3407 16.2777 11.2413C16.0212 10.5669 15.5938 9.95899 15.0572 9.47458M17.598 19.9085C17.4721 19.8254 17.3201 19.7874 17.1705 19.7898L6.8126 19.7898C6.47066 19.7803 6.14296 20.0367 6.07173 20.3739C6.01474 20.6209 6.0931 20.8987 6.28069 21.0721C6.41604 21.2169 6.61551 21.2881 6.8126 21.2905C10.2747 21.2905 13.7369 21.2905 17.1967 21.2881C17.4864 21.2881 17.7642 21.1053 17.8805 20.8417C18.0325 20.514 17.9043 20.0961 17.598 19.9085M17.5956 23.5962C17.4626 23.5108 17.3059 23.4728 17.1492 23.4775L6.83397 23.4775C6.51102 23.4633 6.19758 23.677 6.09547 23.9833C6.00761 24.2279 6.06223 24.5152 6.2332 24.7099C6.36617 24.8666 6.56801 24.964 6.7746 24.9711L17.2133 24.9711C17.4151 24.9688 17.6098 24.8785 17.7452 24.7289C17.9494 24.52 18.004 24.1804 17.8758 23.9144C17.8188 23.7862 17.7143 23.677 17.5956 23.5962V23.5962Z" fill="url(#0j9srj9ja__paint0_linear_870_6503)"/>
    <path d="M13.8342 10.3745C14.3827 10.7663 14.7983 11.3386 14.993 11.9844C15.2827 12.92 15.0975 13.9933 14.4943 14.7675C14.1168 15.2685 13.5777 15.6461 12.9794 15.836C12.0319 16.1471 10.9372 15.9595 10.1488 15.3469C9.64306 14.9598 9.26312 14.4136 9.07553 13.8034C8.90931 13.262 8.89269 12.6754 9.03279 12.1269C9.17289 11.5689 9.47446 11.0536 9.89001 10.657C10.4172 10.1489 11.1272 9.83782 11.8562 9.8022C12.5543 9.75946 13.2667 9.96367 13.8342 10.3745Z" fill="url(#0j9srj9ja__paint1_linear_870_6503)"/>
  </g>
  <defs>
    <linearGradient id="0j9srj9ja__paint0_linear_870_6503" x1="12.0396" y1=".376727" x2="12.0396" y2="29.5203" gradientUnits="userSpaceOnUse">
      <stop stop-color="#8DE9FF"/>
      <stop offset="1" stop-color="#3F91FF"/>
    </linearGradient>
    <linearGradient id="0j9srj9ja__paint1_linear_870_6503" x1="12.0397" y1="9.74717" x2="12.0397" y2="16.1089" gradientUnits="userSpaceOnUse">
      <stop stop-color="#73CCFF"/>
      <stop offset="1" stop-color="#64BAFF"/>
    </linearGradient>
    <clipPath id="0j9srj9ja__clip0_870_6503">
      <path fill="#fff" d="M0 0H24V30H0z"/>
    </clipPath>
  </defs>
</svg>
