<svg xmlns="http://www.w3.org/2000/svg" fill="none" viewBox="0 0 25 30" class="design-iconfont">
  <path d="M23.7752 13.913L17.5317 10.2311C16.9594 9.89809 16.2804 9.80898 15.6434 9.98331C15.0065 10.1576 14.4636 10.5812 14.1336 11.1612L13.9439 11.497V2.69124C13.9439 1.97748 13.6647 1.29295 13.1677 0.788247C12.6707 0.283541 11.9966 0 11.2937 0C10.5908 0 9.91672 0.283541 9.41971 0.788247C8.9227 1.29295 8.64348 1.97748 8.64348 2.69124V18.1453L6.39432 15.8613C6.01731 15.4779 5.56955 15.1737 5.07668 14.9662C4.5838 14.7587 4.05547 14.6518 3.52191 14.6518C2.98834 14.6518 2.46001 14.7587 1.96714 14.9662C1.47426 15.1737 1.02651 15.4779 0.64949 15.8613C0.443836 16.0662 0.280475 16.3107 0.168957 16.5805C0.0574381 16.8503 0 17.14 0 17.4326C0 17.7251 0.0574381 18.0148 0.168957 18.2846C0.280475 18.5544 0.443836 18.7989 0.64949 19.0038L8.02022 26.4887C8.16113 26.6428 8.30746 26.7914 8.45921 26.9345L8.91446 27.3968C9.07394 27.5579 9.2567 27.6934 9.45643 27.7985C11.3658 29.2354 13.6811 30.0075 16.0576 29.9999C18.4292 29.9999 20.7038 29.0432 22.3808 27.3402C24.0579 25.6372 25 23.3275 25 20.9191V15.9658C24.98 15.5472 24.8575 15.1403 24.6436 14.7819C24.4298 14.4234 24.1313 14.1248 23.7752 13.913Z" fill="url(#paint0_linear_670_5894)"/>
  <defs>
    <linearGradient id="paint0_linear_670_5894" x1="12.5" y1="0" x2="12.5" y2="30" gradientUnits="userSpaceOnUse">
      <stop stop-color="#8EEBFF"/>
      <stop offset="1" stop-color="#3E8FFF"/>
    </linearGradient>
  </defs>
</svg>
