<svg xmlns="http://www.w3.org/2000/svg" fill="none" viewBox="0 0 24 30" class="design-iconfont">
  <path d="M0 0V4.86C2.19053 6.89882 4.95591 8.21342 7.92 8.625C8.28163 7.84776 8.85774 7.18999 9.58054 6.72908C10.3033 6.26818 11.1428 6.02331 12 6.02332C12.8572 6.02331 13.6967 6.26818 14.4195 6.72908C15.1423 7.18999 15.7184 7.84776 16.08 8.625C19.0441 8.21342 21.8095 6.89882 24 4.86V0H0ZM12 15C11.0062 14.9951 10.0419 14.6614 9.25769 14.0508C8.47348 13.4403 7.91345 12.5873 7.665 11.625C4.93771 11.2167 2.32644 10.2407 0 8.76V30H24V8.76C21.6736 10.2407 19.0623 11.2167 16.335 11.625C16.0865 12.5873 15.5265 13.4403 14.7423 14.0508C13.9581 14.6614 12.9938 14.9951 12 15Z" fill="url(#paint0_linear_670_5891)"/>
  <path d="M9 10.5C9 11.2956 9.31607 12.0587 9.87868 12.6213C10.4413 13.1839 11.2044 13.5 12 13.5C12.7956 13.5 13.5587 13.1839 14.1213 12.6213C14.6839 12.0587 15 11.2956 15 10.5C15 9.70435 14.6839 8.94129 14.1213 8.37868C13.5587 7.81607 12.7956 7.5 12 7.5C11.2044 7.5 10.4413 7.81607 9.87868 8.37868C9.31607 8.94129 9 9.70435 9 10.5Z" fill="url(#paint1_linear_670_5891)"/>
  <defs>
    <linearGradient id="paint0_linear_670_5891" x1="12" y1="0" x2="12" y2="30" gradientUnits="userSpaceOnUse">
      <stop stop-color="#8EEBFF"/>
      <stop offset="1" stop-color="#3E8FFF"/>
    </linearGradient>
    <linearGradient id="paint1_linear_670_5891" x1="12" y1="7.5" x2="12" y2="13.5" gradientUnits="userSpaceOnUse">
      <stop stop-color="#8EEBFF"/>
      <stop offset="1" stop-color="#3E8FFF"/>
    </linearGradient>
  </defs>
</svg>
