<svg xmlns="http://www.w3.org/2000/svg" fill="none" viewBox="0 0 30 30" class="design-iconfont">
  <path d="M19.2185 15.6115C22.4631 16.6223 25.0592 18.4269 27.0069 21.0231C28.9546 23.6192 29.9515 26.61 30 30H0C0.0484615 26.61 1.04538 23.6192 2.99308 21.0231C4.94077 18.4269 7.53692 16.6223 10.7815 15.6115L15 21.9231L19.2185 15.6115ZM22.5 7.5C22.4515 9.61615 21.7177 11.3815 20.3008 12.8008C18.8838 14.22 17.1162 14.9515 15 15C12.8838 14.9515 11.1185 14.2177 9.69923 12.8008C8.28 11.3838 7.54846 9.61615 7.5 7.5C7.54846 5.38385 8.28231 3.61846 9.69923 2.19923C11.1162 0.78 12.8838 0.0484615 15 0C17.1162 0.0484615 18.8815 0.782308 20.3008 2.19923C21.72 3.61615 22.4515 5.38385 22.5 7.5Z" fill="url(#paint0_linear_670_5889)"/>
  <defs>
    <linearGradient id="paint0_linear_670_5889" x1="15" y1="0" x2="15" y2="30" gradientUnits="userSpaceOnUse">
      <stop stop-color="#8EEBFF"/>
      <stop offset="1" stop-color="#3E8FFF"/>
    </linearGradient>
  </defs>
</svg>
