<svg xmlns="http://www.w3.org/2000/svg" fill="none" viewBox="0 0 100 100" class="design-iconfont">
  <g clip-path="url(#clip0_712_5637)">
    <path fill="#fff" d="M0 0H100V100H0z"/>
    <path d="M57.9443 77.511C57.6475 77.8074 57.412 78.1594 57.2514 78.5469C57.0907 78.9344 57.008 79.3498 57.008 79.7692C57.008 80.1887 57.0907 80.6041 57.2514 80.9916C57.412 81.379 57.6475 81.7311 57.9443 82.0274L65.5745 89.655C66.1733 90.2535 66.9855 90.5896 67.8322 90.5894C68.6789 90.5891 69.4908 90.2525 70.0893 89.6536C70.6878 89.0547 71.0239 88.2425 71.0236 87.3958C71.0233 86.5491 70.6867 85.7371 70.0878 85.1386L62.4606 77.511C62.1642 77.2142 61.8122 76.9787 61.4247 76.818C61.0373 76.6574 60.6219 76.5747 60.2025 76.5747C59.783 76.5747 59.3676 76.6574 58.9802 76.818C58.5927 76.9787 58.2407 77.2142 57.9443 77.511ZM55.9209 75.4875C56.483 74.925 57.1505 74.4788 57.8851 74.1743C58.6198 73.8699 59.4072 73.7132 60.2025 73.7132C60.9977 73.7132 61.7851 73.8699 62.5198 74.1743C63.2544 74.4788 63.9219 74.925 64.484 75.4875L72.1113 83.1151C72.6735 83.6772 73.1196 84.3445 73.424 85.079C73.7283 85.8135 73.8851 86.6007 73.8852 87.3958C73.8853 88.1908 73.7289 88.9781 73.4247 89.7127C73.1206 90.4473 72.6748 91.1148 72.1127 91.6771C71.5506 92.2394 70.8833 92.6854 70.1489 92.9898C69.4144 93.2942 68.6272 93.4509 67.8322 93.4511C67.0371 93.4512 66.2499 93.2947 65.5153 92.9906C64.7807 92.6865 64.1133 92.2406 63.551 91.6785L55.9209 84.051C55.3584 83.4888 54.9122 82.8213 54.6077 82.0866C54.3033 81.352 54.1466 80.5645 54.1466 79.7692C54.1466 78.974 54.3033 78.1865 54.6077 77.4518C54.9122 76.7171 55.3584 76.0497 55.9209 75.4875ZM75.3797 60.075C75.0829 60.3714 74.8474 60.7234 74.6868 61.1109C74.5261 61.4983 74.4434 61.9137 74.4434 62.3332C74.4434 62.7527 74.5261 63.168 74.6868 63.5555C74.8474 63.943 75.0829 64.295 75.3797 64.5914L83.0098 72.219C83.3064 72.5153 83.6584 72.7504 84.0458 72.9107C84.4331 73.071 84.8483 73.1535 85.2675 73.1533C85.6868 73.1532 86.1019 73.0705 86.4892 72.9099C86.8764 72.7493 87.2283 72.5141 87.5247 72.2175C87.821 71.921 88.0561 71.5689 88.2164 71.1816C88.3767 70.7942 88.4591 70.379 88.459 69.9597C88.4589 69.5405 88.3762 69.1253 88.2156 68.738C88.055 68.3508 87.8198 67.9989 87.5232 67.7025L79.896 60.075C79.5996 59.7781 79.2476 59.5426 78.8601 59.382C78.4726 59.2213 78.0573 59.1386 77.6378 59.1386C77.2184 59.1386 76.803 59.2213 76.4156 59.382C76.0281 59.5426 75.6761 59.7781 75.3797 60.075ZM73.3563 58.0514C73.9184 57.4889 74.5859 57.0427 75.3205 56.7383C76.0552 56.4338 76.8426 56.2771 77.6378 56.2771C78.4331 56.2771 79.2205 56.4338 79.9552 56.7383C80.6898 57.0427 81.3573 57.4889 81.9194 58.0514L89.5467 65.679C90.6822 66.8142 91.3203 68.354 91.3206 69.9597C91.3208 71.5654 90.6833 73.1055 89.5481 74.241C88.4129 75.3766 86.8732 76.0147 85.2675 76.015C83.6619 76.0153 82.1219 75.3777 80.9864 74.2425L73.3563 66.6149C72.7938 66.0528 72.3476 65.3853 72.0431 64.6506C71.7387 63.9159 71.582 63.1284 71.582 62.3332C71.582 61.5379 71.7387 60.7504 72.0431 60.0158C72.3476 59.2811 72.7938 58.6136 73.3563 58.0514Z" fill="url(#paint0_linear_712_5637)"/>
    <path d="M89.9565 95.4607C90.4194 95.9216 91.0473 96.1805 91.702 96.1805C92.3566 96.1805 92.9845 95.9216 93.4474 95.4607C93.9103 94.9999 94.1704 94.3748 94.1704 93.723C94.1704 93.0713 93.9103 92.4462 93.4474 91.9853L80.8954 79.489L77.4045 82.9615L89.9565 95.4607ZM80.8954 75.3806L95.5064 89.9326C96.4792 90.9449 97.0152 92.2961 96.9996 93.697C96.984 95.0979 96.4182 96.437 95.4231 97.4277C94.4281 98.4183 93.083 98.9817 91.6759 98.9972C90.2687 99.0127 88.9115 98.479 87.8947 97.5105L73.2808 82.9644L80.8925 75.3806H80.8954ZM55.6048 99.1307C55.2181 99.1307 54.8472 98.9777 54.5737 98.7055C54.3002 98.4332 54.1466 98.064 54.1466 97.6789C54.1466 97.2939 54.3002 96.9247 54.5737 96.6524C54.8472 96.3802 55.2181 96.2272 55.6048 96.2272H74.9198C75.3065 96.2272 75.6774 96.3802 75.9509 96.6524C76.2244 96.9247 76.378 97.2939 76.378 97.6789C76.378 98.064 76.2244 98.4332 75.9509 98.7055C75.6774 98.9777 75.3065 99.1307 74.9198 99.1307H55.6048Z" fill="url(#paint1_linear_712_5637)"/>
    <path d="M64.3872 75.3753L72.7392 83.7302L81.5999 74.8694L73.2479 66.5146L64.3872 75.3753ZM73.2479 62.4729L85.6416 74.8694L72.7392 87.7719L60.3427 75.3753L73.2479 62.4729Z" fill="url(#paint2_linear_712_5637)"/>
    <path fill-rule="evenodd" clip-rule="evenodd" d="M15.9402 6.19556H7.16305C4.31158 6.19556 2 8.50714 2 11.3586V93.9674C2 96.8189 4.31158 99.1305 7.16305 99.1305H45.6106C45.4516 97.4374 45.3699 95.7143 45.3699 93.9672C45.3699 70.0148 60.7418 50.5975 79.7041 50.5975C80.3102 50.5975 80.9126 50.6174 81.511 50.6566V11.3586C81.511 8.50713 79.1994 6.19556 76.348 6.19556H68.087C68.0869 9.6172 65.313 12.3909 61.8914 12.3909H22.1359C18.7142 12.3909 15.9403 9.6172 15.9402 6.19556ZM10.2608 30.9781C9.12022 30.9781 8.19559 31.9027 8.19559 33.0433C8.19559 34.1839 9.12022 35.1086 10.2608 35.1086H73.25C74.3906 35.1086 75.3152 34.1839 75.3152 33.0433C75.3152 31.9027 74.3906 30.9781 73.25 30.9781H10.2608ZM8.19559 46.4672C8.19559 45.3266 9.12022 44.402 10.2608 44.402H73.25C74.3906 44.402 75.3152 45.3266 75.3152 46.4672C75.3152 47.6078 74.3906 48.5324 73.25 48.5324H10.2608C9.12022 48.5324 8.19559 47.6078 8.19559 46.4672ZM10.2608 57.8258C9.12022 57.8258 8.19559 58.7504 8.19559 59.891C8.19559 61.0316 9.12022 61.9562 10.2608 61.9562H52.0815C53.2221 61.9562 54.1467 61.0316 54.1467 59.891C54.1467 58.7504 53.2221 57.8258 52.0815 57.8258H10.2608ZM8.19559 73.8313C8.19559 72.6907 9.12022 71.7661 10.2608 71.7661H43.8206C44.9612 71.7661 45.8859 72.6907 45.8859 73.8313C45.8859 74.9719 44.9612 75.8965 43.8206 75.8965H10.2608C9.12022 75.8965 8.19559 74.9719 8.19559 73.8313Z" fill="url(#paint3_linear_712_5637)"/>
    <rect x="18.0056" y="-.00024414" width="47.5001" height="10.3261" rx="5.16305" fill="url(#paint4_linear_712_5637)"/>
  </g>
  <defs>
    <linearGradient id="paint0_linear_712_5637" x1="72.7336" y1="56.2771" x2="72.7336" y2="93.4511" gradientUnits="userSpaceOnUse">
      <stop stop-color="#A0F1FF"/>
      <stop offset="1" stop-color="#3E8FFF"/>
    </linearGradient>
    <linearGradient id="paint1_linear_712_5637" x1="75.5733" y1="75.3806" x2="75.5733" y2="99.1307" gradientUnits="userSpaceOnUse">
      <stop stop-color="#47DDF6"/>
      <stop offset="1" stop-color="#3E8FFF"/>
    </linearGradient>
    <linearGradient id="paint2_linear_712_5637" x1="72.9921" y1="62.4729" x2="72.9921" y2="87.7719" gradientUnits="userSpaceOnUse">
      <stop stop-color="#A9F3FF"/>
      <stop offset="1" stop-color="#3E8FFF"/>
    </linearGradient>
    <linearGradient id="paint3_linear_712_5637" x1="41.7555" y1="6.19556" x2="41.7555" y2="99.1305" gradientUnits="userSpaceOnUse">
      <stop stop-color="#A6EFFF"/>
      <stop offset="1" stop-color="#2EBBF7"/>
    </linearGradient>
    <linearGradient id="paint4_linear_712_5637" x1="41.7557" y1="-.00024414" x2="41.7557" y2="10.3259" gradientUnits="userSpaceOnUse">
      <stop stop-color="#8EEBFF"/>
      <stop offset="1" stop-color="#339DD1"/>
    </linearGradient>
    <clipPath id="clip0_712_5637">
      <path fill="#fff" d="M0 0H100V100H0z"/>
    </clipPath>
  </defs>
</svg>
