<svg xmlns="http://www.w3.org/2000/svg" fill="none" viewBox="0 0 100 100" class="design-iconfont">
  <path fill="#fff" d="M0 0H100V100H0z"/>
  <path d="M83.8935 53.6641C78.7804 53.3463 73.982 51.1211 70.4743 47.4412C66.9665 43.7613 65.0127 38.9029 65.0103 33.854C65.0093 29.4648 66.4901 25.2 69.2193 21.7314C62.2156 19.8118 62.0233 21.7039 56.0432 24.6138C51.3565 25.5827 51.6884 19.2616 45.7672 22.1776C48.7728 28.5049 51.2449 30.2013 51.7939 32.4296C51.1084 32.506 50.578 32.9217 50.578 33.4322C50.578 33.9427 51.1084 34.3553 51.7939 34.4287L51.7318 34.7313C51.2728 36.5163 46.9676 39.3743 43.3014 42.0519V67.9019C43.3014 69.9866 41.856 71.6769 40.0756 71.6769H28.776C27.6532 82.3293 30.8573 92.0952 44.3808 92.5629C57.318 93 58.9619 93 58.9619 93C58.9619 93 60.5996 93 73.5431 92.5629C95.0132 91.8171 90.4971 67.6421 83.8935 53.6641ZM68.4253 64.0567V68.6661H61.7225V70.5551H68.3539L68.3788 75.1859L61.7225 75.1737V80.7184L56.4868 80.6848V75.1706H49.8491V70.5551H56.4868V68.6661H49.8491V64.0567L55.7362 64.0353L46.828 51.879H52.7151L59.3248 60.4071L65.2088 51.8087H71.0896L62.4917 64.0353L68.4253 64.0567Z" fill="url(#paint0_linear_712_5658)"/>
  <path fill-rule="evenodd" clip-rule="evenodd" d="M37.0655 8H3.22268C1.4454 8 0 9.69338 0 11.778V64.6273C0 66.7089 1.4423 68.3992 3.22268 68.3992H37.0686C38.8521 68.3992 40.2944 66.7058 40.2944 64.6273V11.778C40.2913 9.69338 38.849 8 37.0655 8ZM12.8938 62.7383C12.8938 63.7837 12.1711 64.6273 11.284 64.6273H6.44537C5.55207 64.6273 4.83247 63.7837 4.83247 62.7383V57.0713C4.83247 56.029 5.55517 55.1854 6.44537 55.1854H11.2809C12.1711 55.1854 12.8938 56.029 12.8938 57.0713V62.7383ZM12.8938 49.5275C12.8938 50.5698 12.1711 51.4135 11.284 51.4135H6.44537C5.55207 51.4135 4.83247 50.5698 4.83247 49.5275V43.8636C4.83247 42.8213 5.55517 41.9776 6.44537 41.9776H11.2809C12.1711 41.9776 12.8938 42.8213 12.8938 43.8636V49.5275ZM12.8938 36.3137C12.8938 37.356 12.1711 38.2027 11.284 38.2027H6.44537C5.55207 38.2027 4.83247 37.356 4.83247 36.3137V30.6497C4.83247 29.6104 5.55517 28.7607 6.44537 28.7607H11.2809C12.1711 28.7607 12.8938 29.6074 12.8938 30.6497V36.3137ZM24.1748 62.7383C24.1748 63.7837 23.4521 64.6273 22.5619 64.6273H17.7294C16.8361 64.6273 16.1165 63.7837 16.1165 62.7383V57.0713C16.1165 56.029 16.8392 55.1854 17.7294 55.1854H22.565C23.4552 55.1854 24.1779 56.029 24.1779 57.0713V62.7383H24.1748ZM24.1748 49.5275C24.1748 50.5698 23.4521 51.4135 22.5619 51.4135H17.7294C16.8361 51.4135 16.1165 50.5698 16.1165 49.5275V43.8636C16.1165 42.8213 16.8392 41.9776 17.7294 41.9776H22.565C23.4552 41.9776 24.1779 42.8213 24.1779 43.8636V49.5275H24.1748ZM24.1748 36.3137C24.1748 37.356 23.4521 38.2027 22.5619 38.2027H17.7294C16.8361 38.2027 16.1165 37.356 16.1165 36.3137V30.6497C16.1165 29.6104 16.8392 28.7607 17.7294 28.7607H22.565C23.4552 28.7607 24.1779 29.6074 24.1779 30.6497V36.3137H24.1748ZM35.4588 62.7383C35.4588 63.7837 34.7361 64.6273 33.8459 64.6273H29.0073C28.1233 64.6273 27.4006 63.7837 27.4006 62.7383V57.0713C27.4006 56.029 28.1202 55.1854 29.0073 55.1854H33.8459C34.7361 55.1854 35.4588 56.029 35.4588 57.0713V62.7383ZM35.4588 49.5275C35.4588 50.5698 34.7361 51.4135 33.8459 51.4135H29.0073C28.1233 51.4135 27.4006 50.5698 27.4006 49.5275V43.8636C27.4006 42.8213 28.1202 41.9776 29.0073 41.9776H33.8459C34.7361 41.9776 35.4588 42.8213 35.4588 43.8636V49.5275ZM35.4588 36.3137C35.4588 37.356 34.7361 38.2027 33.8459 38.2027H29.0073C28.1233 38.2027 27.4006 37.356 27.4006 36.3137V30.6497C27.4006 29.6104 28.1202 28.7607 29.0073 28.7607H33.8459C34.7361 28.7607 35.4588 29.6074 35.4588 30.6497V36.3137ZM35.4588 23.1029H4.83558V13.664H35.4588V23.1029Z" fill="url(#paint1_linear_712_5658)"/>
  <path fill-rule="evenodd" clip-rule="evenodd" d="M100 33.854C99.9996 35.9 99.5903 37.9258 98.7954 39.8159C98.0005 41.7059 96.8357 43.4232 95.3673 44.8696C93.899 46.3161 92.156 47.4633 90.2377 48.2459C88.3195 49.0285 86.2636 49.4311 84.1875 49.4307C82.1113 49.4303 80.0556 49.0269 78.1377 48.2436C76.2197 47.4602 74.4771 46.3123 73.0094 44.8653C71.5416 43.4183 70.3775 41.7006 69.5833 39.8102C68.7892 37.9199 68.3807 35.8939 68.3811 33.8479C68.3819 29.7159 70.0483 25.7535 73.0138 22.8323C75.9792 19.9111 80.0007 18.2705 84.1936 18.2713C88.3866 18.2721 92.4074 19.9143 95.3717 22.8366C98.336 25.759 100.001 29.722 100 33.854ZM86.8177 44.9955H92.9529C93.4064 44.9615 93.8326 44.7681 94.1536 44.4506C94.4747 44.1331 94.6694 43.7125 94.7023 43.2654V38.0844C94.7023 36.3941 89.4076 34.6304 87.6893 34.6304L86.8177 44.9955ZM86.6471 32.5397C87.2631 31.8643 87.744 31.0802 88.0646 30.2288C88.4803 29.9502 88.8222 29.5776 89.0618 29.1421C89.3014 28.7065 89.4317 28.2208 89.4418 27.7255C89.3983 26.8696 89.0354 26.0626 88.4275 25.4544C88.0708 22.8532 86.9418 21.6794 84.1875 21.6794C81.4114 21.6794 80.2948 22.8654 79.9443 25.4544C79.3333 26.0596 78.9766 26.8696 78.9269 27.7224C78.9418 28.2124 79.0716 28.6923 79.3062 29.1245C79.5408 29.5567 79.8739 29.9295 80.2793 30.2136C80.59 31.0789 81.0706 31.8756 81.6937 32.558C82.4753 32.2011 83.3292 32.0245 84.1906 32.0414C85.0368 32.0252 85.8761 32.1955 86.6471 32.5397ZM75.4282 44.9955H81.5634L80.6856 34.6335C78.9704 34.6335 73.6757 36.3971 73.6757 38.0875V43.2685C73.7043 43.7173 73.8981 44.1404 74.2208 44.4584C74.5434 44.7763 74.9728 44.9673 75.4282 44.9955ZM81.6937 34.9758C81.612 35.1375 81.5676 35.3149 81.5634 35.4954C81.5634 36.4461 82.7327 37.2224 84.1936 37.2224C85.6422 37.2224 86.8239 36.4461 86.8239 35.4954C86.8191 35.3143 86.7724 35.1365 86.6874 34.9758C85.9076 35.3351 85.0543 35.5129 84.1936 35.4954C83.3283 35.5138 82.4753 35.3365 81.6937 34.9758ZM82.4412 44.9955H85.9399L85.0652 37.2255H83.3128L82.4412 44.9955Z" fill="url(#paint2_linear_712_5658)"/>
  <defs>
    <linearGradient id="paint0_linear_712_5658" x1="58.9661" y1="20.9541" x2="58.9661" y2="93" gradientUnits="userSpaceOnUse">
      <stop stop-color="#47DEF6"/>
      <stop offset="1" stop-color="#0B8AFA"/>
    </linearGradient>
    <linearGradient id="paint1_linear_712_5658" x1="49.505" y1="9" x2="49.505" y2="69.3992" gradientUnits="userSpaceOnUse">
      <stop stop-color="#C7F5FF"/>
      <stop offset="1" stop-color="#50C2DB"/>
    </linearGradient>
    <linearGradient id="paint2_linear_712_5658" x1="49.505" y1="9" x2="49.505" y2="69.3992" gradientUnits="userSpaceOnUse">
      <stop stop-color="#C7F5FF"/>
      <stop offset="1" stop-color="#50C2DB"/>
    </linearGradient>
  </defs>
</svg>
