<svg xmlns="http://www.w3.org/2000/svg" fill="none" viewBox="0 0 100 100" class="design-iconfont">
  <path fill="#fff" d="M0 0H100V100H0z"/>
  <path fill-rule="evenodd" clip-rule="evenodd" d="M30.298 33.1103C30.298 38.7123 32.6826 43.7441 36.4742 47.2851C25.3043 52.3289 17.5238 63.5707 17.5238 76.6396C17.5263 77.9368 17.6068 79.2327 17.7648 80.5202C13.9612 80.0555 8.63762 79.2 4.34743 77.7154C1.45065 76.6019 0 74.805 0 72.3563C0 58.3655 9.93312 46.656 23.108 43.9281C17.1834 41.576 12.976 35.7914 12.976 29.0306C12.976 20.1908 20.157 13 28.9829 13C32.6264 13.0052 36.1595 14.2531 39.0004 16.5381C39.0282 16.5605 39.048 16.5884 39.0678 16.6162C39.0812 16.635 39.0945 16.6538 39.1103 16.6708C39.1251 16.6862 39.1416 16.6998 39.1581 16.7134C39.1836 16.7344 39.2092 16.7556 39.2293 16.784V16.7855C33.8636 20.2345 30.298 26.25 30.298 33.1103ZM87.0225 29.0321C87.0225 35.7929 82.8151 41.5775 76.8905 43.9296C90.0654 46.656 100 58.3655 100 72.3578C100 74.805 98.5494 76.6034 95.6902 77.7018C91.162 79.2694 85.5522 80.1369 81.6371 80.5926L81.5573 80.6017C81.7155 79.3026 81.8074 77.9824 81.8074 76.6396C81.8074 72.7849 81.1305 69.0891 79.8894 65.6645L81.5882 63.8862C84.7988 60.5746 84.7988 55.2193 81.5882 51.904C78.4238 48.6362 73.294 48.5928 70.0808 51.7844C67.8957 49.983 65.469 48.4646 62.857 47.2851C66.6486 43.7441 69.0332 38.7123 69.0332 33.1103C69.0349 29.9222 68.2512 26.7829 66.7516 23.9708C65.252 21.1587 63.0828 18.7606 60.4362 16.9892L60.861 16.6406C63.7126 14.2945 67.3204 13.0015 71.0156 13.0015C79.8415 13.0015 87.0225 20.1923 87.0225 29.0321Z" fill="url(#paint0_linear_712_5638)"/>
  <path d="M70.3589 53.0641L69.6523 53.7794L68.9457 53.0609C66.1934 50.2712 61.7162 50.2588 58.9516 53.0361L58.9269 53.0609C56.1591 55.8631 56.1591 60.3945 58.9269 63.1998L68.5106 73.0494C69.1308 73.6839 70.1429 73.6932 70.7754 73.0712L70.797 73.0494L80.3838 63.1998C83.1516 60.3976 83.1516 55.8662 80.3838 53.0609C77.6315 50.2712 73.1544 50.2588 70.3897 53.033L70.3589 53.0641Z" fill="url(#paint1_linear_712_5638)"/>
  <path fill-rule="evenodd" clip-rule="evenodd" d="M65.8803 33.7379C65.8803 40.4987 61.6729 46.2833 55.7483 48.6354C57.1883 48.9334 58.5896 49.3388 59.9434 49.8427C58.7681 50.2394 57.6628 50.9165 56.7268 51.8745L56.6981 51.9039C53.4875 55.2156 53.4875 60.5708 56.6981 63.8862L67.8153 75.5266C68.5347 76.2764 69.7087 76.2875 70.4424 75.5524L70.4675 75.5266L77.473 68.1937C78.3711 70.9906 78.8563 73.9714 78.8563 77.0635C78.8563 79.5108 77.4056 81.3092 74.5465 82.4076C66.9182 85.0464 55.432 85.9999 49.5646 85.9999C44.1838 85.9999 33.0184 85.2727 25.2982 82.5434L25.1882 82.4981C23.2736 81.5929 20.8905 80.4658 20.8905 77.0635C20.8905 63.0728 30.8251 51.3633 43.9985 48.6354C38.0739 46.2833 33.868 40.4987 33.868 33.7379C33.868 24.898 41.0475 17.7073 49.8734 17.7073C58.6993 17.7073 65.8803 24.898 65.8803 33.7379Z" fill="url(#paint2_linear_712_5638)"/>
  <defs>
    <linearGradient id="paint0_linear_712_5638" x1="50" y1="13" x2="50" y2="80.6017" gradientUnits="userSpaceOnUse">
      <stop stop-color="#C4F4FE"/>
      <stop offset="1" stop-color="#57C5DD"/>
    </linearGradient>
    <linearGradient id="paint1_linear_712_5638" x1="83.484" y1="50.9604" x2="62.7145" y2="68.1131" gradientUnits="userSpaceOnUse">
      <stop stop-color="#0C8BFA"/>
      <stop offset="1" stop-color="#47DEF6"/>
    </linearGradient>
    <linearGradient id="paint2_linear_712_5638" x1="49.8734" y1="17.7073" x2="49.8734" y2="86" gradientUnits="userSpaceOnUse">
      <stop stop-color="#89BBFF"/>
      <stop offset=".0001" stop-color="#47DEF6"/>
      <stop offset="1" stop-color="#55B0FF"/>
    </linearGradient>
  </defs>
</svg>
