<svg xmlns="http://www.w3.org/2000/svg" fill="none" viewBox="0 0 100 100" class="design-iconfont">
  <path fill="#fff" d="M0 0H100V100H0z"/>
  <path d="M84.8913 46.5257C84.8913 48.1112 86.1825 49.3979 87.7735 49.3979C89.3645 49.3979 90.6557 48.1112 90.6557 46.5257C90.6557 41.2178 89.6181 36.0707 87.5545 31.2224C85.5715 26.5464 82.7239 22.3414 79.1038 18.7339C75.4837 15.1263 71.2642 12.2886 66.5719 10.3125C61.7067 8.26742 56.5418 7.22192 51.2155 7.22192C49.6245 7.22192 48.3333 8.50869 48.3333 10.0942C48.3333 11.6796 49.6245 12.9664 51.2155 12.9664C60.208 12.9664 68.6702 16.4591 75.0341 22.801C81.3865 29.1314 84.8913 37.5643 84.8913 46.5257ZM46.6039 84.6806C37.6114 84.6806 29.1492 81.1879 22.7853 74.846C16.4329 68.5156 12.9281 60.0827 12.9281 51.1213C12.9281 49.5358 11.6369 48.249 10.0459 48.249C8.45493 48.249 7.1637 49.5358 7.1637 51.1213C7.1637 56.4292 8.20129 61.5762 10.265 66.4246C12.2479 71.1006 15.0956 75.3056 18.7156 78.9131C22.3357 82.5206 26.5552 85.3584 31.2475 87.3345C36.1127 89.3796 41.2776 90.425 46.6039 90.425C48.1949 90.425 49.4861 89.1383 49.4861 87.5528C49.4861 85.9673 48.1949 84.6806 46.6039 84.6806Z" fill="url(#paint0_linear_712_5651)"/>
  <path d="M71.4474 49.5966C71.5246 49.5966 71.6212 49.5583 71.7371 49.4817C71.9688 49.3284 72.2779 49.0602 72.6641 48.6771C73.1277 48.2556 73.5912 47.9491 74.0547 47.7575C74.5182 47.5659 75.1363 47.6234 75.9088 47.9299C76.2951 48.0449 76.6041 48.2077 76.8359 48.4184C77.0677 48.6292 77.2898 48.8303 77.5022 49.0219C77.7147 49.2135 77.9464 49.3763 78.1975 49.5104C78.4486 49.6445 78.7673 49.7116 79.1535 49.7116C79.5398 49.7116 79.8681 49.6541 80.1385 49.5391C80.4089 49.4242 80.6697 49.3188 80.9207 49.223C81.1718 49.1273 81.4229 49.0602 81.674 49.0219C81.9251 48.9836 82.2244 49.0219 82.5721 49.1368C82.9583 49.2901 83.2191 49.5104 83.3543 49.7978C83.4895 50.0851 83.5281 50.3821 83.4702 50.6886C83.4122 50.9951 83.277 51.3016 83.0646 51.6081C82.8521 51.9147 82.5914 52.1637 82.2824 52.3553C81.5484 52.8151 80.9883 53.2844 80.6021 53.7634C80.2158 54.2423 79.8295 54.75 79.4432 55.2864C79.2501 55.5546 79.0377 55.8611 78.8059 56.2059C78.5741 56.5508 78.3617 56.8956 78.1685 57.2404C77.9368 57.6619 77.6857 58.0642 77.4153 58.4474H65.4215C65.1511 57.9876 64.8807 57.547 64.6103 57.1255C64.3785 56.7423 64.1275 56.3592 63.8571 55.9761C63.5867 55.5929 63.3549 55.2481 63.1618 54.9415C62.7755 54.3668 62.3409 53.8592 61.8581 53.4185C61.3753 52.9779 60.9021 52.5852 60.4385 52.2403C59.9364 51.8955 59.5887 51.4262 59.3956 50.8323C59.2025 50.2384 59.3763 49.7307 59.9171 49.3093C60.1875 49.1177 60.4965 49.041 60.8441 49.0794C61.1918 49.1177 61.5587 49.1943 61.945 49.3093C62.3313 49.4242 62.7079 49.5391 63.0749 49.6541C63.4418 49.769 63.7798 49.7882 64.0888 49.7116C64.6296 49.5966 65.0352 49.3955 65.3056 49.1081C65.576 48.8207 66.0395 48.4663 66.6962 48.0449C67.1983 47.7383 67.7584 47.633 68.3765 47.7288C68.9945 47.8245 69.458 48.0257 69.7671 48.3322C69.9216 48.5238 70.0857 48.6866 70.2596 48.8207C70.4334 48.9548 70.6169 49.0794 70.81 49.1943C71.0031 49.3476 71.2156 49.4817 71.4474 49.5966ZM77.9947 61.0911C78.4582 61.7041 79.0377 62.3746 79.733 63.1026C80.3124 63.754 81.027 64.4915 81.8768 65.3153C82.7266 66.1391 83.7116 67.0108 84.8318 67.9303C85.7588 68.7349 86.7149 69.6832 87.6999 70.7752C88.6849 71.8672 89.5443 73.1411 90.2782 74.5971C91.0122 76.0531 91.524 77.7294 91.8137 79.6259C92.1034 81.5225 92.0551 83.6394 91.6688 85.9766C91.3212 87.8924 90.6355 89.7028 89.6119 91.4078C88.5883 93.1128 87.2267 94.5975 85.5271 95.8619C83.8275 97.1263 81.8092 98.1321 79.4722 98.8792C77.1353 99.6263 74.4796 99.9999 71.5053 99.9999C68.4537 99.9999 65.7498 99.5689 63.3935 98.7068C61.0373 97.8447 59.0383 96.724 57.3966 95.3447C55.755 93.9653 54.4513 92.4231 53.4856 90.7181C52.5199 89.0131 51.8826 87.3177 51.5735 85.6318C51.2259 83.7544 51.1776 81.9536 51.4287 80.2294C51.6798 78.5052 52.1336 76.8864 52.7903 75.373C53.447 73.8595 54.2678 72.4706 55.2528 71.2062C56.2378 69.9418 57.3097 68.8116 58.4685 67.8154C59.4729 66.9341 60.3806 66.1008 61.1918 65.3153C62.003 64.5299 62.6789 63.8115 63.2197 63.1601C63.8764 62.4321 64.4558 61.7424 64.958 61.0911H77.9947ZM71.853 78.7351L70.2885 77.1834L69.0718 75.9764C68.6855 75.5933 68.4151 75.3059 68.2606 75.1144C67.9516 74.8462 67.546 74.6258 67.0438 74.4534C66.5417 74.281 66.1168 74.3864 65.7691 74.7695C65.4601 75.191 65.3829 75.6029 65.5374 76.0052C65.6919 76.4075 65.8657 76.7236 66.0588 76.9535L66.928 77.7581C67.3529 78.2179 67.8164 78.716 68.3185 79.2524C68.898 79.8654 69.5353 80.5168 70.2306 81.2064L70.1727 82.4134H66.2327C65.885 82.4134 65.5856 82.5475 65.3346 82.8157C65.0835 83.0839 64.958 83.3712 64.958 83.6777C64.958 83.9843 65.0738 84.2525 65.3056 84.4824C65.5374 84.7123 65.8464 84.8272 66.2327 84.8272H70.1727V86.8387H66.2327C65.885 86.8387 65.5856 86.9441 65.3346 87.1548C65.0835 87.3656 64.958 87.6433 64.958 87.9882C64.9193 88.2947 65.0255 88.5533 65.2766 88.7641C65.5277 88.9748 65.8464 89.0802 66.2327 89.0802H70.1727V90.2296C70.2113 90.766 70.3851 91.1396 70.6941 91.3503C71.0031 91.561 71.3894 91.6664 71.853 91.6664C72.3165 91.7047 72.6931 91.561 72.9828 91.2354C73.2725 90.9097 73.4174 90.5744 73.4174 90.2296V89.0802H77.4732C77.8595 89.0802 78.1782 88.9939 78.4293 88.8215C78.6804 88.6491 78.7866 88.3713 78.7479 87.9882C78.7479 87.1836 78.2072 86.7813 77.1256 86.7813H73.4174L73.4753 84.8272L77.2415 84.7697C77.7823 84.808 78.1685 84.7027 78.4003 84.4536C78.6321 84.2046 78.7479 83.9076 78.7479 83.5628C78.7479 83.2563 78.6224 82.9785 78.3713 82.7295C78.1203 82.4804 77.7243 82.3559 77.1835 82.3559H73.4174V81.2639C74.074 80.6509 74.6728 80.057 75.2135 79.4823C75.6771 79.0225 76.1406 78.5531 76.6041 78.0742C77.0677 77.5953 77.4153 77.26 77.6471 77.0684C78.5355 76.3021 78.7286 75.6316 78.2265 75.0569C77.9561 74.7121 77.6084 74.5396 77.1835 74.5396C76.7586 74.5396 76.3724 74.6929 76.0247 74.9994C75.8316 75.1527 75.5032 75.4305 75.0397 75.8328C74.5762 76.2351 74.1127 76.647 73.6491 77.0684C73.1083 77.5665 72.5096 78.1221 71.853 78.7351Z" fill="url(#paint1_linear_712_5651)"/>
  <path d="M28.1563 0.0186377C22.7305 0.336566 18.2621 4.74215 17.8973 10.1469C17.487 16.5055 22.5025 21.8194 28.7947 21.8194C34.8589 21.8194 39.7376 16.9143 39.7376 10.919C39.7832 4.65131 34.4941 -0.344709 28.1563 0.0186377ZM28.8403 25.3621C21.545 25.3621 7 28.9955 7 36.2625V41.7127C7 42.7119 7.82072 43.5294 8.82382 43.5294H48.8567C49.8598 43.5294 50.6806 42.7119 50.6806 41.7127V36.2171C50.6806 28.9955 36.1356 25.3621 28.8403 25.3621Z" fill="url(#paint2_linear_712_5651)"/>
  <defs>
    <linearGradient id="paint0_linear_712_5651" x1="64.2569" y1="71.7647" x2="15.1344" y2="23.9474" gradientUnits="userSpaceOnUse">
      <stop stop-color="#46DDF6"/>
      <stop offset="1" stop-color="#0B8AFA"/>
    </linearGradient>
    <linearGradient id="paint1_linear_712_5651" x1="71.6353" y1="47.647" x2="71.6353" y2="99.9999" gradientUnits="userSpaceOnUse">
      <stop stop-color="#CFF6FF"/>
      <stop offset="1" stop-color="#4BD0ED"/>
    </linearGradient>
    <linearGradient id="paint2_linear_712_5651" x1="28.8403" y1="0" x2="28.8403" y2="43.5294" gradientUnits="userSpaceOnUse">
      <stop stop-color="#47DEF6"/>
      <stop offset="1" stop-color="#0C8BFA"/>
    </linearGradient>
  </defs>
</svg>
