<svg xmlns="http://www.w3.org/2000/svg" fill="none" viewBox="0 0 18 18" class="design-iconfont">
  <path d="M1.3125 6.75002H5.0625C5.25 6.75002 5.4375 6.63752 5.55 6.48752L6.525 4.87502H11.925C12.1125 5.51252 12.7125 6.00002 13.425 6.00002C14.2875 6.00002 15.0375 5.28752 15.0375 4.38752C15.0375 3.48752 14.325 2.77502 13.425 2.77502C12.7875 2.77502 12.225 3.15002 11.9625 3.71252H6.1875C6 3.71252 5.8125 3.82502 5.7 3.97502L4.7625 5.62502H1.3125C1.0125 5.62502 0.75 5.88752 0.75 6.18752C0.75 6.48752 1.0125 6.75002 1.3125 6.75002ZM13.425 3.93752C13.6875 3.93752 13.9125 4.16252 13.9125 4.42502C13.9125 4.68752 13.65 4.87502 13.425 4.87502C13.2 4.87502 12.9375 4.65002 12.9375 4.38752C12.9375 4.12502 13.1625 3.93752 13.425 3.93752ZM15.375 11.4C14.5125 11.4 13.8 11.9625 13.575 12.75H9.1875L8.625 11.25H10.8375C11.025 11.5875 11.4 11.8125 11.8125 11.8125C12.45 11.8125 12.9375 11.325 12.9375 10.6875C12.9375 10.05 12.45 9.56252 11.8125 9.56252C11.4 9.56252 11.025 9.78752 10.8375 10.125H8.175L7.4625 8.25002C7.3875 8.02502 7.1625 7.87502 6.9375 7.87502H1.3125C1.0125 7.87502 0.75 8.13752 0.75 8.43752C0.75 8.73752 1.0125 9.00002 1.3125 9.00002H6.5625L7.0125 10.125H1.3125C1.0125 10.125 0.75 10.3875 0.75 10.6875C0.75 10.9875 1.0125 11.25 1.3125 11.25H7.425L8.2875 13.5C8.3625 13.725 8.5875 13.875 8.8125 13.875H13.575C13.8 14.6625 14.55 15.225 15.375 15.225C16.425 15.225 17.2875 14.3625 17.2875 13.3125C17.2875 12.2625 16.425 11.4 15.375 11.4V11.4ZM15.375 14.1C14.925 14.1 14.5875 13.7625 14.5875 13.3125C14.5875 12.8625 14.925 12.525 15.375 12.525C15.825 12.525 16.1625 12.8625 16.1625 13.3125C16.1625 13.7625 15.825 14.1 15.375 14.1Z" fill="#000"/>
</svg>
