<svg xmlns="http://www.w3.org/2000/svg" fill="none" viewBox="0 0 120 120" class="design-iconfont">
  <rect x="18.2856" y="18.2857" width="83.2499" height="83.2499" rx="12.4441" fill="#C4C4C4"/>
  <rect x="18.2856" y="18.2857" width="83.2499" height="83.2499" rx="12.4441" fill="url(#paint0_linear_823_5722)"/>
  <path fill-rule="evenodd" clip-rule="evenodd" d="M41.1658 25.2001C43.3387 26.09 49.4996 32.2731 51.4479 34.0696L68.5557 48.8361C72.1255 51.4092 82.6743 58.5512 82.0871 63.3666C81.6062 67.3072 74.7697 71.641 72.3218 75.5515L77.9732 75.8972C69.1844 82.359 60.7377 88.3078 51.6517 94.6501C52.3625 94.0946 59.3439 82.4998 59.648 80.4587L53.576 80.2418C54.1209 78.1358 57.5031 74.0892 57.8044 71.7711C55.7719 71.4582 54.9038 71.736 52.372 71.1128C47.9571 69.3195 43.108 66.8405 42.5877 61.3915C44.4217 61.2787 57.5778 65.8782 58.3227 63.5103C54.8489 62.7157 50.2005 62.2265 46.705 60.7493C43.6481 58.8501 44.0466 59.0315 41.3743 56.3929C39.2456 54.1641 36.9713 48.693 37.941 44.5896C37.9979 44.337 38.583 44.4101 38.7088 44.425C39.5008 44.4913 39.5196 44.5059 40.6713 45.6656C44.7203 48.8751 56.8785 55.442 61.0697 56.2903L48.1986 48.6187C44.0689 45.5191 40.5157 42.7406 39.0851 36.9153C38.0962 32.8889 38.1529 28.3299 41.1658 25.2001V25.2001Z" fill="#FFFFFE"/>
  <defs>
    <linearGradient id="paint0_linear_823_5722" x1="59.9106" y1="18.2857" x2="59.9106" y2="101.536" gradientUnits="userSpaceOnUse">
      <stop stop-color="#0FB3FA"/>
      <stop offset="1" stop-color="#0666EE"/>
    </linearGradient>
  </defs>
</svg>
