<svg xmlns="http://www.w3.org/2000/svg" fill="none" viewBox="0 0 121 120" class="design-iconfont">
  <path fill-rule="evenodd" clip-rule="evenodd" d="M61.6901 61.7077C63.8787 60.8552 69.4217 53.3579 76.7078 48.6989C78.7306 47.4055 80.4016 46.7553 82.6357 45.7911C81.8989 43.4821 81.1944 41.1559 80.2529 38.9201C78.9128 35.7379 73.3893 25.5037 71.1671 24.366C69.0347 23.2743 30.324 23.6398 28.6663 24.3312C29.2713 25.8268 35.9636 30.7569 37.8002 32.3217C45.9435 39.2599 57.1691 52.4456 61.6901 61.7077Z" fill="#01D6B9"/>
  <path fill-rule="evenodd" clip-rule="evenodd" d="M83.0961 45.5962C80.862 46.5604 78.5969 47.1379 76.6106 48.5165C68.9396 53.9002 57.1564 65.593 48.4731 71.3899C49.231 73.434 65.9874 77.3056 69.2995 78.184C82.1574 81.5939 84.1278 76.5208 90.1648 73.3449C92.9591 70.2679 95.6681 64.377 97.6368 60.4151C100.466 54.722 102.031 51.4022 105.517 47.6508C103.599 46.1749 98.1243 44.8744 95.3026 44.5714C90.3176 44.0359 87.5002 44.7008 83.0961 45.5962V45.5962Z" fill="#123D99"/>
  <path fill-rule="evenodd" clip-rule="evenodd" d="M90.1649 73.3449C88.3106 72.8221 82.4497 81.0589 69.5916 77.649C51.0724 72.7377 37.374 64.4791 22.6412 52.2027C20.9516 50.795 16.4191 45.0409 14.5374 45.4195L14.4373 82.3241C14.4708 85.7886 15.4713 86.5922 17.7273 87.9606C24.3846 91.9991 30.1439 94.5143 38.5206 95.6598C54.4037 97.8318 70.0393 93.1402 81.1588 83.5014C83.7543 81.2516 88.733 76.4328 90.1649 73.3449V73.3449Z" fill="#3370FC"/>
</svg>
