<svg xmlns="http://www.w3.org/2000/svg" fill="none" viewBox="0 0 222 83" class="design-iconfont">
  <path d="M38.9388 29.76L21.2748 60.16H9.17875L26.5868 29.76H2.45875L3.35475 23.68H39.7708L38.9388 29.76ZM47.7663 28.096C47.9369 26.8587 48.4916 25.8347 49.4303 25.024C50.4116 24.1707 51.5209 23.744 52.7583 23.744H84.8223L80.3423 55.808C80.1289 57.0453 79.5529 58.0907 78.6143 58.944C77.6756 59.7547 76.5876 60.16 75.3503 60.16H43.2863L47.7663 28.096ZM59.7343 29.76L56.2783 54.08H68.3743L71.8303 29.76H59.7343ZM91.3028 52.8H101.031L100.007 60.096H90.2788L91.3028 52.8ZM146.666 29.76H122.41L121.45 36.48H145.706L142.442 60.16H110.314C109.076 60.16 108.095 59.7547 107.37 58.944C106.644 58.0907 106.367 57.0453 106.538 55.808L111.082 23.744H147.498L146.666 29.76ZM120.618 42.56L118.954 54.08H131.114L132.714 42.56H120.618ZM191.11 59.072H174.15L176.07 45.312L163.014 60.288H153.286L171.334 39.616H155.014L157.062 25.024H174.022L172.102 38.784L183.942 25.216L182.726 23.808H194.886L176.838 44.48H193.158L191.11 59.072ZM162.95 34.752H165.382L166.022 29.888H163.59L162.95 34.752ZM185.222 49.344H182.79L182.086 54.208H184.518L185.222 49.344Z" fill="#3E8FFF"/>
  <path d="M218.825 56.6032V49.3016H222V62H209.302V58.8254H216.603L202 44.2222L204.222 42L218.825 56.6032Z" fill="#3E8FFF"/>
</svg>
