<svg xmlns="http://www.w3.org/2000/svg" fill="none" viewBox="0 0 224 83" class="design-iconfont">
  <path d="M8.4405 23.744H22.3925L15.7365 46.784H25.2085L28.1525 26.112L26.0405 23.744H40.6325L37.3685 46.784H42.2325L41.4005 52.864H36.5365L35.5125 60.16H23.3525L24.3765 52.864H2.5525L3.3845 46.784L9.8485 25.28L8.4405 23.744ZM71.7 44.352H49.812L50.644 38.272H72.532L73.748 29.76H49.428L50.26 23.744H86.74L82.196 55.808C82.0253 57.0453 81.4493 58.0907 80.468 58.944C79.5293 59.7547 78.4627 60.16 77.268 60.16H45.14L46.036 54.08H70.292L71.7 44.352ZM93.209 52.8H102.937L101.913 60.096H92.185L93.209 52.8ZM148.572 29.76H124.316L123.356 36.48H147.612L144.348 60.16H112.22C110.983 60.16 110.001 59.7547 109.276 58.944C108.551 58.0907 108.273 57.0453 108.444 55.808L112.988 23.744H149.404L148.572 29.76ZM122.524 42.56L120.86 54.08H133.02L134.62 42.56H122.524ZM193.017 59.072H176.057L177.977 45.312L164.921 60.288H155.193L173.241 39.616H156.921L158.969 25.024H175.929L174.009 38.784L185.849 25.216L184.632 23.808H196.793L178.745 44.48H195.065L193.017 59.072ZM164.857 34.752H167.289L167.929 29.888H165.497L164.857 34.752ZM187.129 49.344H184.697L183.993 54.208H186.425L187.129 49.344Z" fill="#3E8FFF"/>
  <path d="M220.825 47.3968V54.6984H224V42H211.302V45.1746H218.603L204 59.7778L206.222 62L220.825 47.3968Z" fill="#3E8FFF"/>
</svg>
