<svg xmlns="http://www.w3.org/2000/svg" fill="none" viewBox="0 0 100 100" class="design-iconfont">
  <path fill="url(#paint0_linear_784_8921)" fill-opacity=".6" d="M50 0A50 50 0 1 0 50 100A50 50 0 1 0 50 0Z"/>
  <path d="M72.5034 44.0166C72.1409 44.0166 71.7725 43.88 71.4932 43.6007L56.3397 28.4474C55.7811 27.8888 55.7811 26.9855 56.3397 26.4329C56.8983 25.8743 57.8015 25.8743 58.3542 26.4329L73.5077 41.5862C74.0663 42.1448 74.0663 43.048 73.5077 43.6007C73.2343 43.874 72.8718 44.0166 72.5034 44.0166ZM34.5186 49.2817C34.1561 49.2817 33.7877 49.145 33.5084 48.8657L24.7728 40.1303C24.3152 39.6727 24.2202 38.9655 24.547 38.401C30.0914 28.899 41.8814 25.0364 51.9719 29.4219C52.6969 29.7369 53.0237 30.5748 52.7088 31.2997C52.3938 32.0247 51.5559 32.3516 50.8309 32.0366C42.4044 28.376 32.6051 31.3354 27.5837 38.9061L35.517 46.8393C36.0756 47.3979 36.0756 48.3012 35.517 48.8538C35.2495 49.139 34.887 49.2817 34.5186 49.2817ZM60.8798 75.6425C60.5113 75.6425 60.1429 75.4998 59.8695 75.2265L51.0983 66.4495C50.5397 65.8909 50.5397 64.9876 51.0983 64.435C51.6569 63.8764 52.5602 63.8764 53.1129 64.435L61.0878 72.4098C68.712 67.3587 71.6536 57.5179 67.9157 49.0558C67.5948 48.3368 67.9217 47.493 68.6467 47.1721C69.3657 46.8512 70.2096 47.178 70.5305 47.903C75.0052 58.029 71.1663 69.8723 61.6048 75.4464C61.373 75.5771 61.1294 75.6425 60.8798 75.6425Z" fill="#fff"/>
  <path d="M45.1319 70.7043C44.7635 70.7043 44.395 70.5616 44.1217 70.2883L29.711 55.8719C29.3069 55.4678 29.1821 54.8616 29.396 54.3328C29.5268 54.0119 32.6585 46.3342 40.152 38.3475C44.5555 33.653 49.5591 29.8319 55.0203 26.9914C61.8542 23.4438 69.4132 21.4234 77.495 21.0014C77.8991 20.9836 78.2913 21.1322 78.5825 21.4174C78.8678 21.7026 79.0163 22.1008 78.9985 22.5049C78.5409 30.551 76.5086 38.092 72.949 44.9139C70.1025 50.3691 66.2874 55.3727 61.6046 59.7879C53.6357 67.2992 45.9995 70.4725 45.6786 70.6032C45.5003 70.6746 45.3161 70.7043 45.1319 70.7043ZM32.4208 54.5467L45.4468 67.5726C47.6218 66.5386 53.6357 63.395 59.7209 57.6368C69.4429 48.4438 74.9219 37.1174 76.0332 23.9608C62.8229 25.0126 51.4785 30.4797 42.3092 40.2194C36.5568 46.3282 33.4369 52.3717 32.4208 54.5467Z" fill="#fff"/>
  <path d="M52.8513 54.2793C48.9174 54.2793 45.7203 51.0822 45.7203 47.1483C45.7203 43.2144 48.9174 40.0173 52.8513 40.0173C56.7853 40.0173 59.9824 43.2144 59.9824 47.1483C59.9824 51.0822 56.7853 54.2793 52.8513 54.2793ZM52.8513 42.8697C50.4921 42.8697 48.5727 44.7891 48.5727 47.1483C48.5727 49.5075 50.4921 51.4269 52.8513 51.4269C55.2105 51.4269 57.13 49.5075 57.13 47.1483C57.13 44.7891 55.2105 42.8697 52.8513 42.8697ZM22.4255 78.9999C22.0511 78.9999 21.6886 78.8514 21.4152 78.584C21.1181 78.2868 20.9696 77.8768 21.0052 77.4608C21.0112 77.3658 21.2013 75.1433 21.748 72.5345C22.5206 68.868 23.608 66.3128 24.9927 64.9282C27.7738 62.1471 32.2961 62.1471 35.0772 64.9282C37.8583 67.7092 37.8583 72.2315 35.0772 75.0125C33.6926 76.3971 31.1373 77.4846 27.4707 78.2571C24.8619 78.8038 22.6394 78.994 22.5443 78.9999H22.4255ZM27.0072 66.9427C26.0564 67.8935 25.1828 70.0803 24.547 73.0872C24.3212 74.1449 24.1607 75.1492 24.0537 75.9515C24.85 75.8386 25.8543 75.6781 26.918 75.4582C29.9309 74.8224 32.1118 73.9488 33.0626 72.998C34.7325 71.3282 34.7325 68.6125 33.0626 66.9486C31.3868 65.2728 28.677 65.2728 27.0072 66.9427Z" fill="#fff"/>
  <defs>
    <linearGradient id="paint0_linear_784_8921" x1="100" y1="-24" x2="0" y2="100" gradientUnits="userSpaceOnUse">
      <stop stop-color="#0B8AFA"/>
      <stop offset="1" stop-color="#47DDF6"/>
    </linearGradient>
  </defs>
</svg>
