<svg xmlns="http://www.w3.org/2000/svg" fill="none" viewBox="0 0 112 62" class="design-iconfont">
  <path fill-rule="evenodd" clip-rule="evenodd" d="M73.3879 8.27734L73.8928 8.85324C75.2683 10.135 76.2611 12.1181 76.3483 14.0578C76.537 18.2521 72.8419 22.4817 69.9326 25.0464C69.1557 25.7311 68.3477 26.3567 67.507 26.9838C65.7465 28.297 64.2545 29.3248 62.2993 30.4097C59.5453 31.9379 56.424 33.3781 53.4955 34.6042C50.9994 35.6493 49.1032 35.9912 47.873 37.6236C47.3344 38.3384 44.913 42.2939 44.7393 43.2394C48.9399 43.3207 56.1751 39.7591 59.305 38.287C62.5973 36.7384 65.4416 34.793 68.383 32.7993C69.6896 31.9137 69.9533 31.6497 71.1206 30.7104C74.0852 28.3243 78.2351 24.5857 79.8046 20.0071C80.7802 17.1609 80.2493 14.4382 78.8544 12.4076C77.933 11.0662 75.5793 8.52971 73.3879 8.27734V8.27734Z" fill="#2D318A"/>
  <path fill-rule="evenodd" clip-rule="evenodd" d="M37.347 22.4619C37.3465 19.1332 39.0363 16.2396 40.4772 14.3118C42.6166 11.4497 46.3001 9.45096 46.4976 9.1333C46.1655 9.20382 45.9984 9.29471 45.687 9.40834C42.1713 10.6916 38.377 12.7451 35.6855 15.2668L33.5363 17.6157C32.2352 19.3018 31.2112 21.2147 30.9356 23.3636C30.8308 24.1791 30.8959 24.8613 31.0945 25.5802C33.2498 33.3847 48.6931 34.4589 56.1655 30.8175C56.7419 30.5366 56.5175 30.5754 56.8803 30.317L55.8838 30.4997C54.2673 30.9338 52.446 31.1056 50.6765 31.1096C47.3616 31.1171 44.1507 30.46 41.709 29.1495C39.5129 27.9709 37.3477 25.8642 37.347 22.4619V22.4619Z" fill="#E5212B"/>
  <path fill-rule="evenodd" clip-rule="evenodd" d="M45.0423 20.4185L44.6739 20.7284C44.4944 20.8441 44.4649 20.8372 44.3134 20.9207L43.0104 21.7436C42.5916 22.3057 42.6315 23.2003 43.3335 23.6003C43.3639 23.6176 43.5467 23.7051 43.5478 23.7054C43.7724 23.7799 43.9227 23.7848 44.1577 23.7611C44.8282 23.6935 45.0699 23.2106 45.7691 23.0005L55.0851 17.6506C55.3127 17.523 55.5003 17.4392 55.7446 17.3003C56.2563 17.0091 55.895 17.0413 56.4044 16.8881C56.355 17.2707 57.7095 17.8037 57.9094 17.9294C58.459 18.275 58.9165 18.5876 59.5027 18.8995L67.8542 23.6825C68.4736 23.998 69.2681 23.7905 69.6182 23.288C70.661 21.791 68.2709 20.8995 67.5 20.4457L64.162 18.5005C63.0886 17.9714 58.3101 14.9451 57.4199 14.8098C57.6733 14.0294 57.5428 4.90342 57.5425 2.8212C57.5423 1.89016 57.8533 0.0361461 56.2898 0.00034227C55.7495 -0.0119232 55.2446 0.306625 55.0332 0.769594C54.8055 1.26837 54.9216 9.62379 54.9265 10.7802C54.93 11.5832 54.8648 13.8194 54.9899 14.5522L45.5384 20.1226C45.3333 20.2395 45.257 20.2677 45.0423 20.4185V20.4185Z" fill="url(#xkx3jpd7s__paint0_linear_1134_7815)"/>
  <path fill-rule="evenodd" clip-rule="evenodd" d="M60.0881 12.9635C60.2229 13.715 61.2315 14.0854 61.9561 14.5055L66.1638 16.9616C66.9267 17.388 67.5574 17.7206 68.2654 18.1388C69.2495 18.7199 70.2837 18.3254 70.43 17.3328C70.5936 16.2235 69.6492 15.9204 68.9798 15.5114C68.6962 15.3381 62.8671 12.1486 62.7445 11.8215L62.7127 5.20699C62.7111 4.13762 62.8954 2.95556 62.2341 2.43313C61.8146 2.10161 61.2322 2.00975 60.6804 2.38002L60.3596 2.63718C60.2089 2.798 60.1433 2.93345 60.102 3.18485C59.9903 3.86496 60.0063 12.507 60.0881 12.9635V12.9635Z" fill="url(#xkx3jpd7s__paint1_linear_1134_7815)"/>
  <path fill-rule="evenodd" clip-rule="evenodd" d="M55.9284 22.9399C56.195 22.8083 56.1104 22.8407 56.4617 23.0389L60.5118 25.3806C61.257 25.8541 62.1023 26.2482 62.8688 26.7022C63.773 27.238 64.9562 27.4156 65.2566 26.2084C65.5615 24.9827 64.4246 24.5812 63.6524 24.1372L57.7458 20.7557C56.594 20.1239 56.2559 19.6454 55.1258 20.2736L48.1059 24.3281C45.9289 25.5777 47.4988 27.3124 48.8316 26.9312L51.1686 25.5927C52.8533 24.6411 54.2898 23.7489 55.9284 22.9399V22.9399Z" fill="url(#xkx3jpd7s__paint2_linear_1134_7815)"/>
  <path fill-rule="evenodd" clip-rule="evenodd" d="M52.429 12.8996C52.6492 12.471 52.648 3.45698 52.4427 2.95162C52.1433 2.21453 51.0301 1.79222 50.3106 2.51417C49.7232 3.10351 49.9477 4.59053 49.9474 5.56077C49.9472 6.65219 49.9477 7.74367 49.9475 8.83502C49.9471 12.4502 50.4848 11.2204 47.5281 13.0235L44.3591 14.8979C43.1464 15.5758 41.5692 16.2082 42.151 17.5608C42.4896 18.3476 43.4594 18.4586 44.2956 17.9834C45.4713 17.3153 52.0401 13.6571 52.429 12.8996V12.8996Z" fill="#E5212B"/>
  <path fill-rule="evenodd" clip-rule="evenodd" d="M45.7401 22.9586C45.0477 23.1663 44.8083 23.6435 44.1444 23.7103C43.9117 23.7337 43.7628 23.7289 43.5405 23.6552C43.5394 23.655 43.3583 23.5685 43.3282 23.5513C42.6331 23.1561 42.5935 22.272 43.0083 21.7166L44.2985 20.9035C44.4486 20.8209 44.4778 20.8277 44.6555 20.7134L45.0204 20.4072C44.3654 20.6306 44.016 20.9648 43.3588 21.2756C43.0478 21.4226 42.9661 21.4544 42.7971 21.7258C42.5682 22.0928 42.5285 22.5922 42.7203 23.0671C42.867 23.4304 42.9495 23.4889 43.2349 23.6437C43.2565 23.6555 43.2854 23.6702 43.3077 23.6811C43.33 23.6919 43.3583 23.7063 43.3815 23.7162C44.1415 24.0414 44.792 23.6208 45.4121 23.2185C45.4312 23.2062 45.5711 23.1075 45.6119 23.0763L45.7401 22.9586V22.9586Z" fill="#6D4F5C"/>
  <path d="M11.2544 47.7098H1.09906V58.0628H2.00093V57.3463H10.3525V58.0628H11.2544V47.7098ZM2.00093 56.5432V48.5128H4.36063V51.1938C4.33592 52.6516 3.69349 53.7017 2.43333 54.3688L3.11283 54.9619C4.49652 54.1712 5.20073 52.911 5.22544 51.1938V48.5128H7.06625V53.4176C7.06625 54.0847 7.42452 54.4306 8.16579 54.4306H9.92012V53.6152H8.40052C8.07931 53.6152 7.9187 53.4793 7.9187 53.2322V48.5128H10.3525V56.5432H2.00093ZM18.3458 47.4751V57.3216H19.2477V47.4751H18.3458ZM22.0398 46.9809V58.2111H22.9417V46.9809H22.0398ZM14.6766 47.0303V51.8115C14.6519 54.5047 14.0341 56.4444 12.8234 57.6551L13.5029 58.2605C14.8619 56.9015 15.5537 54.7518 15.5784 51.8115V47.0303H14.6766ZM30.2926 46.8944V50.0572H31.1697V46.8944H30.2926ZM27.4758 52.3304V58.2358H28.3406V57.6551H34.1348V58.2111H34.9996V51.6262H30.0825C31.8987 51.0332 33.4306 50.3042 34.666 49.4271C35.1108 49.8101 35.5185 50.193 35.8644 50.576L36.4821 49.946C35.5926 49.0564 34.5054 48.1546 33.2082 47.2527L32.6152 47.821C33.1217 48.1793 33.5912 48.5376 34.036 48.8958C32.0345 50.2672 29.1313 51.2679 25.3137 51.8856L25.6844 52.6886C26.3021 52.5775 26.8951 52.4539 27.4758 52.3304ZM28.3406 56.8644V55.802H34.1348V56.8644H28.3406ZM28.3406 55.0854V54.097H34.1348V55.0854H28.3406ZM28.3406 53.3805V52.3798H34.1348V53.3805H28.3406ZM28.3282 47.5986C27.624 48.4634 26.7469 49.2294 25.6967 49.8965L26.2156 50.5637C27.3028 49.8718 28.217 49.0688 28.9583 48.1546L28.3282 47.5986ZM38.6442 47.0921L38.0388 47.6727C38.916 48.3893 39.6078 49.0688 40.102 49.6865L40.7444 49.0564C40.1761 48.4017 39.4719 47.7469 38.6442 47.0921ZM45.7974 58.0258H48.6883L48.886 57.1733C48.5648 57.1857 48.0953 57.198 47.4899 57.2227C46.8722 57.2227 46.2792 57.2351 45.6862 57.2351C44.7349 57.2351 43.9319 57.2227 43.2894 57.2104C42.5729 57.1857 42.0169 57.0868 41.6463 56.9139C41.3127 56.7409 40.9915 56.4815 40.695 56.1232C40.5962 56.012 40.5097 55.9132 40.4109 55.839V51.2061H37.8164V52.0215H39.5831V55.7773C39.0642 55.9996 38.4836 56.6297 37.8164 57.6675L38.4836 58.2728C39.1754 57.1362 39.6696 56.5679 39.9661 56.5679C40.1143 56.5679 40.275 56.6668 40.4356 56.8768C40.8185 57.3216 41.251 57.6304 41.7204 57.7787C42.2146 57.9146 42.857 57.9887 43.6354 58.001C44.4137 58.0134 45.1302 58.0258 45.7974 58.0258ZM47.8606 47.055C46.3039 47.4627 44.4013 47.6975 42.1528 47.7469V50.4648C42.1158 52.7504 41.6957 54.5295 40.905 55.7896L41.7081 56.1849C42.4864 54.9495 42.9064 53.1334 42.9682 50.7119H47.2799C46.9711 51.5767 46.551 52.3674 46.0198 53.0963C45.3279 52.491 44.5743 51.9103 43.7836 51.3544L43.2647 51.9844C44.0678 52.5527 44.809 53.1334 45.5009 53.7511C44.7596 54.5912 43.8577 55.3078 42.7705 55.9008L43.3018 56.605C44.4137 55.9873 45.3526 55.2213 46.131 54.3318C46.8599 55.0236 47.5146 55.7402 48.0953 56.4815L48.6883 55.7773C48.0706 55.0607 47.3911 54.3565 46.6498 53.6646C47.3046 52.7628 47.8112 51.7374 48.1694 50.576V49.946H42.9806L42.9682 48.5252C44.9202 48.4758 46.6993 48.241 48.293 47.821L47.8606 47.055ZM59.3378 51.6385C59.2267 52.2809 59.0413 52.8616 58.7942 53.3928C57.3117 53.5905 55.5574 53.7758 53.5065 53.9241C55.1497 52.911 57.0152 51.2185 59.1031 48.8341L58.2383 48.414C57.6329 49.1182 57.0399 49.773 56.4593 50.366C55.1744 50.4896 53.8895 50.5884 52.6047 50.6502C53.8648 49.6247 54.9767 48.4387 55.928 47.0921L55.0509 46.7709C53.9884 48.2781 52.7406 49.5877 51.2951 50.6996L51.5175 51.4903C52.8765 51.4285 54.2602 51.3173 55.6439 51.169C54.2602 52.4539 52.9259 53.4176 51.6657 54.0476L51.9375 54.8383C54.5073 54.6654 56.6199 54.4677 58.3001 54.2329C57.9665 54.6777 57.5588 55.0854 57.077 55.4437C55.8415 56.3332 53.8401 57.0127 51.048 57.4822L51.431 58.3717C54.4702 57.8034 56.5952 57.0374 57.7812 56.0614C59.1402 54.9742 59.9679 53.5287 60.2397 51.725L59.3378 51.6385ZM67.0717 51.6756V53.8994C67.0717 54.2329 66.8988 54.4059 66.5775 54.4059C66.2069 54.4059 65.7869 54.3812 65.3174 54.3318L65.5398 55.1719C65.9722 55.1966 66.4293 55.2089 66.8988 55.2089C67.5782 55.1842 67.9242 54.8383 67.9365 54.1712V50.8849H63.5383V57.0868C63.5383 57.7169 63.8719 58.0381 64.5638 58.0381H67.5041C68.0848 58.0381 68.4801 57.9393 68.6778 57.7416C68.9002 57.4945 69.0608 56.8521 69.1473 55.802L68.3072 55.5302C68.2577 56.2097 68.1713 56.6668 68.0601 56.9015C67.9612 57.0992 67.6894 57.2104 67.2694 57.2104H64.9097C64.5885 57.2104 64.4402 57.0621 64.4402 56.778V51.6756H67.0717ZM65.5027 47.0303C64.5143 48.5128 63.4148 49.7977 62.2041 50.8973L62.723 51.6138C63.9337 50.4772 64.9838 49.2294 65.898 47.8704C66.6887 48.7105 67.6153 49.8348 68.6778 51.2432L69.2584 50.6255C68.2701 49.3653 67.2323 48.1669 66.1575 47.0303H65.5027ZM69.9874 48.0063V55.7031H70.8522V48.0063H69.9874ZM72.0505 58.1369C72.7424 58.1369 73.1007 57.754 73.1007 57.0127V46.9562H72.2112V56.7903C72.2112 57.1609 72.0505 57.3463 71.7417 57.3463C71.1734 57.3463 70.568 57.3216 69.9379 57.2845L70.1356 58.1369H72.0505ZM78.5119 47.0427V56.8644H74.8303V57.7293H85.7763V56.8644H82.07V47.0427H81.1681V56.8644H79.4138V47.0427H78.5119ZM84.6521 49.2912C84.1208 51.552 83.4907 53.4176 82.7742 54.8754L83.5772 55.1595C84.3309 53.5411 84.9486 51.6632 85.4427 49.5136L84.6521 49.2912ZM75.8928 49.2665L75.1392 49.5136C75.8063 51.342 76.3622 53.2446 76.807 55.2213L77.6224 55.0113C77.1159 52.8493 76.5352 50.9343 75.8928 49.2665ZM92.1636 49.6124V50.4525H94.585V51.0208C94.5727 51.5644 94.5356 52.0833 94.4862 52.5775H91.9782V53.4299H94.3626C93.9797 55.3572 93.0901 56.7409 91.7064 57.581L92.2377 58.2852C93.6461 57.371 94.5974 55.9626 95.0792 54.06C95.4375 55.4313 96.327 56.8274 97.7478 58.2358L98.3655 57.581C96.8335 56.1726 95.9193 54.7889 95.6228 53.4299H98.1802V52.5775H95.3386C95.4004 52.0215 95.4375 51.4408 95.4375 50.8231V50.4525H97.9701V49.6124H96.1293C96.5247 48.97 96.8953 48.1916 97.2659 47.2527L96.4505 46.9438C96.117 47.8951 95.7093 48.7846 95.2398 49.6124H92.1636ZM93.3866 47.018L92.7072 47.4504C93.2013 48.1669 93.5843 48.8094 93.8685 49.4024L94.5356 48.9453C94.2638 48.3893 93.8808 47.7469 93.3866 47.018ZM87.0488 47.4257V48.2534H87.8024V55.8267L87.0241 55.9502L87.2465 56.7903C88.309 56.5926 89.322 56.3579 90.3104 56.1108V58.3099H91.1629V55.8761C91.4346 55.802 91.7188 55.7155 91.9906 55.629V54.7642C91.7188 54.8507 91.447 54.9372 91.1629 55.036V48.2534H91.9659V47.4257H87.0488ZM88.6549 55.6661V53.4546H90.3104V55.2831C89.7668 55.419 89.2232 55.5425 88.6549 55.6661ZM88.6549 52.6392V50.8725H90.3104V52.6392H88.6549ZM88.6549 50.0695V48.2534H90.3104V50.0695H88.6549ZM100.342 47.3639V52.7751H103.937V47.3639H100.342ZM103.11 51.9968H101.158V50.3907H103.11V51.9968ZM101.158 49.6495V48.1422H103.11V49.6495H101.158ZM105.914 49.7606H108.681V50.8108H105.914V49.7606ZM108.681 49.0194H105.914V47.9569H108.681V49.0194ZM105.84 51.5397H108.681V52.4045C108.681 52.7504 108.496 52.9234 108.138 52.9234C107.891 52.9234 107.631 52.911 107.347 52.8863L107.557 53.677H108.397C109.163 53.677 109.546 53.3434 109.546 52.701V47.1909H105.086V50.7861C105.062 51.7991 104.716 52.6269 104.036 53.294L104.679 53.8747C105.309 53.2446 105.692 52.4663 105.84 51.5397ZM109.225 54.1588H100.799V57.1115H99.4156V57.9146H110.596V57.1115H109.225V54.1588ZM101.652 57.1115V54.9742H103.295V57.1115H101.652ZM104.16 57.1115V54.9742H105.815V57.1115H104.16ZM106.68 57.1115V54.9742H108.373V57.1115H106.68Z" fill="#1D2129"/>
  <defs>
    <linearGradient id="xkx3jpd7s__paint0_linear_1134_7815" x1="47.3109" y1="11.9875" x2="67.4396" y2="24.989" gradientUnits="userSpaceOnUse">
      <stop stop-color="#E5212B"/>
      <stop offset=".663037" stop-color="#2D318A"/>
      <stop offset="1" stop-color="#2D318A"/>
    </linearGradient>
    <linearGradient id="xkx3jpd7s__paint1_linear_1134_7815" x1="56.5946" y1="5.35155" x2="70.4366" y2="20.1332" gradientUnits="userSpaceOnUse">
      <stop stop-color="#E5212B"/>
      <stop offset=".553261" stop-color="#2D318A"/>
      <stop offset="1" stop-color="#2D318A"/>
    </linearGradient>
    <linearGradient id="xkx3jpd7s__paint2_linear_1134_7815" x1="44.3834" y1="22.191" x2="70.8773" y2="24.0492" gradientUnits="userSpaceOnUse">
      <stop stop-color="#E5212B"/>
      <stop offset=".163999" stop-color="#2D318A"/>
      <stop offset="1" stop-color="#2D318A"/>
    </linearGradient>
  </defs>
</svg>
