<svg xmlns="http://www.w3.org/2000/svg" fill="none" viewBox="0 0 64 64" class="design-iconfont">
  <path fill-rule="evenodd" clip-rule="evenodd" d="M9.74898 32.7456C8.89291 21.1372 27.1213 20.1965 27.3363 31.74C27.5554 43.5132 10.5705 43.8846 9.74898 32.7456ZM9.74898 20.6954C9.18232 9.55749 25.731 8.50174 27.1756 18.6249C27.2931 19.4485 27.1433 26.0131 25.4671 24.3443C24.1467 23.0296 21.4355 21.7446 19.5645 21.6998C16.6835 21.6309 15.2745 21.8488 12.8097 23.3604C11.8531 23.9472 11.1378 25.2331 10.6145 24.1199C10.2221 23.2851 9.79553 21.6086 9.74898 20.6954ZM45.727 24.3409L42.8651 19.7291L46.6105 18.7454C47.5568 16.5272 43.5457 17.631 42.7052 17.9715C41.7316 18.3657 41.5709 18.9492 40.6539 18.3972C39.808 17.8881 39.0836 17.8005 38.4372 17.4685C39.6873 16.3218 41.5358 15.8166 43.2999 15.8333C45.5954 15.855 46.7537 15.4257 48.8599 14.9235C48.8267 16.6786 47.2829 23.8156 45.727 24.3409ZM27.3102 14.4949L24.4013 11.3896C24.7949 6.09013 29.5671 4.06005 33.9028 1.96191C35.6015 6.15729 36.4015 7.91512 35.4457 12.7227C35.1607 14.1556 34.4725 16.2038 33.3461 17.2011C32.9957 17.5114 31.6379 17.8859 31.071 18.1618C30.7357 18.3251 29.1444 19.3801 29.0936 19.3906C27.9751 17.9783 29.6585 12.6211 30.4642 11.0677C31.2182 9.61389 29.5874 8.41274 28.6195 10.6424C28.344 11.2773 27.4175 14.3197 27.3102 14.4949ZM22.6849 10.5692C17.2418 8.9491 12.0117 10.0479 9.21167 15.3978C7.89498 17.9134 7.6473 20.93 8.54722 23.6239C8.94159 24.8042 10.0419 25.9142 9.47847 26.8638C8.73534 28.1162 8.32472 29.1342 8.11821 30.6009C6.4121 42.7194 23.6594 48.0626 28.5465 35.3785C30.7708 36.8719 31.2937 37.6828 34.2491 38.0693C35.6912 38.2578 40.1372 38.0922 40.7525 36.4466C40.7229 34.4939 37.1927 36.7069 35.167 36.4536C32.813 36.1592 31.391 35.5469 29.6202 33.9843C28.7794 33.2422 28.8357 29.5582 28.1641 27.9649C27.6512 26.748 26.9214 26.6079 27.6796 25.4141C28.3775 24.3156 28.4384 23.6482 28.8068 22.4752C29.9381 18.8736 36.83 18.1335 40.0032 19.9498C46.1285 23.4561 43.6274 29.6322 44.5702 30.869C46.7138 31.472 45.9352 27.4311 46.2019 26.6381C46.2152 26.5984 48.3067 23.8558 48.7265 22.9921C49.7895 20.805 51.1777 15.035 50.4769 12.797C49.2024 12.4698 48.3345 13.3072 46.8923 13.6608C45.4965 14.0032 43.8333 14.0941 42.3898 14.1113C39.2892 14.1483 36.6376 17.1529 35.6208 17.1513C39.414 11.3159 36.878 0.934279 34.3053 0.016431C33.5213 -0.263292 28.0929 3.11229 27.1108 3.76368C24.5899 5.43567 22.8676 7.37001 22.6849 10.5692Z" fill="#000"/>
  <path fill-rule="evenodd" clip-rule="evenodd" d="M37.219 28.917C37.7251 29.5112 38.1096 30.1055 38.3199 30.8567C38.0805 31.6131 37.693 32.2999 37.1837 32.8122C36.4434 32.9191 35.6506 32.9739 34.9536 32.6708C34.2517 30.982 33.4528 31.4104 34.3218 30.1272C35.2251 28.7933 34.7662 28.6898 37.219 28.917V28.917ZM33.5698 34.9024C34.1834 35.3893 35.2145 34.1669 36.0849 34.1608C37.1156 34.1536 38.0743 35.1042 38.73 34.7812C39.4368 34.0904 38.5571 32.7895 39.8573 31.9218C40.9594 31.1864 41.4171 30.7885 39.9925 29.8849C38.5525 28.9715 39.1509 28.177 38.7811 27.1461C38.3455 25.9322 37.0567 27.2877 36.0324 27.2746C35.15 27.2632 33.6235 25.8954 33.3317 27.3068C33.0948 28.4524 33.3631 29.2205 32.0464 29.9693C30.4342 30.8863 31.7346 31.432 32.4141 32.01C33.8771 33.2545 32.8739 34.06 33.5698 34.9024V34.9024Z" fill="#000"/>
  <path fill-rule="evenodd" clip-rule="evenodd" d="M14.3196 32.5695L16.0752 32.6018L17.1246 34.1629L16.1366 36.0385L14.0963 35.8278C13.9039 35.7878 13.3472 34.4551 13.3349 34.2322C13.3252 34.0547 14.282 32.5931 14.3196 32.5695V32.5695ZM13.0375 37.7237C13.9608 38.115 14.3993 37.3245 15.109 37.3446C15.8704 37.3662 16.6735 38.0687 17.2809 37.7588C18.3343 36.9429 17.7534 36.4142 17.9738 35.8303C18.2665 35.0551 19.2422 35.0845 19.2256 34.3486C19.2067 33.5726 18.3696 33.3285 18.0634 32.5263C17.7036 31.7421 18.2575 31.0189 17.4625 30.5835C16.2143 29.9613 16.1099 31.6983 14.0745 30.6272C12.2814 29.6834 12.8833 31.806 12.2714 32.7446C11.7547 33.5375 9.66022 34.0182 11.5798 35.1613C13.1385 36.0894 12.159 37.3005 13.0375 37.7237V37.7237Z" fill="#000"/>
  <path fill-rule="evenodd" clip-rule="evenodd" d="M16.6205 15.7315L17.5769 14.465L19.4311 14.4939L20.3902 15.8143L19.4899 17.1848C17.7562 17.8528 17.3359 16.825 16.6205 15.7315V15.7315ZM16.1498 19.0384L20.6009 18.9725L22.8869 15.8333C22.4367 14.5766 22.1805 15.4481 21.4737 14.5141C20.8231 13.6545 21.3249 12.8858 20.759 12.4846C20.1615 12.061 19.5185 12.7584 18.7398 12.8052C17.6534 12.8706 17.1564 12.2603 16.5893 12.3791C15.609 12.5844 16.1191 13.5325 15.7411 14.2427C15.3375 15.001 14.4954 14.92 14.2603 15.5159C13.8913 16.4517 14.845 16.548 15.3557 16.9988C16.4238 17.9415 15.756 18.564 16.1498 19.0384V19.0384Z" fill="#000"/>
  <path fill-rule="evenodd" clip-rule="evenodd" d="M31.7815 6.52071C31.4932 6.6869 31.5223 6.5656 31.3624 6.91939C31.2446 7.18013 31.2384 7.37443 31.3682 7.63538C31.5918 8.085 32.0124 8.23698 32.4618 8.02096C33.5687 7.48891 32.796 5.93596 31.7815 6.52071V6.52071Z" fill="#000"/>
  <path fill-rule="evenodd" clip-rule="evenodd" d="M43.0992 32.7434C41.9452 33.405 42.7634 34.6391 43.6355 34.3046C44.7212 33.8882 44.086 32.1778 43.0992 32.7434Z" fill="#000"/>
  <path fill-rule="evenodd" clip-rule="evenodd" d="M17.9454 15.1345C17.8185 15.5463 17.5764 15.9584 17.9054 16.3654C18.569 17.1865 19.8746 16.1637 19.1757 15.2987C18.8282 14.8686 18.3439 15.0697 17.9454 15.1345V15.1345Z" fill="#000"/>
  <path fill-rule="evenodd" clip-rule="evenodd" d="M14.9039 33.5543C13.8202 34.0218 14.628 35.4257 15.5594 35.0297C16.1327 34.786 16.1614 33.7715 15.5421 33.5107C15.3439 33.4272 15.4904 33.4361 15.2144 33.4554C15.2144 33.4554 15.1422 33.4514 14.9039 33.5543V33.5543Z" fill="#000"/>
  <path fill-rule="evenodd" clip-rule="evenodd" d="M36.9476 31.4383C36.8568 30.0134 35.4294 30.1711 35.3183 31.0324C35.2342 31.6852 35.4793 32.1858 36.2011 31.9171C36.2251 31.9082 36.251 31.8962 36.2751 31.8869L36.5043 31.8056C36.7747 31.6902 36.7502 31.6883 36.9476 31.4383V31.4383Z" fill="#000"/>
  <path d="M13.472 55.0985V58.8265H15.344V59.8345H0.688V58.8265H2.512V55.0985H13.472ZM11.008 45.4665V46.8265H15.104V47.8025H11.008V48.9225H9.952V47.8025H6.016V48.9225H4.96V47.8025H0.864V46.8265H4.96V45.4665H6.016V46.8265H9.952V45.4665H11.008ZM6.896 53.7385C7.42933 53.0558 7.89867 52.2985 8.304 51.4665C8.72 50.6345 9.06133 49.8025 9.328 48.9705L10.288 49.2425C10.224 49.4452 10.16 49.6425 10.096 49.8345C10.032 50.0265 9.95733 50.2185 9.872 50.4105H15.056V51.3865H9.456C9.21067 51.9198 8.944 52.4372 8.656 52.9385C8.368 53.4292 8.064 53.8985 7.744 54.3465L6.896 53.7385ZM10.08 56.0745V58.8265H12.48V56.0745H10.08ZM3.52 58.8265H5.904V56.0745H3.52V58.8265ZM6.848 58.8265H9.152V56.0745H6.848V58.8265ZM6.48 49.1945V54.4745H5.424V49.1945H6.48ZM3.232 49.4665V54.3465H2.208V49.4665H3.232ZM10.656 51.6105C11.168 51.8878 11.7013 52.2025 12.256 52.5545C12.8213 52.9065 13.376 53.2798 13.92 53.6745L13.344 54.5385C12.8107 54.1332 12.272 53.7545 11.728 53.4025C11.1947 53.0398 10.656 52.7145 10.112 52.4265L10.656 51.6105ZM18.816 55.4025H16.72V54.4745H18.928L19.328 51.4985H29.008C28.9973 51.9145 28.9867 52.3785 28.976 52.8905C28.976 53.4025 28.9653 53.9305 28.944 54.4745H31.248V55.4025H28.928C28.9067 55.7865 28.8907 56.1492 28.88 56.4905C28.88 56.8318 28.8693 57.1572 28.848 57.4665H30.64V58.3785H28.8V58.4905C28.7787 58.7572 28.736 58.9812 28.672 59.1625C28.6187 59.3545 28.5227 59.5145 28.384 59.6425C28.256 59.7705 28.0853 59.8665 27.872 59.9305C27.6587 59.9945 27.392 60.0425 27.072 60.0745C26.5813 60.1172 26.096 60.1438 25.616 60.1545C25.1467 60.1652 24.7307 60.1652 24.368 60.1545L24.24 59.1465C24.6027 59.1678 24.976 59.1838 25.36 59.1945C25.744 59.2158 26.1493 59.2158 26.576 59.1945C26.8 59.1838 26.9867 59.1678 27.136 59.1465C27.2853 59.1252 27.4027 59.0878 27.488 59.0345C27.584 58.9812 27.6533 58.9012 27.696 58.7945C27.7387 58.6878 27.7707 58.5492 27.792 58.3785H18.432L18.816 55.4025ZM21.2 46.8905V45.3705H22.24V46.8905H25.904V45.3705H26.96V46.8905H31.072V47.7865H26.96V48.8585H25.904V47.7865H22.24V48.7145H21.2V47.7865H16.944V46.8905H21.2ZM22.432 55.4025H19.792L19.52 57.4665H27.856C27.8773 57.1785 27.888 56.8585 27.888 56.5065C27.8987 56.1545 27.9147 55.7865 27.936 55.4025H22.56C22.7413 55.4558 22.944 55.5305 23.168 55.6265C23.4027 55.7225 23.664 55.8292 23.952 55.9465C24.2613 56.0852 24.5387 56.2132 24.784 56.3305C25.0293 56.4372 25.2427 56.5385 25.424 56.6345L25.056 57.4505C24.8747 57.3545 24.6613 57.2532 24.416 57.1465C24.1707 57.0292 23.8933 56.8958 23.584 56.7465C22.9653 56.4478 22.4587 56.2398 22.064 56.1225L22.432 55.4025ZM17.232 52.0265C17.808 51.4505 18.3413 50.8478 18.832 50.2185C19.3227 49.5785 19.744 48.9385 20.096 48.2985L21.024 48.7145C20.96 48.8318 20.896 48.9438 20.832 49.0505C20.768 49.1572 20.6987 49.2638 20.624 49.3705H30.464V50.2665H20.032C19.7333 50.7038 19.4133 51.1198 19.072 51.5145C18.7413 51.9092 18.3893 52.2932 18.016 52.6665L17.232 52.0265ZM22.704 52.3625H20.192L19.904 54.4745H27.952L27.984 52.3625H22.832C23.0133 52.4158 23.2107 52.4905 23.424 52.5865C23.648 52.6825 23.8987 52.7892 24.176 52.9065C24.4853 53.0452 24.7573 53.1785 24.992 53.3065C25.2267 53.4238 25.4347 53.5358 25.616 53.6425L25.248 54.4585C24.896 54.2558 24.416 54.0158 23.808 53.7385C23.1893 53.4398 22.704 53.2318 22.352 53.1145L22.704 52.3625ZM47.264 46.2505V47.2105H43.36V49.3225H46.352V59.8505H36.944V49.3225H39.776V47.2105H36.672V46.2505H47.264ZM37.872 55.7865H45.408V54.2185C45.184 54.2292 44.944 54.2345 44.688 54.2345C44.432 54.2238 44.1973 54.2078 43.984 54.1865C43.664 54.1652 43.4027 54.1225 43.2 54.0585C43.008 53.9945 42.8533 53.8985 42.736 53.7705C42.6293 53.6425 42.5547 53.4878 42.512 53.3065C42.4693 53.1145 42.448 52.8798 42.448 52.6025V50.2665H40.688V50.2825C40.688 51.6158 40.5493 52.5865 40.272 53.1945C39.9947 53.7812 39.4613 54.3732 38.672 54.9705L38.064 54.2345C38.8107 53.7118 39.28 53.2265 39.472 52.7785C39.6747 52.3305 39.776 51.4985 39.776 50.2825V50.2665H37.872V55.7865ZM45.408 58.8745V56.7945H37.872V58.8745H45.408ZM33.04 59.8665C33.36 59.1838 33.712 58.2078 34.096 56.9385C34.48 55.6798 34.752 54.6452 34.912 53.8345L35.552 54.0265L35.92 54.1225C35.8453 54.5278 35.7387 54.9865 35.6 55.4985C35.472 56.0105 35.312 56.5865 35.12 57.2265C34.928 57.8665 34.7413 58.4265 34.56 58.9065C34.3893 59.3972 34.224 59.8238 34.064 60.1865L33.04 59.8665ZM43.36 50.2665V52.3465C43.36 52.5492 43.3653 52.7145 43.376 52.8425C43.3973 52.9598 43.44 53.0505 43.504 53.1145C43.568 53.1785 43.6587 53.2212 43.776 53.2425C43.904 53.2638 44.08 53.2745 44.304 53.2745C44.7093 53.2852 45.0773 53.2852 45.408 53.2745V50.2665H43.36ZM33.2 49.1785C33.616 49.4452 34.1333 49.8398 34.752 50.3625C35.0613 50.6292 35.3387 50.8745 35.584 51.0985C35.8293 51.3118 36.0427 51.5038 36.224 51.6745L35.584 52.5545C35.4133 52.3732 35.2053 52.1758 34.96 51.9625C34.7147 51.7385 34.4373 51.4932 34.128 51.2265C33.8187 50.9492 33.5307 50.7145 33.264 50.5225C33.008 50.3198 32.7787 50.1492 32.576 50.0105L33.2 49.1785ZM33.68 45.5945C33.872 45.7118 34.0907 45.8612 34.336 46.0425C34.592 46.2238 34.8747 46.4372 35.184 46.6825C35.4933 46.9278 35.7653 47.1518 36 47.3545C36.2347 47.5465 36.4373 47.7225 36.608 47.8825L36 48.7145C35.6693 48.4052 35.2 47.9998 34.592 47.4985C34.2827 47.2532 34.0053 47.0398 33.76 46.8585C33.5147 46.6772 33.296 46.5278 33.104 46.4105L33.68 45.5945ZM40.688 49.3225H42.448V47.2105H40.688V49.3225ZM57.936 49.0825V52.5545H62.352V53.6585H57.936V58.5225H63.056V59.5945H51.312V58.5225H56.832V53.6585H52.48V52.5545H56.832V49.0825H57.936ZM48.544 60.0745C48.8853 59.5092 49.168 58.9598 49.392 58.4265C49.6267 57.8932 49.8187 57.3012 49.968 56.6505C50.1173 55.9892 50.224 55.2318 50.288 54.3785C50.3627 53.5252 50.4107 52.5065 50.432 51.3225V47.4345H56.512C56.4907 47.3492 56.4587 47.2585 56.416 47.1625C56.384 47.0665 56.352 46.9652 56.32 46.8585C56.224 46.5812 56.1333 46.3358 56.048 46.1225C55.9627 45.8985 55.8827 45.7065 55.808 45.5465L56.864 45.3385C56.9387 45.4985 57.0187 45.6905 57.104 45.9145C57.2 46.1385 57.3013 46.3945 57.408 46.6825L57.68 47.4345H63.088V48.5385H51.52V51.2105C51.52 52.4585 51.4827 53.5358 51.408 54.4425C51.3333 55.3492 51.216 56.1545 51.056 56.8585C50.896 57.5625 50.6933 58.2025 50.448 58.7785C50.2027 59.3652 49.9147 59.9572 49.584 60.5545L48.544 60.0745Z" fill="#000"/>
</svg>
