<svg xmlns="http://www.w3.org/2000/svg" fill="none" viewBox="0 0 129 37" class="design-iconfont">
  <rect width="5.06234" height="25.2052" rx="2.53117" transform="matrix(1 0 -.13964 .9902 3.51855 5.29834)" fill="#9A2F24"/>
  <rect width="5.06234" height="25.2052" rx="2.53117" transform="matrix(1 0 -.13964 .9902 23.0054 5.29834)" fill="#9A2F24"/>
  <rect width="96.921" height="36.6887" rx="3.7843" transform="matrix(1 0 -.13964 .9902 32.0779 0)" fill="#9A2F24"/>
  <path d="M57.9909 10.5844L58.4035 7.65854H48.3524L48.4708 6.81916L44.4154 6.72323L43.7221 11.6396H37.3766L34.9753 28.667H54.6658L57.067 11.6396H47.791L47.9398 10.5844H57.9909ZM40.6577 15.165H42.789L40.827 17.2274C41.58 17.8989 42.5103 18.8582 43.5241 19.9134C42.3265 20.8488 41.1008 21.6402 39.8577 22.3836L41.1815 25.1895H39.244L40.6577 15.165ZM48.9892 15.165C48.2304 15.9084 47.3922 16.6998 46.509 17.4673L44.0484 15.165H48.9892ZM51.3295 25.1895H49.2466L51.5557 22.3836L48.8969 19.7696C50.0837 18.7383 51.0875 17.803 51.9567 16.9636L50.1033 15.165H52.7432L51.3295 25.1895ZM42.1019 25.1895C43.3586 24.3502 44.5527 23.4388 45.8365 22.4076C46.7635 23.3909 47.6454 24.3502 48.399 25.1895H42.1019ZM77.8354 11.2079H83.4543L82.0474 21.1845H85.4866L87.4211 7.46668H75.1418L73.1904 21.3044H76.4116L77.8354 11.2079ZM83.777 22.1438C83.6683 22.7433 83.4772 23.5827 83.3093 24.0863C83.0316 24.8538 82.8558 25.0696 82.3957 25.0696H81.9355C81.4753 25.0696 81.2979 24.7818 81.3757 24.2302L82.0149 19.6976H80.6586C81.0908 18.5225 81.3979 17.2035 81.6008 15.7645L82.1216 12.0713H78.9246L78.4748 15.2609C77.8153 19.9374 76.8328 22.0958 72.1154 24.8058L72.3268 22.7913L70.2348 23.199L70.7996 19.194H72.6403L73.1612 15.5007H71.3205L71.8954 11.4237H73.7361L74.2569 7.73048H66.87L66.3492 11.4237H68.5047L67.9297 15.5007H65.9437L65.4229 19.194H67.4089L66.7629 23.7746L63.8132 24.2542L63.7046 28.1154C65.2986 27.8036 68.5216 27.276 70.6344 26.8923L72.0777 29.1946C74.6953 27.6357 76.7552 25.909 78.2266 24.0624L77.9324 26.1488C77.6787 27.9475 78.2864 28.619 79.8956 28.7149C80.7365 28.7629 81.56 28.7629 82.4144 28.7149C84.7322 28.595 85.2116 28.1154 85.9102 25.909C86.2049 25.0217 86.4816 23.9185 86.6624 23.151L83.777 22.1438ZM101.345 16.412L100.477 16.5559L100.822 14.1098H101.985L102.512 10.3685H101.35L101.86 6.74721L98.2409 6.65128L97.7167 10.3685H96.0214L95.4938 14.1098H97.1891L96.763 17.1315L94.3213 17.4433L93.9953 21.4723L96.205 21.0886L95.7924 24.0144C95.6672 24.9017 95.2352 25.0456 94.4258 25.1176L93.5128 25.2375L94.1342 29.0746L95.2652 28.9547C98.1119 28.6909 98.7996 28.4511 99.148 25.9809L99.9191 20.513C100.293 20.4411 100.559 20.4411 100.835 20.3691L101.345 16.412ZM115.134 8.1142L115.316 6.81916L111.818 6.72323L111.622 8.1142H109.345L109.528 6.81916L106.054 6.72323L105.858 8.1142H103.726L103.232 11.6156H105.364L105.212 12.6948H108.699L108.851 11.6156H111.128L110.976 12.6948H114.488L114.64 11.6156H117.643L118.137 8.1142H115.134ZM101.853 18.3066H105.001L105.248 16.5559H112.877L112.631 18.3066H116.142L116.866 13.1744H102.577L101.853 18.3066ZM106.361 17.0835L106.079 18.7383H102.833L102.37 22.0239H105.131C104.186 24.0863 102.743 25.0456 99.4295 26.3886L101.767 29.2185C105.902 27.204 107.748 25.4533 108.934 22.0239H110.968L110.727 23.3909C110.488 24.566 110.195 24.7579 109.337 24.8298L107.743 24.9737L108.495 28.7389L109.99 28.619C112.463 28.4271 113.447 27.9715 113.92 25.4773L115.161 18.7383H109.76C109.876 18.0908 109.988 17.4673 110.029 17.1795L106.361 17.0835Z" fill="#fff"/>
  <rect width="5.06234" height="18.3444" rx="2.53117" transform="matrix(1 0 -.13964 .9902 12.7393 8.32568)" fill="#9A2F24"/>
</svg>
