<svg xmlns="http://www.w3.org/2000/svg" fill="none" viewBox="0 0 76 60" class="design-iconfont">
  <path fill-rule="evenodd" clip-rule="evenodd" d="M27.955 1.34899L28.5679 3.65014L23.4219 5.84588L22.0827 3.89801C20.7906 4.49984 17.8772 6.55049 17.1896 7.53426L18.6357 9.22946C18.5673 9.30414 14.9735 13.3808 14.8682 13.4588L13.0085 12.2408C12.2009 12.8857 11.8414 13.6617 11.2733 14.6743C10.7446 15.6167 10.137 16.5134 9.87965 17.5467C10.7253 18.1398 11.4173 18.0346 12.0342 18.7386C10.596 19.8189 2.83319 20.8022 0.475342 21.7915L13.9474 21.8417C14.9705 17.7576 19.1246 12.5103 22.327 10.2252C31.5905 3.61527 43.6503 3.43789 52.1903 10.2647C55.4174 12.8444 59.4029 17.6558 60.6567 21.8169L75.509 21.8357L62.362 18.8558L64.6113 17.5016C63.859 15.6348 62.6724 13.6469 61.478 12.2012L59.492 13.5626C58.0912 12.1254 57.1748 10.7153 55.6413 9.49416C56.0323 8.53249 56.5829 8.42586 57.2207 7.50737C55.829 6.10267 54.1039 4.77454 52.2957 3.86699L50.9241 5.90345L45.744 3.56648L46.4224 1.14876C44.6701 0.73567 41.9743 -0.225463 40.3062 0.0507865L40.0302 2.4008L34.3371 2.4408L34.0457 0.159449C33.6407 0.00598435 34.4456 -0.0130699 33.3019 0.00618918C32.4363 0.020718 28.7584 0.851223 27.955 1.34899V1.34899Z" fill="#8ABD4B"/>
  <path fill-rule="evenodd" clip-rule="evenodd" d="M76 39.6393C73.0224 39.0312 63.7818 39.4781 60.1626 39.4781C59.3079 39.9604 58.8852 41.4941 58.3428 42.4282C57.7457 43.4567 57.0899 44.3031 56.4001 45.2495C52.3865 50.7561 44.5894 54.3748 37.52 54.4575C27.7894 54.5713 18.195 48.4705 14.5726 39.7027L0 39.8443L12.9153 42.8746L14.8461 46.2296L13.0572 47.5844C14.0152 49.4227 15.646 50.5262 16.9122 52.1364C17.7815 51.7439 17.9453 51.2071 18.6101 50.4592C19.9742 51.0075 21.3933 52.8665 23.3813 53.5464L22.2282 55.9807C24.075 56.6666 25.9614 58.2316 27.9559 58.2743L28.6738 55.9901L34.3819 57.1617L34.1601 59.7247C36.1804 59.9885 38.3106 60.0204 40.3576 59.7076L40.1926 57.2579L45.7034 56.0575L46.5743 58.3087C47.9498 58.1164 51.0618 56.6726 52.2102 55.8501L51.0399 53.5057C52.8911 52.7875 54.2026 51.1479 55.6713 50.3543L57.3019 52.0448C58.2427 51.5902 60.7999 48.6256 61.4301 47.5844C61.0568 47.0299 60.2585 46.5633 59.6426 46.1638C59.8539 45.1551 60.9837 43.5566 61.6053 42.6396L76 39.6393V39.6393Z" fill="#8C8C8C"/>
  <path fill-rule="evenodd" clip-rule="evenodd" d="M19.3562 18.0197C21.9416 18.032 20.8101 15.9489 26.5854 12.3435C35.5028 6.77654 46.9342 9.04581 53.8212 17.9155L55.0813 17.9975C49.6912 8.98486 36.6972 5.39259 26.4428 11.2411C24.2469 12.4936 20.3254 15.809 19.3562 18.0197Z" fill="#1D2129"/>
  <path fill-rule="evenodd" clip-rule="evenodd" d="M19.2856 41.5128C20.5934 44.0499 23.7802 46.8388 26.2738 48.3347C32.7111 52.1965 41.7788 52.2123 48.212 48.2731C50.0452 47.1507 54.7076 43.4424 55.0623 41.48C53.6088 41.4855 53.9772 41.6969 53.116 42.6876C43.314 53.964 27.6616 52.0006 20.4376 41.5147L19.2856 41.5128V41.5128Z" fill="#86B449"/>
  <path d="M19.4079 25.2983V24.7161C19.4079 24.5168 19.3082 24.4224 19.1089 24.4329L16.0723 24.7004C15.873 24.7214 15.7734 24.8315 15.7734 25.0308V25.613L19.4079 25.2983ZM19.1089 27.5168C19.3082 27.5063 19.4079 27.4014 19.4079 27.2021V26.6042L15.7734 26.9189V27.5168C15.7734 27.7161 15.873 27.8052 16.0723 27.7842L19.1089 27.5168ZM20.3834 22.9225C20.8869 22.8805 21.1386 23.1113 21.1386 23.6148V27.9888C21.1386 28.4923 20.8869 28.765 20.3834 28.807L14.8608 29.2947C14.3573 29.3367 14.1056 29.1059 14.1056 28.6024V24.2284C14.1056 23.7249 14.3573 23.4522 14.8608 23.4102L20.3834 22.9225ZM8.25257 37.4449C7.82251 37.5602 7.56028 37.3505 7.46587 36.8155C7.38196 36.2805 7.55503 35.9711 7.98509 35.8872C8.34173 35.8033 9.89938 35.4519 12.6581 34.833C13.0776 34.7491 13.2979 34.9537 13.3189 35.4467C13.3399 35.9187 13.1353 36.2071 12.7053 36.312C12.7997 36.3015 11.3154 36.6791 8.25257 37.4449ZM12.0602 30.0027V28.4765L11.1948 28.5395V30.0657L12.0602 30.0027ZM11.7612 32.882C11.9605 32.8715 12.0602 32.7666 12.0602 32.5674V31.3086L11.1948 31.3716V32.9292L11.7612 32.882ZM9.1966 31.5604V32.8191C9.1966 33.0184 9.29625 33.1075 9.49554 33.0866L10.0148 33.0394V31.4817L9.1966 31.5604ZM11.3679 26.0378C11.4623 25.87 11.4098 25.7913 11.2105 25.8018L9.96756 25.9119L9.43261 27.0133C9.34869 27.2021 9.40639 27.286 9.60568 27.265L10.77 27.1706L11.3679 26.0378ZM9.1966 28.7283V30.2545L10.0148 30.1758V28.6496L9.1966 28.7283ZM12.0759 24.2441C12.506 24.1917 12.8836 24.2808 13.2087 24.5116C13.5339 24.7424 13.5811 25.0413 13.3503 25.4084L12.3748 27.029L12.7839 26.9976C13.0986 27.0815 13.3136 27.2755 13.429 27.5797V27.6269V33.4012C13.429 33.9047 13.1773 34.1775 12.6738 34.2194L8.63018 34.5813C8.1267 34.6232 7.87495 34.3925 7.87495 33.889V28.6339L7.63895 28.4608C7.22986 28.1986 7.17217 27.8472 7.46587 27.4066C8.14767 26.5675 8.67214 25.3979 9.03926 23.898C9.16513 23.4784 9.49554 23.2896 10.0305 23.3316C10.5759 23.3525 10.7857 23.5728 10.6599 23.9924L10.5182 24.4487L12.0759 24.2441ZM15.9622 35.1477L16.859 34.9117C17.2786 34.7963 17.5093 35.0061 17.5513 35.5411C17.6037 36.0655 17.4149 36.333 16.9849 36.3435C15.38 36.9519 14.6195 37.2823 14.7035 37.3347C14.3049 37.5025 14.0007 37.3032 13.7909 36.7368C13.5916 36.1704 13.6598 35.7351 13.9954 35.4309L14.2 34.9117V30.5377C14.2 30.1076 14.4937 29.8664 15.0811 29.8139C15.6685 29.7615 15.9622 29.9503 15.9622 30.3803V31.403L16.9219 31.3244C17.352 31.2824 17.567 31.5237 17.567 32.0481C17.567 32.5726 17.352 32.8558 16.9219 32.8978L15.9622 32.9764V35.1477ZM19.817 35.4152L20.3047 35.368C20.4201 35.3575 20.4935 35.2526 20.525 35.0533L20.5879 34.3138C20.6089 33.8838 20.8554 33.7579 21.3274 33.9362C21.7994 34.1145 22.0407 34.4187 22.0512 34.8488C21.9673 35.3942 21.8099 35.8557 21.5792 36.2333C21.3589 36.611 20.997 36.8207 20.4935 36.8627L19.5023 36.9414C18.8834 36.9938 18.4691 36.8889 18.2593 36.6267C18.06 36.3645 17.9604 35.8348 17.9604 35.0376V30.0971C17.9604 29.6671 18.2278 29.4258 18.7628 29.3734C19.3082 29.3314 19.581 29.5255 19.581 29.9555V31.5604L20.5722 30.5377C20.8764 30.223 21.2016 30.265 21.5477 30.6636C21.8938 31.0517 21.8938 31.3821 21.5477 31.6548L19.581 33.2439V35.3365C19.6334 35.389 19.7121 35.4152 19.817 35.4152ZM24.8675 31.23L25.7014 31.1513V28.9014L24.8675 28.98V31.23ZM25.7014 25.4871C25.7014 25.2878 25.6018 25.1986 25.4025 25.2196L25.1665 25.2354C24.9672 25.2563 24.8675 25.3665 24.8675 25.5658V27.501L25.7014 27.4224V25.4871ZM26.1892 23.7249C26.6927 23.6725 26.9444 23.898 26.9444 24.4015V35.9344C26.9444 36.6162 26.7976 37.0777 26.5039 37.319C26.2626 37.5393 26.0056 37.6599 25.7329 37.6809C25.3029 37.7228 25.0249 37.5078 24.899 37.0358C24.7731 36.5638 24.9252 36.3068 25.3553 36.2648L25.5284 36.2491C25.6438 36.2491 25.7014 36.1704 25.7014 36.0131V32.5674L24.8046 32.646C24.6892 34.9641 24.4532 36.5795 24.0966 37.4921C23.9812 37.9116 23.7347 38.0008 23.3571 37.7595C22.9795 37.5288 22.8431 37.2088 22.948 36.7998C23.3676 35.7089 23.5774 33.4589 23.5774 30.0499V24.7004C23.5774 24.1969 23.8291 23.9242 24.3326 23.8822L26.1892 23.7249ZM28.7224 30.8838L29.572 30.8209V28.5552L28.7224 28.6181V30.8838ZM29.572 25.1567C29.572 24.9574 29.4723 24.863 29.273 24.8735L29.0213 24.9049C28.822 24.9154 28.7224 25.0203 28.7224 25.2196V27.1549L29.572 27.092V25.1567ZM30.1541 23.3788C30.6576 23.3263 30.9094 23.5518 30.9094 24.0553V35.7299C30.9094 36.3907 30.7468 36.847 30.4216 37.0987C30.1489 37.3085 29.8395 37.4291 29.4933 37.4606C29.0633 37.5025 28.78 37.2928 28.6437 36.8312C28.5073 36.3802 28.6542 36.1337 29.0842 36.0917L29.3832 36.076C29.509 36.076 29.572 35.9973 29.572 35.84V32.2841L28.6751 32.3628C28.6017 34.6704 28.4287 36.2491 28.1559 37.0987C28.0615 37.5183 27.8255 37.6284 27.4479 37.4291C27.0808 37.2298 26.9392 36.9151 27.0231 36.4851C27.3378 35.4886 27.4951 33.2911 27.4951 29.8926V24.3543C27.4951 23.8508 27.7468 23.5781 28.2503 23.5361L30.1541 23.3788ZM34.654 32.8034C35.0841 32.7614 35.2991 32.9869 35.2991 33.4799C35.2991 33.9624 35.0841 34.2247 34.654 34.2666L31.8377 34.5026C31.4076 34.5446 31.1926 34.3243 31.1926 33.8418C31.1926 33.3488 31.4076 33.0813 31.8377 33.0394L34.654 32.8034ZM33.0492 26.3997L33.2852 26.1794C33.5999 26.0221 33.9093 26.0116 34.2135 26.1479L34.2449 26.1794C34.696 26.557 35.0211 26.856 35.2204 27.0762L35.2991 25.5972C35.2991 25.3979 35.1995 25.3088 35.0002 25.3298L33.3481 25.4714C33.1488 25.4819 33.0492 25.5868 33.0492 25.786V26.3997ZM33.0492 30.223C33.0492 30.4223 33.1488 30.5167 33.3481 30.5062L36.5106 30.223C37.0246 30.181 37.2816 30.4171 37.2816 30.931L37.2658 31.1041C37.2134 32.6775 37.14 33.8575 37.0456 34.6442C36.9617 35.4204 36.8253 35.9239 36.6365 36.1547C36.4057 36.5008 36.0491 36.7263 35.5666 36.8312C35.1785 36.9151 34.8166 36.9623 34.481 36.9728C34.0509 36.9938 33.7624 36.7683 33.6156 36.2963C33.4687 35.8348 33.6103 35.5935 34.0404 35.5725C34.0194 35.5935 34.2817 35.583 34.8271 35.5411C35.0474 35.5201 35.2047 35.4467 35.2991 35.3208C35.4879 35.0585 35.6243 33.9414 35.7082 31.9695C35.7082 31.7702 35.6085 31.6758 35.4093 31.6863L32.2939 31.9695C31.7905 32.0114 31.5387 31.7807 31.5387 31.2772V25.0308C31.5387 24.5273 31.7905 24.2546 32.2939 24.2127L32.5142 24.1812L32.7974 23.2844C32.9233 22.8648 33.2642 22.6655 33.8201 22.6865C34.3761 22.7074 34.5596 22.912 34.3708 23.3001L34.0247 24.0553L36.0386 23.8822C36.5421 23.8403 36.7938 24.0711 36.7938 24.5745V24.7633C36.7309 26.1269 36.6627 27.1392 36.5893 27.8C36.5264 28.4503 36.4215 28.8804 36.2746 29.0902C36.0858 29.3944 35.7921 29.5884 35.3935 29.6723L34.6855 29.7353C34.2554 29.7772 33.9775 29.5832 33.8516 29.1531C33.7362 28.723 33.8936 28.5028 34.3236 28.4923L34.6383 28.4765C34.7851 28.4661 34.911 28.3926 35.0159 28.2563L35.2047 27.265L34.953 27.5482C34.5858 27.9363 34.2345 27.9573 33.8988 27.6112L33.0492 26.6986V30.223ZM44.8024 31.0254C45.0751 31.3191 45.0279 31.7335 44.6608 32.2684C44.3041 32.8034 44.0209 32.8978 43.8111 32.5516L42.9772 31.2457V37.1459C42.9772 37.576 42.6783 37.8172 42.0804 37.8697C41.4825 37.9221 41.1836 37.7333 41.1836 37.3032V31.6705C40.5962 33.3278 40.1084 34.3925 39.7203 34.8645C39.4791 35.2421 39.2116 35.153 38.9179 34.597C38.6242 34.0306 38.6085 33.5691 38.8707 33.2124C39.112 32.9292 39.4529 32.2894 39.8934 31.2929C40.334 30.2859 40.6853 29.279 40.9476 28.272L39.5158 28.3979C39.0857 28.4398 38.8707 28.1671 38.8707 27.5797C38.8707 26.9923 39.0857 26.6776 39.5158 26.6357L41.1836 26.4941V23.9137C41.1836 23.4837 41.4825 23.2424 42.0804 23.19C42.6783 23.1375 42.9772 23.3263 42.9772 23.7564V26.3367L44.3776 26.2109C44.8076 26.1689 45.0227 26.4416 45.0227 27.029C45.0227 27.6164 44.8076 27.9311 44.3776 27.9731L42.9772 28.0989V29.0587L44.8024 31.0254ZM51.4263 34.3925L51.5207 34.8802C51.6047 35.069 51.7096 35.0795 51.8354 34.9117L52.2288 34.4554C52.2602 33.7631 52.276 33.2964 52.276 33.0551C52.276 32.625 52.4962 32.5149 52.9368 32.7247C53.3878 32.945 53.6081 33.2701 53.5976 33.7002C53.5871 34.4239 53.5347 35.0166 53.4403 35.4781C53.2725 36.3173 52.7795 36.7735 51.9613 36.847L51.0959 36.9256C50.6239 36.9676 50.2568 36.8575 49.9946 36.5952C49.8372 36.4484 49.7271 36.2438 49.6641 35.9816C49.6012 35.7089 49.5697 35.2474 49.5697 34.597V25.5028C49.5697 25.3035 49.4701 25.2144 49.2708 25.2354L47.902 25.3455C47.7027 25.3665 47.603 25.4766 47.603 25.6759V28.6811C47.603 32.7194 46.874 35.4781 45.416 36.9571C45.1223 37.3872 44.7919 37.4501 44.4248 37.1459L44.2832 37.0043L44.0472 36.8627C43.701 36.6424 43.6538 36.3487 43.9055 35.9816L44.7552 34.7386C45.0803 34.0778 45.3111 33.3908 45.4475 32.6775C45.5838 31.9537 45.673 31.3086 45.7149 30.7422C45.7674 30.1758 45.7936 29.536 45.7936 28.8227V24.5116C45.7936 24.0081 46.0454 23.7354 46.5488 23.6934L50.6711 23.3316C51.1746 23.2896 51.4263 23.5204 51.4263 24.0239V34.3925ZM68.1672 32.4415C68.5973 32.41 68.8123 32.6985 68.8123 33.3068C68.8123 33.9152 68.5973 34.2351 68.1672 34.2666L63.6201 34.66V36.7211C63.6201 37.1512 63.2845 37.3977 62.6131 37.4606C61.9418 37.5235 61.6062 37.34 61.6062 36.9099V34.8488L55.2811 35.3994C54.8511 35.4309 54.6361 35.1425 54.6361 34.5341C54.6361 33.9257 54.8511 33.6058 55.2811 33.5743L61.6062 33.0236V31.2929L58.2706 31.5761C57.2426 31.6705 56.844 31.7282 57.0748 31.7492C56.6657 31.896 56.3458 31.66 56.115 31.0412C55.8948 30.4223 55.9577 29.9765 56.3039 29.7038C56.2724 29.8506 56.4927 29.5517 56.9647 28.807L57.8458 27.2021L55.6116 27.3909C55.1815 27.4329 54.9665 27.1549 54.9665 26.557C54.9665 25.9486 55.1815 25.6235 55.6116 25.5815L58.7111 25.314L59.3877 23.5046C59.5345 23.0956 59.9751 22.9539 60.7093 23.0798C61.4436 23.1847 61.7268 23.4417 61.559 23.8508L61.0083 25.1095L67.8525 24.5116C68.2826 24.4696 68.4976 24.7529 68.4976 25.3612C68.4976 25.9591 68.2826 26.279 67.8525 26.321L60.0642 26.9976L58.5853 29.515C58.4804 29.6933 58.5276 29.7772 58.7269 29.7667L61.6062 29.515V28.1147C61.6062 27.6846 61.9418 27.4381 62.6131 27.3752C63.2845 27.3122 63.6201 27.4958 63.6201 27.9259V29.3262L66.8298 29.0587C67.2599 29.0167 67.4749 29.2947 67.4749 29.8926C67.4749 30.48 67.2599 30.7947 66.8298 30.8366L63.6201 31.1041V32.8348L68.1672 32.4415Z" fill="#1D2129"/>
</svg>
