<svg xmlns="http://www.w3.org/2000/svg" fill="none" viewBox="0 0 39 66" class="design-iconfont">
  <path fill-rule="evenodd" clip-rule="evenodd" d="M0.199707 8.19994H9.93308V15.6H2.1331C1.93728 15.6 0.450375 16.3731 0.333094 16.5333H9.93308V29.3332H14.3331V16.5333H22.1997V19.4666H18.733C18.5437 19.4666 17.0726 20.2094 16.933 20.3999H22.1997C22.1997 22.17 22.4006 21.6719 21.3197 22.32C20.3608 22.8746 19.3754 23.4836 18.3997 23.9999V24.8666C19.4397 24.6243 21.2506 23.021 22.1997 22.7999V24.7332H27.4663C27.4663 21.921 27.5084 19.1371 27.5335 16.3327C27.5364 16.0146 27.631 15.6 27.333 15.6H14.3331V8.19994H24.1996C24.0741 8.02873 23.6495 7.79377 23.4115 7.67563C23.1842 7.56297 22.6407 7.26663 22.3996 7.26663H14.3331V2.06671L9.90206 2.08698L9.93308 7.26663H5.13312L2.73311 0L0.199707 8.19994V8.19994Z" fill="#1C3086"/>
  <path fill-rule="evenodd" clip-rule="evenodd" d="M23.0666 46.8668C23.3005 47.0381 25.7003 53.5644 26.1919 55.0082C26.8296 56.8809 25.8023 57.2006 24.2666 57.2002H22.0832L20.3264 53.466L23.0666 46.8668ZM14.4666 57.2668L14.2184 57.2681L11.5661 53.0234L15.3999 44.8002L17.6666 49.4002C17.6666 49.8225 15.0686 55.8113 14.4666 57.2668V57.2668ZM9.19996 49.3335H9.06664L6.19994 44.9335L0 58.1335H8.93332L9.46666 57.2002H3.73334L7.73332 48.2002L14.1333 58.1335H18.3999L20.0666 54.1335C20.6338 55.3207 21.2065 56.5043 21.7771 57.6896C21.8664 57.875 21.9757 58.136 22.1333 58.1335C23.2654 58.1335 25.4316 58.3299 26.0845 57.7515C27.1603 56.7984 26.5358 55.1485 26.141 54.059L21.1999 41.1335L17.9999 48.8002L13.5333 40.0669L9.19996 49.3335V49.3335Z" fill="#1C3086"/>
  <path fill-rule="evenodd" clip-rule="evenodd" d="M18.4666 41.0655H21.2666L21.3333 31.1988H31.5332C31.3966 30.9948 30.9579 30.6268 30.7453 30.4439C30.6189 30.3352 30.4996 30.1988 30.3332 30.1988H21.3333V26.7989H33.0665V34.4655H23.9332C23.7287 34.4655 22.9836 35.2908 22.8666 35.4655H33.0665V40.132H28.0665C28.1341 40.233 29.1539 41.0655 29.4665 41.0655H38.3332V25.7988H18.4666V41.0655V41.0655Z" fill="#1C3086"/>
  <path fill-rule="evenodd" clip-rule="evenodd" d="M30.9335 57.2001C31.1303 56.906 31.7258 56.3742 32.0168 56.0833L33.0668 54.9334H30.8667V54.6667H33.7334L31.4556 57.0556C31.2406 57.2539 31.3119 57.2001 30.9335 57.2001V57.2001ZM34.3334 51H37.1334L37.2001 53.9333H34.5334C34.5334 54.6565 34.3994 54.493 35.1236 55.0765C35.2779 55.2007 35.7064 55.5388 35.8 55.6667C36.3215 55.3176 37.0207 54.6768 37.5334 54.3334C37.5334 54.771 37.4772 54.6618 36.8821 55.1487L36.0667 55.8001C36.3019 56.1511 37.4551 56.9836 37.6 57.2001C37.2242 57.2001 37.2719 57.2729 36.709 56.7572C36.4158 56.5125 35.4539 55.6723 34.5334 54.9334V57.2001L32.8646 57.2022C32.5952 57.1639 32.6916 57.1696 32.5334 56.9333H34.2V53.9333H31.4001V51H34.0001C34.0821 50.6929 34.2425 50.408 34.6001 50.4C34.5212 50.7385 34.4122 50.6615 34.3334 51V51ZM33.0668 48.2001V48.9334H32.8001V45.6001H37.1334C37.287 45.6001 37.3334 45.6465 37.3334 45.8001V48.9334L35.1956 48.9379C34.7357 48.944 34.8124 49.0086 34.6667 48.7333H37V48.0001H33.2667C33.1131 48.0001 33.0668 48.0464 33.0668 48.2001V48.2001ZM30.9335 48.9334L31.625 46.825C31.82 46.2213 31.7284 46.2743 32.0667 46.2668L31.2657 48.7324C31.1697 48.9539 31.2369 48.9266 30.9335 48.9334ZM30.9335 44.0668C31.3035 44.075 31.3169 44.2275 31.5559 44.7109C31.7126 45.0277 31.8452 45.3075 32.0001 45.6001C31.6486 45.6001 31.7282 45.6502 31.5925 45.4076L30.9335 44.0668V44.0668ZM32.6001 42.8001H34.8667V42.2001H35.1334V42.8001H37.6V43.0668H35.1334V43.7334H37.4V44.0001H35.1334V44.7334H37.8667V44.9334H32.4V44.7334H34.8667V44.0001H32.8001V43.7334H34.8667V43.0668H32.6001V42.8001ZM30.9335 42.4001C31.258 42.4073 31.2474 42.4334 31.5566 43.0436C31.6674 43.2623 31.9537 43.7596 32.0001 43.9334C31.5911 43.9243 31.6565 43.8469 31.3786 43.2882L30.9335 42.4001V42.4001ZM29.8 57.8667H38.3334V41.6001H29.8V57.8667Z" fill="#1C3086"/>
  <path fill-rule="evenodd" clip-rule="evenodd" d="M32.2666 24.7331H38.3999V21.9332C38.0563 22.1633 37.0597 23.4665 36.7999 23.4665H34.3333C34.3333 20.9955 34.125 21.1402 34.7513 20.8845L38.4666 19.1999V18.2666L35.4093 19.6759C35.0802 19.8092 34.7073 20.0461 34.3333 20.1332V17.2666H32.2666V24.7331V24.7331Z" fill="#1C3086"/>
  <path fill-rule="evenodd" clip-rule="evenodd" d="M0.333252 65.7988H1.26655V60.7988L3.45273 65.7991L4.33323 65.7988V58.6655H3.39986V63.5988L1.28035 58.6703L0.333252 58.6655V65.7988Z" fill="#1C3086"/>
  <path fill-rule="evenodd" clip-rule="evenodd" d="M18.5327 60.4547V62.6579L19.0358 63.1995H20.866V64.8662H19.266V63.7328H18.5327V65.1437L19.043 65.5995H21.0577L21.5993 65.1203V63.0286L20.9676 62.3995H19.266V60.5995H20.866V61.8662L21.601 61.8711L21.5993 60.4547L21.0525 59.8662H19.0977L18.5327 60.4547Z" fill="#1C3086"/>
  <path fill-rule="evenodd" clip-rule="evenodd" d="M31.6677 53.6663H36.9344V52.6663C36.9344 52.5127 36.888 52.4663 36.7344 52.4663H31.6677V53.6663V53.6663Z" fill="#1C3086"/>
  <path fill-rule="evenodd" clip-rule="evenodd" d="M31.6677 52.0664C31.6677 52.22 31.7141 52.2664 31.8677 52.2664H36.7344C37.0188 52.2664 36.9344 52.0104 36.9344 51.3997C36.9344 51.246 36.888 51.1997 36.7344 51.1997H31.6677V52.0664V52.0664Z" fill="#1C3086"/>
  <path fill-rule="evenodd" clip-rule="evenodd" d="M10.5321 63.0664H11.3321V64.8664H10.5358L10.5321 63.0664ZM9.93213 65.4664H11.4109L11.8654 65.0117V62.9209L11.4896 62.4664H10.5321L10.5372 61.0668L9.93213 61.0664V65.4664Z" fill="#1C3086"/>
  <path fill-rule="evenodd" clip-rule="evenodd" d="M31.7985 63.0002H32.5985V64.267H31.7985V63.0002ZM31.1985 62.9169V64.267C31.1985 64.429 31.5698 64.8002 31.7319 64.8002H32.5985V65.4002H31.2652V66.0003H32.8167L33.2167 65.5695L33.2011 62.4258L31.6553 62.4263L31.1985 62.9169V62.9169Z" fill="#1C3086"/>
  <path fill-rule="evenodd" clip-rule="evenodd" d="M13.1998 63.0665H13.9998V63.7999H13.1998V63.0665V63.0665ZM12.6665 62.9525V65.0061L13.0748 65.4666H14.5998V64.8666H13.1998V64.3331H14.521V62.9373L14.1603 62.4665L13.0944 62.4658L12.6665 62.9525V62.9525Z" fill="#1C3086"/>
  <path fill-rule="evenodd" clip-rule="evenodd" d="M23.0653 62.9996H23.8653V64.2663H23.0653V62.9996ZM22.532 65.9996H23.0653V64.8663H24.0502L24.4653 64.4876V62.9032L23.9984 62.4663H22.532V65.9996V65.9996Z" fill="#1C3086"/>
  <path fill-rule="evenodd" clip-rule="evenodd" d="M28.4663 62.8843V65.4663H29.0663V62.9996H29.8663V65.4663H30.4663V62.8733L30.045 62.4663H28.9203L28.4663 62.8843Z" fill="#1C3086"/>
  <path fill-rule="evenodd" clip-rule="evenodd" d="M6.7998 65.0116L7.25448 65.4663H8.27853L8.7332 65.0116V62.4663H8.13319V64.8663H7.33321V62.4663H6.7998V65.0116Z" fill="#1C3086"/>
  <path fill-rule="evenodd" clip-rule="evenodd" d="M33.0662 46.0667V46.6667H36.9994V45.8667H33.2661C33.1125 45.8667 33.0662 45.9131 33.0662 46.0667Z" fill="#1C3086"/>
  <path fill-rule="evenodd" clip-rule="evenodd" d="M33.0662 47.1336V47.7336H36.9994V46.9336H33.2661C33.1125 46.9336 33.0662 46.9799 33.0662 47.1336Z" fill="#1C3086"/>
  <path fill-rule="evenodd" clip-rule="evenodd" d="M5.46826 65.4667H6.06826V62H5.46826V65.4667Z" fill="#1C3086"/>
  <path fill-rule="evenodd" clip-rule="evenodd" d="M15.3335 65.4667H15.9335V62H15.3335V65.4667Z" fill="#1C3086"/>
  <path fill-rule="evenodd" clip-rule="evenodd" d="M25.2004 62.9241V65.4663H25.8004V63.0663H26.2005V62.4663H25.6817L25.2004 62.9241Z" fill="#1C3086"/>
  <path fill-rule="evenodd" clip-rule="evenodd" d="M27.2 65.4667H27.7334V62H27.2V65.4667Z" fill="#1C3086"/>
  <path d="M5.76551 61.0612L5.42822 61.3984L5.76551 61.7357L6.1028 61.3984L5.76551 61.0612Z" fill="#1C3086"/>
  <path d="M15.6434 61.0353L15.3062 61.3726L15.6434 61.7098L15.9807 61.3726L15.6434 61.0353Z" fill="#1C3086"/>
  <path d="M27.4596 61.0817L27.1223 61.4189L27.4596 61.7562L27.7969 61.4189L27.4596 61.0817Z" fill="#1C3086"/>
</svg>
