<svg xmlns="http://www.w3.org/2000/svg" fill="none" viewBox="0 0 103 47" class="design-iconfont">
  <path d="M40.9754 28.2201C41.0512 27.5905 41.3387 26.8274 42.3483 25.6037C43.2331 24.5313 44.3787 24.2043 45.7561 24.3978C46.2954 24.4735 47.6661 24.9273 47.909 25.884C48.2523 27.2345 47.1758 27.526 45.707 27.9776C44.5503 28.3336 43.9218 29.248 43.7346 29.6263C43.7346 29.6263 43.2777 30.5073 42.3661 30.514C41.1738 30.5251 40.8238 29.4661 40.9754 28.2201Z" fill="#129044"/>
  <path d="M6.99757 28.2201C6.92179 27.5905 6.63429 26.8274 5.62467 25.6037C4.73985 24.5313 3.59427 24.2043 2.2169 24.3978C1.67754 24.4735 0.306868 24.9273 0.0639348 25.884C-0.279293 27.2345 0.797194 27.526 2.26594 27.9776C3.42266 28.3336 4.05117 29.248 4.24061 29.6263C4.24061 29.6263 4.69751 30.5073 5.60906 30.514C6.79699 30.5251 7.14913 29.4661 6.99757 28.2201Z" fill="#129044"/>
  <path d="M42.2563 17.3752C40.5602 10.2356 37.5023 4.60449 23.9404 4.60449C10.3785 4.60449 7.41422 10.2356 5.71814 17.3752C5.06734 20.114 4.82219 22.9952 4.52799 25.8853C4.15802 29.5452 3.89279 33.2185 4.63497 36.6359C5.63122 41.2213 7.49445 43.1926 10.7841 44.9057C12.1971 45.6421 14.6688 46.1917 15.6628 46.3919C16.2802 46.5165 19.4183 46.8458 20.2273 46.8725C22.7213 47.0416 25.2487 47.0416 27.7426 46.8725C28.3912 46.8124 31.663 46.5477 32.3071 46.3919C33.3011 46.1894 35.7728 45.6421 37.1859 44.9057C40.4777 43.1903 42.3387 41.2213 43.335 36.6359C44.0772 33.2207 43.8142 29.5475 43.442 25.8898C43.1522 22.9974 42.9071 20.1163 42.2563 17.3752Z" fill="#129044"/>
  <path d="M33.0525 13.4796C33.0525 15.4708 31.4344 17.0861 29.4397 17.0861C27.445 17.0861 25.8269 15.4708 25.8269 13.4796C25.8269 11.4883 27.445 9.87305 29.4397 9.87305C31.4367 9.87305 33.0525 11.4861 33.0525 13.4796Z" fill="#fff"/>
  <path d="M22.1472 13.4796C22.1472 15.4708 20.5292 17.0861 18.5344 17.0861C16.5397 17.0861 14.9216 15.4708 14.9216 13.4796C14.9216 11.4883 16.5397 9.87305 18.5344 9.87305C20.5292 9.87305 22.1472 11.4861 22.1472 13.4796Z" fill="#fff"/>
  <path d="M19.1731 11.4027C19.1731 11.7542 18.8878 12.0412 18.5334 12.0412C18.1813 12.0412 17.8938 11.7564 17.8938 11.4027C17.8938 11.0512 18.1791 10.7642 18.5334 10.7642C18.8856 10.7642 19.1731 11.0489 19.1731 11.4027Z" fill="#129044"/>
  <path d="M30.0784 11.4027C30.0784 11.7542 29.7931 12.0412 29.4387 12.0412C29.0866 12.0412 28.7991 11.7564 28.7991 11.4027C28.7991 11.0512 29.0844 10.7642 29.4387 10.7642C29.7931 10.7642 30.0784 11.0489 30.0784 11.4027Z" fill="#129044"/>
  <path d="M24.6701 5.658C25.3254 5.658 25.9606 5.44441 26.4821 5.04839L29.7606 2.56321C29.8587 2.48979 29.8921 2.3563 29.8386 2.24505C29.7851 2.13381 29.6603 2.07596 29.5422 2.10489L26.0341 2.95479L26.4375 0.298296C26.4554 0.180378 26.3907 0.06469 26.2793 0.0179679C26.1723 -0.0243046 26.0408 0.00906704 25.9695 0.106961L23.9859 2.78347L22.0068 0.106961C21.9355 0.00906704 21.804 -0.0243046 21.697 0.0179679C21.5856 0.06469 21.5209 0.178154 21.5387 0.298296L21.9421 2.95479L18.4341 2.10489C18.3137 2.07596 18.1912 2.13381 18.1377 2.24505C18.0842 2.3563 18.1176 2.48979 18.2157 2.56321L21.4942 5.04839C22.0157 5.44441 22.6531 5.658 23.3062 5.658H24.6701Z" fill="#129044"/>
  <path d="M30.4855 39.2122C25.5912 39.7929 21.1916 39.8619 17.4897 39.2122C12.0471 38.0909 7.24414 34.6112 7.24414 28.9845C7.24414 23.3601 11.8532 18.7568 17.4897 18.7568H30.4855C36.1198 18.7568 40.7311 23.3579 40.7311 28.9845C40.7311 34.6112 36.5009 38.3557 30.4855 39.2122Z" fill="#fff"/>
  <path d="M62.415 9.80319C62.415 15.2181 57.9788 19.6064 52.5049 19.6064C47.034 19.6064 42.5947 15.2181 42.5947 9.80319C42.5947 4.38824 47.0309 0 52.5049 0C57.9757 0 62.415 4.38824 62.415 9.80319Z" fill="#129044"/>
  <path d="M45.8541 16.7056L45.1509 19.3187L47.4867 17.924L45.8541 16.7056Z" fill="#129044"/>
  <path fill-rule="evenodd" clip-rule="evenodd" d="M50.1035 5.07904H48.6753C48.7032 4.80071 48.7218 4.5193 48.7342 4.2286C48.7373 4.12037 48.6536 4.02759 48.5421 4.0245C48.4337 4.0214 48.3408 4.1049 48.3377 4.21313C48.3284 4.51001 48.3067 4.79762 48.2788 5.07904H47.6066L47.7119 4.64299C47.7367 4.53785 47.6716 4.42961 47.5632 4.40487C47.4579 4.38013 47.3494 4.44507 47.3246 4.55331L47.1636 5.23057C47.1388 5.33571 47.2038 5.44394 47.3092 5.46868C47.3308 5.47487 47.3525 5.47487 47.3711 5.47178H48.2292C48.189 5.74392 48.1394 6.00987 48.0681 6.25727C47.8978 6.85103 47.6282 7.36129 47.1976 7.73548C47.114 7.80661 47.1078 7.93031 47.179 8.0138C47.2503 8.09421 47.3742 8.10349 47.4579 8.03236C47.9504 7.59941 48.2571 7.0273 48.4492 6.36551C48.5297 6.0841 48.5855 5.78103 48.6289 5.47178H50.1035C50.2119 5.47178 50.3017 5.3821 50.3017 5.27386C50.3017 5.16563 50.215 5.07904 50.1035 5.07904Z" fill="#fff"/>
  <path fill-rule="evenodd" clip-rule="evenodd" d="M49.6414 7.04403C49.6136 7.24504 49.4649 7.54811 49.4184 7.64088C49.4153 7.64397 49.4153 7.64706 49.4122 7.65016L49.4091 7.65324C49.3781 7.712 49.3502 7.76767 49.3193 7.81715C49.186 7.68418 49.0466 7.57284 48.9134 7.51409C48.616 7.38111 48.3465 7.44296 48.1668 7.84807C48.0646 8.08001 48.1049 8.29649 48.235 8.45421C48.3 8.53152 48.3868 8.59336 48.489 8.63047C48.5851 8.66449 48.6966 8.67686 48.8112 8.6614C48.9723 8.63975 49.1489 8.56553 49.3224 8.42018C49.4958 8.64284 49.6538 8.88715 49.7623 9.05415C49.8211 9.14383 49.8676 9.21805 49.9017 9.26134C49.9667 9.34793 50.0906 9.36649 50.1774 9.30154C50.2641 9.2366 50.2827 9.1129 50.2177 9.02631C50.1929 8.99229 50.1464 8.92426 50.0937 8.84077C49.9698 8.64903 49.7901 8.37689 49.5888 8.12331C49.6507 8.03672 49.7096 7.93776 49.7654 7.82643V7.82334C49.7654 7.82334 49.7685 7.81715 49.7716 7.81406C49.8242 7.70891 49.9977 7.36256 50.0318 7.09042C50.0566 6.91415 50.0101 6.79663 49.9048 6.71313C49.818 6.6451 49.7065 6.62036 49.5702 6.61727L48.6501 6.59871C48.5417 6.59562 48.4518 6.68221 48.4487 6.79045C48.4457 6.89868 48.5324 6.98836 48.6408 6.99146L49.5578 7.01001C49.6136 7.01001 49.6476 7.0131 49.6569 7.01929C49.6724 7.03475 49.6445 7.02238 49.6414 7.04403ZM48.7616 8.27174C48.709 8.27793 48.6594 8.27484 48.6191 8.25938C48.5851 8.24701 48.5572 8.22845 48.5355 8.20371C48.4983 8.16042 48.489 8.08929 48.5262 8.00889C48.5882 7.86663 48.6687 7.83879 48.7524 7.8759C48.8515 7.9192 48.9599 8.00888 49.0683 8.12021C48.9599 8.21299 48.8577 8.25937 48.7616 8.27174Z" fill="#fff"/>
  <path fill-rule="evenodd" clip-rule="evenodd" d="M49.6043 4.86806L49.9017 4.59593C49.9823 4.52171 49.9854 4.398 49.911 4.3176C49.8367 4.23719 49.7127 4.2341 49.6322 4.30832L49.3348 4.58046C49.2543 4.65468 49.2512 4.77838 49.3255 4.85878C49.3998 4.9361 49.5269 4.94228 49.6043 4.86806Z" fill="#fff"/>
  <path fill-rule="evenodd" clip-rule="evenodd" d="M55.0636 7.62989H56.1293V7.89584C56.027 8.06593 55.8938 8.21437 55.7451 8.32261C55.5995 8.43084 55.4384 8.50197 55.2835 8.52362C55.1751 8.53908 55.0977 8.63805 55.1131 8.74319C55.1286 8.85143 55.2278 8.92874 55.3331 8.91327C55.5561 8.88235 55.7792 8.78648 55.9805 8.63804C56.0301 8.60093 56.0797 8.55764 56.1293 8.51434V9.13903C56.1293 9.23799 56.2191 9.31839 56.3275 9.31839C56.4359 9.31839 56.5258 9.23799 56.5258 9.13903V8.51434C56.5722 8.55764 56.6218 8.60093 56.6745 8.63804C56.8728 8.78648 57.0958 8.88235 57.3219 8.91327C57.4304 8.92874 57.5295 8.85143 57.5419 8.74319C57.5574 8.63495 57.4799 8.53599 57.3715 8.52362C57.2166 8.50197 57.0555 8.43084 56.9099 8.32261C56.7612 8.21437 56.628 8.06593 56.5258 7.89584V7.62989H57.5915C57.6751 7.62989 57.7463 7.5433 57.7463 7.43197C57.7463 7.32373 57.6782 7.23406 57.5915 7.23406H56.5258V6.85368C56.5258 6.75472 56.4359 6.67432 56.3275 6.67432C56.2191 6.67432 56.1293 6.75472 56.1293 6.85368V7.23406H55.0636C54.9799 7.23406 54.9087 7.32064 54.9087 7.43197C54.9087 7.5433 54.9768 7.62989 55.0636 7.62989Z" fill="#fff"/>
  <path fill-rule="evenodd" clip-rule="evenodd" d="M56.3088 6.41181H56.3429C56.662 6.41181 56.9532 6.27883 57.1669 6.06854C57.3838 5.85207 57.5201 5.5521 57.5201 5.21811C57.5201 4.88412 57.3838 4.58415 57.1669 4.36768C56.9532 4.15429 56.662 4.02441 56.3429 4.02441H56.3088C55.9897 4.02441 55.6985 4.15739 55.4848 4.36768C55.2679 4.58415 55.1316 4.88412 55.1316 5.21811C55.1316 5.54901 55.2679 5.85207 55.4848 6.06854C55.6985 6.27883 55.9897 6.41181 56.3088 6.41181ZM55.7264 4.66147C55.8751 4.51303 56.0826 4.42025 56.3119 4.42025H56.346C56.5752 4.42025 56.7828 4.51303 56.9315 4.66147C57.074 4.80372 57.1638 5.00164 57.1638 5.21811C57.1638 5.43149 57.074 5.62942 56.9315 5.77476C56.7828 5.9232 56.5752 6.01598 56.346 6.01598H56.3119C56.0826 6.01598 55.8751 5.9232 55.7264 5.77476C55.5839 5.63251 55.4941 5.43458 55.4941 5.21811C55.491 5.00164 55.5808 4.80681 55.7264 4.66147Z" fill="#fff"/>
  <path fill-rule="evenodd" clip-rule="evenodd" d="M52.5668 6.41181H52.6009C52.92 6.41181 53.2112 6.27883 53.4249 6.06854C53.6418 5.85207 53.7781 5.5521 53.7781 5.21811C53.7781 4.88412 53.6418 4.58415 53.4249 4.36768C53.2112 4.15429 52.92 4.02441 52.6009 4.02441H52.5668C52.2478 4.02441 51.9565 4.15739 51.7428 4.36768C51.5259 4.58415 51.3896 4.88412 51.3896 5.21811C51.3896 5.54901 51.5259 5.85207 51.7428 6.06854C51.9565 6.27883 52.2478 6.41181 52.5668 6.41181ZM51.9813 4.66147C52.13 4.51303 52.3376 4.42025 52.5668 4.42025H52.6009C52.8302 4.42025 53.0377 4.51303 53.1864 4.66147C53.3289 4.80372 53.4188 5.00164 53.4188 5.21811C53.4188 5.43149 53.3289 5.62942 53.1864 5.77476C53.0377 5.9232 52.8302 6.01598 52.6009 6.01598H52.5668C52.3376 6.01598 52.1331 5.9232 51.9813 5.77476C51.8388 5.63251 51.749 5.43458 51.749 5.21811C51.749 5.00164 51.8388 4.80681 51.9813 4.66147Z" fill="#fff"/>
  <path fill-rule="evenodd" clip-rule="evenodd" d="M51.3221 7.63055H52.3815L52.3784 7.93361C52.3722 8.0604 52.3722 8.1841 52.3691 8.29853C52.3691 8.37275 52.3691 8.44387 52.366 8.51499C52.3599 8.76239 52.2855 8.89846 52.1988 8.94794C52.1709 8.9634 52.1368 8.9665 52.112 8.95722C52.0748 8.94485 52.0377 8.91084 52.0129 8.85827C51.9416 8.71601 51.954 8.46861 52.1554 8.13771C52.2081 8.05112 52.174 7.94289 52.0779 7.89341C51.9819 7.84702 51.8611 7.87794 51.8084 7.96453C51.5389 8.40985 51.5358 8.77476 51.6535 9.0067C51.7248 9.14895 51.8394 9.24792 51.9726 9.29431C52.1151 9.34379 52.27 9.33451 52.4094 9.2541C52.5984 9.14896 52.7533 8.91084 52.7626 8.52737C52.7657 8.45933 52.7657 8.38511 52.7657 8.30471C52.7657 8.19647 52.7688 8.07896 52.775 7.94907L52.7781 7.63363H53.8499C53.9336 7.63363 54.0048 7.54705 54.0048 7.43572C54.0048 7.32748 53.9367 7.2378 53.8499 7.2378H52.7812L52.7843 6.85124C52.7843 6.75228 52.6975 6.67188 52.5891 6.67188C52.4807 6.67188 52.3908 6.75228 52.3908 6.85124L52.3877 7.24089H51.3252C51.2415 7.24089 51.1703 7.32749 51.1703 7.43882C51.1672 7.54396 51.2353 7.63055 51.3221 7.63055Z" fill="#fff"/>
  <path fill-rule="evenodd" clip-rule="evenodd" d="M53.1466 8.09049C53.0598 8.15543 53.0443 8.27913 53.1094 8.36572L53.6918 9.12957C53.7568 9.21616 53.8807 9.23162 53.9675 9.16668C54.0542 9.10173 54.0697 8.97803 54.0047 8.88834L53.4223 8.12451C53.3572 8.04101 53.2333 8.02554 53.1466 8.09049Z" fill="#fff"/>
  <path fill-rule="evenodd" clip-rule="evenodd" d="M48.873 10.2528C48.7646 10.2466 48.6716 10.3301 48.6654 10.4383C48.6592 10.5558 48.6376 10.6548 48.5942 10.7383C48.557 10.8156 48.4982 10.8836 48.4207 10.9393C48.3309 11.0042 48.3123 11.1249 48.3773 11.2145C48.4176 11.2702 48.4796 11.298 48.5415 11.2949L50.0223 11.298C50.1307 11.298 50.2206 11.2083 50.2206 11.1001C50.2206 10.9919 50.1307 10.9022 50.0223 10.9022L48.9535 10.8991C49.0155 10.7692 49.0496 10.6239 49.0589 10.4569C49.0651 10.3517 48.9814 10.2589 48.873 10.2528Z" fill="#fff"/>
  <path fill-rule="evenodd" clip-rule="evenodd" d="M50.1531 15.2155C49.4065 14.8321 49.7411 13.3848 49.9827 12.3395C49.9982 12.2715 50.0137 12.2035 50.0323 12.12H50.0385C50.1469 12.12 50.2368 12.0303 50.2368 11.922C50.2368 11.8138 50.1469 11.7241 50.0385 11.7241H48.5205C48.4121 11.7241 48.3223 11.8138 48.3223 11.922C48.3223 12.0303 48.4121 12.12 48.5205 12.12H49.6265C49.6172 12.1633 49.6079 12.2065 49.5955 12.2529C49.326 13.4219 48.9511 15.0424 49.9734 15.565C50.0695 15.6145 50.1903 15.5774 50.2399 15.4784C50.2894 15.3825 50.2491 15.265 50.1531 15.2155Z" fill="#fff"/>
  <path fill-rule="evenodd" clip-rule="evenodd" d="M47.694 11.771C47.5391 11.771 47.3997 11.8328 47.2975 11.9349C47.1953 12.0369 47.1333 12.1761 47.1333 12.3307V13.5028C47.1333 13.6574 47.1953 13.7966 47.2975 13.8986C47.3997 14.0007 47.5391 14.0625 47.694 14.0625C47.8489 14.0625 47.9883 14.0007 48.0875 13.8986C48.1897 13.7966 48.2517 13.6574 48.2517 13.5028V12.3307C48.2517 12.1761 48.1897 12.0369 48.0875 11.9349C47.9852 11.8328 47.8458 11.771 47.694 11.771ZM47.8551 13.4997C47.8551 13.543 47.8365 13.5863 47.8086 13.6141C47.7777 13.6451 47.7374 13.6605 47.694 13.6605C47.6506 13.6605 47.6073 13.642 47.5794 13.6141C47.5484 13.5863 47.5329 13.543 47.5329 13.4997V12.3276C47.5329 12.2844 47.5515 12.2411 47.5794 12.2132C47.6104 12.1854 47.6506 12.1668 47.694 12.1668C47.7374 12.1668 47.7777 12.1854 47.8086 12.2132C47.8365 12.2441 47.8551 12.2844 47.8551 12.3276V13.4997Z" fill="#fff"/>
  <path fill-rule="evenodd" clip-rule="evenodd" d="M53.4157 11.8061C53.14 11.803 52.8642 11.8061 52.5885 11.7999C52.3283 11.7969 52.1951 11.7969 51.9256 11.5742C51.8419 11.5062 51.718 11.5154 51.6468 11.602C51.5786 11.6855 51.591 11.8092 51.6747 11.8804C52.0526 12.1896 52.2354 12.1927 52.5854 12.1958C52.8611 12.1958 53.1369 12.1989 53.4126 12.202C53.521 12.202 53.6108 12.1154 53.6108 12.0071C53.6108 11.8958 53.5241 11.8061 53.4157 11.8061Z" fill="#fff"/>
  <path fill-rule="evenodd" clip-rule="evenodd" d="M53.9888 13.7412H53.5861V13.2248C53.5861 12.9928 53.49 12.7826 53.3351 12.6279C53.1803 12.4733 52.9665 12.3774 52.728 12.3774H52.4801C52.2447 12.3774 52.0309 12.4733 51.873 12.6279C51.7181 12.7826 51.622 12.9928 51.622 13.2248V13.7412H51.2193C51.1263 13.7412 51.052 13.8309 51.052 13.9391C51.052 14.0474 51.1263 14.1371 51.2193 14.1371H51.622V14.7339C51.622 14.9659 51.7181 15.1761 51.873 15.3308C52.0278 15.4854 52.2416 15.5813 52.4801 15.5813H52.728C52.9634 15.5813 53.1772 15.4854 53.3351 15.3308C53.49 15.1761 53.5861 14.9659 53.5861 14.7339V14.1371H53.9888C54.0817 14.1371 54.1561 14.0474 54.1561 13.9391C54.1561 13.8309 54.0817 13.7412 53.9888 13.7412ZM52.0247 13.2248C52.0247 13.0949 52.0774 12.9805 52.1611 12.8939C52.2447 12.8104 52.3593 12.7609 52.4832 12.7609H52.7311C52.855 12.7609 52.9696 12.8135 53.0532 12.8939C53.1369 12.9774 53.1896 13.0949 53.1896 13.2248V13.7412H52.0247V13.2248ZM53.1896 14.7339C53.1896 14.8638 53.1369 14.9782 53.0532 15.0648C52.9696 15.1483 52.855 15.1978 52.7311 15.1978H52.4832C52.3593 15.1978 52.2447 15.1452 52.1611 15.0648C52.0774 14.9813 52.0247 14.8638 52.0247 14.7339V14.1371H53.1896V14.7339Z" fill="#fff"/>
  <path fill-rule="evenodd" clip-rule="evenodd" d="M51.3345 11.0164H51.6319V11.1896C51.6319 11.2979 51.7217 11.3875 51.8302 11.3875C51.9386 11.3875 52.0284 11.2979 52.0284 11.1896V11.0164H52.3258C52.4342 11.0164 52.5241 10.9268 52.5241 10.8185C52.5241 10.7103 52.4342 10.6206 52.3258 10.6206H52.0284V10.4474C52.0284 10.3392 51.9386 10.2495 51.8302 10.2495C51.7217 10.2495 51.6319 10.3392 51.6319 10.4474V10.6206H51.3345C51.2261 10.6206 51.1362 10.7103 51.1362 10.8185C51.1393 10.9299 51.2261 11.0164 51.3345 11.0164Z" fill="#fff"/>
  <path fill-rule="evenodd" clip-rule="evenodd" d="M54.0749 11.0695C54.0749 10.9613 53.985 10.8716 53.8766 10.8716H53.5792V10.6984C53.5792 10.5902 53.4894 10.5005 53.381 10.5005C53.2725 10.5005 53.1827 10.5902 53.1827 10.6984V10.8716H52.8853C52.7769 10.8716 52.687 10.9613 52.687 11.0695C52.687 11.1777 52.7769 11.2674 52.8853 11.2674H53.1827V11.4406C53.1827 11.5488 53.2725 11.6385 53.381 11.6385C53.4894 11.6385 53.5792 11.5488 53.5792 11.4406V11.2674H53.8766C53.985 11.2674 54.0749 11.1777 54.0749 11.0695Z" fill="#fff"/>
  <path fill-rule="evenodd" clip-rule="evenodd" d="M52.6076 12.9795C52.4558 12.9795 52.335 13.1032 52.335 13.2516C52.335 13.4032 52.4589 13.5238 52.6076 13.5238C52.7594 13.5238 52.8802 13.4001 52.8802 13.2516C52.8802 13.1032 52.7563 12.9795 52.6076 12.9795Z" fill="#fff"/>
  <path fill-rule="evenodd" clip-rule="evenodd" d="M52.6076 14.9774C52.7594 14.9774 52.8802 14.8537 52.8802 14.7052C52.8802 14.5568 52.7563 14.4331 52.6076 14.4331C52.4558 14.4331 52.335 14.5568 52.335 14.7052C52.335 14.8537 52.4558 14.9774 52.6076 14.9774Z" fill="#fff"/>
  <path fill-rule="evenodd" clip-rule="evenodd" d="M57.1356 11.8061C56.8599 11.803 56.5842 11.8061 56.3085 11.7999C56.0483 11.7969 55.9151 11.7969 55.6456 11.5742C55.5619 11.5062 55.438 11.5154 55.3667 11.602C55.2986 11.6855 55.311 11.8092 55.3946 11.8804C55.7726 12.1896 55.9553 12.1927 56.3054 12.1958C56.5811 12.1958 56.8568 12.1989 57.1325 12.202C57.241 12.202 57.3308 12.1154 57.3308 12.0071C57.3308 11.8958 57.2441 11.8061 57.1356 11.8061Z" fill="#fff"/>
  <path fill-rule="evenodd" clip-rule="evenodd" d="M57.7101 13.7412H57.3073V13.2248C57.3073 12.9928 57.2113 12.7826 57.0595 12.6279C56.9046 12.4733 56.6909 12.3774 56.4523 12.3774H56.2045C55.969 12.3774 55.7553 12.4733 55.5973 12.6279C55.4424 12.7826 55.3464 12.9928 55.3464 13.2248V13.7412H54.9436C54.8507 13.7412 54.7764 13.8309 54.7764 13.9391C54.7764 14.0474 54.8507 14.1371 54.9436 14.1371H55.3464V14.7339C55.3464 14.9659 55.4424 15.1761 55.5973 15.3308C55.7522 15.4854 55.966 15.5813 56.2045 15.5813H56.4523C56.6878 15.5813 56.9015 15.4854 57.0595 15.3308C57.2144 15.1761 57.3073 14.9659 57.3073 14.7339V14.1371H57.7101C57.803 14.1371 57.8773 14.0474 57.8773 13.9391C57.8773 13.8309 57.803 13.7412 57.7101 13.7412ZM55.746 13.2248C55.746 13.0949 55.7987 12.9805 55.8823 12.8939C55.966 12.8104 56.0806 12.7609 56.2045 12.7609H56.4523C56.5762 12.7609 56.6908 12.8135 56.7745 12.8939C56.8581 12.9774 56.9108 13.0949 56.9108 13.2248V13.7412H55.746V13.2248ZM56.9108 14.7339C56.9108 14.8638 56.8581 14.9782 56.7745 15.0648C56.6908 15.1483 56.5762 15.1978 56.4523 15.1978H56.2045C56.0806 15.1978 55.966 15.1452 55.8823 15.0648C55.7987 14.9813 55.746 14.8638 55.746 14.7339V14.1371H56.9108V14.7339Z" fill="#fff"/>
  <path fill-rule="evenodd" clip-rule="evenodd" d="M55.0589 11.0164H55.3563V11.1896C55.3563 11.2979 55.4461 11.3875 55.5545 11.3875C55.6629 11.3875 55.7528 11.2979 55.7528 11.1896V11.0164H56.0502C56.1586 11.0164 56.2485 10.9268 56.2485 10.8185C56.2485 10.7103 56.1586 10.6206 56.0502 10.6206H55.7528V10.4474C55.7528 10.3392 55.6629 10.2495 55.5545 10.2495C55.4461 10.2495 55.3563 10.3392 55.3563 10.4474V10.6206H55.0589C54.9504 10.6206 54.8606 10.7103 54.8606 10.8185C54.8606 10.9299 54.9473 11.0164 55.0589 11.0164Z" fill="#fff"/>
  <path fill-rule="evenodd" clip-rule="evenodd" d="M57.7948 11.0695C57.7948 10.9613 57.705 10.8716 57.5966 10.8716H57.2992V10.6984C57.2992 10.5902 57.2093 10.5005 57.1009 10.5005C56.9925 10.5005 56.9027 10.5902 56.9027 10.6984V10.8716H56.6053C56.4968 10.8716 56.407 10.9613 56.407 11.0695C56.407 11.1777 56.4968 11.2674 56.6053 11.2674H56.9027V11.4406C56.9027 11.5488 56.9925 11.6385 57.1009 11.6385C57.2093 11.6385 57.2992 11.5488 57.2992 11.4406V11.2674H57.5966C57.705 11.2674 57.7948 11.1777 57.7948 11.0695Z" fill="#fff"/>
  <path d="M56.3275 13.5282C56.4781 13.5282 56.6001 13.4063 56.6001 13.256C56.6001 13.1057 56.4781 12.9839 56.3275 12.9839C56.177 12.9839 56.0549 13.1057 56.0549 13.256C56.0549 13.4063 56.177 13.5282 56.3275 13.5282Z" fill="#fff"/>
  <path d="M56.3275 14.9745C56.4781 14.9745 56.6001 14.8526 56.6001 14.7023C56.6001 14.552 56.4781 14.4302 56.3275 14.4302C56.177 14.4302 56.0549 14.552 56.0549 14.7023C56.0549 14.8526 56.177 14.9745 56.3275 14.9745Z" fill="#fff"/>
  <path d="M69.8206 19.4189C67.3618 19.4189 65.3604 21.4169 65.3604 23.8714C65.3604 26.3259 67.3618 28.3239 69.8206 28.3239C72.2793 28.3239 74.2808 26.3259 74.2808 23.8714C74.2808 21.4169 72.2793 19.4189 69.8206 19.4189ZM69.8206 26.8771C68.1601 26.8771 66.8096 25.529 66.8096 23.8714C66.8096 22.2138 68.1601 20.8657 69.8206 20.8657C71.4811 20.8657 72.8315 22.2138 72.8315 23.8714C72.8315 25.529 71.4811 26.8771 69.8206 26.8771Z" fill="#000"/>
  <path d="M79.1577 28.3239C81.6165 28.3239 83.618 26.3259 83.618 23.8714C83.618 21.4169 81.6165 19.4189 79.1577 19.4189C76.699 19.4189 74.6975 21.4169 74.6975 23.8714C74.6975 26.3259 76.6971 28.3239 79.1577 28.3239ZM79.1577 20.8638C80.8182 20.8638 82.1687 22.2119 82.1687 23.8695C82.1687 25.5271 80.8182 26.8752 79.1577 26.8752C77.4973 26.8752 76.1468 25.5271 76.1468 23.8695C76.1468 22.2119 77.4973 20.8638 79.1577 20.8638Z" fill="#000"/>
  <path d="M82.8766 37.267C81.7703 37.12 80.6019 36.2477 79.8811 35.0427V34.1259H82.1326C82.5317 34.1259 82.8572 33.8029 82.8572 33.4025C82.8572 33.0022 82.5336 32.6792 82.1326 32.6792H79.8811V30.5574C79.8811 30.1589 79.5576 29.834 79.1565 29.834C78.7574 29.834 78.4319 30.157 78.4319 30.5574V32.6792H76.1824C75.7832 32.6792 75.4577 33.0022 75.4577 33.4025C75.4577 33.8029 75.7813 34.1259 76.1824 34.1259H78.4338V35.0446C77.713 36.2496 76.5466 37.1219 75.4384 37.2689C75.0412 37.3212 74.7641 37.6848 74.8164 38.0813C74.8648 38.4449 75.1768 38.708 75.5333 38.708C75.5643 38.708 75.5972 38.706 75.6302 38.7022C76.6183 38.5706 77.6026 38.0716 78.4338 37.3154V39.4855C78.4338 39.8839 78.7574 40.2089 79.1584 40.2089C79.5595 40.2089 79.8831 39.8859 79.8831 39.4855V37.3154C80.7143 38.0716 81.6986 38.5706 82.6867 38.7022C82.7197 38.706 82.7507 38.708 82.7836 38.708C83.142 38.708 83.452 38.4449 83.5005 38.0813C83.5528 37.6828 83.2738 37.3192 82.8766 37.267Z" fill="#000"/>
  <path d="M73.5404 37.267C72.4341 37.12 71.2657 36.2477 70.545 35.0427V34.1259H72.7964C73.1955 34.1259 73.521 33.8029 73.521 33.4025C73.521 33.0022 73.1975 32.6792 72.7964 32.6792H70.545V30.5574C70.545 30.1589 70.2214 29.834 69.8203 29.834C69.4212 29.834 69.0957 30.157 69.0957 30.5574V32.6792H66.8442C66.4432 32.6792 66.1196 33.0022 66.1196 33.4025C66.1196 33.8029 66.4432 34.1259 66.8442 34.1259H69.0957V35.0427C68.3749 36.2477 67.2066 37.12 66.1002 37.267C65.703 37.3192 65.426 37.6829 65.4783 38.0794C65.5267 38.443 65.8387 38.706 66.1952 38.706C66.2262 38.706 66.2591 38.7041 66.292 38.7002C67.2802 38.5687 68.2645 38.0697 69.0957 37.3134V39.4836C69.0957 39.882 69.4192 40.2069 69.8203 40.2069C70.2214 40.2069 70.545 39.8839 70.545 39.4836V37.3134C71.3762 38.0697 72.3604 38.5687 73.3486 38.7002C73.3815 38.7041 73.4125 38.706 73.4455 38.706C73.8039 38.706 74.1139 38.443 74.1624 38.0794C74.2147 37.6829 73.9357 37.3192 73.5404 37.267Z" fill="#000"/>
  <path d="M90.2969 25.2019C90.1884 25.198 90.0779 25.1961 89.9655 25.1941C89.1983 25.1825 88.7468 25.1555 88.3768 24.7048C88.1229 24.3953 87.6657 24.3508 87.3576 24.6042C87.0476 24.8576 87.003 25.3141 87.2568 25.6216C88.0706 26.6119 89.1537 26.6293 89.9442 26.639C90.045 26.6409 90.1477 26.6428 90.2717 26.6448H99.8838C100.285 26.6448 100.608 26.3218 100.608 25.9214C100.608 25.521 100.285 25.198 99.8838 25.198L90.2969 25.2019Z" fill="#000"/>
  <path d="M93.8519 29.9731C93.3075 29.9731 92.8657 30.4141 92.8657 30.9576C92.8657 31.5011 93.3075 31.9421 93.8519 31.9421C94.3964 31.9421 94.8381 31.5011 94.8381 30.9576C94.8362 30.4141 94.3944 29.9731 93.8519 29.9731Z" fill="#000"/>
  <path d="M93.8519 37.1223C94.3964 37.1223 94.8381 36.6813 94.8381 36.1378C94.8381 35.5943 94.3964 35.1533 93.8519 35.1533C93.3075 35.1533 92.8657 35.5943 92.8657 36.1378C92.8657 36.6833 93.3075 37.1223 93.8519 37.1223Z" fill="#000"/>
  <path d="M101.909 32.5581H99.7947C99.6474 29.8967 97.4386 27.7769 94.7358 27.7769H92.9687C90.2678 27.7769 88.059 29.8986 87.9098 32.5581H85.794C85.3948 32.5581 85.0693 32.8811 85.0693 33.2815C85.0693 33.6819 85.3929 34.0049 85.794 34.0049H87.8943V35.1441C87.8943 37.9371 90.169 40.2078 92.9668 40.2078H94.7338C97.5316 40.2078 99.8063 37.9371 99.8063 35.1441V34.0049H101.907C102.308 34.0049 102.631 33.6819 102.631 33.2815C102.631 32.8811 102.308 32.5581 101.909 32.5581ZM92.9687 29.2236H94.7358C96.6384 29.2236 98.2001 30.6955 98.3454 32.5601H89.3591C89.5044 30.6955 91.066 29.2236 92.9687 29.2236ZM98.359 35.1441C98.359 37.1382 96.7334 38.761 94.7358 38.761H92.9687C90.9711 38.761 89.3455 37.1382 89.3455 35.1441V34.0049H98.3609V35.1441H98.359Z" fill="#000"/>
  <path d="M86.6905 22.264L88.4188 22.2679L88.4207 22.91C88.4227 23.3085 88.7462 23.6315 89.1454 23.6315H89.1473C89.5484 23.6315 89.8719 23.3065 89.87 22.9062L89.8681 22.2698L91.5886 22.2737H91.5905C91.9897 22.2737 92.3152 21.9507 92.3152 21.5522C92.3152 21.1538 91.9916 20.8289 91.5925 20.8269L89.8642 20.8231L89.8622 20.1809C89.8603 19.7825 89.5367 19.4595 89.1376 19.4595H89.1357C88.7365 19.4595 88.413 19.7844 88.413 20.1848L88.4149 20.8192L86.6944 20.8153H86.6924C86.2933 20.8153 85.9697 21.1383 85.9678 21.5368C85.9658 21.9391 86.2894 22.2621 86.6905 22.264Z" fill="#000"/>
  <path d="M96.1138 22.264L97.8421 22.2679L97.8441 22.91C97.846 23.3085 98.1696 23.6315 98.5687 23.6315H98.5706C98.9698 23.6315 99.2933 23.3065 99.2933 22.9062L99.2914 22.2698L101.012 22.2737H101.014C101.413 22.2737 101.737 21.9507 101.739 21.5522C101.739 21.1538 101.415 20.8289 101.016 20.8269L99.2875 20.8231L99.2856 20.1809C99.2837 19.7825 98.9601 19.4595 98.561 19.4595H98.559C98.1599 19.4595 97.8363 19.7844 97.8363 20.1848L97.8382 20.8192L96.1177 20.8153H96.1158C95.7166 20.8153 95.3931 21.1383 95.3911 21.5368C95.3911 21.9391 95.7147 22.2621 96.1138 22.264Z" fill="#000"/>
  <path d="M79.5636 14.3632C79.1451 14.8178 78.7982 15.017 78.3739 15.193C77.5369 15.5411 76.572 15.1427 76.2232 14.3071C76.0547 13.9029 76.0547 13.4561 76.2213 13.0499C76.3879 12.6437 76.7038 12.3285 77.1106 12.1602C77.69 11.9184 78.3429 12.0383 78.8002 12.4194L77.0099 13.1563C76.7134 13.2781 76.572 13.6186 76.6941 13.9145C76.8161 14.2104 77.1552 14.3536 77.4536 14.2298L79.9472 13.2027C80.0964 13.1408 80.2146 13.019 80.2708 12.8681C80.327 12.7153 80.3173 12.547 80.2436 12.4039C79.5829 11.1061 78.0077 10.5278 76.6611 11.0867C75.9675 11.3749 75.4288 11.9146 75.1421 12.607C74.8553 13.2994 74.8573 14.0615 75.146 14.7539C75.5935 15.8313 76.6417 16.4811 77.7442 16.4811C78.1027 16.4811 78.4669 16.4115 78.8196 16.2664C79.3001 16.0672 79.8251 15.7945 80.418 15.1485C80.635 14.9125 80.6195 14.545 80.3832 14.3284C80.1487 14.1118 79.7806 14.1273 79.5636 14.3632Z" fill="#000"/>
  <path d="M71.7924 10.8778C71.1434 10.8778 70.564 11.1622 70.1572 11.6051C69.7503 11.1564 69.1671 10.8682 68.5141 10.8682C67.2877 10.8682 66.2917 11.8643 66.2917 13.0867V15.8196C66.2917 16.1407 66.5514 16.3999 66.873 16.3999C67.1946 16.3999 67.4543 16.1407 67.4543 15.8196V13.0867C67.4543 12.5045 67.929 12.0306 68.5141 12.0306C69.0915 12.0306 69.5604 12.4948 69.572 13.0673L69.5701 13.0963C69.5701 13.1041 69.574 13.1118 69.5759 13.1215V15.8196C69.5759 16.1407 69.8355 16.3999 70.1572 16.3999C70.4788 16.3999 70.7384 16.1407 70.7384 15.8196V13.0867L70.7365 13.0673C70.752 12.4987 71.2189 12.0383 71.7924 12.0383C72.3756 12.0383 72.8523 12.5122 72.8523 13.0963V15.8196C72.8523 16.1407 73.1119 16.3999 73.4335 16.3999C73.7552 16.3999 74.0148 16.1407 74.0148 15.8196V13.0963C74.0167 11.872 73.0189 10.8778 71.7924 10.8778Z" fill="#000"/>
  <path d="M82.0708 11.1274C81.7491 11.1274 81.4895 11.3866 81.4895 11.7077V15.8197C81.4895 16.1408 81.7491 16.4 82.0708 16.4C82.3924 16.4 82.652 16.1408 82.652 15.8197V11.7077C82.652 11.3886 82.3924 11.1274 82.0708 11.1274Z" fill="#000"/>
  <path d="M82.0713 10.4098C82.5091 10.4098 82.8637 10.0558 82.8637 9.61871C82.8637 9.18159 82.5091 8.82764 82.0713 8.82764C81.6334 8.82764 81.2788 9.18159 81.2788 9.61871C81.2788 10.0558 81.6334 10.4098 82.0713 10.4098Z" fill="#000"/>
  <path d="M77.2192 10.4584C77.2889 10.4584 77.3606 10.4449 77.4284 10.4197L78.6782 9.93619C78.9785 9.82014 79.1277 9.48359 79.0114 9.1838C78.8952 8.884 78.558 8.737 78.2577 8.85112L77.008 9.33466C76.7077 9.45071 76.5585 9.78726 76.6747 10.0871C76.7658 10.3172 76.9867 10.4584 77.2192 10.4584Z" fill="#000"/>
  <path d="M89.9992 10.8778C89.3501 10.8778 88.7708 11.1622 88.3639 11.6051C87.9571 11.1564 87.3739 10.8682 86.7209 10.8682C85.4944 10.8682 84.4985 11.8643 84.4985 13.0867V15.8196C84.4985 16.1407 84.7582 16.3999 85.0798 16.3999C85.4014 16.3999 85.6611 16.1407 85.6611 15.8196V13.0867C85.6611 12.5045 86.1358 12.0306 86.7209 12.0306C87.2983 12.0306 87.7672 12.4948 87.7788 13.0693L87.7769 13.0963C87.7769 13.0963 87.7807 13.1118 87.7807 13.1195V15.8196C87.7807 16.1407 88.0404 16.3999 88.362 16.3999C88.6836 16.3999 88.9433 16.1407 88.9433 15.8196V13.0867L88.9413 13.0673C88.9568 12.4967 89.4238 12.0383 89.9973 12.0383C90.5805 12.0383 91.0571 12.5122 91.0571 13.0963V15.8196C91.0571 16.1407 91.3168 16.3999 91.6384 16.3999C91.96 16.3999 92.2197 16.1407 92.2197 15.8196V13.0963C92.2216 11.872 91.2257 10.8778 89.9992 10.8778Z" fill="#000"/>
  <path d="M100.275 11.1284C99.9537 11.1284 99.6941 11.3876 99.6941 11.7087V15.8207C99.6941 16.1418 99.9537 16.401 100.275 16.401C100.597 16.401 100.857 16.1418 100.857 15.8207V11.7087C100.859 11.3895 100.597 11.1284 100.275 11.1284Z" fill="#000"/>
  <path d="M100.276 10.4098C100.713 10.4098 101.068 10.0558 101.068 9.61871C101.068 9.18159 100.713 8.82764 100.276 8.82764C99.8377 8.82764 99.4832 9.18159 99.4832 9.61871C99.4851 10.0558 99.8397 10.4098 100.276 10.4098Z" fill="#000"/>
  <path d="M97.7718 14.3632C97.3533 14.8178 97.0065 15.017 96.5822 15.193C95.7451 15.5411 94.7802 15.1427 94.4315 14.3071C94.2629 13.9029 94.2629 13.4561 94.4295 13.0499C94.5981 12.6437 94.9139 12.3285 95.3189 12.1602C95.8982 11.9184 96.5512 12.0383 97.0084 12.4194L95.2181 13.1563C94.9217 13.2781 94.7802 13.6186 94.9023 13.9145C95.0244 14.2104 95.3634 14.3536 95.6618 14.2298L98.1554 13.2027C98.3046 13.1408 98.4228 13.019 98.479 12.8681C98.5352 12.7153 98.5255 12.547 98.4519 12.4039C97.7912 11.1061 96.2179 10.5278 94.8694 11.0867C94.1757 11.3749 93.6371 11.9146 93.3503 12.607C93.0636 13.2994 93.0655 14.0615 93.3523 14.7539C93.8018 15.8313 94.8481 16.4811 95.9505 16.4811C96.309 16.4811 96.6732 16.4115 97.0259 16.2664C97.5064 16.0672 98.0314 15.7945 98.6243 15.1485C98.8413 14.9125 98.8258 14.545 98.5895 14.3284C98.3569 14.1118 97.9888 14.1273 97.7718 14.3632Z" fill="#000"/>
  <path d="M95.4272 10.4584C95.497 10.4584 95.5686 10.4449 95.6365 10.4197L96.8862 9.93619C97.1865 9.82014 97.3357 9.48359 97.2194 9.1838C97.1032 8.884 96.766 8.737 96.4677 8.85112L95.2179 9.33466C94.9176 9.45071 94.7684 9.78726 94.8847 10.0871C94.9719 10.3172 95.1928 10.4584 95.4272 10.4584Z" fill="#000"/>
</svg>
