<svg xmlns="http://www.w3.org/2000/svg" fill="none" viewBox="0 0 116 30" class="design-iconfont">
  <path fill-rule="evenodd" clip-rule="evenodd" d="M106.377 0.43402C106.444 0.289702 106.644 0.00106515 106.91 0.00106515H115.136C115.281 -0.0100362 115.569 0.0610127 115.569 0.43402V11.5243C115.569 11.6686 115.489 11.9573 115.17 11.9573H106.81C106.722 11.9462 106.544 11.8907 106.544 11.7575C106.544 11.6044 106.628 11.5639 106.694 11.5325C106.699 11.5297 106.705 11.527 106.71 11.5243C106.764 11.4977 107.954 11.5132 108.542 11.5243L110.207 9.95902L111.706 11.5576H114.937L112.739 9.52607H109.974L108.509 10.9582H107.21V8.1939H113.09V3.66453H107.643V4.264H110.341V5.29643H107.643V5.86261H110.341V7.49451H107.21V3.66453H106.377V3.36479H106.744L108.609 1.0668L110.474 3.23157H113.338V3.09836L111.107 0.43402H108.409L106.644 2.73201H106.377V0.43402ZM108.843 3.13169C109.137 3.13169 109.376 2.89312 109.376 2.59882C109.376 2.30453 109.137 2.06595 108.843 2.06595C108.549 2.06595 108.31 2.30453 108.31 2.59882C108.31 2.89312 108.549 3.13169 108.843 3.13169Z" fill="#F30105"/>
  <path fill-rule="evenodd" clip-rule="evenodd" d="M94.466 0L86.4304 0.00352348L88.104 8.69911H83.8416V10.4627H88.5348L90.3432 20.0128C91.0745 23.2663 91.5326 26.3558 92.2266 29.54H99.9716L103.899 26.5103V25.3498L99.9959 28.3857L96.6193 10.3573L103.086 10.3232V8.69745L96.2184 8.7276L94.466 0Z" fill="#040000"/>
  <path fill-rule="evenodd" clip-rule="evenodd" d="M54.1291 28.3386V20.6981L69.9228 20.751L69.9223 8.51611H55.0412V10.2072L62.4678 10.286L62.5004 12.9006L55.0412 12.8453V14.5069L62.4652 14.5178L62.5 18.5307L54.051 18.4614V8.51611H52.0066L52.0699 29.6762L54.0133 29.6749C54.0133 29.6749 56.11 29.6718 57.158 29.6762C57.3659 29.6341 61.9498 25.4921 61.9498 25.4921L66.0144 29.6121H74.9284L68.1368 23.8816H60.4962L61.1329 24.7306L57.1004 28.3386C57.087 28.3426 54.1291 28.3386 54.1291 28.3386Z" fill="#040000"/>
  <path fill-rule="evenodd" clip-rule="evenodd" d="M38.8829 18.5342C38.8829 18.5342 38.8729 10.2965 38.897 10.2744C38.9211 10.2524 42.0134 10.2853 42.0134 10.2853V18.5342H38.8829ZM29.959 29.6101H49.4847V28.2415H32L31.9975 20.745L49.3646 20.7377L49.4289 8.51709L32.8267 8.51711V10.211L36.723 10.2406L36.7262 18.4385L31.9962 18.4322V8.5171H29.959L29.959 29.6101Z" fill="#040000"/>
  <path fill-rule="evenodd" clip-rule="evenodd" d="M10.433 16.2947H4.37402L4.37407 18.4829L10.4954 18.4888L10.4919 29.7235L17.4741 29.7926L17.4955 18.5699L23.6515 18.5957V16.2872H17.4955L17.4882 8.52979L10.433 8.5298V16.2947Z" fill="#040000"/>
  <path fill-rule="evenodd" clip-rule="evenodd" d="M79.6526 29.793L79.7238 7.57009L85.6469 0.0417163L77.7819 0.0385742L71.5315 7.58507C71.5315 7.58507 76.6222 7.57734 77.6145 7.58507L77.6412 29.793H79.6526Z" fill="#040000"/>
  <path fill-rule="evenodd" clip-rule="evenodd" d="M12.9148 2.23872L4.49064 2.21355V4.40626L10.7012 4.44311L0.000488281 16.8001L0.957281 17.6113L12.9364 4.40329L23.6877 4.37366L23.7009 2.28189L14.4658 2.238L15.6913 0.838081L14.7581 0.129883L12.9148 2.23872Z" fill="#040000"/>
  <path fill-rule="evenodd" clip-rule="evenodd" d="M56.4785 0.0341797L57.1003 0.748565L53.3251 5.66676L52.0066 7.32795L52.8152 7.87743L57.737 1.59752L62.8523 7.53798L70.4361 7.51531L64.3164 0.0341797H56.4785Z" fill="#040000"/>
  <path fill-rule="evenodd" clip-rule="evenodd" d="M30.0469 7.35692L30.7302 7.86893L33.8804 3.7676L40.2057 3.73738L36.9274 7.91545L44.604 7.93727L49.2544 2.34599L34.8411 2.32519L36.6254 0H35.4778L30.0469 7.35692Z" fill="#040000"/>
  <path fill-rule="evenodd" clip-rule="evenodd" d="M20.6554 11.2985L28.327 11.2956L23.7752 5.70718L15.9578 5.70459L20.6554 11.2985Z" fill="#040000"/>
  <path fill-rule="evenodd" clip-rule="evenodd" d="M96.8357 6.05481C97.2455 7.77059 100 7.18876 99.6186 5.3481C99.2903 3.76536 96.333 3.94984 96.8357 6.05481Z" fill="#040000"/>
  <path fill-rule="evenodd" clip-rule="evenodd" d="M56.9088 6.20477C57.2425 7.76624 60.0688 7.51156 59.6799 5.49122C59.3648 3.85453 56.4776 4.18732 56.9088 6.20477Z" fill="#040000"/>
</svg>
