<svg xmlns="http://www.w3.org/2000/svg" fill="none" viewBox="0 0 98 51" class="design-iconfont">
  <path fill-rule="evenodd" clip-rule="evenodd" d="M80.8519 28.1157L71.9561 28.1093L70.6939 28.1414C69.4802 28.1725 68.2786 28.1583 67.0648 28.169C66.6635 28.1726 65.2998 28.2329 65.0087 28.1925C64.0673 28.0618 63.7529 28.7135 63.9773 27.5448C63.5544 28.9132 64.0656 27.5383 63.392 28.2245C62.5704 27.6245 63.1802 28.4269 62.929 27.4395C62.4021 28.6557 62.9193 27.5657 62.3903 28.1674L54.1551 28.1697L53.8375 22.8868L53.0921 20.4981C52.5427 19.3654 52.2289 18.665 51.5595 17.5558C50.9434 16.5349 50.3685 15.9147 49.7738 14.837L46.2619 12.1461C39.7761 8.14578 32.1834 9.55153 26.472 13.894C23.8557 15.8833 19.9974 23.2824 21.4315 28.2092C20.2007 28.2269 0.680769 27.7455 0.181965 28.6148C-0.0507778 29.0203 -0.0658258 48.6183 0.169094 50.244C1.51085 50.4633 8.99469 50.8433 9.51555 49.7948C8.90127 48.7792 2.61484 49.2603 1.16803 49.2603C1.17068 45.7863 0.729889 31.7389 1.39319 29.5406C2.62988 29.1822 93.9399 28.9238 97.0074 29.5406L96.8969 49.2603C96.0651 49.2603 89.5194 49.0634 88.9718 49.3837C88.5015 49.6588 88.7572 49.4271 88.603 50.1286C89.5534 50.5892 96.5429 50.4658 97.8993 50.244L98 28.5999C96.0805 27.6528 84.8754 28.6415 80.8519 28.1157V28.1157Z" fill="#FDA53C"/>
  <path fill-rule="evenodd" clip-rule="evenodd" d="M25.6601 33.5651L20.6975 33.5795C20.9984 35.331 20.921 34.5938 22.8478 34.357L22.48 39.5441C20.9334 39.6682 20.3163 39.2068 19.4211 40.1119C19.9834 41.4423 19.4547 40.45 22.4544 40.3983L21.9961 45.7416C20.6061 45.1242 21.9617 44.8816 20.5985 45.4543C20.7147 45.728 19.9549 46.6371 24.0685 46.5708L25.2887 40.3924L28.457 40.4136L28.6657 47.6917L31.1772 47.6715L31.5175 40.3961L34.4924 40.3107C34.5896 38.5198 34.1105 39.617 31.4316 39.6343L31.5645 34.4352C33.7173 33.9309 33.1071 34.3239 33.3793 33.4338C32.8387 33.1343 26.8051 33.5634 25.6601 33.5651V33.5651ZM25.4316 39.5899L28.3616 39.5333L28.3302 34.434L26.195 34.2941L25.4316 39.5899Z" fill="#FDA53C"/>
  <path fill-rule="evenodd" clip-rule="evenodd" d="M71.9559 28.1097L80.8516 28.1162C84.6714 21.5218 80.0649 17.9806 76.414 17.9722C73.7835 17.9661 71.7742 19.6506 70.9883 21.3231C69.6716 24.125 70.8742 26.3002 71.9559 28.1097V28.1097Z" fill="#DF1C69"/>
  <path fill-rule="evenodd" clip-rule="evenodd" d="M60.3679 18.4076C61.5122 19.2333 64.7524 19.6664 65.6872 23.1571C67.3199 22.6075 67.697 22.2344 69.7133 22.0481C70.0216 21.0612 70.3909 20.2736 70.9077 19.5699C71.6059 18.6192 72.2984 18.5925 72.1707 16.7448C72.0203 14.5683 70.4114 12.6626 68.9136 11.8944C64.4066 9.58281 59.764 13.5001 60.3679 18.4076V18.4076Z" fill="#DF1C69"/>
  <path fill-rule="evenodd" clip-rule="evenodd" d="M49.7744 14.8376C50.3691 15.9153 50.944 16.5354 51.5602 17.5564C52.2295 18.6656 52.5433 19.366 53.0927 20.4987C54.673 20.9045 54.4956 20.2492 55.7731 19.4753C56.7851 18.8622 57.8674 18.6915 59.1972 18.5537C59.3219 17.3414 59.2331 16.1501 59.6241 14.9587C60.032 13.7159 60.5991 13.3268 61.0156 12.3982C58.2044 6.97714 50.2375 8.63559 49.7744 14.8376V14.8376Z" fill="#DF1C69"/>
  <path fill-rule="evenodd" clip-rule="evenodd" d="M53.8374 22.8869L54.155 28.1698L62.3902 28.1675C62.9192 27.5658 62.402 28.6558 62.929 27.4396C63.4223 25.7187 64.2482 24.7266 64.8944 23.7505C64.0065 21.6679 62.8402 19.9795 60.069 19.6455C56.7723 19.2481 55.02 21.1288 53.8374 22.8869V22.8869Z" fill="#DF1C69"/>
  <path fill-rule="evenodd" clip-rule="evenodd" d="M68.795 39.7375L68.8987 42.7835L69.9086 43.3681C70.047 44.124 68.8366 43.5603 69.9375 45.6399C68.6486 45.7691 68.2657 45.4831 67.255 46.1218C67.9589 46.5188 74.7157 46.4822 75.7721 46.2946C76.7 46.1298 76.42 46.1162 76.7868 45.7878L74.472 45.6949L75.0165 44.129C74.8085 44.0261 74.705 43.8254 74.6731 43.9L74.0532 43.577C73.2393 44.2635 72.7349 44.7243 73.2837 45.6933L70.9553 45.6923C71.8932 44.6779 71.3231 45.6417 71.3903 44.4464C71.128 44.2285 70.6897 43.7162 69.8642 43.3478C72.8623 42.5359 74.5782 43.7934 75.2313 42.2101C75.5825 41.3586 75.5342 40.242 75.4471 39.4683L68.9698 39.4621L69.84 38.0626L73.0858 38.203C74.1141 37.9576 73.5192 38.1924 74.0782 37.5452L70.2855 37.6599C70.8615 36.2003 71.9226 35.3831 71.9466 33.1413C70.8263 33.1182 68.0786 32.9212 67.2216 33.4334C68.2319 34.0742 67.7877 33.862 69.7055 33.862L69.1667 35.3354C66.7937 34.0028 67.6145 34.8257 67.1528 35.1436C67.4709 36.1209 68.0443 36.3038 68.5784 36.5931C66.8535 39.5429 67.4922 37.8757 66.4092 38.442L68.795 39.7375ZM70.5989 42.4334L73.5453 42.5095L73.5775 40.0843L71.1731 40.1121L70.5989 42.4334V42.4334Z" fill="#FDA53C"/>
  <path fill-rule="evenodd" clip-rule="evenodd" d="M16.7307 8.48051C17.9757 10.3171 21.5595 14.1248 23.9908 15.2397L28.7946 11.0623C26.4799 8.83497 21.0521 6.76584 16.7307 8.48051V8.48051Z" fill="#5CAE32"/>
  <path fill-rule="evenodd" clip-rule="evenodd" d="M66.7852 36.5002L65.8538 36.4388C65.796 35.0637 66.0614 34.1603 65.5271 32.9679L63.4168 32.8628C63.0585 33.5072 62.9563 33.4008 62.9403 34.7528C62.9334 35.3427 63.0176 36.1484 63.0388 36.7717L60.7593 36.9655C61.0255 39.0889 61.1534 37.8225 62.795 37.6107L61.3551 41.7761L60.5105 41.7437C60.4885 41.7456 60.3985 41.7589 60.3474 41.7813C60.8493 42.6418 60.6643 42.4908 62.0561 43.0422L62.8901 42.2298C63.2868 41.7248 63.1205 42.0432 63.1031 41.7125C63.2729 43.1223 63.0191 44.978 63.7256 46.0972L65.3175 46.1188C66.0258 38.9881 65.3788 43.172 67.2625 40.1118C65.9199 38.4927 65.7637 39.7518 65.7385 37.3931L67.0117 37.2299L66.7852 36.5002V36.5002Z" fill="#FDA53C"/>
  <path fill-rule="evenodd" clip-rule="evenodd" d="M32.7087 9.49846C33.8095 9.33509 34.8359 9.05465 36.0008 8.94893C40.0425 8.58197 40.2358 10.6021 40.1794 0C36.7132 1.18037 33.4479 5.03204 32.7087 9.49846V9.49846Z" fill="#5CAE32"/>
  <path fill-rule="evenodd" clip-rule="evenodd" d="M26.7767 8.33298C29.4584 10.2404 30.9953 11.8723 31.8732 8.56761C32.2671 7.08521 32.4776 6.91929 31.8628 5.55169C31.2095 4.09826 29.923 1.46644 28.9993 0.385254C28.1602 1.07118 27.6143 2.58803 27.2844 3.68275C26.8244 5.20982 26.7382 6.63705 26.7767 8.33298V8.33298Z" fill="#5CAE32"/>
  <path fill-rule="evenodd" clip-rule="evenodd" d="M45.4803 45.3453C46.8172 45.7277 53.0149 45.5363 54.2741 44.7488L54.2388 44.1251C54.1215 44.082 53.9952 43.9267 53.9589 44.0129C53.9257 44.0919 53.7759 43.9311 53.73 43.9336C52.841 43.9815 53.1847 44.2062 52.3484 44.3826L47.1865 44.6359L47.4717 36.7539L44.1191 36.4102C44.1541 38.9239 44.6127 43.4847 45.4803 45.3453V45.3453Z" fill="#FDA53C"/>
  <path fill-rule="evenodd" clip-rule="evenodd" d="M63.9773 27.5447C63.7529 28.7135 64.0673 28.0617 65.0087 28.1924C65.2998 28.2328 66.6635 28.1725 67.0648 28.1689C68.2786 28.1583 69.4802 28.1724 70.6939 28.1414C69.9818 26.4899 69.4251 25.3706 69.4571 23.0903C66.4071 23.4249 64.682 24.8581 63.9773 27.5447V27.5447Z" fill="#DF1C69"/>
  <path fill-rule="evenodd" clip-rule="evenodd" d="M75.7339 36.0922C77.0077 37.2558 77.564 36.561 77.448 35.1519C77.4411 35.0687 77.3815 34.9447 77.3481 34.8411L75.7037 35.0777C76.6923 33.9016 76.6312 34.4302 76.2521 32.9215C74.8875 33.2239 75.0875 33.2439 74.5594 34.0227C73.9646 32.7465 74.4909 33.1897 73.3162 32.792C72.6927 33.1601 72.3717 33.2743 71.8926 33.5865L74.7467 38.0944C75.555 39.1494 75.6716 40.1055 77.1027 39.1699C77.8124 38.706 77.6946 38.6682 77.8327 37.7746C77.7753 37.7563 77.6803 37.6544 77.6607 37.7199L77.3143 37.7495C77.2751 37.7703 77.1717 37.843 77.1319 37.8689L76.7495 38.2495C76.4182 36.8904 76.4101 37.3245 75.7339 36.0922V36.0922Z" fill="#FDA53C"/>
  <path fill-rule="evenodd" clip-rule="evenodd" d="M40.0278 41.982L42.681 42.3508C42.814 41.9273 44.0115 39.8882 43.4012 37.4562L41.4055 37.0996L40.0278 41.982Z" fill="#FDA53C"/>
  <path fill-rule="evenodd" clip-rule="evenodd" d="M49.0696 34.0624C49.4704 33.2119 49.5644 33.3393 48.7256 33.7433C48.5379 33.3538 49.603 32.4747 47.0554 34.0706C47.2593 35.7111 48.3092 36.8098 48.7338 38.3803C49.4154 38.1768 49.8826 38.0449 50.3787 37.7737L51.3221 36.9477C51.2099 35.9296 50.6365 35.0692 49.9765 34.4822C49.2597 33.8448 50.219 34.105 49.0696 34.0624V34.0624Z" fill="#FDA53C"/>
  <path fill-rule="evenodd" clip-rule="evenodd" d="M53.7192 42.4246C54.566 42.3256 54.222 42.488 54.9864 42.0991C55.8125 41.6789 55.7539 41.5216 56.0566 41.1135C54.0398 35.7716 50.0975 37.0549 53.7192 42.4246V42.4246Z" fill="#FDA53C"/>
</svg>
