<svg xmlns="http://www.w3.org/2000/svg" fill="none" viewBox="0 0 93 50" class="design-iconfont">
  <path fill-rule="evenodd" clip-rule="evenodd" d="M73.773 27.006C73.9938 26.7028 74.2424 26.4155 74.5101 26.1442C75.6179 25.0063 76.9004 24.1178 78.3543 23.4856C79.3828 23.0361 80.7195 22.5396 81.8549 22.5396C82.8778 22.5396 83.5369 23.0901 83.5369 24.1437C83.5369 25.2249 82.5915 26.5354 81.8372 27.4429C81.9374 27.4822 82.0481 27.5001 82.173 27.5001C82.5999 27.5001 82.9869 27.2409 83.2869 26.9583L83.6195 26.645L84.4503 27.4652L84.0866 27.8043C83.5501 28.3045 82.8988 28.6597 82.1513 28.6597C81.7428 28.6597 81.3692 28.5511 81.0434 28.34C80.0916 29.2841 79.0494 30.1313 77.9115 30.8437C76.9974 31.4104 75.7973 32.0214 74.6973 32.0214C74.1593 32.0214 73.6957 31.8211 73.3222 31.4336C72.9178 31.0141 72.7622 30.4706 72.7622 29.8964C72.7622 29.7033 72.7748 29.514 72.799 29.3285C70.9374 30.7269 68.6576 32.0642 66.6214 32.0642C66.0589 32.0642 65.5385 31.9046 65.0934 31.5568C64.6337 31.1975 64.39 30.7105 64.39 30.1248C64.39 30.0717 64.3921 30.0194 64.3966 29.968C64.3279 30.0219 64.259 30.0756 64.1901 30.1293C63.6412 30.5561 63.051 31.0173 62.4578 31.381C61.9329 31.701 61.1562 32.1284 60.5265 32.1284C60.0626 32.1284 59.6519 31.9523 59.3678 31.5855C59.097 31.2487 58.9748 30.8485 58.9748 30.4174C58.9748 30.1715 59.0152 29.9211 59.0836 29.6724C57.5907 30.8016 55.6004 32.1284 54.3667 32.1284C53.7781 32.1284 53.2848 31.8743 52.9496 31.3876C52.6127 30.8987 52.4967 30.3109 52.4967 29.7251C52.4967 29.6028 52.5026 29.4823 52.5138 29.3637C52.1772 29.6319 51.8378 29.8963 51.4951 30.1548C50.9499 30.5663 50.3015 31.0534 49.6891 31.3585C49.0574 31.6703 48.2771 31.9785 47.5633 31.9785C47.0513 31.9785 46.5911 31.7958 46.2255 31.435C45.866 31.0798 45.6716 30.6315 45.6716 30.1248C45.6716 29.4273 45.9633 28.7976 46.3719 28.25C46.9813 27.4187 48.1298 26.53 48.9458 25.9061C49.2804 25.6502 50.6313 24.5768 50.6313 24.1008C50.6313 24.0874 50.6326 24.0586 50.6268 24.0459C50.5748 23.9984 50.3604 23.9918 50.2961 23.9918C49.4992 23.9918 48.4887 24.4803 47.8074 24.8602C46.4684 25.6022 45.1795 26.6843 44.0533 27.7127L41.5523 30.0389C40.9815 30.569 40.4015 31.1137 39.8707 31.6845L39.7338 31.8317L36.1888 31.9023L39.9441 28.2136C40.5961 27.5759 41.2462 26.9346 41.8831 26.2818C42.2749 25.8803 42.6739 25.4691 43.0362 25.0426C43.2023 24.8445 43.6953 24.2258 43.7049 23.945C43.6936 23.9181 43.654 23.8733 43.6332 23.8512C43.5804 23.8011 43.5231 23.7849 43.4496 23.7849C42.7154 23.7849 41.3764 24.6088 40.7778 24.9942C39.3182 25.9339 37.9395 27.0203 36.6349 28.1623L32.5067 31.8322L29.1016 31.9007L30.6156 30.2354L33.3589 27.5701C33.9594 26.9861 34.5583 26.3987 35.1446 25.8002C35.4964 25.441 35.859 25.0697 36.1842 24.6835C36.3381 24.5036 36.7472 23.9921 36.7705 23.7243C36.7431 23.7213 36.7137 23.7206 36.6968 23.7206C36.1162 23.7206 35.1987 24.2824 34.732 24.5907C33.2926 25.549 31.8752 26.715 30.542 27.816L30.2121 28.0885L30.2017 28.0781L29.2151 28.9052C27.8971 30.0157 25.1458 32.2569 23.3287 32.2569C22.8341 32.2569 22.4028 32.0601 22.0613 31.7042C21.7177 31.346 21.5382 30.9 21.5382 30.4031C21.5382 28.8561 23.0481 26.8696 24.0144 25.7005L21.0936 28.0868L20.2667 27.2704L20.6665 26.9336C21.8957 25.898 23.1267 24.8632 24.368 23.8422C24.9408 23.3712 25.5515 22.8454 26.1553 22.4209C26.5642 22.1276 27.0258 21.813 27.4859 21.5969C27.7212 21.4918 27.9322 21.3496 28.1193 21.1727C30.3415 18.8273 32.6375 16.5382 35.043 14.3815C36.8473 12.7638 38.7478 11.1243 40.7345 9.73515C41.8855 8.93021 43.463 8.00802 44.9099 8.00802C45.3872 8.00802 45.8315 8.15272 46.1951 8.47202C46.5222 8.76784 46.7437 9.13848 46.7437 9.59065C46.7437 10.9688 44.8121 12.7276 43.8711 13.5599C41.796 15.3873 39.4539 16.9724 37.0839 18.3864C35.9206 19.0804 34.731 19.7524 33.5129 20.3452C32.7027 20.7394 31.8375 21.1243 30.9702 21.3854C30.4155 22.0229 29.8203 22.6429 29.2435 23.2543L27.5589 25.088L25.4248 27.5935C25.0233 28.0651 23.3565 30.0282 23.167 30.6687V30.7957C23.167 31.0114 23.2628 31.0116 23.4732 31.0116C24.9189 31.0116 27.9828 28.4723 29.377 27.264L29.3764 27.2634L29.3958 27.2477C29.5265 27.1343 29.642 27.0331 29.7397 26.9472L30.0712 26.6559L30.096 26.6803L31.9308 25.1933C33.0013 24.3276 35.296 22.5183 36.7401 22.5183C37.8386 22.5183 38.3789 23.2336 38.3789 24.2935C38.3789 24.6445 38.2829 25.0095 38.1275 25.3714C39.9354 24.033 42.1747 22.6039 43.5869 22.6039C44.0814 22.6039 44.5562 22.7446 44.9197 23.0926C45.2394 23.3989 45.4352 23.7816 45.4352 24.2293C45.4352 24.5161 45.3692 24.8143 45.2575 25.1141C45.395 25.0131 45.5336 24.9137 45.6733 24.8157C46.4818 24.2548 47.3746 23.6679 48.2741 23.266C48.8714 22.9991 49.5562 22.7681 50.2167 22.7681C51.3002 22.7681 52.0867 23.2813 52.0867 24.4363C52.0867 25.3093 51.7398 26.0824 51.1996 26.7565C50.8181 27.2261 50.3329 27.6729 49.8825 28.0752C49.161 28.7197 48.4064 29.3338 47.6493 29.9335C47.5301 30.029 47.126 30.373 47.0837 30.5339C47.0897 30.8049 47.3575 30.7976 47.585 30.7976C48.2544 30.7976 48.9691 30.4686 49.5336 30.1362C50.0879 29.8049 50.6337 29.3876 51.1431 28.991C51.9578 28.3566 52.7526 27.691 53.5367 27.0187C54.2417 26.1432 55.2083 25.4326 56.1235 24.8783C57.8345 23.8368 60.049 22.7466 62.0954 22.7466C62.8655 22.7466 63.4845 23.04 63.6976 23.6896L64.6355 22.7253H67.8401L61.1059 29.664C60.904 29.8734 60.3721 30.4579 60.3721 30.7742C60.3721 30.8298 60.3745 30.8893 60.4224 30.9242L60.4306 30.9303C60.4899 30.9756 60.5588 31.0116 60.635 31.0116C60.9677 31.0116 61.7379 30.5248 62.0083 30.3477C62.5573 29.9847 63.0966 29.5529 63.6112 29.1425C64.3802 28.5293 65.1383 27.9005 65.8918 27.2676L65.8909 27.2667L65.9913 27.1838C66.0876 27.1029 66.1837 27.0219 66.2798 26.9409L66.6103 26.6623L66.616 26.6681L74.4861 20.171L75.131 21.1968L74.7967 21.4623C74.4862 21.7091 73.9784 22.1081 73.7391 22.4286C73.614 22.6151 73.5741 22.837 73.5741 23.0588C73.5741 23.462 73.6532 23.9331 73.72 24.3332C73.8088 24.9062 73.8704 25.4903 73.8704 26.0708C73.8704 26.3931 73.8369 26.7048 73.773 27.006V27.006ZM66.7212 28.0864C66.5529 28.2258 66.3844 28.365 66.2154 28.5038C66.4192 28.5468 66.6055 28.6433 66.764 28.7913C66.9884 29.001 67.1177 29.2737 67.1177 29.5823C67.1177 29.963 66.9592 30.2954 66.6868 30.5571C66.5614 30.6843 66.4204 30.7894 66.2654 30.8628C66.3688 30.8808 66.4843 30.8833 66.5997 30.8833C67.8855 30.8833 69.2415 29.5317 70.0243 28.6401C71.2156 27.276 72.0792 25.69 72.2213 23.8568L72.2223 23.8456C72.2319 23.7509 72.2428 23.6561 72.255 23.5614L66.7218 28.087L66.7212 28.0864V28.0864ZM32.6495 19.4406C32.7918 19.3707 32.932 19.3005 33.0695 19.2313C34.2355 18.6438 35.3806 17.9991 36.5097 17.3435C38.8042 16.011 41.1039 14.4887 43.0725 12.6997C43.6457 12.1766 45.498 10.4432 45.498 9.59065C45.498 9.49885 45.419 9.41986 45.3496 9.36305C45.2105 9.24465 45.0301 9.21047 44.8521 9.21047C43.8986 9.21047 42.7993 9.81908 42.0274 10.3299C41.2463 10.8518 40.4883 11.5182 39.7933 12.1493C38.681 13.1592 37.6092 14.2251 36.5581 15.2988C35.4884 16.3916 34.4261 17.4949 33.3921 18.6217C33.144 18.8921 32.8955 19.1649 32.6495 19.4406V19.4406ZM62.5535 24.1865C62.5535 23.9 62.2907 23.9062 62.0521 23.9062C60.5818 23.9062 58.2421 25.893 57.2121 26.8124C56.5436 27.4071 53.9738 29.7329 53.9738 30.7101C53.9738 30.78 54.025 30.8445 54.0707 30.8919C54.1521 30.9759 54.2773 30.9903 54.3883 30.9903C54.8501 30.9903 55.7867 30.4956 56.1839 30.2785C57.3693 29.6212 58.5349 28.6905 59.5694 27.8198C60.131 27.3416 60.6917 26.8527 61.2218 26.3392C61.5145 26.0557 61.8565 25.718 62.0912 25.3816C62.3325 25.0406 62.5535 24.6151 62.5535 24.1865V24.1865ZM82.2712 23.7997C82.1533 23.7092 82.0265 23.6564 81.8765 23.6564C80.542 23.6564 78.2346 25.8321 77.3491 26.6975C76.8054 27.2288 74.2393 29.7722 74.2393 30.5673C74.2393 30.6212 74.3219 30.6948 74.3579 30.7239L74.366 30.7304C74.4752 30.8223 74.599 30.8618 74.7407 30.8618C75.4346 30.8618 76.4707 30.3397 77.0652 30.0136C78.1028 29.4446 79.0501 28.7347 79.8724 27.8809C80.5484 27.1791 81.2337 26.4128 81.7805 25.603C82.0593 25.1922 82.3996 24.593 82.3996 24.0794C82.3996 23.958 82.361 23.8778 82.2712 23.7997V23.7997ZM14.2686 12.6387C14.1949 12.305 14.1492 11.9633 14.1492 11.6248C14.1492 9.79966 15.0289 8.19986 16.2057 6.86293C17.8028 5.04851 20.1046 3.66222 22.253 2.6105C24.2545 1.63054 26.7732 0.628032 29.033 0.628032C29.8565 0.628032 30.6784 0.785422 31.3737 1.2522C32.049 1.71163 32.3851 2.37899 32.3851 3.19558C32.3851 5.49852 29.4049 7.6591 27.7108 8.78217C24.247 11.07 19.9625 12.4791 15.9284 13.4184C15.9661 13.7022 16.0487 13.9883 16.2176 14.2092L16.5447 14.1961H16.5542C17.3891 14.1961 18.4129 14.2545 19.1971 14.5763C19.7112 14.7966 20.3112 15.1647 20.3112 15.8001C20.3112 16.1734 20.1116 16.4623 19.805 16.6641C19.5404 16.8348 19.2404 16.9259 18.9256 16.9259C17.6593 16.9259 16.6141 16.291 15.7616 15.407C11.8896 15.9779 8.55953 17.6203 5.91677 20.5518C4.26584 22.3832 2.00501 25.2814 2.00501 27.8908C2.00501 28.8068 2.48171 29.4962 3.18182 30.0491C4.1489 30.8053 5.44002 31.0116 6.63473 31.0116C9.82308 31.0116 12.8169 29.9484 15.5394 28.337C17.5026 27.1751 19.9331 25.3086 19.9331 22.7733C19.9331 22.2035 19.7429 21.7336 19.3257 21.3452C18.844 20.8965 18.2073 20.7587 17.5663 20.7587C15.0913 20.7587 12.6292 21.8775 10.5647 23.1638C8.19423 24.6368 6.0689 26.481 4.48892 28.8018L4.24362 29.1621L3.25765 28.6061L3.5553 28.1758C5.22817 25.758 7.46203 23.8144 9.93119 22.2493C12.1682 20.8313 14.7947 19.6561 17.4868 19.6561C18.4724 19.6561 19.4326 19.902 20.1678 20.5909C20.8057 21.1887 21.1787 21.9269 21.1787 22.809C21.1787 25.8184 18.5313 27.9396 16.162 29.3027C13.2844 30.9684 10.0986 32.1284 6.74327 32.1284C4.89298 32.1284 2.96917 31.7242 1.6594 30.3128C0.593795 29.1565 0.000244141 27.7939 0.000244141 26.2134C0.000244141 23.273 1.562 20.8813 3.68643 18.9712C6.54288 16.4029 11.1264 15.1106 14.9326 14.3905C14.7908 14.1759 14.6681 13.949 14.5625 13.7125C12.8167 14.064 10.9464 14.3565 9.17977 14.3565C7.22377 14.3565 5.12137 14.0067 3.55426 12.7458C2.36848 11.7917 1.50402 10.5599 1.50402 8.98392C1.50402 5.90051 3.57268 3.8369 6.13374 2.44136C9.32443 0.707007 12.837 0 16.4457 0H16.9203V1.10245H16.4457C13.0164 1.10245 9.53323 1.75656 6.675 3.7576C4.82382 5.05346 2.9594 6.89835 2.9594 9.32661C2.9594 10.4647 3.68014 11.3257 4.54812 11.9789C5.88924 12.988 7.82869 13.2183 9.45449 13.2183C11.0347 13.2183 12.7035 12.959 14.2686 12.6387V12.6387ZM16.0661 12.2404C19.8364 11.3015 23.9741 9.93691 27.1794 7.79527C28.5364 6.88863 31.2263 4.93451 31.2263 3.06714C31.2263 2.66858 31.0357 2.39634 30.7102 2.17572C30.2435 1.85459 29.6302 1.76618 29.0764 1.76618C26.2136 1.76618 23.1644 3.89447 21.0586 5.65274C19.1056 7.28718 16.7685 9.63581 16.0661 12.2404ZM17.4464 15.3386C17.8893 15.622 18.3841 15.8091 18.9256 15.8091C18.9634 15.8091 19.0485 15.8062 19.1108 15.7939C19.0115 15.6868 18.6518 15.5729 18.5564 15.5463C18.1923 15.449 17.8212 15.3753 17.4464 15.3386V15.3386Z" fill="#000"/>
  <path fill-rule="evenodd" clip-rule="evenodd" d="M87.3154 14.0964C89.4074 14.0964 91.1039 15.7989 91.1039 17.8982C91.1039 19.9976 89.4074 21.7001 87.3154 21.7001C85.2235 21.7001 83.527 19.9976 83.527 17.8982C83.527 15.7989 85.2235 14.0964 87.3154 14.0964ZM87.3154 13.0913C89.9604 13.0913 92.1055 15.2439 92.1055 17.8982C92.1055 20.5526 89.9604 22.7051 87.3154 22.7051C84.6705 22.7051 82.5254 20.5526 82.5254 17.8982C82.5254 15.2439 84.6705 13.0913 87.3154 13.0913ZM89.3822 20.7574H88.5947L87.4137 18.3216H86.5618V20.7574H85.8078V15.1303H87.4474C87.9721 15.1303 88.3973 15.2564 88.7261 15.5092C89.0534 15.7604 89.2172 16.1718 89.2172 16.7419C89.2172 17.1815 89.108 17.5213 88.8899 17.7626C88.6716 18.0042 88.4197 18.1572 88.1355 18.2233L89.3822 20.7574V20.7574ZM88.4629 16.7419C88.4629 16.4359 88.3706 16.1943 88.1847 16.0188C87.9984 15.8433 87.6978 15.755 87.2837 15.755H86.5618V17.6968H87.4795C87.7424 17.6968 87.9721 17.625 88.168 17.4834C88.3653 17.3402 88.4629 17.0929 88.4629 16.7419V16.7419Z" fill="#000"/>
  <path d="M13.1355 40.2516H10.7106C11.0281 39.7881 11.3168 39.2666 11.5766 38.6728L10.5807 38.3106C10.3208 38.9914 10.0033 39.6433 9.628 40.2516H7.78044C7.62169 39.6433 7.44846 39.0928 7.2608 38.6148L6.25045 38.7742C6.43806 39.2087 6.61129 39.7012 6.77005 40.2516H4.40285C4.24409 39.6867 4.08533 39.1797 3.92652 38.7307L2.90171 38.8901C3.07494 39.3101 3.2337 39.7591 3.37803 40.2516H1.18406V42.6417H2.2522V41.1932H12.0674V42.6417H13.1355V40.2516V40.2516ZM12.356 36.9056C9.44035 37.2967 5.75966 37.4995 1.3284 37.514L1.64596 38.4845C6.32262 38.4845 10.0611 38.2527 12.8757 37.8182L12.356 36.9056V36.9056ZM5.02356 41.5553C4.95134 41.9319 4.87917 42.294 4.79258 42.6706H2.29547V43.6266H4.53276C3.81108 45.9153 2.56972 47.6679 0.837646 48.9137L1.34282 49.8117C2.6852 48.9137 3.76777 47.6825 4.60493 46.0891C5.3555 46.8278 6.19271 47.4652 7.11647 48.0156C6.09165 48.5081 4.90807 48.8557 3.56569 49.073L4.02759 50.0001C5.48541 49.7393 6.85664 49.2468 8.12686 48.5515C9.51251 49.2323 11.0426 49.6958 12.7458 49.9276L13.2077 48.9861C11.7065 48.8123 10.3353 48.4646 9.06509 47.9721C10.0322 47.3058 10.8549 46.5091 11.5333 45.5966V44.8144H5.18232C5.32665 44.4378 5.45656 44.0322 5.58647 43.6266H12.0385V42.6706H5.8463C5.91846 42.352 5.99063 42.0333 6.04838 41.6857L5.02356 41.5553V41.5553ZM5.38439 45.7125H10.292C9.67132 46.3643 8.92075 46.9582 8.04027 47.5086C7.07319 47.0161 6.19271 46.4078 5.38439 45.7125V45.7125ZM25.4585 39.2956L24.6212 44.0177H30.2361C30.2361 46.3063 30.1206 47.6969 29.8897 48.1605C29.6876 48.6239 29.0381 48.8702 27.9556 48.8702C27.6958 48.8702 27.2339 48.8267 26.5699 48.7688L26.8585 49.7827C27.3204 49.8117 27.7679 49.8262 28.1865 49.8262C29.4422 49.8262 30.265 49.5655 30.6547 49.044C31.03 48.4936 31.2176 46.4947 31.2176 43.0473H29.6588L30.4671 37.3257H24.2893V38.3106H29.3123L28.6339 43.0473H25.7616L26.44 39.3536L25.4585 39.2956V39.2956ZM24.1305 45.8139V46.7699H29.1825V45.8139H24.1305ZM18.8909 42.0478V43.0617H20.5797V46.7554C19.9302 46.9002 19.2662 47.0306 18.6023 47.132L18.8477 48.1315C20.5941 47.7838 22.2252 47.3638 23.7263 46.8568V45.8429C23.0479 46.0746 22.3551 46.2919 21.6334 46.4947V43.0617H23.3367V42.0478H21.6334V38.6583H23.7119V37.6588H18.6456V38.6583H20.5797V42.0478H18.8909V42.0478ZM37.6515 37.8326V38.7886H42.5158V40.0489H37.0597V42.6851H38.0701V40.9614H42.3714C41.5343 41.6857 40.6394 42.323 39.7011 42.8589C39.4846 42.9748 39.2681 43.0617 39.0516 43.1052L39.2537 43.9018C40.5095 43.8729 41.6209 43.8294 42.6024 43.8005C41.3322 44.5247 40.1197 45.0462 38.9361 45.3793C38.6475 45.3793 38.3443 45.3649 38.0412 45.3504L38.2433 46.2919C39.5712 46.2629 41.029 46.205 42.6168 46.1325V48.6095C42.6168 48.8992 42.4436 49.0585 42.1261 49.0585C41.7508 49.0585 41.3466 49.0295 40.9425 48.9861L41.159 49.9566H42.4725C43.2519 49.9566 43.6561 49.58 43.6561 48.8557V46.0891C44.6953 46.0311 45.7923 45.9587 46.9615 45.8863C47.2502 46.2339 47.51 46.5816 47.7409 46.9292L48.5204 46.3643C47.9574 45.5821 47.1491 44.6841 46.0954 43.6556L45.3449 44.1336C45.6913 44.4813 46.0233 44.8144 46.3408 45.1621C44.4644 45.2924 42.6024 45.3938 40.726 45.4518C42.689 44.7565 44.5077 43.786 46.2109 42.5113L45.3737 41.9464C44.8541 42.323 44.3345 42.6851 43.8293 43.0328C43.021 43.0907 41.9384 43.1197 40.6105 43.1486C41.5487 42.6417 42.4436 42.0478 43.3097 41.3525L42.5158 40.9614H48.0296V42.6996H49.04V40.0489H43.5839V38.7886H48.4482V37.8326H43.5839V36.6884H42.5158V37.8326H37.6515V37.8326ZM45.1861 46.8568L44.6665 47.6245C46.0521 48.1315 47.4089 48.8267 48.7369 49.6958L49.271 48.8557C48.0441 48.0735 46.6873 47.4072 45.1861 46.8568ZM40.6394 46.8278C39.6145 47.61 38.3155 48.2474 36.7421 48.7254L37.1752 49.6524C38.8062 49.0875 40.163 48.3777 41.2456 47.5086L40.6394 46.8278V46.8278ZM54.7088 42.0478V43.0617H56.2244V46.7699C55.6326 46.9147 55.0264 47.0306 54.3913 47.132L54.6366 48.1315C56.2822 47.8128 57.8122 47.4072 59.2267 46.9147V45.9008C58.5916 46.1181 57.9565 46.3209 57.2925 46.5091V43.0617H58.8226V42.0478H57.2925V38.6293H59.169V37.6298H54.4923V38.6293H56.2244V42.0478H54.7088V42.0478ZM60.9733 40.0199H62.994V42.3809H59.3422V43.3659H62.2867C61.5939 45.2055 60.4536 46.7119 58.8803 47.8997L59.4144 48.7978C61.0598 47.4217 62.2578 45.669 62.994 43.5397V50.0001H64.0044V43.5687C64.6106 45.4518 65.6499 47.161 67.1077 48.6964L67.7717 47.8707C66.3283 46.5381 65.3035 45.0462 64.7117 43.3659H67.4397V42.3809H64.0044V40.0199H66.8479V39.0349H64.0044V36.6738H62.994V39.0349H61.3197C61.5073 38.47 61.6661 37.8761 61.8104 37.2677L60.8722 37.0649C60.5402 38.5714 60.0206 39.933 59.2989 41.1787L60.1505 41.7291C60.4536 41.2077 60.7279 40.6282 60.9733 40.0199V40.0199ZM78.4347 42.0622V44.5537H74.6241V45.5387H78.4347V48.595H72.9642V49.5655H84.9878V48.595H79.4884V45.5387H83.2269V44.5537H79.4884V42.0622H83.7032V41.0773H74.2921V42.0622H78.4347V42.0622ZM82 45.9442L81.2061 46.4222C81.8701 47.2045 82.4041 47.9287 82.7938 48.566L83.6021 48.0156C83.2269 47.4072 82.6928 46.7264 82 45.9442ZM84.7569 38.1803H79.6039C79.4163 37.6443 79.2286 37.1664 79.0265 36.7463L77.9151 36.9201C78.1172 37.2967 78.3192 37.7168 78.5069 38.1803H73.0797V41.0773H74.1334V39.1797H83.7176V40.9904H84.7569V38.1803V38.1803Z" fill="#000"/>
</svg>
