<svg xmlns="http://www.w3.org/2000/svg" fill="none" viewBox="0 0 46 53" class="design-iconfont">
  <path fill-rule="evenodd" clip-rule="evenodd" d="M27.8161 27.6314C27.8161 27.5434 27.8925 27.4959 27.9513 27.4959H29.7723C29.8357 27.4959 29.9116 27.5698 29.9116 27.6425V37.0449C29.9116 37.0867 29.887 37.1127 29.844 37.1127H27.8837C27.844 37.1127 27.8161 37.0841 27.8161 37.0449V27.6314V27.6314ZM16.1892 27.6565C16.1892 27.6061 16.2242 27.5636 16.2968 27.5636C16.9144 27.5636 17.532 27.5636 18.1495 27.5636C18.1898 27.5636 18.2171 27.5986 18.2171 27.6314C18.2171 30.7467 18.2171 33.862 18.2171 36.9773C18.2171 37.025 18.1931 37.0449 18.1495 37.0449H16.392C16.2702 37.0449 16.1892 36.9381 16.1892 36.8529V27.6565ZM24.0982 26.4123C24.0612 26.4123 24.0306 26.4436 24.0306 26.48C24.0306 30.0017 24.0306 33.5233 24.0306 37.0449C24.0306 37.0907 24.0059 37.1127 23.9629 37.1127H22.0358C22.016 37.1127 22.0026 37.1003 22.0026 37.0828C22.0026 33.5486 22.0026 30.0142 22.0026 26.48C22.0026 26.4465 21.9875 26.4123 21.935 26.4123C19.7355 26.4123 17.536 26.4123 15.3365 26.4123C15.3206 26.4123 15.3104 26.3974 15.3104 26.3829V24.9611C15.3104 24.8921 15.3431 24.8546 15.415 24.8546C17.5925 24.8546 19.7331 24.8546 21.9106 24.8546C21.9756 24.8546 22.0026 24.8177 22.0026 24.7547C22.0026 24.0137 22.0026 23.2725 22.0026 22.5314C22.0026 22.4667 22.0605 22.4166 22.1378 22.4166H23.9999C24.023 22.4166 24.0306 22.4323 24.0306 22.4537C24.0306 23.2314 24.0306 24.0092 24.0306 24.787C24.0306 24.8262 24.0634 24.8546 24.0982 24.8546C26.3064 24.8546 28.5146 24.8546 30.7228 24.8546C30.7651 24.8546 30.7904 24.882 30.7904 24.9224C30.7904 25.3965 30.7904 25.8573 30.7904 26.3314C30.7904 26.3798 30.7474 26.4123 30.703 26.4123C30.5099 26.4123 24.8153 26.4123 24.0982 26.4123ZM16.1892 23.7711C16.0836 23.8193 15.9004 23.9431 15.7836 23.7711C15.7836 23.7711 15.0507 22.8188 14.9875 22.7237C14.8657 22.5301 15.1317 22.4377 15.2587 22.3733C16.0566 21.9545 22.441 18.4853 22.6786 18.3531H23.1518C23.5294 18.5586 30.1078 21.9816 30.9191 22.3968C30.9732 22.4303 31.0609 22.4902 31.0609 22.6035C31.0609 22.9373 31.064 23.1874 31.0672 23.7006C31.0672 23.7835 31.0185 23.8345 30.897 23.8345C30.5235 23.836 30.25 23.837 29.8765 23.8384C29.7626 23.8384 29.6792 23.8197 29.3399 23.6224C28.4559 23.1078 25.7287 21.6291 23.1518 20.1817H22.7462C20.5007 21.4171 18.276 22.6311 16.1892 23.7711V23.7711ZM23.5573 12.4612C23.5573 12.4155 23.5807 12.3935 23.625 12.3935C24.2747 12.3935 24.9085 12.3935 25.5582 12.3935C25.5774 12.3935 25.586 12.4112 25.5853 12.4256V15.1701C25.5853 15.2017 25.612 15.2379 25.653 15.2379C25.8783 15.2379 26.1036 15.2379 26.3289 15.2379C26.3678 15.2379 26.3965 15.2048 26.3965 15.1701C26.3965 14.2553 26.3965 13.3402 26.3965 12.4254C26.3965 12.4091 26.4069 12.3935 26.4288 12.3935H28.3569C28.3966 12.3935 28.4244 12.4248 28.4244 12.4612C28.4244 13.3636 28.4244 14.2661 28.4244 15.1686C28.4244 15.2101 28.4544 15.2379 28.4921 15.2379H29.0392C29.0781 15.2379 29.1004 15.2046 29.1004 15.1701C29.1004 14.2446 29.1004 13.319 29.1004 12.3935C29.1004 12.3597 29.1178 12.3257 29.168 12.3257C29.8441 12.3257 30.52 12.3257 31.196 12.3257C31.2317 12.3257 31.2635 12.363 31.2635 12.3935C31.2635 13.906 31.2635 15.4184 31.2635 16.931C31.2635 16.9681 31.2397 16.9987 31.196 16.9987H28.4244V18.8272H28.3569V18.895H26.4641V18.8272H26.3965V17.0083C26.3965 16.964 26.3699 16.931 26.3289 16.931H23.6123C23.5779 16.931 23.5573 16.8961 23.5573 16.8633C23.5573 15.3959 23.5573 13.9286 23.5573 12.4612V12.4612ZM14.8372 12.5289C14.8375 12.4522 14.8959 12.3935 14.9724 12.3935H16.7437C16.7815 12.3935 16.7976 12.4186 16.7976 12.449C16.7976 13.3921 16.7976 14.3353 16.7976 15.2785C16.7976 15.2944 16.8117 15.3056 16.8261 15.3056H17.631C17.6626 15.3056 17.6763 15.28 17.6763 15.2538V12.4612C17.6763 12.4313 17.701 12.3935 17.7439 12.3935C18.3555 12.3935 18.9671 12.3935 19.5787 12.3935C19.6244 12.3935 19.6367 12.421 19.6367 12.4546V15.1701C19.6367 15.2079 19.6619 15.2379 19.7043 15.2379C19.9296 15.2379 20.155 15.2379 20.3803 15.2379C20.4127 15.2379 20.4479 15.2 20.4479 15.1701V12.4612C20.4479 12.4214 20.4626 12.3935 20.5154 12.3935H22.4082C22.4472 12.3935 22.4758 12.4161 22.4758 12.4612V16.8633C22.4758 16.9254 22.4264 16.9987 22.3406 16.9987C21.4618 16.9987 20.5831 16.9987 19.7043 16.9987C19.6567 16.9987 19.6367 17.0253 19.6367 17.0664C19.6367 17.6534 19.6367 18.2403 19.6367 18.8272C19.6367 18.871 19.6049 18.895 19.5691 18.895H17.6763C17.634 18.895 17.6088 18.8562 17.6088 18.8071V16.9987H14.9724C14.9051 16.9987 14.8372 16.9347 14.8372 16.8633V12.5289V12.5289ZM12.7417 38.7381C12.7417 38.7752 12.7739 38.8058 12.8093 38.8058C19.6141 38.8058 26.4191 38.8058 33.2239 38.8058C33.262 38.8058 33.2915 38.7821 33.2915 38.7381V10.5649H12.7417C12.7417 19.956 12.7417 29.347 12.7417 38.7381V38.7381Z" fill="#190000"/>
  <path fill-rule="evenodd" clip-rule="evenodd" d="M35.9952 5.8925V7.11153C26.6666 7.11153 17.3381 7.11153 8.00951 7.11153C7.9692 7.11153 7.94191 7.14969 7.94191 7.1792C7.94191 11.1072 7.94191 15.0351 7.94191 18.9632C7.94191 19.0029 7.92591 19.0309 7.87436 19.0309C6.09425 19.0309 4.31419 19.0309 2.53409 19.0309C2.45468 19.0309 2.39887 18.9671 2.39887 18.8955V8.80458C2.39887 8.76874 2.40834 8.7369 2.46642 8.7369H4.7648C4.80638 8.73418 4.83241 8.70423 4.83241 8.66911V7.24694C4.83241 7.17404 4.78119 7.11153 4.70793 7.11153C3.32096 7.11153 1.99073 7.11153 0.603758 7.11153C0.494512 7.11153 0.438477 7.19929 0.438477 7.31467V20.5885C2.87484 20.5885 5.31125 20.5885 7.74756 20.5885C7.86771 20.5885 7.94191 20.6922 7.94191 20.7917V35.1492L4.56203 37.9259H2.53409C2.49776 37.9259 2.46642 37.8893 2.46642 37.8581V25.6001H4.83241V23.8393H0.573747C0.48903 23.8393 0.438477 23.8889 0.438477 23.9494C0.438477 29.1689 0.438477 34.346 0.438477 39.5654C0.438477 39.6263 0.516715 39.6867 0.573747 39.6867H5.37321L9.96985 35.8942V8.94004C9.96985 8.8631 10.0268 8.80458 10.089 8.80458C18.7044 8.80458 27.2684 8.80458 35.884 8.80458C35.9488 8.80458 35.9952 8.8671 35.9952 8.94004V35.8264L40.6595 39.6867H45.5266V24.0424C45.5266 23.9749 45.4841 23.907 45.4193 23.907H41.2002V25.6001H43.5662C43.6005 25.6001 43.6338 25.64 43.6338 25.6678V37.9259C43.6338 37.984 43.5713 38.0613 43.4986 38.0613H41.6058L38.0231 35.0815V14.1548C38.0231 14.119 38.0418 14.087 38.0907 14.087H43.8365V18.9632C42.9578 18.9632 42.079 18.9632 41.2002 18.9632C41.1632 18.9632 41.1327 18.9925 41.1327 19.0309C41.1327 19.5333 41.1327 20.0358 41.1327 20.5382C41.1381 20.5935 41.207 20.6563 41.2678 20.6563C42.7493 20.6563 44.2307 20.6563 45.7122 20.6563C45.7576 20.6563 45.797 20.6079 45.797 20.5579V12.5971C45.797 12.5042 45.6898 12.394 45.5987 12.394H38.1583C38.1242 12.394 38.0907 12.3604 38.0907 12.3262V8.87231C38.0907 8.83376 38.1165 8.80458 38.1583 8.80458H45.797C45.8788 8.80458 45.9321 8.75754 45.9321 8.68609V5.8925C45.9321 5.85411 45.8989 5.82471 45.8645 5.82471C45.2336 5.82471 44.6027 5.82471 43.9718 5.82471C43.94 5.82471 43.9042 5.84479 43.9042 5.8925C43.9042 6.25363 43.9042 6.61487 43.9042 6.976C43.9042 7.01439 43.8736 7.04374 43.8365 7.04374H38.0231V5.8925C38.0231 5.85538 37.9926 5.82471 37.9555 5.82471C37.3246 5.82471 36.6937 5.82471 36.0628 5.82471C36.0257 5.82471 35.9952 5.85738 35.9952 5.8925V5.8925Z" fill="#190000"/>
  <path fill-rule="evenodd" clip-rule="evenodd" d="M24.5034 0.135424V4.6052C24.5034 4.64425 24.5392 4.67299 24.571 4.67299H45.8644C45.9332 4.67299 45.9996 4.6128 45.9996 4.54701V0.0676904C45.9996 0.0299684 45.9704 0.000733805 45.932 1.26493e-05C45.2786 1.26493e-05 44.6251 1.26493e-05 43.9717 1.26493e-05C43.9307 1.26493e-05 43.9041 0.0385113 43.9041 0.0676904V2.84442C43.9041 2.8828 43.8761 2.91076 43.8364 2.91209H38.0906V1.26493e-05H35.9968C35.9968 0.932134 35.9951 1.89954 35.9951 2.84442C35.9951 2.88547 35.9605 2.91209 35.9275 2.91209H26.7341C26.6627 2.91209 26.5989 2.85906 26.5989 2.79682V0.0676904C26.5989 0.0319655 26.559 0.000511911 26.5314 1.26493e-05C25.8973 1.26493e-05 25.2631 1.26493e-05 24.629 1.26493e-05C24.5568 -0.00115229 24.5034 0.0783967 24.5034 0.135424V0.135424Z" fill="#190000"/>
  <path d="M6.68378 49.4565V48.7202H4.93772V49.4565H6.68378ZM9.85247 45.1314C9.66825 44.7937 9.45463 44.5169 9.20973 44.3029C9.48603 44.1498 9.69959 43.9966 9.85247 43.8435C10.0367 44.0889 10.2659 44.3795 10.5422 44.7172C10.2973 44.8094 10.068 44.9469 9.85247 45.1314ZM5.76468 48.0763V47.1555H4.93772V48.0763H5.76468ZM5.76468 50.976V50.1004H4.93772V50.976H5.76468ZM6.91301 44.3952V43.7964H4.84758V44.5798H4.02062C4.05002 44.3029 4.06569 44.0418 4.06569 43.7964H2.27462C1.84544 43.7964 1.40259 43.8278 0.942072 43.8887V43.0602C1.40259 43.0916 1.84544 43.123 2.27462 43.1524H4.06569C4.06569 42.9385 4.05002 42.6007 4.02062 42.1414H4.89265C4.86131 42.6007 4.84758 42.9385 4.84758 43.1524H6.91301C6.91301 42.907 6.89734 42.5536 6.86794 42.0943H7.78704C7.7243 42.5536 7.6949 42.907 7.6949 43.1524H9.71526C10.0524 43.1524 10.4952 43.123 11.0478 43.0602V43.8887C10.5873 43.8278 10.1444 43.7964 9.71526 43.7964H7.6949C7.6949 44.0124 7.70863 44.2106 7.73997 44.3952H6.91301V44.3952ZM7.64789 44.4874C7.98493 44.5169 8.29063 44.5326 8.56693 44.5326C8.53559 44.8409 8.52186 45.0705 8.52186 45.2237H9.34688C9.8368 45.2237 10.3737 45.208 10.9557 45.1765V45.9128C10.4031 45.8833 9.86814 45.8676 9.34688 45.8676H8.56693C8.62767 46.7256 8.71195 47.4481 8.81975 48.0311C8.9275 48.6123 9.02551 49.1031 9.11759 49.5036C9.30181 49.1345 9.45463 48.6967 9.57811 48.1921C9.69959 47.6856 9.79173 47.1555 9.85247 46.6039C10.068 46.7256 10.3894 46.865 10.8166 47.0181C10.6951 47.3244 10.5344 47.8152 10.3345 48.4905C10.1366 49.1659 9.86814 49.8255 9.5311 50.4695C9.8074 50.9898 10.0367 51.3589 10.2208 51.5729C10.4031 51.7888 10.5109 51.7967 10.5422 51.5964C10.5716 51.3962 10.603 51.1135 10.6344 50.7444C10.8479 50.9603 11.1086 51.1135 11.4143 51.2057C11.2301 52.3091 10.9851 52.8608 10.6794 52.8627C10.4031 52.8608 10.1131 52.6939 9.8074 52.3562C9.5017 52.0185 9.2254 51.62 8.98044 51.1586C8.67474 51.5277 8.35924 51.8418 8.03786 52.103C7.71649 52.3641 7.37353 52.6311 7.00515 52.9079C6.82093 52.6016 6.62304 52.3562 6.40742 52.1717C6.65238 52.048 6.91301 51.8948 7.18937 51.7123C6.88367 51.6809 5.87249 51.6652 4.15783 51.6652C4.18917 51.1743 4.2029 50.6226 4.2029 50.0082V48.0311C4.2029 47.4775 4.18917 46.9415 4.15783 46.4193C5.74901 46.4507 6.82093 46.4507 7.37353 46.4193V47.1555H6.49956V48.0763H7.4186V50.1004H6.49956V50.976H7.4186V51.62C7.81644 51.2823 8.21422 50.8524 8.612 50.3301C8.3377 49.533 8.14562 48.7674 8.03786 48.0311C7.93205 47.2949 7.84778 46.5724 7.78704 45.8676H3.60717C3.60717 47.77 3.5915 49.0049 3.5601 49.5723C3.53076 50.1397 3.44648 50.7071 3.30734 51.2745C3.17018 51.8418 2.9487 52.417 2.643 53.0002C2.3667 52.847 2.07473 52.7233 1.76903 52.6311C2.13747 52.1108 2.39023 51.5572 2.52739 50.976C2.66459 50.3929 2.74881 49.7942 2.78021 49.1797H2.0904C2.0904 49.6704 2.02966 50.1554 1.90818 50.6305C1.7847 51.1056 1.53974 51.6337 1.1733 52.2168C0.989081 52.0637 0.744177 51.9105 0.438477 51.7574C0.683381 51.4806 0.889138 51.137 1.05769 50.7228C1.22623 50.3085 1.32618 49.7942 1.35552 49.1797C1.14196 49.1797 0.88133 49.1954 0.575629 49.2268V48.3983C1.03415 48.4297 1.52407 48.4434 2.04533 48.4434H2.78021V47.3852H1.12629C1.15763 46.9867 1.1733 46.5724 1.1733 46.1444C1.1733 45.6831 1.15763 45.2688 1.12629 44.9017H1.90818C1.87684 45.2688 1.86111 45.6379 1.86111 46.005V46.649H2.78021C2.78021 46.0365 2.76454 45.5614 2.73314 45.2237H7.6949C7.6949 45.0077 7.67923 44.7623 7.64789 44.4874ZM16.282 42.2317C16.2526 42.6007 16.2369 42.9836 16.2369 43.3821H19.0842C19.0842 42.9542 19.0686 42.5693 19.0392 42.2317H20.0033C19.9425 42.5693 19.9112 42.9542 19.9112 43.3821H21.6572C21.8708 43.3821 22.2235 43.3684 22.7134 43.337V44.2106C22.2235 44.1812 21.8395 44.1655 21.5651 44.1655H19.9112C19.9112 44.4717 19.9425 44.8094 20.0033 45.1765H19.0842V44.1655H16.2369V45.2237H15.3178C15.3492 44.8251 15.3649 44.4717 15.3649 44.1655H13.9873C13.7717 44.1655 13.3896 44.1812 12.8389 44.2106V43.337C13.4503 43.3684 13.8324 43.3821 13.9873 43.3821H15.3649C15.3649 43.015 15.3492 42.6322 15.3178 42.2317H16.282ZM18.1201 45.2688C18.9764 45.9756 19.8426 46.5273 20.7146 46.9258C21.5867 47.3244 22.4215 47.6012 23.219 47.7543C22.882 47.9997 22.6664 48.3374 22.5743 48.7674C21.7493 48.4591 20.9224 48.092 20.0954 47.662C19.2685 47.2321 18.4572 46.6196 17.6615 45.8225C17.1716 46.3428 16.4897 46.8807 15.6177 47.4324C14.7437 47.984 13.8187 48.4591 12.8389 48.8576C12.7155 48.5514 12.5176 48.2609 12.2413 47.984C12.7625 47.8917 13.3661 47.6856 14.0559 47.3636C14.7437 47.0417 15.4021 46.6274 16.0312 46.1209C16.6582 45.6144 17.156 45.0391 17.5224 44.3952C17.8301 44.6091 18.1358 44.7937 18.4415 44.9469L18.1201 45.2688V45.2688ZM14.4909 48.3983C14.8593 48.4297 15.1963 48.4434 15.502 48.4434H17.2931C17.2931 47.8623 17.2774 47.3715 17.2481 46.971H18.2122C18.1809 47.6463 18.1651 48.1372 18.1651 48.4434H19.8191C20.2796 48.4434 20.6774 48.4297 21.0145 48.3983V49.2719C20.7068 49.2425 20.309 49.2268 19.8191 49.2268H18.1651V51.5277C18.1651 52.0794 18.0359 52.417 17.7752 52.5388C17.5146 52.6625 17.0325 52.7705 16.329 52.8627C16.2683 52.5251 16.1291 52.1559 15.9155 51.7574C16.282 51.7888 16.6053 51.7967 16.8797 51.781C17.156 51.7653 17.2931 51.5729 17.2931 51.2057V49.2268H15.457C15.0886 49.2268 14.7672 49.2425 14.4909 49.2719V48.3983V48.3983ZM16.2369 50.5618C15.8998 50.7444 15.4413 51.0369 14.8593 51.4354C14.2773 51.834 13.7717 52.1874 13.3425 52.4937C13.1897 52.2168 12.9918 51.9577 12.7468 51.7123C13.176 51.4668 13.6267 51.1822 14.1009 50.8602C14.5751 50.5382 15.0729 50.1613 15.5942 49.7333L16.2369 50.5618V50.5618ZM19.8661 49.8255C20.7538 50.4381 21.6259 51.082 22.4842 51.7574C22.1471 51.9714 21.9022 52.2325 21.7493 52.5388C20.9517 51.7731 20.1248 51.1292 19.2685 50.6069C19.482 50.3929 19.6819 50.1318 19.8661 49.8255ZM30.9791 48.2137C31.8061 48.2137 32.5409 48.1843 33.1837 48.1215V49.0894C32.5723 49.0265 31.8374 48.9971 30.9791 48.9971H29.9699V51.7574H32.7722C33.6599 51.7574 34.3791 51.726 34.9297 51.6652V52.6311C34.4084 52.5702 33.7206 52.5388 32.8623 52.5388H26.8012C25.6058 52.5388 24.7495 52.5702 24.2282 52.6311V51.6652C24.8102 51.726 25.6979 51.7574 26.8933 51.7574H28.9587V48.9971H27.8104C26.9835 48.9971 26.2642 49.0265 25.6529 49.0894V48.1215C26.2349 48.1843 26.9991 48.2137 27.9496 48.2137H30.9791V48.2137ZM33.2307 45.7754V44.5326H25.6979V45.9128H24.6887C24.7181 45.6065 24.7338 45.2531 24.7338 44.8546C24.7338 44.4266 24.7181 44.0418 24.6887 43.7041H29.2801C29.0979 43.2761 28.8823 42.8461 28.6374 42.4162C28.9431 42.2631 29.2801 42.1257 29.6486 42.002C29.8935 42.5536 30.1071 43.0307 30.2913 43.4292C29.9856 43.5215 29.6936 43.6138 29.4193 43.7041H34.2869C34.2556 43.9809 34.2419 44.35 34.2419 44.8094C34.2419 45.2394 34.2556 45.5614 34.2869 45.7754H33.2307V45.7754ZM30.889 45.2688C31.2554 45.4219 31.7375 45.6379 32.3352 45.9128C32.9329 46.1896 33.6442 46.5724 34.4712 47.0632C34.1635 47.4009 33.9499 47.6935 33.8284 47.9389C33.2464 47.5698 32.6801 47.2321 32.1274 46.9258C31.5768 46.6196 30.9791 46.3133 30.3364 46.005C30.4892 45.8225 30.6734 45.5771 30.889 45.2688ZM28.5453 45.8225C28.2082 45.9756 27.7418 46.274 27.1441 46.7197C26.5484 47.1634 25.8665 47.6169 25.1002 48.0763C24.918 47.7995 24.6887 47.5246 24.4124 47.2478C24.9944 47.0024 25.5608 46.6882 26.1114 46.3054C26.6621 45.9207 27.1383 45.4985 27.5361 45.0391C27.8418 45.3159 28.1789 45.5771 28.5453 45.8225V45.8225ZM43.5187 45.2237C43.4874 45.8068 43.4717 46.3133 43.4717 46.7413V49.1797C43.4717 49.5801 43.4874 50.0553 43.5187 50.6069H38.8803C38.9097 50.0553 38.9254 49.5644 38.9254 49.1345V46.7413C38.9254 46.3133 38.9097 45.8068 38.8803 45.2237H43.5187ZM45.9996 42.7853C45.9683 43.3684 45.9526 43.9495 45.9526 44.5326V51.298C45.9839 52.0028 45.7919 52.4328 45.3784 52.5859C44.9649 52.739 44.5142 52.847 44.0243 52.9079C43.993 52.5388 43.8715 52.1717 43.6559 51.8026C44.2379 51.834 44.6122 51.8026 44.7807 51.7123C44.9493 51.62 45.0335 51.4197 45.0335 51.1135V43.5667H42.2783C41.5434 43.5667 40.8556 43.5824 40.2109 43.6138V42.7382C40.8556 42.7696 41.5434 42.7853 42.2783 42.7853H45.9996V42.7853ZM36.3544 52.7233C36.4151 52.1108 36.4465 51.4668 36.4465 50.7915V45.9599C36.4465 45.3159 36.4151 44.778 36.3544 44.35H37.4106C37.3792 44.8094 37.3636 45.2531 37.3636 45.6831V50.8367C37.3636 51.4511 37.3792 52.0794 37.4106 52.7233H36.3544ZM42.5997 49.8707V48.1686H39.7974V49.8707H42.5997ZM42.5997 47.4324V45.9599H39.7974V47.4324H42.5997ZM38.1454 42.002C38.4198 42.3711 38.8489 42.9542 39.431 43.7513C39.0939 43.9044 38.7725 44.0732 38.4668 44.2577C38.1611 43.6432 37.7771 43.0602 37.3185 42.5085C37.6555 42.2631 37.9299 42.0943 38.1454 42.002V42.002Z" fill="#190000"/>
  <path fill-rule="evenodd" clip-rule="evenodd" d="M21.9347 0.135479V4.60526C21.9347 4.64426 21.8989 4.67299 21.8672 4.67299H0.573747C0.504921 4.67299 0.438477 4.61286 0.438477 4.54701V0.0676904C0.438477 0.0299684 0.467712 0.000733796 0.506139 1.26406e-05C1.15951 1.26406e-05 1.81305 1.26406e-05 2.46642 1.26406e-05C2.50745 1.26406e-05 2.53409 0.0385113 2.53409 0.0676904V2.84442C2.53409 2.88286 2.56199 2.91076 2.60169 2.91209H8.3475V1.26406e-05H10.4413C10.4413 0.932134 10.443 1.89954 10.443 2.84442C10.443 2.88547 10.4776 2.91209 10.5107 2.91209H19.704C19.7754 2.91209 19.8392 2.85906 19.8392 2.79688V0.0676904C19.8392 0.0319654 19.8791 0.000511902 19.9068 1.26406e-05C20.5409 1.26406e-05 21.175 1.26406e-05 21.8091 1.26406e-05C21.8813 -0.0011523 21.9347 0.0784523 21.9347 0.135479V0.135479Z" fill="#190000"/>
</svg>
