<svg xmlns="http://www.w3.org/2000/svg" fill="none" viewBox="0 0 102 29" class="design-iconfont">
  <mask id="wexnudnov__clbkkhiqxa" style="mask-type:alpha" maskUnits="userSpaceOnUse" x="-1" y="0" width="29" height="29">
    <path fill-rule="evenodd" clip-rule="evenodd" d="M-0.000244141 13.611C-0.000244141 16.7216 0.188686 18.2118 1.80871 20.9154C2.03209 21.2882 2.27377 21.7262 2.54879 22.074L3.38126 23.1402C4.09708 23.9704 4.60127 24.5805 4.96011 24.9393L5.49837 25.4776C5.85722 23.3245 6.75432 21.5303 6.92978 21.2055C6.92978 21.2055 6.21606 20.0949 6.03664 19.7361C5.85722 19.3773 5.24466 18.1095 5.2593 17.7471C5.28323 17.1561 5.68883 17.6438 5.83373 17.8363C6.06501 18.1437 6.24924 18.2584 6.46924 18.5333L7.68923 19.8765C7.68923 19.8765 9.0099 17.9419 9.62505 17.2242C10.2402 16.5065 12.1369 14.7123 12.1369 14.7123L8.34993 12.0958C6.89372 11.2581 5.73548 10.6068 4.13085 9.85961L1.04402 8.57959C0.558868 9.49643 -0.000244141 12.1624 -0.000244141 13.611Z" fill="#000"/>
    <path d="M25.5714 6.13537C25.7893 6.52184 25.9522 6.87704 25.9522 6.87704C25.9522 6.87704 22.7226 8.31241 19.6724 9.74778C16.6223 11.1831 13.9731 13.3251 13.9731 13.3251L1.99316 6.92999C2.03221 6.46059 2.79665 5.59126 3.13478 5.22366L4.7542 3.61544C6.36382 2.24143 7.76915 1.51783 9.82672 0.808613C11.5353 0.219682 11.7768 0.322131 13.2955 0.100367C13.7462 0.0345555 14.0808 0.00577735 14.3544 0H14.5629C15.2045 0.0145331 15.5272 0.161336 16.5198 0.187782C17.1094 0.203499 18.7143 0.710865 19.2611 0.958861C20.7007 1.61177 20.5455 1.25831 21.644 1.99351C22.8909 2.82796 22.6327 2.65589 23.5657 3.58432L25.5714 6.13537Z" fill="#000"/>
    <path d="M8.50332 27.0466C7.98426 26.8339 7.64325 26.6838 7.30981 26.3323C7.66302 25.2103 8.80004 22.3921 10.5225 20.0955C12.6755 17.2248 14.6981 15.5979 17.5199 13.8158C20.9289 11.6627 24.6967 10.2274 27.0292 8.79199C27.0292 8.79199 27.0292 8.97141 27.1713 9.60349L27.815 13.0418C27.815 15.9278 27.9136 17.9443 26.4205 20.6658C26.0003 21.4317 25.093 22.8197 24.5181 23.4151C23.7655 24.1944 23.3452 24.6396 22.4807 25.2699C22.3971 25.3308 22.364 25.3588 22.2662 25.4351L21.5942 25.9022C20.3088 26.6581 19.4522 27.1572 17.8762 27.5954L16.6793 27.9174C14.9906 28.2514 13.0562 28.2389 11.3919 27.8512C11.3919 27.8512 12.3766 27.3492 14.4997 24.9783C16.6228 22.6074 18.417 20.0955 17.5199 20.6337C17.5199 20.6337 15.9051 21.8897 13.5726 23.8633C11.2402 25.8369 9.81844 26.6574 9.81844 26.6574C9.81844 26.6574 9.0029 27.2514 8.50332 27.0466Z" fill="#000"/>
  </mask>
  <g mask="url(#wexnudnov__clbkkhiqxa)">
    <path d="M27.6309 13.9944C27.6309 21.5253 21.5258 27.6304 13.9949 27.6304C6.46393 27.6304 0.358887 21.5253 0.358887 13.9944C0.358887 6.46344 6.46393 0.358398 13.9949 0.358398C21.5258 0.358398 27.6309 6.46344 27.6309 13.9944Z" fill="#74C4C0"/>
  </g>
  <path fill-rule="evenodd" clip-rule="evenodd" d="M70.232 8.1068C70.232 9.47606 70.9513 10.4393 72.3525 10.4393H77.9717V8.95499H72.3525C71.3625 8.71564 71.5628 7.51334 73.1442 7.5759C73.1442 7.5759 77.0825 7.58303 78.1845 7.5759C80.2362 7.56263 79.8801 7.78883 79.8801 10.9694C79.8801 11.6342 79.1774 11.6342 79.1774 11.6342H70.3605C69.9598 11.6342 68.5571 11.521 68.5356 12.7718L68.557 16.3302C68.557 16.3302 68.557 16.3302 68.557 16.731C68.557 17.1318 68.8627 17.4234 68.9577 17.5325C70.16 18.7348 74.2026 15.4224 76.3814 15.4224C79.4776 15.4224 82.4247 17.7549 82.4247 17.7549C82.8084 17.1819 83.185 16.731 83.185 16.731C82.9796 16.4303 82.0323 15.874 81.1085 15.3603C80.2963 14.9087 79.7924 14.7285 78.8747 14.4134C77.9304 14.0891 75.931 14.1039 75.0267 14.3858C73.2795 14.9304 73.5428 14.792 71.9291 15.6351C69.3736 16.9702 69.8079 16.1779 69.8079 13.62C69.8079 12.9237 70.7613 12.9237 70.7613 12.9237H79.1774C80.1794 12.9237 80.2578 12.8303 80.3133 12.7808C81.5877 12.2692 81.2584 9.52331 81.2584 8.2128C81.2584 7.3267 81.1238 6.84077 80.3797 6.51142C79.979 6.31104 79.5782 6.31104 79.5782 6.31104H71.5628C71.1471 6.31104 70.232 7.17561 70.232 8.1068Z" fill="#74C4C0"/>
  <path fill-rule="evenodd" clip-rule="evenodd" d="M33.0886 4.90867L34.0777 5.77465C34.0777 5.77465 34.4913 5.24451 34.7138 5.24451H43.3017C43.3017 5.24451 41.9873 6.60697 41.4245 7.07819L37.1424 10.8538C36.0359 11.7871 33.3355 13.8706 33.3355 15.3167C33.3355 18.1176 35.8553 17.7553 38.2986 17.7553C38.2986 17.7553 40.3994 17.756 41.6053 17.7553H45.7402C47.2418 17.7553 48.239 16.0322 47.4859 14.1012C47.3852 13.8431 46.9151 12.7236 46.9151 12.7236L45.7128 13.3248C45.7128 13.3248 46.2836 14.3896 46.3013 14.4376C46.6964 15.5098 46.555 16.483 45.2101 16.483H36.7282C35.5983 16.483 33.9891 15.6381 35.3204 14.333L41.229 9.10916L46.0865 4.52882L46.7147 3.90674H46.314H34.4913C33.7719 3.90674 33.0886 4.90867 33.0886 4.90867Z" fill="#74C4C0"/>
  <path d="M49.2393 9.59072V8.2124H65.0367V9.59072H60.0536V12.5594C60.0536 17.0053 59.8701 16.4822 62.7042 16.4822C64.6451 16.4822 63.4497 13.9828 63.3404 13.5136L64.2946 12.9835C64.9132 14.1526 65.6926 16.0131 64.5662 17.178L64.4563 17.2801C63.5741 18.0371 61.8416 17.7545 60.1597 17.7545C59.3708 17.7545 58.9168 17.1517 58.804 16.4596L58.7813 11.3931C58.7815 10.1545 58.7813 9.59072 58.7813 9.59072H55.3886C55.3886 10.7668 55.3832 11.4138 55.1888 12.3596C54.7601 14.446 53.4148 16.6733 51.5718 17.6485L50.7226 16.5303C50.7226 16.5303 51.5938 15.948 52.0238 15.5559C53.0732 14.5987 53.9043 12.2737 53.9043 10.757V9.59072H49.2393Z" fill="#74C4C0"/>
  <path fill-rule="evenodd" clip-rule="evenodd" d="M85.1812 12.6672L85.1887 17.7341H89.5971C89.5971 17.7341 90.1983 17.7341 90.5991 17.5337C90.9998 17.3333 91.8014 16.9325 91.8014 16.9325C91.8014 16.9325 91.278 15.8465 91.2002 15.7302C91.2002 15.7302 90.2683 16.272 89.8462 16.272C86.2061 16.272 86.5594 16.6477 86.5594 13.7275C86.5594 13.0951 86.7757 12.6672 87.4076 12.6672H91.7546C92.6322 12.6672 92.9115 12.942 92.9262 13.8281C92.9369 14.4717 92.806 16.6724 93.1535 17.2056C93.3098 17.4455 93.6111 17.5854 93.8958 17.6295C95.132 17.821 98.545 17.7563 99.9184 17.7563C100.624 17.7563 101.615 17.0575 101.615 15.7419V14.9534L101.62 12.3237C101.62 11.3218 101.451 11.31 100.418 11.2887C99.7855 11.2498 98.1515 11.2889 97.0558 11.2889C96.3624 11.2887 95.1874 11.8778 95.0075 12.1233L95.7835 13.1974C95.7835 13.1974 96.4874 12.8122 97.0558 12.7245C97.8047 12.6088 98.9642 12.6672 98.9642 12.6672C100.147 12.6672 100.327 13.0073 100.258 13.7365L100.232 15.5298C100.232 15.5298 100.258 16.1633 100.017 16.3314C99.776 16.4995 99.2156 16.5512 99.2156 16.5512C98.0692 16.5673 95.208 16.5318 95.208 16.5318C94.4064 16.5318 94.4064 15.9306 94.4064 15.9306V13.3256C94.4064 12.5241 94.1105 12.1702 93.6964 11.7857C93.4045 11.5222 92.603 11.3218 92.0018 11.3218C91.0568 11.3047 86.8363 11.2206 86.0969 11.4625C85.6678 11.6028 85.1812 12.1621 85.1812 12.6672Z" fill="#74C4C0"/>
  <path d="M90.2706 5.35027L89.5976 4.30721C89.5976 4.30721 89.7823 4.16201 90.3991 3.90632C90.6788 3.80095 90.8899 3.68848 91.6014 3.6539L94.9331 3.65638C99.8048 3.63658 99.3886 3.23505 99.3886 8.21287C99.3886 8.21287 99.4164 9.11643 99.0157 9.5172C98.6149 9.91796 97.613 9.96207 97.613 9.96207H88.6274C88.6274 9.96207 88.1251 9.96207 87.7941 9.5172C87.4632 9.07233 87.408 8.21287 87.408 8.21287V3.6539H88.7863V7.78878C88.7863 8.5235 89.0057 8.74301 89.7405 8.74301H97.1621C97.6459 8.74301 98.1163 8.53377 98.1163 8.10687V5.50934C98.1163 5.13634 97.9015 4.92617 97.3741 4.92617H91.3308C90.8236 4.92617 90.5995 5.10875 90.2706 5.35027Z" fill="#74C4C0"/>
  <path fill-rule="evenodd" clip-rule="evenodd" d="M70.1604 3.50557C70.1604 4.76578 70.1604 4.92199 70.1604 4.92199H80.5205C82.4847 4.91441 82.1834 5.77205 82.1834 9.37897H83.4852C83.4852 9.37897 83.6716 5.46219 83.2168 4.55817C82.7846 3.50537 80.7807 3.50537 80.7807 3.50537L70.3608 3.50547L70.1604 3.50557Z" fill="#74C4C0"/>
  <path fill-rule="evenodd" clip-rule="evenodd" d="M50.6177 4.60849V5.66871H62.8103C63.7262 5.66871 63.8959 4.7944 64.1886 4.18439L62.9164 3.6543C62.7459 4.3077 62.3451 4.29043 62.3451 4.29043H50.6177V4.60849Z" fill="#74C4C0"/>
  <path fill-rule="evenodd" clip-rule="evenodd" d="M68.2175 9.80302H69.4898V3.86572H68.2175V7.04642L68.2175 9.80302Z" fill="#74C4C0"/>
  <path fill-rule="evenodd" clip-rule="evenodd" d="M73.1995 22.2074C73.1995 23.7782 75.6512 22.4892 75.9561 23.7977C74.9748 24.4548 73.3066 23.4543 73.1995 24.4339C73.2437 24.4587 73.4659 24.5048 73.774 24.5399H75.2726C75.8781 24.4504 76.3802 24.2145 76.3802 23.6917C76.3802 22.0673 73.9344 23.2655 73.6236 22.1014C74.0477 21.5224 75.1708 21.6773 76.1681 21.6773V21.3592C74.9516 21.3592 73.1995 21.0147 73.1995 22.2074V22.2074Z" fill="#74C4C0"/>
  <path fill-rule="evenodd" clip-rule="evenodd" d="M51.6775 24.4346C52.4495 24.3703 52.0077 23.7324 52.0542 22.5566C52.0587 22.4429 52.1016 22.2012 52.1016 21.996C52.5914 22.0069 52.5715 22.0349 52.7896 22.3682C53.1684 22.9471 53.4815 23.8815 54.2423 24.3156C55.1964 24.86 55.0598 23.9744 55.0735 22.4217C55.0777 21.9524 55.1199 21.6844 54.9642 21.3599C54.6863 21.472 54.7903 21.2571 54.677 21.8149C54.6244 22.074 54.6395 22.3635 54.6419 22.6328C54.6487 23.4089 54.8456 23.6029 54.4341 23.9044C53.9267 23.769 53.7719 22.9933 52.893 21.8407C52.6046 21.4625 52.5416 21.3599 51.9955 21.3599C51.5049 21.3599 51.6756 22.2062 51.6773 22.738C51.6792 23.3034 51.6775 23.8691 51.6775 24.4346V24.4346Z" fill="#74C4C0"/>
  <path fill-rule="evenodd" clip-rule="evenodd" d="M65.2492 22.9503C65.2492 21.2452 68.1118 21.1363 68.1118 23.0563C68.1118 24.2197 67.0531 24.0105 65.8854 24.0105C65.4514 24.0105 65.2492 23.3845 65.2492 22.9503ZM64.9311 22.3142C64.9311 22.9058 64.7383 24.477 65.9523 24.477C66.2127 24.477 66.3999 24.4804 66.5357 24.477C66.7083 24.4728 68.4474 24.6699 68.4987 22.9384C68.5662 20.6587 64.9311 21.0931 64.9311 22.3142Z" fill="#74C4C0"/>
  <path fill-rule="evenodd" clip-rule="evenodd" d="M63.8698 22.6324C63.8698 24.1688 63.7312 24.0107 61.9613 24.0107C60.8458 24.0107 60.8304 22.348 61.4916 21.9507C62.0343 21.6246 63.8698 21.4627 63.8698 22.6324V22.6324ZM60.7951 22.3144C60.7951 23.3986 60.6222 23.9931 61.4112 24.3502C61.713 24.4867 63.1779 24.504 63.2037 24.5012C63.216 24.4998 63.4651 24.4373 63.5204 24.4108L63.7161 24.2825C63.7331 24.2682 63.7546 24.2456 63.7704 24.2301C64.7165 23.3072 64.3686 21.3601 63.0216 21.3601C62.2666 21.3601 60.7951 21.2379 60.7951 22.3144V22.3144Z" fill="#74C4C0"/>
  <path fill-rule="evenodd" clip-rule="evenodd" d="M69.1707 21.466C69.1707 24.3707 68.8844 24.5204 69.9113 24.4474C71.3038 24.3483 72.4575 24.8836 72.4575 23.0564V22.6323H72.1283C72.0838 22.7377 72.0718 23.5189 72.0718 23.5189C71.8227 24.1875 71.8733 24.0106 69.9129 24.0106C69.2222 24.0106 69.5948 22.2618 69.5948 21.8901C70.1278 21.7659 71.6113 21.5984 71.9839 22.0456C72.1418 22.235 72.1215 22.3284 72.1283 22.6323H72.4575C72.4575 21.1102 71.4126 21.36 69.7009 21.36C69.5338 21.36 69.299 21.4162 69.1707 21.466Z" fill="#74C4C0"/>
  <path fill-rule="evenodd" clip-rule="evenodd" d="M56.9781 23.3743C56.9781 23.9998 56.8991 24.3002 57.4022 24.4346C57.4022 23.1705 57.2992 23.3868 59.2117 23.3814C59.815 23.3797 59.6954 23.4016 60.0528 23.1623C59.4294 22.3115 57.5082 23.4419 57.5082 22.4201C57.5082 21.6426 59.4149 21.784 60.0528 21.784V21.3599C58.78 21.3599 57.4219 21.3832 57.2216 21.7839C56.9338 22.342 56.9781 22.9746 56.9781 23.3743Z" fill="#74C4C0"/>
  <path fill-rule="evenodd" clip-rule="evenodd" d="M82.1068 24.5406C83.3218 24.5406 83.7865 23.9205 83.7865 22.3423C83.7865 22.0583 83.7865 21.3403 83.7865 21.3403C83.7865 21.3403 83.2731 21.3403 83.2731 21.3599V23.0384C83.0889 23.5681 82.688 24.0105 81.5767 24.0105C80.5335 24.0105 80.8945 22.8718 80.8479 21.8767C80.8262 21.4146 80.8529 21.3967 80.4105 21.3599C80.4105 23.6625 80.2641 24.5406 82.1068 24.5406Z" fill="#74C4C0"/>
  <path fill-rule="evenodd" clip-rule="evenodd" d="M49.5572 23.2683C48.8611 23.2683 47.7168 23.3439 49.1195 21.7409C49.921 22.1416 50.2109 23.2683 49.5572 23.2683ZM47.5427 24.4346C48.0871 24.375 47.6838 24.5362 48.0149 24.0585C48.3724 23.5427 48.4574 23.6924 49.7692 23.6924C50.771 23.6924 50.1003 24.365 50.9355 24.4346C50.9283 24.3488 50.0184 21.3599 49.3451 21.3599C48.673 21.3599 48.4177 21.8811 48.137 22.6963L47.5427 24.4346Z" fill="#74C4C0"/>
  <path fill-rule="evenodd" clip-rule="evenodd" d="M88.0439 23.1624C88.0439 24.4406 87.9431 24.391 88.468 24.4346C88.468 24.1428 88.2737 23.2684 89.3162 23.2684C89.9891 23.2684 90.5143 23.5074 91.0125 23.2684C90.8328 22.5952 90.1911 22.8692 89.2952 22.9402C88.7231 22.9856 88.5954 22.9432 88.5124 22.7857C88.4294 22.6282 88.5124 22.3485 88.5124 22.3485C88.644 21.6068 90.6686 21.784 91.1186 21.784C91.0694 21.1938 91.0394 21.3599 89.1041 21.3599C88.2277 21.3599 88.0439 22.2709 88.0439 23.1624Z" fill="#74C4C0"/>
  <path fill-rule="evenodd" clip-rule="evenodd" d="M84.4392 24.4346H84.7573C84.7573 23.8722 84.7621 23.8085 84.8633 23.3744C85.5579 23.2125 86.4489 23.2684 87.3018 23.2684C86.9976 22.129 84.7573 23.6794 84.7573 22.4202C84.7573 21.9494 85.304 21.8827 85.8118 21.8843C86.4972 21.8865 86.9018 21.7953 87.4078 21.784C87.3596 21.2038 87.3514 21.3599 85.4994 21.3599C85.2367 21.3599 84.9779 21.4823 84.7922 21.6069C84.5068 21.7982 84.4529 21.8736 84.4309 22.3058C84.3976 22.9603 84.4392 23.7621 84.4392 24.4346V24.4346Z" fill="#74C4C0"/>
  <path fill-rule="evenodd" clip-rule="evenodd" d="M76.8047 21.4661C76.9111 21.8646 76.8228 21.7401 77.2775 21.8414C77.5801 21.9089 77.7551 21.8902 78.077 21.8902C78.2455 22.6135 78.183 23.6493 78.183 24.5407C79.0645 24.0743 78.3027 23.1968 78.6071 21.8902L79.7733 21.7841V21.36C79.3863 21.36 76.9699 21.2645 76.8047 21.4661V21.4661Z" fill="#74C4C0"/>
  <path fill-rule="evenodd" clip-rule="evenodd" d="M46.3768 22.1023C46.3768 23.5881 46.8012 24.0107 45.1045 24.0107C44.5034 24.0107 44.0915 23.8367 44.0443 23.2685V21.3403H43.7095L43.7262 23.2685C43.7583 24.7073 44.8679 24.4209 45.3041 24.4549C47.0139 24.5884 46.8009 23.4931 46.8009 21.6782C46.7848 21.4253 46.6529 21.4557 46.5148 21.5407C46.3768 21.6257 46.3768 21.7317 46.3768 22.1023Z" fill="#74C4C0"/>
  <path fill-rule="evenodd" clip-rule="evenodd" d="M41.1806 24.4342H41.4987C41.4987 22.3963 42.1052 23.1431 42.8769 21.3595C42.7364 21.3712 42.6065 21.2814 42.506 21.3396C42.4003 21.4009 42.3259 21.6124 42.248 21.7084C41.9693 22.0517 41.725 22.4602 41.3038 22.7423C40.4752 22.521 40.1014 21.1393 39.8023 21.3595C39.5542 21.5078 40.4249 22.2415 41.1033 23.3434C41.2264 23.6442 41.1806 24.0253 41.1806 24.4342Z" fill="#74C4C0"/>
  <path fill-rule="evenodd" clip-rule="evenodd" d="M34.8196 23.4808V24.435H35.2437C35.2437 23.3116 35.27 23.2855 36.2436 22.0421C36.5167 21.6933 36.5826 21.8346 36.6221 21.3603C36.1212 21.3715 36.3051 21.1931 35.8081 22.0306C35.6342 22.3237 35.3841 22.6797 35.1377 22.8446C34.2475 22.607 34.3762 21.4293 33.5474 21.3603C33.6088 22.0988 34.8196 23.0471 34.8196 23.4808V23.4808Z" fill="#74C4C0"/>
  <path fill-rule="evenodd" clip-rule="evenodd" d="M37.7886 24.4346C38.063 21.8904 37.7886 22.9936 37.7886 21.3599C37.6197 21.4049 37.3516 21.4117 37.2969 21.5405L37.3986 21.9475C37.5072 22.6638 37.5714 22.8024 37.432 23.7784C37.3698 24.2138 37.1511 24.3815 37.7886 24.4346Z" fill="#74C4C0"/>
</svg>
