<svg xmlns="http://www.w3.org/2000/svg" fill="none" viewBox="0 0 81 84" class="design-iconfont">
  <path d="M8.28279 41.7261L24.2168 14.1276L56.0847 14.1276L72.0187 41.7261L56.0848 69.3246L24.2168 69.3246L8.28279 41.7261Z" fill="#FFF100" stroke="#ADADAD" stroke-width=".437914"/>
  <path d="M43.4977 33.4818L49.3055 35.3063L51.2593 38.7945L47.2541 40.8293L43.4977 40.151" stroke="#ADADAD" stroke-width=".291942"/>
  <path d="M36.7496 33.4818L30.9418 35.3063L28.988 38.7945L32.9933 40.8293L36.7496 40.151" stroke="#ADADAD" stroke-width=".291942"/>
  <path fill-rule="evenodd" clip-rule="evenodd" d="M41.4917 30.461L40.1241 27.5542L38.7564 30.461L35.8257 30.6548L37.3368 35.5261C37.0685 35.8038 36.84 36.1214 36.6607 36.4694H43.5883C43.4089 36.1211 43.1801 35.8032 42.9115 35.5253L44.4224 30.6548L41.4917 30.461ZM43.8317 37.0507H36.4173C36.3758 37.1772 36.3403 37.3064 36.3113 37.4382H43.9377C43.9087 37.3064 43.8733 37.1772 43.8317 37.0507ZM36.2169 38.3099C36.2169 38.2123 36.2204 38.1154 36.2272 38.0195H44.0218C44.0286 38.1154 44.0321 38.2123 44.0321 38.3099C44.0321 38.3422 44.0317 38.3744 44.031 38.4066H36.2181C36.2173 38.3744 36.2169 38.3422 36.2169 38.3099ZM36.2736 38.9879C36.2959 39.1196 36.3245 39.249 36.3592 39.3758H43.8899C43.9245 39.249 43.9532 39.1196 43.9754 38.9879H36.2736ZM36.7679 40.345C36.6944 40.22 36.6275 40.0906 36.5676 39.9572H43.6814C43.6215 40.0906 43.5546 40.22 43.4811 40.345H36.7679ZM37.1841 40.9264C37.6008 41.41 38.131 41.7899 38.7326 42.0231L40.1244 44.4143L41.5162 42.0233C42.1178 41.7901 42.6482 41.4101 43.0649 40.9264H37.1841Z" fill="#221816"/>
  <path d="M27.2586 51.7332C27.5038 51.6229 27.745 51.4941 27.982 51.347C28.2191 51.1958 28.4541 51.018 28.6871 50.8136C28.8833 50.642 29.0529 50.4785 29.1959 50.3232C29.339 50.1638 29.4636 49.9982 29.5699 49.8266H27.4793V49.6059H29.9745V48.8824H30.183V49.6059H32.6966V49.8266H30.5508C30.6653 50.0023 30.8002 50.1719 30.9555 50.3354C31.1108 50.4989 31.2906 50.6644 31.495 50.832C31.7361 51.0282 31.9752 51.2019 32.2123 51.3531C32.4493 51.5003 32.6905 51.629 32.9357 51.7394L32.8315 51.9417C32.5822 51.8232 32.3369 51.6883 32.0958 51.5371C31.8547 51.3858 31.6115 51.2101 31.3662 51.0098C31.1292 50.8136 30.9248 50.6174 30.7532 50.4212C30.5815 50.2251 30.4384 50.0268 30.324 49.8266H30.183V52.2973H29.9745V49.8266H29.809C29.6905 50.0268 29.5515 50.223 29.3921 50.4151C29.2368 50.6031 29.0427 50.7952 28.8097 50.9914C28.5686 51.1917 28.3315 51.3674 28.0985 51.5187C27.8656 51.6699 27.6244 51.8048 27.3751 51.9233L27.2586 51.7332ZM27.6632 47.221C27.9575 47.221 28.2968 47.2108 28.681 47.1903C29.0692 47.1699 29.5107 47.1372 30.0052 47.0922C30.9984 47.0064 31.7852 46.9165 32.3656 46.8225L32.4207 47.0248C31.8322 47.1229 31.0393 47.2148 30.042 47.3007C29.0529 47.3865 28.2722 47.4294 27.7 47.4294L27.6632 47.221ZM31.0597 48.8763C31.2027 48.721 31.3826 48.4921 31.5992 48.1896C31.8158 47.8831 31.9752 47.6297 32.0774 47.4294L32.2613 47.5336C32.2041 47.6317 32.1346 47.7462 32.0529 47.877C31.9752 48.0078 31.8833 48.1508 31.777 48.3061C31.6707 48.4614 31.5726 48.5963 31.4827 48.7108C31.3928 48.8252 31.309 48.9233 31.2314 49.005L31.0597 48.8763ZM28.1598 47.595C28.2702 47.7217 28.4153 47.9158 28.5951 48.1774C28.7709 48.4267 28.9037 48.6311 28.9936 48.7905L28.8036 48.9131C28.7586 48.8354 28.7034 48.7455 28.638 48.6433C28.5726 48.5411 28.497 48.4267 28.4112 48.3C28.3254 48.1733 28.2457 48.0609 28.1721 47.9628C28.1026 47.8647 28.0393 47.7809 27.982 47.7114L28.1598 47.595ZM29.8703 47.4417C29.9643 47.5725 30.0829 47.7584 30.2259 47.9996C30.2954 48.1181 30.3567 48.2285 30.4098 48.3307C30.4671 48.4328 30.512 48.5207 30.5447 48.5943L30.3485 48.6924C30.3158 48.6188 30.2729 48.533 30.2198 48.4349C30.1707 48.3368 30.1115 48.2285 30.042 48.1099C29.9725 47.9914 29.9071 47.8851 29.8458 47.7911C29.7886 47.6971 29.7354 47.6154 29.6864 47.5459L29.8703 47.4417ZM36.7245 49.9308V49.5016H36.933V49.9308H38.7784V51.0589H36.933V51.8191C37.6523 51.7986 38.2572 51.768 38.7477 51.7271C38.6537 51.6495 38.5679 51.58 38.4902 51.5187C38.4126 51.4574 38.3431 51.4042 38.2818 51.3593L38.4166 51.2183C38.5474 51.3123 38.7232 51.4512 38.9439 51.6351C39.1646 51.8232 39.3322 51.9846 39.4466 52.1195L39.3056 52.2666C39.2606 52.2135 39.2075 52.1563 39.1462 52.095C39.0849 52.0336 39.0175 51.9683 38.9439 51.8988V51.9049C38.6496 51.9335 38.3063 51.956 37.9139 51.9723C37.5215 51.9928 37.0781 52.0091 36.5835 52.0214C35.6026 52.0459 34.8199 52.0459 34.2354 52.0214L34.2293 51.8252C34.8097 51.8497 35.5883 51.8497 36.5651 51.8252C36.5897 51.8252 36.6142 51.8232 36.6387 51.8191C36.6673 51.8191 36.6959 51.8191 36.7245 51.8191V51.0589H34.873V49.9308H36.7245ZM35.8601 47.8402V48.7169C35.8601 48.7782 35.8621 48.8313 35.8662 48.8763C35.8703 48.9172 35.8785 48.9539 35.8908 48.9866C36.3363 48.8232 36.7511 48.6351 37.1353 48.4226C37.5236 48.206 37.871 47.9546 38.1775 47.6685L38.294 47.8218C38.012 48.0916 37.6789 48.3347 37.2947 48.5514C36.9146 48.768 36.4977 48.9621 36.044 49.1338C36.1053 49.1542 36.1871 49.1665 36.2893 49.1706C36.3587 49.1747 36.4487 49.1787 36.559 49.1828C36.6735 49.1828 36.7899 49.1828 36.9085 49.1828C37.0311 49.1828 37.1476 49.1828 37.2579 49.1828C37.3683 49.1787 37.4562 49.1747 37.5215 49.1706C37.6237 49.1624 37.7055 49.1522 37.7668 49.1399C37.8281 49.1277 37.8751 49.1072 37.9078 49.0786C37.9446 49.05 37.9691 49.0132 37.9814 48.9683C37.9977 48.9233 38.012 48.8661 38.0243 48.7966L38.0611 48.4533L38.2572 48.5207C38.2532 48.5738 38.2491 48.627 38.245 48.6801C38.2409 48.7292 38.2348 48.7823 38.2266 48.8395C38.2143 48.9417 38.1959 49.0255 38.1714 49.0909C38.1469 49.1563 38.1081 49.2074 38.0549 49.2441C38.0059 49.2809 37.9405 49.3075 37.8587 49.3238C37.777 49.3402 37.6707 49.3524 37.5399 49.3606C37.4664 49.3688 37.3724 49.3749 37.2579 49.379C37.1476 49.379 37.0311 49.379 36.9085 49.379C36.7859 49.379 36.6653 49.379 36.5468 49.379C36.4323 49.3749 36.3363 49.3688 36.2586 49.3606C36.1442 49.3524 36.0481 49.3402 35.9705 49.3238C35.8928 49.3075 35.8315 49.2768 35.7865 49.2319C35.5331 49.3218 35.2736 49.4056 35.0079 49.4832C34.7423 49.5568 34.4725 49.6263 34.1987 49.6917L34.1312 49.4955C34.4051 49.4342 34.6707 49.3688 34.9282 49.2993C35.1898 49.2257 35.4432 49.146 35.6884 49.0602C35.6803 49.0193 35.6721 48.9744 35.6639 48.9253C35.6598 48.8763 35.6578 48.8211 35.6578 48.7598V47.8402H35.8601ZM36.8778 47.2087C36.8574 47.1597 36.8329 47.1065 36.8042 47.0493C36.7756 46.988 36.747 46.9287 36.7184 46.8715C36.6898 46.8143 36.6612 46.7591 36.6326 46.706C36.6081 46.6488 36.5835 46.5997 36.559 46.5589L36.7552 46.4914C36.7838 46.5405 36.8124 46.5977 36.841 46.6631C36.8737 46.7244 36.9044 46.7877 36.933 46.8531C36.9657 46.9185 36.9963 46.9819 37.025 47.0432C37.0536 47.1045 37.0781 47.1597 37.0985 47.2087H39.2443V48.1283H39.0297V47.3926H34.6462V48.159H34.4316V47.2087H36.8778ZM35.0754 50.8627H36.7245V50.1331H35.0754V50.8627ZM36.933 50.1331V50.8627H38.576V50.1331H36.933ZM38.5515 48.0732C38.6619 48.1713 38.809 48.3286 38.9929 48.5452C39.0869 48.6474 39.1666 48.7414 39.232 48.8272C39.3015 48.909 39.3587 48.9826 39.4037 49.048L39.2504 49.1767C39.2055 49.1113 39.1483 49.0377 39.0788 48.956C39.0134 48.8702 38.9357 48.7762 38.8458 48.674C38.666 48.4655 38.5188 48.3061 38.4044 48.1958L38.5515 48.0732ZM34.3887 48.9008C34.5113 48.77 34.636 48.6168 34.7627 48.441C34.8894 48.2612 34.9998 48.0916 35.0938 47.9321L35.247 48.0241C35.1448 48.208 35.0304 48.3858 34.9037 48.5575C34.7811 48.7292 34.6585 48.8824 34.5359 49.0173L34.3887 48.9008ZM36.418 47.4539C36.4711 47.4907 36.5324 47.5357 36.6019 47.5888C36.6714 47.642 36.7409 47.6992 36.8104 47.7605C36.8839 47.8177 36.9514 47.8749 37.0127 47.9321C37.074 47.9894 37.1271 48.0405 37.1721 48.0854L37.0495 48.2264C37.0004 48.1774 36.9453 48.1263 36.8839 48.0732C36.8226 48.0159 36.7572 47.9587 36.6878 47.9015C36.6224 47.8402 36.5549 47.783 36.4854 47.7298C36.4201 47.6767 36.3587 47.6297 36.3015 47.5888L36.418 47.4539ZM42.2852 51.8988C42.3955 51.9069 42.51 51.9131 42.6285 51.9172C42.747 51.9212 42.8594 51.9212 42.9657 51.9172C43.0801 51.9131 43.1721 51.9049 43.2416 51.8926C43.3111 51.8845 43.3642 51.8599 43.401 51.8191C43.4418 51.7823 43.4684 51.7251 43.4807 51.6474C43.4929 51.5698 43.4991 51.4594 43.4991 51.3163V46.6815H43.7259V51.3654C43.7259 51.5125 43.7177 51.6331 43.7014 51.7271C43.6891 51.8211 43.6626 51.8967 43.6217 51.9539C43.5808 52.0112 43.5215 52.052 43.4439 52.0766C43.3662 52.1052 43.2661 52.1256 43.1435 52.1379C43.0168 52.1542 42.8799 52.1624 42.7327 52.1624C42.5897 52.1665 42.4548 52.1685 42.3281 52.1685L42.2852 51.8988ZM44.8417 47.8218C44.9643 48.0098 45.0972 48.2407 45.2402 48.5146C45.3833 48.7884 45.5365 49.1011 45.7 49.4526C45.8635 49.8 46.0045 50.1168 46.123 50.4029C46.2416 50.6849 46.3356 50.9362 46.4051 51.1569L46.1905 51.2673C46.121 51.0425 46.027 50.7891 45.9085 50.5071C45.7899 50.221 45.6489 49.9022 45.4854 49.5507C45.1626 48.8518 44.8805 48.3102 44.6394 47.926L44.8417 47.8218ZM40.7341 51.1447C40.9957 50.6787 41.247 50.1351 41.4882 49.5139C41.6067 49.2033 41.7109 48.9069 41.8008 48.6249C41.8908 48.3429 41.9684 48.0732 42.0338 47.8157L42.2668 47.877C42.1973 48.1508 42.1135 48.4287 42.0154 48.7108C41.9214 48.9928 41.8131 49.2911 41.6905 49.6059C41.4493 50.2312 41.198 50.783 40.9364 51.2612L40.7341 51.1447ZM51.1748 46.6079V47.2271H52.9773V47.411H51.1748V47.9751H52.4194V50.8995H53.1428V51.0956H49.1026V50.8995H49.7341V47.9751H50.9725V47.411H49.4827V47.2271H50.9725V46.6079H51.1748ZM48.1707 52.0275C48.2198 51.9907 48.2484 51.9539 48.2566 51.9172C48.2688 51.8845 48.275 51.8518 48.275 51.8191V50.0166H47.5822V49.8143H48.275V48.7782H47.8029V48.5881H49.3294V48.7782H48.4773V49.8143H49.3969V50.0166H48.4773V51.8129C48.5181 51.7843 48.5672 51.7475 48.6244 51.7026C48.6857 51.6617 48.747 51.6147 48.8083 51.5616C48.8696 51.5084 48.9309 51.4553 48.9923 51.4022C49.0576 51.345 49.1169 51.2877 49.17 51.2305L49.2436 51.4328C49.076 51.5759 48.9126 51.7087 48.7532 51.8313C48.5978 51.9539 48.4364 52.0725 48.2688 52.1869L48.1707 52.0275ZM49.9303 48.723H52.2232V48.1467H49.9303V48.723ZM49.9303 50.1576H52.2232V49.5875H49.9303V50.1576ZM49.9303 50.8995H52.2232V50.3354H49.9303V50.8995ZM49.9303 49.4158H52.2232V48.8824H49.9303V49.4158ZM47.4718 48.5391C47.5781 48.396 47.6782 48.2428 47.7722 48.0793C47.8662 47.9117 47.9521 47.7421 48.0297 47.5704C48.1115 47.3906 48.183 47.2189 48.2443 47.0554C48.3097 46.8879 48.3608 46.7387 48.3976 46.6079L48.5999 46.6447C48.5672 46.7673 48.5222 46.9022 48.465 47.0493C48.4119 47.1965 48.3506 47.3477 48.2811 47.503H49.4214V47.693H48.1953C48.1135 47.8688 48.0236 48.0405 47.9255 48.208C47.8315 48.3715 47.7375 48.5187 47.6435 48.6495L47.4718 48.5391ZM48.9677 52.1624C49.2865 52.0316 49.5767 51.8947 49.8383 51.7516C50.0999 51.6086 50.3247 51.4655 50.5127 51.3225L50.623 51.4819C50.4309 51.6208 50.2021 51.7639 49.9364 51.911C49.6707 52.0582 49.3785 52.2012 49.0597 52.3402L48.9677 52.1624ZM51.5611 51.3715C51.6591 51.4042 51.7715 51.4492 51.8982 51.5064C52.029 51.5595 52.1762 51.6229 52.3397 51.6965C52.5032 51.7741 52.6462 51.8477 52.7688 51.9172C52.8955 51.9866 53.0059 52.052 53.0999 52.1133L53.0079 52.2973C52.824 52.1747 52.5726 52.0336 52.2538 51.8742C51.9269 51.7108 51.6694 51.6024 51.4814 51.5493L51.5611 51.3715Z" fill="#221816"/>
  <path d="M27.89 56.1245C28.0282 56.1245 28.1411 56.1576 28.2287 56.2238C28.3182 56.288 28.3727 56.3678 28.3922 56.4632L28.2813 56.5128C28.2676 56.4291 28.2277 56.3629 28.1616 56.3143C28.0973 56.2656 28.0088 56.2413 27.8959 56.2413C27.7888 56.2413 27.6944 56.2715 27.6127 56.3318C27.531 56.3921 27.4677 56.4778 27.4229 56.5887C27.3782 56.6977 27.3558 56.8252 27.3558 56.9712C27.3558 57.1152 27.3782 57.2427 27.4229 57.3536C27.4697 57.4645 27.5339 57.5502 27.6156 57.6105C27.6974 57.6708 27.7908 57.701 27.8959 57.701C28.0068 57.701 28.0944 57.6777 28.1586 57.6309C28.2248 57.5842 28.2657 57.5171 28.2813 57.4295L28.3922 57.4791C28.3727 57.5726 28.3182 57.6514 28.2287 57.7156C28.1392 57.7818 28.0263 57.8149 27.89 57.8149C27.7596 57.8149 27.6438 57.7789 27.5426 57.7068C27.4434 57.6348 27.3655 57.5346 27.3091 57.4061C27.2546 57.2777 27.2273 57.1327 27.2273 56.9712C27.2273 56.8077 27.2546 56.6617 27.3091 56.5332C27.3655 56.4048 27.4434 56.3046 27.5426 56.2325C27.6438 56.1605 27.7596 56.1245 27.89 56.1245ZM30.2788 57.3945C30.2788 57.558 30.2817 57.6884 30.2875 57.7857H30.1795C30.1717 57.7176 30.1659 57.5881 30.162 57.3974C30.1133 57.5297 30.0413 57.6319 29.9459 57.7039C29.8506 57.7779 29.7367 57.8149 29.6044 57.8149C29.4759 57.8149 29.3621 57.7789 29.2628 57.7068C29.1655 57.6368 29.0896 57.5385 29.0351 57.412C28.9806 57.2835 28.9533 57.1366 28.9533 56.9712C28.9533 56.8057 28.9806 56.6588 29.0351 56.5303C29.0896 56.4019 29.1655 56.3026 29.2628 56.2325C29.3621 56.1605 29.4759 56.1245 29.6044 56.1245C29.7367 56.1245 29.8506 56.1615 29.9459 56.2355C30.0413 56.3094 30.1133 56.4116 30.162 56.542C30.1659 56.3513 30.1717 56.2218 30.1795 56.1537H30.2875C30.2817 56.2491 30.2788 56.3795 30.2788 56.5449V57.3945ZM30.1591 56.9712C30.1591 56.8271 30.1357 56.6996 30.089 56.5887C30.0442 56.4778 29.981 56.3921 29.8992 56.3318C29.8175 56.2715 29.7241 56.2413 29.619 56.2413C29.5139 56.2413 29.4204 56.2724 29.3387 56.3347C29.2589 56.3951 29.1956 56.4807 29.1489 56.5916C29.1042 56.7006 29.0818 56.8271 29.0818 56.9712C29.0818 57.1132 29.1042 57.2397 29.1489 57.3507C29.1956 57.4597 29.2599 57.5453 29.3416 57.6076C29.4234 57.6679 29.5158 57.6981 29.619 57.6981C29.7241 57.6981 29.8175 57.6679 29.8992 57.6076C29.981 57.5453 30.0442 57.4597 30.089 57.3507C30.1357 57.2397 30.1591 57.1132 30.1591 56.9712ZM31.1021 55.5903C31.139 55.5903 31.1673 55.601 31.1867 55.6224C31.2062 55.6418 31.2159 55.6691 31.2159 55.7041C31.2159 55.7411 31.2062 55.7693 31.1867 55.7888C31.1673 55.8082 31.139 55.818 31.1021 55.818C31.067 55.818 31.0388 55.8082 31.0174 55.7888C30.9979 55.7674 30.9882 55.7392 30.9882 55.7041C30.9882 55.6691 30.9989 55.6418 31.0203 55.6224C31.0417 55.601 31.069 55.5903 31.1021 55.5903ZM31.1663 56.1537V57.7857H31.0378V56.1537H31.1663ZM35.1947 56.6296V57.7857H35.0691V56.6471C35.0691 56.507 35.038 56.4048 34.9757 56.3406C34.9154 56.2744 34.82 56.2413 34.6896 56.2413C34.5962 56.2413 34.5115 56.2656 34.4356 56.3143C34.3617 56.3629 34.3033 56.4311 34.2605 56.5186C34.2196 56.6062 34.1991 56.7055 34.1991 56.8164V57.7857H34.0765V56.6471C34.0765 56.5089 34.0444 56.4067 33.9802 56.3406C33.916 56.2744 33.8187 56.2413 33.6883 56.2413C33.5948 56.2413 33.5102 56.2656 33.4343 56.3143C33.3603 56.3629 33.3019 56.4311 33.2591 56.5186C33.2182 56.6062 33.1978 56.7055 33.1978 56.8164V57.7857H33.0752V56.5449C33.0752 56.3795 33.0723 56.2491 33.0664 56.1537H33.1715C33.1774 56.2121 33.1822 56.3182 33.1861 56.4719C33.2348 56.359 33.3039 56.2734 33.3934 56.215C33.4829 56.1547 33.59 56.1245 33.7145 56.1245C33.8391 56.1245 33.9422 56.1557 34.024 56.2179C34.1057 56.2783 34.1593 56.3649 34.1846 56.4778C34.2332 56.3629 34.3013 56.2754 34.3889 56.215C34.4765 56.1547 34.5826 56.1245 34.7071 56.1245C34.8609 56.1245 34.9806 56.1693 35.0662 56.2588C35.1519 56.3464 35.1947 56.47 35.1947 56.6296ZM36.0092 55.5903C36.0462 55.5903 36.0744 55.601 36.0939 55.6224C36.1133 55.6418 36.123 55.6691 36.123 55.7041C36.123 55.7411 36.1133 55.7693 36.0939 55.7888C36.0744 55.8082 36.0462 55.818 36.0092 55.818C35.9742 55.818 35.9459 55.8082 35.9245 55.7888C35.9051 55.7674 35.8953 55.7392 35.8953 55.7041C35.8953 55.6691 35.906 55.6418 35.9274 55.6224C35.9489 55.601 35.9761 55.5903 36.0092 55.5903ZM36.0734 56.1537V57.7857H35.945V56.1537H36.0734ZM39.007 57.7857L38.5107 57.0529L38.0086 57.7857H37.8655L38.4494 56.9595L37.8801 56.1537H38.0349L38.5195 56.8602L39.007 56.1537H39.1442L38.5808 56.9595L39.1618 57.7857H39.007ZM39.8672 55.5903C39.9041 55.5903 39.9324 55.601 39.9518 55.6224C39.9713 55.6418 39.981 55.6691 39.981 55.7041C39.981 55.7411 39.9713 55.7693 39.9518 55.7888C39.9324 55.8082 39.9041 55.818 39.8672 55.818C39.8321 55.818 39.8039 55.8082 39.7825 55.7888C39.763 55.7674 39.7533 55.7392 39.7533 55.7041C39.7533 55.6691 39.764 55.6418 39.7854 55.6224C39.8068 55.601 39.8341 55.5903 39.8672 55.5903ZM39.9314 56.1537V57.7857H39.8029V56.1537H39.9314ZM41.9485 57.3945C41.9485 57.558 41.9514 57.6884 41.9572 57.7857H41.8492C41.8414 57.7176 41.8356 57.5881 41.8317 57.3974C41.783 57.5297 41.711 57.6319 41.6156 57.7039C41.5203 57.7779 41.4064 57.8149 41.2741 57.8149C41.1456 57.8149 41.0318 57.7789 40.9325 57.7068C40.8352 57.6368 40.7593 57.5385 40.7048 57.412C40.6503 57.2835 40.623 57.1366 40.623 56.9712C40.623 56.8057 40.6503 56.6588 40.7048 56.5303C40.7593 56.4019 40.8352 56.3026 40.9325 56.2325C41.0318 56.1605 41.1456 56.1245 41.2741 56.1245C41.4064 56.1245 41.5203 56.1615 41.6156 56.2355C41.711 56.3094 41.783 56.4116 41.8317 56.542C41.8356 56.3513 41.8414 56.2218 41.8492 56.1537H41.9572C41.9514 56.2491 41.9485 56.3795 41.9485 56.5449V57.3945ZM41.8288 56.9712C41.8288 56.8271 41.8054 56.6996 41.7587 56.5887C41.7139 56.4778 41.6507 56.3921 41.5689 56.3318C41.4872 56.2715 41.3938 56.2413 41.2887 56.2413C41.1836 56.2413 41.0902 56.2724 41.0084 56.3347C40.9286 56.3951 40.8654 56.4807 40.8186 56.5916C40.7739 56.7006 40.7515 56.8271 40.7515 56.9712C40.7515 57.1132 40.7739 57.2397 40.8186 57.3507C40.8654 57.4597 40.9296 57.5453 41.0113 57.6076C41.0931 57.6679 41.1855 57.6981 41.2887 57.6981C41.3938 57.6981 41.4872 57.6679 41.5689 57.6076C41.6507 57.5453 41.7139 57.4597 41.7587 57.3507C41.8054 57.2397 41.8288 57.1132 41.8288 56.9712ZM43.2797 56.1245C43.4101 56.1245 43.525 56.1605 43.6242 56.2325C43.7254 56.3046 43.8033 56.4048 43.8578 56.5332C43.9142 56.6617 43.9425 56.8077 43.9425 56.9712C43.9425 57.1346 43.9142 57.2806 43.8578 57.4091C43.8033 57.5356 43.7254 57.6348 43.6242 57.7068C43.525 57.7789 43.4101 57.8149 43.2797 57.8149C43.1493 57.8149 43.0335 57.7789 42.9323 57.7068C42.8331 57.6348 42.7552 57.5346 42.6988 57.4061C42.6443 57.2777 42.617 57.1327 42.617 56.9712C42.617 56.8077 42.6443 56.6617 42.6988 56.5332C42.7552 56.4048 42.8331 56.3046 42.9323 56.2325C43.0335 56.1605 43.1493 56.1245 43.2797 56.1245ZM43.2797 56.2413C43.1746 56.2413 43.0812 56.2715 42.9995 56.3318C42.9197 56.3921 42.8574 56.4778 42.8126 56.5887C42.7679 56.6996 42.7455 56.8271 42.7455 56.9712C42.7455 57.1152 42.7679 57.2427 42.8126 57.3536C42.8574 57.4626 42.9197 57.5473 42.9995 57.6076C43.0812 57.6679 43.1746 57.6981 43.2797 57.6981C43.3848 57.6981 43.4783 57.6679 43.56 57.6076C43.6418 57.5473 43.705 57.4626 43.7498 57.3536C43.7965 57.2427 43.8198 57.1152 43.8198 56.9712C43.8198 56.8271 43.7965 56.6996 43.7498 56.5887C43.705 56.4778 43.6418 56.3921 43.56 56.3318C43.4783 56.2715 43.3848 56.2413 43.2797 56.2413ZM46.9393 57.666V57.7857H45.7014V57.701L46.7437 56.2705H45.7277V56.1537H46.9218V56.2355L45.8854 57.666H46.9393ZM48.8665 56.6909V57.7857H48.7468V56.7084C48.7468 56.5488 48.7108 56.4311 48.6388 56.3552C48.5668 56.2792 48.4549 56.2413 48.303 56.2413C48.1941 56.2413 48.0967 56.2685 48.0111 56.323C47.9255 56.3775 47.8583 56.4544 47.8097 56.5537C47.763 56.6529 47.7396 56.7658 47.7396 56.8923V57.7857H47.6141V55.4355H47.7396V56.4982C47.7941 56.3736 47.87 56.2802 47.9673 56.2179C48.0666 56.1557 48.1863 56.1245 48.3264 56.1245C48.4977 56.1245 48.63 56.1741 48.7234 56.2734C48.8188 56.3727 48.8665 56.5118 48.8665 56.6909ZM50.8347 56.9712H49.6523C49.6523 57.1969 49.7049 57.375 49.81 57.5054C49.9151 57.6339 50.0591 57.6981 50.242 57.6981C50.3627 57.6981 50.4571 57.6738 50.5252 57.6251C50.5953 57.5764 50.6537 57.4937 50.7004 57.377L50.8055 57.4266C50.7607 57.5589 50.6916 57.6562 50.5982 57.7185C50.5048 57.7828 50.3851 57.8149 50.2391 57.8149C50.097 57.8149 49.9715 57.7808 49.8625 57.7127C49.7555 57.6446 49.6718 57.5473 49.6114 57.4207C49.5531 57.2923 49.5239 57.1424 49.5239 56.9712C49.5239 56.8038 49.5521 56.6568 49.6085 56.5303C49.665 56.4019 49.7428 56.3026 49.8421 56.2325C49.9433 56.1605 50.0581 56.1245 50.1866 56.1245C50.389 56.1245 50.5476 56.1985 50.6624 56.3464C50.7773 56.4943 50.8347 56.6958 50.8347 56.9507V56.9712ZM49.6582 56.8544H50.7092C50.6936 56.6578 50.641 56.507 50.5515 56.4019C50.462 56.2948 50.3403 56.2413 50.1866 56.2413C50.0425 56.2413 49.9229 56.2968 49.8275 56.4077C49.7321 56.5186 49.6757 56.6675 49.6582 56.8544ZM52.7547 56.6909V57.7857H52.635V56.7084C52.635 56.5488 52.599 56.4311 52.527 56.3552C52.455 56.2792 52.343 56.2413 52.1912 56.2413C52.0822 56.2413 51.9849 56.2685 51.8993 56.323C51.8137 56.3775 51.7465 56.4544 51.6979 56.5537C51.6511 56.6529 51.6278 56.7658 51.6278 56.8923V57.7857H51.5023V56.5449C51.5023 56.3795 51.4993 56.2491 51.4935 56.1537H51.5986C51.6064 56.2179 51.6122 56.3406 51.6161 56.5216C51.6706 56.3912 51.7475 56.2929 51.8467 56.2267C51.948 56.1586 52.0706 56.1245 52.2146 56.1245C52.3859 56.1245 52.5182 56.1741 52.6116 56.2734C52.707 56.3727 52.7547 56.5118 52.7547 56.6909Z" fill="#221816"/>
</svg>
