<svg xmlns="http://www.w3.org/2000/svg" fill="none" viewBox="0 0 100 47" class="design-iconfont">
  <path fill-rule="evenodd" clip-rule="evenodd" d="M0 0L9.51862 12.8523L19.0372 0V27.9418H0V0ZM41.7591 9.60636H42.0662C42.0662 12.1066 41.4959 14.0367 40.2677 15.3965C40.7941 15.6158 41.3643 15.8351 42.0662 15.9667V17.502C40.7064 17.4143 39.6098 17.1072 38.6886 16.6247C37.7674 17.1072 36.627 17.4143 35.2672 17.502V15.9667C35.969 15.8351 36.5392 15.6597 37.0656 15.3965C35.8374 14.0805 35.2672 12.1066 35.2672 9.60636C37.4165 9.60636 39.6098 9.60636 41.7591 9.60636ZM38.6447 14.2121C39.3027 13.4664 39.6536 12.5014 39.8291 11.3171H37.4604C37.6358 12.5453 38.0306 13.4664 38.6447 14.2121ZM42.0662 1.27208C39.7852 1.27208 37.5481 1.27208 35.2672 1.27208V9.16771C36.4076 8.72906 37.3727 7.72018 37.3727 6.27264V3.02666H39.9607V6.27264C39.9607 7.72018 40.9257 8.72906 42.0662 9.16771V1.27208ZM28.0295 7.85177H28.6875V7.10607H30.793V7.85177H31.4948V7.10607H33.6003V7.85177H34.4776V9.60636H33.6003V11.3171H34.4776V13.0717H27.8102C27.6347 14.5192 27.3277 15.9667 27.0206 17.4581H24.6958C26.0117 11.7996 25.6608 7.01834 25.6608 1.27208C28.5997 1.27208 31.4948 1.27208 34.4337 1.27208V6.49197C32.5037 6.49197 30.5736 6.49197 28.5997 6.49197V4.73738H32.3282V2.9828H27.9856L28.0295 7.85177ZM31.4948 9.60636H30.793V11.3171H31.4948V9.60636ZM28.6875 9.60636H28.0295V10.0889C28.0295 10.4836 28.0295 10.9223 27.9856 11.3171H28.6875V9.60636ZM34.4776 17.4581H32.3282L31.1877 13.7296H33.3371C33.3371 13.7735 34.4776 17.4581 34.4776 17.4581ZM27.3277 17.4581H29.477L30.7052 13.7735H28.5559L27.3277 17.4581ZM70.8414 1.27208H73.561V2.14937C75.6226 2.14937 77.6843 2.14937 79.7459 2.14937V5.21989H77.0263V3.81622H67.4199V5.21989H64.7003C64.7003 4.16714 64.7003 3.15825 64.7003 2.14937C66.762 2.14937 68.8236 2.14937 70.8852 2.14937V1.27208H70.8414ZM70.8414 14.8262L67.9024 17.502H64.7003L70.8414 12.1505V11.0978L64.7003 16.3176V13.598L70.8414 8.37815V7.41312L64.6565 12.6769V9.95727L67.5077 7.54472H64.6565V5.834C67.6393 5.834 70.5782 5.834 73.561 5.834V17.4581H70.8414C70.8414 17.4581 70.8414 14.8262 70.8414 14.8262ZM74.526 17.4581V5.79013H79.7898V7.50085H77.2895V15.7474H79.7898V17.4581H74.526ZM98.6954 17.502H95.3178L93.3439 14.0805H89.7032L87.7293 17.4581H84.3517L86.3256 14.0805H83.5182V12.1066H85.3606V1.27208C89.44 1.27208 93.5632 1.27208 97.6427 1.27208V12.1066H99.6604V14.0805H96.7654L98.6954 17.502ZM89.44 11.3171V9.34317H94.3967V8.50974H89.44V6.5797H94.3967V5.74627H89.44V3.77236H94.3967V3.20212H88.6065V12.0628H94.3967V11.3171H89.44ZM58.9541 1.27208H55.9274L55.7081 2.1055H50.7952L50.5759 1.27208H47.5493L47.7686 2.1055H45.5753V4.07941C47.5931 4.07941 49.567 4.07941 51.5848 4.07941V11.1416H45.5753V13.1155H51.0584C50.225 14.7385 48.4265 15.5281 45.5753 15.5281V17.502C49.26 17.4581 51.8041 16.844 53.2517 15.2649C54.6992 16.844 57.2433 17.502 60.928 17.502V15.5281C58.0768 15.5719 56.2344 14.7824 55.4449 13.1155H60.928V11.1416H54.9185C54.9185 10.7907 54.9185 10.4398 54.9185 10.045H60.928V8.07109H54.9185V7.01834H60.928V5.04443H54.9185V4.07941H60.928V2.1055H58.7347L58.9541 1.27208ZM45.5753 10.045V8.07109H50.7075V10.045H45.5753ZM45.5753 7.01834V5.04443H50.7075V7.01834H45.5753ZM96.6338 23.2483H99.0902V23.994H96.6338V25.4854C96.6338 25.7924 96.7215 25.8801 96.9847 25.8801H99.0902V26.6258H94.9669V25.8801C95.3178 25.8801 95.6687 25.9679 95.6687 25.4854C95.6687 24.2571 95.6687 23.0289 95.6687 21.8007C95.6687 21.2743 95.3617 21.4059 94.9669 21.4059V20.6164H99.0902V21.3621H96.9847C96.7215 21.3621 96.6338 21.4498 96.6338 21.7569C96.6338 21.8007 96.6338 23.2483 96.6338 23.2483ZM94.0896 25.5292C94.1774 25.8363 94.3089 25.924 94.5721 25.924H94.7476V26.6697H92.5544V25.924C92.9053 25.924 93.1685 26.0117 92.993 25.5292C92.8614 25.1783 92.5982 24.1256 92.335 24.0378H91.8087V25.5292C91.8087 25.924 91.9403 25.924 92.2473 25.924V26.6697H90.0979V25.924C90.4927 25.924 90.7998 26.0117 90.7998 25.5292C90.7998 24.2571 90.7998 23.0289 90.7998 21.7569C90.7998 21.2305 90.4927 21.3621 90.0979 21.3621V20.6164L93.5194 20.5725C95.1424 20.5725 94.9669 23.8185 93.7387 23.994C93.651 24.0378 93.651 24.1694 93.7387 24.3887C94.0019 25.3538 93.7826 24.6519 94.0896 25.5292ZM91.7648 23.2044C91.9841 23.2044 92.9491 23.2483 93.1246 23.1167C93.6948 22.7657 93.651 21.3621 92.8614 21.3621C92.3789 21.3621 91.7648 21.1866 91.7648 21.7569V23.2044ZM82.641 25.4854C82.641 25.9679 82.9919 25.8801 83.3428 25.8801V26.6258H80.9302V25.8801C81.325 25.8801 81.6321 25.9679 81.6321 25.4854C81.6321 24.2571 81.6321 23.0289 81.6321 21.8007C81.6321 21.4937 81.5443 21.4059 81.2812 21.4059H80.1407V20.6164H83.9569V21.3621H82.9041C82.6848 21.3621 82.5971 21.4498 82.5971 21.7569C82.641 23.0289 82.641 24.2571 82.641 25.4854ZM79.1756 25.4854C79.1756 25.9679 79.4827 25.8801 79.8775 25.8801V26.6258H77.5088V25.8801C77.8597 25.8801 78.2106 25.9679 78.2106 25.4854C78.2106 24.2571 78.2106 23.0289 78.2106 21.8007C78.2106 21.2743 77.9036 21.4059 77.5088 21.4059V20.6164H79.9213V21.3621C79.5266 21.3621 79.2195 21.2744 79.2195 21.7569C79.1756 23.0289 79.1756 24.2571 79.1756 25.4854ZM75.8419 24.2571V21.8446C75.8419 21.3621 75.5787 21.4059 75.184 21.4059V20.6602H77.0701V21.4059C76.7192 21.4059 76.4999 21.3621 76.4999 21.8446V26.6258H75.7542L73.3417 22.4587V25.4854C73.3417 26.0117 73.6487 25.924 73.9996 25.924V26.6258H72.0257V25.924C72.3766 25.924 72.6837 26.0117 72.6837 25.4854V21.8446C72.6837 21.5375 72.596 21.4059 72.3328 21.4059H72.0257V20.6602H73.7364L75.8419 24.2571ZM71.1046 25.5292C71.2361 25.924 71.3677 25.924 71.7625 25.924V26.6697H69.5693V25.924C69.9202 25.924 70.1834 26.0117 70.0079 25.5292C69.8763 25.1783 69.6132 24.1256 69.35 24.0378H68.8236V25.5292C68.8236 25.924 68.9552 25.924 69.2622 25.924V26.6697H67.1129V25.924C67.5077 25.924 67.8147 26.0117 67.8147 25.5292C67.8147 24.2571 67.8147 23.0289 67.8147 21.7569C67.8147 21.2744 67.5077 21.3621 67.1129 21.3621V20.6164L70.5343 20.5725C72.1573 20.5725 71.9819 23.8185 70.7536 23.994C70.6659 24.0378 70.6659 24.1694 70.7536 24.3887C71.0168 25.3538 70.7975 24.6519 71.1046 25.5292ZM68.7797 23.0728V23.2483C68.9991 23.2483 69.9641 23.2921 70.1395 23.1605C70.7098 22.8096 70.6659 21.4059 69.8764 21.4059C69.3938 21.4059 68.7797 21.2305 68.7797 21.8007V23.0728ZM62.9896 24.0817C62.9896 26.6697 65.139 26.582 65.139 24.0817V21.8007C65.139 21.2743 64.8319 21.4059 64.4371 21.4059V20.6164H66.8497V21.3621C66.4549 21.3621 66.1479 21.2744 66.1479 21.7569V24.2571C66.1479 27.5909 61.9807 27.3277 61.9807 24.2571V21.7569C61.9807 21.2305 61.6737 21.3621 61.2789 21.3621V20.6164H63.6914V21.3621C63.2967 21.3621 62.9896 21.2744 62.9896 21.7569V24.0817ZM58.4277 23.2483H61.1473V23.994H58.4277V26.6258H56.7608V25.8801C57.1556 25.8801 57.4627 25.9679 57.4627 25.4854C57.4627 24.2571 57.4627 23.0289 57.4627 21.8007C57.4627 21.2743 57.1556 21.4059 56.7608 21.4059V20.6164H61.1473V21.3621H58.7786C58.5593 21.3621 58.4715 21.4498 58.4715 21.7569C58.4277 21.8007 58.4277 23.2483 58.4277 23.2483ZM85.9747 24.0817C85.9747 26.6697 88.124 26.582 88.124 24.0817V21.8007C88.124 21.2743 87.817 21.4059 87.4222 21.4059V20.6164H89.8348V21.3621C89.44 21.3621 89.1329 21.2744 89.1329 21.7569V24.2571C89.1329 27.5909 84.9658 27.3277 84.9658 24.2571V21.7569C84.9658 21.2305 84.6587 21.3621 84.2639 21.3621V20.6164H86.6765V21.3621C86.2817 21.3621 85.9747 21.2744 85.9747 21.7569V24.0817ZM54.6992 25.5292C54.6992 26.0117 55.0062 25.924 55.401 25.924V26.6697H52.9885V25.924C53.3394 25.924 53.6903 26.0117 53.6903 25.5292C53.6903 24.301 53.6903 23.0728 53.6903 21.8446C53.6903 21.3182 53.3832 21.4498 52.9885 21.4498V20.7041H55.401V21.4498C55.0062 21.4498 54.6992 21.3621 54.6992 21.8446C54.6992 23.0289 54.6992 24.301 54.6992 25.5292ZM50.3566 23.2921H52.813V24.0378H50.3566V25.5292C50.3566 25.8363 50.4443 25.924 50.7075 25.924H52.813V26.6697H48.6897V25.924C49.0407 25.924 49.3916 26.0117 49.3916 25.5292C49.3916 24.301 49.3916 23.0728 49.3916 21.8446C49.3916 21.3182 49.0845 21.4498 48.6897 21.4498V20.7041H52.813V21.4498H50.7075C50.4443 21.4498 50.3566 21.5375 50.3566 21.8446V23.2921ZM45.7508 25.3976L47.1106 22.5026V25.5292C47.1106 26.0556 46.8036 25.9679 46.4526 25.9679V26.6697H48.4265V25.9679C48.0756 25.9679 47.7686 26.0556 47.7686 25.5292V21.8885C47.7686 21.3621 48.0318 21.4498 48.4265 21.4498V20.7041H46.7158L45.7508 22.8096L44.7858 20.7041H43.0751V21.4498C43.4698 21.4498 43.733 21.3621 43.733 21.8885V25.5292C43.733 26.0117 43.426 25.9679 43.0751 25.9679V26.6697H45.049V25.9679C44.6542 25.9679 44.391 26.0556 44.391 25.5292V22.5026L45.7508 25.3976ZM41.5837 24.2571V21.8446C41.5837 21.3621 41.3205 21.4059 40.9257 21.4059V20.6602H42.8119V21.4059C42.461 21.4059 42.2416 21.3621 42.2416 21.8446V26.6258H41.5398L39.1272 22.4587V25.4854C39.1272 26.0117 39.4343 25.924 39.7852 25.924V26.6258H37.8113V25.924C38.1622 25.924 38.4693 26.0117 38.4693 25.4854V21.8446C38.4693 21.3182 38.2061 21.4059 37.8113 21.4059V20.6602H39.522C39.522 20.7041 41.5837 24.2571 41.5837 24.2571ZM34.1267 23.2921H35.5742L35.4426 21.8446C35.3549 21.2744 34.3021 21.2305 34.2583 21.8446L34.1267 23.2921ZM35.6181 24.0378H34.0389L33.9074 25.5292C33.8635 25.924 34.1267 25.924 34.4776 25.924V26.6697H32.1528V25.924C32.5476 25.924 32.8546 26.0117 32.8985 25.5292C33.0301 23.9062 33.2055 22.2832 33.3371 20.6602C34.3021 20.6602 35.311 20.6602 36.276 20.6602C36.4076 21.9323 36.4954 23.2044 36.627 24.4326L36.7147 25.5292C36.8024 26.0556 37.1095 25.924 37.5043 25.924V26.6697H35.0478V25.924C35.4426 25.924 35.7935 25.9679 35.7058 25.5292C35.7935 25.5292 35.6181 24.0378 35.6181 24.0378ZM31.2316 25.5292C31.2316 26.0117 31.5387 25.924 31.9334 25.924V26.6697H29.5209V25.924C29.8718 25.924 30.2227 26.0117 30.2227 25.5292C30.2227 24.301 30.2227 23.0728 30.2227 21.8446C30.2227 21.3182 29.9157 21.4498 29.5209 21.4498V20.7041H31.9334V21.4498C31.5387 21.4498 31.2316 21.3621 31.2316 21.8446C31.2316 23.0728 31.2316 24.301 31.2316 25.5292ZM28.0295 20.6164C30.3543 20.6164 30.2227 26.6697 28.3365 26.6697C27.3277 26.6697 26.2749 26.6697 25.266 26.6697V25.924H25.6169C25.8801 25.924 25.9679 25.7924 25.9679 25.4854C25.9679 24.2571 25.9679 23.0289 25.9679 21.8007C25.9679 21.4937 25.8801 21.4059 25.6169 21.4059H25.266V20.6602C26.1872 20.6602 27.1083 20.6164 28.0295 20.6164ZM27.1083 25.8801H27.3277C29.2138 25.8801 29.0822 21.4059 27.2838 21.4059C27.0206 21.4059 26.9329 21.5375 26.9329 21.8007C26.9329 23.0289 26.9329 24.2571 26.9329 25.4854C26.9767 25.7047 26.9767 25.8363 27.1083 25.8801ZM15.8351 16.0106V10.2643L9.51862 19.0373L3.15825 10.1766V15.9229L9.51862 24.4765L15.8351 16.0106Z" fill="#FA5151"/>
  <path fill-rule="evenodd" clip-rule="evenodd" d="M24.5263 43.9683C24.534 43.7668 24.702 43.4789 24.9023 43.5404C25.0715 43.5923 25.1624 43.7955 25.1249 43.9661C25.0607 44.2576 24.684 44.1012 24.5263 43.9683ZM26.1821 41.0366C26.9716 40.8068 26.4803 41.5933 26.2096 42.0361C26.0185 42.3488 25.7705 43.1766 25.4948 43.2366C25.2905 43.2812 25.0732 42.9611 25.0461 42.775C25.0215 42.6057 25.0832 42.0796 25.1194 41.9012C25.2095 41.4559 25.7043 41.1758 26.1821 41.0366V41.0366ZM23.6275 35.1496C23.5571 35.4626 23.9903 35.6163 23.6148 35.9431C23.4023 36.1279 21.8796 37.2683 21.6846 37.3139C21.572 37.2347 21.1342 36.3042 20.3734 36.5749C20.3196 36.9514 20.6354 36.9484 20.5813 37.4078C20.5529 37.6494 20.3906 38.0525 20.3171 38.2988C20.1404 38.8914 19.9557 39.4755 19.8067 40.0876C19.6564 40.7054 19.5291 41.332 19.345 41.9269C18.7679 43.7922 18.0369 42.2007 18.0778 43.3077C18.137 44.9106 19.6129 44.6298 19.9989 43.732C20.2239 43.2087 20.2858 42.5314 20.3297 41.9182C20.3647 41.4279 20.4676 41.4064 20.5725 41.0471C20.6607 40.7452 20.6085 40.3644 20.757 40.1303C20.9251 39.9931 21.4241 40.4225 22.025 40.5224C22.5715 40.6134 22.6663 40.6244 22.101 41.904C21.8637 42.4412 21.6208 42.5369 21.9284 43.1587C22.3245 43.9599 23.2692 43.069 23.5573 42.834C23.6822 42.7321 23.9049 42.536 24.0819 42.5756C24.0883 42.5872 24.0947 42.5931 24.096 42.6129L24.1156 42.6889C24.1445 43.0833 23.1796 44.5496 22.9906 44.8056C22.6855 45.2188 22.2413 44.7374 22.1437 45.6971C22.0761 46.3616 22.3108 46.5212 22.9606 46.5039C23.1361 46.3662 23.5753 45.8144 23.7367 45.504C24.3278 44.3668 24.3312 44.2235 24.8041 44.6919C24.9027 44.7896 25.0657 44.9408 25.1588 45.0545L25.7707 45.8325C26.1447 46.3884 26.3856 47.2542 27.3974 46.7199C27.7604 46.5282 27.8567 46.1983 27.5726 45.8039C27.3022 45.4285 26.8418 45.1824 26.457 44.8598C26.277 44.7089 26.2666 44.6674 26.3814 44.4164C26.5305 44.0907 26.68 43.7612 26.8258 43.4186C26.9694 43.0812 27.127 42.7385 27.307 42.5091C27.5166 42.2421 27.635 41.8806 27.7914 41.605C27.9652 41.2989 28.8678 40.3581 27.4984 40.036C26.8685 39.8878 26.187 40.2607 25.833 40.3653C24.8684 40.6505 23.8192 41.5074 23.3941 41.4933C23.3309 41.0973 23.5636 40.5518 23.6994 40.1967C23.9102 39.6454 24.0694 39.5571 24.5161 39.2881C25.1315 38.9175 25.6056 38.7069 26.2131 38.3977C26.4406 38.2818 26.6129 38.2133 26.6499 37.9901C26.5343 37.8317 26.3532 37.7349 26.0858 37.7133C25.7442 37.6857 25.6443 37.8284 25.4434 37.9641C25.2792 38.075 24.3743 38.5042 24.1875 38.419L24.1501 38.3521C24.1472 38.343 24.1387 38.3269 24.1357 38.3151C24.1326 38.3026 24.1284 38.2889 24.1257 38.2744C24.096 38.1136 24.1651 37.8941 24.0373 37.6994C23.9415 37.5534 23.6862 37.3905 23.4112 37.4205C23.0321 38.2677 23.607 39.2714 21.8275 39.5193C20.8524 39.6551 21.0072 39.2914 21.268 38.6279C21.3589 38.3967 21.441 38.2086 21.5575 38.0063C21.6972 37.7638 21.8086 37.7636 22.1312 37.6222C23.0061 37.2388 23.8636 36.9221 24.7836 36.5859C25.0541 36.4871 25.2739 36.4504 25.3073 36.2033C25.3824 35.6474 23.99 34.9246 23.6275 35.1496V35.1496Z" fill="#FA5151"/>
  <path fill-rule="evenodd" clip-rule="evenodd" d="M95.4766 38.2939C95.2429 38.1638 95.413 38.0731 95.2548 37.785C95.1549 37.6028 95.0212 37.5555 95.0371 37.2769C95.1101 37.1638 96.4512 36.2585 96.6855 36.0911C97.522 35.4934 96.0394 34.7997 95.8045 34.7467C95.6232 34.7058 95.1395 34.6119 95.0039 34.7494C94.8748 34.8805 95.226 35.1024 95.3224 35.2073C95.2941 35.6598 94.6316 36.1988 94.2664 36.5944C94.0258 36.8549 93.1922 37.6417 93.1721 37.9487C93.6848 37.9561 94.1427 37.6372 94.4796 37.6492C94.6523 38.4763 94.0996 38.9749 93.6388 39.2726C92.7067 39.8746 91.9816 39.6086 91.6304 39.7565C91.531 40.0013 91.8281 40.1483 91.9129 40.391C91.6998 40.7747 90.8222 41.5967 90.4872 41.9179C90.3577 42.0421 89.0997 43.2981 88.7431 43.0084C88.5919 42.8782 88.6676 42.6664 88.7549 42.4377C88.8248 42.2544 88.8925 42.1186 88.9895 41.9531C90.0551 40.1353 90.5621 41.0497 91.0437 40.5104C91.5912 39.8974 90.8884 39.573 89.9664 39.5928C89.0129 39.6132 88.371 39.301 88.3414 39.7205C88.3107 40.1553 88.9956 40.4509 89.261 40.6037C89.2495 40.8987 89.0232 41.0751 88.8817 41.2234L88.4363 41.7366C87.8381 42.4508 86.9058 43.4624 87.5991 44.1948C87.9072 44.5203 88.2237 44.8531 88.8318 44.575C89.4261 44.3033 90.509 43.3934 90.907 42.912C91.0961 42.6834 91.864 41.4962 91.9934 41.1725C92.1191 40.858 92.0615 40.7713 92.2708 40.5467C92.581 40.4879 92.753 40.6543 93.0827 40.6597C93.4319 40.6655 93.5615 40.4913 93.8908 40.54C94.0171 41.018 93.6878 42.5109 93.5523 43.0198C93.4215 43.5108 93.3807 43.8303 93.6123 44.2686C93.7403 44.5106 94.072 44.934 94.3401 44.9766C94.8307 45.0544 95.0605 44.7166 95.1131 44.3022C95.1627 43.9114 95.1145 43.2944 95.3932 43.1348C95.6482 42.9886 96.1421 42.8572 96.4414 42.6975C96.7071 42.5557 97.1 42.2484 97.4855 42.307C97.4579 42.9762 96.0607 43.526 96.0235 44.3666C95.9994 44.9129 96.1616 44.8791 96.577 44.9903C97.2202 45.1624 98.0315 44.913 98.3773 44.5859C98.7594 44.2244 98.5048 44.1798 98.5393 43.698C98.5544 43.4872 98.8527 43.1408 98.9673 42.9728C99.1792 42.6623 99.7028 41.8308 99.6205 41.3224C99.5675 40.9945 99.3176 40.8092 99.1647 40.6315C98.9143 40.3406 98.8614 40.3733 98.332 40.4719C97.3248 40.6593 95.3191 41.9381 95.062 41.762C94.8348 41.4143 94.9596 40.8389 95.0709 40.4162C95.1988 39.9304 95.3892 39.695 95.7181 39.4825C95.876 39.3804 96.0664 39.2928 96.2252 39.1755C97.0567 38.5615 97.1101 38.9429 97.8688 38.53C97.8924 37.4825 95.8871 38.5222 95.4766 38.2939V38.2939Z" fill="#FA5151"/>
  <path fill-rule="evenodd" clip-rule="evenodd" d="M72.1558 44.5467C72.1012 44.1871 72.3909 44.2349 72.6972 44.1062C73.0152 43.9725 73.2394 43.9664 73.5049 44.0996C73.5806 44.6217 72.3625 44.6013 72.1558 44.5467ZM75.8568 35.1452C75.9882 34.4609 75.7571 34.2972 75.3413 34.0326L74.2164 33.5631C74.2112 33.5511 74.1927 33.5641 74.1814 33.5671C74.0662 33.8655 74.4526 34.3025 74.5537 34.6269C74.7036 35.1076 74.1709 38.0607 74.0333 38.4936C73.893 38.9345 73.6788 39.0264 73.2711 39.2167C71.7505 39.9265 72.6172 38.8888 72.2966 37.7473C72.1978 37.3954 72.0166 36.98 71.7133 36.8708C71.2602 37.0446 70.9488 38.1181 70.7468 38.6582C70.3679 39.6714 70.5352 39.6806 71.2506 40.4973L73.7483 40.5127C73.8941 41.0765 73.473 41.4146 72.911 41.4095C72.6352 41.407 71.1704 40.9614 71.3756 41.4462C71.4382 41.5941 72.039 41.9407 72.1734 41.9914C72.5815 42.1454 73.1021 42.1267 73.4897 42.2534C73.5096 42.6512 73.1363 42.8484 72.8096 43.0197C72.5844 43.1377 72.0781 43.4458 71.8981 43.4993C70.7036 43.8547 70.6795 44.0445 70.3948 44.1517C69.0966 44.6408 69.6893 45.4897 70.5591 46.0007C71.2223 46.3902 72.1181 46.0679 72.7552 45.7921C73.3047 45.5541 73.2944 45.595 73.9089 45.5055C74.1068 45.4767 74.255 45.3916 74.4675 45.3541C75.6455 45.146 76.7984 45.1965 77.6367 45.0194C78.9489 44.7422 78.248 43.9891 77.4056 43.9087C76.6503 43.8366 75.5206 44.1845 74.8184 43.903C74.627 43.1306 75.1693 42.7161 75.6621 42.4705C75.9396 42.3323 76.1054 42.2018 76.41 42.0692C76.7108 41.9383 76.9771 41.8819 77.1104 41.637C77.0806 41.384 76.8475 41.1562 76.6644 41.0467C76.3254 40.8442 76.1583 40.9985 75.8196 41.0481C74.9476 41.1757 74.9066 40.7003 75.1297 39.9751C75.2844 39.4723 75.7277 39.1019 76.0259 38.8574C76.2624 38.6635 77.0638 38.1447 76.9004 37.7959C76.6121 37.2821 75.7017 37.9437 75.3084 37.8978C75.2541 37.6606 75.7724 35.5849 75.8568 35.1452V35.1452Z" fill="#FA5151"/>
  <path fill-rule="evenodd" clip-rule="evenodd" d="M37.8221 41.0761C38.0272 41.0371 39.2695 40.8649 39.396 40.8995C39.4033 41.2579 38.8993 41.7656 38.6581 41.8704C38.2986 42.0265 38.2019 41.8168 38.0875 41.6359C37.9569 41.4291 37.8114 41.382 37.8221 41.0761ZM39.8704 38.7017C39.1686 38.2837 37.9725 39.463 37.4968 39.4328C37.2001 39.414 37.2233 38.9538 37.1606 38.6824C37.0707 38.293 36.9 37.9869 37.4249 38.0345C37.812 38.0697 38.0672 38.1508 38.456 38.0222C38.9659 37.8536 39.4976 37.3853 40.0648 37.4658C40.2092 37.8479 40.9116 39.2343 40.9073 39.5545C40.4591 39.5398 40.1531 39.3866 39.786 39.6385C39.434 39.88 39.665 39.7949 39.0503 40.1505C36.5436 41.6008 36.9536 40.034 37.4145 39.9561C37.752 39.8991 40.1074 39.8532 39.8704 38.7017V38.7017ZM38.4382 34.6895C38.3711 34.9014 38.7669 35.2375 38.9755 35.4782C39.1236 35.649 39.4875 36.072 39.5182 36.387C39.3192 36.7713 38.5285 37.2293 38.0004 37.4241C36.626 37.9311 36.9112 37.0937 36.3897 36.6951C36.0194 37.0353 36.0574 37.6455 36.0571 38.2076C36.0557 40.0865 35.5333 41.354 34.6446 42.8821C34.5162 43.1027 34.3401 43.2549 34.2511 43.4C33.9304 43.923 34.6714 45.3677 35.6506 43.6003C35.8111 43.3106 35.8725 43.3246 36.0276 43.1145C36.537 42.4241 36.6883 41.4974 36.9167 41.3612C37.1577 41.5168 36.9542 41.9015 37.2616 42.5112C37.3816 42.7492 37.8057 43.1005 38.1144 43.1331C38.4568 42.9157 38.5243 42.6597 38.9787 42.4731C39.9855 42.0597 40.5725 41.8591 41.1093 40.6751C41.229 40.4112 41.1488 40.2437 41.3667 40.1408C41.9049 40.5212 41.1605 41.4605 40.8636 41.723C40.7141 41.8551 40.525 41.9573 40.5672 42.2709C41.0602 42.3688 41.8174 41.9339 42.1139 41.3057C42.5295 41.3374 43.3219 42.3445 43.6151 42.6243C43.8224 42.8221 44.1393 43.0385 44.3954 43.2322C44.8261 43.5579 45.6707 44.1227 46.2383 44.21C46.8305 44.3012 47.0174 44.162 46.9847 43.572C46.9403 42.7678 46.418 42.6047 46.1109 42.3315C45.9516 42.1899 45.9374 42.057 45.6699 42.0171C45.6398 42.318 45.7247 42.5779 45.5643 42.7821C45.2971 42.9352 43.7602 41.4735 43.4644 41.1952C43.2264 40.9712 43.0417 40.8239 42.8278 40.5374C42.2085 39.7081 43.7212 38.424 42.954 37.5847C42.6942 37.3005 41.9166 36.9669 42.0147 37.512C42.0392 37.6479 42.4594 38.4234 42.0212 39.2715C41.5773 39.1763 41.0871 37.8669 40.9448 37.4378C40.6689 36.6062 41.6461 36.2658 42.2444 35.9293C42.2122 35.4199 41.5568 35.5317 41.2393 35.6323C40.6304 35.8254 40.7178 35.9264 40.3287 35.5138C40.1155 35.2879 39.8858 35.0292 39.5915 34.8607C39.3478 34.7213 38.7298 34.6139 38.4382 34.6895V34.6895Z" fill="#FA5151"/>
  <path fill-rule="evenodd" clip-rule="evenodd" d="M62.6553 39.0987C63.6129 38.7967 62.4995 41.3153 62.3793 41.5772C62.1782 42.0151 61.988 42.3869 61.7464 42.7638C61.433 43.2527 61.3412 43.5027 60.6761 43.0876C59.5659 42.3947 60.2276 42.0253 60.8918 40.9508C61.5589 39.8717 61.6123 39.4276 62.6553 39.0987V39.0987ZM57.9456 40.0189C58.0947 40.2287 58.6478 40.559 59.0616 40.6245C59.8516 40.7495 59.6582 40.685 58.8726 42.7638C58.8246 42.8907 58.7878 42.9956 58.7525 43.1221C58.736 43.1814 58.7114 43.2683 58.7091 43.327C58.6897 43.8333 59.145 43.4151 59.3592 43.1539C59.7109 42.725 59.6436 42.6472 59.9226 42.6543L60.423 44.2483C60.5445 44.7624 61.4878 46.1984 62.6862 44.372C62.8434 44.1324 62.9426 43.9426 63.0891 43.7225C63.7437 42.7391 63.6617 42.9543 64.2196 41.6901C64.4168 41.2432 64.6015 40.5246 64.833 40.1975C65.2334 39.6318 65.3473 39.2502 64.8843 38.736C64.5558 38.3712 64.2728 38.0157 63.5433 37.9229C62.6359 37.8075 61.7935 38.4094 61.8629 37.6743C61.9305 36.9583 62.1906 36.6405 62.0197 35.8056C61.9132 35.2851 61.4972 34.6876 61.1984 34.5177C61.0406 34.428 60.6382 34.2793 60.4442 34.2116C59.9616 34.0432 60.0929 34.4377 60.1824 34.7647L60.6574 36.3959C60.7092 36.9271 60.5755 37.7449 60.4193 38.226C60.1096 39.1801 58.1534 39.6651 57.9456 40.0189V40.0189Z" fill="#FA5151"/>
  <path fill-rule="evenodd" clip-rule="evenodd" d="M55.3431 41.8549C55.394 41.534 56.0769 40.4665 56.3473 40.7055C56.7827 41.0905 55.5456 41.8084 55.3431 41.8549ZM51.701 39.9925C51.6542 40.3437 51.8732 40.5869 52.0461 40.7936C52.8578 41.7635 53.8935 40.7429 54.6193 40.6166C54.624 40.7952 53.9477 41.7236 53.8048 41.914C53.5203 42.2931 53.0104 42.5355 53.0319 43.3257C53.0487 43.9446 53.5316 44.5306 54.2088 44.2324L56.7223 42.4335C56.9311 42.2759 57.0843 42.0888 57.4416 42.1515C57.7366 42.2032 58.1047 42.4001 58.3716 42.2158C58.9411 41.8227 58.528 41.1942 58.2409 40.781C57.9652 40.3844 57.4433 40.1904 56.8807 39.9853C56.8342 39.338 57.9138 38.6847 57.0501 38.1858C56.3011 37.7531 56.0386 38.105 55.2807 38.5962C54.7399 38.9467 54.2451 39.2889 53.6461 39.596C51.7934 40.5457 52.2928 39.9327 51.701 39.9925V39.9925Z" fill="#FA5151"/>
  <path fill-rule="evenodd" clip-rule="evenodd" d="M6.04705 40.9456C6.02098 41.0824 6.16745 42.5156 6.18121 42.8595C6.21186 43.6283 6.26502 43.9859 6.689 44.4434C6.69699 44.4471 7.50713 44.4642 7.46351 43.7396C7.43391 43.248 7.20496 42.8503 7.33929 42.3744C7.60288 42.3095 7.94023 42.3131 8.24103 42.2696C8.56967 42.2221 8.7766 42.0963 9.09746 42.0982C9.01279 42.5527 8.4173 42.8568 8.24367 43.4739C8.0068 44.3157 8.75949 44.4521 9.44411 44.2927C9.79103 44.2119 10.3832 44.0846 10.5783 43.797C11.0883 43.0451 10.4457 43.2786 10.6427 42.5689C10.7848 42.0568 11.065 41.2354 10.7683 40.7621C10.6498 40.573 10.4168 40.3695 10.0887 40.3398C9.63215 40.2986 9.52257 40.4145 9.2679 40.6168C9.08097 40.7653 8.81114 40.9228 8.60465 41.0562C6.74257 42.2593 7.19303 42.0839 6.70769 41.4701C6.56276 41.2868 6.36108 40.978 6.04705 40.9456V40.9456Z" fill="#FA5151"/>
  <path fill-rule="evenodd" clip-rule="evenodd" d="M1.31122 43.2371C1.57354 43.145 1.79422 43.1 2.12115 43.0521C2.41862 43.0085 2.90498 42.8566 2.70954 43.2995C2.65217 43.4296 2.00589 44.4061 1.70633 44.3105C1.4604 44.1374 1.29977 43.6408 1.31122 43.2371V43.2371ZM0.00172627 42.0362C-0.0187132 42.0923 0.142745 44.7973 0.465249 45.1262C0.629691 45.2939 1.14301 45.4023 1.43496 45.3371C1.95688 45.2208 2.71544 44.8768 3.1541 44.6595C3.54718 44.4648 3.59598 44.4433 3.79002 44.0991C3.96218 43.7938 3.90347 43.9808 4.10721 43.7946C4.25526 43.6594 5.32174 42.3529 4.93466 41.7568C4.80476 41.5568 4.51373 41.3812 4.17878 41.323C3.72061 41.2433 3.55181 41.3906 3.22042 41.5666C2.68375 41.8517 2.17914 42.1106 1.62114 42.3635C1.28564 42.5155 1.05189 42.7124 0.787376 42.4555C0.616316 42.2894 0.306603 41.9464 0.00172627 42.0362V42.0362Z" fill="#FA5151"/>
  <path fill-rule="evenodd" clip-rule="evenodd" d="M4.13409 39.3435C3.79265 38.2132 4.24256 38.5253 4.65368 38.4406C4.8302 38.4042 4.88805 38.3105 5.05791 38.3349C5.44108 38.39 4.40601 39.3246 4.13409 39.3435ZM2.8082 37.0002C2.53638 37.2825 2.47932 38.65 2.53484 39.1277C2.59804 39.6713 3.05797 40.6153 3.61062 40.3784C3.97863 40.2206 3.70784 40.011 4.34109 39.9141C4.83243 39.8389 5.65566 39.4272 6.11991 39.1969C6.65325 38.9324 6.42921 38.7952 6.72098 38.5509C8.49037 37.0695 7.24953 35.8694 5.93568 36.6159C5.41303 36.9128 4.87725 37.1784 4.31952 37.4435C4.07552 37.5595 3.6564 37.8056 3.43541 37.6059C3.2434 37.4324 3.11774 37.0409 2.8082 37.0002V37.0002Z" fill="#FA5151"/>
  <path fill-rule="evenodd" clip-rule="evenodd" d="M40.916 44.0281C41.0482 44.2717 41.2876 44.3857 41.2843 44.7446C40.1952 45.3308 38.3583 44.0762 37.8686 44.2376C37.8063 44.467 38.9625 45.3171 39.3033 45.4982C40.0361 45.8873 40.8261 45.8459 41.6515 45.6235C41.9019 45.5561 42.4279 45.325 42.5992 45.1849C42.902 44.9373 42.9224 44.5511 42.5704 44.3391C41.7134 43.8229 40.7544 44.0843 41.0645 43.2215C41.5621 43.1016 43.0502 43.6621 42.9821 42.8583C42.9606 42.6044 42.4513 42.4428 42.1732 42.3905C41.4444 42.2535 40.7862 42.7546 40.1542 42.9795C39.8578 43.085 39.2392 43.1041 39.1186 43.2904C38.9559 43.5419 39.4834 43.821 39.6974 43.9067C40.0814 44.0605 40.4752 44.0203 40.916 44.0281Z" fill="#FA5151"/>
  <path fill-rule="evenodd" clip-rule="evenodd" d="M89.0773 36.4767C89.0483 36.5031 88.8897 36.5061 89.1119 36.8841C89.3921 37.3608 89.479 37.3999 89.9555 37.7677C90.2543 37.9983 90.2421 38.1359 90.7317 38.1475C91.1086 38.1564 91.5726 38.228 91.7813 37.9894C92.584 37.0713 90.462 36.8683 89.921 36.6995C89.6702 36.6213 89.2418 36.3263 89.0773 36.4767V36.4767Z" fill="#FA5151"/>
  <path fill-rule="evenodd" clip-rule="evenodd" d="M54.1575 36.2338C54.2665 36.5287 55.206 36.9505 55.552 37.0484C56.0343 37.185 57.1077 37.0263 57.3766 36.7135C57.8329 36.1827 56.6448 35.866 56.1274 35.9346C55.8114 35.9765 55.5645 36.0809 55.209 36.1183C54.8934 36.1516 54.3972 36.1028 54.1575 36.2338V36.2338Z" fill="#FA5151"/>
  <path fill-rule="evenodd" clip-rule="evenodd" d="M41.1658 33.2734C41.2777 33.5069 41.3901 33.5053 41.6459 33.6226C42.2196 33.8856 41.385 34.5678 42.6008 34.3562C42.8877 34.3062 43.1005 34.2976 43.1291 34.0316C43.1732 33.6212 42.6917 33.2106 42.4297 33.0788C42.0486 32.8872 41.3558 32.8871 41.1658 33.2734V33.2734Z" fill="#FA5151"/>
  <path fill-rule="evenodd" clip-rule="evenodd" d="M37.0316 46.9835C37.2778 46.5043 36.9852 46.1804 36.8359 45.7618C36.7575 45.5417 36.7289 45.3614 36.6428 45.1413C36.4915 44.7549 36.4743 44.7081 36.2796 44.6685C36.2106 44.9524 36.2444 45.0562 36.1308 45.3747C35.896 46.0324 36.2998 47.1497 37.0316 46.9835V46.9835Z" fill="#FA5151"/>
</svg>
