<svg xmlns="http://www.w3.org/2000/svg" fill="none" viewBox="0 0 63 58" class="design-iconfont">
  <path d="M11.3723 1.03613C11.2067 3.86051 10.0784 8.04523 7.59951 10.5171C5.24854 12.8614 3.07477 11.6078 2.77806 8.70739C2.56543 6.62815 2.96056 3.53226 5.09198 0.252254C4.39425 -0.174267 4.02778 -0.0410835 3.55546 0.509869C-0.276824 4.98088 -0.468367 9.32207 0.476478 11.9648C1.42787 14.6258 4.46576 15.4911 5.53452 17.9169C6.71008 20.585 8.71693 25.2427 9.31875 26.4354C16.8837 23.111 12.1245 22.4082 13.695 17.6323C14.7966 13.4902 15.0362 13.1599 13.7409 11.3118C11.4883 8.09756 12.8774 8.38972 12.9124 2.45174C12.9176 1.55981 12.0567 1.14314 11.3723 1.03613V1.03613ZM50.0293 17.0544C53.0023 16.1731 56.6185 16.5687 59.4786 18.3524C60.201 18.8036 60.7471 19.3538 61.0979 19.9434C62.2257 21.8381 61.1591 22.7315 59.5374 23.7067C58.244 24.4847 56.0982 26.6035 59.3546 26.6035C60.0947 26.6035 61.0423 26.4542 62.1927 26.0177C62.6754 32.6593 48.3402 28.8783 58.9638 22.1905C60.0516 21.5363 59.5088 20.6893 58.7298 20.2027C55.4212 18.2013 51.5109 18.8871 49.5948 22.3878C48.9134 23.6327 48.6256 25.3161 48.6114 26.9479C48.9642 31.2692 49.614 34.3762 50.8862 37.3878C40.2209 36.6094 39.7388 33.4322 39.807 25.2688C39.8393 21.4059 39.617 17.7808 41.5489 14.6904C44.774 16.012 46.582 14.2228 50.0293 17.0544V17.0544ZM39.4553 14.015C36.8847 13.153 34.207 11.9352 32.0966 10.1358C30.2911 11.3745 29.0035 13.1181 28.5662 15.8792C27.4407 22.9849 27.4772 24.9966 25.4485 28.3472C34.7577 30.7135 34.9663 29.3038 36.0594 24.4305C36.6182 21.9392 36.1739 14.8191 39.4553 14.015V14.015ZM14.9216 9.64908C17.4915 10.5822 17.9805 12.0206 17.711 13.9874C17.4223 16.0934 16.9041 18.168 16.4602 20.2711C15.7546 23.6098 14.4226 28.784 12.3394 31.549C24.733 35.1825 24.3194 20.9024 25.4781 14.9593C26.1571 11.477 27.5087 9.74293 30.3384 8.23303C29.3067 7.18543 26.1746 2.75427 23.4634 2.50871C21.2169 2.30518 16.7226 7.26201 14.9216 9.64908V9.64908Z" fill="url(#o0e1h9a4c__paint0_radial_1134_8119)"/>
  <path d="M43.2328 40.1519C43.2328 40.9995 43.2816 41.4677 43.0621 42.1674H45.9655V40.1519H47.9383V42.1674H53.5534L53.1169 43.0173H47.9383V47.3362H53.5163L53.0797 48.186H47.9383V50.8589H45.9655V48.186H40.3094V47.3362H45.9655V43.0173H42.7584L42.3287 44.2011H40.2359C40.4731 43.5479 40.71 42.8949 40.9472 42.2416C41.2298 41.4629 41.2599 40.9854 41.2599 40.1519C41.9176 40.1519 42.5752 40.1519 43.2328 40.1519V40.1519ZM11.74 40.1519C11.74 41.6502 11.74 43.1485 11.74 44.6468C11.74 46.8476 11.2432 48.7632 10.6816 50.8589H8.64185C9.18849 48.8192 9.76715 46.8698 9.76715 44.73V40.1519H11.74ZM16.6569 41.0876V49.6531H14.6842V41.0876H16.6569ZM21.6154 40.1519V50.8589H19.6425V40.1519H21.6154ZM37.1456 40.5805V43.3329H35.1728V40.5805H37.1456ZM26.896 41.4302V43.3329H24.9233V41.4302V40.5805H26.896H29.7882V40.1519H31.7609V40.5805H34.7362L34.2997 41.4302H31.7609V43.1041V43.5815L31.3794 43.8786L30.0568 44.9037L28.6762 45.9735V50.8589H26.7034V47.5023L24.9137 48.8892V46.3977L28.8746 43.3336L29.7882 42.6267V41.4302H26.896V41.4302ZM37.1456 50.8589H33.2993L29.6416 45.8007L31.2368 44.6449L32.4829 46.3685C33.3397 45.6086 34.3611 44.7004 34.4511 44.6105L37.1456 44.6124C37.0816 44.6764 34.9367 46.6938 33.6158 47.9356L34.6017 49.2992L37.1456 49.3031V50.8589V50.8589Z" fill="#474443"/>
  <path fill-rule="evenodd" clip-rule="evenodd" d="M40.6688 57.9414V55.4908H38.8479V56.0155H39.6245V57.4271H38.0765V54.457H40.3867L40.6535 53.9375H37.0217V57.9414H39.3674L39.6245 57.5111V57.9414H40.6688Z" fill="#474443"/>
  <path fill-rule="evenodd" clip-rule="evenodd" d="M32.9431 57.9414V53.9375H31.9041V56.4616L30.4767 53.9375H29.2908V57.9414H30.3403V55.475L31.7781 57.9414H32.9431Z" fill="#474443"/>
  <path fill-rule="evenodd" clip-rule="evenodd" d="M25.248 57.4219H22.5756V54.457H24.8677L25.1345 53.9375H21.5261V57.9414H24.9812L25.248 57.4219Z" fill="#474443"/>
  <defs>
    <radialGradient id="o0e1h9a4c__paint0_radial_1134_8119" cx="0" cy="0" r="1" gradientUnits="userSpaceOnUse" gradientTransform="matrix(-2.86883 17.34313 -17.34303 -2.86882 38.567 5.23472)">
      <stop stop-color="#FFF000"/>
      <stop offset="1" stop-color="#EA5824"/>
    </radialGradient>
  </defs>
</svg>
