<svg xmlns="http://www.w3.org/2000/svg" fill="none" viewBox="0 0 46 59" class="design-iconfont">
  <path fill-rule="evenodd" clip-rule="evenodd" d="M26.58 25.209L26.633 25.2504C26.8336 25.396 26.8532 25.3581 26.9895 25.5692C27.4471 26.2777 28.9016 27.4671 29.6574 27.6078C29.7981 27.634 30.2127 27.593 30.3105 27.5058L30.2579 27.5006C31.0036 27.3341 31.7437 26.6327 32.1417 26.1788C32.2196 26.09 32.2149 26.0348 32.331 26.0156C32.5738 25.9755 32.7275 25.9845 32.956 25.9084C33.344 25.7794 33.5819 25.5943 33.6846 25.1944L33.6511 25.5127C33.7287 25.449 33.7031 25.4322 33.7501 25.3462C33.7369 26.1714 32.8564 26.2864 32.5259 26.3958C32.3918 26.4401 32.0181 27.0233 31.1893 27.3871C30.7052 27.5995 30.4724 27.6148 29.8999 27.6391C30.2635 27.8486 30.7792 27.985 31.2672 28.0398C31.6328 28.0808 31.7592 28.0815 31.9879 27.8802C32.1052 27.777 32.3105 27.5544 32.3876 27.3762C32.3227 27.2484 32.2201 27.2121 32.1369 27.0954C32.2758 27.0097 32.4861 26.9802 32.6473 26.9118C33.0802 26.7281 33.677 26.2456 33.8139 25.892C34.0411 25.8964 34.8899 25.9986 35.022 25.8952C35.0982 25.8354 35.4334 25.1622 35.4903 25.017C35.3211 24.7469 35.1847 24.8186 34.6111 24.6917C34.1514 24.59 33.1695 24.3319 32.8114 24.0804C32.6342 23.9558 32.3735 23.6576 32.2959 23.3782C32.4243 23.4506 32.4831 23.5421 32.5923 23.6257C32.6892 23.6999 32.7854 23.7928 32.9108 23.8683C33.4495 24.1928 34.8833 24.4808 35.512 24.542C36.1548 24.6045 36.5796 24.3077 36.8102 23.7038C36.9643 23.3005 36.9537 22.6822 36.7734 22.2949C36.6857 22.1064 36.6317 22.1066 36.4379 22.179C36.4623 22.4548 36.5321 22.6399 36.5302 22.9668C36.5245 23.9344 36.1818 24.1999 36.0088 23.5663C35.9447 23.3318 35.9134 23.0744 35.7682 22.9181C35.6673 22.9914 35.5687 23.1396 35.5246 23.2547C35.3022 23.2177 35.0839 23.0656 34.8799 23.018C34.6862 22.9728 34.43 23.2705 34.2635 23.1864L33.7193 22.8319C33.221 22.5044 32.5398 22.1328 32.0002 21.862C31.5818 21.6519 31.1289 21.4571 30.5878 21.5886C29.0291 21.9674 28.1997 23.1941 26.5897 22.8511C25.7684 22.6761 23.8781 21.3264 23.1965 20.8657C22.1495 20.1582 21.0823 19.3655 20.0536 18.6276C19.71 18.3812 19.3817 18.1301 18.9915 17.8959C18.3941 17.5372 17.8054 17.2211 17.059 17.1375C16.704 17.0978 16.5441 17.1597 16.2332 17.1794C16.1455 17.0704 16.0843 17.0206 16.0181 16.9068C16.8821 16.5684 17.9896 17.0651 18.6074 17.4103C19.3228 17.81 20.6999 18.9113 21.4735 19.4774C21.7842 19.7048 22.1166 19.9313 22.4434 20.1613C22.7744 20.3944 23.0884 20.6141 23.4259 20.8326C23.5843 20.9352 23.7562 21.0513 23.9167 21.1543C24.0596 21.246 24.2815 21.4118 24.4234 21.4692C24.359 20.6126 23.6854 19.1054 23.3029 18.5113C23.1731 18.3097 23.0463 18.095 22.9169 17.889C22.6605 17.4808 22.3074 17.0593 22.0529 16.7049L21.7068 16.2939C21.6143 16.1759 21.6309 16.1857 21.557 16.1643C21.5739 16.1088 21.5845 16.1174 21.5294 16.1344C21.4846 16.0296 21.0735 15.6236 20.9684 15.5749C20.9856 15.52 20.995 15.5293 20.9403 15.5467C20.9599 15.4905 20.9658 15.5031 20.9097 15.5226C20.9261 15.468 20.9328 15.4805 20.878 15.4973C20.8479 15.4099 20.4829 15.1191 20.4084 15.0991C20.4268 15.0425 20.4306 15.0586 20.3733 15.077C20.3307 14.9756 19.8995 14.7028 19.8167 14.6822L19.7445 14.6122C19.6633 14.5652 19.7092 14.5882 19.6399 14.5789C19.6569 14.5225 19.6608 14.5445 19.5918 14.5419C19.5918 14.6128 19.5744 14.6024 19.6399 14.5789C19.6441 14.584 19.6513 14.5848 19.6534 14.5933C19.6556 14.6019 19.6642 14.6049 19.6672 14.6075C19.752 14.6785 19.7499 14.6689 19.8167 14.6822C19.8628 14.7655 20.3021 15.0595 20.3733 15.077C20.3514 15.1361 20.3488 15.119 20.4084 15.0991C20.4486 15.1947 20.8289 15.4791 20.878 15.4973C20.8603 15.5544 20.8533 15.5422 20.9097 15.5226C20.8933 15.5753 20.8872 15.5631 20.9403 15.5467C20.9218 15.6019 20.9129 15.592 20.9684 15.5749L20.9871 15.6124C21.0045 15.6383 20.9907 15.625 21.023 15.6608L21.5294 16.1344C21.5092 16.1927 21.4987 16.184 21.557 16.1643C21.5772 16.2374 22.2182 17.0044 22.3301 17.1564C22.5777 17.493 22.804 17.8305 23.0431 18.2091C23.3846 18.75 24.0104 19.9086 24.1649 20.6253C24.0794 20.1358 23.3096 18.8462 23.049 18.4594C22.2272 17.2397 21.0549 15.8894 19.8005 15.0894C19.2191 14.7186 18.8102 14.517 18.1698 14.2528C18.0759 14.214 17.5948 14.0568 17.5754 14.0405C17.0785 14.1361 16.6626 14.4305 16.0629 14.2896C14.6645 13.9609 15.3266 11.9652 13.4925 12.6058C13.3099 12.6696 12.9968 12.8256 12.8468 12.857C12.0516 12.1706 11.6566 10.8815 12.284 9.59437C12.7275 8.68469 13.4782 8.02608 14.5253 7.93374C14.8582 7.90438 14.7655 7.93993 14.7845 7.97627C14.8352 8.07318 14.7843 8.05461 14.7034 8.0914C14.6953 8.0951 14.6867 8.09697 14.6791 8.09996C14.6716 8.10291 14.6612 8.10565 14.655 8.10787C14.6489 8.11008 14.6382 8.11127 14.631 8.11552L14.7785 8.13761C14.5508 8.26569 14.3759 8.20388 13.8494 8.60932C13.3249 9.01324 12.9416 9.77506 12.849 10.4759C12.799 10.8542 12.8587 11.4507 13.0707 11.671C13.8076 11.4714 14.5453 11.13 15.3573 11.9091C15.6093 12.151 15.8006 12.4227 15.987 12.7926C16.2657 13.3454 16.2561 13.3549 16.935 13.142C18.5948 12.6217 20.6352 12.8648 22.0726 13.5141C22.96 13.9149 25.0183 15.2125 25.8603 15.778C26.0307 15.8924 26.1533 15.9814 26.3029 16.0924C26.5462 16.2727 26.4769 16.2874 26.8088 16.1687C27.6934 15.8523 28.7871 15.2861 29.4101 14.5921C29.6067 14.373 29.5008 14.4283 29.6385 14.4321L29.6217 14.5072C29.6684 14.4805 29.6384 14.5235 29.69 14.4569C29.6621 14.4 29.7052 14.4421 29.6385 14.4321C29.5771 14.3623 29.3132 14.2919 29.1823 14.242C28.063 13.8154 27.1083 13.4191 26.0179 12.8955C25.4291 12.6127 24.8781 12.3321 24.3228 12.0118C23.5214 11.5495 23.4401 11.4525 22.7574 10.9997C22.7406 10.6857 22.7609 10.2901 22.759 9.96318C22.7584 9.85071 22.7794 9.54285 22.7626 9.45781C22.7392 9.33922 22.3824 9.0319 22.2696 8.90508C21.6165 8.17061 20.846 6.89066 20.4367 6.05367L20.0789 5.33235C20.1107 5.50642 20.475 6.22644 20.562 6.40389C20.7301 6.74677 20.9163 7.06292 21.1056 7.37521C21.3065 7.70653 21.6443 8.19573 21.8899 8.49867L22.2323 8.91354C22.452 9.15874 22.461 9.0589 22.3852 9.12552L21.6458 8.3238C20.2181 6.63815 19.1666 4.32372 18.543 2.17137L18.256 1.08126C18.2449 0.960681 18.2321 1.02265 18.2861 0.947754C17.5489 1.14218 16.6445 1.54916 16.0207 1.88605C14.8239 2.53237 13.747 3.32529 12.8307 4.27376C12.2302 4.89533 11.5573 5.75387 11.0949 6.54832C10.6934 7.23812 10.3458 7.87975 10.0614 8.71292C9.78084 9.53486 9.57432 10.4002 9.48358 11.3355C9.28995 13.3315 9.61186 15.1872 10.198 16.9191C10.8733 18.9147 11.9059 20.5267 13.1057 22.0047L15.305 24.6011C15.6725 25.0143 16.0358 25.5052 16.3756 25.9126C16.6375 26.2267 17.2212 26.9939 17.4028 27.2977C17.6411 27.6964 17.7452 27.8269 17.9983 28.3008C18.5439 29.3223 19.5317 31.3812 18.8627 32.5988C18.724 32.8511 18.5647 32.968 18.521 33.0495H22.6218C22.6311 32.8903 22.5644 32.2736 22.5853 31.7853C22.6615 30.0112 23.3366 28.0995 23.7783 26.3798C23.8776 25.9929 24.2521 24.5274 24.2878 24.2306C23.9677 23.9169 20.4993 22.408 20.0281 22.1923C19.5939 21.9935 16.1083 20.3972 15.8034 20.102C15.8654 20.0293 15.9248 20.0098 16.0103 19.9612C16.1462 19.8841 16.135 19.9029 16.261 19.9536L16.224 19.9191C16.6807 20.1481 17.1335 20.32 17.584 20.518C18.0488 20.7224 18.4862 20.9195 18.9373 21.1257C22.0606 22.5535 23.7158 23.3825 26.6427 25.2226L26.58 25.209V25.209ZM26.5701 25.2151C26.5639 25.166 26.5772 25.1792 26.5251 25.1813C26.5251 25.2288 26.5151 25.2124 26.5701 25.2151ZM26.3679 25.089C26.4094 25.1395 26.3918 25.1325 26.472 25.1569L26.5254 25.1848C26.5254 25.1217 26.5378 25.1386 26.472 25.1569L26.3679 25.089ZM16.3573 20.0204C16.3481 19.968 16.3635 19.9812 16.3091 19.9834C16.3091 20.0343 16.2985 20.0166 16.3573 20.0204ZM16.3165 19.9873L16.2642 19.9466C16.2642 20.0011 16.2529 19.9816 16.3165 19.9873ZM17.2722 8.28842L17.3497 8.22481C17.3341 8.11693 17.2821 8.08007 17.2216 7.98821C16.9515 7.57764 16.5181 6.665 16.4252 6.21723L17.2689 6.0324C17.5184 7.19167 17.5327 7.28382 18.0712 8.23141C18.3515 8.72473 19.0876 9.48533 19.5276 9.80263C19.7616 9.97137 20.4858 10.4874 20.7999 10.5577C20.9126 10.2493 20.9406 10.3463 20.8517 9.96098C21.174 10.1282 21.1715 10.6581 20.912 11.0867C20.6912 11.0219 20.4944 10.8341 20.2913 10.7621C20.2575 10.8034 20.2698 10.8016 20.2585 10.8296C20.2172 10.8242 20.2255 10.8147 20.2311 10.8556C20.1836 10.8477 20.1916 10.8365 20.2007 10.8826C20.1538 10.8731 20.1621 10.8629 20.172 10.9092C20.1238 10.8983 20.1328 10.8864 20.1356 10.9332C20.0872 10.9195 20.0937 10.9053 20.0973 10.9505C20.0473 10.9375 20.0579 10.9258 20.0579 10.9752L20.0973 10.9505L20.1356 10.9332C20.1894 10.9474 20.1827 10.9615 20.172 10.9092C20.2187 10.9208 20.2094 10.93 20.2007 10.8826C20.2463 10.8922 20.2366 10.9017 20.2311 10.8556C20.2738 10.8638 20.2648 10.8726 20.2585 10.8296L20.2546 10.8242C19.9918 11.5245 18.4496 11.9204 17.4185 11.0767C16.8802 10.6362 16.5085 9.66043 16.8277 8.8739C16.9116 8.66714 17.1347 8.32422 17.2722 8.28842V8.28842ZM17.1739 8.4135C17.2711 8.34913 17.2221 8.39152 17.2668 8.28254C17.2118 8.34086 17.2111 8.34164 17.1739 8.4135Z" fill="#9DBED9"/>
  <path fill-rule="evenodd" clip-rule="evenodd" d="M35.1521 38.1614C35.1521 38.2261 35.1715 38.2457 35.236 38.2457H37.6989V38.9197H35.1521V40.0712C35.1521 40.1359 35.1715 40.1555 35.236 40.1555H37.6989V40.8295H34.1445V36.2235H37.6989V37.0099H35.1521V38.1614V38.1614ZM32.3813 42.5989H42.3447C42.3447 43.3862 42.0309 44.1737 41.4054 44.6614C41.326 44.7234 41.2349 44.8207 41.1413 44.8458C41.1168 44.7536 41.1356 44.8276 41.1086 44.7662C40.9226 44.3422 40.9049 44.2719 40.8409 43.771C40.7774 43.274 41.2257 43.3853 39.1542 43.3853C39.1542 44.052 39.1818 44.4394 39.3598 45.0607C39.3994 45.1991 39.4116 45.2407 39.4613 45.3521C39.5027 45.4452 39.5297 45.5346 39.5797 45.6265L39.8819 46.1377C39.5472 46.1377 39.3146 46.0654 39.1316 45.9076L39.0587 45.8403C38.9015 45.6812 38.8041 45.5219 38.7305 45.2991C38.5481 44.7466 38.5105 44.0971 38.5105 43.3853H36.8593C36.8593 44.1884 36.8735 45.2178 37.1956 45.9406C37.233 46.0246 37.2547 46.0605 37.2791 46.1658C37.2027 46.129 36.9573 46.1274 36.8382 46.1026C36.4205 46.0158 36.2239 45.6969 36.125 45.2736C36.0236 44.8394 36.0462 44.0832 36.0501 43.5795C36.0509 43.4748 36.0717 43.3853 35.9637 43.3853H34.3964L34.3684 44.0313C34.3684 45.2068 34.497 46.0785 34.9959 46.7719C35.452 47.4058 36.2318 47.8228 37.3071 47.8228V46.2219L37.4937 46.5402C37.608 46.7257 37.8185 46.9846 37.9827 47.1168C38.5728 47.592 39.0679 47.8228 39.9379 47.8228V46.2219C40.082 46.3188 40.5055 46.9774 41.6766 47.4541C42.3251 47.7181 42.4678 47.7374 43.1808 47.9387C43.8866 48.1381 43.7652 48.0767 43.8041 47.827L44.0401 46.5752C44.0659 46.43 44.1079 46.275 44.1079 46.1377C43.7681 46.1301 42.8706 45.8657 42.7645 45.8568L43.0235 45.555C44.2984 44.2134 44.1079 42.5282 44.1079 40.8295H39.4621V40.1555H42.3447C42.4092 40.1555 42.4287 40.1359 42.4287 40.0712V38.9197H39.4621V38.2457H42.3447C42.4092 38.2457 42.4287 38.2261 42.4287 38.1614V37.0099H39.4621V36.2235H43.0724V34.4541H32.3813V42.5989V42.5989Z" fill="#1B2959"/>
  <path fill-rule="evenodd" clip-rule="evenodd" d="M36.2437 23.7386C36.1789 23.6853 36.168 23.6262 36.1447 23.5393C36.1255 23.4674 36.1067 23.3933 36.088 23.3176C35.9474 22.7487 35.8162 22.8918 35.89 22.7036C35.9405 22.575 36.1485 22.3449 36.3029 22.2669C36.3989 22.6197 36.4785 23.4619 36.2437 23.7386ZM14.7493 28.136C14.8061 28.1109 14.7921 28.1067 14.7747 28.1662C14.7803 28.1684 14.7905 28.1715 14.7915 28.1729C14.7921 28.1736 14.7866 28.1847 14.7869 28.1819C14.7876 28.1742 14.7694 28.1894 14.7608 28.1934C13.7134 27.872 13.4047 27.9048 12.2891 27.3191C11.8915 27.1103 10.4562 26.2133 10.3275 25.9399C10.2703 25.9308 10.2775 25.9486 10.2905 25.8973C10.2414 25.9094 10.2493 25.9199 10.2616 25.8712C10.2097 25.8858 10.2178 25.8969 10.2306 25.845C10.1797 25.8562 10.1881 25.8668 10.2019 25.8168C10.1511 25.8324 10.1588 25.8442 10.169 25.7931C10.1203 25.8076 10.1287 25.8176 10.139 25.7683C10.0905 25.7774 10.0993 25.7873 10.1116 25.7395C10.0629 25.7514 10.0716 25.7619 10.081 25.7133C10.0322 25.726 10.0405 25.7361 10.0517 25.6874C10.0026 25.6975 10.0115 25.7073 10.024 25.6588C9.97555 25.6715 9.98518 25.6807 9.99523 25.6314C9.94698 25.6425 9.95625 25.6518 9.96761 25.6034C9.91839 25.6136 9.92751 25.6233 9.94017 25.5745C9.89178 25.5872 9.90155 25.5962 9.91143 25.5469C9.86257 25.558 9.87187 25.5671 9.88487 25.5184C9.83449 25.529 9.84668 25.5361 9.86203 25.4854C9.81256 25.498 9.82342 25.5062 9.83449 25.4556C9.78374 25.4684 9.79304 25.4775 9.80795 25.427C9.75481 25.4396 9.76583 25.4479 9.78267 25.3952C9.73119 25.412 9.74356 25.4182 9.75708 25.3648C9.70493 25.3788 9.71426 25.3884 9.72885 25.3362C9.67862 25.3499 9.68905 25.3582 9.70192 25.3071C9.65448 25.3196 9.66558 25.3269 9.67582 25.2778C9.61947 25.2756 9.6413 25.3059 9.62711 25.2435C9.57817 25.2551 9.58961 25.2627 9.60133 25.2125C9.55039 25.2254 9.56198 25.2323 9.57823 25.1814C9.52588 25.1912 9.5403 25.1975 9.55764 25.1444C9.5049 25.1599 9.51653 25.1672 9.53187 25.1137C9.4777 25.1306 9.48996 25.1379 9.5045 25.0822C9.4625 25.0613 9.49199 25.0958 9.44184 25.036C9.4004 24.9866 9.44056 25.0588 9.41583 24.9793C9.36228 24.9926 9.37544 24.9995 9.39128 24.9451C9.32123 24.9198 9.36005 24.9916 9.32285 24.876C9.2677 24.8882 9.28399 24.8932 9.30363 24.8377C9.24723 24.8579 9.26066 24.8636 9.2781 24.8058C9.22452 24.8252 9.23865 24.8301 9.25269 24.7738C9.19741 24.771 9.21248 24.8085 9.2166 24.7283C9.15842 24.7496 9.1733 24.7541 9.1925 24.695C9.14308 24.6914 9.14874 24.7447 9.1528 24.6532C9.09388 24.6275 9.14755 24.6666 9.08674 24.6058C9.07993 24.599 9.05184 24.5618 9.04958 24.5584C9.00484 24.4918 9.00305 24.5 8.99269 24.4177C8.91568 24.3912 9.00049 24.4374 8.94137 24.3861C8.93557 24.381 8.91946 24.3635 8.91417 24.3574C8.48895 23.8623 7.8663 22.3837 7.70486 21.7571C7.40353 20.5878 7.30486 19.5031 7.43585 18.2087C7.46714 18.2174 8.06711 18.7077 8.17073 18.7857C9.04883 19.4466 9.88774 19.927 11.0833 19.9181L11.8619 21.0901C12.2415 21.628 12.7431 22.2182 13.1688 22.7275L14.5186 24.2869C14.4837 24.4158 14.3929 24.5713 14.3375 24.719C13.6565 26.5361 14.7175 27.9174 14.7493 28.136V28.136ZM28.8556 22.012C28.7498 22.0948 28.2552 22.316 28.0916 22.3949C27.0841 22.8814 26.2618 22.5793 25.4745 22.1165C24.5572 21.5773 24.7618 21.7955 24.6525 21.2359C24.6202 21.0706 24.5896 20.9232 24.5521 20.7712C24.4789 20.4751 24.3853 20.1833 24.2866 19.9156L23.9608 19.1241C24.1148 19.2489 24.2948 19.4583 24.4466 19.6112C24.9539 20.1217 25.4087 20.523 26.0405 20.9345C27.3495 21.787 28.5712 21.8769 28.8556 22.012V22.012ZM18.5208 33.0496C18.5644 32.9681 18.7238 32.8512 18.8624 32.599C19.5314 31.3813 18.5437 29.3224 17.9981 28.3009C17.745 27.827 17.6408 27.6966 17.4026 27.2979C17.221 26.994 16.6372 26.2268 16.3753 25.9127C16.0355 25.5053 15.6723 25.0145 15.3047 24.6012L13.1054 22.0049C11.9056 20.5268 10.8731 18.9149 10.1977 16.9192C9.61158 15.1874 9.28968 13.3316 9.4833 11.3357C9.57404 10.4003 9.78056 9.53499 10.0611 8.71305C10.3455 7.87987 10.6932 7.23825 11.0946 6.54845C11.557 5.754 12.2299 4.89546 12.8304 4.27388C13.7467 3.32541 14.8236 2.53249 16.0204 1.88617C16.6443 1.54929 17.5487 1.14231 18.2858 0.947881L18.7983 0.836323C18.9527 1.9367 19.323 3.25613 19.6928 4.29519C19.7701 4.5123 20.0626 5.19691 20.0787 5.33248L20.4364 6.05379C20.8457 6.89079 21.6162 8.17074 22.2693 8.90521C22.3821 9.03202 22.7389 9.33935 22.7623 9.45794C22.7791 9.54298 22.7581 9.85083 22.7587 9.96331C22.7606 10.2902 22.7403 10.6858 22.7571 10.9999C23.4398 11.4527 23.5211 11.5497 24.3226 12.012C24.8778 12.3322 25.4288 12.6129 26.0176 12.8957C27.108 13.4193 28.0627 13.8155 29.1821 14.2421C29.3129 14.292 29.5768 14.3625 29.6382 14.4322C29.705 14.4422 29.6619 14.4001 29.6897 14.457C29.6381 14.5237 29.6681 14.4806 29.6214 14.5073C29.5639 14.6813 29.0412 15.1671 28.8788 15.3238C28.3909 15.7943 27.362 16.4607 26.6628 16.6402C26.5115 16.679 26.493 16.6544 26.4006 16.5839C25.2145 15.6779 23.5882 14.5339 22.1628 13.842C18.4227 12.0267 16.5292 14.3772 15.8303 13.3732C15.6179 13.068 15.4757 12.6963 15.2483 12.4119C14.443 11.4047 13.3584 12.1223 12.9584 12.2097C12.3404 11.5484 12.2449 10.5454 12.6882 9.57937C13.0253 8.84484 13.9454 8.04033 14.6307 8.11565C14.638 8.1114 14.6486 8.11021 14.6547 8.108C14.6609 8.10578 14.6714 8.10303 14.6789 8.10008C14.6865 8.09709 14.695 8.09523 14.7031 8.09153C14.784 8.05474 14.8349 8.07331 14.7842 7.9764C14.7652 7.94006 14.8579 7.90451 14.525 7.93387C13.478 8.02621 12.7272 8.68482 12.2838 9.5945C11.6563 10.8816 12.0513 12.1707 12.8465 12.8572C12.9965 12.8257 13.3096 12.6697 13.4922 12.6059C15.3263 11.9653 14.6642 13.961 16.0626 14.2897C16.6623 14.4307 17.0783 14.1362 17.5751 14.0407C18.0257 13.849 18.235 13.9288 18.6746 14.0862C18.8721 14.157 19.4973 14.4389 19.5915 14.542C19.6605 14.5447 19.6566 14.5226 19.6396 14.5791C19.709 14.5883 19.6631 14.5653 19.7442 14.6124L19.8164 14.6824C19.8992 14.703 20.3304 14.9757 20.373 15.0771C20.4303 15.0587 20.4266 15.0426 20.4081 15.0992C20.4827 15.1192 20.8476 15.41 20.8777 15.4974C20.9325 15.4806 20.9258 15.4681 20.9095 15.5227C20.9655 15.5032 20.9597 15.4906 20.94 15.5468C20.9947 15.5294 20.9853 15.5201 20.9681 15.575C21.0733 15.6237 21.4844 16.0297 21.5291 16.1345C21.5842 16.1175 21.5736 16.1089 21.5567 16.1644C21.6307 16.1858 21.6141 16.1761 21.7065 16.2941L22.0526 16.705C22.3071 17.0594 22.6602 17.481 22.9166 17.8891C23.046 18.0951 23.1728 18.3098 23.3026 18.5114C23.6851 19.1055 24.3587 20.6127 24.4231 21.4694C24.2812 21.412 24.0593 21.2461 23.9164 21.1544C23.7559 21.0514 23.584 20.9353 23.4256 20.8327C23.0882 20.6142 22.7741 20.3945 22.4431 20.1615C22.1163 19.9314 21.7839 19.7049 21.4732 19.4775C20.6997 18.9114 19.3226 17.8102 18.6071 17.4104C17.9893 17.0652 16.8819 16.5685 16.0178 16.9069C16.084 17.0207 16.1453 17.0705 16.2329 17.1795C16.5438 17.1598 16.7038 17.0979 17.0587 17.1376C17.8051 17.2212 18.3939 17.5374 18.9912 17.896C19.3815 18.1303 19.7097 18.3813 20.0533 18.6278C21.082 19.3656 22.1492 20.1583 23.1962 20.8659C23.8778 21.3265 25.7681 22.6762 26.5894 22.8512C28.1994 23.1942 29.0288 21.9675 30.5876 21.5887C31.1286 21.4572 31.5815 21.6521 32 21.8621C32.5395 22.1329 33.2207 22.5045 33.719 22.832L34.2632 23.1865C34.4297 23.2706 34.6859 22.9729 34.8796 23.0181C35.0836 23.0657 35.3019 23.2179 35.5244 23.2548C35.5685 23.1398 35.667 22.9916 35.7679 22.9183C35.9132 23.0745 35.9444 23.3319 36.0085 23.5664C36.1816 24.2001 36.5242 23.9345 36.5299 22.9669C36.5318 22.64 36.462 22.4549 36.4376 22.1791C36.6314 22.1068 36.6854 22.1065 36.7731 22.295C36.9534 22.6823 36.964 23.3006 36.81 23.7039C36.5793 24.3078 36.1545 24.6046 35.5117 24.5421C34.883 24.481 33.4492 24.1929 32.9105 23.8684C32.7851 23.7929 32.6889 23.7 32.592 23.6258C32.4828 23.5422 32.4241 23.4508 32.2957 23.3784C32.3732 23.6578 32.6339 23.956 32.8111 24.0805C33.1692 24.332 34.1512 24.5901 34.6109 24.6918C35.1844 24.8188 35.3208 24.747 35.49 25.0172C35.4331 25.1623 35.098 25.8356 35.0217 25.8953C34.8897 25.9987 34.0408 25.8966 33.8136 25.8921C33.6767 26.2457 33.0799 26.7282 32.6471 26.9119C32.4858 26.9803 32.2755 27.0098 32.1366 27.0955C32.2198 27.2123 32.3224 27.2486 32.3873 27.3763C32.3102 27.5546 32.1049 27.7772 31.9876 27.8803C31.7589 28.0816 31.6325 28.081 31.2669 28.0399C30.779 27.9851 30.2632 27.8487 29.8996 27.6393C30.4721 27.6149 30.7049 27.5997 31.189 27.3872C32.0178 27.0234 32.3916 26.4403 32.5256 26.3959C32.8561 26.2865 33.7366 26.1715 33.7498 25.3463C33.7028 25.4323 33.7285 25.4491 33.6508 25.5128C33.6148 25.7833 33.2133 26.0196 32.9099 26.1095C32.7878 26.1458 32.4273 26.1811 32.3561 26.2283L32.0209 26.5653C31.7843 26.7799 31.5498 26.9636 31.2477 27.137C31.0617 27.2438 30.5375 27.5088 30.3102 27.506C30.2125 27.5931 29.7978 27.6341 29.6571 27.6079C28.9014 27.4673 27.4468 26.2779 26.9892 25.5693C26.8529 25.3582 26.8333 25.3961 26.6327 25.2505L26.5798 25.2091L26.5698 25.2152C26.5149 25.2126 26.5248 25.2289 26.5248 25.1814L26.5251 25.1849L26.4718 25.1571C26.3915 25.1327 26.4091 25.1396 26.3676 25.0892C26.2503 25.0658 24.2047 23.9529 23.8896 23.7927C23.0561 23.369 22.1988 22.9627 21.3407 22.5592C20.4661 22.1479 19.6427 21.7484 18.7937 21.3233L16.9378 20.3496C16.7754 20.2641 16.4953 20.121 16.3571 20.0205C16.2982 20.0167 16.3089 20.0344 16.3089 19.9836L16.3163 19.9874C16.2526 19.9817 16.2639 20.0012 16.2639 19.9467L16.2608 19.9537C16.1347 19.903 16.1459 19.8842 16.01 19.9614C15.9245 20.0099 15.8652 20.0295 15.8031 20.1022C16.108 20.3973 19.5936 21.9936 20.0278 22.1924C20.499 22.4081 23.9675 23.917 24.2875 24.2308C24.2518 24.5275 23.8774 25.993 23.778 26.38C23.3364 28.0997 22.6612 30.0113 22.585 31.7854C22.5641 32.2737 22.6308 32.8904 22.6215 33.0496H22.8659C22.8659 32.8208 22.8376 32.6803 22.8379 32.4317C22.8398 30.8519 23.3984 29.0783 23.8699 27.5975C24.0318 27.0889 24.6469 24.9131 24.657 24.4554C24.7984 24.4672 25.9287 25.1525 26.0619 25.2363C26.8384 25.725 26.5351 25.5323 27.0477 26.185C27.0989 26.2501 27.1321 26.274 27.1759 26.3327C27.2773 26.3873 27.411 26.5276 27.4651 26.6394C27.5132 26.6504 27.9407 27.0059 27.9796 27.0584C28.0967 27.1108 28.1355 27.1706 28.2553 27.2479C28.6295 27.4896 28.9786 27.7421 29.4338 27.8919C29.54 27.9269 29.6986 27.9378 29.8002 27.9745C30.0371 28.0601 30.2045 28.151 30.476 28.2227C31.5758 28.5129 32.1333 28.5119 32.629 27.5122C32.7536 27.261 32.6936 27.3703 32.6358 27.2101C32.7406 27.168 32.7851 27.1324 32.8955 27.1137C32.9481 27.0489 32.9827 27.0459 33.0639 26.9945C33.1431 26.9443 33.1832 26.8906 33.2734 26.8775L33.3034 26.8936L33.2734 26.8775C33.299 26.7911 33.2536 26.8549 33.3288 26.7825C33.331 26.7803 33.3847 26.7428 33.3943 26.7356C33.5845 26.5927 33.64 26.4642 33.7528 26.3849C33.7736 26.3661 33.7608 26.3793 33.788 26.3428L33.9208 26.1406C34.3913 26.1406 35.0131 26.4228 35.3125 26.0487C35.369 25.9782 35.4206 25.8731 35.4723 25.7877C35.5927 25.5885 35.8732 25.097 35.7679 24.8767C36.304 24.8767 36.7138 24.5227 36.9326 24.1919C37.5648 23.2359 37.2027 21.3949 36.3458 21.8617C36.0886 22.0019 35.7194 22.4051 35.5386 22.6809C35.526 22.7001 35.508 22.7286 35.4938 22.7482L35.4704 22.7793C35.436 22.8224 35.4523 22.8014 35.4333 22.8208L35.4121 22.7984L35.4333 22.8208L35.3978 22.8998C35.2699 22.8667 34.9086 22.691 34.8195 22.6955C34.6205 22.7055 34.4469 22.948 34.2431 22.8422C34.0707 22.7527 33.9068 22.6467 33.7255 22.545C33.2326 22.2685 32.0805 21.6637 31.5881 21.4877C31.4563 21.4406 31.0195 21.3767 30.9607 21.3379L30.4109 21.4387C29.9833 21.5468 29.6322 21.6974 29.2311 21.858C28.9687 21.963 27.805 21.5639 27.4557 21.4503C27.3008 21.3999 27.1435 21.3362 26.9987 21.2629L26.1565 20.8162C25.8944 20.6553 25.6377 20.4798 25.4064 20.277C25.3425 20.2209 25.2983 20.1908 25.238 20.137C24.7308 19.6843 24.2336 19.189 23.768 18.6914C23.66 18.5761 23.6069 18.4373 23.5215 18.2927C23.4322 18.1417 23.3699 18.0318 23.2802 17.8889C23.1908 17.7462 23.1202 17.6344 23.0282 17.4958C22.6065 16.861 22.1544 16.223 21.6132 15.686C21.4966 15.5703 21.4296 15.4672 21.3061 15.3481C20.939 14.9941 20.3099 14.4598 19.8804 14.1951C19.7387 14.1077 19.6147 14.0322 19.4782 13.9527L19.1079 13.7626C19.0557 13.729 19.088 13.7515 19.0596 13.7268C19.9735 13.7268 20.1311 13.6953 20.9906 13.9235C21.5533 14.0728 22.0539 14.295 22.5577 14.5416L22.9124 14.7192C23.2772 14.901 23.6179 15.1144 23.9626 15.3223C24.0814 15.394 24.1768 15.4564 24.2919 15.5256C24.9691 15.9325 25.615 16.4087 26.2523 16.8723C26.3995 16.9795 26.442 17.0207 26.6732 16.9579C27.243 16.8031 27.7552 16.5488 28.2128 16.284C28.7254 15.9874 29.18 15.6411 29.6305 15.2632L29.9024 14.9744C29.9552 14.9059 29.9842 14.8886 30.0373 14.8289C30.0842 14.776 30.1142 14.7316 30.1618 14.6729C30.2917 14.5128 30.4102 14.3584 30.5063 14.1761L29.53 13.8358C29.2059 13.7275 28.8774 13.5895 28.5505 13.4707C27.666 13.1493 26.7867 12.7833 25.9283 12.3949L25.2408 12.0736C24.5649 11.799 23.7198 11.2385 23.1177 10.834C23.1177 10.4916 23.1816 10.1709 23.2223 9.84358C23.3014 9.2088 23.3061 9.28983 23.0404 9.00172C22.4479 8.35917 21.9449 7.62707 21.5223 6.84599C21.1741 6.20249 20.8695 5.51256 20.5949 4.82772C20.3073 4.11088 20.0718 3.3512 19.8838 2.59225C19.687 1.79744 19.5062 1.01854 19.4022 0.153926C19.3729 -0.0896488 19.3002 0.0133003 18.9192 0.0767102C17.8167 0.260194 16.1455 1.01749 15.2445 1.55685C14.9257 1.74769 14.6483 1.9214 14.3576 2.12724C14.0709 2.33021 13.7767 2.53488 13.5119 2.76714C13.2507 2.99629 12.9855 3.20886 12.7415 3.45447C12.6137 3.58317 12.5062 3.69166 12.3776 3.81953L12.0273 4.19818C11.6725 4.56781 11.3542 5.00222 11.072 5.43022L10.77 5.88544C10.3849 6.49807 10.0323 7.15034 9.76389 7.82479C9.49343 8.50447 9.22874 9.27624 9.09245 10.1C9.05997 10.2963 9.01408 10.5197 8.98929 10.7267C8.97336 10.8595 8.96734 10.9195 8.94751 11.0498C8.90431 11.334 8.92846 11.8209 8.88849 12.0859C8.84517 12.3732 8.90098 12.5484 8.90126 12.799C8.9023 13.7195 9.06352 14.6437 9.24193 15.4061C9.55257 16.7335 10.0127 17.9604 10.6447 19.138C10.7345 19.3054 10.8306 19.464 10.9154 19.6247C10.3866 19.6247 9.83854 19.3511 9.44387 19.1073C9.35688 19.0536 9.26719 19.0006 9.18784 18.943C8.95603 18.7748 8.718 18.6174 8.50193 18.4236L7.78353 17.7403C7.77949 17.7362 7.7736 17.7303 7.76953 17.7262C7.76378 17.7205 7.74735 17.7039 7.74152 17.6982L7.08114 17.0128C6.87867 17.4362 6.90124 18.3402 6.8496 18.7183C6.83686 18.8116 6.82557 18.8987 6.82796 19.0359C6.83059 19.1869 6.85399 19.2023 6.85816 19.343C6.87232 19.8198 6.8946 20.1347 6.95707 20.5637C7.06489 21.3043 7.23443 21.9614 7.50064 22.6302C7.62107 22.9327 7.75304 23.26 7.9088 23.5406C8.18127 24.0314 8.45328 24.5061 8.80764 24.9416C9.14801 25.3599 9.48982 25.7657 9.88649 26.1339C9.95838 26.2006 9.99646 26.2148 10.0693 26.2875C10.137 26.3551 10.1694 26.3942 10.2431 26.4501C10.9624 26.995 11.3984 27.3378 12.2214 27.7508C12.3703 27.8255 12.5085 27.9021 12.6509 27.9658C13.5979 28.389 14.7702 28.7525 15.8131 28.7525C15.7084 28.554 15.34 28.186 15.1769 27.9586L14.8987 27.5076C14.8163 27.3549 14.7423 27.1698 14.6773 26.9995C14.5217 26.5911 14.4717 26.2976 14.4696 25.7473C14.4686 25.4751 14.499 25.3025 14.5478 25.0955L14.7216 24.5397C14.8365 24.6169 14.8348 24.6616 14.9243 24.7576L15.1205 24.982C15.7955 25.7107 16.4026 26.518 16.9928 27.3159C17.737 28.3221 19.1209 30.9347 18.6287 32.2521C18.5404 32.4884 18.452 32.5957 18.283 32.7478C18.2059 32.8171 18.1179 32.8647 18.0251 32.9102L17.7813 33.0025C17.7232 33.0339 17.7417 33.0274 17.7162 33.0496H18.5208V33.0496Z" fill="#1B2959"/>
  <path fill-rule="evenodd" clip-rule="evenodd" d="M24.2381 42.9921H26.673L26.4889 44.1836C26.464 44.2929 26.4595 44.356 26.4372 44.4688L26.2252 45.2951C25.3627 45.2951 24.5941 45.2671 23.7343 45.2671C22.8854 45.2671 22.0365 45.2671 21.1875 45.2671C21.2267 45.1852 21.2438 45.0957 21.2656 45.0084L21.49 44.1664C21.5868 43.7737 21.6558 43.386 21.7473 42.9921H23.2026C23.1416 43.2549 22.8541 43.8466 22.8388 44.0313C22.9166 44.0726 22.9844 44.0918 23.0725 44.1338C23.1642 44.1775 23.2147 44.2099 23.2882 44.2544C23.7834 44.5541 24.0849 44.7577 24.406 45.239L25.3801 44.6437C25.4591 44.5937 25.6419 44.4739 25.7214 44.4526C25.6393 44.0988 24.8665 43.3946 24.4711 43.1515L24.2381 42.9921V42.9921ZM22.9787 40.4363L23.4315 40.656C23.6592 40.7782 23.8172 40.8777 24.0231 41.0453C24.1564 41.1538 24.212 41.1795 24.2941 41.3351H21.9712C22.0398 40.5076 22.0831 39.9825 22.0831 39.1163H23.4545L22.9787 40.4363ZM23.8743 39.1163H26.8689C26.8689 39.4901 26.872 41.0804 26.8129 41.3351H24.7419C24.7701 41.3105 24.7443 41.3299 24.7899 41.2991C24.8035 41.2899 24.8502 41.2614 24.8593 41.2563L25.7774 40.7734C25.6799 40.3536 24.8453 39.674 24.4505 39.4368C24.3515 39.3773 24.2647 39.3264 24.1639 39.2751C24.105 39.2451 24.0645 39.2264 24.0137 39.2011L23.8743 39.1163V39.1163ZM20.3199 38.7231C20.3199 39.2133 20.299 39.62 20.2931 40.1004C20.2907 40.2953 20.2453 40.556 20.2359 40.7452C20.2002 41.4635 20.3289 41.3351 19.6202 41.3351V42.9079C19.6202 43.0225 19.708 42.9921 19.9281 42.9921C19.9281 43.1216 19.8914 43.2846 19.861 43.4023L19.5826 44.5552C19.317 45.5639 19.1942 45.8046 18.8613 46.7242C18.7881 46.9267 18.7164 46.9996 18.8124 47.0309L25.0218 47.0645C25.1476 47.0645 25.3828 47.0507 25.4958 47.0663C25.603 47.0811 25.6724 47.1628 25.7838 47.2547L27.4007 48.525C27.5792 48.1864 27.7671 47.6285 27.8788 47.2354C27.9041 47.1463 27.8884 47.0645 27.9884 47.0645H29.1079L29.1362 45.379C29.1121 45.2621 29.0622 45.2909 28.9136 45.2935C28.7079 45.2971 28.502 45.2951 28.2962 45.2951L28.4362 44.1717C28.4552 44.0047 28.4774 43.7723 28.4907 43.6085L28.5201 42.9921H29.1079V41.3351H28.5761C28.5761 40.891 28.5526 38.6712 28.5965 38.3503L28.6065 37.513C28.6073 37.4083 28.6281 37.3188 28.5201 37.3188H20.3199V38.7231V38.7231Z" fill="#1B2959"/>
  <path fill-rule="evenodd" clip-rule="evenodd" d="M4.7583 34.3416V36.0548H11.7551C11.7551 36.345 11.77 36.4407 11.572 36.6856C11.4729 36.8081 11.3395 36.8819 11.1724 36.9306C10.9423 36.9976 10.247 36.9535 9.9359 36.9535C9.49022 36.9535 9.14605 36.9816 8.70447 36.9816H3.66679C3.66679 38.0679 3.63482 39.0824 3.63889 40.1835C3.6399 40.4564 3.6108 40.6491 3.61082 40.9417C3.6109 41.7616 3.66641 42.3486 3.31267 43.0859C3.17073 43.3818 3.05563 43.5648 2.87135 43.8226C2.80629 43.9137 2.74977 43.9791 2.68743 44.0594C2.06326 44.8631 1.32099 45.3804 0.515306 45.9239C0.408912 45.9957 0.109322 46.1926 0.000488281 46.2218V46.306C0.110666 46.3355 1.33395 47.3421 1.46451 47.4488L1.95958 47.8226C2.01842 47.7831 2.05152 47.7466 2.11226 47.695L2.54731 47.289C2.72534 47.1527 3.18441 46.6265 3.35483 46.4142C3.43479 46.3146 3.52963 46.2141 3.61742 46.116C3.66465 46.0633 3.69252 46.0181 3.7385 45.9567C4.36974 45.1138 4.94303 44.3015 5.21762 43.2001C5.28556 42.9276 5.374 42.5211 5.374 42.2055C5.374 40.9969 5.34602 39.8778 5.34602 38.6668L11.1393 38.6948C11.5471 38.6948 12.0032 38.5216 12.2644 38.3635C12.3446 38.315 12.4163 38.2778 12.487 38.2217C12.7023 38.0508 12.8819 37.8845 13.047 37.6602C13.5956 36.9144 13.461 36.4664 13.5223 35.9185C13.5597 35.5843 13.5462 34.7278 13.5462 34.3416C13.5462 34.2769 13.5268 34.2573 13.4623 34.2573H4.84225C4.77776 34.2573 4.7583 34.2769 4.7583 34.3416V34.3416Z" fill="#1B2959"/>
  <path fill-rule="evenodd" clip-rule="evenodd" d="M11.7838 51.4174C11.6497 52.072 10.7121 52.4652 12.4278 53.3256L19.011 56.6615C19.5039 56.9125 20.7965 57.6279 21.2766 57.6668C21.7823 57.7077 21.9784 57.3463 22.1781 56.9346C22.3578 56.5643 22.5435 56.2012 22.731 55.8322C23.4811 54.3562 24.2033 52.8797 24.9437 51.4269H24.9646C24.9391 51.3705 24.9573 51.3749 24.9437 51.4269L11.7838 51.4174V51.4174Z" fill="#C30D23"/>
  <path fill-rule="evenodd" clip-rule="evenodd" d="M8.99316 24.418C9.00351 24.5003 9.00531 24.4921 9.05005 24.5587C9.05231 24.5621 9.0804 24.5993 9.08721 24.6061C9.14802 24.6669 9.09435 24.6278 9.15326 24.6535C9.14921 24.745 9.14355 24.6917 9.19296 24.6953C9.17376 24.7544 9.15888 24.7499 9.21707 24.7286C9.21294 24.8088 9.19788 24.7713 9.25316 24.7741C9.23911 24.8304 9.22499 24.8255 9.27857 24.8061C9.26112 24.8639 9.24769 24.8582 9.30409 24.838C9.28445 24.8935 9.26817 24.8885 9.32331 24.8763C9.36052 24.9919 9.3217 24.9201 9.39175 24.9454C9.37591 24.9998 9.36275 24.9929 9.4163 24.9796C9.44103 25.0591 9.40087 24.9869 9.44231 25.0363C9.49245 25.0961 9.46296 25.0616 9.50497 25.0825C9.49043 25.1382 9.47816 25.1309 9.53234 25.114C9.517 25.1675 9.50537 25.1602 9.55811 25.1447C9.54077 25.1978 9.52635 25.1915 9.5787 25.1817C9.56245 25.2326 9.55086 25.2257 9.60179 25.2128C9.59008 25.263 9.57864 25.2554 9.62758 25.2438C9.64176 25.3062 9.61993 25.2759 9.67628 25.2781C9.66605 25.3272 9.65494 25.3199 9.70239 25.3074C9.68952 25.3585 9.67909 25.3502 9.72931 25.3365C9.71473 25.3887 9.7054 25.3791 9.75755 25.3651C9.74402 25.4185 9.73166 25.4123 9.78314 25.3955C9.7663 25.4482 9.75528 25.4399 9.80841 25.4273C9.7935 25.4778 9.78421 25.4687 9.83496 25.4559C9.82389 25.5065 9.81303 25.4983 9.8625 25.4857C9.84715 25.5364 9.83496 25.5293 9.88534 25.5187C9.87233 25.5674 9.86304 25.5583 9.9119 25.5472C9.90202 25.5965 9.89224 25.5875 9.94064 25.5748C9.92798 25.6236 9.91886 25.6139 9.96807 25.6037C9.95671 25.6521 9.94745 25.6428 9.99569 25.6317C9.98564 25.6809 9.97602 25.6718 10.0245 25.6591C10.012 25.7076 10.0031 25.6978 10.0522 25.6877C10.041 25.7364 10.0327 25.7263 10.0814 25.7136C10.072 25.7622 10.0634 25.7517 10.1121 25.7398C10.0998 25.7876 10.091 25.7777 10.1395 25.7686C10.1292 25.8179 10.1208 25.8079 10.1694 25.7934C10.1592 25.8445 10.1515 25.8327 10.2023 25.817C10.1885 25.8671 10.1802 25.8565 10.2311 25.8453C10.2183 25.8972 10.2101 25.8861 10.2621 25.8715C10.2497 25.9202 10.2418 25.9097 10.291 25.8976C10.278 25.9489 10.2708 25.9311 10.328 25.9402C10.328 25.8767 10.3465 25.8836 10.291 25.8976C10.3031 25.847 10.312 25.8566 10.2621 25.8715C10.2748 25.8223 10.2819 25.8344 10.2311 25.8453C10.2432 25.7921 10.2538 25.8003 10.2023 25.817C10.2173 25.7656 10.2226 25.7795 10.1694 25.7934C10.1797 25.7484 10.1864 25.76 10.1395 25.7686C10.1492 25.7192 10.16 25.7272 10.1121 25.7398C10.1248 25.6896 10.1324 25.7011 10.0814 25.7136C10.0909 25.6675 10.0989 25.6779 10.0522 25.6877C10.0629 25.6378 10.0733 25.6461 10.0245 25.6591C10.0372 25.6103 10.0454 25.6208 9.99569 25.6317C10.0057 25.5843 10.0151 25.5935 9.96807 25.6037C9.9792 25.5535 9.9897 25.5618 9.94064 25.5748C9.9536 25.5259 9.96175 25.5365 9.9119 25.5472C9.92162 25.5002 9.93157 25.5086 9.88534 25.5187C9.89736 25.467 9.91138 25.4719 9.8625 25.4857C9.87879 25.4333 9.88809 25.4431 9.83496 25.4559C9.84606 25.4068 9.85641 25.4148 9.80841 25.4273C9.82251 25.3727 9.83576 25.3785 9.78314 25.3955C9.80008 25.3426 9.81071 25.3507 9.75755 25.3651C9.77183 25.3135 9.78106 25.3232 9.72931 25.3365C9.74379 25.2861 9.75319 25.2954 9.70239 25.3074C9.71534 25.2588 9.72502 25.2676 9.67628 25.2781C9.64469 25.1965 9.67955 25.2604 9.62758 25.2438C9.64133 25.1922 9.65262 25.2 9.60179 25.2128C9.61335 25.1653 9.6248 25.1723 9.5787 25.1817C9.59391 25.1248 9.61158 25.1271 9.55811 25.1447C9.57642 25.0895 9.5877 25.0972 9.53234 25.114C9.54809 25.0612 9.55828 25.0707 9.50497 25.0825C9.48377 25.0407 9.48854 25.0458 9.46301 25.0166C9.42739 24.9759 9.45315 25.002 9.4163 24.9796C9.43632 24.9216 9.45 24.928 9.39175 24.9454C9.34507 24.8452 9.35657 24.8945 9.32331 24.8763C9.33968 24.8155 9.36064 24.814 9.30409 24.838C9.32504 24.7802 9.33694 24.7877 9.27857 24.8061C9.2965 24.7527 9.30737 24.7613 9.25316 24.7741C9.25844 24.6616 9.25555 24.7445 9.21707 24.7286C9.23691 24.6691 9.25178 24.6737 9.19296 24.6953C9.19163 24.6061 9.19647 24.6662 9.15326 24.6535C9.1297 24.5641 9.06243 24.4539 8.99316 24.418C8.97792 24.3215 8.7193 23.9471 8.64937 23.8132C8.54177 23.6071 8.43608 23.4027 8.3338 23.1763C8.14462 22.7575 7.97425 22.2806 7.84219 21.791C7.57029 20.7829 7.42136 19.4684 7.55725 18.3798C7.51815 18.4257 7.5347 18.4472 7.54554 18.5856C7.70564 20.6307 8.19918 22.4484 9.35494 24.1379C9.59845 24.4938 9.76925 24.6428 10.0088 24.9162C10.0902 25.0091 10.1543 25.0761 10.2415 25.1605C10.4657 25.3776 11.0136 25.8651 11.2754 26.034C12.2932 26.6908 12.6106 26.89 13.871 27.2171C13.9877 27.5783 14.1862 27.7872 14.4602 27.9771C14.5527 28.0413 14.6542 28.1265 14.7498 28.1363C14.7318 28.1938 14.7191 28.188 14.7752 28.1664L14.7612 28.1937C14.7698 28.1896 14.7881 28.1745 14.7873 28.1822C14.7871 28.185 14.7926 28.1739 14.792 28.1732C14.7909 28.1718 14.7808 28.1687 14.7752 28.1664C14.7926 28.107 14.8066 28.1112 14.7498 28.1363C14.7179 27.9177 13.657 26.5364 14.338 24.7193C14.3933 24.5716 14.4842 24.4161 14.519 24.2872L13.1693 22.7278C12.7435 22.2185 12.242 21.6283 11.8624 21.0904L11.0838 19.9184C9.8882 19.9273 9.0493 19.4469 8.1712 18.786C8.06758 18.708 7.46761 18.2177 7.43632 18.209C7.30532 19.5034 7.404 20.5881 7.70533 21.7574C7.86677 22.384 8.48941 23.8626 8.91464 24.3577C8.91993 24.3638 8.93604 24.3813 8.94184 24.3864C9.00095 24.4377 8.91615 24.3915 8.99316 24.418V24.418Z" fill="#9DBED9"/>
  <path fill-rule="evenodd" clip-rule="evenodd" d="M6.01782 43.1323H8.6766V45.4634C8.6766 45.5281 8.69607 45.5477 8.76056 45.5477H10.3838C10.4483 45.5477 10.4678 45.5281 10.4678 45.4634V43.1323H13.0986V39.4531H11.3354V41.3629H10.4678V39.5374C10.4678 39.4727 10.4483 39.4531 10.3838 39.4531H8.6766V41.3629H7.809V39.4531H6.01782V43.1323V43.1323Z" fill="#1B2959"/>
  <path fill-rule="evenodd" clip-rule="evenodd" d="M3.44238 47.9633H13.3778V43.8347C13.3778 43.77 13.3583 43.7505 13.2938 43.7505H11.6706C11.6061 43.7505 11.5866 43.77 11.5866 43.8347V46.1939H7.10869C7.12089 46.0469 7.28601 45.7999 7.34897 45.6487C7.53333 45.2058 7.61212 44.8891 7.69238 44.4205C7.71605 44.2823 7.71224 44.2152 7.72896 44.0638C7.73861 43.9765 7.81754 43.7505 7.66843 43.7505H6.04518C5.93885 43.7505 5.97179 43.8302 5.92238 44.0485C5.89175 44.1839 5.87991 44.262 5.83909 44.3862C5.7649 44.6121 5.70301 44.7931 5.60679 44.9957C5.39012 45.452 5.107 45.9354 4.80981 46.3304C4.74458 46.4171 4.6968 46.4811 4.62664 46.5679L3.6457 47.718C3.56785 47.7956 3.47251 47.8501 3.44238 47.9633V47.9633Z" fill="#1B2959"/>
  <path fill-rule="evenodd" clip-rule="evenodd" d="M19.9271 34.9312H19.5913V37.0657C19.9513 37.0657 20.3383 36.9907 20.6027 36.9011C20.752 36.8505 20.8903 36.8068 21.0288 36.7388C21.1009 36.7034 21.3635 36.5321 21.4105 36.5321H29.2748V34.7627H22.5859C22.6556 34.617 22.6699 34.216 22.6699 34.0044H20.8787C20.8787 34.512 20.4311 34.9312 19.9271 34.9312Z" fill="#1B2959"/>
  <path fill-rule="evenodd" clip-rule="evenodd" d="M1.93186 34.4818C1.93186 35.0733 1.78923 35.8572 1.57402 36.2291C1.19931 36.8766 0.845209 37.0656 0.0847168 37.0656V38.835C0.565947 38.835 0.637158 38.8356 1.12024 38.7227V43.9747C1.41528 43.9057 1.85809 43.5596 2.05135 43.3644L2.38516 42.941C2.82932 42.2279 2.77148 41.8916 2.77148 40.9976L2.77127 37.908C2.76844 37.4773 2.90667 37.513 3.17826 36.9683C3.38037 36.563 3.50576 36.1366 3.59078 35.641C3.60811 35.54 3.6267 35.4587 3.64155 35.3268L3.72304 34.229H1.93186V34.4818V34.4818Z" fill="#1B2959"/>
  <path fill-rule="evenodd" clip-rule="evenodd" d="M25.4092 51.4181C25.3826 51.5479 24.3578 53.553 24.2092 53.834C23.7952 54.6171 23.4202 55.4356 23.0086 56.2234C22.7982 56.6261 22.6028 57.0194 22.3961 57.4345C22.2001 57.8283 21.9937 58.2729 21.4949 58.3333C21.2201 58.3666 21.0143 58.2205 20.8088 58.1168L11.8248 53.5953C11.4159 53.3906 10.9374 53.2262 10.8834 52.7393C10.8307 52.2639 11.237 51.8068 11.3671 51.4181H10.7754C10.5019 51.828 10.2738 52.3948 10.2993 52.9351C10.3351 53.6901 11.0012 53.9484 11.5814 54.2324L12.0085 54.4498C12.4822 54.7143 13.3576 55.1291 13.854 55.3782C14.7388 55.8221 15.6108 56.2597 16.5035 56.7076L19.825 58.3736C19.8979 58.4108 19.9295 58.436 19.9852 58.4656L20.2294 58.5856C20.2739 58.6074 20.2775 58.6114 20.3214 58.6337L20.6389 58.7925C20.8394 58.8968 20.958 58.9539 21.1978 58.9908C21.681 59.0651 22.2401 58.7064 22.5145 58.3397C22.6802 58.1182 22.7417 57.9372 22.8775 57.6929L25.9963 51.5192C26.0662 51.3521 25.8285 51.4181 25.4092 51.4181V51.4181Z" fill="#000"/>
  <path fill-rule="evenodd" clip-rule="evenodd" d="M17.2963 41.2223C17.2963 42.282 16.889 43.2794 16.4852 44.1999C16.2078 44.832 15.6269 45.6966 15.1889 46.2132C15.1068 46.31 15.0438 46.3687 14.9734 46.4743C15.0565 46.5302 15.1243 46.5926 15.2091 46.6591C15.309 46.7373 15.3628 46.7779 15.4577 46.859L16.6809 47.8221C16.7644 47.8862 16.844 47.9596 16.9325 48.019C17.0983 47.8971 17.618 46.9495 17.7454 46.7284C18.0161 46.2584 18.2071 45.7782 18.3996 45.2785C18.9074 43.9603 19.0875 42.8791 19.0875 41.2785C19.0875 41.1832 19.0384 41.1942 18.9476 41.1942C18.3642 41.1942 17.8782 41.2223 17.2963 41.2223V41.2223Z" fill="#1B2959"/>
  <path fill-rule="evenodd" clip-rule="evenodd" d="M25.4089 51.4175L24.9646 51.427H24.9438C24.2034 52.8798 23.4812 54.3563 22.7311 55.8324C22.5436 56.2013 22.3579 56.5644 22.1782 56.9347C21.9784 57.3464 21.7824 57.7078 21.2766 57.6669C20.7965 57.628 19.5039 56.9126 19.0111 56.6616L12.4279 53.3257C10.7121 52.4653 11.6498 52.0721 11.7839 51.4175H11.3668C11.2367 51.8061 10.8304 52.2632 10.8831 52.7387C10.9371 53.2256 11.4157 53.3899 11.8246 53.5946L20.8085 58.1162C21.014 58.2199 21.2198 58.366 21.4947 58.3327C21.9935 58.2722 22.1998 57.8276 22.3959 57.4339C22.6025 57.0187 22.7979 56.6255 23.0084 56.2227C23.4199 55.435 23.7949 54.6165 24.2089 53.8334C24.3575 53.5524 25.3823 51.5472 25.4089 51.4175V51.4175Z" fill="#FEFEFE"/>
  <path fill-rule="evenodd" clip-rule="evenodd" d="M26.5381 30.2559C26.2525 30.7731 25.9791 31.236 25.6706 31.7076C25.5056 31.9598 25.3508 32.1601 25.1839 32.3992C25.0415 32.6033 24.7798 32.8671 24.6941 33.0496H30.1288L30.4741 32.2382C30.383 32.1338 28.8089 31.3486 28.5511 31.2203C28.2135 31.0522 27.8976 30.8769 27.5736 30.7126C27.2542 30.5506 26.9094 30.3842 26.6161 30.2183C26.5588 30.238 26.5757 30.2202 26.5381 30.2559V30.2559Z" fill="#FEFEFE"/>
  <path fill-rule="evenodd" clip-rule="evenodd" d="M24.6943 33.05C24.78 32.8675 25.0417 32.6036 25.1841 32.3996C25.351 32.1605 25.5058 31.9601 25.6708 31.7079C25.9793 31.2363 26.2527 30.7734 26.5383 30.2563C26.5762 30.1456 26.6828 29.9774 26.7523 29.8449C26.8281 29.7003 26.8943 29.5714 26.9735 29.4206C27.0798 29.2178 27.335 28.7749 27.3954 28.583L27.6238 28.1594C27.8578 28.2289 28.3707 28.5233 28.6216 28.6491L31.5666 30.1318C31.5284 30.2587 31.4492 30.4637 31.3444 30.5508C31.2326 30.8138 31.0576 31.1174 30.9169 31.3828L30.4743 32.2386L30.129 33.05H30.7024L31.5142 31.4212C31.5711 31.3118 31.6216 31.1916 31.6832 31.0852C31.7615 30.9501 31.9828 30.5606 32.0178 30.4099C32.2501 30.4293 32.2853 30.6159 32.6455 30.4781C32.8609 30.3957 32.9298 30.2389 33.0209 30.0404L34.1066 27.8719C34.2041 27.6288 34.1196 27.3893 33.9854 27.2558C33.843 27.1143 33.6364 27.0643 33.4731 26.9557L33.3036 26.894L33.2736 26.8778C33.1834 26.8909 33.1433 26.9446 33.0641 26.9948C32.9828 27.0463 32.9482 27.0492 32.8957 27.114L33.3582 27.3407C33.5344 27.4765 33.8444 27.4747 33.717 27.76L32.8633 29.4608C32.4828 30.2228 32.5955 30.2274 32.0148 29.9359L27.4669 27.6466C27.2237 27.5246 27.0329 27.505 27.1897 27.1945C27.2633 27.0487 27.4187 26.7803 27.4653 26.6397C27.4112 26.5279 27.2775 26.3877 27.176 26.333C26.8373 27.0365 26.3876 27.5214 27.1201 27.9103L25.6983 30.6402C25.5657 30.8624 25.4355 31.0648 25.2995 31.2791C24.9708 31.7972 24.5843 32.2815 24.1898 32.7494C24.1374 32.8116 24.1367 32.8256 24.0763 32.8883C23.9964 32.9713 24.0114 32.9478 23.9575 33.05H24.6943V33.05Z" fill="#000"/>
  <path fill-rule="evenodd" clip-rule="evenodd" d="M30.4517 46.8398L31.2636 47.4854C31.3305 47.5367 31.3954 47.5899 31.4656 47.6478C31.5824 47.7442 32.0264 48.1112 32.1029 48.1317C32.4944 47.545 32.8876 47.0798 33.1707 46.3667C33.6434 45.1761 33.6702 44.7114 33.6702 43.3853H32.0189C32.0189 43.6311 31.9195 44.2085 31.8621 44.4637C31.7843 44.8097 31.6679 45.1079 31.5249 45.3891C31.2856 45.8598 30.9934 46.2064 30.6629 46.6024L30.4517 46.8398V46.8398Z" fill="#1B2959"/>
  <path fill-rule="evenodd" clip-rule="evenodd" d="M27.3957 28.5826C27.3354 28.7745 27.0802 29.2174 26.9738 29.4201C26.8946 29.571 26.8285 29.6999 26.7526 29.8445C26.6831 29.977 26.5765 30.1451 26.5386 30.2559C26.5762 30.2201 26.5593 30.238 26.6166 30.2182C26.9099 30.3842 27.2547 30.5506 27.5741 30.7125C27.8981 30.8768 28.214 31.0522 28.5516 31.2202C28.8094 31.3486 30.3835 32.1338 30.4746 32.2382L30.9172 31.3824C31.0579 31.117 31.233 30.8134 31.3447 30.5504C31.325 30.4612 31.3794 30.5174 31.252 30.4481C30.5255 30.053 27.6665 28.7192 27.5001 28.5498C27.4115 28.5644 27.4429 28.5442 27.3957 28.5826V28.5826Z" fill="#905646"/>
  <path fill-rule="evenodd" clip-rule="evenodd" d="M29.6213 14.5069L29.638 14.4318C29.5004 14.4281 29.6063 14.3727 29.4096 14.5918C28.7866 15.2858 27.693 15.8521 26.8083 16.1684C26.4764 16.2872 26.5457 16.2725 26.3025 16.0922C26.1528 15.9812 26.0302 15.8922 25.8598 15.7777C25.0178 15.2122 22.9595 13.9147 22.0721 13.5138C20.6348 12.8645 18.5943 12.6214 16.9345 13.1418C16.2556 13.3546 16.2653 13.3452 15.9866 12.7923C15.8001 12.4225 15.6089 12.1507 15.3568 11.9089C14.5448 11.1298 13.8072 11.4711 13.0702 11.6708C12.8582 11.4505 12.7985 10.8539 12.8485 10.4757C12.9412 9.77481 13.3245 9.01299 13.849 8.60907C14.3754 8.20363 14.5503 8.26543 14.7781 8.13736L14.6305 8.11526C13.9452 8.03995 13.0252 8.84445 12.6881 9.57899C12.2447 10.545 12.3402 11.548 12.9583 12.2093C13.3582 12.1219 14.4429 11.4044 15.2482 12.4115C15.4756 12.6959 15.6177 13.0676 15.8302 13.3728C16.529 14.3768 18.4225 12.0263 22.1626 13.8416C23.5881 14.5335 25.2144 15.6776 26.4004 16.5835C26.4928 16.6541 26.5113 16.6786 26.6627 16.6398C27.3618 16.4603 28.3908 15.7939 28.8787 15.3234C29.0411 15.1667 29.5637 14.681 29.6213 14.5069V14.5069Z" fill="#FEFEFE"/>
  <path fill-rule="evenodd" clip-rule="evenodd" d="M18.9751 37.5995H19.0591L19.0871 35.4369C18.5437 35.4369 18.2693 35.3773 17.8831 35.1004C17.7668 35.017 17.6438 34.8675 17.5749 34.7356C17.4082 34.4164 17.4805 34.2573 17.3519 34.2573H15.7566C15.6006 34.2573 15.6506 34.4495 15.6642 34.5458C15.7311 35.0229 15.7606 35.3775 16.0452 35.8495C16.248 36.1858 16.3052 36.2796 16.603 36.5816L17.066 36.9595C17.5572 37.2914 18.3552 37.5995 18.9751 37.5995V37.5995Z" fill="#1B2959"/>
  <path fill-rule="evenodd" clip-rule="evenodd" d="M15.644 37.9367C15.644 38.1132 15.7174 38.4223 15.7658 38.5728C15.831 38.7751 15.9141 38.9512 16.0088 39.1153C16.6073 40.1527 17.8897 40.689 19.0865 40.689V38.6107C18.7466 38.6107 18.6863 38.6109 18.3381 38.5472C18.1574 38.5142 18.0233 38.4562 17.8736 38.3674C17.6121 38.2124 17.4072 37.9464 17.4072 37.5435H15.644V37.9367V37.9367Z" fill="#1B2959"/>
  <path fill-rule="evenodd" clip-rule="evenodd" d="M18.5239 9.59146C18.4772 9.58289 18.4867 9.57148 18.4878 9.61654C18.4427 9.60415 18.4496 9.59362 18.4585 9.63849C18.4134 9.63205 18.4251 9.62476 18.4363 9.67151C18.3911 9.66823 18.4026 9.65921 18.4109 9.70635C18.3548 9.70794 18.3783 9.68077 18.3772 9.74822L18.3419 9.79484C18.4055 9.79484 18.3934 9.81012 18.3772 9.74822L18.4109 9.70635C18.4595 9.71231 18.4478 9.72119 18.4363 9.67151C18.4776 9.67488 18.4663 9.68247 18.4585 9.63849C18.4969 9.64417 18.4889 9.65358 18.4878 9.61654C18.5397 9.62877 18.5317 9.64183 18.5239 9.59146L18.584 9.54786C18.7272 9.65694 18.8713 9.7937 19.0248 9.91627L19.3857 10.1721C19.4923 10.2446 19.4705 10.1795 19.4765 10.2976C19.5852 10.2524 19.594 10.3241 19.7164 10.401C19.8064 10.4576 19.8696 10.472 19.9266 10.5572C19.3486 11.1218 18.5545 10.9823 17.9551 10.5116C17.3683 10.0508 17.2534 8.87301 17.6339 8.5696C17.8141 8.74623 17.9398 8.91575 18.0928 9.08153C18.3906 9.40443 18.5733 9.43358 18.5239 9.59146V9.59146ZM17.2735 8.28873L17.2681 8.28286C17.2234 8.39183 17.2724 8.34944 17.1752 8.41382C17.0997 8.75439 16.8602 9.01458 17.0449 9.7676C17.257 10.6327 17.8998 11.1614 18.7741 11.2682C19.3555 11.3393 19.666 11.2049 20.0592 10.9755C20.0592 10.9261 20.0486 10.9378 20.0986 10.9508C20.0951 10.9056 20.0885 10.9198 20.1369 10.9335C20.1342 10.8867 20.1251 10.8986 20.1733 10.9095C20.1634 10.8633 20.1551 10.8734 20.202 10.8829C20.1929 10.8368 20.185 10.848 20.2324 10.8559C20.2269 10.815 20.2185 10.8245 20.2598 10.8299C20.2711 10.8019 20.2589 10.8037 20.2926 10.7625C20.4958 10.8344 20.6925 11.0222 20.9133 11.087C21.1728 10.6584 21.1753 10.1285 20.853 9.96129C20.9419 10.3467 20.9139 10.2496 20.8013 10.558C20.4871 10.4878 19.7629 9.97168 19.5289 9.80295C19.089 9.48565 18.3528 8.72505 18.0725 8.23172C17.534 7.28414 17.5197 7.19198 17.2702 6.03271L16.4265 6.21755C16.5194 6.66532 16.9528 7.57795 17.2229 7.98852C17.2834 8.08038 17.3354 8.11725 17.351 8.22512L17.2735 8.28873Z" fill="#1B2959"/>
  <path fill-rule="evenodd" clip-rule="evenodd" d="M28.8564 22.0124C28.5721 21.8773 27.3504 21.7874 26.0414 20.9349C25.4096 20.5234 24.9548 20.1221 24.4475 19.6116C24.2956 19.4587 24.1157 19.2494 23.9617 19.1245L24.2874 19.916C24.3862 20.1837 24.4798 20.4755 24.553 20.7717C24.5905 20.9236 24.6211 21.071 24.6534 21.2363C24.7627 21.7959 24.5581 21.5777 25.4754 22.1169C26.2627 22.5797 27.085 22.8818 28.0925 22.3953C28.2561 22.3164 28.7507 22.0952 28.8564 22.0124V22.0124Z" fill="#9DBED9"/>
  <path fill-rule="evenodd" clip-rule="evenodd" d="M8.99358 24.4176C9.06285 24.4535 9.13013 24.5637 9.15369 24.6531C9.1969 24.6657 9.19205 24.6057 9.19339 24.6949C9.25221 24.6733 9.23734 24.6687 9.2175 24.7282C9.25597 24.7441 9.25887 24.6612 9.25358 24.7737C9.3078 24.7609 9.29693 24.7523 9.279 24.8057C9.33737 24.7873 9.32546 24.7798 9.30452 24.8376C9.36106 24.8136 9.34011 24.8151 9.32374 24.8758C9.35699 24.8941 9.3455 24.8448 9.39218 24.945C9.45042 24.9276 9.43675 24.9212 9.41672 24.9792C9.45357 25.0016 9.42782 24.9755 9.46344 25.0162C9.48896 25.0453 9.48419 25.0403 9.50539 25.0821C9.55871 25.0703 9.54851 25.0608 9.53276 25.1135C9.58812 25.0968 9.57685 25.0891 9.55854 25.1443C9.61201 25.1267 9.59433 25.1244 9.57912 25.1812C9.62522 25.1719 9.61378 25.1649 9.60222 25.2123C9.65304 25.1996 9.64176 25.1918 9.62801 25.2434C9.67998 25.26 9.64512 25.1961 9.67671 25.2777C9.72544 25.2672 9.71577 25.2583 9.70282 25.307C9.75362 25.295 9.74422 25.2857 9.72974 25.3361C9.78148 25.3228 9.77226 25.3131 9.75797 25.3647C9.81114 25.3503 9.80051 25.3421 9.78357 25.3951C9.83618 25.3781 9.82294 25.3723 9.80884 25.4269C9.85683 25.4144 9.84648 25.4064 9.83539 25.4554C9.88852 25.4427 9.87921 25.4329 9.86292 25.4852C9.91181 25.4714 9.89778 25.4666 9.88576 25.5183C9.932 25.5082 9.92205 25.4998 9.91232 25.5468C9.96217 25.5361 9.95403 25.5254 9.94106 25.5744C9.99012 25.5614 9.97962 25.5531 9.9685 25.6033C10.0155 25.5931 10.0061 25.5839 9.99612 25.6313C10.0458 25.6204 10.0376 25.6098 10.0249 25.6587C10.0737 25.6457 10.0633 25.6374 10.0526 25.6873C10.0993 25.6775 10.0913 25.6671 10.0819 25.7132C10.1329 25.7007 10.1253 25.6892 10.1125 25.7394C10.1604 25.7268 10.1497 25.7188 10.1399 25.7682C10.1868 25.7596 10.1801 25.748 10.1699 25.7929C10.223 25.7791 10.2177 25.7652 10.2028 25.8166C10.2543 25.7999 10.2436 25.7916 10.2315 25.8448C10.2823 25.8339 10.2753 25.8219 10.2625 25.8711C10.3124 25.8562 10.3036 25.8466 10.2914 25.8972C10.3469 25.8831 10.3284 25.8763 10.3284 25.9398C10.4571 26.2132 11.8924 27.1102 12.29 27.319C13.4056 27.9047 13.7143 27.8719 14.7617 28.1933L14.7756 28.166C14.7195 28.1876 14.7323 28.1934 14.7502 28.1359C14.6546 28.1261 14.5531 28.0409 14.4606 27.9767C14.1866 27.7868 13.9881 27.5779 13.8715 27.2167C12.611 26.8896 12.2936 26.6904 11.2758 26.0336C11.0141 25.8647 10.4662 25.3771 10.2419 25.1601C10.1547 25.0757 10.0907 25.0087 10.0092 24.9158C9.76967 24.6424 9.59888 24.4934 9.35537 24.1374C8.19961 22.448 7.70606 20.6303 7.54597 18.5852C7.53512 18.4468 7.51858 18.4253 7.55767 18.3794C7.42178 19.468 7.57072 20.7825 7.84261 21.7905C7.97467 22.2802 8.14505 22.7571 8.33422 23.1759C8.4365 23.4023 8.54219 23.6067 8.6498 23.8128C8.71973 23.9467 8.97835 24.3211 8.99358 24.4176V24.4176Z" fill="#FEFEFE"/>
  <path fill-rule="evenodd" clip-rule="evenodd" d="M33.3581 27.3406L32.8956 27.1139C32.7852 27.1327 32.7407 27.1682 32.6359 27.2103C32.6937 27.3705 32.7536 27.2612 32.6291 27.5124C32.1334 28.5121 31.5758 28.5132 30.476 28.2229C30.2045 28.1512 30.0371 28.0603 29.8003 27.9748C29.6987 27.938 29.5401 27.9271 29.4339 27.8921C28.9787 27.7423 28.6295 27.4898 28.2554 27.2482C28.1356 27.1708 28.0968 27.111 27.9797 27.0586L27.7695 27.487L32.0427 29.6458L33.259 27.3337C33.3501 27.3239 33.2589 27.3222 33.3581 27.3406V27.3406Z" fill="#905646"/>
  <path fill-rule="evenodd" clip-rule="evenodd" d="M33.3579 27.3407C33.2587 27.3223 33.3499 27.324 33.2588 27.3337L32.0425 29.6458L27.7693 27.4871L27.9794 27.0586C27.9406 27.0062 27.5131 26.6507 27.465 26.6396C27.4183 26.7802 27.263 27.0487 27.1894 27.1944C27.0325 27.5049 27.2234 27.5245 27.4666 27.6465L32.0144 29.9358C32.5952 30.2273 32.4825 30.2228 32.863 29.4608L33.7167 27.76C33.8441 27.4746 33.534 27.4764 33.3579 27.3407V27.3407Z" fill="#FEFEFE"/>
  <path fill-rule="evenodd" clip-rule="evenodd" d="M18.2867 0.947496C18.2328 1.02239 18.2455 0.960423 18.2566 1.081L18.5436 2.17111C19.1672 4.32347 20.2187 6.63789 21.6465 8.32354L22.3858 9.12526C22.4616 9.05864 22.4527 9.15848 22.233 8.91328L21.8905 8.49841C21.6449 8.19547 21.3071 7.70628 21.1063 7.37495C20.917 7.06266 20.7308 6.74651 20.5626 6.40363C20.4756 6.22618 20.1114 5.50616 20.0796 5.33209C20.0635 5.19653 19.771 4.51192 19.6937 4.29481C19.3239 3.25575 18.9536 1.93631 18.7992 0.835938L18.2867 0.947496V0.947496Z" fill="#FEFEFE"/>
  <path fill-rule="evenodd" clip-rule="evenodd" d="M30.9602 21.3381C31.019 21.3769 31.4558 21.4408 31.5875 21.4878C32.08 21.6638 33.2321 22.2687 33.725 22.5452C33.9063 22.6469 34.0702 22.7529 34.2426 22.8424C34.4463 22.9482 34.62 22.7057 34.819 22.6957C34.9081 22.6912 35.2694 22.8669 35.3973 22.9L35.4328 22.821L35.4115 22.7986C35.2708 22.6334 34.8118 22.4569 34.5653 22.3197C34.4717 22.2676 34.3804 22.2149 34.275 22.1617L31.7929 20.8891C31.7397 20.861 31.6937 20.8253 31.6522 20.8052C31.394 20.6807 31.2165 20.8041 31.1024 21.0381C31.0556 21.1341 30.9736 21.2494 30.9602 21.3381V21.3381Z" fill="#905646"/>
  <path fill-rule="evenodd" clip-rule="evenodd" d="M16.2604 19.9534L16.2636 19.9464L16.3159 19.9871L16.3085 19.9833C16.3628 19.981 16.3475 19.9678 16.3567 20.0202C16.4949 20.1207 16.775 20.2638 16.9374 20.3492L18.7933 21.323C19.6423 21.7481 20.4657 22.1476 21.3404 22.5589C22.1984 22.9623 23.0557 23.3687 23.8892 23.7924C24.2043 23.9525 26.2499 25.0655 26.3672 25.0889L26.4714 25.1568C26.5372 25.1384 26.5248 25.1215 26.5248 25.1846L26.5244 25.1811C26.5766 25.1791 26.5633 25.1658 26.5694 25.2149L26.5794 25.2088L26.642 25.2224C23.7151 23.3823 22.0599 22.5533 18.9366 21.1255C18.4855 20.9193 18.0481 20.7222 17.5834 20.5178C17.1328 20.3198 16.6801 20.1479 16.2234 19.9189L16.2604 19.9534Z" fill="#FEFEFE"/>
  <path fill-rule="evenodd" clip-rule="evenodd" d="M17.5747 14.0409C17.5941 14.0572 18.0752 14.2144 18.1691 14.2532C18.8095 14.5174 19.2184 14.719 19.7998 15.0898C21.0542 15.8898 22.2266 17.2401 23.0483 18.4598C23.3089 18.8466 24.0788 20.1362 24.1642 20.6257C24.0097 19.909 23.3839 18.7504 23.0424 18.2095C22.8034 17.8309 22.5771 17.4934 22.3295 17.1568C22.2176 17.0048 21.5766 16.2378 21.5563 16.1647C21.4981 16.1844 21.5086 16.1931 21.5287 16.1348L21.0223 15.6612C20.9901 15.6254 21.0039 15.6387 20.9865 15.6128L20.9677 15.5753C20.9122 15.5924 20.9211 15.6023 20.9396 15.5471C20.8865 15.5634 20.8927 15.5757 20.9091 15.523C20.8526 15.5426 20.8597 15.5548 20.8773 15.4977C20.8283 15.4795 20.4479 15.1951 20.4077 15.0995C20.3481 15.1194 20.3508 15.1365 20.3726 15.0774C20.3014 15.0599 19.8621 14.7659 19.8161 14.6826C19.7492 14.6693 19.7513 14.6789 19.6666 14.6079C19.6635 14.6053 19.6549 14.6023 19.6527 14.5937C19.6506 14.5852 19.6434 14.5844 19.6392 14.5793C19.5737 14.6028 19.5911 14.6132 19.5911 14.5423C19.4969 14.4391 18.8717 14.1572 18.6742 14.0865C18.2346 13.929 18.0254 13.8493 17.5747 14.0409V14.0409Z" fill="#FEFEFE"/>
  <path fill-rule="evenodd" clip-rule="evenodd" d="M27.3955 28.5833C27.4427 28.5449 27.4113 28.5651 27.5 28.5505C27.6663 28.7199 30.5254 30.0537 31.2518 30.4488C31.3792 30.5181 31.3248 30.4619 31.3446 30.5511C31.4494 30.464 31.5286 30.259 31.5667 30.1321L28.6218 28.6494C28.3708 28.5236 27.858 28.2292 27.624 28.1597L27.3955 28.5833V28.5833Z" fill="#52180E"/>
  <path fill-rule="evenodd" clip-rule="evenodd" d="M19.475 10.2978C19.4163 10.8111 18.4159 10.8433 18.298 10.1549L18.8197 9.95343L18.3132 9.89495L18.3404 9.79506L18.3757 9.74845C18.3768 9.681 18.3533 9.70817 18.4094 9.70658C18.4011 9.65944 18.3897 9.66846 18.4349 9.67173C18.4236 9.62498 18.4119 9.63227 18.457 9.63871C18.4482 9.59385 18.4412 9.60438 18.4863 9.61677C18.4852 9.5717 18.4757 9.58312 18.5224 9.59169C18.5718 9.43381 18.3891 9.40465 18.0913 9.08176C17.9383 8.91598 17.8126 8.74646 17.6324 8.56982C17.2519 8.87323 17.3669 10.0511 17.9536 10.5118C18.553 10.9825 19.3471 11.122 19.9251 10.5574C19.8681 10.4722 19.8049 10.4579 19.7149 10.4013C19.5925 10.3244 19.5837 10.2526 19.475 10.2978V10.2978Z" fill="#FEFEFE"/>
  <path fill-rule="evenodd" clip-rule="evenodd" d="M20.2584 10.8297C20.2646 10.8728 20.2736 10.864 20.231 10.8558C20.2365 10.9019 20.2462 10.8924 20.2006 10.8828C20.2093 10.9301 20.2186 10.921 20.1719 10.9094C20.1825 10.9617 20.1893 10.9476 20.1355 10.9334L20.0972 10.9507L20.0578 10.9754C19.6646 11.2048 19.354 11.3391 18.7727 11.2681C17.8983 11.1612 17.2556 10.6325 17.0434 9.76745C16.8588 9.01444 17.0983 8.75425 17.1738 8.41367C17.2109 8.34181 17.2117 8.34104 17.2667 8.28271L17.2721 8.28859C17.1345 8.32439 16.9115 8.66731 16.8276 8.87408C16.5084 9.66061 16.8801 10.6364 17.4184 11.0769C18.4495 11.9205 19.9917 11.5247 20.2545 10.8244L20.2584 10.8297V10.8297Z" fill="#FEFEFE"/>
  <path fill-rule="evenodd" clip-rule="evenodd" d="M24.3491 49.3674C24.3491 49.5739 24.463 49.3632 24.5493 49.644C24.5881 49.7701 24.6213 49.8694 24.6638 50.0065C24.71 50.1556 24.8688 50.5693 24.8809 50.7155H25.1887L25.5246 49.5359C25.5447 49.565 25.5267 49.5283 25.5544 49.5902L25.6247 49.8005C25.6591 49.9229 25.6834 50.0011 25.717 50.1011C25.7523 50.2058 25.7738 50.2965 25.8078 50.4032C25.839 50.5014 25.8855 50.5864 25.8884 50.7155H26.2243L26.5814 49.5573C26.6305 49.4516 26.5926 49.4828 26.728 49.4797V49.2831H26.2522C26.2522 49.4813 26.239 49.4763 26.3922 49.4797C26.3252 49.6199 26.2903 49.8015 26.2351 49.9681C26.1763 50.1455 26.1268 50.2795 26.0843 50.4627C25.9986 50.3997 26.0508 50.4537 25.9689 50.1854C25.9385 50.0857 25.9149 49.9937 25.8779 49.8835C25.8416 49.7752 25.8085 49.681 25.7824 49.5861C25.7499 49.4682 25.7177 49.3915 25.6925 49.2831H25.3846L25.0907 50.3362C25.0497 50.4706 25.1156 50.393 25.0208 50.4627C25.0167 50.2778 24.7594 49.7028 24.7409 49.4797C24.9205 49.4647 24.8699 49.2831 24.7689 49.2831C24.4798 49.2831 24.3491 49.2426 24.3491 49.3674V49.3674Z" fill="#000"/>
  <path fill-rule="evenodd" clip-rule="evenodd" d="M31.123 49.3955C31.123 49.489 31.1733 49.4778 31.263 49.4798L31.6548 50.7156H31.9627C31.9867 50.6121 32.0145 50.5204 32.0432 50.4312C32.0759 50.3295 32.0994 50.2173 32.1272 50.1224C32.1651 49.9928 32.2456 49.6236 32.3265 49.5641C32.3388 49.7124 32.5161 50.2234 32.575 50.41L32.6623 50.7156H32.9702C33.0075 50.6374 33.0408 50.5229 33.07 50.4226L33.313 49.6553C33.3372 49.579 33.3536 49.5807 33.362 49.4798C33.5151 49.4764 33.5019 49.4814 33.5019 49.2832H33.0262V49.4798H33.1381C33.1306 49.571 33.1007 49.6168 33.07 49.7204L32.9083 50.2322C32.8846 50.322 32.8738 50.4102 32.8023 50.4628C32.7855 50.2608 32.4847 49.5039 32.4664 49.2832H32.1586L31.8227 50.4628C31.7536 50.383 31.6129 49.8738 31.5671 49.7363C31.5454 49.6712 31.515 49.5387 31.4869 49.4798H31.5988V49.2832H31.123V49.3955V49.3955Z" fill="#000"/>
  <path fill-rule="evenodd" clip-rule="evenodd" d="M43.548 33.105C43.548 32.3276 44.2586 32.2431 44.5917 32.5633C44.9456 32.9034 44.8092 33.698 44.1885 33.7123C43.8198 33.7208 43.548 33.427 43.548 33.105V33.105ZM43.2961 33.0489C43.2961 34.2161 45.0313 34.258 45.0313 33.0208C45.0313 32.5916 44.662 32.1782 44.2757 32.1782H44.1078C43.6506 32.1782 43.2961 32.5921 43.2961 33.0489V33.0489Z" fill="#000"/>
  <path fill-rule="evenodd" clip-rule="evenodd" d="M10.3274 49.4792H10.4393V50.5465H10.3274V50.715H10.8032V50.5465H10.6632V49.6196C10.6885 49.6488 10.6647 49.6141 10.6986 49.6684L11.2789 50.715H11.5308V49.4792C11.684 49.4758 11.6708 49.4808 11.6708 49.2826H11.195V49.4792H11.3349V50.3779C11.3097 50.3488 11.3335 50.3834 11.2995 50.3292C11.2813 50.2999 11.2765 50.288 11.2592 50.2574L10.7785 49.3917C10.6961 49.2521 10.773 49.2826 10.3274 49.2826V49.4792V49.4792Z" fill="#000"/>
  <path fill-rule="evenodd" clip-rule="evenodd" d="M27.7913 49.3955C27.7913 49.489 27.8415 49.4778 27.9312 49.4798V50.4628C27.9312 50.5562 27.881 50.545 27.7913 50.547V50.7156H28.295V50.547C28.074 50.547 28.207 50.5587 28.1271 50.519V49.6202C28.1974 49.672 28.7191 50.6133 28.7428 50.7156H29.0227V49.4798H29.1346V49.2832H28.6589C28.6589 49.4916 28.643 49.4798 28.8268 49.4798V50.3785C28.7808 50.3448 28.7686 50.3257 28.7377 50.2713L28.5095 49.8544C28.4537 49.7438 28.4163 49.6932 28.3604 49.5827C28.3016 49.4663 28.2404 49.4094 28.2111 49.2832H27.7913V49.3955V49.3955Z" fill="#000"/>
  <path fill-rule="evenodd" clip-rule="evenodd" d="M39.5745 49.3955C39.5745 49.4889 39.6247 49.4777 39.7144 49.4797V50.547H39.5745V50.7155H40.0502V50.547H39.9383V50.0414H40.694V50.547H40.554V50.7155H41.0578V50.547H40.9179V49.4797C41.0384 49.477 41.0578 49.4847 41.0578 49.3674C41.0578 49.2426 40.9271 49.2831 40.638 49.2831C40.5518 49.2831 40.554 49.3221 40.554 49.3955C40.554 49.4889 40.6043 49.4777 40.694 49.4797V49.8729H39.9383V49.4797H40.0502V49.2831H39.5745V49.3955V49.3955Z" fill="#000"/>
  <path fill-rule="evenodd" clip-rule="evenodd" d="M16.5408 49.3954C16.5408 49.4888 16.591 49.4777 16.6807 49.4797V50.5469H16.5408V50.7154H17.0166V50.5469H16.8766V50.0414H17.6603V50.5469H17.5203V50.7154H17.9961V50.5469H17.8842V49.4797H17.9961V49.2831C17.5615 49.2831 17.5203 49.241 17.5203 49.3954C17.5203 49.4888 17.5706 49.4777 17.6603 49.4797V49.8729H16.8766V49.4797H17.0166V49.2831H16.5408V49.3954Z" fill="#000"/>
  <path fill-rule="evenodd" clip-rule="evenodd" d="M6.49349 50.5471H6.24161V50.0977C6.45914 50.0977 6.74537 50.0375 6.74537 50.2943C6.74537 50.4331 6.63182 50.5471 6.49349 50.5471V50.5471ZM6.52148 49.9011H6.24161V49.4798H6.57746C6.6708 49.4798 6.74537 49.6172 6.74537 49.7045C6.74537 49.8145 6.64125 49.9011 6.52148 49.9011ZM5.90576 49.4798H6.01771V50.5471H5.90576V50.7156C6.26318 50.7156 6.96927 50.8365 6.96927 50.3224C6.96927 50.106 6.88327 50.1081 6.80135 49.9853C7.15845 49.7454 6.90284 49.2832 6.52148 49.2832H5.90576V49.4798V49.4798Z" fill="#000"/>
  <path fill-rule="evenodd" clip-rule="evenodd" d="M5.1224 50.5471C4.815 50.5471 4.87051 50.6127 4.87051 50.0977C5.25466 50.0977 5.37427 50.0494 5.37427 50.3505C5.37427 50.4526 5.23781 50.5471 5.1224 50.5471V50.5471ZM5.17837 49.9011H4.87051V49.4798C5.14575 49.4798 5.37427 49.4175 5.37427 49.7326C5.37427 49.7763 5.33919 49.8243 5.3191 49.8457C5.28015 49.8872 5.25836 49.9011 5.17837 49.9011V49.9011ZM4.53467 49.3955C4.53467 49.489 4.58492 49.4778 4.6746 49.4798V50.4628C4.6746 50.5562 4.62435 50.545 4.53467 50.5471V50.7156C5.08557 50.7156 5.59817 50.8223 5.59817 50.2662C5.59817 50.0907 5.49143 50.0691 5.43026 49.9853C5.78432 49.7474 5.53768 49.2832 5.17837 49.2832H4.53467V49.3955V49.3955Z" fill="#000"/>
  <path fill-rule="evenodd" clip-rule="evenodd" d="M9.62885 49.8446C9.43366 49.8903 9.44291 49.8727 9.20905 49.8727V49.4795C9.34786 49.4795 9.85827 49.4194 9.62885 49.8446V49.8446ZM8.84521 49.3672C8.84521 49.4845 8.86463 49.4768 8.98515 49.4795V50.5468H8.84521V50.7153H9.321V50.5468H9.20905V50.0693H9.37696C9.71926 50.0693 9.57585 50.7153 9.76879 50.7153H9.99269V50.5187C9.88151 50.5162 9.87966 50.5627 9.81381 50.2769C9.74962 49.9984 9.72664 50.1422 9.68483 49.9851C9.97732 49.9067 10.0337 49.2829 9.43295 49.2829C9.06589 49.2829 8.84521 49.2287 8.84521 49.3672V49.3672Z" fill="#000"/>
  <path fill-rule="evenodd" clip-rule="evenodd" d="M35.9915 49.8729H35.6557V49.4797C36.0658 49.4797 36.1314 49.45 36.1314 49.7325C36.1314 49.798 36.0568 49.8729 35.9915 49.8729ZM35.3198 49.3955C35.3198 49.4889 35.3701 49.4777 35.4598 49.4797V50.4627C35.4598 50.5561 35.4095 50.545 35.3198 50.547V50.7155H35.7956V50.547C35.6174 50.543 35.6557 50.5629 35.6557 50.0695C35.9144 50.0695 35.9834 50.0419 36.0663 50.3034C36.0967 50.3991 36.1516 50.6207 36.1594 50.7155H36.4673V50.5189H36.3274C36.3253 50.4243 36.2953 50.3147 36.2725 50.2369C36.2438 50.1389 36.202 50.0941 36.1594 50.0133C36.1635 50.0078 36.572 49.6542 36.2317 49.3791C36.0554 49.2366 35.5988 49.2831 35.3198 49.2831V49.3955V49.3955Z" fill="#000"/>
  <path fill-rule="evenodd" clip-rule="evenodd" d="M20.626 49.873H20.2902V49.4798C20.7003 49.4798 20.766 49.45 20.766 49.7326C20.766 49.7981 20.6913 49.873 20.626 49.873ZM19.9543 49.3955C19.9543 49.489 20.0046 49.4778 20.0943 49.4798V50.4628C20.0943 50.5562 20.044 50.545 19.9543 50.547V50.7156H20.4301V50.547H20.2902V50.0696C20.5042 50.0696 20.6367 50.0406 20.7034 50.3009L20.794 50.7156H21.1018V50.519H20.9619C20.9565 50.2777 20.8205 50.0852 20.794 49.9853C21.1478 49.7975 21.0133 49.2832 20.5701 49.2832H19.9543V49.3955V49.3955Z" fill="#000"/>
  <path fill-rule="evenodd" clip-rule="evenodd" d="M42.0648 50.5467C41.3425 50.5467 41.4512 49.4513 42.0089 49.4513C42.6782 49.4513 42.5863 50.5467 42.0648 50.5467ZM41.3372 49.985C41.3372 50.2198 41.3941 50.3862 41.511 50.5126C41.945 50.9821 42.7085 50.7156 42.7085 49.985C42.7085 49.0145 41.3372 49.0137 41.3372 49.985Z" fill="#000"/>
  <path fill-rule="evenodd" clip-rule="evenodd" d="M7.41726 50.0694C7.41726 49.1759 8.34084 49.3696 8.34084 49.9289C8.34084 50.1194 8.34902 50.2358 8.21884 50.3963C7.96509 50.7092 7.41726 50.5079 7.41726 50.0694ZM7.19336 49.9851C7.19336 51.0284 8.56473 50.9312 8.56473 50.0694V49.9289C8.56473 49.5975 8.27049 49.2549 7.89304 49.2549C7.48799 49.2549 7.19336 49.5858 7.19336 49.9851Z" fill="#000"/>
  <path fill-rule="evenodd" clip-rule="evenodd" d="M34.3119 49.4522C34.4669 49.4522 34.6076 49.5189 34.6972 49.6273C34.9113 49.8865 34.8642 50.5476 34.3119 50.5476C34.0652 50.5476 33.8815 50.2896 33.8747 50.0107C33.8714 49.8766 33.9184 49.7307 33.9866 49.6313C34.0389 49.5552 34.1989 49.4522 34.3119 49.4522ZM33.6682 49.9016C33.6682 50.1931 33.714 50.5119 34.0233 50.6687C34.7436 51.0337 35.3673 50.1049 34.8491 49.4748C34.4814 49.0275 33.6682 49.3132 33.6682 49.9016Z" fill="#000"/>
  <path fill-rule="evenodd" clip-rule="evenodd" d="M19.0041 49.4516C19.5511 49.4516 19.6631 50.5469 18.9481 50.5469C18.3989 50.5469 18.3173 49.4516 19.0041 49.4516ZM18.3044 49.9571C18.3044 50.2582 18.3957 50.5192 18.641 50.6585C19.1131 50.9268 19.6758 50.5574 19.6758 50.0133C19.6758 48.9993 18.3044 49.0289 18.3044 49.9571Z" fill="#000"/>
  <path fill-rule="evenodd" clip-rule="evenodd" d="M13.6858 49.3675C13.6858 49.4847 13.7052 49.4771 13.8257 49.4798V50.547H13.6858V50.7156H14.7213V50.2943C14.4661 50.2943 14.4974 50.263 14.4974 50.547H14.0496V50.0977C14.5171 50.0977 14.4694 50.1401 14.4694 49.9011H14.0496V49.4798H14.4974C14.4974 49.7305 14.4715 49.7045 14.7213 49.7045V49.2832H13.7698C13.7053 49.2832 13.6858 49.3027 13.6858 49.3675V49.3675Z" fill="#000"/>
  <path fill-rule="evenodd" clip-rule="evenodd" d="M36.7761 49.3955C36.7761 49.489 36.8264 49.4778 36.9161 49.4798V50.547H36.7761V50.7156H37.2519V50.547C37.1419 50.5446 37.1863 50.5547 37.112 50.519V50.0415C37.2218 50.071 37.6717 50.5355 37.6717 50.6032V50.7156H38.0635V50.547C37.8421 50.547 37.8014 50.4386 37.6787 50.3153C37.5705 50.2067 37.4454 50.1075 37.3639 49.9853C37.4197 49.9016 37.4369 49.897 37.5199 49.833C37.5962 49.774 37.6271 49.7326 37.6997 49.6764C37.7824 49.6121 37.8266 49.5483 37.9204 49.5047L37.9815 49.4817C38.0666 49.4395 38.0635 49.5209 38.0635 49.2832C37.4112 49.2832 37.9188 49.2878 37.5686 49.5729C37.4304 49.6855 37.2945 49.8346 37.112 49.9573V49.4798H37.2519V49.2832H36.7761V49.3955V49.3955Z" fill="#000"/>
  <path fill-rule="evenodd" clip-rule="evenodd" d="M29.4146 49.3958C29.4146 49.4892 29.4648 49.478 29.5545 49.48V50.5473H29.4146V50.7158H30.4501C30.4501 50.2391 30.4978 50.2945 30.2262 50.2945V50.5473H29.7504V50.0979C30.2179 50.0979 30.1702 50.1403 30.1702 49.9013H29.7504V49.48H30.2262V49.7047H30.4501C30.4501 49.1508 30.6368 49.2834 29.4146 49.2834V49.3958V49.3958Z" fill="#000"/>
  <path fill-rule="evenodd" clip-rule="evenodd" d="M15.5608 49.5077C15.6489 49.6094 15.7238 49.942 15.7847 50.0694H15.3929C15.4047 49.9279 15.5152 49.7045 15.5608 49.5077ZM14.8892 50.5469V50.7154H15.3649V50.5469H15.225C15.2364 50.4099 15.2962 50.3916 15.309 50.2379H15.8407C15.8635 50.2855 15.9192 50.4807 15.9247 50.5469H15.8407V50.7154H16.3165V50.5469C16.1152 50.5469 16.1693 50.5176 16.0727 50.258C16.0299 50.143 15.9905 50.0286 15.9561 49.9255L15.783 49.4252C15.7291 49.269 15.7867 49.283 15.5049 49.283C15.3955 49.283 15.2737 49.754 15.2183 49.9223L15.0395 50.445C15.0033 50.5403 15.0071 50.5443 14.8892 50.5469V50.5469Z" fill="#000"/>
  <path fill-rule="evenodd" clip-rule="evenodd" d="M18.522 9.59097C18.5298 9.64133 18.5378 9.62828 18.4859 9.61605C18.487 9.65308 18.495 9.64367 18.4566 9.63799C18.4644 9.68198 18.4757 9.67438 18.4344 9.67101C18.4459 9.7207 18.4575 9.71182 18.4089 9.70586L18.3753 9.74773C18.3914 9.80963 18.4035 9.79434 18.34 9.79434L18.3127 9.89423L18.8193 9.95271L18.2976 10.1542C18.4155 10.8426 19.4159 10.8104 19.4746 10.2971C19.4686 10.179 19.4904 10.2441 19.3838 10.1716L19.0228 9.91578C18.8693 9.79321 18.7253 9.65645 18.5821 9.54736L18.522 9.59097V9.59097Z" fill="#231714"/>
  <path fill-rule="evenodd" clip-rule="evenodd" d="M2.93896 49.3675C2.93896 49.4848 2.95838 49.4772 3.0789 49.4799C3.0789 49.8628 3.02703 50.2728 3.20588 50.532C3.47465 50.9215 4.1704 50.7371 4.1704 50.2101V49.4799C4.32353 49.4764 4.31033 49.4814 4.31033 49.2833H3.83455V49.4799H3.97449C3.97449 49.748 4.02259 50.298 3.8943 50.4386C3.77696 50.5671 3.54091 50.5857 3.39715 50.4524C3.24829 50.3145 3.3028 49.7731 3.3028 49.4799C3.45593 49.4764 3.44274 49.4814 3.44274 49.2833C3.1109 49.2833 2.93896 49.2357 2.93896 49.3675V49.3675Z" fill="#000"/>
  <path fill-rule="evenodd" clip-rule="evenodd" d="M22.6416 49.3675C22.6416 49.4847 22.661 49.4771 22.7815 49.4798V50.547H22.6416V50.7156H23.6771V50.2943H23.4812C23.4812 50.6006 23.5425 50.547 23.0614 50.547C22.9347 50.547 22.9774 50.403 22.9774 50.0977H23.3973V49.9011C22.8948 49.9011 22.9774 49.984 22.9774 49.4798H23.4812V49.7045H23.6771V49.2832H22.7256C22.6611 49.2832 22.6416 49.3027 22.6416 49.3675V49.3675Z" fill="#000"/>
  <path fill-rule="evenodd" clip-rule="evenodd" d="M38.3436 49.62C38.3436 49.8397 38.3615 49.9626 38.661 50.0598C38.9185 50.1433 39.0713 50.1269 39.0713 50.3502C39.0713 50.614 38.5721 50.6591 38.5395 50.266H38.2877C38.2877 50.5352 38.2472 50.3391 38.366 50.4963C38.4116 50.5565 38.4048 50.5676 38.4609 50.6257C38.6276 50.7985 39.0714 50.799 39.2453 50.5529C39.3301 50.4328 39.3364 50.2558 39.2675 50.1254C39.0984 49.8051 38.5675 50.002 38.5675 49.62C38.5675 49.507 38.7333 49.447 38.8427 49.4574C38.9635 49.4689 39.0678 49.5451 39.0713 49.7043C39.3483 49.7043 39.3232 49.724 39.3232 49.5076C39.1501 49.4932 39.1674 49.2549 38.8194 49.2549C38.603 49.2549 38.3436 49.3971 38.3436 49.62Z" fill="#000"/>
  <path fill-rule="evenodd" clip-rule="evenodd" d="M21.4118 49.6767C21.4118 49.9881 21.6531 50.039 21.9045 50.1091C22.3003 50.2193 22.1821 50.5473 21.9156 50.5473C21.7083 50.5473 21.6238 50.4594 21.6078 50.2665C21.4342 50.2665 21.3559 50.2256 21.3559 50.3788C21.3559 50.5085 21.3147 50.3522 21.4224 50.4806L21.5307 50.6246C21.7208 50.8426 22.3914 50.7851 22.3914 50.3226C22.3914 49.7809 21.6357 50.033 21.6357 49.6205C21.6357 49.4828 21.9573 49.3674 22.0933 49.5545C22.1936 49.6925 22.0822 49.7048 22.3074 49.7048C22.4161 49.7048 22.3914 49.6117 22.3914 49.5082C22.2257 49.49 22.3392 49.4583 22.1848 49.3503C21.9193 49.1646 21.4118 49.2626 21.4118 49.6767V49.6767Z" fill="#000"/>
  <path fill-rule="evenodd" clip-rule="evenodd" d="M12.4551 49.6199C12.4551 50.0018 12.6634 50.023 12.97 50.1143C13.3211 50.2189 13.2466 50.5467 12.9589 50.5467C12.7149 50.5467 12.6952 50.4561 12.6511 50.2659H12.3992C12.3992 50.5537 12.4026 50.3556 12.5302 50.5556C12.7505 50.9009 13.4347 50.7585 13.4347 50.322C13.4347 49.7655 12.679 50.0362 12.679 49.6199C12.679 49.5269 12.9804 49.2903 13.1784 49.6243C13.2249 49.7028 13.1441 49.7041 13.3507 49.7041C13.4594 49.7041 13.4347 49.6111 13.4347 49.5075C13.29 49.4917 13.4035 49.5248 13.3258 49.4483C12.8912 49.0201 12.4551 49.4015 12.4551 49.6199Z" fill="#000"/>
  <path fill-rule="evenodd" clip-rule="evenodd" d="M0.308717 49.62C0.308717 50.0066 0.473561 50.0104 0.82353 50.1144C1.15457 50.2129 1.12494 50.5468 0.756507 50.5468C0.585311 50.5468 0.508452 50.4381 0.504625 50.266H0.252743C0.252743 50.5352 0.212254 50.3391 0.331103 50.4963C0.499141 50.7184 0.504014 50.7434 0.868457 50.7434C1.04059 50.7434 1.20747 50.5828 1.2553 50.4562C1.44336 49.9586 0.738582 49.9049 0.59781 49.8066C0.256093 49.568 0.994719 49.2018 1.03638 49.7043C1.28102 49.7043 1.28826 49.7566 1.28826 49.5076C1.13097 49.4945 1.08506 49.2549 0.812482 49.2549C0.569498 49.2549 0.308717 49.3836 0.308717 49.62V49.62Z" fill="#000"/>
  <path fill-rule="evenodd" clip-rule="evenodd" d="M43.6605 49.8727H43.3246V49.4795H43.6045C43.7351 49.4795 43.8004 49.545 43.8004 49.6761C43.8004 49.7708 43.7509 49.8727 43.6605 49.8727ZM42.9888 49.3953C42.9888 49.4887 43.039 49.4775 43.1287 49.4795V50.5468H42.9888V50.7153H43.4646V50.5468H43.3246V50.0693C43.5494 50.0693 44.0243 50.0897 44.0243 49.6761C44.0243 49.1903 43.4074 49.2829 42.9888 49.2829V49.3953Z" fill="#000"/>
  <path fill-rule="evenodd" clip-rule="evenodd" d="M1.45605 49.6764C1.70585 49.6764 1.67995 49.7024 1.67995 49.4517H1.95982V50.4628C1.95982 50.5562 1.90957 50.545 1.81989 50.547V50.7156H2.32365V50.547C2.0825 50.547 2.15573 50.5962 2.15573 49.536C2.15573 49.4161 2.26315 49.4517 2.51956 49.4517V49.6764H2.71547V49.2832H1.45605V49.6764V49.6764Z" fill="#000"/>
  <path fill-rule="evenodd" clip-rule="evenodd" d="M30.3114 27.5053C30.5387 27.5081 31.0628 27.2431 31.2489 27.1363C31.5509 26.9629 31.7855 26.7792 32.0221 26.5646L32.3572 26.2276C32.4285 26.1804 32.7889 26.1451 32.9111 26.1088C33.2145 26.0189 33.616 25.7827 33.652 25.5121L33.6855 25.1938C33.5828 25.5938 33.3449 25.7788 32.9569 25.9079C32.7284 25.9839 32.5747 25.9749 32.3319 26.0151C32.2158 26.0342 32.2206 26.0894 32.1426 26.1783C31.7446 26.6321 31.0045 27.3336 30.2588 27.5001L30.3114 27.5053Z" fill="#FEFEFE"/>
  <path fill-rule="evenodd" clip-rule="evenodd" d="M44.1924 33.0219H44.0524V32.7972C44.1632 32.7972 44.2763 32.8011 44.2763 32.9095V32.9376C44.2763 33.0023 44.2568 33.0219 44.1924 33.0219V33.0219ZM43.8005 32.6848V33.4151C43.8005 33.5243 43.8723 33.4993 44.0524 33.4993V33.2185C44.2352 33.2185 44.1608 33.1741 44.3323 33.4993H44.5842C44.5599 33.3948 44.4784 33.2801 44.4163 33.1623C44.4772 33.071 44.5562 33.0387 44.5562 32.8814C44.5562 32.5527 44.1416 32.6006 43.8845 32.6006C43.82 32.6006 43.8005 32.6201 43.8005 32.6848Z" fill="#000"/>
  <path fill-rule="evenodd" clip-rule="evenodd" d="M36.2433 23.7388C36.4782 23.4621 36.3985 22.6199 36.3026 22.2671C36.1482 22.3451 35.9402 22.5752 35.8897 22.7038C35.8158 22.892 35.9471 22.7489 36.0877 23.3178C36.1064 23.3935 36.1252 23.4676 36.1444 23.5395C36.1676 23.6264 36.1786 23.6855 36.2433 23.7388Z" fill="#9DBED9"/>
  <path fill-rule="evenodd" clip-rule="evenodd" d="M26.9513 49.3673C26.9513 49.4846 26.9707 49.477 27.0912 49.4797V50.5469H26.9513C26.9513 50.7565 26.909 50.7154 27.427 50.7154V50.5469H27.3151V49.4797H27.427V49.2831C27.1086 49.2831 26.9513 49.2378 26.9513 49.3673V49.3673Z" fill="#000"/>
  <path fill-rule="evenodd" clip-rule="evenodd" d="M33.2739 26.8773L33.3039 26.8935L33.4735 26.9552C33.5709 26.7692 33.6653 26.5652 33.7533 26.3848C33.6405 26.464 33.585 26.5925 33.3948 26.7355C33.3852 26.7426 33.3315 26.7802 33.3293 26.7824C33.2541 26.8548 33.2995 26.791 33.2739 26.8773Z" fill="#905646"/>
</svg>
