<svg xmlns="http://www.w3.org/2000/svg" fill="none" viewBox="0 0 70 67" class="design-iconfont">
  <path fill-rule="evenodd" clip-rule="evenodd" d="M58.5332 34.6869C58.7047 35.8717 58.5469 37.902 58.5669 39.1933C58.6471 44.368 59.0415 46.9185 59.7431 52.0594C60.1151 54.7855 60.455 57.4103 61.0611 60.0252C61.3574 61.303 61.4214 62.6536 61.8555 63.8387C62.0675 64.4177 62.2359 65.0683 62.4688 65.5934C62.6839 66.0784 63.2188 66.546 63.5627 66.9652C64.7847 67.0475 64.8992 66.5496 65.4441 65.8716C66.9895 63.9482 66.85 63.2145 67.0722 61.4578C67.1394 60.9267 67.5864 59.7323 67.7803 59.1164C68.0194 58.3566 70.5724 50.1123 69.8827 49.5786C68.88 48.8028 67.8329 51.2903 67.5337 51.8787C67.1956 52.5429 66.2665 54.7272 65.9183 55.1085C65.8107 54.9724 65.8599 55.0827 65.7726 54.8119C65.4267 53.7379 64.2658 42.905 64.2583 42.5682C64.2095 40.4144 64.5313 34.1724 63.3238 32.8118C62.6904 32.0982 62.4362 32.539 61.8758 31.4517C61.2493 30.2362 59.8398 30.159 58.5754 30.0492C57.4123 29.9484 56.1657 29.902 54.9721 29.8607C53.9873 29.8266 48.0448 29.4968 47.8442 30.439C47.2758 33.1055 55.7492 34.2195 58.5332 34.6869V34.6869Z" fill="#4C2A11"/>
  <path fill-rule="evenodd" clip-rule="evenodd" d="M43.8233 28.3225C42.48 29.1443 41.6589 30.073 40.5846 31.4202C37.6607 35.0877 35.4199 38.5189 32.9084 42.6695C31.1863 45.5154 30.0384 48.0123 28.884 51.0821C28.2982 52.6401 27.6799 54.0446 27.4168 55.8458C27.0914 58.0736 28.8503 64.2491 32.0799 57.821C32.8217 56.3447 33.2814 55.1088 33.9032 53.4479C36.1646 47.4066 38.4223 41.7286 41.2207 35.8075L44.9256 28.5086C44.8649 27.8422 44.2514 28.0607 43.8233 28.3225V28.3225Z" fill="#4C2A11"/>
  <path fill-rule="evenodd" clip-rule="evenodd" d="M46.4992 48.3629C45.7543 49.1051 45.3049 49.5147 44.6344 50.4042C41.4338 54.6502 45.2037 52.4057 46.5922 51.1383C47.0855 50.688 46.987 50.5236 47.5292 50.3655L51.0664 56.2926C52.4709 58.522 51.8309 57.4289 53.1207 58.9786C54.2866 60.3794 55.0936 59.5549 55.8972 58.2661C57.8941 55.0645 56.6178 54.4383 54.9867 51.7173L52.3412 47.289C52.0261 46.7953 51.5256 46.2862 51.3326 45.7995C51.9838 44.8607 54.1332 42.8924 54.2775 42.2637C53.0676 42.495 51.4972 44.2134 50.5941 44.7491C49.3893 43.9526 46.8782 38.0106 44.4716 39.4795C43.1669 40.2758 46.5278 47.2536 46.4992 48.3629V48.3629Z" fill="#4C2A11"/>
  <path fill-rule="evenodd" clip-rule="evenodd" d="M20.5285 29.8797C19.4782 30.4381 18.1412 30.2883 17.4405 30.8242C17.9971 32.3618 19.4322 30.8822 20.443 30.5356C20.494 32.1398 22.1279 36.0059 24.077 34.7995C25.2291 34.0862 26.2888 30.3795 26.3927 28.6662C26.5377 26.2786 25.923 23.8051 24.4398 22.3504C23.9225 21.843 22.5454 21.0999 21.6609 20.866C20.0239 20.4331 16.2847 21.1551 14.9791 22.588C13.4597 24.2553 13.2566 27.0856 13.7532 29.1604C14.1377 30.7664 15.2559 32.2369 15.3915 30.997C15.4021 30.9009 15.2042 29.5757 15.2166 29.0691C15.2826 26.3937 16.4862 24.5224 19.6049 25.0932C20.2435 25.2102 20.6671 25.3262 20.7702 25.9824C20.9426 27.08 20.9469 28.9684 20.5285 29.8797V29.8797Z" fill="#4C2A11"/>
  <path fill-rule="evenodd" clip-rule="evenodd" d="M33.0235 18.2061L32.9879 18.4098C33.0532 18.9823 33.434 18.9388 33.6722 19.5949C34.4003 21.5991 33.4689 25.6993 33.0085 27.3905C32.56 29.0381 31.846 30.3494 31.2458 31.9721C30.9595 32.7466 30.8477 33.6525 30.5976 34.3525C30.2228 35.4011 30.2003 35.5794 31.3194 36.2413C35.2655 38.5748 38.9194 30.0049 38.6071 25.2872C38.4056 22.2434 35.809 17.2823 33.0235 18.2061Z" fill="#4C2A11"/>
  <path fill-rule="evenodd" clip-rule="evenodd" d="M12.6468 17.3376C13.8516 16.9704 14.9643 14.6698 15.5126 13.3483L17.2637 8.24228C18.1916 8.27513 24.2639 9.48635 25.4949 9.75199C26.4997 9.96889 28.6029 10.8441 29.4217 10.1811C30.02 9.69704 30.9337 7.63992 30.466 6.81624C29.9776 6.06043 28.5608 6.04623 27.6177 6.17689C26.5161 6.3297 25.3749 6.38787 24.3141 6.54132C22.1446 6.85493 19.9056 6.90322 17.709 7.2471C17.8576 5.99937 19.8332 1.32728 19.6499 0.474429C18.9964 -2.56574 12.9821 9.98258 12.7701 10.4267C12.224 11.5709 11.8228 12.3847 11.7501 13.8211C11.6768 15.2652 11.6556 16.7312 12.6468 17.3376V17.3376Z" fill="#4C2A11"/>
  <path fill-rule="evenodd" clip-rule="evenodd" d="M10.1208 22.6308C9.02653 22.5377 6.77782 23.5036 5.83419 23.9839C4.53978 24.6426 3.67893 25.6577 2.84492 26.6155C2.15972 27.4022 1.04375 28.8235 0.399532 29.756C-0.0791539 30.4489 -0.117609 30.9805 0.230091 31.7852C0.67193 32.8072 1.83651 34.5981 2.91388 34.8686C3.7603 35.0808 4.33243 34.2789 4.66755 33.8382C6.62888 31.2579 10.585 25.9866 10.1208 22.6308Z" fill="#4C2A11"/>
  <path fill-rule="evenodd" clip-rule="evenodd" d="M25.1976 42.5732C24.8651 42.0487 24.9898 41.3989 24.3051 41.0952C23.8104 40.8758 22.7305 41.1181 22.2685 41.3293C21.8698 41.8743 22.2857 41.7834 21.9625 42.2849C21.8618 42.4408 21.4359 42.6723 21.2528 42.8207C20.7069 43.263 20.3683 44.0311 19.6241 43.1016C20.0206 42.7466 19.6928 43.0694 20.4466 42.8431C20.9791 42.6833 21.5591 41.9884 20.9434 40.9666C17.7431 40.3878 18.1429 45.0164 20.6602 44.6038C21.4781 44.4698 21.6536 43.7999 22.1327 43.4018C22.5233 43.7977 22.2373 43.6837 22.7165 43.9166C23.6397 43.2251 22.781 42.3633 23.884 42.084C24.3321 42.7125 24.2121 43.8028 25.0517 43.8684L25.3493 42.9663C25.7926 43.8292 25.7706 43.9339 26.844 43.5953C26.7874 44.8778 26.3851 46.5264 25.6656 47.3083C25.0257 48.0033 23.997 48.4314 23.0114 48.3397C22.3171 48.2752 22.6836 48.1351 22.0866 47.9436C21.5105 49.7266 25.3873 50.1167 26.7781 47.5207C27.3601 46.4344 28.3125 42.8251 27.4253 41.5839L27.0188 40.8863C25.4691 40.6716 25.6032 42.0857 25.1976 42.5732V42.5732Z" fill="#4A3423"/>
  <path fill-rule="evenodd" clip-rule="evenodd" d="M2.78003 8.32234C2.78416 9.04517 5.11253 12.3892 5.37078 12.59C6.33316 13.3379 7.25387 14.2071 8.03523 12.8094L9.19553 10.1018C9.71217 7.81269 8.79771 8.25223 7.81341 7.63534C6.92804 7.08048 3.37389 7.84108 2.78003 8.32234V8.32234Z" fill="#4C2A11"/>
  <path fill-rule="evenodd" clip-rule="evenodd" d="M16.6545 17.8086C17.5102 18.24 20.8703 17.1251 21.9032 16.8713C23.0245 16.5957 23.5108 16.656 24.1046 15.7838C24.5791 15.087 24.9736 14.2961 24.9371 13.2418C23.7154 12.766 23.5381 12.7456 22.0919 13.1172C20.9003 13.4233 18.2887 15.7841 17.2429 16.7232C16.8671 17.0609 16.5039 17.1992 16.6545 17.8086V17.8086Z" fill="#4C2A11"/>
  <path fill-rule="evenodd" clip-rule="evenodd" d="M41.9033 10.721C42.1369 11.0581 42.0805 11.0499 42.5801 11.1367C43.2546 11.2541 44.6177 10.9775 45.5561 11.0548C45.5237 11.4446 44.5895 12.9113 44.3181 13.1191C43.8237 12.8893 43.5333 12.4396 42.8018 12.5616C42.8424 13.0808 43.5101 13.5898 43.7335 14.094C43.3187 14.8103 42.5865 15.4406 42.7752 16.5966C43.8266 16.8539 44.2689 15.6131 44.7559 15.1193C45.269 15.3142 45.7159 15.7644 46.3127 16.1648C46.9041 16.5616 47.3258 16.9707 48.1895 16.9732C49.8718 14.5276 47.5033 14.7668 45.3783 13.7836C45.3823 13.7469 46.1606 11.1053 46.5928 10.7927C47.0729 10.4451 47.2988 10.6489 47.313 10.0464C46.2987 9.47736 44.3191 10.087 43.1715 10.3571L41.9033 10.721Z" fill="#4C2A11"/>
  <path fill-rule="evenodd" clip-rule="evenodd" d="M31.5855 27.8176C32.2655 26.4058 33.0547 25.2626 32.1728 23.4372C31.5781 22.2062 30.8744 20.7817 28.957 21.075C28.9557 21.0804 29.3082 24.8217 29.3718 25.0794C29.6167 26.0707 30.4173 27.6791 31.5855 27.8176Z" fill="#4C2A11"/>
  <path fill-rule="evenodd" clip-rule="evenodd" d="M50.1053 24.8871C49.8519 25.4776 49.5981 25.3682 49.4885 26.1668C50.108 26.1479 50.4337 25.9484 50.8858 25.779C51.6566 26.2104 52.2428 26.7072 53.1695 26.9518C54.3305 27.2584 54.8171 26.3617 54.7985 25.4268C54.0949 24.6457 53.1963 24.9078 52.3776 24.3475C53.0361 23.4084 53.8577 22.8433 53.912 22.2144C52.6008 22.201 52.0523 23.563 51.1777 23.7405C50.6797 22.7967 50.9667 22.0413 50.8896 20.969C50.282 20.9193 50.1563 20.9901 49.9541 21.4759C49.8429 21.7433 49.6726 22.3562 49.6173 22.6304C49.4082 23.6647 49.6238 24.1206 50.1053 24.8871V24.8871Z" fill="#4C2A11"/>
  <path fill-rule="evenodd" clip-rule="evenodd" d="M14.3501 36.761C14.6576 37.3324 15.2018 37.3804 15.9727 37.7327C16.0325 38.6514 14.3366 44.4085 16.1384 45.222C16.8851 44.438 16.7798 42.9025 16.8753 41.6152C17.5086 41.7216 17.8719 41.928 18.5043 41.6517C18.4383 40.7325 17.7887 40.949 16.9115 40.9099C16.7955 39.9718 17.052 39.1074 17.1587 38.2201L18.3884 38.2837C18.5455 37.9671 18.7451 37.7094 18.6818 37.2539C18.0173 36.8398 15.9742 36.7686 14.9122 36.6856L14.6812 36.6792C14.3864 36.6995 14.5402 36.668 14.3501 36.761V36.761Z" fill="#4C2A11"/>
  <path fill-rule="evenodd" clip-rule="evenodd" d="M44.9762 23.4724C46.0712 23.7755 46.3528 22.5889 47.1492 22.1448C47.0548 23.2493 46.0801 25.0887 47.3822 26.1201C47.5648 25.9824 47.4774 26.0946 47.68 25.8336L48.1997 24.5774L48.5606 20.3236C48.71 19.6528 49.3772 19.5585 49.461 18.6411C48.4922 18.7093 47.3397 20.0361 46.7441 20.6592C46.0829 21.3509 44.6317 22.419 44.9762 23.4724V23.4724Z" fill="#4C2A11"/>
  <path fill-rule="evenodd" clip-rule="evenodd" d="M6.56575 39.7592C6.21479 39.6166 6.36387 39.7031 6.12942 39.4214C5.996 39.2609 5.90035 39.0392 5.81898 38.8948C5.50165 38.3333 5.53147 38.2748 4.83813 38.1718C4.88311 38.8856 5.17564 39.4248 5.43283 40.061C5.62469 40.5357 6.09928 41.2147 6.16618 41.6292C6.37922 42.9485 5.81517 44.8727 6.95599 45.5941C7.85152 44.8413 7.38543 42.6063 7.22113 41.5334C6.90224 39.4503 8.41865 38.99 7.83172 38.0107C7.32368 38.0471 6.97497 38.9114 6.56575 39.7592V39.7592Z" fill="#4C2A11"/>
  <path fill-rule="evenodd" clip-rule="evenodd" d="M5.8051 17.833C4.93507 18.005 4.22387 18.3597 3.86978 19.2016C3.51776 20.0387 4.79338 20.4488 5.66906 20.5352C6.76353 20.6434 7.10052 19.868 7.38496 19.0953C7.87247 17.7706 6.90435 17.616 5.8051 17.833V17.833Z" fill="#4C2A11"/>
  <path fill-rule="evenodd" clip-rule="evenodd" d="M9.43672 43.1492C9.28175 42.9727 9.42758 43.2683 9.17659 42.7995C9.06903 42.5988 9.05488 42.5325 9.01096 42.2766C8.9301 41.8075 8.99111 41.6042 8.84616 41.231C7.3971 41.5195 9.10418 46.5425 10.8749 43.2457C11.5155 43.6691 11.1926 44.0506 12.1933 44.0462C11.6104 42.632 11.571 41.466 11.265 41.02C9.74564 40.8117 10.3674 42.0408 9.75341 42.8502C9.58806 43.068 9.62238 43.0154 9.43672 43.1492V43.1492Z" fill="#4C2A11"/>
  <path fill-rule="evenodd" clip-rule="evenodd" d="M9.35327 53.2207C9.80747 53.4394 9.38428 53.243 9.71044 53.2846L10.1879 53.3556C10.1362 54.3777 10.1057 55.2065 11.0419 55.49C11.8299 55.3514 11.6249 54.9411 12.2094 54.5792C12.6159 55.0147 12.6385 55.4924 13.4673 55.3213C13.9434 54.5854 13.6445 54.7604 13.2763 54.2697C12.875 53.7347 13.0684 53.5182 12.9756 52.9112C11.7192 52.4994 11.9241 54.0421 11.0419 54.4265C10.5332 53.6166 11.6966 51.8864 9.97746 52.6431C9.58322 52.8165 9.39444 52.826 9.35327 53.2207V53.2207Z" fill="#4A3423"/>
  <path fill-rule="evenodd" clip-rule="evenodd" d="M25.3173 54.4806C24.5547 54.5209 24.3575 54.9939 23.6926 54.57C23.8905 54.0577 24.0825 54.4071 24.5076 53.9189C25.5081 52.7697 23.2935 52.0363 22.8877 54.0636C22.4682 56.159 25.1341 56.5189 25.3173 54.4806V54.4806Z" fill="#4A3423"/>
  <path fill-rule="evenodd" clip-rule="evenodd" d="M8.29262 55.9271C8.29519 55.2437 6.79789 53.7961 7.80787 52.9249C8.20762 52.5801 7.9904 52.8425 8.29569 52.7133C8.81784 52.4919 8.47308 52.9174 8.77355 52.4111C6.06647 50.671 5.73687 57.0879 8.29262 55.9271Z" fill="#4A3423"/>
  <path fill-rule="evenodd" clip-rule="evenodd" d="M18.4841 54.17C18.36 53.8337 18.4437 53.8529 18.396 53.6229L18.25 53.1812C18.2392 53.1565 18.2183 53.1115 18.1921 53.0833C17.897 53.4075 17.8092 53.8828 17.8808 54.423C17.9577 55.0017 18.1052 55.2329 18.63 55.4356C19.2179 55.1946 18.8742 55.2075 19.3598 54.87C19.6551 55.1483 19.6533 55.3552 20.16 55.3094C20.5427 53.8717 19.7318 51.9149 19.0012 53.2907C18.7454 53.7724 19.0183 53.9211 18.4841 54.17V54.17Z" fill="#4A3423"/>
  <path fill-rule="evenodd" clip-rule="evenodd" d="M45.5575 9.71593C45.8316 9.27257 46.0973 9.02576 46.0269 8.30629C45.4284 8.08682 43.4072 7.7302 42.8567 7.76061C42.9227 8.65858 44.4976 9.62542 45.5575 9.71593Z" fill="#4C2A11"/>
  <path fill-rule="evenodd" clip-rule="evenodd" d="M14.1304 55.6232C14.9461 55.2766 14.8716 52.3701 15.019 50.7893C15.0744 50.1954 15.0364 50.1559 14.8352 49.9194C14.3398 50.4741 13.6439 54.5534 14.1304 55.6232Z" fill="#4A3423"/>
  <path fill-rule="evenodd" clip-rule="evenodd" d="M15.9931 53.2236C15.9392 53.2351 15.6694 53.2846 15.6345 53.2961C15.5953 53.309 15.4496 53.3637 15.4115 53.3794L15.1995 53.4916C15.4241 53.844 15.5603 53.762 15.8793 54.0312C15.829 54.5601 15.7483 55.2257 16.0038 55.652C16.3761 55.509 16.3704 55.5208 16.5259 55.042C16.6526 54.6522 16.6244 54.4077 16.6683 53.9357C17.2058 53.5413 17.1115 53.9861 17.4918 53.4916L16.6964 53.2618C16.6537 52.669 16.8031 52.5082 16.4416 52.1387C16.0841 52.4109 16.091 52.6555 15.9931 53.2236V53.2236Z" fill="#4A3423"/>
  <path fill-rule="evenodd" clip-rule="evenodd" d="M18.2056 27.4506C18.2807 29.0418 20.536 28.7195 20.5134 27.3062C19.7513 26.9507 18.9282 26.831 18.2056 27.4506Z" fill="#4C2A11"/>
  <path fill-rule="evenodd" clip-rule="evenodd" d="M21.4049 53.1793C20.7802 53.0527 21.2446 52.9773 20.6931 52.9536C20.6307 53.8739 20.4928 54.6582 20.7893 55.4248C21.8526 55.2486 21.0522 54.68 22.04 53.5414C22.3614 53.1706 22.3614 53.2874 22.4451 52.7998C21.8938 52.8368 21.6938 52.8223 21.4049 53.1793V53.1793Z" fill="#4A3423"/>
</svg>
