<svg xmlns="http://www.w3.org/2000/svg" fill="none" viewBox="0 0 88 63" class="design-iconfont">
  <path fill-rule="evenodd" clip-rule="evenodd" d="M39.8005 36.5905C39.3964 35.5903 38.7714 34.89 38.8819 33.4666C38.9744 32.2734 39.7875 31.6234 40.6923 31.232C43.1023 30.1894 52.8489 30.7931 57.1683 27.3212C57.7641 26.8422 58.6209 25.5924 58.1387 24.3621C57.4876 26.1075 56.449 26.8908 54.6552 27.5942C51.3602 28.8863 45.9221 28.7774 42.3461 28.5493C40.242 28.4152 38.5718 27.8774 37.1035 26.9349C36.2126 26.363 33.9636 24.6424 34.5048 22.9073C34.9656 21.43 37.3099 20.9539 39.205 20.8201C41.6676 20.6463 49.6238 20.4887 51.6299 19.6335C50.0714 19.7488 48.5532 19.9902 46.904 20.0704C45.2273 20.1518 43.5312 20.1892 41.8454 20.1512C38.7944 20.0824 35.3603 19.8659 32.5575 19.1498C31.2057 18.8046 29.8063 18.3091 29.0045 17.5692C27.8459 16.5 28.3271 15.0004 29.1625 14.0017C30.3815 12.5443 33.6785 11.3123 36.1271 10.6709C34.9173 10.6758 32.3363 11.4202 31.2549 11.8169C29.2641 12.5471 26.7853 13.9062 26.5546 16.229C26.4732 17.0487 26.5422 18.3062 26.7243 19.0609C27.3775 21.7659 29.8348 24.5403 31.806 26.1746L35.2704 28.84C36.003 29.2748 35.6848 29.2564 36.1021 31.0681C36.5453 32.9931 37.7793 36.2084 39.8005 36.5905V36.5905Z" fill="#BB2E32"/>
  <path fill-rule="evenodd" clip-rule="evenodd" d="M49.557 43.363C49.692 43.263 51.0696 42.5835 51.3804 43.2917C50.9465 43.6185 49.7733 43.519 49.557 43.363ZM59.316 42.2129C59.0038 41.3297 59.4187 40.5701 60.0591 41.3672C60.0125 41.6002 59.8861 41.7523 59.7876 41.9178C59.6548 42.1412 59.64 42.2255 59.316 42.2129ZM51.352 40.5561C51.497 41.0277 51.0725 41.1309 50.6643 41.1763C50.4326 41.202 49.5874 41.3433 49.5293 41.2871C49.0838 40.8563 51.0415 40.5094 51.352 40.5561ZM50.7265 45.5011C50.9259 45.5995 50.8643 45.4577 50.9649 45.7791L51.0467 47.2079C51.1023 47.9716 51.3012 50.0626 52.4362 49.7466C52.7871 49.649 53.1987 49.1095 53.4083 48.7978C53.8434 48.1503 53.71 48.0931 53.7225 47.1407L53.7526 41.2218C55.035 41.8555 54.5025 40.5658 57.1797 41.0741C57.2301 41.5537 57.0576 42.0407 56.9148 42.3816C56.1051 42.5833 55.8537 42.3215 55.133 42.3433C54.8464 42.855 54.5696 43.9557 54.3928 44.6494C54.1513 45.5979 53.9175 46.2887 54.4245 47.1048C55.108 48.2047 55.6045 47.4432 56.5989 47.4392C59.1776 47.4288 61.6294 49.6893 63.7478 49.2868C64.7413 49.098 65.5063 48.0554 66.2655 47.2541C66.6179 46.882 66.5908 46.7158 66.8094 46.278C65.7825 46.2144 64.9034 46.4039 63.8318 46.2453C62.9944 46.1216 62.1994 45.8902 61.3925 45.6978C59.3932 45.2215 58.0981 45.2065 55.9538 45.1905C55.9879 44.7546 56.4547 44.2783 56.784 44.1173C57.2151 43.9065 57.9253 43.9257 58.4436 43.974C58.7277 44.0004 58.9594 44.0848 59.1965 44.1216C59.9146 44.2325 59.2007 43.8791 59.9267 44.0097C60.2427 44.0666 60.3065 44.2252 60.6286 44.0435C61.7826 43.3928 60.9792 43.5511 61.3395 42.8291C61.7175 42.0716 62.692 41.8246 62.9236 41.4203C63.2717 40.8124 62.8238 40.2484 62.5048 40.0227C62.2292 39.8277 62.0643 39.9402 61.6724 39.8614C61.405 39.8075 61.1812 39.706 60.9018 39.6329C59.3038 39.2149 55.1632 38.8149 53.6986 39.422C53.6406 39.1408 53.6276 38.856 53.4814 38.6386C53.0079 37.9339 52.4955 38.4884 52.1513 38.5514C51.0309 38.7563 49.016 38.488 47.6484 38.8337C47.3082 40.0996 48.1585 41.5538 47.6563 43.2611C47.3561 44.282 46.5239 46.1147 45.7634 46.3305C45.3245 46.0684 45.6324 45.7989 44.9651 45.3091L44.9081 45.5968C44.5127 45.5208 44.3651 45.5113 44.1813 45.7719C43.694 46.4629 43.7856 46.6699 43.6736 47.1167C43.5786 47.4951 43.5277 47.45 43.7239 47.7822L43.5933 47.9366C43.519 48.0618 43.4325 47.8192 43.7737 48.1955C43.9882 48.432 43.8787 48.538 44.0856 48.8161C44.3548 49.1777 44.6938 49.3882 44.958 49.7221C47.6372 49.408 48.5374 46.2721 48.8633 45.9633C49.1018 45.7374 50.3602 45.3272 50.7265 45.5011V45.5011Z" fill="#312B2B"/>
  <path fill-rule="evenodd" clip-rule="evenodd" d="M73.2409 43.1935C73.3568 42.9178 74.0084 42.496 74.3726 42.7697C74.2854 43.0574 73.6415 43.2423 73.2409 43.1935ZM81.4033 41.9426C81.6685 42.4935 81.316 41.6496 81.4882 42.1025C81.2149 42.3382 80.8158 42.5028 80.3466 42.3569C80.4729 42.0046 80.7001 42.313 80.8478 41.8811C80.9491 41.5853 80.707 41.5422 81.1221 41.3745C81.399 41.6034 81.1597 41.4367 81.4033 41.9426ZM74.6125 40.5881C74.6289 41.1047 74.4987 41.081 74.0188 41.1728C73.8076 41.2131 73.2731 41.392 73.1544 41.2739C72.6196 40.7415 74.2544 40.5583 74.6125 40.5881ZM81.6098 40.2265C81.6878 39.9927 82.0686 39.5235 82.4082 39.564C82.9177 39.6247 82.5371 40.3183 82.3971 40.4875C82.0535 40.489 81.7961 40.415 81.6098 40.2265V40.2265ZM71.1394 38.8621C71.1405 40.0545 72.0847 39.86 71.7081 43.3565C71.5726 44.6136 71.228 46.7483 70.2868 47.0433C70.1297 46.8577 69.942 46.6016 69.7976 46.4476C69.8717 47.2018 69.7725 46.761 69.4241 47.1346C69.2813 47.2878 69.2103 47.658 69.0824 47.8516C68.6401 47.8833 68.5322 47.6609 68.4311 47.6516L68.0857 47.5673C68.0779 47.805 68.0395 47.7615 68.1455 47.9196L68.3041 48.06C68.311 48.0467 68.3372 48.0801 68.3495 48.0946C68.2344 48.2116 68.2167 48.1678 68.1327 48.2964L68.3992 48.4627L68.501 49.0908C68.7425 49.2255 69.0188 49.354 69.2769 49.5039C70.0891 49.976 70.0281 49.7912 70.504 49.5682C70.6525 49.4986 70.7779 49.463 70.9016 49.3948C71.118 49.2754 71.4229 49.0593 71.5811 48.9334C72.4801 48.2182 72.6339 46.8469 72.8906 45.6836C72.9993 45.1912 73.0727 44.8028 74.2785 44.8655C74.5486 45.6576 74.507 46.5976 74.8509 47.424C75.1118 48.0508 75.4385 49.0829 75.7878 49.54C76.1021 48.6785 76.4169 49.3611 76.8077 47.3873C77.06 46.1129 76.6694 45.7924 76.6552 44.6693C77.3971 45.1076 77.4635 44.6764 78.1038 44.4796C78.444 44.3751 79.4502 44.1273 79.7407 44.218C79.6283 44.4481 79.4039 44.6065 79.1969 44.7885C78.8585 45.0858 77.7246 46.1247 77.7757 46.5701C77.8897 46.7799 78.0191 46.9158 78.2707 47.0221C78.9773 46.8947 80.1107 45.5632 80.5518 45.0894C80.8633 45.0937 80.8626 45.1129 81.0332 45.2871C80.9372 45.7488 79.6669 46.806 79.2836 47.1553C78.985 47.4273 78.6442 47.7362 78.3948 48.0486C78.1953 48.2986 78.2462 48.3815 78.0197 48.5994C77.8169 48.7944 77.7901 48.7901 77.6378 49.0693C78.0387 48.9333 77.9761 48.9736 78.1995 48.7204C78.4748 49.0128 78.5313 48.7837 78.8354 48.6294C79.5768 48.2534 79.5658 48.5014 80.6722 47.5452C81.5414 46.7941 81.9602 46.4126 82.4723 45.4401C82.7223 45.4357 82.8671 45.5008 83.045 45.5713L81.9093 47.0015C81.5133 47.4526 81.1068 47.8474 80.6596 48.2453C79.9859 48.8448 79.9062 49.1986 79.4994 49.3562C79.3835 49.4011 79.3866 49.3907 79.2933 49.4461C79.0459 49.593 78.9066 49.84 78.5397 49.9381C78.3375 49.9922 78.0258 50.1009 77.9508 50.3815C78.3772 50.5186 78.7409 50.3511 79.0581 50.7013L79.1262 50.7847C79.3357 50.7011 79.4563 50.7165 79.6115 50.6153C79.814 50.4834 79.6796 50.4532 79.9974 50.3561C80.2118 50.2906 80.3406 50.3041 80.5055 50.1663L81.4718 49.4161C82.0349 48.9477 83.5156 47.5428 83.8736 46.9699C84.0715 46.6534 84.0618 46.3534 84.4986 46.4619C85.2932 46.8475 84.0773 48.6702 82.879 49.4674C82.4295 49.7666 82.1677 49.7692 81.5499 49.7932C81.2765 50.2293 81.5751 49.9495 81.0589 50.4728C81.0783 50.6455 81.2376 51.0684 81.3361 51.1833C81.7485 51.2124 83.0609 50.978 83.3629 50.8007C83.8196 50.5326 83.9512 50.5491 84.1048 50.3362C84.2322 50.1596 84.4324 50.083 84.6259 49.9314C84.8135 49.7845 84.9417 49.6607 85.0986 49.4769C86.0359 48.3786 86.8417 47.1897 85.8976 45.7138C85.4483 45.0114 84.8159 44.6951 84.1323 44.2756L83.8776 44.0673C84.1032 44.0882 84.3291 44.1725 84.5396 44.1457L84.9299 44.1088C85.2496 44.2185 85.6509 44.3236 86.0408 44.3213L86.8991 43.723C87.1652 43.4888 87.3428 43.3053 87.1101 42.876C86.2953 42.5843 83.6126 42.554 83.2281 42.2637C83.3096 41.979 83.4869 41.8283 83.5698 41.5421C83.716 41.0379 83.7668 41.2027 83.9725 40.7958C84.7364 39.2839 84.3958 38.7189 82.7031 38.4246C81.9034 38.2856 81.4027 38.0985 80.9472 38.6263L80.2019 39.5944C79.8818 40.2035 79.5376 40.7194 79.2278 41.3979C78.9025 42.111 78.928 42.3823 78.2027 42.6562C77.673 42.8563 77.0284 42.9107 76.507 43.123C76.4352 41.9728 77.3884 38.8533 76.1912 38.5812C75.8944 38.5138 75.4077 38.7261 75.0558 38.7637C73.756 38.9028 72.4419 38.818 71.1394 38.8621V38.8621Z" fill="#312B2B"/>
  <path fill-rule="evenodd" clip-rule="evenodd" d="M28.6506 42.852C31.1982 42.2563 30.7048 42.9115 30.3125 44.3689C30.0237 44.4389 29.7047 44.542 29.349 44.5217C29.3889 43.9882 29.868 44.0151 29.4174 43.5305C28.9701 43.0495 28.8726 43.4454 28.6506 42.852ZM25.9489 41.3284L25.7804 40.9594C25.6216 40.5766 25.3941 40.1471 24.972 40.0516C24.8824 40.3725 24.9091 41.0213 24.2896 41.4433C24.3065 40.7703 24.8423 39.1555 22.6715 39.3239C22.534 39.942 22.7435 41.4481 22.6978 42.2151C22.5061 42.1095 20.9166 40.5258 20.6724 42.3672C20.4954 43.7015 21.0786 44.3037 22.3006 44.3528C22.1881 44.9941 21.3742 46.0112 20.9589 46.2409C20.5431 46.2094 20.4621 45.9812 20.1036 45.8348L19.9883 46.2476C19.8552 47.572 19.6998 47.8679 20.4489 48.29C20.8398 48.5102 20.9202 48.4866 21.3363 48.3018C21.9865 48.0128 22.3156 47.9604 22.7757 47.5308C23.0935 47.2339 23.4691 46.6113 23.8104 46.3713C24.0666 46.6363 24.454 47.1517 25.1129 46.8773C25.9046 46.5476 25.818 45.0859 24.6944 44.405C24.3954 44.2237 24.3851 44.2916 24.2943 43.881C24.026 42.6692 24.4188 42.8978 24.8751 42.5031C25.1137 42.2967 25.0961 42.1708 25.5098 42.093C25.7538 45.2266 26.4848 43.3317 28.3677 43.0196C28.1793 43.3385 27.2772 43.8796 27.2422 44.9345C27.2136 45.7939 27.8002 46.7551 28.3014 47.0226C29.0845 46.9944 28.9493 46.035 29.9401 46.2257C30.3182 46.6451 29.9667 47.1881 30.3087 47.842C30.4897 48.1879 30.9694 48.7725 31.224 49.0247C33.0285 49.0821 32.6808 48.6564 34.4716 49.3817C36.1174 50.0482 36.297 49.8535 37.4949 50.202C37.905 50.3214 38.2134 50.5931 39.1458 50.3542C39.6293 50.2305 39.3677 50.133 39.7194 50.0005C40.0998 49.8571 40.1411 50.0122 40.3394 49.6262C40.7623 48.803 40.5181 49.668 40.782 48.6507L41.2717 47.7068C41.4612 47.4804 41.5692 47.4135 41.4641 46.9539C41.206 46.9826 41.2086 47.0372 40.972 47.1227C40.6737 47.2304 40.5841 47.1702 40.2841 47.2157C40.0754 47.2474 39.9261 47.3336 39.7366 47.3835C39.1585 47.5353 39.5172 47.3025 39.1267 47.6313C38.3 48.3273 34.7719 47.2713 34.24 47.0439C33.7818 46.8481 34.2551 47.0185 33.7975 47.024C33.6463 47.0258 33.3933 46.9137 33.2005 46.8698C32.7546 46.7679 32.2957 46.7754 31.9423 46.5814C31.8518 45.8766 32.2393 45.9145 32.9103 45.9671C33.6489 46.025 33.6453 46.1673 34.0604 46.442C34.3793 46.6531 35.0851 46.5378 35.2821 46.2808C35.5995 45.867 36.0387 43.4257 34.5528 42.6676C34.07 42.4213 33.6307 42.6335 33.5512 43.1464C33.402 44.1081 34.3166 44.2374 32.3965 44.1452C32.2801 43.8128 32.3468 43.6017 32.4369 43.2266C32.4952 42.9832 32.5739 42.6181 32.7209 42.4127C33.4964 42.4129 34.7287 42.4523 35.516 42.6371C36.8112 42.941 36.7378 42.8975 37.1799 42.4034C37.4529 42.0985 37.3818 42.3311 37.7151 42.1742C37.8956 41.4336 37.7693 41.1781 37.2975 40.8525C35.9678 39.9345 32.9971 40.3804 32.6019 39.9109C32.3321 39.5921 32.624 37.5111 31.5535 38.1225C31.3832 38.2197 31.1102 38.7548 31.0044 39.0093C30.8895 39.2852 30.7501 39.9799 30.6382 40.1402C30.4216 40.4507 28.8015 40.6118 28.3057 40.7253C27.5095 40.9075 26.7468 41.1628 25.9489 41.3284V41.3284Z" fill="#312B2B"/>
  <path fill-rule="evenodd" clip-rule="evenodd" d="M46.071 17.8624L45.8255 17.6403C45.1881 17.1991 44.6169 16.9369 43.9963 16.1213C43.3229 15.2363 43.3625 14.2104 43.8307 13.1314C44.2179 12.2388 44.7446 11.5422 45.1813 10.7049C45.6449 9.81611 46.0401 9.0736 46.3268 8.00275C47.2659 4.49499 44.5766 2.45385 42.1745 1.12183C41.6465 0.829147 40.0994 0.0816606 39.5352 0C39.8621 0.223468 40.7219 1.3221 41.0222 1.84649C42.5993 4.60087 41.5018 7.39988 40.7269 10.1619C40.1821 12.1034 40.1378 14.311 41.3213 15.6612C42.4798 16.9832 44.2156 17.7862 46.071 17.8624V17.8624Z" fill="#BB2E32"/>
  <path fill-rule="evenodd" clip-rule="evenodd" d="M11.3617 45.7259C11.3869 45.8291 11.4785 45.6669 11.3668 45.8148C9.89582 45.9475 9.59911 45.1097 5.86265 45.645C3.80635 45.9396 3.72292 46.1276 2.16491 46.5265C1.18667 46.7771 0.907172 46.0726 0.320862 47.1782C0.243036 47.3251 0.0391169 47.685 0.0104936 47.8705C-0.101287 48.5937 0.686322 49.8234 2.06913 49.7409C2.84261 49.6949 2.65693 49.3029 3.24175 48.9586C3.35203 48.8937 3.46783 48.8413 3.56287 48.7798C4.36778 48.2584 3.70571 48.652 4.71482 48.4374C5.95039 48.1746 10.339 47.6325 11.1891 48.0002C11.81 48.2687 13.3688 48.5849 14.1128 48.6137L14.1841 48.8287C15.0869 48.9194 16.7562 49.0476 17.2836 48.4594L17.6638 47.9121C17.8056 47.6747 17.7114 47.472 17.8064 47.195C17.9504 46.7759 18.4047 46.7594 18.2425 45.8781C17.9459 45.9791 17.9042 46.0145 17.7483 46.2675C17.5357 46.3039 17.456 46.2753 17.2847 46.3265C16.9863 46.4157 17.4645 46.4988 16.9286 46.4061C16.5489 46.3405 16.6982 46.2078 16.1245 46.2984C15.5613 46.3873 14.5929 46.1685 14.1423 46.0294L13.0285 45.8055C12.7019 45.7292 11.6516 45.5834 11.3327 45.6299L11.3617 45.7259Z" fill="#312B2B"/>
  <path fill-rule="evenodd" clip-rule="evenodd" d="M40.179 22.9126C42.2591 22.9178 47.4553 22.4296 49.6205 22.1557C52.3272 21.8133 55.6766 21.25 57.9323 20.2538C61.0054 18.8966 61.9471 16.7561 58.6151 14.9697C57.0892 14.1517 52.5038 12.8915 50.5255 12.8662L53.8793 13.7924C54.9301 14.1308 56.1132 14.5192 56.927 15.0911C58.1934 15.9807 57.6042 17.0813 56.7208 17.8295C54.6791 19.5588 49.9781 20.7762 47.3267 21.4055C46.1654 21.6811 44.9967 21.9433 43.814 22.1738C43.1083 22.3113 40.5898 22.6905 40.179 22.9126Z" fill="#BB2E32"/>
  <path fill-rule="evenodd" clip-rule="evenodd" d="M44.1165 57.3332C44.1165 56.8781 44.2008 56.8984 44.6109 56.9345C44.7094 57.3057 44.7057 59.7872 44.6003 60.1508C44.2347 60.1995 44.1166 60.1769 44.1164 59.7565L44.1165 57.3332V57.3332ZM44.8349 59.8971C45.5361 58.5202 44.8674 58.2884 44.8836 57.7519C44.8955 57.3582 45.2626 57.3949 45.4129 57.6127C45.413 57.6129 46.6493 60.8566 45.4367 59.9196C45.2549 60.4419 45.0013 60.7628 44.6611 61.0039C43.3136 61.9586 42.6819 61.3664 43.2068 61.0532C43.2837 61.0072 43.7331 60.8639 43.8823 60.7943C44.462 60.5238 44.5702 60.4167 44.8349 59.8971V59.8971ZM41.6419 61.2473C41.5457 60.9219 41.5829 60.3727 41.5829 59.9703C41.549 59.8384 41.3802 59.816 41.2542 59.7324C41.2692 59.2027 41.742 58.4309 41.8671 57.6895L41.5052 57.592C41.2196 57.49 41.0681 57.0552 41.775 57.0528L43.2362 57.0864C43.3673 57.6818 43.0893 57.6146 42.5592 57.6146C42.359 57.6651 42.2542 58.2997 42.236 58.5061L42.9649 58.5704L43.0294 59.1535C43.0608 58.959 43.2506 58.4867 43.3182 58.1615C43.3961 57.7866 43.3773 57.5036 43.6305 57.4839C43.967 57.4577 43.7723 57.5077 43.8375 57.5613C44.0141 57.842 43.803 58.5145 43.7164 58.8475C43.586 59.3492 43.5837 59.701 43.0116 59.5516C42.9908 61.1393 43.3557 61.5281 41.6419 61.2473V61.2473ZM39.8751 59.614C40.057 61.5674 41.8492 63.2047 44.0531 62.9699C45.9524 62.7677 47.5797 61.0198 47.377 58.8493C47.1957 56.9076 45.4117 55.2472 43.2043 55.4763C41.2777 55.676 39.6716 57.4272 39.8751 59.614Z" fill="#E6212C"/>
  <path fill-rule="evenodd" clip-rule="evenodd" d="M25.7697 57.4413L26.7304 57.3755L26.8158 56.9371C27.6547 56.8449 27.1167 57.3218 27.5146 57.3896C27.8748 57.3896 28.2278 57.3544 28.5194 57.4572L28.534 57.849C28.2133 57.945 27.6367 57.8285 27.3611 57.9742L27.3522 58.1879C27.3722 58.1991 27.3994 58.1907 27.4097 58.2139C27.4578 58.3224 28.3479 58.2368 28.6533 58.3323L28.6969 58.7822C28.4646 58.8378 28.2704 58.795 28.1026 58.9008L28.0994 59.1147C28.4591 59.3194 28.7816 59.0467 28.6517 59.6834L28.109 59.7833C28.0439 60.7294 28.489 61.7843 26.9755 61.4966C26.606 61.4263 26.5581 61.301 26.66 60.9749C27.0575 60.9076 27.1451 61.0544 27.4879 60.9338C27.581 60.6327 27.5512 60.1268 27.5174 59.7623L26.5998 59.7616C26.7834 60.0371 27.044 60.2537 27.0038 60.6786C26.6453 60.8297 26.6334 60.8226 26.4071 60.5067C26.247 60.2831 26.0704 60.0905 26.1475 59.7672C26.0015 59.7549 25.4409 59.5125 25.3969 60.18C25.368 60.6205 25.4593 61.1089 25.348 61.498C24.677 61.6277 24.8907 61.3142 24.8548 60.192C24.3977 60.287 24.0232 60.6959 24.0263 59.953C24.1954 59.7958 24.5951 59.675 24.8513 59.5212C24.8678 59.2187 24.9124 58.7708 24.8057 58.5414C24.3399 58.6427 24.8214 59.456 24.0562 59.1507C23.9593 58.862 24.1465 58.4225 24.1924 58.0563C24.2516 57.5831 24.097 57.1381 24.6299 57.2226C24.6847 57.332 24.692 57.3829 24.7096 57.552L24.779 57.917C24.7836 57.9286 24.7937 57.9509 24.8057 57.9646C24.9767 57.623 24.6823 57.028 25.0414 56.9105C25.5283 56.7512 25.4013 57.5245 25.4013 57.8317C25.4237 57.9661 25.5456 58.0463 25.7426 58.2483L25.8218 58.3258C26.016 58.2386 26.0734 58.2822 26.3038 58.28C26.3627 58.2794 26.5353 58.2766 26.5838 58.2604C26.7933 58.1907 26.6677 58.3084 26.7712 58.1168C26.8541 57.504 25.5794 58.4094 25.7697 57.4413V57.4413ZM22.5998 59.7561C22.8355 61.6272 24.6298 63.2667 26.8722 62.9544C28.7622 62.6911 30.364 60.9598 30.0662 58.699C29.8173 56.808 28.0421 55.1844 25.8046 55.4898C23.9006 55.7497 22.3144 57.4911 22.5998 59.7561Z" fill="#E6212C"/>
  <path fill-rule="evenodd" clip-rule="evenodd" d="M63.2874 57.7272L62.1164 57.8079L62.0642 58.1428C62.5571 58.1179 63.1509 57.9458 62.8433 58.5817L62.3075 59.5439L63.1256 59.5728C63.684 60.3395 62.3515 60.114 61.7233 60.1224C62.0629 60.6613 63.7209 60.9235 63.1827 61.4167C62.9943 61.5143 63.1766 61.5084 62.895 61.4592L62.147 61.0533C61.8728 60.8861 61.4334 60.5546 61.1833 60.4784L61.158 61.6431C60.4 61.777 60.653 61.216 60.6089 60.5409C60.2721 60.6822 59.2073 61.6804 58.5805 61.4892C58.4264 60.7849 59.6228 60.8218 60.1641 60.1252C59.8191 60.1153 58.792 60.2699 58.6229 59.9981C58.2359 59.3764 59.8484 59.566 60.6147 59.5584C60.6571 58.7351 60.6664 59.3746 60.5443 58.7338L59.5699 58.7551C59.6876 59.1166 59.7952 59.0574 59.6903 59.4223C59.2122 59.5765 59.2308 59.2849 58.9755 58.7343C58.8686 58.5038 58.7818 58.5934 58.9444 58.3148C59.1879 58.1761 61.1072 58.2017 61.6012 58.1744L61.4935 57.7929L60.38 57.79C60.2728 58.0153 60.3708 58.104 60.0872 58.1396C59.7324 58.1838 59.8196 58.0145 59.733 57.7886C59.0183 57.7886 58.619 57.9183 58.5919 57.5451C58.5582 57.0809 59.3894 57.2609 59.7384 57.2346C59.8274 57.0198 59.7323 56.8815 60.033 56.8496C60.374 56.8135 60.2828 57.0145 60.38 57.2366C61.9521 57.2572 61.3984 57.2374 61.5597 57.0083C61.9249 56.4899 62.1205 57.2229 62.2334 57.2484C62.6056 57.2484 62.9431 57.2155 63.2479 57.317L63.2874 57.7272V57.7272ZM64.6112 59.9704C65.0852 57.6576 63.4677 55.9001 61.6924 55.5334C59.3978 55.0594 57.5927 56.6632 57.2253 58.451C56.7487 60.7704 58.3541 62.5377 60.139 62.9133C62.4561 63.4009 64.2435 61.7643 64.6112 59.9704Z" fill="#E6212C"/>
  <path fill-rule="evenodd" clip-rule="evenodd" d="M32.5725 58.7082C32.5455 58.3083 32.5766 58.3248 32.831 58.1598C34.2096 57.2652 33.826 56.6635 34.5215 56.9368C35.321 57.2509 35.7804 56.8707 36.4238 57.182C36.4478 57.5931 36.1439 57.8527 35.9549 58.1572C36.2617 58.202 36.5994 58.176 36.842 58.2694C36.9548 58.5466 36.9621 59.1839 36.9367 59.5488C36.9002 60.0737 36.6284 60.0158 36.141 60.01C35.2826 60 34.4169 60.0058 33.5563 60.009L33.5739 60.8279C33.9611 60.9588 36.1566 61.1381 36.5348 60.8666C36.8575 60.635 36.5134 60.2134 36.9268 60.1612C37.0578 60.1447 37.0975 60.1726 37.1574 60.2268C37.4122 60.4575 37.1543 61.1706 36.9631 61.2928C36.6941 61.4648 36.1503 61.4751 35.7825 61.4773C32.4843 61.4971 32.9776 61.4716 32.9764 58.9004C32.784 58.7397 32.802 58.8852 32.5725 58.7082V58.7082ZM31.2246 59.6132C31.4244 61.5664 33.1491 63.1801 35.3553 62.9738C37.3174 62.7903 38.941 61.0554 38.7247 58.8269C38.5362 56.8852 36.7945 55.2532 34.5733 55.4736C32.6506 55.6644 30.9987 57.4059 31.2246 59.6132Z" fill="#E6212C"/>
  <path fill-rule="evenodd" clip-rule="evenodd" d="M51.642 57.795C50.9595 57.9523 50.9281 57.5559 50.7155 58.2836C51.1321 58.2836 51.6246 58.1792 51.4945 58.7172C51.3744 58.783 51.2431 58.8027 51.0437 58.8159L51.052 59.3815C51.3574 59.3941 51.6548 59.3485 51.6205 59.6801C51.5835 60.0372 51.3123 59.8691 51.0587 59.9703L51.0495 60.6629C51.2695 60.5102 51.2626 60.2403 51.6368 60.4299L51.6716 59.1443C52.6785 58.939 52.7624 59.3578 52.8303 58.8299C52.4593 58.5781 51.8296 59.034 51.8296 58.2597C51.8296 56.9034 51.5907 57.1168 53.8871 57.1167C54.0652 57.1167 54.1884 57.153 54.3046 57.1997C54.3536 57.329 54.5898 58.6384 54.0896 58.7325C53.966 58.7556 53.8646 58.7362 53.7443 58.743C53.4565 58.7591 53.5798 58.6942 53.3899 58.8299L53.3893 59.0438C53.6816 59.1538 54.1288 59.0618 54.4617 59.1844C54.6375 59.6193 54.6172 61.0966 54.4787 61.5606C54.296 61.6395 54.0933 61.6993 53.8206 61.6716C53.4529 61.6342 53.4232 61.5891 53.4429 61.2213C53.626 61.149 53.8275 61.1521 53.9946 61.0395C53.8919 60.8227 53.9857 60.97 53.7728 60.8647C53.6594 60.8088 53.6224 60.8268 53.4785 60.7324C53.3015 60.6163 53.2292 60.4736 53.1059 60.3271C53.0309 60.5008 52.8998 60.6775 52.7635 60.8431C52.5963 61.0461 52.5692 61.154 52.1884 61.1567C52.1864 61.4115 52.1874 61.761 51.8414 61.6631C51.554 61.5816 51.6558 61.2556 51.6428 60.9204C51.3473 61.1867 51.1854 61.7209 50.597 61.5489C50.4676 61.0698 50.5857 60.4649 50.4958 59.9387C50.0065 59.9131 49.8414 59.9578 49.9587 59.455L50.5069 59.3689L50.5168 58.8399C50.2517 58.9127 50.2324 58.9548 49.9475 58.856C49.8862 58.5078 50.1781 58.0789 50.3158 57.7526C50.5104 57.2919 50.4893 56.8691 51.0068 56.9387C51.0757 57.0519 51.0984 57.1254 51.094 57.3176L51.6255 57.3589L51.642 57.795V57.795ZM48.5147 59.6139C48.7053 61.5624 50.4405 63.206 52.6789 62.9703C54.5996 62.768 56.235 61.0649 56.0159 58.8423C55.8225 56.8797 54.043 55.232 51.8216 55.4792C49.8936 55.6937 48.2992 57.4123 48.5147 59.6139Z" fill="#E6212C"/>
  <path fill-rule="evenodd" clip-rule="evenodd" d="M14.7245 40.7024C14.6631 40.3182 14.4711 40.789 14.5539 39.9202C14.1866 39.9762 14.0943 40.0106 13.7258 39.8969L13.9605 39.72C12.1344 39.416 8.66823 39.5064 6.7673 39.5902C5.83246 39.6315 4.37595 39.8931 3.58488 39.8092C3.48666 39.5882 3.6743 40.0407 3.53876 39.6695C3.49611 39.5528 3.51519 39.5954 3.48881 39.5464C3.03729 39.7953 2.22658 40.0941 2.05858 40.5058C1.59023 41.6536 4.2072 42.7433 4.61513 42.6499C4.76227 42.6163 5.13933 42.3283 5.40311 42.2114C6.34619 41.7932 7.35595 41.5874 7.49374 41.517C7.84956 41.3351 7.57633 41.3895 8.26385 41.3646C8.90273 41.3414 10.0686 41.2118 10.6461 41.3391C11.4789 41.5225 12.0013 41.4847 12.8536 41.3276C13.305 41.2445 14.4825 40.8742 14.7245 40.7024V40.7024Z" fill="#312B2B"/>
  <path fill-rule="evenodd" clip-rule="evenodd" d="M14.5347 43.7919C13.6996 43.8224 13.8647 43.8544 13.759 43.339C13.7222 43.1589 13.7091 43.3401 13.7295 43.1593C13.7461 43.0113 13.8277 43.0797 13.8643 42.8198C13.1016 42.5451 7.95429 42.4674 6.8811 42.5486C6.23193 42.5977 2.73886 43.057 2.37153 43.6047C2.05536 44.0763 2.03956 44.4174 2.40867 44.9431C3.16223 46.0165 3.89717 45.2152 4.87588 44.8208C5.54226 44.5522 7.32027 44.3488 8.1221 44.3489C9.21905 44.3491 10.5103 44.6928 11.6086 44.5587C12.5339 44.4455 14.0722 44.4139 14.5347 43.7919Z" fill="#312B2B"/>
  <path fill-rule="evenodd" clip-rule="evenodd" d="M36.9302 8.09662L37.0256 8.19745C38.553 10.2297 36.3131 12.5934 36.8105 14.5477C37.2931 16.4437 39.5234 17.6111 41.3907 18.1477C41.3781 18.1303 41.359 18.0835 41.3519 18.0962L40.9376 17.6858C39.4472 16.481 38.8964 15.2904 39.0329 13.1839C39.1263 11.7428 39.1704 11.3063 38.5906 10.124C38.3011 9.53405 37.8767 8.93025 37.4495 8.48547L37.0076 8.00439C36.9949 8.01955 36.9643 8.01908 36.9622 8.04256C36.9601 8.06735 36.9437 8.08053 36.9302 8.09662V8.09662Z" fill="#BB2E32"/>
  <path fill-rule="evenodd" clip-rule="evenodd" d="M47.3647 17.3452C47.2124 16.8988 46.9512 16.696 46.8472 16.1239C46.6247 14.9001 47.8451 14.3047 48.8461 12.8733C49.958 11.2832 48.9535 8.5074 48.0454 7.58594C48.2499 8.95593 48.3801 9.28481 47.7124 10.4577C47.0216 11.6713 45.1721 13.2583 45.7811 15.335C46.034 16.1973 46.7078 17.0772 47.3647 17.3452Z" fill="#BB2E32"/>
  <path fill-rule="evenodd" clip-rule="evenodd" d="M53.2731 59.7922C53.3415 59.6231 53.2623 59.6579 53.9967 59.6734L53.9916 60.4013C53.7811 60.2896 53.8242 60.2799 53.6481 60.1404C53.583 60.0886 53.3332 59.9697 53.3302 59.9669C53.3245 59.9615 53.1569 60.0804 53.2731 59.7922V59.7922ZM52.209 59.6855L52.7205 59.7036C52.6177 60.0534 52.4302 60.4838 52.1919 60.6198L52.209 59.6855ZM52.8211 57.5784C53.1574 57.5803 53.4988 57.5615 53.8291 57.617C53.8872 58.1332 53.9691 58.2387 53.3967 58.238C53.0457 58.2376 52.6281 58.2618 52.3298 58.1862C52.3215 57.5979 52.2273 57.575 52.8211 57.5784V57.5784ZM51.6303 57.359L51.0987 57.3176C51.1032 57.1254 51.0805 57.052 51.0115 56.9387C50.4941 56.8691 50.5151 57.2919 50.3205 57.7527C50.1829 58.0789 49.891 58.5078 49.9523 58.8561C50.2372 58.9549 50.2565 58.9128 50.5216 58.8399L50.5117 59.369L49.9634 59.455C49.8461 59.9578 50.0113 59.9132 50.5005 59.9387C50.5904 60.465 50.4724 61.0698 50.6017 61.5489C51.1902 61.7209 51.3521 61.1867 51.6476 60.9204C51.6605 61.2557 51.5587 61.5816 51.8462 61.6631C52.1922 61.7611 52.1912 61.4115 52.1931 61.1567C52.5739 61.154 52.6011 61.0461 52.7682 60.8431C52.9046 60.6775 53.0356 60.5008 53.1107 60.3271C53.234 60.4737 53.3063 60.6163 53.4832 60.7324C53.6272 60.8269 53.6641 60.8088 53.7775 60.8648C53.9904 60.97 53.8967 60.8228 53.9994 61.0395C53.8322 61.1521 53.6308 61.149 53.4477 61.2213C53.428 61.5891 53.4576 61.6342 53.8253 61.6716C54.0981 61.6993 54.3008 61.6396 54.4835 61.5606C54.622 61.0966 54.6423 59.6194 54.4664 59.1844C54.1335 59.0619 53.6863 59.1538 53.3941 59.0438L53.3947 58.8299C53.5845 58.6943 53.4613 58.7592 53.7491 58.743C53.8694 58.7362 53.9708 58.7556 54.0943 58.7325C54.5946 58.6384 54.3584 57.329 54.3094 57.1998C54.1931 57.153 54.0699 57.1167 53.8919 57.1167C51.5955 57.1168 51.8344 56.9034 51.8344 58.2598C51.8344 59.034 52.464 58.5782 52.8351 58.8299C52.7672 59.3578 52.6833 58.939 51.6763 59.1444L51.6415 60.43C51.2674 60.2404 51.2743 60.5102 51.0543 60.6629L51.0634 59.9703C51.317 59.8691 51.5883 60.0372 51.6252 59.6802C51.6596 59.3486 51.3621 59.3941 51.0568 59.3816L51.0485 58.816C51.2479 58.8028 51.3791 58.783 51.4993 58.7173C51.6294 58.1792 51.1369 58.2836 50.7202 58.2836C50.9329 57.556 50.9643 57.9523 51.6468 57.795L51.6303 57.359V57.359Z" fill="#FEFEFE"/>
  <path fill-rule="evenodd" clip-rule="evenodd" d="M61.1077 58.7148L62.1916 58.6574C62.0677 59.0572 61.8521 59.1702 62.044 59.557L61.1889 59.5616L61.1077 58.7148V58.7148ZM63.2417 57.3164C62.9369 57.2149 62.5994 57.2479 62.2272 57.2479C62.1143 57.2223 61.9187 56.4894 61.5535 57.0078C61.3922 57.2368 61.9459 57.2567 60.3738 57.2361C60.2766 57.0139 60.3678 56.813 60.0268 56.8491C59.7261 56.881 59.8212 57.0193 59.7322 57.234C59.3832 57.2603 58.552 57.0803 58.5857 57.5446C58.6128 57.9178 59.0121 57.7881 59.7267 57.7881C59.8134 58.014 59.7262 58.1833 60.081 58.139C60.3646 58.1035 60.2666 58.0147 60.3738 57.7895L61.4873 57.7924L61.595 58.1738C61.1009 58.2011 59.1817 58.1755 58.9382 58.3142C58.7756 58.5929 58.8623 58.5033 58.9693 58.7338C59.2246 59.2843 59.206 59.576 59.6841 59.4217C59.789 59.0568 59.6814 59.1161 59.5637 58.7545L60.5381 58.7333C60.6602 59.374 60.6508 58.7346 60.6085 59.5578C59.8422 59.5654 58.2296 59.3758 58.6167 59.9976C58.7858 60.2694 59.8129 60.1148 60.1579 60.1247C59.6166 60.8213 58.4202 60.7843 58.5742 61.4887C59.201 61.6799 60.2659 60.6816 60.6027 60.5403C60.6468 61.2155 60.3938 61.7764 61.1517 61.6426L61.1771 60.4779C61.4272 60.554 61.8666 60.8856 62.1407 61.0528L62.8888 61.4587C63.1704 61.5079 62.9881 61.5138 63.1765 61.4162C63.7147 60.923 62.0566 60.6608 61.7171 60.1219C62.3453 60.1135 63.6778 60.3389 63.1194 59.5723L62.3013 59.5434L62.8371 58.5812C63.1447 57.9452 62.5509 58.1173 62.058 58.1422L62.1102 57.8073L63.2812 57.7267L63.2417 57.3164V57.3164Z" fill="#FEFEFE"/>
  <path fill-rule="evenodd" clip-rule="evenodd" d="M25.5282 58.4964C25.7753 58.5518 25.4545 58.3666 25.6298 58.5797L25.681 58.6648C25.9387 59.0007 26.668 58.7592 27.3017 58.8347C27.7979 58.8938 26.9914 58.7678 27.4224 58.8596L27.5278 59.1153C26.9746 59.3886 25.9439 59.0508 25.4056 59.1772C25.4013 58.8519 25.3225 58.6597 25.5282 58.4964V58.4964ZM25.7715 57.4419C25.5811 58.4099 26.8558 57.5045 26.7729 58.1174C26.6695 58.309 26.795 58.1912 26.5856 58.261C26.537 58.2772 26.3644 58.28 26.3055 58.2805C26.0751 58.2828 26.0177 58.2391 25.8235 58.3264L25.7444 58.2488C25.5474 58.0469 25.4255 57.9666 25.403 57.8322C25.403 57.525 25.5301 56.7517 25.0431 56.911C24.684 57.0285 24.9785 57.6235 24.8075 57.9651C24.7954 57.9515 24.7853 57.9292 24.7807 57.9176L24.7113 57.5525C24.6937 57.3835 24.6864 57.3326 24.6316 57.2232C24.0987 57.1387 24.2533 57.5837 24.1941 58.0569C24.1483 58.4231 23.961 58.8626 24.0579 59.1512C24.8232 59.4565 24.3416 58.6433 24.8075 58.542C24.9141 58.7713 24.8696 59.2192 24.853 59.5217C24.5968 59.6755 24.1971 59.7964 24.0281 59.9535C24.0249 60.6964 24.3995 60.2875 24.8566 60.1925C24.8924 61.3147 24.6788 61.6283 25.3497 61.4986C25.461 61.1095 25.3697 60.6211 25.3987 60.1805C25.4426 59.513 26.0033 59.7555 26.1492 59.7677C26.0721 60.091 26.2487 60.2837 26.4089 60.5073C26.6352 60.8231 26.647 60.8303 27.0056 60.6792C27.0457 60.2542 26.7851 60.0377 26.6016 59.7621L27.5191 59.7629C27.553 60.1274 27.5827 60.6333 27.4897 60.9344C27.1468 61.0549 27.0593 60.9082 26.6617 60.9754C26.5599 61.3015 26.6078 61.4269 26.9772 61.4971C28.4907 61.7848 28.0456 60.73 28.1108 59.7838L28.6535 59.6839C28.7833 59.0473 28.4609 59.32 28.1011 59.1153L28.1043 58.9014C28.2721 58.7956 28.4663 58.8383 28.6987 58.7828L28.6551 58.3328C28.3497 58.2373 27.4595 58.3229 27.4114 58.2145C27.4012 58.1913 27.3739 58.1996 27.3539 58.1885L27.3629 57.9748C27.6385 57.829 28.215 57.9456 28.5357 57.8496L28.5211 57.4578C28.2295 57.355 27.8765 57.3901 27.5163 57.3901C27.1185 57.3223 27.6564 56.8454 26.8176 56.9377L26.7322 57.3761L25.7715 57.4419V57.4419Z" fill="#FEFEFE"/>
  <path fill-rule="evenodd" clip-rule="evenodd" d="M35.2243 58.7457L36.3428 58.7664L36.3509 59.0438L36.3573 59.1871L36.3179 59.4415L36.0656 59.4497L35.4953 59.4516L35.2327 59.4399L35.2243 58.7457V58.7457ZM33.5563 58.7444L34.6681 58.7434L34.6284 59.4497H33.5677L33.5563 58.7444V58.7444ZM33.7998 58.1679C34.243 57.5493 34.516 57.5592 35.4858 57.6377C35.3478 58.3518 34.6941 58.2181 33.7998 58.1679ZM32.5707 58.7089C32.8002 58.886 32.7822 58.7404 32.9746 58.9011C32.9758 61.4724 32.4825 61.4978 35.7807 61.4781C36.1486 61.4758 36.6923 61.4655 36.9613 61.2935C37.1525 61.1713 37.4104 60.4582 37.1556 60.2275C37.0957 60.1734 37.056 60.1454 36.925 60.162C36.5116 60.2142 36.8557 60.6357 36.533 60.8674C36.1548 61.1388 33.9593 60.9596 33.5721 60.8286L33.5545 60.0098C34.4152 60.0066 35.2808 60.0007 36.1392 60.0107C36.6266 60.0165 36.8984 60.0744 36.9349 59.5496C36.9603 59.1847 36.953 58.5474 36.8402 58.2701C36.5976 58.1768 36.26 58.2028 35.9531 58.158C36.1421 57.8535 36.446 57.5938 36.4221 57.1827C35.7786 56.8714 35.3192 57.2516 34.5197 56.9375C33.8242 56.6642 34.2078 57.266 32.8292 58.1606C32.5748 58.3256 32.5437 58.309 32.5707 58.7089V58.7089Z" fill="#FEFEFE"/>
  <path fill-rule="evenodd" clip-rule="evenodd" d="M42.1298 60.8098C42.0784 60.4876 42.1035 60.1548 42.0998 59.8272C42.0927 59.1731 41.9922 58.99 42.3435 59.0636C42.487 59.0938 42.4888 59.2532 42.4944 59.4642C42.4978 59.5923 42.4866 59.7631 42.4861 59.8986C42.4847 60.1984 42.5023 60.5024 42.4632 60.8034L42.1298 60.8098V60.8098ZM41.8654 57.6889C41.7403 58.4304 41.2675 59.2022 41.2524 59.7318C41.3784 59.8154 41.5473 59.8379 41.5811 59.9698C41.5811 60.3721 41.544 60.9213 41.6402 61.2468C43.354 61.5275 42.989 61.1387 43.0099 59.551C43.582 59.7005 43.5843 59.3487 43.7147 58.8469C43.8012 58.5139 44.0124 57.8414 43.8357 57.5607C43.7706 57.5071 43.9653 57.4571 43.6287 57.4833C43.3755 57.503 43.3944 57.7861 43.3165 58.1609C43.2489 58.4861 43.0591 58.9584 43.0277 59.1529L42.9632 58.5698L42.2342 58.5055C42.2525 58.2991 42.3573 57.6646 42.5574 57.6141C43.0876 57.6141 43.3656 57.6812 43.2345 57.0858L41.7733 57.0522C41.0664 57.0546 41.2178 57.4895 41.5035 57.5914L41.8654 57.6889V57.6889Z" fill="#FEFEFE"/>
  <path fill-rule="evenodd" clip-rule="evenodd" d="M45.4358 59.9194C46.6484 60.8564 45.4121 57.6127 45.412 57.6125C45.2617 57.3947 44.8946 57.358 44.8827 57.7517C44.8665 58.2882 45.5352 58.52 44.834 59.8969C44.5693 60.4165 44.4612 60.5236 43.8814 60.7941C43.7322 60.8637 43.2828 61.007 43.2059 61.053C42.681 61.3662 43.3127 61.9584 44.6602 61.0037C45.0004 60.7626 45.254 60.4417 45.4358 59.9194V59.9194Z" fill="#FEFEFE"/>
  <path fill-rule="evenodd" clip-rule="evenodd" d="M28.6465 42.8531C28.8685 43.4465 28.9659 43.0505 29.4132 43.5315C29.8638 44.0162 29.3847 43.9893 29.3449 44.5228C29.7006 44.5431 30.0196 44.44 30.3083 44.3699C30.7006 42.9126 31.1941 42.2573 28.6465 42.8531Z" fill="#FEFEFE"/>
  <path fill-rule="evenodd" clip-rule="evenodd" d="M44.1102 57.3326L44.1101 59.7559C44.1103 60.1763 44.2284 60.1989 44.594 60.1502C44.6994 59.7866 44.7031 57.3052 44.6046 56.9339C44.1945 56.8978 44.1102 56.8775 44.1102 57.3326V57.3326Z" fill="#FEFEFE"/>
  <path fill-rule="evenodd" clip-rule="evenodd" d="M51.3551 40.556C51.0446 40.5092 49.087 40.8562 49.5324 41.2869C49.5905 41.3431 50.4357 41.2019 50.6674 41.1762C51.0756 41.1307 51.5001 41.0275 51.3551 40.556Z" fill="#FEFEFE"/>
  <path fill-rule="evenodd" clip-rule="evenodd" d="M25.4063 59.1766C25.9446 59.0503 26.9753 59.388 27.5285 59.1147L27.4231 58.859C26.9921 58.7672 27.7986 58.8932 27.3024 58.8341C26.6687 58.7586 25.9395 59.0001 25.6818 58.6642L25.6305 58.5791C25.4552 58.366 25.7761 58.5512 25.5289 58.4959C25.3232 58.6591 25.402 58.8513 25.4063 59.1766V59.1766Z" fill="#E6212C"/>
  <path fill-rule="evenodd" clip-rule="evenodd" d="M74.6142 40.5885C74.2561 40.5587 72.6213 40.7419 73.1561 41.2743C73.2748 41.3924 73.8093 41.2135 74.0205 41.1732C74.5004 41.0814 74.6305 41.1051 74.6142 40.5885Z" fill="#FEFEFE"/>
  <path fill-rule="evenodd" clip-rule="evenodd" d="M61.1086 58.7151L61.1898 59.5619L62.045 59.5573C61.853 59.1705 62.0686 59.0575 62.1926 58.6577L61.1086 58.7151V58.7151Z" fill="#E6212C"/>
  <path fill-rule="evenodd" clip-rule="evenodd" d="M35.2325 59.4394L35.4951 59.4511L36.0654 59.4492L36.3177 59.441L36.3572 59.1865L36.3507 59.0432L36.3427 58.7659L35.2241 58.7451L35.2325 59.4394Z" fill="#E6212C"/>
  <path fill-rule="evenodd" clip-rule="evenodd" d="M33.5693 59.4495H34.63L34.6697 58.7432L33.5579 58.7442L33.5693 59.4495Z" fill="#E6212C"/>
  <path fill-rule="evenodd" clip-rule="evenodd" d="M33.8059 58.1673C34.7002 58.2176 35.354 58.3512 35.492 57.6372C34.5221 57.5587 34.2492 57.5488 33.8059 58.1673Z" fill="#E6212C"/>
  <path fill-rule="evenodd" clip-rule="evenodd" d="M59.3139 42.2128C59.638 42.2254 59.6527 42.1411 59.7856 41.9177C59.884 41.7522 60.0104 41.6001 60.057 41.3671C59.4166 40.5699 59.0017 41.3296 59.3139 42.2128Z" fill="#FEFEFE"/>
  <path fill-rule="evenodd" clip-rule="evenodd" d="M81.6064 40.226C81.7928 40.4145 82.0502 40.4885 82.3938 40.487C82.5338 40.3178 82.9144 39.6242 82.4049 39.5635C82.0653 39.523 81.6845 39.9922 81.6064 40.226V40.226Z" fill="#FEFEFE"/>
  <path fill-rule="evenodd" clip-rule="evenodd" d="M52.4032 58.1798L53.7823 58.1727L53.8007 57.7117L52.3755 57.6709L52.4032 58.1798Z" fill="#E6212C"/>
  <path fill-rule="evenodd" clip-rule="evenodd" d="M42.1274 60.8103L42.4609 60.8038C42.5 60.5028 42.4824 60.1988 42.4838 59.899C42.4843 59.7636 42.4955 59.5928 42.4921 59.4646C42.4865 59.2537 42.4847 59.0942 42.3412 59.0641C41.9899 58.9905 42.0904 59.1735 42.0975 59.8277C42.1012 60.1552 42.0761 60.488 42.1274 60.8103V60.8103Z" fill="#E6212C"/>
  <path fill-rule="evenodd" clip-rule="evenodd" d="M49.5549 43.3624C49.7713 43.5185 50.9445 43.618 51.3784 43.2912C51.0676 42.583 49.69 43.2624 49.5549 43.3624Z" fill="#FEFEFE"/>
  <path fill-rule="evenodd" clip-rule="evenodd" d="M80.342 42.3569C80.8112 42.5028 81.2104 42.3382 81.4837 42.1024C81.3115 41.6496 81.664 42.4934 81.3988 41.9426C81.1552 41.4367 81.3945 41.6034 81.1176 41.3745C80.7025 41.5421 80.9445 41.5853 80.8432 41.8811C80.6955 42.313 80.4683 42.0046 80.342 42.3569Z" fill="#FEFEFE"/>
  <path fill-rule="evenodd" clip-rule="evenodd" d="M53.9899 60.4009L53.995 59.673C53.2606 59.6575 53.3398 59.6227 53.2714 59.7918C53.1552 60.08 53.3228 59.9611 53.3285 59.9665C53.3315 59.9693 53.5812 60.0882 53.6464 60.14C53.8225 60.2795 53.7793 60.2892 53.9899 60.4009V60.4009Z" fill="#E6212C"/>
  <path fill-rule="evenodd" clip-rule="evenodd" d="M73.2393 43.1932C73.6399 43.2421 74.2837 43.0571 74.371 42.7694C74.0068 42.4957 73.3552 42.9175 73.2393 43.1932Z" fill="#FEFEFE"/>
  <path fill-rule="evenodd" clip-rule="evenodd" d="M52.1931 60.6198C52.4314 60.4838 52.6189 60.0535 52.7217 59.7036L52.2102 59.6855L52.1931 60.6198Z" fill="#E6212C"/>
  <path fill-rule="evenodd" clip-rule="evenodd" d="M52.3757 57.6706L53.8009 57.7114L53.7826 58.1723L52.4034 58.1794L52.3757 57.6706V57.6706ZM52.3274 58.1856C52.6257 58.2612 53.0433 58.237 53.3944 58.2373C53.9667 58.2381 53.8849 58.1326 53.8267 57.6164C53.4964 57.5609 53.1551 57.5796 52.8187 57.5778C52.2249 57.5744 52.3191 57.5972 52.3274 58.1856V58.1856Z" fill="#F7C5B8"/>
</svg>
