<svg xmlns="http://www.w3.org/2000/svg" fill="none" viewBox="0 0 32 20" class="design-iconfont">
  <path d="M12.98 5.004V11.206C12.98 12.508 13.344 13.502 14.086 14.202C14.786 14.86 15.808 15.196 17.138 15.196C18.454 15.196 19.476 14.86 20.204 14.188C20.932 13.502 21.296 12.508 21.296 11.206V5.004H19.658V11.234C19.658 12.102 19.448 12.732 19.056 13.152C18.65 13.558 18.006 13.768 17.138 13.768C16.256 13.768 15.612 13.558 15.22 13.152C14.814 12.732 14.618 12.102 14.618 11.234V5.004H12.98ZM23.2613 5.004V15H24.8993V11.164H27.3773C29.8133 11.164 31.0312 10.128 31.0312 8.07C31.0312 6.026 29.8133 5.004 27.4053 5.004H23.2613ZM24.8993 6.404H27.2793C27.9933 6.404 28.5253 6.53 28.8613 6.796C29.1973 7.048 29.3793 7.468 29.3793 8.07C29.3793 8.672 29.2113 9.106 28.8753 9.372C28.5393 9.624 28.0073 9.764 27.2793 9.764H24.8993V6.404Z" fill="url(#se7irqwuf__paint0_linear_2_484)"/>
  <path d="M5.00098 8.03299V14.533C5.00098 14.8105 5.22698 15.033 5.50598 15.033H6.49598C6.56206 15.0337 6.62762 15.0212 6.68886 14.9964C6.7501 14.9715 6.80581 14.9348 6.85277 14.8883C6.89973 14.8418 6.93701 14.7865 6.96245 14.7255C6.98789 14.6645 7.00098 14.5991 7.00098 14.533V8.03299H7.99648C8.54998 8.03299 8.73248 7.67499 8.40148 7.23299L6.60098 4.83299C6.26698 4.38799 5.73248 4.39099 5.40098 4.83299L3.60098 7.23299C3.26698 7.67799 3.45098 8.03299 4.00548 8.03299H5.00098V8.03299Z" fill="url(#se7irqwuf__paint1_linear_2_484)"/>
  <defs>
    <linearGradient id="se7irqwuf__paint0_linear_2_484" x1="22" y1="0" x2="22" y2="16.4062" gradientUnits="userSpaceOnUse">
      <stop stop-opacity="0"/>
      <stop offset=".0001" stop-color="#FFE483" stop-opacity="0"/>
      <stop offset=".078125" stop-color="#F7BA00" stop-opacity=".140033"/>
      <stop offset=".557292" stop-color="#FFB321"/>
      <stop offset="1" stop-color="#F90" stop-opacity=".96063"/>
    </linearGradient>
    <linearGradient id="se7irqwuf__paint1_linear_2_484" x1="5.9999" y1="2.66667" x2="5.9999" y2="15" gradientUnits="userSpaceOnUse">
      <stop stop-color="#F7BA00" stop-opacity=".5"/>
      <stop offset=".557292" stop-color="#FFB321"/>
      <stop offset="1" stop-color="#F90" stop-opacity=".96063"/>
    </linearGradient>
  </defs>
</svg>
