<svg xmlns="http://www.w3.org/2000/svg" fill="none" viewBox="0 0 201 70" class="design-iconfont">
  <path fill-rule="evenodd" clip-rule="evenodd" d="M120.273 47.6445C119.671 54.3005 108.392 51.6917 106.8 52.0913C106.292 53.1402 105.74 55.9167 105.749 57.2085C114.469 58.8247 122.449 58.0126 125.827 50.998C127.216 48.1124 127.845 43.3214 128.52 39.8407C129.03 37.2115 130.668 30.1553 130.621 27.9841C121.259 27.4467 113.518 26.5568 109.166 33.4604C107.072 36.782 107.058 41.4154 109.391 44.3317C111.893 47.4582 115.172 48.0047 120.273 47.6445V47.6445ZM121.459 42.8144C121.769 41.0778 123.497 33.6361 123.095 32.6101C118.602 32.4222 115.013 33.1782 114.07 37.1345C112.868 42.1785 116.91 44.1813 121.459 42.8144Z" fill="#3E83E8"/>
  <path fill-rule="evenodd" clip-rule="evenodd" d="M147.078 27.8079C142.531 27.7376 138.551 27.7987 135.281 29.884C129.15 33.7935 128.131 44.4944 137.112 47.0493C139.242 47.6551 148.396 48.3002 150.386 47.5658C151.225 46.0125 151.32 43.1986 151.698 41.1931C152.214 38.4511 155.311 22.6564 155.291 21.2921C153.93 21.2997 148.98 20.9412 148.379 21.6848C148.01 22.1398 147.174 27.0009 147.078 27.8079V27.8079ZM146.129 32.4681C134.709 32.0429 136.369 39.9628 138.404 41.6901C139.252 42.4096 140.466 42.8109 141.872 43.004C144.495 43.3642 144.183 43.3697 144.567 41.0527C145.049 38.1424 145.783 35.4378 146.129 32.4681V32.4681Z" fill="#3E83E8"/>
  <path fill-rule="evenodd" clip-rule="evenodd" d="M50.4978 47.6297L57.109 47.6621C57.909 47.3108 59.3982 37.6051 59.4621 37.1408L63.447 42.8466C64.1097 43.8341 64.6319 44.6607 65.3422 45.7236C66.9175 48.0809 66.7218 47.7593 71.4957 47.7208L74.0226 47.6786C73.5854 46.6658 72.6287 45.402 72.0604 44.5269C70.8541 42.6695 65.995 35.6171 65.719 34.5968C67.3201 32.3586 77.0948 22.5139 77.4119 21.3473L70.7768 21.2922C69.4896 21.2914 68.7733 22.4894 67.9221 23.4084C66.3924 25.0599 61.6838 30.6067 60.6795 31.2788L62.3893 21.3261C55.1803 21.1541 55.4289 20.831 55.0012 23.3995C54.5572 26.0641 53.9454 28.7873 53.4553 31.4191L50.4978 47.6297V47.6297Z" fill="#3E83E8"/>
  <path fill-rule="evenodd" clip-rule="evenodd" d="M22.5388 0.269839C8.41755 3.74241 14.1093 24.1174 26.7426 21.0492C31.8334 19.813 35.7003 14.769 34.6012 8.61579C33.719 3.6761 28.5697 -1.21333 22.5388 0.269839Z" fill="#3E83E8"/>
  <path fill-rule="evenodd" clip-rule="evenodd" d="M199.574 41.3645C189.745 41.1618 194.379 41.8008 190.734 43.1143C187.606 44.2414 184.183 42.535 184.355 39.1579C187.065 39.1773 198.859 39.4985 200.385 38.8793C201.708 34.1447 198.498 28.0802 191.521 27.4696C176.693 26.1717 172.509 44.9865 185.62 47.6308C193.147 49.1488 199.475 43.7881 199.574 41.3645ZM185.106 34.9921L193.909 35.0128C193.712 30.4646 185.679 31.3154 185.106 34.9921Z" fill="#3E83E8"/>
  <path fill-rule="evenodd" clip-rule="evenodd" d="M175.567 41.4233L170.445 41.3479C167.853 41.3484 168.01 43.6393 164.457 43.4471C162.136 43.3215 160.173 41.6696 160.398 39.1802L173.799 39.1594C176.39 39.1624 176.689 39.3199 176.493 36.4984C175.657 24.4127 158.88 24.9806 154.749 34.2391C150.236 44.3516 161.13 50.8443 170.275 46.5906C172.014 45.7822 175.419 43.1476 175.567 41.4233V41.4233ZM161.091 35L169.905 35.005C169.752 32.8962 167.974 31.8994 165.651 31.9454C163.591 31.9864 161.356 33.254 161.091 35V35Z" fill="#3E83E8"/>
  <path fill-rule="evenodd" clip-rule="evenodd" d="M85.1348 47.6887C86.6444 47.7682 89.977 47.9872 91.1417 47.4986C91.892 46.535 92.631 41.0931 92.9247 39.5057C93.4429 36.705 94.3399 33.9269 96.6859 33.387C102.825 31.974 98.0383 43.1627 98.0859 47.68C99.5704 47.7792 102.911 47.9977 104.079 47.4499C104.77 46.191 106.738 34.6125 106.514 32.9227C105.817 27.6518 99.2462 27.5422 94.975 29.5022C94.2018 28.2227 95.1321 28.1369 92.5905 28.1537C91.3182 28.1622 89.9957 28.079 88.7459 28.2329C88.3846 28.9571 85.0667 46.6736 85.1348 47.6887V47.6887Z" fill="#3E83E8"/>
  <path fill-rule="evenodd" clip-rule="evenodd" d="M22.9391 39.3336C19.0891 40.1778 15.9525 43.9963 16.9728 48.8036C17.7634 52.5282 21.7448 55.9837 26.2599 54.8814C36.021 52.4985 33.0346 37.1198 22.9391 39.3336V39.3336Z" fill="#58C5CD"/>
  <path fill-rule="evenodd" clip-rule="evenodd" d="M5.07759 22.1087C3.30092 22.7093 1.9697 23.5484 1.13399 24.9034C-2.18002 30.2763 2.2166 37.173 8.55876 35.6369C11.7087 34.874 14.5517 31.2441 13.4505 27.0372C12.6475 23.9697 9.22112 20.7083 5.07759 22.1087V22.1087Z" fill="#5CC8F9"/>
  <path fill-rule="evenodd" clip-rule="evenodd" d="M75.7698 47.7166L82.0429 47.6412C82.7391 46.6672 85.6699 30.3461 85.7996 28.2441L82.757 28.1498C78.487 28.1684 79.493 26.7384 77.7132 36.263C77.2164 38.9213 75.7193 45.2356 75.7698 47.7166Z" fill="#3E83E8"/>
  <path fill-rule="evenodd" clip-rule="evenodd" d="M41.5212 60.7515C35.3933 62.1649 37.3488 71.0018 43.2095 69.9062C45.4348 69.4902 47.19 67.3048 46.7806 64.4454C46.4558 62.1765 44.1985 60.1341 41.5212 60.7515Z" fill="#976CF8"/>
  <path fill-rule="evenodd" clip-rule="evenodd" d="M79.8174 25.5528L84.9125 25.573C86.22 25.573 86.4429 25.438 86.6971 24.1914C86.8837 23.2765 87.1021 22.2377 87.0439 21.3075L80.9086 21.3211C80.1494 22.2901 79.895 23.9182 79.8174 25.5528Z" fill="#3E83E8"/>
</svg>
