<svg xmlns="http://www.w3.org/2000/svg" fill="none" viewBox="0 0 48 48" class="design-iconfont">
  <path fill-rule="evenodd" clip-rule="evenodd" d="M1.9676 36.8388C1.00452 23.7793 21.5115 22.7211 21.7533 35.7075C21.9999 48.9524 2.89184 49.3702 1.9676 36.8388ZM1.9676 23.2823C1.33011 10.7522 19.9473 9.56446 21.5725 20.9531C21.7047 21.8795 21.5362 29.2648 19.6505 27.3873C18.165 25.9083 15.115 24.4627 13.01 24.4123C9.76896 24.3347 8.1838 24.5799 5.41093 26.2805C4.33477 26.9405 3.53005 28.3872 2.94133 27.1349C2.49987 26.1957 2.01997 24.3097 1.9676 23.2823ZM42.4428 27.3835L39.2232 22.1953L43.4368 21.0886C44.5014 18.5931 39.9889 19.8349 39.0434 20.2179C37.948 20.6615 37.7673 21.3178 36.7356 20.6969C35.784 20.1241 34.969 20.0256 34.2418 19.652C35.6482 18.3621 37.7278 17.7937 39.7124 17.8125C42.2948 17.8368 43.5979 17.3539 45.9674 16.789C45.93 18.7634 44.1932 26.7926 42.4428 27.3835ZM21.724 16.3067L18.4514 12.8133C18.8942 6.8514 24.263 4.56755 29.1406 2.20715C31.0517 6.92695 31.9517 8.9045 30.8764 14.3131C30.5558 15.925 29.7815 18.2293 28.5144 19.3512C28.1202 19.7003 26.5926 20.1217 25.9549 20.4321C25.5776 20.6157 23.7874 21.8026 23.7303 21.8144C22.472 20.2256 24.3658 14.1988 25.2722 12.4511C26.1205 10.8156 24.2858 9.46433 23.197 11.9727C22.8869 12.6869 21.8447 16.1097 21.724 16.3067ZM16.5205 11.8904C10.397 10.0677 4.51314 11.3039 1.36313 17.3225C-0.118149 20.1526 -0.39679 23.5463 0.615628 26.5769C1.05929 27.9047 2.29712 29.1534 1.66328 30.2217C0.82726 31.6307 0.365307 32.776 0.132987 34.426C-1.78639 48.0593 17.6168 54.0704 23.1148 39.8008C25.6171 41.4809 26.2054 42.3932 29.5303 42.8279C31.1526 43.0401 36.1543 42.8537 36.8465 41.0024C36.8133 38.8056 32.8418 41.2953 30.5628 41.0102C27.9146 40.679 26.3149 39.9902 24.3228 38.2323C23.3768 37.3975 23.4401 33.253 22.6846 31.4605C22.1076 30.0915 21.2866 29.9338 22.1396 28.5908C22.9246 27.355 22.9932 26.6043 23.4077 25.2846C24.6803 21.2328 32.4337 20.4001 36.0036 22.4436C42.8945 26.3881 40.0809 33.3362 41.1414 34.7276C43.553 35.4059 42.6771 30.86 42.9771 29.9678C42.9921 29.9232 45.345 26.8377 45.8173 25.8661C47.0131 23.4056 48.5749 16.9144 47.7865 14.3966C46.3526 14.0285 45.3763 14.9706 43.7539 15.3684C42.1836 15.7536 40.3125 15.8558 38.6885 15.8752C35.2003 15.9168 32.2172 19.297 31.0734 19.2952C35.3407 12.7304 32.4877 1.05106 29.5934 0.0184849C28.7115 -0.296204 22.6046 3.50132 21.4996 4.23414C18.6636 6.11512 16.726 8.29125 16.5205 11.8904Z" fill="#000"/>
  <path fill-rule="evenodd" clip-rule="evenodd" d="M32.0812 31.7507C32.637 32.4031 33.0591 33.0557 33.2901 33.8805C33.0272 34.711 32.6017 35.4651 32.0425 36.0276C31.2296 36.145 30.3591 36.2051 29.5939 35.8724C28.8232 34.0181 27.946 34.4885 28.9001 33.0795C29.892 31.6149 29.3881 31.5013 32.0812 31.7507V31.7507ZM28.0744 38.3227C28.7482 38.8573 29.8804 37.515 30.836 37.5084C31.9677 37.5005 33.0204 38.5442 33.7403 38.1895C34.5164 37.4311 33.5505 36.0026 34.9781 35.0499C36.1882 34.2425 36.6907 33.8056 35.1265 32.8134C33.5454 31.8105 34.2024 30.9383 33.7964 29.8063C33.3182 28.4735 31.903 29.9618 30.7784 29.9473C29.8095 29.9349 28.1334 28.433 27.813 29.9828C27.5529 31.2406 27.8475 32.084 26.4018 32.9061C24.6316 33.913 26.0594 34.5121 26.8055 35.1468C28.4118 36.5133 27.3104 37.3977 28.0744 38.3227V38.3227Z" fill="#000"/>
  <path fill-rule="evenodd" clip-rule="evenodd" d="M6.94092 35.7612L8.86852 35.7967L10.0207 37.5107L8.93593 39.5702L6.69567 39.3388C6.48439 39.2949 5.87317 37.8316 5.85972 37.5868C5.84899 37.392 6.8996 35.7871 6.94092 35.7612V35.7612ZM5.53315 41.4205C6.54688 41.8501 7.02834 40.9821 7.80765 41.0042C8.64365 41.028 9.52542 41.7993 10.1924 41.459C11.349 40.5632 10.7111 39.9826 10.9531 39.3415C11.2745 38.4904 12.3459 38.5226 12.3276 37.7147C12.3068 36.8626 11.3877 36.5946 11.0515 35.7138C10.6565 34.8527 11.2647 34.0587 10.3918 33.5806C9.02124 32.8974 8.90665 34.8047 6.67178 33.6285C4.70296 32.5923 5.36384 34.9229 4.692 35.9535C4.12462 36.824 1.82491 37.3519 3.93255 38.607C5.64403 39.626 4.5685 40.9558 5.53315 41.4205V41.4205Z" fill="#000"/>
  <path fill-rule="evenodd" clip-rule="evenodd" d="M9.46487 17.2737L10.515 15.883L12.5509 15.9147L13.6039 17.3645L12.6155 18.8693C10.7119 19.6028 10.2504 18.4743 9.46487 17.2737V17.2737ZM8.9481 20.9046L13.8353 20.8322L16.3453 17.3854C15.8511 16.0056 15.5697 16.9624 14.7936 15.9369C14.0793 14.9931 14.6302 14.1491 14.0089 13.7085C13.3528 13.2434 12.6468 14.0092 11.7919 14.0606C10.599 14.1324 10.0533 13.4623 9.43063 13.5927C8.35421 13.8182 8.91432 14.8591 8.49925 15.639C8.05616 16.4716 7.13158 16.3826 6.87345 17.0369C6.46821 18.0644 7.51535 18.1702 8.07617 18.6651C9.24895 19.7002 8.51565 20.3837 8.9481 20.9046V20.9046Z" fill="#000"/>
  <path fill-rule="evenodd" clip-rule="evenodd" d="M26.1109 7.16006C25.7944 7.34253 25.8263 7.20934 25.6508 7.5978C25.5214 7.88409 25.5146 8.09744 25.6571 8.38396C25.9026 8.87764 26.3644 9.04451 26.8579 8.80732C28.0733 8.22313 27.2248 6.51801 26.1109 7.16006V7.16006Z" fill="#000"/>
  <path fill-rule="evenodd" clip-rule="evenodd" d="M38.5396 35.9521C37.2726 36.6785 38.1709 38.0335 39.1285 37.6663C40.3206 37.2091 39.6231 35.331 38.5396 35.9521Z" fill="#000"/>
  <path fill-rule="evenodd" clip-rule="evenodd" d="M10.9197 16.6178C10.7803 17.0699 10.5145 17.5224 10.8757 17.9693C11.6043 18.8709 13.0378 17.7478 12.2705 16.7981C11.8889 16.3259 11.3572 16.5467 10.9197 16.6178V16.6178Z" fill="#000"/>
  <path fill-rule="evenodd" clip-rule="evenodd" d="M7.58026 36.8423C6.39033 37.3557 7.27729 38.8971 8.29998 38.4623C8.92943 38.1947 8.96096 37.0808 8.28096 36.7944C8.06331 36.7027 8.22418 36.7125 7.92112 36.7337C7.92112 36.7337 7.8419 36.7294 7.58026 36.8423V36.8423Z" fill="#000"/>
  <path fill-rule="evenodd" clip-rule="evenodd" d="M31.7841 34.5192C31.6844 32.9547 30.1171 33.1278 29.9952 34.0735C29.9028 34.7903 30.1719 35.3399 30.9644 35.045C30.9908 35.0351 31.0193 35.022 31.0457 35.0118L31.2973 34.9225C31.5942 34.7957 31.5674 34.7937 31.7841 34.5192V34.5192Z" fill="#000"/>
</svg>
