<svg xmlns="http://www.w3.org/2000/svg" fill="none" viewBox="0 0 28 28" class="design-iconfont">
  <path d="M3 4.5C3 4.22386 3.22382 4 3.49997 4C5.92957 4 9.21652 4 11.929 4C12.2051 4 12.4286 4.22386 12.4286 4.5V6.35714C12.4286 6.63328 12.6524 6.85714 12.9286 6.85714H24.5C24.7761 6.85714 25 7.081 25 7.35714V23.5C25 23.7761 24.7761 24 24.5 24H3.5C3.22386 24 3 23.7761 3 23.5V4.5Z" fill="#3C84CD"/>
  <path d="M6 14.5735V15.3941L10.5 17.2206V16.3206L8.4 15.5265L7 14.9971V14.9706L8.4 14.4412L10.5 13.6471V12.7206L6 14.5735Z" fill="#fff"/>
  <path d="M15.5 11H14.775L12.3 20H13.025L15.5 11Z" fill="#fff"/>
  <path d="M19.6 15.5529L17.5 16.3471V17.2206L22 15.3676V14.5471L19.75 13.6206L17.5 12.6941V13.6206L19.6 14.4147L21 14.9706V15.0235L19.6 15.5529Z" fill="#fff"/>
</svg>
