<svg xmlns="http://www.w3.org/2000/svg" fill="none" viewBox="0 0 28 28" class="design-iconfont">
  <path d="M22.0865 14.4963L21.7996 14.7895L21.5127 14.495C20.3951 13.3512 18.5772 13.3461 17.4546 14.4848L17.4446 14.495C16.3207 15.6439 16.3207 17.5018 17.4446 18.6519L21.336 22.6903C21.5878 22.9504 21.9988 22.9542 22.2556 22.6992L22.2644 22.6903L26.1571 18.6519C27.2809 17.503 27.2809 15.6452 26.1571 14.495C25.0395 13.3512 23.2216 13.3461 22.099 14.4835L22.0865 14.4963Z" fill="url(#paint0_linear_621_4275)"/>
  <path fill-rule="evenodd" clip-rule="evenodd" d="M20.268 6.57255C20.268 9.34447 18.5596 11.7162 16.1539 12.6805C16.6953 12.7937 17.2232 12.9445 17.7348 13.1303C17.3559 13.3035 17.0006 13.5542 16.6897 13.8821C15.6196 15.0001 15.2258 17.5463 16.5701 18.948L21.2249 23.8693C21.5262 24.1864 22.0177 24.191 22.325 23.8802L22.3354 23.8693L25.0705 21.0142C25.3741 22.0689 25.5369 23.1836 25.5369 24.3361C25.5369 25.3394 24.9478 26.0768 23.7869 26.5271C20.6894 27.609 16.0255 28 13.643 28C11.4582 28 6.92451 27.7018 3.78973 26.5828L3.74508 26.5642C2.96765 26.1931 2 25.731 2 24.3361C2 18.5999 6.03393 13.799 11.3829 12.6805C8.97726 11.7162 7.26949 9.34447 7.26949 6.57255C7.26949 2.94822 10.1847 0 13.7684 0C17.3522 0 20.268 2.94822 20.268 6.57255Z" fill="url(#paint1_linear_621_4275)"/>
  <defs>
    <linearGradient id="paint0_linear_621_4275" x1="21.8008" y1="13.6338" x2="21.8008" y2="22.8879" gradientUnits="userSpaceOnUse">
      <stop stop-color="#39A0FC"/>
      <stop offset="1" stop-color="#2094FA"/>
    </linearGradient>
    <linearGradient id="paint1_linear_621_4275" x1="13.7684" y1="0" x2="13.7684" y2="28" gradientUnits="userSpaceOnUse">
      <stop stop-color="#65B6FE"/>
      <stop offset="1" stop-color="#108CFA"/>
    </linearGradient>
  </defs>
</svg>
