<svg xmlns="http://www.w3.org/2000/svg" fill="none" viewBox="0 0 56 48" class="design-iconfont">
  <g clip-path="url(#clip0_621_4526)">
    <path d="M56 23.6923L42 47.3846H40.9231H14L0 23.6923L14 0H40.9231L56 23.6923Z" fill="#FFF100" stroke="#ADADAD" stroke-width=".430769"/>
    <path d="M30.6633 17.883L35.6481 19.3899L37.325 22.2708L33.8873 23.9513L30.6633 23.3911" stroke="#ADADAD" stroke-width=".236041"/>
    <path d="M24.8705 17.883L19.8857 19.3899L18.2088 22.2708L21.6465 23.9513L24.8705 23.3911" stroke="#ADADAD" stroke-width=".236041"/>
    <path fill-rule="evenodd" clip-rule="evenodd" d="M28.9412 15.388L27.7674 12.9872L26.5935 15.388L24.0781 15.548L25.375 19.5707C25.1446 19.8002 24.9484 20.0626 24.7945 20.3501H30.7406C30.5866 20.0625 30.3904 19.8 30.1599 19.5705L31.4566 15.548L28.9412 15.388ZM30.9495 20.8302H24.5856C24.5499 20.9346 24.5195 21.0414 24.4946 21.1502H31.0404C31.0155 21.0414 30.9851 20.9346 30.9495 20.8302ZM24.4136 21.8701C24.4136 21.7894 24.4166 21.7095 24.4225 21.6303H31.1126C31.1184 21.7095 31.1214 21.7894 31.1214 21.8701C31.1214 21.8969 31.1211 21.9237 31.1204 21.9504H24.4146C24.414 21.9237 24.4136 21.8969 24.4136 21.8701ZM24.4624 22.4305C24.4815 22.5392 24.5061 22.646 24.5358 22.7507H30.9992C31.029 22.646 31.0535 22.5392 31.0727 22.4305H24.4624ZM24.8865 23.5508C24.8235 23.4476 24.7661 23.3409 24.7148 23.2308H30.8202C30.7689 23.3409 30.7115 23.4476 30.6486 23.5508H24.8865ZM25.2437 24.0309C25.6013 24.4304 26.0566 24.7442 26.5729 24.9368L27.7677 26.9119L28.9625 24.9367C29.4787 24.7441 29.9338 24.4303 30.2914 24.0309H25.2437Z" fill="#221816"/>
    <path d="M17.8463 32.9991C18.0446 32.9099 18.2395 32.8058 18.4312 32.6868C18.6229 32.5646 18.8129 32.4208 19.0012 32.2556C19.1599 32.1168 19.297 31.9846 19.4127 31.859C19.5283 31.7302 19.6291 31.5963 19.715 31.4575H18.0247V31.2791H20.0422V30.6942H20.2107V31.2791H22.243V31.4575H20.5081C20.6006 31.5996 20.7097 31.7368 20.8353 31.8689C20.9608 32.0011 21.1062 32.135 21.2715 32.2705C21.4664 32.4291 21.6598 32.5695 21.8514 32.6918C22.0431 32.8108 22.2381 32.9148 22.4363 33.0041L22.3521 33.1676C22.1505 33.0718 21.9522 32.9628 21.7572 32.8405C21.5623 32.7182 21.3657 32.5761 21.1674 32.4142C20.9757 32.2556 20.8105 32.097 20.6717 31.9383C20.5329 31.7797 20.4172 31.6195 20.3247 31.4575H20.2107V33.4551H20.0422V31.4575H19.9083C19.8125 31.6195 19.7002 31.7781 19.5713 31.9334C19.4457 32.0854 19.2887 32.2407 19.1004 32.3993C18.9054 32.5613 18.7137 32.7034 18.5254 32.8256C18.337 32.9479 18.142 33.0569 17.9405 33.1528L17.8463 32.9991ZM18.1734 29.3509C18.4114 29.3509 18.6856 29.3426 18.9963 29.3261C19.3102 29.3096 19.6671 29.2831 20.067 29.2468C20.87 29.1774 21.5061 29.1047 21.9754 29.0287L22.02 29.1922C21.5441 29.2716 20.903 29.3459 20.0967 29.4153C19.297 29.4847 18.6658 29.5194 18.2032 29.5194L18.1734 29.3509ZM20.9195 30.6892C21.0352 30.5636 21.1806 30.3786 21.3557 30.134C21.5309 29.8862 21.6598 29.6813 21.7424 29.5194L21.8911 29.6037C21.8448 29.683 21.7886 29.7755 21.7226 29.8812C21.6598 29.987 21.5854 30.1027 21.4995 30.2282C21.4136 30.3538 21.3343 30.4629 21.2616 30.5554C21.1889 30.6479 21.1211 30.7272 21.0583 30.7933L20.9195 30.6892ZM18.5749 29.6532C18.6642 29.7557 18.7815 29.9126 18.9269 30.1241C19.069 30.3257 19.1764 30.4909 19.2491 30.6198L19.0954 30.719C19.0591 30.6562 19.0145 30.5835 18.9616 30.5009C18.9087 30.4182 18.8476 30.3257 18.7782 30.2233C18.7088 30.1208 18.6443 30.03 18.5849 29.9506C18.5287 29.8713 18.4775 29.8036 18.4312 29.7474L18.5749 29.6532ZM19.9579 29.5293C20.0339 29.6351 20.1297 29.7854 20.2454 29.9804C20.3016 30.0762 20.3512 30.1654 20.3941 30.2481C20.4404 30.3307 20.4767 30.4017 20.5032 30.4612L20.3445 30.5405C20.3181 30.481 20.2834 30.4116 20.2405 30.3323C20.2008 30.253 20.1529 30.1654 20.0967 30.0696C20.0405 29.9738 19.9877 29.8879 19.9381 29.8119C19.8918 29.7358 19.8489 29.6698 19.8092 29.6136L19.9579 29.5293ZM25.4997 31.5418V31.1948H25.6682V31.5418H27.1602V32.4539H25.6682V33.0685C26.2498 33.052 26.7389 33.0272 27.1354 32.9942C27.0594 32.9314 26.99 32.8752 26.9273 32.8256C26.8645 32.7761 26.8083 32.7331 26.7587 32.6967L26.8678 32.5827C26.9735 32.6587 27.1156 32.7711 27.2941 32.9198C27.4725 33.0718 27.608 33.2023 27.7005 33.3114L27.5865 33.4304C27.5502 33.3874 27.5072 33.3411 27.4576 33.2916C27.4081 33.242 27.3535 33.1891 27.2941 33.1329V33.1379C27.0561 33.161 26.7785 33.1792 26.4613 33.1924C26.1441 33.209 25.7855 33.2222 25.3857 33.2321C24.5926 33.2519 23.9597 33.2519 23.4872 33.2321L23.4822 33.0735C23.9515 33.0933 24.581 33.0933 25.3708 33.0735C25.3906 33.0735 25.4105 33.0718 25.4303 33.0685C25.4534 33.0685 25.4765 33.0685 25.4997 33.0685V32.4539H24.0027V31.5418H25.4997ZM24.8008 29.8515V30.5603C24.8008 30.6099 24.8024 30.6529 24.8057 30.6892C24.809 30.7223 24.8156 30.752 24.8255 30.7784C25.1857 30.6463 25.5212 30.4942 25.8318 30.3224C26.1457 30.1473 26.4266 29.944 26.6745 29.7127L26.7686 29.8366C26.5406 30.0547 26.2713 30.2514 25.9607 30.4265C25.6533 30.6016 25.3163 30.7586 24.9495 30.8974C24.999 30.9139 25.0651 30.9238 25.1477 30.9271C25.2039 30.9305 25.2766 30.9338 25.3658 30.9371C25.4584 30.9371 25.5526 30.9371 25.6484 30.9371C25.7475 30.9371 25.8417 30.9371 25.9309 30.9371C26.0201 30.9338 26.0912 30.9305 26.1441 30.9271C26.2267 30.9205 26.2928 30.9123 26.3423 30.9024C26.3919 30.8924 26.4299 30.8759 26.4564 30.8528C26.4861 30.8297 26.5059 30.7999 26.5158 30.7636C26.5291 30.7272 26.5406 30.681 26.5505 30.6248L26.5803 30.3472L26.7389 30.4017C26.7356 30.4447 26.7323 30.4876 26.729 30.5306C26.7257 30.5703 26.7207 30.6132 26.7141 30.6595C26.7042 30.7421 26.6893 30.8098 26.6695 30.8627C26.6497 30.9156 26.6183 30.9569 26.5753 30.9866C26.5357 31.0164 26.4828 31.0378 26.4167 31.0511C26.3506 31.0643 26.2647 31.0742 26.1589 31.0808C26.0995 31.0874 26.0235 31.0924 25.9309 31.0957C25.8417 31.0957 25.7475 31.0957 25.6484 31.0957C25.5492 31.0957 25.4518 31.0957 25.3559 31.0957C25.2634 31.0924 25.1857 31.0874 25.123 31.0808C25.0304 31.0742 24.9528 31.0643 24.89 31.0511C24.8272 31.0378 24.7776 31.0131 24.7413 30.9767C24.5364 31.0494 24.3266 31.1172 24.1118 31.1799C23.897 31.2394 23.6789 31.2956 23.4575 31.3485L23.4029 31.1899C23.6243 31.1403 23.8391 31.0874 24.0473 31.0312C24.2588 30.9718 24.4637 30.9073 24.662 30.8379C24.6554 30.8049 24.6488 30.7685 24.6421 30.7289C24.6388 30.6892 24.6372 30.6446 24.6372 30.595V29.8515H24.8008ZM25.6236 29.341C25.6071 29.3013 25.5872 29.2583 25.5641 29.2121C25.541 29.1625 25.5179 29.1146 25.4947 29.0683C25.4716 29.0221 25.4485 28.9774 25.4253 28.9345C25.4055 28.8882 25.3857 28.8486 25.3658 28.8155L25.5245 28.761C25.5476 28.8007 25.5707 28.8469 25.5939 28.8998C25.6203 28.9494 25.6451 29.0006 25.6682 29.0535C25.6946 29.1063 25.7194 29.1575 25.7426 29.2071C25.7657 29.2567 25.7855 29.3013 25.802 29.341H27.5369V30.0845H27.3635V29.4897H23.8193V30.1093H23.6458V29.341H25.6236ZM24.1663 32.2952H25.4997V31.7054H24.1663V32.2952ZM25.6682 31.7054V32.2952H26.9966V31.7054H25.6682ZM26.9768 30.0399C27.066 30.1192 27.185 30.2464 27.3337 30.4215C27.4097 30.5042 27.4742 30.5802 27.527 30.6496C27.5832 30.7157 27.6295 30.7751 27.6658 30.828L27.5419 30.9321C27.5056 30.8792 27.4593 30.8197 27.4031 30.7537C27.3502 30.6843 27.2875 30.6083 27.2148 30.5256C27.0693 30.3571 26.9504 30.2282 26.8579 30.139L26.9768 30.0399ZM23.6111 30.709C23.7103 30.6033 23.811 30.4794 23.9135 30.3373C24.0159 30.1919 24.1051 30.0547 24.1812 29.9259L24.3051 30.0002C24.2225 30.1489 24.1299 30.2927 24.0275 30.4315C23.9284 30.5703 23.8292 30.6942 23.7301 30.8032L23.6111 30.709ZM25.2518 29.5392C25.2948 29.569 25.3444 29.6053 25.4005 29.6483C25.4567 29.6912 25.5129 29.7375 25.5691 29.7871C25.6286 29.8333 25.6831 29.8796 25.7326 29.9259C25.7822 29.9721 25.8252 30.0134 25.8615 30.0498L25.7624 30.1638C25.7227 30.1241 25.6781 30.0828 25.6286 30.0399C25.579 29.9936 25.5261 29.9473 25.4699 29.9011C25.4171 29.8515 25.3625 29.8052 25.3064 29.7623C25.2535 29.7193 25.2039 29.6813 25.1577 29.6483L25.2518 29.5392ZM29.9955 33.1329C30.0848 33.1396 30.1773 33.1445 30.2731 33.1478C30.369 33.1511 30.4598 33.1511 30.5458 33.1478C30.6383 33.1445 30.7126 33.1379 30.7688 33.128C30.825 33.1214 30.868 33.1016 30.8977 33.0685C30.9307 33.0388 30.9522 32.9925 30.9621 32.9297C30.972 32.8669 30.977 32.7777 30.977 32.662V28.9147H31.1604V32.7017C31.1604 32.8207 31.1538 32.9182 31.1406 32.9942C31.1307 33.0702 31.1092 33.1313 31.0761 33.1776C31.0431 33.2238 30.9952 33.2569 30.9324 33.2767C30.8696 33.2998 30.7886 33.3164 30.6895 33.3263C30.5871 33.3395 30.4764 33.3461 30.3574 33.3461C30.2417 33.3494 30.1327 33.3511 30.0302 33.3511L29.9955 33.1329ZM32.0626 29.8366C32.1617 29.9886 32.2691 30.1754 32.3848 30.3968C32.5004 30.6182 32.6243 30.871 32.7565 31.1552C32.8887 31.4361 33.0027 31.6922 33.0985 31.9235C33.1944 32.1515 33.2704 32.3547 33.3266 32.5332L33.1531 32.6224C33.0969 32.4406 33.0209 32.2358 32.9251 32.0077C32.8292 31.7764 32.7152 31.5187 32.583 31.2345C32.322 30.6694 32.094 30.2315 31.899 29.9209L32.0626 29.8366ZM28.7415 32.5233C28.953 32.1465 29.1562 31.707 29.3512 31.2047C29.447 30.9536 29.5313 30.714 29.604 30.486C29.6767 30.258 29.7394 30.0399 29.7923 29.8317L29.9807 29.8812C29.9245 30.1027 29.8568 30.3274 29.7774 30.5554C29.7014 30.7834 29.6139 31.0246 29.5147 31.2791C29.3198 31.7847 29.1165 32.2308 28.905 32.6174L28.7415 32.5233ZM37.183 28.8552V29.3558H38.6403V29.5045H37.183V29.9606H38.1892V32.325H38.7741V32.4836H35.5076V32.325H36.0181V29.9606H37.0194V29.5045H35.8149V29.3558H37.0194V28.8552H37.183ZM34.7541 33.237C34.7938 33.2073 34.8169 33.1776 34.8235 33.1478C34.8334 33.1214 34.8384 33.0949 34.8384 33.0685V31.6112H34.2783V31.4476H34.8384V30.6099H34.4567V30.4562H35.691V30.6099H35.002V31.4476H35.7455V31.6112H35.002V33.0636C35.035 33.0404 35.0747 33.0107 35.1209 32.9743C35.1705 32.9413 35.2201 32.9033 35.2696 32.8603C35.3192 32.8174 35.3688 32.7744 35.4184 32.7314C35.4712 32.6852 35.5191 32.6389 35.5621 32.5927L35.6216 32.7562C35.4861 32.8719 35.3539 32.9793 35.225 33.0784C35.0995 33.1776 34.9689 33.2734 34.8334 33.3659L34.7541 33.237ZM36.1768 30.5653H38.0306V30.0994H36.1768V30.5653ZM36.1768 31.7252H38.0306V31.2642H36.1768V31.7252ZM36.1768 32.325H38.0306V31.8689H36.1768V32.325ZM36.1768 31.1254H38.0306V30.6942H36.1768V31.1254ZM34.1891 30.4166C34.275 30.3009 34.3559 30.177 34.4319 30.0448C34.5079 29.9093 34.5773 29.7722 34.6401 29.6334C34.7062 29.488 34.764 29.3492 34.8136 29.217C34.8665 29.0815 34.9078 28.9609 34.9375 28.8552L35.1011 28.8849C35.0747 28.9841 35.0383 29.0931 34.9921 29.2121C34.9491 29.331 34.8995 29.4533 34.8434 29.5789H35.7653V29.7325H34.774C34.7079 29.8746 34.6352 30.0134 34.5559 30.1489C34.4799 30.2811 34.4038 30.4001 34.3278 30.5058L34.1891 30.4166ZM35.3985 33.3461C35.6563 33.2403 35.8909 33.1296 36.1024 33.014C36.3139 32.8983 36.4956 32.7827 36.6477 32.667L36.7369 32.7959C36.5816 32.9082 36.3965 33.0239 36.1817 33.1429C35.9669 33.2618 35.7306 33.3775 35.4729 33.4898L35.3985 33.3461ZM37.4953 32.7067C37.5746 32.7331 37.6655 32.7694 37.7679 32.8157C37.8736 32.8587 37.9926 32.9099 38.1248 32.9694C38.257 33.0322 38.3726 33.0916 38.4718 33.1478C38.5742 33.204 38.6634 33.2569 38.7394 33.3064L38.6651 33.4551C38.5164 33.356 38.3132 33.242 38.0554 33.1131C37.791 32.9809 37.5828 32.8934 37.4308 32.8504L37.4953 32.7067Z" fill="#221816"/>
    <path d="M18.3472 36.1323C18.4589 36.1323 18.5502 36.1591 18.621 36.2126C18.6934 36.2645 18.7374 36.329 18.7532 36.4062L18.6635 36.4463C18.6524 36.3786 18.6202 36.3251 18.5667 36.2858C18.5148 36.2464 18.4432 36.2268 18.3519 36.2268C18.2653 36.2268 18.189 36.2512 18.1229 36.2999C18.0568 36.3487 18.0057 36.418 17.9695 36.5077C17.9333 36.5958 17.9152 36.6988 17.9152 36.8169C17.9152 36.9333 17.9333 37.0364 17.9695 37.1261C18.0073 37.2158 18.0592 37.285 18.1253 37.3338C18.1914 37.3826 18.2669 37.407 18.3519 37.407C18.4416 37.407 18.5124 37.3881 18.5643 37.3503C18.6178 37.3126 18.6509 37.2583 18.6635 37.1875L18.7532 37.2276C18.7374 37.3031 18.6934 37.3668 18.621 37.4188C18.5486 37.4723 18.4573 37.499 18.3472 37.499C18.2417 37.499 18.1481 37.4699 18.0663 37.4117C17.986 37.3535 17.9231 37.2724 17.8774 37.1686C17.8334 37.0647 17.8113 36.9475 17.8113 36.8169C17.8113 36.6847 17.8334 36.5667 17.8774 36.4628C17.9231 36.3589 17.986 36.2779 18.0663 36.2197C18.1481 36.1615 18.2417 36.1323 18.3472 36.1323ZM20.2785 37.1591C20.2785 37.2913 20.2808 37.3967 20.2856 37.4754H20.1982C20.1919 37.4203 20.1872 37.3157 20.1841 37.1615C20.1447 37.2685 20.0865 37.3511 20.0094 37.4093C19.9323 37.4691 19.8402 37.499 19.7332 37.499C19.6294 37.499 19.5373 37.4699 19.4571 37.4117C19.3784 37.355 19.317 37.2756 19.2729 37.1733C19.2289 37.0694 19.2068 36.9506 19.2068 36.8169C19.2068 36.6831 19.2289 36.5643 19.2729 36.4604C19.317 36.3566 19.3784 36.2763 19.4571 36.2197C19.5373 36.1615 19.6294 36.1323 19.7332 36.1323C19.8402 36.1323 19.9323 36.1622 20.0094 36.222C20.0865 36.2818 20.1447 36.3645 20.1841 36.4699C20.1872 36.3157 20.1919 36.211 20.1982 36.156H20.2856C20.2808 36.2331 20.2785 36.3385 20.2785 36.4722V37.1591ZM20.1817 36.8169C20.1817 36.7004 20.1628 36.5973 20.125 36.5077C20.0889 36.418 20.0377 36.3487 19.9716 36.2999C19.9055 36.2512 19.83 36.2268 19.745 36.2268C19.66 36.2268 19.5845 36.2519 19.5184 36.3023C19.4539 36.3511 19.4028 36.4203 19.365 36.51C19.3288 36.5981 19.3107 36.7004 19.3107 36.8169C19.3107 36.9317 19.3288 37.034 19.365 37.1237C19.4028 37.2118 19.4547 37.2811 19.5208 37.3314C19.5869 37.3802 19.6616 37.4046 19.745 37.4046C19.83 37.4046 19.9055 37.3802 19.9716 37.3314C20.0377 37.2811 20.0889 37.2118 20.125 37.1237C20.1628 37.034 20.1817 36.9317 20.1817 36.8169ZM20.9441 35.7004C20.974 35.7004 20.9968 35.709 21.0126 35.7264C21.0283 35.7421 21.0362 35.7641 21.0362 35.7924C21.0362 35.8223 21.0283 35.8452 21.0126 35.8609C20.9968 35.8766 20.974 35.8845 20.9441 35.8845C20.9158 35.8845 20.893 35.8766 20.8757 35.8609C20.8599 35.8436 20.8521 35.8208 20.8521 35.7924C20.8521 35.7641 20.8607 35.7421 20.878 35.7264C20.8953 35.709 20.9174 35.7004 20.9441 35.7004ZM20.9961 36.156V37.4754H20.8922V36.156H20.9961ZM24.2531 36.5407V37.4754H24.1516V36.5549C24.1516 36.4416 24.1264 36.3589 24.0761 36.307C24.0273 36.2535 23.9502 36.2268 23.8447 36.2268C23.7692 36.2268 23.7008 36.2464 23.6394 36.2858C23.5796 36.3251 23.5324 36.3802 23.4978 36.451C23.4647 36.5218 23.4482 36.6021 23.4482 36.6918V37.4754H23.3491V36.5549C23.3491 36.4431 23.3231 36.3605 23.2712 36.307C23.2192 36.2535 23.1406 36.2268 23.0351 36.2268C22.9596 36.2268 22.8911 36.2464 22.8298 36.2858C22.77 36.3251 22.7228 36.3802 22.6881 36.451C22.6551 36.5218 22.6386 36.6021 22.6386 36.6918V37.4754H22.5394V36.4722C22.5394 36.3385 22.5371 36.2331 22.5324 36.156H22.6173C22.622 36.2032 22.626 36.2889 22.6291 36.4132C22.6685 36.322 22.7243 36.2527 22.7967 36.2055C22.8691 36.1567 22.9557 36.1323 23.0564 36.1323C23.1571 36.1323 23.2405 36.1575 23.3066 36.2079C23.3727 36.2567 23.4159 36.3267 23.4364 36.418C23.4757 36.3251 23.5308 36.2543 23.6016 36.2055C23.6724 36.1567 23.7582 36.1323 23.8589 36.1323C23.9832 36.1323 24.08 36.1685 24.1492 36.2409C24.2185 36.3117 24.2531 36.4117 24.2531 36.5407ZM24.9116 35.7004C24.9415 35.7004 24.9644 35.709 24.9801 35.7264C24.9958 35.7421 25.0037 35.7641 25.0037 35.7924C25.0037 35.8223 24.9958 35.8452 24.9801 35.8609C24.9644 35.8766 24.9415 35.8845 24.9116 35.8845C24.8833 35.8845 24.8605 35.8766 24.8432 35.8609C24.8275 35.8436 24.8196 35.8208 24.8196 35.7924C24.8196 35.7641 24.8282 35.7421 24.8456 35.7264C24.8629 35.709 24.8849 35.7004 24.9116 35.7004ZM24.9636 36.156V37.4754H24.8597V36.156H24.9636ZM27.3355 37.4754L26.9342 36.883L26.5282 37.4754H26.4125L26.8846 36.8074L26.4243 36.156H26.5494L26.9413 36.7272L27.3355 36.156H27.4464L26.9908 36.8074L27.4606 37.4754H27.3355ZM28.0309 35.7004C28.0608 35.7004 28.0836 35.709 28.0993 35.7264C28.1151 35.7421 28.1229 35.7641 28.1229 35.7924C28.1229 35.8223 28.1151 35.8452 28.0993 35.8609C28.0836 35.8766 28.0608 35.8845 28.0309 35.8845C28.0026 35.8845 27.9797 35.8766 27.9624 35.8609C27.9467 35.8436 27.9388 35.8208 27.9388 35.7924C27.9388 35.7641 27.9475 35.7421 27.9648 35.7264C27.9821 35.709 28.0041 35.7004 28.0309 35.7004ZM28.0828 36.156V37.4754H27.979V36.156H28.0828ZM29.7137 37.1591C29.7137 37.2913 29.716 37.3967 29.7207 37.4754H29.6334C29.6271 37.4203 29.6224 37.3157 29.6192 37.1615C29.5799 37.2685 29.5217 37.3511 29.4446 37.4093C29.3675 37.4691 29.2754 37.499 29.1684 37.499C29.0645 37.499 28.9725 37.4699 28.8922 37.4117C28.8136 37.355 28.7522 37.2756 28.7081 37.1733C28.6641 37.0694 28.642 36.9506 28.642 36.8169C28.642 36.6831 28.6641 36.5643 28.7081 36.4604C28.7522 36.3566 28.8136 36.2763 28.8922 36.2197C28.9725 36.1615 29.0645 36.1323 29.1684 36.1323C29.2754 36.1323 29.3675 36.1622 29.4446 36.222C29.5217 36.2818 29.5799 36.3645 29.6192 36.4699C29.6224 36.3157 29.6271 36.211 29.6334 36.156H29.7207C29.716 36.2331 29.7137 36.3385 29.7137 36.4722V37.1591ZM29.6169 36.8169C29.6169 36.7004 29.598 36.5973 29.5602 36.5077C29.524 36.418 29.4729 36.3487 29.4068 36.2999C29.3407 36.2512 29.2652 36.2268 29.1802 36.2268C29.0952 36.2268 29.0197 36.2519 28.9536 36.3023C28.8891 36.3511 28.8379 36.4203 28.8002 36.51C28.764 36.5981 28.7459 36.7004 28.7459 36.8169C28.7459 36.9317 28.764 37.034 28.8002 37.1237C28.8379 37.2118 28.8899 37.2811 28.956 37.3314C29.0221 37.3802 29.0968 37.4046 29.1802 37.4046C29.2652 37.4046 29.3407 37.3802 29.4068 37.3314C29.4729 37.2811 29.524 37.2118 29.5602 37.1237C29.598 37.034 29.6169 36.9317 29.6169 36.8169ZM30.79 36.1323C30.8955 36.1323 30.9883 36.1615 31.0686 36.2197C31.1504 36.2779 31.2133 36.3589 31.2574 36.4628C31.303 36.5667 31.3258 36.6847 31.3258 36.8169C31.3258 36.949 31.303 37.0671 31.2574 37.1709C31.2133 37.2732 31.1504 37.3535 31.0686 37.4117C30.9883 37.4699 30.8955 37.499 30.79 37.499C30.6846 37.499 30.591 37.4699 30.5091 37.4117C30.4289 37.3535 30.3659 37.2724 30.3203 37.1686C30.2762 37.0647 30.2542 36.9475 30.2542 36.8169C30.2542 36.6847 30.2762 36.5667 30.3203 36.4628C30.3659 36.3589 30.4289 36.2779 30.5091 36.2197C30.591 36.1615 30.6846 36.1323 30.79 36.1323ZM30.79 36.2268C30.705 36.2268 30.6295 36.2512 30.5634 36.2999C30.4989 36.3487 30.4485 36.418 30.4124 36.5077C30.3762 36.5973 30.3581 36.7004 30.3581 36.8169C30.3581 36.9333 30.3762 37.0364 30.4124 37.1261C30.4485 37.2142 30.4989 37.2827 30.5634 37.3314C30.6295 37.3802 30.705 37.4046 30.79 37.4046C30.875 37.4046 30.9505 37.3802 31.0166 37.3314C31.0827 37.2827 31.1339 37.2142 31.17 37.1261C31.2078 37.0364 31.2267 36.9333 31.2267 36.8169C31.2267 36.7004 31.2078 36.5973 31.17 36.5077C31.1339 36.418 31.0827 36.3487 31.0166 36.2999C30.9505 36.2512 30.875 36.2268 30.79 36.2268ZM33.7488 37.3786V37.4754H32.748V37.407L33.5907 36.2504H32.7693V36.156H33.7347V36.222L32.8967 37.3786H33.7488ZM35.307 36.5903V37.4754H35.2102V36.6044C35.2102 36.4754 35.1811 36.3802 35.1229 36.3188C35.0647 36.2574 34.9742 36.2268 34.8515 36.2268C34.7633 36.2268 34.6847 36.2488 34.6154 36.2929C34.5462 36.3369 34.4919 36.3991 34.4525 36.4793C34.4148 36.5596 34.3959 36.6509 34.3959 36.7531V37.4754H34.2944V35.5753H34.3959V36.4345C34.44 36.3338 34.5013 36.2582 34.58 36.2079C34.6603 36.1575 34.757 36.1323 34.8703 36.1323C35.0088 36.1323 35.1158 36.1725 35.1914 36.2527C35.2685 36.333 35.307 36.4455 35.307 36.5903ZM36.8983 36.8169H35.9424C35.9424 36.9994 35.9849 37.1434 36.0698 37.2488C36.1548 37.3527 36.2713 37.4046 36.4192 37.4046C36.5167 37.4046 36.5931 37.3849 36.6481 37.3456C36.7048 37.3063 36.752 37.2394 36.7898 37.145L36.8747 37.1851C36.8385 37.2921 36.7827 37.3708 36.7071 37.4211C36.6316 37.4731 36.5348 37.499 36.4168 37.499C36.3019 37.499 36.2004 37.4715 36.1123 37.4164C36.0258 37.3613 35.9581 37.2827 35.9093 37.1804C35.8621 37.0765 35.8385 36.9553 35.8385 36.8169C35.8385 36.6815 35.8613 36.5627 35.907 36.4604C35.9526 36.3566 36.0155 36.2763 36.0958 36.2197C36.1776 36.1615 36.2705 36.1323 36.3743 36.1323C36.538 36.1323 36.6662 36.1921 36.7591 36.3117C36.8519 36.4313 36.8983 36.5942 36.8983 36.8003V36.8169ZM35.9471 36.7224H36.7968C36.7842 36.5635 36.7418 36.4416 36.6694 36.3566C36.597 36.27 36.4986 36.2268 36.3743 36.2268C36.2579 36.2268 36.1611 36.2716 36.084 36.3613C36.0069 36.451 35.9613 36.5714 35.9471 36.7224ZM38.4507 36.5903V37.4754H38.3539V36.6044C38.3539 36.4754 38.3248 36.3802 38.2666 36.3188C38.2084 36.2574 38.1179 36.2268 37.9951 36.2268C37.907 36.2268 37.8283 36.2488 37.7591 36.2929C37.6899 36.3369 37.6356 36.3991 37.5962 36.4793C37.5585 36.5596 37.5396 36.6509 37.5396 36.7531V37.4754H37.4381V36.4722C37.4381 36.3385 37.4357 36.2331 37.431 36.156H37.516C37.5223 36.2079 37.527 36.307 37.5301 36.4534C37.5742 36.3479 37.6364 36.2685 37.7166 36.215C37.7984 36.1599 37.8976 36.1323 38.014 36.1323C38.1525 36.1323 38.2595 36.1725 38.335 36.2527C38.4121 36.333 38.4507 36.4455 38.4507 36.5903Z" fill="#221816"/>
  </g>
  <defs>
    <clipPath id="clip0_621_4526">
      <path fill="#fff" d="M0 0H56V48H0z"/>
    </clipPath>
  </defs>
</svg>
