<svg xmlns="http://www.w3.org/2000/svg" fill="none" viewBox="0 0 28 28" class="design-iconfont">
  <path d="M1.75 4.08341H3.5C3.85408 4.08341 4.19592 4.38325 4.24317 4.73908L6.26733 19.9157C6.39042 20.8443 7.22925 21.5834 8.16083 21.5834H23.9167V20.4167H8.16142C7.81608 20.4167 7.47017 20.1122 7.4235 19.7611L5.39933 4.58508C5.27567 3.64941 4.43917 2.91675 3.5 2.91675H1.75V4.08341Z" fill="#3C84CD"/>
  <path d="M7.58337 5.25L8.75004 18.0833C8.75004 18.238 8.8115 18.3864 8.92089 18.4958C9.03029 18.6052 9.17866 18.6667 9.33337 18.6667H22.1638C23.1 18.6667 23.943 17.9375 24.0754 17.0135L25.4964 7.06825C25.637 6.08242 24.9177 5.25 23.9214 5.25H7.58337Z" fill="#3C84CD"/>
  <path d="M7 24.5001C6.99998 24.6533 7.03014 24.805 7.08876 24.9466C7.14738 25.0882 7.23331 25.2168 7.34165 25.3252C7.44998 25.4335 7.5786 25.5195 7.72016 25.5781C7.86172 25.6368 8.01344 25.6669 8.16667 25.6669C8.31989 25.6669 8.47161 25.6368 8.61317 25.5781C8.75473 25.5195 8.88335 25.4335 8.99169 25.3252C9.10002 25.2168 9.18596 25.0882 9.24458 24.9466C9.3032 24.805 9.33336 24.6533 9.33333 24.5001C9.33336 24.3469 9.3032 24.1951 9.24458 24.0536C9.18596 23.912 9.10002 23.7834 8.99169 23.675C8.88335 23.5667 8.75473 23.4807 8.61317 23.4221C8.47161 23.3634 8.31989 23.3333 8.16667 23.3333C8.01344 23.3333 7.86172 23.3634 7.72016 23.4221C7.5786 23.4807 7.44998 23.5667 7.34165 23.675C7.23331 23.7834 7.14738 23.912 7.08876 24.0536C7.03014 24.1951 6.99998 24.3469 7 24.5001V24.5001Z" fill="#3C84CD"/>
  <path d="M21 24.5001C21 24.6533 21.0301 24.805 21.0888 24.9466C21.1474 25.0882 21.2333 25.2168 21.3416 25.3252C21.45 25.4335 21.5786 25.5195 21.7202 25.5781C21.8617 25.6368 22.0134 25.6669 22.1667 25.6669C22.3199 25.6669 22.4716 25.6368 22.6132 25.5781C22.7547 25.5195 22.8834 25.4335 22.9917 25.3252C23.1 25.2168 23.186 25.0882 23.2446 24.9466C23.3032 24.805 23.3334 24.6533 23.3333 24.5001C23.3334 24.3469 23.3032 24.1951 23.2446 24.0536C23.186 23.912 23.1 23.7834 22.9917 23.675C22.8834 23.5667 22.7547 23.4807 22.6132 23.4221C22.4716 23.3634 22.3199 23.3333 22.1667 23.3333C22.0134 23.3333 21.8617 23.3634 21.7202 23.4221C21.5786 23.4807 21.45 23.5667 21.3416 23.675C21.2333 23.7834 21.1474 23.912 21.0888 24.0536C21.0301 24.1951 21 24.3469 21 24.5001V24.5001Z" fill="#3C84CD"/>
</svg>
