<svg xmlns="http://www.w3.org/2000/svg" fill="none" viewBox="0 0 136 39" class="design-iconfont">
  <path fill-rule="evenodd" clip-rule="evenodd" d="M0 0L12.9615 17.5011L25.9231 0V38.0484H0V0ZM56.8635 13.081H57.2816C57.2816 16.4856 56.5051 19.1138 54.8327 20.9654C55.5494 21.2641 56.3259 21.5627 57.2816 21.7419V23.8325C55.43 23.713 53.9367 23.2949 52.6824 22.6379C51.428 23.2949 49.875 23.713 48.0234 23.8325V21.7419C48.9791 21.5627 49.7556 21.3238 50.4723 20.9654C48.7999 19.1735 48.0234 16.4856 48.0234 13.081C50.9502 13.081 53.9367 13.081 56.8635 13.081ZM52.6226 19.3527C53.5186 18.3373 53.9964 17.0232 54.2353 15.4105H51.0099C51.2488 17.0829 51.7864 18.3373 52.6226 19.3527ZM57.2816 1.73219C54.1756 1.73219 51.1294 1.73219 48.0234 1.73219V12.4837C49.5764 11.8864 50.8904 10.5126 50.8904 8.54147V4.12141H54.4145V8.54147C54.4145 10.5126 55.7286 11.8864 57.2816 12.4837V1.73219ZM38.1678 10.6918H39.0638V9.67635H41.9309V10.6918H42.8865V9.67635H45.7536V10.6918H46.9482V13.081H45.7536V15.4105H46.9482V17.7997H37.8692C37.6303 19.7708 37.2121 21.7419 36.794 23.7728H33.6283C35.4202 16.0675 34.9424 9.55689 34.9424 1.73219C38.9443 1.73219 42.8865 1.73219 46.8885 1.73219V8.84013C44.2603 8.84013 41.6322 8.84013 38.9443 8.84013V6.4509H44.0214V4.06168H38.1081L38.1678 10.6918ZM42.8865 13.081H41.9309V15.4105H42.8865V13.081ZM39.0638 13.081H38.1678V13.738C38.1678 14.2756 38.1678 14.8729 38.1081 15.4105H39.0638V13.081ZM46.9482 23.7728H44.0214L42.4684 18.6957H45.3952C45.3952 18.7554 46.9482 23.7728 46.9482 23.7728ZM37.2121 23.7728H40.1389L41.8114 18.7554H38.8846L37.2121 23.7728ZM96.4649 1.73219H100.168V2.9268C102.975 2.9268 105.783 2.9268 108.59 2.9268V7.10794H104.887V5.19656H91.8059V7.10794H88.1026C88.1026 5.67441 88.1026 4.3006 88.1026 2.9268C90.9099 2.9268 93.7172 2.9268 96.5246 2.9268V1.73219H96.4649ZM96.4649 20.1889L92.4629 23.8325H88.1026L96.4649 16.5454V15.1118L88.1026 22.2198V18.5165L96.4649 11.4085V10.0945L88.0428 17.2621V13.5588L91.9253 10.2737H88.0428V7.94417C92.1045 7.94417 96.1065 7.94417 100.168 7.94417V23.7728H96.4649C96.4649 23.7728 96.4649 20.1889 96.4649 20.1889ZM101.482 23.7728V7.88443H108.65V10.2139H105.245V21.4433H108.65V23.7728H101.482ZM134.394 23.8325H129.795L127.107 19.1735H122.149L119.461 23.7728H114.862L117.55 19.1735H113.727V16.4856H116.236V1.73219C121.791 1.73219 127.405 1.73219 132.96 1.73219V16.4856H135.708V19.1735H131.766L134.394 23.8325ZM121.791 15.4105V12.7226H128.54V11.5877H121.791V8.95959H128.54V7.8247H121.791V5.13683H128.54V4.36033H120.656V16.4259H128.54V15.4105H121.791ZM80.2779 1.73219H76.1565L75.8578 2.86707H69.168L68.8693 1.73219H64.7479L65.0466 2.86707H62.06V5.55495C64.8077 5.55495 67.4955 5.55495 70.2431 5.55495V15.1716H62.06V17.8594H69.5264C68.3915 20.0695 65.9425 21.1446 62.06 21.1446V23.8325C67.0774 23.7728 70.5418 22.9365 72.5129 20.7862C74.484 22.9365 77.9484 23.8325 82.9657 23.8325V21.1446C79.0833 21.2044 76.5746 20.1292 75.4994 17.8594H82.9657V15.1716H74.7827C74.7827 14.6937 74.7827 14.2159 74.7827 13.6783H82.9657V10.9904H74.7827V9.55689H82.9657V6.86902H74.7827V5.55495H82.9657V2.86707H79.9792L80.2779 1.73219ZM62.06 13.6783V10.9904H69.0485V13.6783H62.06ZM62.06 9.55689V6.86902H69.0485V9.55689H62.06ZM131.586 31.6572H134.931V32.6726H131.586V34.7035C131.586 35.1216 131.706 35.241 132.064 35.241H134.931V36.2565H129.317V35.241C129.795 35.241 130.272 35.3605 130.272 34.7035C130.272 33.031 130.272 31.3586 130.272 29.6861C130.272 28.9693 129.854 29.1485 129.317 29.1485V28.0734H134.931V29.0888H132.064C131.706 29.0888 131.586 29.2083 131.586 29.6264C131.586 29.6861 131.586 31.6572 131.586 31.6572ZM128.122 34.7632C128.242 35.1813 128.421 35.3008 128.779 35.3008H129.018V36.3162H126.031V35.3008C126.509 35.3008 126.868 35.4202 126.629 34.7632C126.45 34.2853 126.091 32.8518 125.733 32.7324H125.016V34.7632C125.016 35.3008 125.195 35.3008 125.613 35.3008V36.3162H122.687V35.3008C123.224 35.3008 123.642 35.4202 123.642 34.7632C123.642 33.031 123.642 31.3586 123.642 29.6264C123.642 28.9096 123.224 29.0888 122.687 29.0888V28.0734L127.346 28.0136C129.556 28.0136 129.317 32.4337 127.644 32.6726C127.525 32.7324 127.525 32.9115 127.644 33.2102C128.003 34.5243 127.704 33.5686 128.122 34.7632ZM124.956 31.5975C125.255 31.5975 126.569 31.6572 126.808 31.478C127.584 31.0002 127.525 29.0888 126.45 29.0888C125.793 29.0888 124.956 28.8499 124.956 29.6264V31.5975ZM112.532 34.7035C112.532 35.3605 113.01 35.241 113.488 35.241V36.2565H110.203V35.241C110.74 35.241 111.159 35.3605 111.159 34.7035C111.159 33.031 111.159 31.3586 111.159 29.6861C111.159 29.268 111.039 29.1485 110.681 29.1485H109.128V28.0734H114.324V29.0888H112.891C112.592 29.0888 112.473 29.2083 112.473 29.6264C112.532 31.3586 112.532 33.031 112.532 34.7035ZM107.814 34.7035C107.814 35.3605 108.232 35.241 108.769 35.241V36.2565H105.544V35.241C106.022 35.241 106.5 35.3605 106.5 34.7035C106.5 33.031 106.5 31.3586 106.5 29.6861C106.5 28.9693 106.081 29.1485 105.544 29.1485V28.0734H108.829V29.0888C108.292 29.0888 107.873 28.9693 107.873 29.6264C107.814 31.3586 107.814 33.031 107.814 34.7035ZM103.274 33.031V29.7458C103.274 29.0888 102.916 29.1485 102.378 29.1485V28.1331H104.947V29.1485C104.469 29.1485 104.17 29.0888 104.17 29.7458V36.2565H103.155L99.8695 30.5821V34.7035C99.8695 35.4202 100.288 35.3008 100.765 35.3008V36.2565H98.0776V35.3008C98.5554 35.3008 98.9735 35.4202 98.9735 34.7035V29.7458C98.9735 29.3277 98.8541 29.1485 98.4957 29.1485H98.0776V28.1331H100.407L103.274 33.031ZM96.8232 34.7632C97.0024 35.3008 97.1816 35.3008 97.7192 35.3008V36.3162H94.7327V35.3008C95.2105 35.3008 95.5689 35.4202 95.33 34.7632C95.1508 34.2853 94.7924 32.8518 94.434 32.7324H93.7172V34.7632C93.7172 35.3008 93.8964 35.3008 94.3145 35.3008V36.3162H91.3878V35.3008C91.9253 35.3008 92.3434 35.4202 92.3434 34.7632C92.3434 33.031 92.3434 31.3586 92.3434 29.6264C92.3434 28.9693 91.9253 29.0888 91.3878 29.0888V28.0734L96.0467 28.0136C98.2568 28.0136 98.0179 32.4337 96.3454 32.6726C96.2259 32.7324 96.2259 32.9115 96.3454 33.2102C96.7038 34.5243 96.4051 33.5686 96.8232 34.7632ZM93.6575 31.4183V31.6572C93.9562 31.6572 95.2702 31.7169 95.5092 31.5377C96.2857 31.0599 96.2259 29.1485 95.1508 29.1485C94.4937 29.1485 93.6575 28.9096 93.6575 29.6861V31.4183ZM85.7731 32.7921C85.7731 36.3162 88.6999 36.1967 88.6999 32.7921V29.6861C88.6999 28.9693 88.2818 29.1485 87.7442 29.1485V28.0734H91.0294V29.0888C90.4918 29.0888 90.0737 28.9693 90.0737 29.6264V33.031C90.0737 37.5705 84.3993 37.2122 84.3993 33.031V29.6264C84.3993 28.9096 83.9812 29.0888 83.4436 29.0888V28.0734H86.7288V29.0888C86.1912 29.0888 85.7731 28.9693 85.7731 29.6264V32.7921ZM79.5611 31.6572H83.2644V32.6726H79.5611V36.2565H77.2913V35.241C77.8289 35.241 78.247 35.3605 78.247 34.7035C78.247 33.031 78.247 31.3586 78.247 29.6861C78.247 28.9693 77.8289 29.1485 77.2913 29.1485V28.0734H83.2644V29.0888H80.0389C79.7403 29.0888 79.6208 29.2083 79.6208 29.6264C79.5611 29.6861 79.5611 31.6572 79.5611 31.6572ZM117.072 32.7921C117.072 36.3162 119.999 36.1967 119.999 32.7921V29.6861C119.999 28.9693 119.581 29.1485 119.043 29.1485V28.0734H122.328V29.0888C121.791 29.0888 121.372 28.9693 121.372 29.6264V33.031C121.372 37.5705 115.698 37.2122 115.698 33.031V29.6264C115.698 28.9096 115.28 29.0888 114.742 29.0888V28.0734H118.028V29.0888C117.49 29.0888 117.072 28.9693 117.072 29.6264V32.7921ZM74.484 34.7632C74.484 35.4202 74.9021 35.3008 75.4397 35.3008V36.3162H72.1545V35.3008C72.6324 35.3008 73.1102 35.4202 73.1102 34.7632C73.1102 33.0907 73.1102 31.4183 73.1102 29.7458C73.1102 29.0291 72.6921 29.2083 72.1545 29.2083V28.1928H75.4397V29.2083C74.9021 29.2083 74.484 29.0888 74.484 29.7458C74.484 31.3586 74.484 33.0907 74.484 34.7632ZM68.5707 31.7169H71.9156V32.7324H68.5707V34.7632C68.5707 35.1813 68.6901 35.3008 69.0485 35.3008H71.9156V36.3162H66.3009V35.3008C66.7788 35.3008 67.2566 35.4202 67.2566 34.7632C67.2566 33.0907 67.2566 31.4183 67.2566 29.7458C67.2566 29.0291 66.8385 29.2083 66.3009 29.2083V28.1928H71.9156V29.2083H69.0485C68.6901 29.2083 68.5707 29.3277 68.5707 29.7458V31.7169ZM62.299 34.584L64.1506 30.6418V34.7632C64.1506 35.48 63.7325 35.3605 63.2547 35.3605V36.3162H65.9425V35.3605C65.4647 35.3605 65.0466 35.48 65.0466 34.7632V29.8056C65.0466 29.0888 65.405 29.2083 65.9425 29.2083V28.1928H63.613L62.299 31.0599L60.9849 28.1928H58.6554V29.2083C59.193 29.2083 59.5514 29.0888 59.5514 29.8056V34.7632C59.5514 35.4202 59.1333 35.3605 58.6554 35.3605V36.3162H61.3433V35.3605C60.8057 35.3605 60.4473 35.48 60.4473 34.7632V30.6418L62.299 34.584ZM56.6246 33.031V29.7458C56.6246 29.0888 56.2662 29.1485 55.7286 29.1485V28.1331H58.297V29.1485C57.8192 29.1485 57.5205 29.0888 57.5205 29.7458V36.2565H56.5648L53.2797 30.5821V34.7035C53.2797 35.4202 53.6978 35.3008 54.1756 35.3008V36.2565H51.4877V35.3008C51.9656 35.3008 52.3837 35.4202 52.3837 34.7035V29.7458C52.3837 29.0291 52.0253 29.1485 51.4877 29.1485V28.1331H53.8172C53.8172 28.1928 56.6246 33.031 56.6246 33.031ZM46.4704 31.7169H48.4415L48.2623 29.7458C48.1428 28.9693 46.7093 28.9096 46.6496 29.7458L46.4704 31.7169ZM48.5012 32.7324H46.3509L46.1717 34.7632C46.112 35.3008 46.4704 35.3008 46.9482 35.3008V36.3162H43.7825V35.3008C44.3201 35.3008 44.7382 35.4202 44.7979 34.7632C44.9771 32.5532 45.216 30.3431 45.3952 28.1331C46.7093 28.1331 48.0831 28.1331 49.3972 28.1331C49.5764 29.8653 49.6958 31.5975 49.875 33.2699L49.9945 34.7632C50.1139 35.48 50.5321 35.3008 51.0696 35.3008V36.3162H47.7247V35.3008C48.2623 35.3008 48.7401 35.3605 48.6207 34.7632C48.7401 34.7632 48.5012 32.7324 48.5012 32.7324ZM42.5282 34.7632C42.5282 35.4202 42.9463 35.3008 43.4838 35.3008V36.3162H40.1987V35.3008C40.6765 35.3008 41.1544 35.4202 41.1544 34.7632C41.1544 33.0907 41.1544 31.4183 41.1544 29.7458C41.1544 29.0291 40.7362 29.2083 40.1987 29.2083V28.1928H43.4838V29.2083C42.9463 29.2083 42.5282 29.0888 42.5282 29.7458C42.5282 31.4183 42.5282 33.0907 42.5282 34.7632ZM38.1678 28.0734C41.3335 28.0734 41.1544 36.3162 38.5859 36.3162C37.2121 36.3162 35.7786 36.3162 34.4048 36.3162V35.3008H34.8826C35.241 35.3008 35.3605 35.1216 35.3605 34.7035C35.3605 33.031 35.3605 31.3586 35.3605 29.6861C35.3605 29.268 35.241 29.1485 34.8826 29.1485H34.4048V28.1331C35.6591 28.1331 36.9135 28.0734 38.1678 28.0734ZM36.9135 35.241H37.2121C39.7806 35.241 39.6014 29.1485 37.1524 29.1485C36.794 29.1485 36.6746 29.3277 36.6746 29.6861C36.6746 31.3586 36.6746 33.031 36.6746 34.7035C36.7343 35.0021 36.7343 35.1813 36.9135 35.241ZM21.5627 21.8017V13.977L12.9615 25.9231L4.3006 13.8575V21.6822L12.9615 33.3297L21.5627 21.8017Z" fill="#FA5151"/>
</svg>
