<svg xmlns="http://www.w3.org/2000/svg" fill="none" viewBox="0 0 28 28" class="design-iconfont">
  <path d="M19.8952 13.2234H14.7245V8.05268C14.7245 6.92885 15.0608 5.85698 15.6952 4.95463C16.2858 4.11518 17.1061 3.4562 18.0659 3.04877C18.9929 2.65502 19.9909 2.52651 20.9534 2.67417C21.9897 2.83276 22.9495 3.31674 23.7288 4.07143L23.8026 4.14526L23.8765 4.21909C24.6311 4.99838 25.1151 5.95815 25.2737 6.99448C25.4214 7.95424 25.2929 8.95502 24.8991 9.88198C24.4917 10.8417 23.8327 11.6621 22.9933 12.2527C22.0909 12.8898 21.019 13.2234 19.8952 13.2234ZM13.2397 13.2234H8.06904C6.94521 13.2234 5.87334 12.8871 4.97099 12.2527C4.13154 11.6621 3.47255 10.8417 3.06513 9.88198C2.67138 8.95502 2.54287 7.95698 2.69052 6.99721C2.84912 5.96088 3.3331 5.00112 4.08779 4.22182L4.16162 4.14799L4.23544 4.07417C5.01474 3.31948 5.97451 2.83549 7.01084 2.6769C7.9706 2.52924 8.97138 2.65776 9.89834 3.05151C10.8581 3.45893 11.6784 4.11792 12.269 4.95737C12.9034 5.85971 13.2397 6.93159 13.2397 8.05542V13.2234ZM7.79287 25.3175C7.53037 25.3175 7.2706 25.2984 7.01357 25.2574C5.97724 25.0988 5.01748 24.6148 4.23818 23.8601L4.16435 23.7863L4.09052 23.7124C3.33584 22.9331 2.85185 21.9734 2.69326 20.9371C2.5456 19.9773 2.67412 18.9765 3.06787 18.0496C3.47529 17.0898 4.13427 16.2695 4.97373 15.6789C5.87607 15.0445 6.94795 14.7082 8.07177 14.7082H13.2425V19.8789C13.2425 21.0027 12.9061 22.0746 12.2718 22.9769C11.6784 23.8164 10.8581 24.4781 9.89834 24.8828C9.22021 25.1699 8.5038 25.3175 7.79287 25.3175ZM20.1714 25.3175C19.4604 25.3175 18.744 25.1699 18.0659 24.8828C17.1061 24.4753 16.2858 23.8164 15.6952 22.9769C15.0608 22.0746 14.7245 21.0027 14.7245 19.8789V14.7109H19.8952C21.019 14.7109 22.0909 15.0472 22.9933 15.6816C23.8327 16.2722 24.4917 17.0925 24.8991 18.0523C25.2929 18.9792 25.4214 19.9773 25.2737 20.9398C25.1151 21.9761 24.6311 22.9359 23.8765 23.7152L23.8026 23.789L23.7288 23.8628C22.9495 24.6175 21.9897 25.1015 20.9534 25.2601C20.6936 25.2984 20.4339 25.3175 20.1714 25.3175Z" fill="url(#paint0_linear_621_4271)"/>
  <defs>
    <linearGradient id="paint0_linear_621_4271" x1="13.9821" y1="2.61475" x2="13.9821" y2="25.3175" gradientUnits="userSpaceOnUse">
      <stop stop-color="#68B8FF"/>
      <stop offset="1" stop-color="#0B8AFA"/>
    </linearGradient>
  </defs>
</svg>
