<svg xmlns="http://www.w3.org/2000/svg" fill="none" viewBox="0 0 38 48" class="design-iconfont">
  <path fill-rule="evenodd" clip-rule="evenodd" d="M22.6242 20.5093L22.6673 20.5429C22.8305 20.6614 22.8464 20.6306 22.9574 20.8023C23.3296 21.3788 24.513 22.3464 25.1278 22.4609C25.2423 22.4822 25.5796 22.4488 25.6591 22.3779L25.6164 22.3737C26.223 22.2382 26.8252 21.6675 27.149 21.2983C27.2124 21.226 27.2085 21.1811 27.3029 21.1655C27.5005 21.1329 27.6255 21.1402 27.8115 21.0783C28.1271 20.9733 28.3207 20.8228 28.4042 20.4974L28.377 20.7563C28.4401 20.7046 28.4193 20.6909 28.4575 20.6209C28.4468 21.2922 27.7304 21.3858 27.4615 21.4748C27.3525 21.5109 27.0484 21.9853 26.3741 22.2813C25.9803 22.4541 25.7909 22.4665 25.3251 22.4864C25.6209 22.6568 26.0405 22.7677 26.4375 22.8123C26.735 22.8457 26.8377 22.8462 27.0238 22.6825C27.1192 22.5986 27.2863 22.4175 27.349 22.2724C27.2962 22.1685 27.2127 22.139 27.145 22.044C27.2581 21.9743 27.4292 21.9503 27.5603 21.8946C27.9125 21.7452 28.398 21.3526 28.5094 21.065C28.6942 21.0686 29.3848 21.1517 29.4922 21.0676C29.5543 21.0189 29.8269 20.4712 29.8732 20.3531C29.7356 20.1334 29.6246 20.1917 29.158 20.0885C28.784 20.0057 27.9851 19.7957 27.6938 19.5911C27.5496 19.4898 27.3375 19.2472 27.2744 19.0199C27.3789 19.0788 27.4267 19.1532 27.5155 19.2212C27.5944 19.2816 27.6727 19.3571 27.7747 19.4186C28.2129 19.6825 29.3794 19.9169 29.8909 19.9666C30.4138 20.0175 30.7594 19.776 30.9471 19.2847C31.0724 18.9566 31.0638 18.4536 30.9171 18.1385C30.8458 17.9852 30.8018 17.9853 30.6442 18.0442C30.664 18.2686 30.7208 18.4192 30.7193 18.6851C30.7146 19.4723 30.4359 19.6884 30.295 19.1728C30.2429 18.9821 30.2175 18.7727 30.0993 18.6455C30.0172 18.7052 29.9371 18.8257 29.9012 18.9194C29.7202 18.8893 29.5426 18.7655 29.3766 18.7268C29.2191 18.69 29.0106 18.9322 28.8751 18.8638L28.4324 18.5754C28.027 18.309 27.4728 18.0066 27.0339 17.7863C26.6934 17.6154 26.325 17.4569 25.8848 17.5639C24.6167 17.872 23.9419 18.87 22.6321 18.591C21.9639 18.4486 20.426 17.3506 19.8715 16.9758C19.0197 16.4001 18.1515 15.7552 17.3146 15.155C17.035 14.9545 16.768 14.7502 16.4505 14.5596C15.9645 14.2679 15.4855 14.0107 14.8783 13.9427C14.5895 13.9103 14.4594 13.9607 14.2065 13.9767C14.1352 13.8881 14.0853 13.8475 14.0315 13.7549C14.7344 13.4797 15.6354 13.8837 16.138 14.1646C16.7201 14.4898 17.8404 15.3857 18.4697 15.8463C18.7225 16.0313 18.993 16.2156 19.2588 16.4027C19.5281 16.5923 19.7836 16.7711 20.0581 16.9488C20.187 17.0323 20.3268 17.1268 20.4574 17.2105C20.5737 17.2852 20.7542 17.4201 20.8697 17.4668C20.8173 16.7698 20.2692 15.5437 19.9581 15.0603C19.8525 14.8963 19.7493 14.7216 19.6441 14.554C19.4355 14.222 19.1482 13.879 18.9411 13.5907L18.6596 13.2564C18.5843 13.1604 18.5978 13.1683 18.5377 13.1509C18.5514 13.1058 18.5601 13.1127 18.5153 13.1266C18.4788 13.0413 18.1444 12.711 18.0588 12.6714C18.0728 12.6267 18.0805 12.6343 18.036 12.6484C18.052 12.6027 18.0567 12.613 18.0111 12.6288C18.0244 12.5844 18.0299 12.5946 17.9853 12.6083C17.9608 12.5372 17.6639 12.3006 17.6032 12.2843C17.6182 12.2382 17.6213 12.2513 17.5747 12.2663C17.54 12.1838 17.1892 11.9619 17.1219 11.9452L17.0631 11.8882C16.9971 11.8499 17.0344 11.8686 16.978 11.8611C16.9918 11.8152 16.995 11.8331 16.9389 11.831C16.9389 11.8887 16.9247 11.8802 16.978 11.8611C16.9814 11.8652 16.9873 11.8659 16.989 11.8728C16.9908 11.8798 16.9978 11.8823 17.0003 11.8844C17.0692 11.9421 17.0675 11.9343 17.1219 11.9452C17.1593 12.0129 17.5167 12.2521 17.5747 12.2663C17.5569 12.3144 17.5547 12.3005 17.6032 12.2843C17.636 12.3621 17.9454 12.5934 17.9853 12.6083C17.9709 12.6547 17.9652 12.6448 18.0111 12.6288C17.9978 12.6718 17.9927 12.6618 18.036 12.6484C18.0209 12.6933 18.0137 12.6853 18.0588 12.6714L18.0741 12.7019C18.0882 12.723 18.077 12.7121 18.1032 12.7413L18.5153 13.1266C18.4988 13.174 18.4903 13.1669 18.5377 13.1509C18.5542 13.2104 19.0756 13.8344 19.1667 13.9581C19.3681 14.2319 19.5522 14.5065 19.7467 14.8144C20.0246 15.2545 20.5337 16.1971 20.6594 16.7802C20.5898 16.3819 19.9635 15.3328 19.7515 15.0181C19.083 14.0258 18.1292 12.9273 17.1086 12.2764C16.6356 11.9747 16.303 11.8108 15.782 11.5958C15.7056 11.5642 15.3142 11.4363 15.2984 11.4231C14.8942 11.5009 14.5558 11.7404 14.0679 11.6257C12.9302 11.3583 13.4689 9.7347 11.9767 10.2559C11.8282 10.3078 11.5734 10.4347 11.4514 10.4603C10.8045 9.90177 10.4832 8.85303 10.9936 7.80589C11.3544 7.06581 11.9651 6.52999 12.817 6.45487C13.0878 6.43098 13.0124 6.4599 13.0279 6.48947C13.0691 6.56831 13.0277 6.5532 12.9619 6.58313C12.9553 6.58615 12.9483 6.58766 12.9422 6.5901C12.936 6.59249 12.9276 6.59473 12.9225 6.59654C12.9175 6.59833 12.9089 6.5993 12.903 6.60276L13.023 6.62073C12.8377 6.72493 12.6954 6.67465 12.2671 7.00449C11.8404 7.33311 11.5286 7.95289 11.4532 8.52307C11.4125 8.83082 11.4611 9.31613 11.6336 9.49537C12.2331 9.33296 12.8332 9.05523 13.4939 9.68909C13.6989 9.88583 13.8545 10.1069 14.0062 10.4078C14.2329 10.8576 14.2251 10.8653 14.7774 10.6921C16.1277 10.2688 17.7878 10.4665 18.9571 10.9948C19.6791 11.3209 21.3536 12.3766 22.0387 12.8366C22.1773 12.9297 22.277 13.0021 22.3988 13.0924C22.5967 13.2391 22.5403 13.2511 22.8103 13.1545C23.53 12.8971 24.4198 12.4364 24.9266 11.8718C25.0866 11.6936 25.0005 11.7386 25.1124 11.7416L25.0988 11.8028C25.1368 11.7811 25.1124 11.816 25.1543 11.7618C25.1317 11.7156 25.1668 11.7498 25.1124 11.7416C25.0625 11.6849 24.8478 11.6276 24.7413 11.587C23.8307 11.2399 23.054 10.9176 22.1669 10.4916C21.6878 10.2615 21.2396 10.0332 20.7879 9.77264C20.1358 9.39652 20.0697 9.31762 19.5143 8.94923C19.5006 8.69372 19.5171 8.37191 19.5156 8.10593C19.5151 8.01443 19.5322 7.76397 19.5185 7.69479C19.4995 7.59831 19.2092 7.34828 19.1175 7.24511C18.5861 6.64758 17.9592 5.60626 17.6262 4.92532L17.3352 4.33849C17.3611 4.4801 17.6574 5.06588 17.7282 5.21024C17.865 5.4892 18.0165 5.74641 18.1705 6.00047C18.3339 6.27002 18.6087 6.66801 18.8085 6.91447L19.0871 7.25199C19.2659 7.45147 19.2731 7.37025 19.2115 7.42445L18.61 6.77221C17.4484 5.40083 16.5929 3.51791 16.0856 1.76684L15.8521 0.879973C15.8431 0.78188 15.8327 0.832294 15.8766 0.771362C15.2769 0.92954 14.5411 1.26064 14.0336 1.53472C13.0599 2.06054 12.1838 2.70562 11.4383 3.47726C10.9498 3.98294 10.4023 4.68142 10.0262 5.32775C9.69956 5.88894 9.4167 6.41094 9.18534 7.08878C8.9571 7.75748 8.78908 8.46146 8.71526 9.22242C8.55774 10.8463 8.81963 12.356 9.29646 13.765C9.84592 15.3885 10.6859 16.6999 11.6621 17.9024L13.4513 20.0147C13.7504 20.3509 14.0459 20.7503 14.3223 21.0817C14.5354 21.3372 15.0103 21.9614 15.158 22.2086C15.3519 22.533 15.4366 22.6391 15.6425 23.0246C16.0864 23.8557 16.89 25.5307 16.3457 26.5214C16.2329 26.7266 16.1033 26.8217 16.0678 26.888H19.404C19.4115 26.7585 19.3572 26.2567 19.3743 25.8595C19.4362 24.4162 19.9855 22.8609 20.3448 21.4618C20.4257 21.147 20.7303 19.9548 20.7594 19.7133C20.499 19.4581 17.6772 18.2305 17.2938 18.055C16.9406 17.8933 14.1049 16.5946 13.8568 16.3545C13.9073 16.2953 13.9556 16.2795 14.0252 16.2399C14.1357 16.1772 14.1266 16.1925 14.2291 16.2337L14.199 16.2057C14.5706 16.3919 14.9389 16.5318 15.3054 16.6929C15.6836 16.8591 16.0394 17.0195 16.4064 17.1873C18.9474 18.3489 20.294 19.0233 22.6752 20.5204L22.6242 20.5093V20.5093ZM22.6161 20.5143C22.6111 20.4743 22.622 20.4851 22.5795 20.4868C22.5795 20.5254 22.5714 20.5121 22.6161 20.5143ZM22.4516 20.4117C22.4854 20.4527 22.4711 20.4471 22.5364 20.4669L22.5798 20.4896C22.5798 20.4383 22.5899 20.452 22.5364 20.4669L22.4516 20.4117ZM14.3075 16.2881C14.3 16.2454 14.3125 16.2562 14.2682 16.258C14.2682 16.2994 14.2596 16.285 14.3075 16.2881ZM14.2743 16.2611L14.2317 16.228C14.2317 16.2723 14.2225 16.2565 14.2743 16.2611ZM15.0518 6.74342L15.1148 6.69167C15.1021 6.60391 15.0598 6.57392 15.0106 6.49918C14.7909 6.16516 14.4382 5.42268 14.3627 5.05839L15.0491 4.90802C15.2521 5.85115 15.2637 5.92612 15.7018 6.69704C15.9299 7.09839 16.5287 7.71718 16.8867 7.97532C17.077 8.1126 17.6662 8.53245 17.9218 8.58962C18.0134 8.33874 18.0362 8.41766 17.9639 8.10415C18.2261 8.24019 18.2241 8.67131 18.0129 9.01995C17.8333 8.96723 17.6732 8.81449 17.508 8.75593C17.4805 8.7895 17.4905 8.78806 17.4813 8.8108C17.4477 8.8064 17.4545 8.79872 17.459 8.83196C17.4204 8.82552 17.4269 8.81643 17.4343 8.85393C17.3961 8.84622 17.4029 8.83794 17.4109 8.8756C17.3717 8.86668 17.3791 8.85705 17.3813 8.89512C17.3419 8.88398 17.3472 8.8724 17.3501 8.90917C17.3094 8.89858 17.3181 8.8891 17.3181 8.92927L17.3501 8.90917L17.3813 8.89512C17.4251 8.90665 17.4196 8.91815 17.4109 8.8756C17.4489 8.88501 17.4414 8.89247 17.4343 8.85393C17.4714 8.86175 17.4635 8.86948 17.459 8.83196C17.4937 8.83865 17.4864 8.84582 17.4813 8.8108L17.4781 8.80642C17.2643 9.37619 16.0096 9.69822 15.1708 9.01186C14.7329 8.65349 14.4304 7.85963 14.6901 7.21975C14.7584 7.05153 14.9399 6.77254 15.0518 6.74342V6.74342ZM14.9718 6.84518C15.0509 6.79281 15.011 6.8273 15.0474 6.73864C15.0026 6.78609 15.002 6.78672 14.9718 6.84518Z" fill="#9DBED9"/>
  <path fill-rule="evenodd" clip-rule="evenodd" d="M29.5979 31.0466C29.5979 31.0993 29.6137 31.1152 29.6662 31.1152H31.6699V31.6635H29.5979V32.6004C29.5979 32.653 29.6137 32.6689 29.6662 32.6689H31.6699V33.2173H28.7782V29.47H31.6699V30.1098H29.5979V31.0466V31.0466ZM27.3438 34.6568H35.4495C35.4495 35.2973 35.1942 35.938 34.6853 36.3348C34.6207 36.3852 34.5466 36.4643 34.4705 36.4847C34.4505 36.4097 34.4658 36.4699 34.4439 36.42C34.2925 36.0751 34.2782 36.0179 34.2261 35.6104C34.1744 35.206 34.5391 35.2966 32.8539 35.2966C32.8539 35.839 32.8763 36.1541 33.0211 36.6596C33.0534 36.7722 33.0633 36.806 33.1037 36.8967C33.1374 36.9724 33.1593 37.0451 33.2 37.1199L33.4459 37.5358C33.1736 37.5358 32.9843 37.477 32.8355 37.3486L32.7762 37.2939C32.6483 37.1644 32.569 37.0348 32.5091 36.8535C32.3608 36.4041 32.3302 35.8757 32.3302 35.2966H30.9868C30.9868 35.9499 30.9984 36.7874 31.2604 37.3754C31.2909 37.4438 31.3085 37.473 31.3283 37.5587C31.2662 37.5287 31.0666 37.5274 30.9697 37.5073C30.6298 37.4367 30.4699 37.1772 30.3895 36.8328C30.3069 36.4796 30.3253 35.8643 30.3285 35.4545C30.3291 35.3694 30.346 35.2966 30.2582 35.2966H28.9831L28.9603 35.8221C28.9603 36.7785 29.0649 37.4876 29.4708 38.0517C29.8419 38.5675 30.4763 38.9068 31.3511 38.9068V37.6043L31.503 37.8632C31.596 38.0142 31.7672 38.2248 31.9007 38.3323C32.3808 38.719 32.7837 38.9068 33.4914 38.9068V37.6043C33.6087 37.6831 33.9532 38.2189 34.906 38.6068C35.4336 38.8216 35.5497 38.8372 36.1297 39.0011C36.7039 39.1632 36.6052 39.1133 36.6368 38.9101L36.8289 37.8917C36.8498 37.7736 36.884 37.6475 36.884 37.5358C36.6075 37.5296 35.8774 37.3145 35.7911 37.3073L36.0018 37.0618C37.0389 35.9703 36.884 34.5992 36.884 33.2173H33.1043V32.6689H35.4495C35.502 32.6689 35.5179 32.653 35.5179 32.6004V31.6635H33.1043V31.1152H35.4495C35.502 31.1152 35.5179 31.0993 35.5179 31.0466V30.1098H33.1043V29.47H36.0415V28.0305H27.3438V34.6568V34.6568Z" fill="#1B2959"/>
  <path fill-rule="evenodd" clip-rule="evenodd" d="M30.4859 19.3128C30.4332 19.2694 30.4243 19.2213 30.4054 19.1506C30.3897 19.0921 30.3744 19.0318 30.3592 18.9702C30.2448 18.5074 30.1381 18.6238 30.1981 18.4707C30.2392 18.366 30.4084 18.1789 30.5341 18.1154C30.6121 18.4025 30.6769 19.0876 30.4859 19.3128ZM12.9989 22.8903C13.0452 22.8698 13.0338 22.8665 13.0196 22.9148C13.0242 22.9166 13.0324 22.9191 13.0333 22.9203C13.0338 22.9209 13.0293 22.9299 13.0295 22.9277C13.0301 22.9213 13.0152 22.9337 13.0083 22.937C12.1562 22.6755 11.905 22.7022 10.9974 22.2256C10.674 22.0558 9.50624 21.326 9.40154 21.1036C9.35499 21.0962 9.36087 21.1107 9.37148 21.069C9.33146 21.0788 9.33789 21.0873 9.34796 21.0477C9.30568 21.0596 9.31231 21.0687 9.3227 21.0264C9.2813 21.0355 9.28811 21.0441 9.29934 21.0034C9.25801 21.0162 9.26426 21.0257 9.27256 20.9841C9.23301 20.996 9.23982 21.0041 9.2482 20.964C9.20872 20.9714 9.21591 20.9795 9.22589 20.9406C9.18629 20.9503 9.19331 20.9588 9.20097 20.9192C9.16132 20.9296 9.16805 20.9378 9.17717 20.8982C9.13725 20.9064 9.14448 20.9144 9.15464 20.8749C9.11521 20.8853 9.12304 20.8927 9.13122 20.8526C9.09197 20.8617 9.0995 20.8692 9.10875 20.8299C9.06871 20.8382 9.07612 20.846 9.08643 20.8063C9.04706 20.8167 9.05501 20.824 9.06305 20.7839C9.02329 20.7929 9.03086 20.8003 9.04144 20.7607C9.00045 20.7693 9.01037 20.7751 9.02285 20.7338C8.98261 20.7441 8.99144 20.7508 9.00045 20.7096C8.95916 20.72 8.96672 20.7274 8.97885 20.6863C8.93562 20.6966 8.94459 20.7034 8.95829 20.6605C8.91641 20.6741 8.92647 20.6792 8.93747 20.6358C8.89505 20.6471 8.90264 20.6549 8.9145 20.6125C8.87364 20.6236 8.88212 20.6303 8.8926 20.5888C8.854 20.599 8.86303 20.6049 8.87136 20.565C8.82551 20.5631 8.84327 20.5878 8.83174 20.537C8.79192 20.5465 8.80123 20.5526 8.81076 20.5118C8.76932 20.5223 8.77875 20.528 8.79197 20.4865C8.74938 20.4945 8.76111 20.4996 8.77522 20.4565C8.73231 20.469 8.74177 20.475 8.75425 20.4314C8.71018 20.4452 8.72015 20.4511 8.73198 20.4058C8.69781 20.3888 8.7218 20.4169 8.681 20.3683C8.64729 20.3281 8.67996 20.3868 8.65985 20.3221C8.61628 20.333 8.62699 20.3386 8.63988 20.2943C8.58288 20.2737 8.61446 20.3321 8.5842 20.238C8.53933 20.248 8.55258 20.252 8.56856 20.2069C8.52268 20.2233 8.5336 20.228 8.5478 20.181C8.5042 20.1967 8.5157 20.2007 8.52712 20.1549C8.48215 20.1526 8.49441 20.1831 8.49776 20.1179C8.45042 20.1352 8.46253 20.1389 8.47815 20.0908C8.43795 20.0879 8.44255 20.1313 8.44585 20.0568C8.39792 20.0359 8.44159 20.0677 8.39211 20.0182C8.38657 20.0127 8.36372 19.9825 8.36188 19.9797C8.32548 19.9255 8.32402 19.9322 8.3156 19.8652C8.25294 19.8437 8.32194 19.8812 8.27385 19.8395C8.26912 19.8354 8.25602 19.8211 8.25172 19.8161C7.90577 19.4133 7.39922 18.2104 7.26787 17.7007C7.02272 16.7494 6.94245 15.8669 7.04901 14.8138C7.07447 14.8209 7.56258 15.2198 7.64689 15.2832C8.36127 15.821 9.04377 16.2118 10.0164 16.2045L10.6499 17.158C10.9587 17.5957 11.3667 18.0758 11.7131 18.4902L12.8112 19.7588C12.7829 19.8637 12.7089 19.9902 12.6639 20.1103C12.1099 21.5886 12.973 22.7125 12.9989 22.8903V22.8903ZM24.4752 17.908C24.3892 17.9754 23.9868 18.1553 23.8537 18.2196C23.034 18.6153 22.365 18.3696 21.7245 17.9931C20.9782 17.5544 21.1447 17.7319 21.0558 17.2766C21.0295 17.1421 21.0046 17.0222 20.9741 16.8986C20.9145 16.6577 20.8384 16.4203 20.758 16.2025L20.493 15.5586C20.6183 15.6601 20.7647 15.8305 20.8883 15.9548C21.301 16.3702 21.671 16.6966 22.185 17.0314C23.2499 17.725 24.2438 17.7981 24.4752 17.908V17.908ZM16.0672 26.8878C16.1028 26.8215 16.2324 26.7264 16.3452 26.5212C16.8895 25.5305 16.0859 23.8555 15.642 23.0244C15.4361 22.6389 15.3513 22.5328 15.1575 22.2084C15.0098 21.9612 14.5349 21.337 14.3218 21.0815C14.0454 20.7501 13.7498 20.3507 13.4508 20.0145L11.6615 17.9022C10.6854 16.6997 9.8454 15.3883 9.29594 13.7648C8.8191 12.3558 8.55721 10.8461 8.71474 9.22222C8.78856 8.46126 8.95657 7.75727 9.18481 7.08857C9.41617 6.41074 9.69904 5.88874 10.0256 5.32755C10.4018 4.68121 10.9492 3.98274 11.4378 3.47705C12.1833 2.70542 13.0594 2.06033 14.0331 1.53451C14.5406 1.26043 15.2764 0.929334 15.8761 0.771156L16.293 0.680397C16.4186 1.57562 16.7199 2.64905 17.0208 3.49439C17.0837 3.67102 17.3216 4.22799 17.3347 4.33828L17.6257 4.92511C17.9587 5.60605 18.5856 6.64737 19.1169 7.24491C19.2087 7.34808 19.499 7.5981 19.518 7.69458C19.5317 7.76377 19.5145 8.01423 19.5151 8.10573C19.5166 8.3717 19.5001 8.69351 19.5138 8.94902C20.0691 9.31741 20.1353 9.39632 20.7873 9.77243C21.239 10.033 21.6873 10.2613 22.1664 10.4914C23.0534 10.9174 23.8302 11.2397 24.7408 11.5868C24.8473 11.6274 25.062 11.6847 25.1119 11.7414C25.1662 11.7496 25.1312 11.7153 25.1538 11.7616C25.1118 11.8158 25.1363 11.7808 25.0983 11.8025C25.0515 11.9441 24.6262 12.3393 24.4941 12.4668C24.0972 12.8496 23.2601 13.3917 22.6913 13.5377C22.5682 13.5693 22.5531 13.5494 22.4779 13.4919C21.513 12.7549 20.1899 11.8241 19.0302 11.2613C15.9874 9.78439 14.447 11.6967 13.8784 10.8799C13.7056 10.6316 13.5899 10.3292 13.4049 10.0978C12.7498 9.27842 11.8673 9.86217 11.542 9.93332C11.0392 9.39531 10.9614 8.57931 11.3221 7.79337C11.5964 7.19579 12.3449 6.54128 12.9024 6.60255C12.9084 6.59909 12.917 6.59812 12.922 6.59633C12.927 6.59452 12.9355 6.59229 12.9416 6.58989C12.9478 6.58746 12.9548 6.58594 12.9614 6.58293C13.0272 6.553 13.0686 6.56811 13.0274 6.48926C13.0119 6.4597 13.0873 6.43078 12.8165 6.45466C11.9646 6.52979 11.3538 7.06561 10.9931 7.80568C10.4826 8.85283 10.804 9.90157 11.4509 10.4601C11.5729 10.4345 11.8277 10.3075 11.9762 10.2557C13.4684 9.7345 12.9297 11.3581 14.0674 11.6255C14.5553 11.7402 14.8937 11.5006 15.2979 11.4229C15.6645 11.267 15.8347 11.3319 16.1924 11.46C16.3531 11.5175 16.8617 11.7469 16.9384 11.8308C16.9945 11.8329 16.9913 11.815 16.9775 11.8609C17.0339 11.8684 16.9966 11.8497 17.0626 11.888L17.1214 11.945C17.1887 11.9617 17.5395 12.1836 17.5741 12.2661C17.6208 12.2511 17.6177 12.238 17.6027 12.2841C17.6634 12.3004 17.9603 12.5369 17.9847 12.6081C18.0294 12.5944 18.0239 12.5842 18.0106 12.6286C18.0562 12.6128 18.0514 12.6025 18.0354 12.6482C18.0799 12.6341 18.0723 12.6265 18.0583 12.6712C18.1439 12.7108 18.4783 13.0411 18.5147 13.1263C18.5595 13.1125 18.5509 13.1056 18.5372 13.1507C18.5973 13.1681 18.5838 13.1602 18.659 13.2562L18.9406 13.5905C19.1477 13.8788 19.4349 14.2218 19.6435 14.5538C19.7488 14.7214 19.852 14.8961 19.9575 15.0601C20.2687 15.5434 20.8167 16.7696 20.8692 17.4666C20.7537 17.4199 20.5732 17.285 20.4569 17.2103C20.3263 17.1266 20.1865 17.0321 20.0576 16.9486C19.7831 16.7709 19.5276 16.5921 19.2583 16.4025C18.9924 16.2154 18.722 16.0311 18.4692 15.8461C17.8399 15.3855 16.7196 14.4896 16.1375 14.1644C15.6348 13.8835 14.7339 13.4795 14.031 13.7547C14.0848 13.8473 14.1346 13.8879 14.2059 13.9765C14.4589 13.9605 14.589 13.9101 14.8778 13.9425C15.485 14.0105 15.964 14.2677 16.45 14.5594C16.7675 14.75 17.0345 14.9543 17.314 15.1548C18.151 15.755 19.0192 16.3999 19.871 16.9756C20.4255 17.3504 21.9634 18.4484 22.6315 18.5908C23.9414 18.8698 24.6161 17.8718 25.8843 17.5637C26.3245 17.4567 26.6929 17.6152 27.0333 17.7861C27.4723 18.0064 28.0265 18.3087 28.4319 18.5752L28.8746 18.8636C29.0101 18.932 29.2185 18.6898 29.3761 18.7266C29.5421 18.7653 29.7197 18.8891 29.9007 18.9192C29.9365 18.8255 30.0167 18.705 30.0988 18.6453C30.217 18.7725 30.2424 18.9819 30.2945 19.1726C30.4353 19.6882 30.7141 19.4721 30.7187 18.6849C30.7203 18.419 30.6635 18.2684 30.6436 18.044C30.8013 17.9851 30.8452 17.985 30.9166 18.1383C31.0633 18.4534 31.0719 18.9564 30.9466 19.2845C30.7589 19.7758 30.4133 20.0173 29.8903 19.9664C29.3789 19.9167 28.2124 19.6823 27.7741 19.4184C27.6721 19.3569 27.5938 19.2813 27.515 19.221C27.4262 19.153 27.3784 19.0786 27.2739 19.0197C27.337 19.247 27.5491 19.4896 27.6933 19.5909C27.9846 19.7955 28.7835 20.0055 29.1575 20.0883C29.6241 20.1915 29.7351 20.1332 29.8727 20.3529C29.8264 20.471 29.5538 21.0187 29.4917 21.0674C29.3843 21.1515 28.6937 21.0683 28.5088 21.0648C28.3975 21.3524 27.9119 21.745 27.5598 21.8944C27.4286 21.9501 27.2575 21.9741 27.1445 22.0437C27.2122 22.1387 27.2957 22.1683 27.3485 22.2722C27.2857 22.4173 27.1187 22.5984 27.0233 22.6823C26.8372 22.846 26.7344 22.8455 26.437 22.8121C26.04 22.7675 25.6204 22.6566 25.3246 22.4862C25.7904 22.4663 25.9798 22.4539 26.3736 22.2811C27.0479 21.9851 27.3519 21.5107 27.461 21.4746C27.7299 21.3856 28.4462 21.292 28.457 20.6207C28.4187 20.6906 28.4396 20.7044 28.3764 20.7561C28.3471 20.9762 28.0205 21.1684 27.7736 21.2416C27.6743 21.2711 27.381 21.2998 27.3231 21.3382L27.0504 21.6124C26.8579 21.787 26.6671 21.9364 26.4214 22.0775C26.27 22.1644 25.8435 22.38 25.6586 22.3777C25.5791 22.4486 25.2418 22.482 25.1273 22.4607C24.5125 22.3462 23.3291 21.3786 22.9568 20.8021C22.8459 20.6304 22.83 20.6612 22.6668 20.5427L22.6237 20.5091L22.6156 20.5141C22.5709 20.5119 22.579 20.5252 22.579 20.4866L22.5793 20.4894L22.5358 20.4667C22.4705 20.4469 22.4848 20.4525 22.4511 20.4115C22.3557 20.3925 20.6914 19.487 20.4351 19.3567C19.757 19.012 19.0595 18.6815 18.3615 18.3532C17.6499 18.0186 16.98 17.6936 16.2893 17.3477L14.7794 16.5555C14.6473 16.486 14.4194 16.3696 14.3069 16.2879C14.259 16.2848 14.2677 16.2992 14.2677 16.2578L14.2738 16.2609C14.2219 16.2563 14.2312 16.2721 14.2312 16.2278L14.2286 16.2335C14.126 16.1923 14.1352 16.177 14.0246 16.2397C13.955 16.2793 13.9068 16.2951 13.8563 16.3543C14.1043 16.5944 16.94 17.8931 17.2933 18.0548C17.6766 18.2303 20.4984 19.4579 20.7588 19.7131C20.7298 19.9546 20.4251 21.1468 20.3443 21.4616C19.985 22.8607 19.4357 24.416 19.3738 25.8593C19.3567 26.2565 19.411 26.7583 19.4035 26.8878H19.6022C19.6022 26.7016 19.5792 26.5873 19.5794 26.3851C19.581 25.0998 20.0355 23.6569 20.4191 22.4522C20.5508 22.0384 21.0512 20.2683 21.0594 19.8959C21.1745 19.9055 22.094 20.463 22.2024 20.5312C22.8341 20.9288 22.5873 20.772 23.0044 21.303C23.0461 21.356 23.0731 21.3754 23.1087 21.4232C23.1912 21.4676 23.3 21.5817 23.344 21.6727C23.3831 21.6816 23.7309 21.9709 23.7625 22.0136C23.8578 22.0562 23.8894 22.1048 23.9869 22.1678C24.2913 22.3644 24.5753 22.5698 24.9456 22.6917C25.032 22.7201 25.1611 22.729 25.2437 22.7589C25.4364 22.8285 25.5726 22.9025 25.7935 22.9608C26.6882 23.1969 27.1418 23.1961 27.5451 22.3828C27.6464 22.1784 27.5977 22.2673 27.5507 22.137C27.6359 22.1028 27.6721 22.0738 27.7619 22.0586C27.8047 22.0058 27.8328 22.0034 27.8989 21.9616C27.9633 21.9208 27.996 21.877 28.0694 21.8664L28.0938 21.8795L28.0694 21.8664C28.0902 21.7961 28.0533 21.848 28.1144 21.7891C28.1163 21.7874 28.1599 21.7568 28.1677 21.751C28.3225 21.6347 28.3676 21.5301 28.4594 21.4657C28.4763 21.4504 28.4659 21.4611 28.4881 21.4314L28.596 21.2669C28.9788 21.2669 29.4847 21.4965 29.7283 21.1922C29.7742 21.1348 29.8163 21.0493 29.8583 20.9798C29.9563 20.8178 30.1845 20.4179 30.0988 20.2387C30.5349 20.2387 30.8683 19.9507 31.0463 19.6815C31.5607 18.9038 31.2661 17.406 30.569 17.7858C30.3597 17.8998 30.0593 18.2278 29.9122 18.4522C29.902 18.4678 29.8873 18.491 29.8757 18.507L29.8568 18.5323C29.8287 18.5673 29.842 18.5503 29.8266 18.5661L29.8093 18.5478L29.8266 18.5661L29.7977 18.6303C29.6937 18.6034 29.3997 18.4605 29.3272 18.4641C29.1653 18.4723 29.024 18.6696 28.8583 18.5835C28.718 18.5107 28.5847 18.4244 28.4372 18.3417C28.0362 18.1168 27.0989 17.6246 26.6982 17.4815C26.5911 17.4432 26.2357 17.3912 26.1879 17.3597L25.7405 17.4417C25.3927 17.5296 25.1071 17.6521 24.7807 17.7827C24.5673 17.8682 23.6205 17.5435 23.3363 17.4511C23.2103 17.4101 23.0823 17.3583 22.9646 17.2986L22.2793 16.9352C22.0661 16.8043 21.8573 16.6615 21.6691 16.4965C21.6171 16.4509 21.5811 16.4264 21.5321 16.3826C21.1194 16.0144 20.715 15.6113 20.3361 15.2065C20.2483 15.1127 20.2051 14.9998 20.1356 14.8822C20.063 14.7593 20.0123 14.6699 19.9393 14.5536C19.8666 14.4376 19.8092 14.3466 19.7343 14.2339C19.3912 13.7174 19.0234 13.1983 18.5831 12.7615C18.4882 12.6673 18.4337 12.5834 18.3333 12.4866C18.0346 12.1986 17.5228 11.7639 17.1734 11.5485C17.0581 11.4775 16.9572 11.416 16.8462 11.3513L16.5449 11.1967C16.5024 11.1693 16.5287 11.1876 16.5056 11.1675C17.2491 11.1675 17.3773 11.1419 18.0766 11.3276C18.5344 11.4491 18.9417 11.6298 19.3515 11.8304L19.6401 11.9749C19.9368 12.1229 20.2141 12.2965 20.4945 12.4656C20.5911 12.5239 20.6688 12.5747 20.7624 12.6309C21.3133 12.962 21.8388 13.3494 22.3573 13.7266C22.4771 13.8138 22.5116 13.8473 22.6997 13.7962C23.1633 13.6703 23.58 13.4634 23.9523 13.248C24.3693 13.0067 24.7391 12.725 25.1056 12.4175L25.3269 12.1825C25.3698 12.1268 25.3934 12.1128 25.4366 12.0641C25.4748 12.0212 25.4992 11.985 25.5379 11.9373C25.6436 11.807 25.74 11.6814 25.8182 11.5331L25.0239 11.2563C24.7602 11.1681 24.493 11.0559 24.227 10.9592C23.5074 10.6977 22.792 10.4 22.0937 10.084L21.5344 9.82261C20.9845 9.59918 20.2969 9.14319 19.8071 8.81405C19.8071 8.53556 19.8591 8.27465 19.8922 8.00832C19.9565 7.49189 19.9604 7.55781 19.7442 7.32342C19.2622 6.80067 18.853 6.20506 18.5092 5.56961C18.2259 5.04608 17.9781 4.48479 17.7546 3.92763C17.5207 3.34444 17.3291 2.72639 17.1762 2.10895C17.016 1.46232 16.8689 0.828638 16.7843 0.125228C16.7605 -0.0729345 16.7013 0.0108206 16.3914 0.0624082C15.4945 0.211683 14.1349 0.827785 13.4018 1.26659C13.1425 1.42185 12.9168 1.56317 12.6802 1.73063C12.447 1.89576 12.2077 2.06227 11.9923 2.25123C11.7797 2.43766 11.5639 2.6106 11.3655 2.81041C11.2615 2.91512 11.1741 3.00338 11.0694 3.10741L10.7844 3.41546C10.4957 3.71617 10.2368 4.0696 10.0073 4.4178L9.76154 4.78815C9.44821 5.28656 9.16136 5.81721 8.94302 6.36592C8.72298 6.91888 8.50763 7.54676 8.39676 8.21691C8.37034 8.37661 8.333 8.5584 8.31283 8.72675C8.29987 8.83483 8.29497 8.88361 8.27884 8.98969C8.24369 9.22089 8.26334 9.617 8.23082 9.83262C8.19558 10.0663 8.24098 10.2089 8.24121 10.4127C8.24206 11.1616 8.37322 11.9135 8.51837 12.5338C8.77109 13.6137 9.14544 14.6118 9.6596 15.5699C9.73265 15.706 9.81087 15.8351 9.87981 15.9659C9.44965 15.9659 9.00374 15.7433 8.68265 15.5449C8.61189 15.5012 8.53892 15.4581 8.47436 15.4112C8.28577 15.2744 8.09212 15.1463 7.91634 14.9887L7.33188 14.4327C7.32859 14.4294 7.3238 14.4246 7.32048 14.4213C7.31581 14.4166 7.30244 14.4031 7.2977 14.3985L6.76044 13.8409C6.59572 14.1854 6.61408 14.9209 6.57207 15.2284C6.5617 15.3043 6.55252 15.3752 6.55446 15.4868C6.5566 15.6096 6.57564 15.6222 6.57903 15.7366C6.59055 16.1246 6.60868 16.3807 6.6595 16.7298C6.74722 17.3323 6.88515 17.8669 7.10173 18.411C7.1997 18.6571 7.30707 18.9234 7.43379 19.1517C7.65546 19.551 7.87675 19.9372 8.16504 20.2915C8.44196 20.6318 8.72004 20.9619 9.04276 21.2615C9.10124 21.3157 9.13222 21.3272 9.19147 21.3864C9.24653 21.4414 9.27293 21.4732 9.3329 21.5187C9.91808 21.962 10.2728 22.2409 10.9424 22.5769C11.0635 22.6377 11.1759 22.7 11.2918 22.7518C12.0622 23.0961 13.016 23.3919 13.8644 23.3919C13.7792 23.2303 13.4795 22.9309 13.3468 22.746L13.1205 22.379C13.0535 22.2548 12.9932 22.1042 12.9404 21.9657C12.8137 21.6334 12.7731 21.3947 12.7714 20.9469C12.7706 20.7255 12.7953 20.5851 12.835 20.4166L12.9764 19.9645C13.0698 20.0273 13.0685 20.0636 13.1413 20.1417L13.3009 20.3243C13.8501 20.9171 14.344 21.5739 14.8242 22.2231C15.4296 23.0416 16.5555 25.1671 16.1551 26.2389C16.0832 26.4312 16.0113 26.5185 15.8738 26.6422C15.8111 26.6986 15.7395 26.7373 15.6639 26.7743L15.4656 26.8495C15.4184 26.875 15.4334 26.8697 15.4127 26.8878H16.0672V26.8878Z" fill="#1B2959"/>
  <path fill-rule="evenodd" clip-rule="evenodd" d="M20.7179 34.9765H22.6988L22.5491 35.9458C22.5288 36.0347 22.5251 36.0861 22.507 36.1778L22.3345 36.8501C21.6328 36.8501 21.0075 36.8273 20.3081 36.8273C19.6174 36.8273 18.9267 36.8273 18.2361 36.8273C18.2679 36.7607 18.2818 36.6879 18.2996 36.6168L18.4822 35.9318C18.5609 35.6124 18.6171 35.2969 18.6915 34.9765H19.8755C19.8258 35.1902 19.5919 35.6717 19.5795 35.8219C19.6428 35.8556 19.6979 35.8711 19.7696 35.9053C19.8442 35.9409 19.8853 35.9673 19.9451 36.0034C20.348 36.2473 20.5932 36.4129 20.8545 36.8044L21.647 36.3202C21.7112 36.2795 21.86 36.182 21.9247 36.1647C21.8578 35.8768 21.2291 35.304 20.9075 35.1061L20.7179 34.9765V34.9765ZM19.6933 32.8972L20.0617 33.0759C20.2469 33.1753 20.3755 33.2563 20.543 33.3927C20.6514 33.481 20.6967 33.5018 20.7634 33.6284H18.8736C18.9294 32.9552 18.9647 32.528 18.9647 31.8233H20.0804L19.6933 32.8972ZM20.4219 31.8233H22.8582C22.8582 32.1274 22.8608 33.4212 22.8127 33.6284H21.1277C21.1507 33.6084 21.1297 33.6242 21.1668 33.5991C21.1779 33.5916 21.2159 33.5684 21.2232 33.5643L21.9702 33.1714C21.8909 32.8299 21.2119 32.277 20.8907 32.084C20.8102 32.0356 20.7396 31.9942 20.6575 31.9525C20.6096 31.9281 20.5767 31.9129 20.5353 31.8923L20.4219 31.8233V31.8233ZM17.5302 31.5034C17.5302 31.9022 17.5132 32.2331 17.5084 32.6239C17.5064 32.7825 17.4695 32.9946 17.4619 33.1485C17.4328 33.7329 17.5375 33.6284 16.961 33.6284V34.908C16.961 35.0012 17.0324 34.9765 17.2115 34.9765C17.2115 35.0819 17.1816 35.2144 17.1569 35.3102L16.9303 36.2481C16.7143 37.0688 16.6144 37.2646 16.3436 38.0128C16.284 38.1775 16.2257 38.2368 16.3038 38.2623L21.3554 38.2896C21.4578 38.2896 21.6492 38.2784 21.7411 38.2911C21.8283 38.3032 21.8848 38.3696 21.9754 38.4444L23.2908 39.4778C23.436 39.2024 23.5889 38.7484 23.6798 38.4287C23.7004 38.3561 23.6876 38.2896 23.769 38.2896H24.6797L24.7028 36.9184C24.6832 36.8232 24.6426 36.8467 24.5217 36.8488C24.3544 36.8517 24.1868 36.8501 24.0194 36.8501L24.1333 35.9362C24.1487 35.8003 24.1668 35.6112 24.1776 35.478L24.2016 34.9765H24.6797V33.6284H24.2471C24.2471 33.2671 24.228 31.4612 24.2637 31.2001L24.2719 30.5189C24.2725 30.4338 24.2894 30.361 24.2016 30.361H17.5302V31.5034V31.5034Z" fill="#1B2959"/>
  <path fill-rule="evenodd" clip-rule="evenodd" d="M4.87075 27.9389V29.3327H10.563C10.563 29.5688 10.5752 29.6467 10.4141 29.8459C10.3334 29.9456 10.2249 30.0056 10.089 30.0452C9.90177 30.0997 9.33609 30.0639 9.08304 30.0639C8.72045 30.0639 8.44044 30.0867 8.0812 30.0867H3.98275C3.98275 30.9705 3.95674 31.7959 3.96005 32.6916C3.96087 32.9137 3.93719 33.0704 3.93721 33.3085C3.93728 33.9756 3.98244 34.4531 3.69465 35.0529C3.57918 35.2936 3.48553 35.4426 3.33561 35.6523C3.28268 35.7264 3.2367 35.7796 3.18598 35.8449C2.67818 36.4987 2.0743 36.9196 1.41883 37.3618C1.33228 37.4202 1.08854 37.5804 1 37.6041V37.6727C1.08964 37.6967 2.08485 38.5156 2.19107 38.6024L2.59384 38.9065C2.64171 38.8744 2.66863 38.8446 2.71805 38.8027L3.07199 38.4724C3.21683 38.3615 3.5903 37.9334 3.72895 37.7607C3.794 37.6797 3.87116 37.5979 3.94258 37.5181C3.98101 37.4752 4.00368 37.4384 4.04109 37.3885C4.55464 36.7028 5.02105 36.0419 5.24444 35.1458C5.29971 34.9241 5.37167 34.5934 5.37167 34.3367C5.37167 33.3534 5.3489 32.443 5.3489 31.4577L10.0621 31.4805C10.3939 31.4805 10.7649 31.3396 10.9774 31.2109C11.0426 31.1715 11.101 31.1413 11.1585 31.0956C11.3337 30.9566 11.4798 30.8213 11.6141 30.6388C12.0604 30.032 11.9509 29.6676 12.0008 29.2218C12.0312 28.95 12.0202 28.2531 12.0202 27.9389C12.0202 27.8863 12.0044 27.8704 11.9519 27.8704H4.93906C4.88659 27.8704 4.87075 27.8863 4.87075 27.9389V27.9389Z" fill="#1B2959"/>
  <path fill-rule="evenodd" clip-rule="evenodd" d="M10.5866 41.8312C10.4775 42.3638 9.71462 42.6837 11.1105 43.3837L16.4663 46.0977C16.8673 46.3018 17.9188 46.8839 18.3095 46.9155C18.7209 46.9488 18.8804 46.6548 19.0429 46.3199C19.1891 46.0186 19.3402 45.7231 19.4927 45.423C20.103 44.2222 20.6906 43.0209 21.2929 41.839H21.3098C21.2891 41.7931 21.3039 41.7967 21.2929 41.839L10.5866 41.8312V41.8312Z" fill="#C30D23"/>
  <path fill-rule="evenodd" clip-rule="evenodd" d="M8.31562 19.8652C8.32405 19.9321 8.3255 19.9255 8.36191 19.9797C8.36375 19.9824 8.3866 20.0126 8.39214 20.0182C8.44161 20.0677 8.39795 20.0359 8.44588 20.0568C8.44258 20.1312 8.43797 20.0878 8.47817 20.0908C8.46256 20.1389 8.45045 20.1352 8.49779 20.1179C8.49443 20.1831 8.48217 20.1526 8.52714 20.1549C8.51572 20.2006 8.50423 20.1967 8.54782 20.181C8.53363 20.2279 8.5227 20.2233 8.56859 20.2068C8.55261 20.252 8.53936 20.2479 8.58422 20.238C8.61449 20.332 8.58291 20.2737 8.6399 20.2943C8.62701 20.3385 8.61631 20.3329 8.65987 20.3221C8.67999 20.3867 8.64732 20.328 8.68103 20.3682C8.72183 20.4169 8.69783 20.3888 8.73201 20.4058C8.72018 20.4511 8.7102 20.4451 8.75428 20.4314C8.74179 20.4749 8.73233 20.469 8.77524 20.4564C8.76113 20.4996 8.7494 20.4945 8.79199 20.4865C8.77877 20.5279 8.76934 20.5223 8.81078 20.5118C8.80125 20.5526 8.79195 20.5464 8.83176 20.537C8.8433 20.5878 8.82554 20.5631 8.87138 20.5649C8.86306 20.6049 8.85402 20.5989 8.89262 20.5888C8.88215 20.6303 8.87366 20.6236 8.91453 20.6125C8.90266 20.6549 8.89507 20.6471 8.9375 20.6357C8.92649 20.6791 8.91644 20.6741 8.95832 20.6604C8.94461 20.7033 8.93565 20.6966 8.97888 20.6863C8.96675 20.7273 8.95919 20.72 9.00048 20.7095C8.99147 20.7508 8.98264 20.7441 9.02288 20.7338C9.01039 20.7751 9.00048 20.7693 9.04146 20.7607C9.03088 20.8003 9.02332 20.7929 9.06307 20.7839C9.05503 20.824 9.04708 20.8167 9.08645 20.8063C9.07615 20.846 9.06873 20.8381 9.10877 20.8298C9.09953 20.8692 9.09199 20.8616 9.13124 20.8526C9.12307 20.8927 9.11523 20.8852 9.15467 20.8749C9.14451 20.9144 9.13728 20.9063 9.1772 20.8982C9.16807 20.9378 9.16134 20.9295 9.20099 20.9192C9.19334 20.9588 9.18632 20.9502 9.22591 20.9405C9.21593 20.9795 9.20875 20.9714 9.24822 20.964C9.23984 21.0041 9.23303 20.9959 9.27259 20.9841C9.26428 21.0257 9.25804 21.0161 9.29936 21.0034C9.28814 21.0441 9.28132 21.0355 9.32273 21.0263C9.31233 21.0686 9.3057 21.0596 9.34798 21.0477C9.33792 21.0873 9.33148 21.0788 9.3715 21.0689C9.36089 21.1106 9.35502 21.0962 9.40157 21.1036C9.40157 21.0519 9.41666 21.0575 9.3715 21.0689C9.38137 21.0278 9.38855 21.0355 9.34798 21.0477C9.35833 21.0076 9.36407 21.0175 9.32273 21.0263C9.33259 20.983 9.34125 20.9897 9.29936 21.0034C9.31153 20.9616 9.31584 20.9729 9.27259 20.9841C9.28093 20.9475 9.28637 20.957 9.24822 20.964C9.25616 20.9238 9.26488 20.9303 9.22591 20.9405C9.2363 20.8997 9.24249 20.909 9.20099 20.9192C9.20869 20.8817 9.21522 20.8902 9.1772 20.8982C9.18593 20.8575 9.19436 20.8643 9.15467 20.8749C9.16502 20.8351 9.17166 20.8437 9.13124 20.8526C9.1394 20.8141 9.14705 20.8215 9.10877 20.8298C9.11782 20.789 9.12636 20.7957 9.08645 20.8063C9.097 20.7665 9.10363 20.7751 9.06307 20.7839C9.07098 20.7456 9.07908 20.7525 9.04146 20.7607C9.05124 20.7186 9.06265 20.7226 9.02288 20.7338C9.03613 20.6912 9.0437 20.6992 9.00048 20.7095C9.0095 20.6696 9.01792 20.6761 8.97888 20.6863C8.99035 20.6419 9.00113 20.6466 8.95832 20.6604C8.9721 20.6174 8.98075 20.624 8.9375 20.6357C8.94912 20.5937 8.95662 20.6016 8.91453 20.6125C8.9263 20.5714 8.93395 20.579 8.89262 20.5888C8.90316 20.5492 8.91103 20.5564 8.87138 20.5649C8.84568 20.4985 8.87404 20.5505 8.83176 20.537C8.84295 20.4951 8.85213 20.5014 8.81078 20.5118C8.82019 20.4732 8.8295 20.4788 8.79199 20.4865C8.80436 20.4402 8.81875 20.442 8.77524 20.4564C8.79014 20.4115 8.79931 20.4177 8.75428 20.4314C8.76709 20.3884 8.77538 20.3962 8.73201 20.4058C8.71476 20.3718 8.71864 20.3759 8.69788 20.3522C8.66889 20.3191 8.68985 20.3403 8.65987 20.3221C8.67616 20.2749 8.68728 20.2801 8.6399 20.2943C8.60193 20.2127 8.61128 20.2529 8.58422 20.238C8.59754 20.1885 8.61459 20.1874 8.56859 20.2068C8.58562 20.1599 8.59531 20.1659 8.54782 20.181C8.56241 20.1375 8.57125 20.1445 8.52714 20.1549C8.53144 20.0634 8.52909 20.1308 8.49779 20.1179C8.51393 20.0695 8.52603 20.0732 8.47817 20.0908C8.47709 20.0182 8.48103 20.0671 8.44588 20.0568C8.42671 19.984 8.37198 19.8944 8.31562 19.8652C8.30322 19.7867 8.09282 19.4821 8.03593 19.3731C7.94839 19.2055 7.8624 19.0392 7.77919 18.855C7.62529 18.5143 7.48668 18.1263 7.37924 17.7279C7.15804 16.9078 7.03687 15.8384 7.14743 14.9528C7.11562 14.9901 7.12908 15.0076 7.1379 15.1202C7.26815 16.784 7.66968 18.2628 8.60995 19.6373C8.80806 19.9269 8.94702 20.0481 9.14192 20.2705C9.20815 20.3461 9.26025 20.4006 9.33124 20.4693C9.51366 20.6458 9.95939 21.0425 10.1724 21.1799C11.0004 21.7142 11.2586 21.8763 12.2841 22.1424C12.379 22.4363 12.5405 22.6062 12.7633 22.7607C12.8386 22.8129 12.9212 22.8823 12.9989 22.8903C12.9844 22.937 12.974 22.9323 13.0196 22.9148L13.0083 22.937C13.0153 22.9336 13.0301 22.9213 13.0295 22.9276C13.0293 22.9299 13.0338 22.9208 13.0333 22.9202C13.0324 22.9191 13.0242 22.9166 13.0196 22.9148C13.0338 22.8664 13.0452 22.8698 12.9989 22.8903C12.9731 22.7124 12.1099 21.5886 12.6639 20.1103C12.709 19.9901 12.7829 19.8637 12.8112 19.7588L11.7131 18.4901C11.3668 18.0758 10.9587 17.5956 10.6499 17.158L10.0164 16.2045C9.04379 16.2118 8.36129 15.8209 7.64691 15.2832C7.56261 15.2198 7.0745 14.8209 7.04904 14.8138C6.94247 15.8669 7.02275 16.7493 7.2679 17.7007C7.39924 18.2104 7.9058 19.4133 8.25174 19.8161C8.25604 19.8211 8.26915 19.8353 8.27387 19.8394C8.32196 19.8812 8.25297 19.8437 8.31562 19.8652V19.8652Z" fill="#9DBED9"/>
  <path fill-rule="evenodd" clip-rule="evenodd" d="M5.89502 35.0907H8.05809V36.9872C8.05809 37.0399 8.07393 37.0558 8.1264 37.0558H9.447C9.49947 37.0558 9.51531 37.0399 9.51531 36.9872V35.0907H11.6556V32.0975H10.2212V33.6512H9.51531V32.166C9.51531 32.1134 9.49947 32.0975 9.447 32.0975H8.05809V33.6512H7.35224V32.0975H5.89502V35.0907V35.0907Z" fill="#1B2959"/>
  <path fill-rule="evenodd" clip-rule="evenodd" d="M3.80078 39.0207H11.8838V35.6619C11.8838 35.6092 11.868 35.5933 11.8155 35.5933H10.4949C10.4424 35.5933 10.4266 35.6092 10.4266 35.6619V37.5812H6.78353C6.79346 37.4615 6.9278 37.2607 6.97902 37.1376C7.129 36.7773 7.19311 36.5197 7.2584 36.1384C7.27766 36.026 7.27456 35.9714 7.28816 35.8482C7.29601 35.7772 7.36022 35.5933 7.23892 35.5933H5.91831C5.8318 35.5933 5.8586 35.6581 5.81841 35.8358C5.79349 35.9459 5.78385 36.0095 5.75065 36.1105C5.69029 36.2943 5.63993 36.4415 5.56166 36.6064C5.38538 36.9776 5.15504 37.3709 4.91326 37.6922C4.8602 37.7628 4.82132 37.8149 4.76425 37.8854L3.96619 38.8211C3.90285 38.8843 3.8253 38.9286 3.80078 39.0207V39.0207Z" fill="#1B2959"/>
  <path fill-rule="evenodd" clip-rule="evenodd" d="M17.2115 28.4187H16.9382V30.1552C17.2311 30.1552 17.5459 30.0942 17.7611 30.0213C17.8825 29.9801 17.9951 29.9446 18.1077 29.8893C18.1664 29.8605 18.38 29.7211 18.4182 29.7211H24.8164V28.2816H19.3745C19.4312 28.1631 19.4428 27.8368 19.4428 27.6647H17.9856C17.9856 28.0777 17.6215 28.4187 17.2115 28.4187Z" fill="#1B2959"/>
  <path fill-rule="evenodd" clip-rule="evenodd" d="M2.57112 28.0532C2.57112 28.5345 2.45508 29.1722 2.27999 29.4748C1.97515 30.0015 1.68706 30.1554 1.06836 30.1554V31.5949C1.45987 31.5949 1.5178 31.5953 1.91082 31.5035V35.7763C2.15085 35.7202 2.5111 35.4386 2.66833 35.2797L2.9399 34.9353C3.30125 34.3552 3.2542 34.0815 3.2542 33.3543L3.25403 30.8407C3.25172 30.4902 3.36418 30.5193 3.58514 30.0762C3.74956 29.7464 3.85158 29.3995 3.92075 28.9963C3.93485 28.9142 3.94997 28.8481 3.96205 28.7407L4.02834 27.8476H2.57112V28.0532V28.0532Z" fill="#1B2959"/>
  <path fill-rule="evenodd" clip-rule="evenodd" d="M21.6718 41.8312C21.6502 41.9368 20.8164 43.5681 20.6956 43.7967C20.3587 44.4338 20.0536 45.0997 19.7188 45.7405C19.5476 46.0682 19.3886 46.3881 19.2205 46.7259C19.061 47.0462 18.8931 47.4079 18.4873 47.4571C18.2637 47.4842 18.0963 47.3653 17.9291 47.281L10.6201 43.6024C10.2875 43.4359 9.89811 43.3022 9.8542 42.9061C9.81133 42.5193 10.1419 42.1474 10.2477 41.8312H9.76639C9.54388 42.1646 9.35824 42.6258 9.37904 43.0653C9.40811 43.6795 9.95003 43.8897 10.4221 44.1207L10.7695 44.2976C11.1549 44.5128 11.8671 44.8503 12.271 45.0529C12.9908 45.4141 13.7002 45.7701 14.4265 46.1345L17.1287 47.4899C17.1881 47.5202 17.2137 47.5406 17.2591 47.5647L17.4578 47.6624C17.4939 47.6801 17.4968 47.6834 17.5326 47.7015L17.7909 47.8307C17.954 47.9155 18.0505 47.962 18.2456 47.992C18.6387 48.0524 19.0935 47.7606 19.3168 47.4623C19.4516 47.2821 19.5016 47.1348 19.6121 46.9361L22.1494 41.9134C22.2063 41.7775 22.013 41.8312 21.6718 41.8312V41.8312Z" fill="#000"/>
  <path fill-rule="evenodd" clip-rule="evenodd" d="M15.071 33.5371C15.071 34.3992 14.7396 35.2107 14.4111 35.9596C14.1854 36.4738 13.7128 37.1772 13.3565 37.5975C13.2897 37.6763 13.2385 37.7241 13.1812 37.81C13.2488 37.8554 13.3039 37.9062 13.3729 37.9603C13.4542 38.0239 13.498 38.057 13.5752 38.1229L14.5703 38.9065C14.6382 38.9586 14.703 39.0183 14.775 39.0667C14.9099 38.9675 15.3327 38.1966 15.4363 38.0166C15.6566 37.6343 15.812 37.2436 15.9686 36.8371C16.3817 35.7646 16.5282 34.885 16.5282 33.5828C16.5282 33.5053 16.4882 33.5143 16.4144 33.5143C15.9398 33.5143 15.5444 33.5371 15.071 33.5371V33.5371Z" fill="#1B2959"/>
  <path fill-rule="evenodd" clip-rule="evenodd" d="M21.6715 41.8312L21.31 41.8389H21.2931C20.6907 43.0209 20.1032 44.2221 19.4929 45.4229C19.3404 45.7231 19.1893 46.0185 19.0431 46.3198C18.8806 46.6547 18.7211 46.9487 18.3097 46.9154C17.919 46.8838 16.8675 46.3017 16.4665 46.0976L11.1107 43.3836C9.71482 42.6836 10.4777 42.3637 10.5868 41.8312H10.2474C10.1416 42.1474 9.81104 42.5192 9.85391 42.9061C9.89782 43.3021 10.2872 43.4359 10.6198 43.6024L17.9288 47.281C18.096 47.3653 18.2634 47.4842 18.487 47.4571C18.8928 47.4079 19.0607 47.0462 19.2202 46.7259C19.3884 46.3881 19.5473 46.0682 19.7185 45.7405C20.0533 45.0996 20.3584 44.4337 20.6953 43.7967C20.8161 43.568 21.6499 41.9367 21.6715 41.8312V41.8312Z" fill="#FEFEFE"/>
  <path fill-rule="evenodd" clip-rule="evenodd" d="M22.5898 24.615C22.3574 25.0357 22.135 25.4123 21.884 25.796C21.7498 26.0012 21.6239 26.1642 21.4881 26.3587C21.3723 26.5247 21.1593 26.7393 21.0896 26.8878H25.5111L25.792 26.2277C25.7179 26.1428 24.4372 25.504 24.2275 25.3995C23.9529 25.2628 23.6958 25.1202 23.4323 24.9865C23.1724 24.8547 22.8919 24.7194 22.6533 24.5844C22.6066 24.6004 22.6204 24.5859 22.5898 24.615V24.615Z" fill="#FEFEFE"/>
  <path fill-rule="evenodd" clip-rule="evenodd" d="M21.0899 26.8878C21.1596 26.7394 21.3725 26.5247 21.4884 26.3588C21.6241 26.1642 21.7501 26.0012 21.8843 25.796C22.1353 25.4124 22.3577 25.0358 22.5901 24.615C22.6209 24.525 22.7076 24.3882 22.7642 24.2804C22.8259 24.1627 22.8797 24.0579 22.9441 23.9351C23.0307 23.7702 23.2383 23.4099 23.2874 23.2537L23.4732 22.9091C23.6636 22.9656 24.0809 23.2052 24.285 23.3075L26.6809 24.5138C26.6498 24.617 26.5854 24.7838 26.5001 24.8546C26.4092 25.0686 26.2668 25.3156 26.1523 25.5316L25.7922 26.2278L25.5113 26.8878H25.9778L26.6383 25.5627C26.6845 25.4738 26.7257 25.3759 26.7758 25.2894C26.8394 25.1795 27.0195 24.8626 27.048 24.74C27.237 24.7558 27.2656 24.9076 27.5587 24.7955C27.7339 24.7285 27.7899 24.6009 27.8641 24.4394L28.7473 22.6752C28.8267 22.4774 28.7579 22.2826 28.6487 22.174C28.5329 22.0589 28.3648 22.0182 28.232 21.9298L28.094 21.8796L28.0696 21.8665C27.9963 21.8771 27.9636 21.9208 27.8992 21.9616C27.8331 22.0035 27.8049 22.0059 27.7622 22.0586L28.1385 22.2431C28.2818 22.3535 28.5341 22.352 28.4304 22.5842L27.7359 23.9679C27.4263 24.5878 27.518 24.5915 27.0455 24.3544L23.3456 22.4919C23.1477 22.3926 22.9924 22.3767 23.12 22.1241C23.1799 22.0055 23.3063 21.7871 23.3443 21.6727C23.3002 21.5818 23.1914 21.4677 23.1089 21.4232C22.8334 21.9955 22.4675 22.39 23.0634 22.7064L21.9067 24.9274C21.7988 25.1082 21.6929 25.2728 21.5822 25.4472C21.3148 25.8686 21.0004 26.2626 20.6794 26.6433C20.6368 26.6939 20.6363 26.7054 20.5872 26.7564C20.5221 26.8239 20.5343 26.8048 20.4905 26.8878H21.0899V26.8878Z" fill="#000"/>
  <path fill-rule="evenodd" clip-rule="evenodd" d="M25.7734 38.1068L26.434 38.6321C26.4884 38.6738 26.5412 38.7171 26.5983 38.7642C26.6934 38.8426 27.0546 39.1412 27.1168 39.1579C27.4353 38.6806 27.7552 38.3021 27.9856 37.7219C28.3701 36.7533 28.3919 36.3753 28.3919 35.2964H27.0485C27.0485 35.4964 26.9676 35.9662 26.9209 36.1737C26.8576 36.4553 26.7629 36.6979 26.6466 36.9267C26.4519 37.3096 26.2142 37.5916 25.9453 37.9137L25.7734 38.1068V38.1068Z" fill="#1B2959"/>
  <path fill-rule="evenodd" clip-rule="evenodd" d="M23.2876 23.2536C23.2386 23.4097 23.0309 23.7701 22.9444 23.935C22.88 24.0577 22.8262 24.1626 22.7644 24.2803C22.7079 24.388 22.6212 24.5248 22.5903 24.6149C22.6209 24.5858 22.6072 24.6004 22.6538 24.5843C22.8924 24.7193 23.173 24.8547 23.4328 24.9864C23.6964 25.1201 23.9534 25.2628 24.228 25.3995C24.4378 25.5039 25.7184 26.1427 25.7925 26.2276L26.1526 25.5314C26.2671 25.3155 26.4095 25.0685 26.5004 24.8545C26.4844 24.782 26.5286 24.8277 26.425 24.7713C25.834 24.4498 23.5079 23.3647 23.3726 23.2269C23.3005 23.2388 23.3261 23.2224 23.2876 23.2536V23.2536Z" fill="#905646"/>
  <path fill-rule="evenodd" clip-rule="evenodd" d="M25.0983 11.8026L25.1119 11.7414C24.9999 11.7384 25.0861 11.6934 24.9261 11.8716C24.4192 12.4362 23.5295 12.8969 22.8098 13.1543C22.5398 13.2509 22.5961 13.2389 22.3983 13.0922C22.2765 13.002 22.1768 12.9295 22.0381 12.8364C21.3531 12.3764 19.6786 11.3207 18.9566 10.9946C17.7873 10.4663 16.1272 10.2686 14.7769 10.6919C14.2246 10.8651 14.2324 10.8574 14.0057 10.4076C13.854 10.1067 13.6984 9.88564 13.4933 9.6889C12.8327 9.05504 12.2326 9.33277 11.633 9.49518C11.4606 9.31595 11.412 8.83063 11.4527 8.52289C11.5281 7.9527 11.8399 7.33292 12.2666 7.00431C12.6949 6.67446 12.8372 6.72474 13.0225 6.62054L12.9025 6.60257C12.3449 6.54129 11.5964 7.19581 11.3221 7.79339C10.9614 8.57933 11.0392 9.39533 11.542 9.93334C11.8673 9.86219 12.7498 9.27844 13.4049 10.0978C13.5899 10.3292 13.7056 10.6316 13.8784 10.8799C14.447 11.6967 15.9875 9.78441 19.0302 11.2613C20.1899 11.8242 21.513 12.7549 22.4779 13.4919C22.5531 13.5494 22.5682 13.5694 22.6913 13.5378C23.2601 13.3917 24.0972 12.8496 24.4941 12.4668C24.6263 12.3394 25.0515 11.9441 25.0983 11.8026V11.8026Z" fill="#FEFEFE"/>
  <path fill-rule="evenodd" clip-rule="evenodd" d="M16.4376 30.5894H16.5059L16.5287 28.83C16.0866 28.83 15.8634 28.7815 15.5492 28.5562C15.4546 28.4884 15.3546 28.3668 15.2985 28.2595C15.1628 27.9998 15.2217 27.8704 15.117 27.8704H13.8192C13.6923 27.8704 13.733 28.0267 13.744 28.105C13.7985 28.4932 13.8224 28.7817 14.054 29.1657C14.219 29.4393 14.2655 29.5156 14.5077 29.7613L14.8845 30.0688C15.2841 30.3388 15.9333 30.5894 16.4376 30.5894V30.5894Z" fill="#1B2959"/>
  <path fill-rule="evenodd" clip-rule="evenodd" d="M13.7275 30.8637C13.7275 31.0073 13.7872 31.2588 13.8266 31.3812C13.8797 31.5458 13.9472 31.6891 14.0243 31.8226C14.5112 32.6666 15.5545 33.1029 16.5281 33.1029V31.4121C16.2517 31.4121 16.2026 31.4123 15.9193 31.3605C15.7723 31.3336 15.6632 31.2864 15.5414 31.2142C15.3286 31.088 15.162 30.8717 15.162 30.5438H13.7275V30.8637V30.8637Z" fill="#1B2959"/>
  <path fill-rule="evenodd" clip-rule="evenodd" d="M16.0691 7.80333C16.0311 7.79636 16.0389 7.78707 16.0398 7.82373C16.0031 7.81365 16.0087 7.80508 16.0159 7.84158C15.9792 7.83635 15.9888 7.83042 15.9979 7.86845C15.9611 7.86578 15.9705 7.85845 15.9772 7.8968C15.9316 7.89809 15.9507 7.87599 15.9498 7.93086L15.9211 7.96879C15.9728 7.96879 15.9629 7.98122 15.9498 7.93086L15.9772 7.8968C16.0167 7.90165 16.0072 7.90887 15.9979 7.86845C16.0315 7.87119 16.0223 7.87737 16.0159 7.84158C16.0472 7.84621 16.0407 7.85386 16.0398 7.82373C16.082 7.83368 16.0755 7.8443 16.0691 7.80333L16.118 7.76785C16.2345 7.8566 16.3517 7.96786 16.4766 8.06758L16.7703 8.27574C16.857 8.33472 16.8392 8.28175 16.8441 8.37778C16.9325 8.34103 16.9397 8.3994 17.0393 8.46197C17.1125 8.50801 17.164 8.5197 17.2103 8.58901C16.7401 9.04835 16.094 8.93487 15.6064 8.55191C15.129 8.17706 15.0355 7.21882 15.345 6.97198C15.4917 7.11568 15.594 7.2536 15.7184 7.38847C15.9607 7.65116 16.1093 7.67488 16.0691 7.80333V7.80333ZM15.0519 6.74348L15.0475 6.7387C15.0111 6.82736 15.051 6.79287 14.9719 6.84525C14.9105 7.12233 14.7156 7.334 14.8659 7.94662C15.0385 8.65042 15.5614 9.08055 16.2727 9.16747C16.7457 9.22528 16.9983 9.11597 17.3182 8.92934C17.3182 8.88917 17.3096 8.89864 17.3502 8.90923C17.3474 8.87246 17.342 8.88404 17.3814 8.89518C17.3792 8.85711 17.3718 8.86675 17.411 8.87567C17.403 8.83801 17.3962 8.84628 17.4344 8.85399C17.427 8.81649 17.4205 8.82558 17.4591 8.83203C17.4546 8.79879 17.4478 8.80646 17.4814 8.81086C17.4906 8.78812 17.4806 8.78956 17.5081 8.756C17.6734 8.81455 17.8334 8.9673 18.013 9.02002C18.2242 8.67138 18.2262 8.24025 17.964 8.10421C18.0363 8.41772 18.0135 8.3388 17.9219 8.58968C17.6663 8.53252 17.0771 8.11266 16.8868 7.97538C16.5288 7.71724 15.93 7.09845 15.7019 6.6971C15.2638 5.92619 15.2522 5.85121 15.0492 4.90808L14.3628 5.05845C14.4383 5.42274 14.791 6.16522 15.0107 6.49924C15.0599 6.57398 15.1023 6.60397 15.1149 6.69173L15.0519 6.74348Z" fill="#1B2959"/>
  <path fill-rule="evenodd" clip-rule="evenodd" d="M24.4753 17.9082C24.244 17.7983 23.2501 17.7252 22.1851 17.0315C21.6711 16.6968 21.3011 16.3703 20.8884 15.955C20.7649 15.8306 20.6185 15.6603 20.4932 15.5587L20.7582 16.2027C20.8386 16.4204 20.9147 16.6578 20.9742 16.8988C21.0048 17.0224 21.0296 17.1423 21.0559 17.2768C21.1448 17.7321 20.9784 17.5545 21.7246 17.9932C22.3652 18.3697 23.0342 18.6155 23.8539 18.2197C23.9869 18.1555 24.3893 17.9755 24.4753 17.9082V17.9082Z" fill="#9DBED9"/>
  <path fill-rule="evenodd" clip-rule="evenodd" d="M8.31571 19.8652C8.37206 19.8944 8.4268 19.984 8.44597 20.0568C8.48112 20.0671 8.47718 20.0182 8.47826 20.0908C8.52612 20.0732 8.51402 20.0695 8.49788 20.1179C8.52918 20.1308 8.53153 20.0634 8.52723 20.1549C8.57134 20.1445 8.5625 20.1375 8.54791 20.181C8.5954 20.1659 8.58571 20.1599 8.56868 20.2068C8.61468 20.1874 8.59763 20.1885 8.58431 20.238C8.61137 20.2529 8.60201 20.2128 8.63999 20.2943C8.68737 20.2801 8.67625 20.2749 8.65996 20.3221C8.68994 20.3403 8.66898 20.3191 8.69797 20.3522C8.71873 20.3759 8.71485 20.3718 8.7321 20.4058C8.77547 20.3962 8.76718 20.3884 8.75437 20.4314C8.7994 20.4177 8.79023 20.4115 8.77533 20.4564C8.81883 20.442 8.80445 20.4402 8.79208 20.4865C8.82959 20.4788 8.82028 20.4732 8.81087 20.5118C8.85222 20.5014 8.84304 20.4951 8.83185 20.537C8.87413 20.5505 8.84577 20.4985 8.87147 20.5649C8.91112 20.5564 8.90325 20.5492 8.89271 20.5888C8.93404 20.579 8.92639 20.5714 8.91462 20.6125C8.95671 20.6016 8.94921 20.5938 8.93759 20.6357C8.98084 20.624 8.97219 20.6174 8.95841 20.6604C9.00122 20.6466 8.99044 20.6419 8.97897 20.6863C9.01801 20.6761 9.00959 20.6696 9.00057 20.7095C9.04379 20.6992 9.03622 20.6912 9.02297 20.7338C9.06274 20.7226 9.05133 20.7186 9.04155 20.7607C9.07917 20.7525 9.07107 20.7456 9.06316 20.7839C9.10372 20.7751 9.09709 20.7665 9.08654 20.8063C9.12645 20.7957 9.11791 20.789 9.10886 20.8298C9.14714 20.8215 9.13949 20.8141 9.13133 20.8526C9.17175 20.8437 9.16511 20.8351 9.15476 20.8749C9.19445 20.8643 9.18601 20.8575 9.17729 20.8982C9.21531 20.8902 9.20878 20.8817 9.20108 20.9192C9.24258 20.909 9.23639 20.8997 9.226 20.9405C9.26497 20.9303 9.25625 20.9238 9.24831 20.964C9.28645 20.957 9.28102 20.9475 9.27268 20.9841C9.31593 20.9729 9.31162 20.9616 9.29945 21.0034C9.34134 20.9898 9.33268 20.9831 9.32282 21.0263C9.36416 21.0175 9.35842 21.0076 9.34807 21.0477C9.38864 21.0355 9.38146 21.0278 9.37159 21.0689C9.41675 21.0575 9.40166 21.0519 9.40166 21.1036C9.50636 21.326 10.6741 22.0558 10.9976 22.2256C11.9051 22.7022 12.1563 22.6755 13.0084 22.937L13.0197 22.9148C12.9741 22.9323 12.9845 22.937 12.999 22.8903C12.9213 22.8823 12.8387 22.8129 12.7634 22.7607C12.5406 22.6062 12.3791 22.4363 12.2841 22.1424C11.2587 21.8763 11.0005 21.7142 10.1725 21.1799C9.95948 21.0425 9.51375 20.6458 9.33133 20.4693C9.26034 20.4006 9.20824 20.3461 9.14201 20.2705C8.94711 20.0481 8.80815 19.9269 8.61004 19.6373C7.66977 18.2628 7.26824 16.784 7.13799 15.1202C7.12917 15.0076 7.11571 14.9901 7.14752 14.9528C7.03696 15.8384 7.15813 16.9078 7.37933 17.7279C7.48677 18.1263 7.62538 18.5143 7.77928 18.855C7.86249 19.0392 7.94848 19.2055 8.03602 19.3732C8.09291 19.4821 8.30331 19.7867 8.31571 19.8652V19.8652Z" fill="#FEFEFE"/>
  <path fill-rule="evenodd" clip-rule="evenodd" d="M28.1384 22.2432L27.7621 22.0588C27.6723 22.0741 27.6361 22.103 27.5509 22.1372C27.5979 22.2675 27.6466 22.1787 27.5453 22.383C27.1421 23.1963 26.6885 23.1972 25.7937 22.961C25.5728 22.9027 25.4366 22.8288 25.2439 22.7591C25.1613 22.7293 25.0323 22.7204 24.9459 22.6919C24.5755 22.5701 24.2915 22.3646 23.9871 22.168C23.8896 22.1051 23.858 22.0564 23.7627 22.0138L23.5918 22.3624L27.0682 24.1186L28.0578 22.2376C28.1319 22.2297 28.0577 22.2283 28.1384 22.2432V22.2432Z" fill="#905646"/>
  <path fill-rule="evenodd" clip-rule="evenodd" d="M28.1381 22.2432C28.0574 22.2283 28.1316 22.2297 28.0575 22.2376L27.0679 24.1186L23.5915 22.3624L23.7624 22.0138C23.7308 21.9711 23.383 21.6819 23.3439 21.6729C23.3059 21.7873 23.1795 22.0057 23.1197 22.1243C22.9921 22.3769 23.1474 22.3928 23.3452 22.4921L27.0451 24.3546C27.5176 24.5917 27.4259 24.588 27.7355 23.9681L28.43 22.5843C28.5337 22.3522 28.2814 22.3537 28.1381 22.2432V22.2432Z" fill="#FEFEFE"/>
  <path fill-rule="evenodd" clip-rule="evenodd" d="M15.8762 0.770813C15.8323 0.831744 15.8427 0.78133 15.8517 0.879424L16.0852 1.76629C16.5925 3.51736 17.448 5.40028 18.6096 6.77166L19.211 7.4239C19.2727 7.3697 19.2655 7.45092 19.0867 7.25144L18.8081 6.91392C18.6083 6.66746 18.3335 6.26947 18.1701 5.99992C18.0161 5.74586 17.8646 5.48865 17.7278 5.20969C17.657 5.06533 17.3607 4.47955 17.3348 4.33794C17.3217 4.22765 17.0838 3.67068 17.0209 3.49404C16.72 2.64871 16.4187 1.57527 16.2931 0.680054L15.8762 0.770813V0.770813Z" fill="#FEFEFE"/>
  <path fill-rule="evenodd" clip-rule="evenodd" d="M26.188 17.3597C26.2358 17.3912 26.5912 17.4432 26.6984 17.4815C27.099 17.6247 28.0363 18.1168 28.4373 18.3417C28.5848 18.4245 28.7181 18.5107 28.8584 18.5835C29.0242 18.6696 29.1654 18.4723 29.3273 18.4642C29.3998 18.4605 29.6938 18.6035 29.7978 18.6304L29.8267 18.5661L29.8094 18.5479C29.6949 18.4134 29.3215 18.2699 29.121 18.1583C29.0448 18.1159 28.9705 18.073 28.8848 18.0297L26.8654 16.9944C26.8222 16.9715 26.7847 16.9424 26.751 16.9261C26.5409 16.8248 26.3965 16.9252 26.3037 17.1156C26.2656 17.1937 26.1989 17.2875 26.188 17.3597V17.3597Z" fill="#905646"/>
  <path fill-rule="evenodd" clip-rule="evenodd" d="M14.2283 16.2334L14.2309 16.2277L14.2735 16.2608L14.2675 16.2577C14.3117 16.2559 14.2992 16.2451 14.3067 16.2878C14.4191 16.3695 14.647 16.4859 14.7791 16.5555L16.289 17.3477C16.9797 17.6935 17.6496 18.0185 18.3612 18.3531C19.0593 18.6814 19.7567 19.0119 20.4348 19.3566C20.6912 19.487 22.3554 20.3924 22.4508 20.4114L22.5356 20.4667C22.5891 20.4517 22.579 20.438 22.579 20.4893L22.5787 20.4865C22.6212 20.4848 22.6103 20.474 22.6153 20.514L22.6234 20.509L22.6744 20.5201C20.2932 19.023 18.9466 18.3486 16.4056 17.187C16.0386 17.0192 15.6828 16.8589 15.3047 16.6926C14.9381 16.5315 14.5698 16.3916 14.1982 16.2054L14.2283 16.2334Z" fill="#FEFEFE"/>
  <path fill-rule="evenodd" clip-rule="evenodd" d="M15.2976 11.423C15.3134 11.4362 15.7048 11.5641 15.7812 11.5956C16.3022 11.8106 16.6348 11.9746 17.1078 12.2762C18.1284 12.9271 19.0822 14.0257 19.7507 15.018C19.9627 15.3326 20.589 16.3818 20.6585 16.7801C20.5329 16.197 20.0238 15.2544 19.7459 14.8143C19.5514 14.5063 19.3673 14.2317 19.1659 13.9579C19.0748 13.8342 18.5533 13.2103 18.5369 13.1508C18.4895 13.1668 18.498 13.1739 18.5144 13.1264L18.1024 12.7412C18.0762 12.712 18.0874 12.7229 18.0733 12.7018L18.058 12.6712C18.0129 12.6852 18.0201 12.6932 18.0352 12.6483C17.9919 12.6616 17.997 12.6716 18.0103 12.6287C17.9644 12.6447 17.9701 12.6546 17.9845 12.6081C17.9446 12.5933 17.6352 12.362 17.6024 12.2841C17.5539 12.3004 17.5561 12.3143 17.5739 12.2662C17.5159 12.2519 17.1585 12.0127 17.1211 11.945C17.0667 11.9342 17.0684 11.942 16.9995 11.8842C16.997 11.8821 16.99 11.8796 16.9882 11.8727C16.9865 11.8658 16.9806 11.8651 16.9772 11.861C16.9239 11.8801 16.9381 11.8885 16.9381 11.8309C16.8614 11.7469 16.3528 11.5176 16.1921 11.46C15.8345 11.3319 15.6642 11.267 15.2976 11.423V11.423Z" fill="#FEFEFE"/>
  <path fill-rule="evenodd" clip-rule="evenodd" d="M23.2871 23.254C23.3255 23.2227 23.3 23.2392 23.3721 23.2273C23.5074 23.3651 25.8334 24.4502 26.4244 24.7717C26.5281 24.828 26.4839 24.7823 26.4999 24.8549C26.5852 24.784 26.6496 24.6172 26.6806 24.514L24.2847 23.3077C24.0806 23.2054 23.6633 22.9659 23.473 22.9093L23.2871 23.254V23.254Z" fill="#52180E"/>
  <path fill-rule="evenodd" clip-rule="evenodd" d="M16.8435 8.3776C16.7957 8.79525 15.9819 8.82138 15.886 8.26137L16.3104 8.09744L15.8983 8.04987L15.9205 7.96861L15.9492 7.93068C15.9501 7.87581 15.931 7.89791 15.9766 7.89662C15.9699 7.85827 15.9605 7.8656 15.9973 7.86827C15.9882 7.83024 15.9786 7.83617 16.0153 7.8414C16.0081 7.8049 16.0025 7.81347 16.0392 7.82355C16.0383 7.78689 16.0305 7.79618 16.0685 7.80315C16.1087 7.6747 15.9601 7.65098 15.7178 7.38829C15.5934 7.25342 15.491 7.1155 15.3444 6.9718C15.0349 7.21864 15.1284 8.17688 15.6058 8.55173C16.0934 8.93469 16.7395 9.04816 17.2097 8.58883C17.1634 8.51952 17.1119 8.50783 17.0387 8.46179C16.9391 8.39922 16.9319 8.34085 16.8435 8.3776V8.3776Z" fill="#FEFEFE"/>
  <path fill-rule="evenodd" clip-rule="evenodd" d="M17.481 8.81062C17.4861 8.84565 17.4934 8.83847 17.4587 8.83179C17.4632 8.8693 17.4711 8.86157 17.434 8.85375C17.4411 8.8923 17.4486 8.88484 17.4106 8.87543C17.4193 8.91798 17.4248 8.90647 17.381 8.89495L17.3498 8.90899L17.3178 8.9291C16.9979 9.11573 16.7452 9.22504 16.2723 9.16723C15.561 9.08031 15.038 8.65018 14.8655 7.94639C14.7152 7.33376 14.91 7.12209 14.9715 6.84501C15.0017 6.78654 15.0023 6.78591 15.0471 6.73846L15.0515 6.74324C14.9396 6.77237 14.7581 7.05136 14.6898 7.21957C14.4301 7.85946 14.7326 8.65332 15.1705 9.01168C16.0093 9.69805 17.264 9.37602 17.4778 8.80625L17.481 8.81062V8.81062Z" fill="#FEFEFE"/>
  <path fill-rule="evenodd" clip-rule="evenodd" d="M20.8096 40.1633C20.8096 40.3313 20.9022 40.1599 20.9724 40.3883C21.004 40.491 21.031 40.5717 21.0656 40.6833C21.1031 40.8046 21.2323 41.1411 21.2422 41.2601H21.4926L21.7659 40.3004C21.7823 40.3241 21.7676 40.2942 21.7901 40.3446L21.8474 40.5157C21.8753 40.6152 21.8951 40.6788 21.9224 40.7602C21.9511 40.8454 21.9686 40.9192 21.9963 41.006C22.0217 41.0859 22.0595 41.1551 22.0619 41.2601H22.3351L22.6256 40.3178C22.6656 40.2318 22.6348 40.2572 22.7449 40.2547V40.0948H22.3579C22.3579 40.256 22.3471 40.2519 22.4717 40.2547C22.4172 40.3688 22.3888 40.5165 22.3439 40.652C22.2961 40.7964 22.2559 40.9054 22.2213 41.0544C22.1515 41.0032 22.194 41.0471 22.1274 40.8288C22.1026 40.7477 22.0834 40.6729 22.0533 40.5832C22.0238 40.4951 21.9969 40.4185 21.9756 40.3413C21.9492 40.2453 21.923 40.1829 21.9025 40.0948H21.652L21.4129 40.9515C21.3796 41.0608 21.4332 40.9977 21.356 41.0544C21.3527 40.9039 21.1434 40.4362 21.1283 40.2547C21.2744 40.2425 21.2333 40.0948 21.1511 40.0948C20.9159 40.0948 20.8096 40.0618 20.8096 40.1633V40.1633Z" fill="#000"/>
  <path fill-rule="evenodd" clip-rule="evenodd" d="M26.3198 40.1861C26.3198 40.2621 26.3607 40.253 26.4337 40.2547L26.7524 41.26H27.0029C27.0224 41.1758 27.045 41.1013 27.0684 41.0287C27.095 40.9459 27.1141 40.8547 27.1367 40.7774C27.1676 40.6721 27.2331 40.3716 27.2989 40.3232C27.3089 40.4439 27.4532 40.8597 27.501 41.0115L27.5721 41.26H27.8226C27.853 41.1965 27.88 41.1033 27.9038 41.0217L28.1015 40.3975C28.1212 40.3354 28.1345 40.3368 28.1413 40.2547C28.2659 40.2519 28.2552 40.2559 28.2552 40.0947H27.8681V40.2547H27.9592C27.953 40.3288 27.9288 40.3661 27.9038 40.4504L27.7722 40.8668C27.7529 40.9398 27.7442 41.0116 27.686 41.0544C27.6723 40.89 27.4276 40.2743 27.4127 40.0947H27.1623L26.889 41.0544C26.8328 40.9895 26.7183 40.5752 26.6811 40.4634C26.6634 40.4104 26.6387 40.3025 26.6158 40.2547H26.7069V40.0947H26.3198V40.1861V40.1861Z" fill="#000"/>
  <path fill-rule="evenodd" clip-rule="evenodd" d="M36.4286 26.9332C36.4286 26.3007 37.0066 26.2319 37.2776 26.4924C37.5655 26.7691 37.4546 27.4156 36.9496 27.4272C36.6496 27.4341 36.4286 27.1951 36.4286 26.9332V26.9332ZM36.2236 26.8875C36.2236 27.8371 37.6353 27.8712 37.6353 26.8646C37.6353 26.5154 37.3348 26.1791 37.0205 26.1791H36.8839C36.512 26.1791 36.2236 26.5158 36.2236 26.8875V26.8875Z" fill="#000"/>
  <path fill-rule="evenodd" clip-rule="evenodd" d="M9.40186 40.2543H9.49293V41.1226H9.40186V41.2596H9.78892V41.1226H9.67508V40.3685C9.69561 40.3922 9.67624 40.364 9.70386 40.4082L10.176 41.2596H10.3809V40.2543C10.5055 40.2515 10.4948 40.2556 10.4948 40.0943H10.1077V40.2543H10.2215V40.9855C10.201 40.9618 10.2204 40.9899 10.1928 40.9458C10.1779 40.922 10.174 40.9123 10.1599 40.8874L9.76882 40.1831C9.70179 40.0695 9.76442 40.0943 9.40186 40.0943V40.2543V40.2543Z" fill="#000"/>
  <path fill-rule="evenodd" clip-rule="evenodd" d="M23.6099 40.1861C23.6099 40.2621 23.6507 40.253 23.7237 40.2547V41.0544C23.7237 41.1304 23.6828 41.1213 23.6099 41.1229V41.26H24.0197V41.1229C23.8399 41.1229 23.9481 41.1324 23.8831 41.1001V40.3689C23.9403 40.411 24.3647 41.1768 24.384 41.26H24.6117V40.2547H24.7028V40.0947H24.3157C24.3157 40.2643 24.3028 40.2547 24.4523 40.2547V40.9858C24.4149 40.9584 24.405 40.9429 24.3798 40.8986L24.1942 40.5594C24.1488 40.4695 24.1184 40.4283 24.0729 40.3384C24.025 40.2437 23.9752 40.1974 23.9514 40.0947H23.6099V40.1861V40.1861Z" fill="#000"/>
  <path fill-rule="evenodd" clip-rule="evenodd" d="M33.1958 40.1862C33.1958 40.2622 33.2367 40.2531 33.3096 40.2547V41.123H33.1958V41.2601H33.5829V41.123H33.4918V40.7117H34.1066V41.123H33.9927V41.2601H34.4026V41.123H34.2887V40.2547C34.3868 40.2525 34.4026 40.2587 34.4026 40.1633C34.4026 40.0618 34.2963 40.0948 34.061 40.0948C33.9909 40.0948 33.9927 40.1264 33.9927 40.1862C33.9927 40.2622 34.0336 40.2531 34.1066 40.2547V40.5746H33.4918V40.2547H33.5829V40.0948H33.1958V40.1862V40.1862Z" fill="#000"/>
  <path fill-rule="evenodd" clip-rule="evenodd" d="M14.4565 40.186C14.4565 40.262 14.4974 40.253 14.5704 40.2546V41.1229H14.4565V41.26H14.8436V41.1229H14.7298V40.7116H15.3673V41.1229H15.2535V41.26H15.6405V41.1229H15.5495V40.2546H15.6405V40.0946C15.2869 40.0946 15.2535 40.0604 15.2535 40.186C15.2535 40.262 15.2943 40.253 15.3673 40.2546V40.5745H14.7298V40.2546H14.8436V40.0946H14.4565V40.186Z" fill="#000"/>
  <path fill-rule="evenodd" clip-rule="evenodd" d="M6.28211 41.1229H6.07719V40.7574C6.25416 40.7574 6.48703 40.7084 6.48703 40.9173C6.48703 41.0302 6.39465 41.1229 6.28211 41.1229V41.1229ZM6.30488 40.5974H6.07719V40.2547H6.35042C6.42636 40.2547 6.48703 40.3664 6.48703 40.4375C6.48703 40.527 6.40232 40.5974 6.30488 40.5974ZM5.80396 40.2547H5.89503V41.1229H5.80396V41.26C6.09473 41.26 6.66918 41.3584 6.66918 40.9402C6.66918 40.7641 6.59921 40.7658 6.53257 40.666C6.82309 40.4707 6.61514 40.0947 6.30488 40.0947H5.80396V40.2547V40.2547Z" fill="#000"/>
  <path fill-rule="evenodd" clip-rule="evenodd" d="M5.16712 41.1229C4.91703 41.1229 4.96219 41.1763 4.96219 40.7574C5.27472 40.7574 5.37203 40.7181 5.37203 40.963C5.37203 41.0461 5.26101 41.1229 5.16712 41.1229V41.1229ZM5.21265 40.5974H4.96219V40.2547C5.18611 40.2547 5.37203 40.204 5.37203 40.4603C5.37203 40.4959 5.34349 40.5349 5.32715 40.5524C5.29546 40.5861 5.27773 40.5974 5.21265 40.5974V40.5974ZM4.68896 40.1861C4.68896 40.2621 4.72985 40.253 4.80281 40.2547V41.0544C4.80281 41.1304 4.76193 41.1213 4.68896 41.1229V41.26C5.13715 41.26 5.55419 41.3469 5.55419 40.8945C5.55419 40.7516 5.46735 40.7341 5.41758 40.666C5.70563 40.4724 5.50498 40.0947 5.21265 40.0947H4.68896V40.1861V40.1861Z" fill="#000"/>
  <path fill-rule="evenodd" clip-rule="evenodd" d="M8.83285 40.5519C8.67405 40.589 8.68157 40.5747 8.49131 40.5747V40.2548C8.60424 40.2548 9.01949 40.2059 8.83285 40.5519V40.5519ZM8.19531 40.1634C8.19531 40.2588 8.21111 40.2526 8.30916 40.2548V41.1231H8.19531V41.2602H8.58239V41.1231H8.49131V40.7347H8.62792C8.9064 40.7347 8.78972 41.2602 8.9467 41.2602H9.12885V41.1002C9.03839 41.0982 9.0369 41.136 8.98332 40.9035C8.9311 40.6769 8.9124 40.7939 8.87839 40.6661C9.11635 40.6023 9.16222 40.0949 8.67347 40.0949C8.37485 40.0949 8.19531 40.0507 8.19531 40.1634V40.1634Z" fill="#000"/>
  <path fill-rule="evenodd" clip-rule="evenodd" d="M30.2808 40.5745H30.0076V40.2546C30.3413 40.2546 30.3947 40.2304 30.3947 40.4602C30.3947 40.5135 30.3339 40.5745 30.2808 40.5745ZM29.7344 40.186C29.7344 40.262 29.7753 40.2529 29.8482 40.2546V41.0543C29.8482 41.1303 29.8073 41.1212 29.7344 41.1228V41.2599H30.1214V41.1228C29.9765 41.1196 30.0076 41.1358 30.0076 40.7344C30.2181 40.7344 30.2743 40.712 30.3417 40.9247C30.3664 41.0025 30.4111 41.1829 30.4174 41.2599H30.6679V41.1H30.5541C30.5524 41.0231 30.528 40.9339 30.5094 40.8706C30.4861 40.7909 30.4521 40.7544 30.4174 40.6887C30.4207 40.6842 30.7531 40.3965 30.4762 40.1728C30.3328 40.0568 29.9614 40.0946 29.7344 40.0946V40.186V40.186Z" fill="#000"/>
  <path fill-rule="evenodd" clip-rule="evenodd" d="M17.7808 40.5746H17.5076V40.2547C17.8413 40.2547 17.8947 40.2305 17.8947 40.4603C17.8947 40.5136 17.8339 40.5746 17.7808 40.5746ZM17.2344 40.1861C17.2344 40.2621 17.2753 40.253 17.3482 40.2547V41.0544C17.3482 41.1304 17.3073 41.1213 17.2344 41.1229V41.26H17.6215V41.1229H17.5076V40.7345C17.6817 40.7345 17.7895 40.7109 17.8438 40.9227L17.9174 41.26H18.1679V41.1001H18.0541C18.0497 40.9038 17.9391 40.7472 17.9174 40.666C18.2053 40.5131 18.0959 40.0947 17.7353 40.0947H17.2344V40.1861V40.1861Z" fill="#000"/>
  <path fill-rule="evenodd" clip-rule="evenodd" d="M35.2219 41.1227C34.6343 41.1227 34.7227 40.2316 35.1763 40.2316C35.7209 40.2316 35.6461 41.1227 35.2219 41.1227ZM34.6299 40.6657C34.6299 40.8568 34.6762 40.9922 34.7713 41.095C35.1244 41.4769 35.7456 41.2602 35.7456 40.6657C35.7456 39.8762 34.6299 39.8756 34.6299 40.6657Z" fill="#000"/>
  <path fill-rule="evenodd" clip-rule="evenodd" d="M7.03372 40.7344C7.03372 40.0075 7.7851 40.1651 7.7851 40.6202C7.7851 40.7751 7.79176 40.8698 7.68585 41.0004C7.47941 41.2549 7.03372 41.0911 7.03372 40.7344ZM6.85156 40.6659C6.85156 41.5146 7.96725 41.4356 7.96725 40.7344V40.6202C7.96725 40.3505 7.72787 40.0718 7.42079 40.0718C7.09126 40.0718 6.85156 40.341 6.85156 40.6659Z" fill="#000"/>
  <path fill-rule="evenodd" clip-rule="evenodd" d="M28.9153 40.2321C29.0414 40.2321 29.1558 40.2864 29.2287 40.3746C29.4029 40.5855 29.3646 41.1233 28.9153 41.1233C28.7146 41.1233 28.5651 40.9134 28.5596 40.6865C28.5569 40.5774 28.5951 40.4587 28.6507 40.3779C28.6932 40.3159 28.8234 40.2321 28.9153 40.2321ZM28.3916 40.5977C28.3916 40.8349 28.4289 41.0943 28.6805 41.2218C29.2665 41.5188 29.7739 40.7631 29.3524 40.2505C29.0531 39.8866 28.3916 40.119 28.3916 40.5977Z" fill="#000"/>
  <path fill-rule="evenodd" clip-rule="evenodd" d="M16.4601 40.2318C16.9051 40.2318 16.9962 41.1229 16.4146 41.1229C15.9677 41.1229 15.9014 40.2318 16.4601 40.2318ZM15.8909 40.6431C15.8909 40.888 15.9652 41.1004 16.1647 41.2137C16.5487 41.432 17.0066 41.1315 17.0066 40.6888C17.0066 39.8638 15.8909 39.8879 15.8909 40.6431Z" fill="#000"/>
  <path fill-rule="evenodd" clip-rule="evenodd" d="M12.1338 40.1633C12.1338 40.2587 12.1496 40.2525 12.2476 40.2547V41.1229H12.1338V41.26H12.9762V40.9173C12.7686 40.9173 12.7941 40.8919 12.7941 41.1229H12.4298V40.7574C12.8101 40.7574 12.7713 40.7918 12.7713 40.5974H12.4298V40.2547H12.7941C12.7941 40.4586 12.773 40.4375 12.9762 40.4375V40.0947H12.2021C12.1496 40.0947 12.1338 40.1106 12.1338 40.1633V40.1633Z" fill="#000"/>
  <path fill-rule="evenodd" clip-rule="evenodd" d="M30.9187 40.1861C30.9187 40.2621 30.9596 40.253 31.0325 40.2547V41.1229H30.9187V41.26H31.3058V41.1229C31.2163 41.1209 31.2524 41.1292 31.1919 41.1001V40.7116C31.2813 40.7356 31.6473 41.1135 31.6473 41.1686V41.26H31.9661V41.1229C31.7859 41.1229 31.7529 41.0347 31.653 40.9344C31.565 40.846 31.4632 40.7653 31.3969 40.666C31.4423 40.5979 31.4563 40.5941 31.5238 40.542C31.5859 40.494 31.611 40.4604 31.67 40.4146C31.7374 40.3623 31.7733 40.3104 31.8497 40.2749L31.8994 40.2563C31.9686 40.2219 31.9661 40.2881 31.9661 40.0947C31.4354 40.0947 31.8483 40.0984 31.5634 40.3304C31.451 40.422 31.3404 40.5433 31.1919 40.6431V40.2547H31.3058V40.0947H30.9187V40.1861V40.1861Z" fill="#000"/>
  <path fill-rule="evenodd" clip-rule="evenodd" d="M24.9302 40.1862C24.9302 40.2622 24.9711 40.2531 25.044 40.2548V41.123H24.9302V41.2601H25.7726C25.7726 40.8723 25.8115 40.9174 25.5905 40.9174V41.123H25.2034V40.7574C25.5837 40.7574 25.5449 40.7919 25.5449 40.5975H25.2034V40.2548H25.5905V40.4376H25.7726C25.7726 39.9869 25.9246 40.0948 24.9302 40.0948V40.1862V40.1862Z" fill="#000"/>
  <path fill-rule="evenodd" clip-rule="evenodd" d="M13.6593 40.2773C13.7309 40.36 13.7918 40.6306 13.8414 40.7343H13.5226C13.5322 40.6191 13.6221 40.4374 13.6593 40.2773ZM13.1128 41.1227V41.2598H13.4999V41.1227H13.386C13.3953 41.0113 13.444 40.9964 13.4543 40.8714H13.8869C13.9054 40.9101 13.9508 41.0689 13.9552 41.1227H13.8869V41.2598H14.274V41.1227C14.1102 41.1227 14.1542 41.0989 14.0756 40.8877C14.0408 40.7941 14.0088 40.7011 13.9808 40.6172L13.84 40.2102C13.7962 40.0831 13.843 40.0945 13.6137 40.0945C13.5247 40.0945 13.4256 40.4777 13.3806 40.6146L13.2351 41.0398C13.2056 41.1174 13.2087 41.1206 13.1128 41.1227V41.1227Z" fill="#000"/>
  <path fill-rule="evenodd" clip-rule="evenodd" d="M16.0683 7.80281C16.0746 7.84378 16.0811 7.83316 16.0389 7.82321C16.0398 7.85334 16.0463 7.84569 16.0151 7.84107C16.0214 7.87685 16.0306 7.87067 15.997 7.86793C16.0064 7.90835 16.0159 7.90113 15.9763 7.89628L15.949 7.93034C15.9621 7.9807 15.9719 7.96827 15.9202 7.96827L15.8981 8.04953L16.3102 8.0971L15.8857 8.26103C15.9816 8.82105 16.7955 8.79491 16.8433 8.37726C16.8384 8.28123 16.8561 8.3342 16.7694 8.27522L16.4758 8.06706C16.3509 7.96734 16.2337 7.85608 16.1172 7.76733L16.0683 7.80281V7.80281Z" fill="#231714"/>
  <path fill-rule="evenodd" clip-rule="evenodd" d="M3.39062 40.1635C3.39062 40.2589 3.40642 40.2527 3.50447 40.2549C3.50447 40.5665 3.46227 40.9 3.60778 41.1109C3.82644 41.4278 4.39247 41.2778 4.39247 40.849V40.2549C4.51705 40.2521 4.50631 40.2562 4.50631 40.0949H4.11924V40.2549H4.23309C4.23309 40.4731 4.27221 40.9205 4.16784 41.0348C4.07238 41.1394 3.88034 41.1545 3.76339 41.0461C3.64228 40.9339 3.68662 40.4934 3.68662 40.2549C3.81121 40.2521 3.80047 40.2562 3.80047 40.0949C3.5305 40.0949 3.39062 40.0562 3.39062 40.1635V40.1635Z" fill="#000"/>
  <path fill-rule="evenodd" clip-rule="evenodd" d="M19.4199 40.1633C19.4199 40.2587 19.4357 40.2525 19.5338 40.2547V41.1229H19.4199V41.26H20.2624V40.9173H20.103C20.103 41.1665 20.1529 41.1229 19.7615 41.1229C19.6583 41.1229 19.6932 41.0057 19.6932 40.7574H20.0347V40.5974C19.6259 40.5974 19.6932 40.6649 19.6932 40.2547H20.103V40.4375H20.2624V40.0947H19.4882C19.4358 40.0947 19.4199 40.1106 19.4199 40.1633V40.1633Z" fill="#000"/>
  <path fill-rule="evenodd" clip-rule="evenodd" d="M32.1943 40.3688C32.1943 40.5475 32.2088 40.6476 32.4525 40.7266C32.6619 40.7946 32.7863 40.7812 32.7863 40.9629C32.7863 41.1775 32.3802 41.2142 32.3536 40.8944H32.1487C32.1487 41.1134 32.1158 40.9539 32.2125 41.0817C32.2495 41.1307 32.244 41.1397 32.2897 41.187C32.4253 41.3276 32.7863 41.328 32.9278 41.1278C32.9968 41.0301 33.0019 40.8861 32.9459 40.78C32.8083 40.5194 32.3764 40.6796 32.3764 40.3688C32.3764 40.2769 32.5113 40.2281 32.6003 40.2365C32.6986 40.2459 32.7834 40.3079 32.7863 40.4374C33.0116 40.4374 32.9912 40.4534 32.9912 40.2774C32.8504 40.2657 32.8645 40.0718 32.5813 40.0718C32.4053 40.0718 32.1943 40.1875 32.1943 40.3688Z" fill="#000"/>
  <path fill-rule="evenodd" clip-rule="evenodd" d="M18.419 40.4145C18.419 40.6679 18.6153 40.7093 18.8198 40.7663C19.1419 40.856 19.0456 41.1229 18.8289 41.1229C18.6602 41.1229 18.5914 41.0513 18.5784 40.8944C18.4372 40.8944 18.3735 40.8611 18.3735 40.9858C18.3735 41.0913 18.34 40.9641 18.4276 41.0686L18.5157 41.1857C18.6704 41.3631 19.2159 41.3163 19.2159 40.9401C19.2159 40.4993 18.6012 40.7044 18.6012 40.3688C18.6012 40.2568 18.8628 40.1629 18.9734 40.3151C19.055 40.4274 18.9643 40.4374 19.1476 40.4374C19.2361 40.4374 19.2159 40.3617 19.2159 40.2774C19.0812 40.2626 19.1735 40.2368 19.0479 40.149C18.8318 39.9979 18.419 40.0776 18.419 40.4145V40.4145Z" fill="#000"/>
  <path fill-rule="evenodd" clip-rule="evenodd" d="M11.132 40.3685C11.132 40.6793 11.3014 40.6965 11.5508 40.7708C11.8365 40.8559 11.7758 41.1226 11.5418 41.1226C11.3433 41.1226 11.3273 41.0488 11.2913 40.8941H11.0864C11.0864 41.1283 11.0892 40.9671 11.193 41.1298C11.3722 41.4108 11.9289 41.2949 11.9289 40.9398C11.9289 40.487 11.3141 40.7073 11.3141 40.3685C11.3141 40.2929 11.5593 40.1004 11.7204 40.3721C11.7582 40.436 11.6925 40.4371 11.8606 40.4371C11.949 40.4371 11.9289 40.3614 11.9289 40.2771C11.8112 40.2642 11.9035 40.2912 11.8403 40.2289C11.4867 39.8806 11.132 40.1909 11.132 40.3685Z" fill="#000"/>
  <path fill-rule="evenodd" clip-rule="evenodd" d="M1.25017 40.3688C1.25017 40.6833 1.38428 40.6864 1.669 40.7711C1.93832 40.8511 1.91421 41.1228 1.61447 41.1228C1.47519 41.1228 1.41266 41.0344 1.40955 40.8944H1.20463C1.20463 41.1134 1.17169 40.9539 1.26838 41.0817C1.40509 41.2624 1.40905 41.2828 1.70555 41.2828C1.84558 41.2828 1.98136 41.1521 2.02027 41.0491C2.17326 40.6443 1.59989 40.6006 1.48536 40.5206C1.20735 40.3265 1.80827 40.0286 1.84216 40.4374C2.04119 40.4374 2.04708 40.48 2.04708 40.2774C1.91912 40.2667 1.88176 40.0718 1.66001 40.0718C1.46233 40.0718 1.25017 40.1765 1.25017 40.3688V40.3688Z" fill="#000"/>
  <path fill-rule="evenodd" clip-rule="evenodd" d="M36.5196 40.5743H36.2464V40.2544H36.4741C36.5804 40.2544 36.6335 40.3077 36.6335 40.4144C36.6335 40.4914 36.5932 40.5743 36.5196 40.5743ZM35.9731 40.1859C35.9731 40.2619 36.014 40.2528 36.087 40.2544V41.1227H35.9731V41.2598H36.3602V41.1227H36.2464V40.7343C36.4292 40.7343 36.8156 40.7508 36.8156 40.4144C36.8156 40.0191 36.3137 40.0945 35.9731 40.0945V40.1859Z" fill="#000"/>
  <path fill-rule="evenodd" clip-rule="evenodd" d="M2.18408 40.4146C2.38731 40.4146 2.36624 40.4358 2.36624 40.2318H2.59392V41.0544C2.59392 41.1304 2.55304 41.1213 2.48008 41.1229V41.26H2.88992V41.1229C2.69373 41.1229 2.75331 41.1629 2.75331 40.3004C2.75331 40.2029 2.8407 40.2318 3.04931 40.2318V40.4146H3.20869V40.0947H2.18408V40.4146V40.4146Z" fill="#000"/>
  <path fill-rule="evenodd" clip-rule="evenodd" d="M25.659 22.3775C25.8439 22.3798 26.2704 22.1642 26.4217 22.0773C26.6674 21.9362 26.8583 21.7868 27.0507 21.6122L27.3234 21.338C27.3814 21.2996 27.6746 21.2709 27.774 21.2414C28.0208 21.1682 28.3475 20.976 28.3768 20.7559L28.4041 20.497C28.3205 20.8224 28.1269 20.9729 27.8113 21.0779C27.6254 21.1398 27.5003 21.1325 27.3028 21.1651C27.2083 21.1807 27.2122 21.2256 27.1488 21.2979C26.825 21.6671 26.2229 22.2378 25.6162 22.3733L25.659 22.3775Z" fill="#FEFEFE"/>
  <path fill-rule="evenodd" clip-rule="evenodd" d="M36.9522 26.8652H36.8383V26.6824C36.9285 26.6824 37.0205 26.6856 37.0205 26.7738V26.7966C37.0205 26.8493 37.0047 26.8652 36.9522 26.8652V26.8652ZM36.6334 26.591V27.1851C36.6334 27.2739 36.6918 27.2536 36.8383 27.2536V27.0251C36.987 27.0251 36.9265 26.989 37.066 27.2536H37.271C37.2512 27.1686 37.1849 27.0752 37.1343 26.9794C37.1839 26.9051 37.2482 26.8789 37.2482 26.7509C37.2482 26.4835 36.9109 26.5224 36.7017 26.5224C36.6493 26.5224 36.6334 26.5383 36.6334 26.591Z" fill="#000"/>
  <path fill-rule="evenodd" clip-rule="evenodd" d="M30.4862 19.3131C30.6773 19.0879 30.6124 18.4028 30.5344 18.1157C30.4087 18.1792 30.2395 18.3664 30.1984 18.471C30.1384 18.6241 30.2451 18.5077 30.3596 18.9705C30.3748 19.0321 30.3901 19.0924 30.4057 19.1509C30.4246 19.2216 30.4335 19.2697 30.4862 19.3131Z" fill="#9DBED9"/>
  <path fill-rule="evenodd" clip-rule="evenodd" d="M22.9265 40.163C22.9265 40.2584 22.9423 40.2522 23.0403 40.2544V41.1226H22.9265C22.9265 41.2932 22.8921 41.2597 23.3135 41.2597V41.1226H23.2225V40.2544H23.3135V40.0944C23.0544 40.0944 22.9265 40.0576 22.9265 40.163V40.163Z" fill="#000"/>
  <path fill-rule="evenodd" clip-rule="evenodd" d="M28.0698 21.8663L28.0942 21.8795L28.2322 21.9297C28.3114 21.7784 28.3883 21.6124 28.4598 21.4656C28.368 21.5301 28.3229 21.6346 28.1681 21.7509C28.1603 21.7567 28.1167 21.7873 28.1149 21.789C28.0537 21.848 28.0906 21.7961 28.0698 21.8663Z" fill="#905646"/>
</svg>
