<svg xmlns="http://www.w3.org/2000/svg" fill="none" viewBox="0 0 71 48" class="design-iconfont">
  <path fill-rule="evenodd" clip-rule="evenodd" d="M32.3991 29.6211C32.0701 28.8114 31.5613 28.2445 31.6513 27.0922C31.7266 26.1263 32.3885 25.6001 33.125 25.2832C35.0869 24.4392 43.0211 24.9279 46.5374 22.1174C47.0223 21.7296 47.7199 20.7179 47.3273 19.7219C46.7973 21.1348 45.9518 21.7689 44.4916 22.3383C41.8093 23.3843 37.3824 23.2962 34.4713 23.1116C32.7585 23.003 31.3988 22.5676 30.2035 21.8047C29.4783 21.3417 27.6475 19.9488 28.0881 18.5442C28.4632 17.3483 30.3716 16.9628 31.9143 16.8546C33.9189 16.7139 40.3958 16.5863 42.0288 15.8939C40.7601 15.9873 39.5242 16.1827 38.1817 16.2476C36.8168 16.3136 35.436 16.3438 34.0637 16.3131C31.58 16.2574 28.7845 16.0821 26.5029 15.5024C25.4024 15.223 24.2632 14.8219 23.6105 14.2229C22.6673 13.3574 23.0591 12.1434 23.7391 11.3349C24.7315 10.1551 27.4154 9.15778 29.4087 8.63855C28.4239 8.64249 26.3228 9.24516 25.4424 9.5663C23.8219 10.1574 21.804 11.2576 21.6161 13.1379C21.5499 13.8016 21.6061 14.8195 21.7543 15.4304C22.2861 17.6202 24.2865 19.8661 25.8911 21.1892L28.7113 23.3468C29.3076 23.6989 29.0487 23.6839 29.3884 25.1505C29.7491 26.7088 30.7537 29.3117 32.3991 29.6211V29.6211Z" fill="#BB2E32"/>
  <path fill-rule="evenodd" clip-rule="evenodd" d="M40.3418 33.6031C40.4518 33.5221 41.5732 32.9721 41.8262 33.5454C41.473 33.81 40.518 33.7294 40.3418 33.6031ZM48.2862 32.6721C48.032 31.9571 48.3698 31.3421 48.8911 31.9875C48.8532 32.1761 48.7503 32.2992 48.6702 32.4332C48.562 32.614 48.55 32.6823 48.2862 32.6721ZM41.8031 31.3309C41.9211 31.7126 41.5756 31.7961 41.2433 31.8329C41.0546 31.8537 40.3666 31.9681 40.3193 31.9226C39.9567 31.5739 41.5503 31.293 41.8031 31.3309ZM41.2939 35.334C41.4562 35.4136 41.4061 35.2988 41.488 35.559L41.5545 36.7156C41.5998 37.3339 41.7617 39.0266 42.6857 38.7708C42.9713 38.6917 43.3064 38.2551 43.477 38.0027C43.8312 37.4785 43.7226 37.4322 43.7328 36.6612L43.7573 31.8697C44.8012 32.3827 44.3678 31.3387 46.5471 31.7501C46.5882 32.1384 46.4477 32.5327 46.3315 32.8086C45.6723 32.9719 45.4677 32.76 44.881 32.7776C44.6477 33.1918 44.4224 34.0829 44.2785 34.6444C44.0819 35.4123 43.8916 35.9715 44.3043 36.6322C44.8607 37.5226 45.2649 36.9061 46.0743 36.9029C48.1735 36.8945 50.1694 38.7244 51.8939 38.3985C52.7027 38.2457 53.3255 37.4017 53.9435 36.753C54.2303 36.4518 54.2083 36.3173 54.3863 35.9628C53.5503 35.9113 52.8346 36.0648 51.9623 35.9364C51.2806 35.8362 50.6334 35.6489 49.9766 35.4932C48.349 35.1076 47.2948 35.0954 45.5492 35.0825C45.5769 34.7296 45.957 34.344 46.225 34.2137C46.576 34.043 47.1541 34.0586 47.576 34.0977C47.8073 34.1191 47.9959 34.1874 48.1889 34.2172C48.7735 34.307 48.1923 34.0209 48.7833 34.1266C49.0406 34.1727 49.0925 34.301 49.3547 34.154C50.2941 33.6272 49.6401 33.7554 49.9334 33.1709C50.2411 32.5577 51.0344 32.3578 51.223 32.0304C51.5064 31.5384 51.1417 31.0817 50.8821 30.899C50.6577 30.7412 50.5235 30.8322 50.2044 30.7685C49.9867 30.7249 49.8046 30.6426 49.5771 30.5835C48.2763 30.2451 44.9056 29.9213 43.7133 30.4127C43.6661 30.1851 43.6555 29.9546 43.5366 29.7785C43.1511 29.2081 42.734 29.657 42.4538 29.708C41.5417 29.8739 39.9015 29.6567 38.7881 29.9365C38.5112 30.9613 39.2034 32.1385 38.7946 33.5206C38.5502 34.3471 37.8728 35.8306 37.2537 36.0053C36.8963 35.7931 37.147 35.575 36.6038 35.1785L36.5574 35.4114C36.2355 35.3499 36.1154 35.3422 35.9658 35.5532C35.569 36.1125 35.6437 36.2801 35.5524 36.6418C35.4751 36.9481 35.4337 36.9116 35.5934 37.1805L35.4871 37.3056C35.4266 37.4069 35.3562 37.2105 35.6339 37.5151C35.8085 37.7066 35.7194 37.7924 35.8879 38.0175C36.107 38.3102 36.383 38.4806 36.598 38.751C38.7791 38.4967 39.5118 35.9581 39.7771 35.7081C39.9713 35.5252 40.9957 35.1932 41.2939 35.334V35.334Z" fill="#312B2B"/>
  <path fill-rule="evenodd" clip-rule="evenodd" d="M59.6219 33.4661C59.7162 33.2429 60.2467 32.9015 60.5432 33.123C60.4722 33.356 59.948 33.5057 59.6219 33.4661ZM66.2665 32.4535C66.4824 32.8994 66.1955 32.2163 66.3357 32.5829C66.1132 32.7737 65.7883 32.907 65.4063 32.7889C65.5091 32.5037 65.6941 32.7534 65.8143 32.4037C65.8968 32.1642 65.6997 32.1293 66.0376 31.9936C66.263 32.1789 66.0683 32.044 66.2665 32.4535ZM60.7384 31.357C60.7518 31.7752 60.6458 31.756 60.2551 31.8303C60.0832 31.8629 59.6481 32.0078 59.5515 31.9121C59.1161 31.4812 60.4469 31.3329 60.7384 31.357ZM66.4346 31.0643C66.4981 30.875 66.8081 30.4952 67.0846 30.5279C67.4994 30.5771 67.1895 31.1386 67.0755 31.2755C66.7958 31.2768 66.5863 31.2169 66.4346 31.0643V31.0643ZM57.9112 29.9598C57.912 30.925 58.6807 30.7676 58.3741 33.598C58.2638 34.6158 57.9833 36.3438 57.2171 36.5826C57.0893 36.4324 56.9364 36.2251 56.8189 36.1004C56.8792 36.7109 56.7985 36.3541 56.5148 36.6565C56.3985 36.7805 56.3407 37.0802 56.2366 37.237C55.8766 37.2627 55.7887 37.0826 55.7064 37.075L55.4253 37.0068C55.4189 37.1992 55.3877 37.164 55.474 37.292L55.6031 37.4057C55.6087 37.3949 55.6301 37.4219 55.64 37.4337C55.5463 37.5284 55.5319 37.4929 55.4635 37.5971L55.6805 37.7317L55.7634 38.2402C55.9599 38.3491 56.1849 38.4532 56.395 38.5746C57.0561 38.9567 57.0065 38.8071 57.3939 38.6266C57.5148 38.5702 57.6169 38.5414 57.7176 38.4862C57.8937 38.3896 58.1419 38.2146 58.2707 38.1127C59.0026 37.5337 59.1278 36.4236 59.3367 35.482C59.4252 35.0833 59.485 34.7689 60.4666 34.8196C60.6864 35.4608 60.6525 36.2218 60.9325 36.8908C61.1449 37.3982 61.4109 38.2337 61.6952 38.6038C61.9511 37.9064 62.2073 38.4589 62.5254 36.8611C62.7308 35.8295 62.4129 35.57 62.4013 34.6608C63.0052 35.0157 63.0593 34.6666 63.5805 34.5073C63.8575 34.4227 64.6766 34.2221 64.9131 34.2955C64.8216 34.4817 64.6389 34.61 64.4704 34.7573C64.195 34.998 63.2718 35.839 63.3135 36.1996C63.4062 36.3694 63.5116 36.4795 63.7165 36.5655C64.2916 36.4623 65.2143 35.3844 65.5734 35.0009C65.8269 35.0044 65.8263 35.0199 65.9652 35.161C65.8871 35.5347 64.853 36.3906 64.541 36.6733C64.2979 36.8935 64.0205 37.1435 63.8174 37.3965C63.6551 37.5988 63.6965 37.666 63.5121 37.8423C63.347 38.0002 63.3252 37.9967 63.2012 38.2228C63.5275 38.1127 63.4766 38.1452 63.6584 37.9403C63.8826 38.177 63.9286 37.9915 64.1762 37.8666C64.7796 37.5622 64.7707 37.763 65.6714 36.9889C66.3789 36.3809 66.7198 36.0721 67.1367 35.2848C67.3403 35.2812 67.4582 35.3339 67.603 35.391L66.6784 36.5488C66.3561 36.914 66.0252 37.2336 65.6611 37.5557C65.1127 38.041 65.0478 38.3274 64.7167 38.455C64.6223 38.4913 64.6248 38.4829 64.5489 38.5278C64.3475 38.6466 64.2341 38.8466 63.9354 38.9261C63.7708 38.9698 63.517 39.0578 63.456 39.285C63.8031 39.3959 64.0992 39.2604 64.3574 39.5439L64.4128 39.6114C64.5834 39.5437 64.6815 39.5562 64.8079 39.4742C64.9727 39.3675 64.8634 39.343 65.1221 39.2644C65.2966 39.2114 65.4014 39.2223 65.5357 39.1108L66.3223 38.5035C66.7807 38.1242 67.9861 36.987 68.2775 36.5232C68.4386 36.267 68.4307 36.0241 68.7863 36.112C69.4331 36.4241 68.4433 37.8996 67.4678 38.545C67.1019 38.7872 66.8888 38.7893 66.3859 38.8088C66.1633 39.1618 66.4063 38.9353 65.9862 39.3589C66.0019 39.4987 66.1316 39.841 66.2118 39.934C66.5475 39.9576 67.6159 39.7679 67.8617 39.6243C68.2336 39.4073 68.3406 39.4206 68.4657 39.2483C68.5694 39.1054 68.7324 39.0434 68.8899 38.9206C69.0426 38.8017 69.1469 38.7015 69.2747 38.5527C70.0377 37.6636 70.6937 36.7012 69.9252 35.5063C69.5594 34.9377 69.0446 34.6817 68.488 34.3421L68.2808 34.1735C68.4644 34.1904 68.6483 34.2587 68.8197 34.2369L69.1373 34.2071C69.3976 34.2959 69.7243 34.381 70.0417 34.3791L70.7404 33.8947C70.957 33.7052 71.1016 33.5566 70.9122 33.2091C70.2489 32.973 68.065 32.9484 67.752 32.7135C67.8183 32.483 67.9627 32.361 68.0302 32.1292C68.1492 31.7211 68.1905 31.8545 68.358 31.5251C68.9799 30.3012 68.7025 29.8439 67.3246 29.6056C66.6736 29.4931 66.266 29.3416 65.8952 29.7689L65.2885 30.5526C65.0279 31.0457 64.7477 31.4633 64.4956 32.0126C64.2308 32.5898 64.2515 32.8095 63.6611 33.0312C63.2299 33.1932 62.7052 33.2372 62.2806 33.409C62.2222 32.4779 62.9982 29.9527 62.0236 29.7324C61.782 29.6778 61.3858 29.8497 61.0993 29.8801C60.0412 29.9927 58.9715 29.924 57.9112 29.9598V29.9598Z" fill="#312B2B"/>
  <path fill-rule="evenodd" clip-rule="evenodd" d="M23.3232 33.1901C25.3971 32.7078 24.9954 33.2383 24.676 34.418C24.441 34.4748 24.1813 34.5582 23.8917 34.5418C23.9242 34.1099 24.3142 34.1317 23.9474 33.7393C23.5832 33.35 23.5039 33.6705 23.3232 33.1901ZM21.1239 31.9567L20.9866 31.658C20.8574 31.3482 20.6722 31.0004 20.3286 30.9231C20.2556 31.1829 20.2774 31.7081 19.7731 32.0497C19.7869 31.5049 20.223 30.1977 18.4558 30.334C18.344 30.8344 18.5145 32.0536 18.4773 32.6745C18.3212 32.589 17.0273 31.307 16.8285 32.7976C16.6844 33.8778 17.1591 34.3653 18.1539 34.405C18.0624 34.9242 17.3998 35.7476 17.0617 35.9335C16.7233 35.908 16.6573 35.7233 16.3654 35.6048L16.2716 35.9389C16.1633 37.0111 16.0367 37.2506 16.6466 37.5923C16.9648 37.7705 17.0302 37.7514 17.3689 37.6018C17.8983 37.3679 18.1662 37.3255 18.5407 36.9777C18.7994 36.7374 19.1051 36.2333 19.383 36.039C19.5916 36.2536 19.9069 36.6708 20.4433 36.4487C21.0878 36.1818 21.0172 34.9985 20.1026 34.4473C19.8592 34.3005 19.8508 34.3555 19.7769 34.0231C19.5585 33.0421 19.8782 33.2271 20.2497 32.9077C20.4439 32.7406 20.4296 32.6386 20.7664 32.5757C20.965 35.1124 21.5601 33.5784 23.0929 33.3258C22.9395 33.5839 22.2051 34.0219 22.1767 34.8759C22.1534 35.5717 22.6309 36.3497 23.0389 36.5663C23.6764 36.5435 23.5663 35.7668 24.3729 35.9212C24.6807 36.2607 24.3945 36.7003 24.673 37.2296C24.8203 37.5097 25.2108 37.9828 25.4181 38.1871C26.887 38.2335 26.604 37.8889 28.0618 38.476C29.4015 39.0156 29.5477 38.858 30.5229 39.1401C30.8568 39.2367 31.1078 39.4567 31.8669 39.2633C32.2604 39.1631 32.0475 39.0842 32.3338 38.9769C32.6434 38.8609 32.6771 38.9865 32.8385 38.674C33.1828 38.0076 32.9839 38.7078 33.1987 37.8843L33.5974 37.1202C33.7516 36.9369 33.8396 36.8828 33.754 36.5107C33.5439 36.5339 33.5461 36.5781 33.3535 36.6473C33.1107 36.7346 33.0377 36.6858 32.7935 36.7226C32.6235 36.7483 32.502 36.8181 32.3477 36.8584C31.8771 36.9813 32.1692 36.7929 31.8513 37.059C31.1783 37.6225 28.3062 36.7676 27.8733 36.5836C27.5002 36.425 27.8855 36.563 27.513 36.5674C27.39 36.5689 27.184 36.4782 27.0271 36.4426C26.6641 36.3601 26.2905 36.3662 26.0028 36.2091C25.9291 35.6386 26.2446 35.6693 26.7908 35.7118C27.392 35.7587 27.3891 35.8739 27.7271 36.0963C27.9867 36.2672 28.5612 36.1738 28.7216 35.9658C28.9799 35.6308 29.3375 33.6545 28.1279 33.0409C27.7348 32.8414 27.3773 33.0132 27.3125 33.4284C27.1911 34.2069 27.9356 34.3116 26.3726 34.237C26.2778 33.9679 26.3321 33.797 26.4054 33.4934C26.4529 33.2963 26.5169 33.0007 26.6366 32.8345C27.2679 32.8347 28.2711 32.8666 28.912 33.0161C29.9663 33.2621 29.9065 33.2269 30.2665 32.827C30.4887 32.5801 30.4308 32.7684 30.7022 32.6414C30.8491 32.0419 30.7463 31.8351 30.3622 31.5715C29.2798 30.8283 26.8614 31.1893 26.5397 30.8092C26.3201 30.5512 26.5578 28.8666 25.6863 29.3615C25.5477 29.4402 25.3254 29.8733 25.2393 30.0793C25.1458 30.3027 25.0322 30.865 24.9412 30.9948C24.7649 31.2462 23.446 31.3766 23.0424 31.4685C22.3943 31.616 21.7734 31.8226 21.1239 31.9567V31.9567Z" fill="#312B2B"/>
  <path fill-rule="evenodd" clip-rule="evenodd" d="M37.5044 14.4601L37.3045 14.2802C36.7856 13.9231 36.3207 13.7108 35.8154 13.0506C35.2672 12.3341 35.2995 11.5037 35.6806 10.6301C35.9958 9.90759 36.4246 9.34368 36.7801 8.66589C37.1575 7.94637 37.4792 7.34529 37.7126 6.47841C38.4771 3.6388 36.2878 1.98645 34.3324 0.90815C33.9025 0.671213 32.6432 0.0661061 32.1838 0C32.45 0.180902 33.1499 1.07027 33.3943 1.49477C34.6783 3.72451 33.7848 5.99038 33.1539 8.22632C32.7105 9.79795 32.6745 11.5851 33.6379 12.6781C34.5809 13.7483 35.994 14.3983 37.5044 14.4601V14.4601Z" fill="#BB2E32"/>
  <path fill-rule="evenodd" clip-rule="evenodd" d="M9.24902 35.5157C9.26958 35.5992 9.34413 35.4679 9.25321 35.5877C8.05573 35.6951 7.81419 35.0169 4.77251 35.4502C3.09858 35.6887 3.03065 35.8409 1.76235 36.1638C0.96601 36.3667 0.738486 35.7963 0.261199 36.6914C0.197845 36.8103 0.0318433 37.1017 0.00854239 37.2518C-0.082453 37.8373 0.558703 38.8327 1.68438 38.766C2.31404 38.7287 2.16289 38.4114 2.63896 38.1327C2.72873 38.0801 2.823 38.0377 2.90037 37.9879C3.55561 37.5658 3.01664 37.8845 3.83811 37.7108C4.84394 37.498 8.41651 37.0592 9.10854 37.3568C9.614 37.5742 10.8829 37.8301 11.4886 37.8534L11.5466 38.0275C12.2816 38.101 13.6404 38.2047 14.0698 37.7286L14.3793 37.2855C14.4947 37.0933 14.418 36.9292 14.4954 36.705C14.6126 36.3657 14.9824 36.3524 14.8504 35.6389C14.6089 35.7207 14.575 35.7493 14.4481 35.9541C14.275 35.9836 14.2101 35.9604 14.0706 36.0019C13.8277 36.0741 14.2171 36.1414 13.7807 36.0664C13.4717 36.0132 13.5932 35.9058 13.1262 35.9791C12.6677 36.0511 11.8794 35.874 11.5126 35.7614L10.6059 35.5802C10.3401 35.5184 9.48501 35.4004 9.22542 35.438L9.24902 35.5157Z" fill="#312B2B"/>
  <path fill-rule="evenodd" clip-rule="evenodd" d="M32.7073 18.5483C34.4006 18.5524 38.6306 18.1572 40.3932 17.9355C42.5966 17.6584 45.3232 17.2024 47.1595 16.3959C49.6611 15.2972 50.4277 13.5644 47.7153 12.1183C46.4732 11.4561 42.7404 10.4359 41.1299 10.4155L43.8601 11.1653C44.7155 11.4392 45.6786 11.7536 46.3411 12.2165C47.372 12.9367 46.8923 13.8277 46.1732 14.4333C44.5112 15.8333 40.6843 16.8188 38.5259 17.3282C37.5806 17.5513 36.6292 17.7636 35.6664 17.9502C35.0919 18.0615 33.0417 18.3684 32.7073 18.5483Z" fill="#BB2E32"/>
  <path fill-rule="evenodd" clip-rule="evenodd" d="M35.9125 43.4122C35.9125 43.0438 35.9811 43.0602 36.3149 43.0895C36.3951 43.39 36.3921 45.3988 36.3063 45.6931C36.0087 45.7326 35.9126 45.7142 35.9124 45.3739L35.9125 43.4122V43.4122ZM36.4973 45.4878C37.0681 44.3731 36.5237 44.1855 36.537 43.7512C36.5466 43.4325 36.8454 43.4622 36.9678 43.6385C36.9679 43.6387 37.9743 46.2645 36.9872 45.506C36.8392 45.9288 36.6328 46.1886 36.3558 46.3837C35.2588 47.1566 34.7446 46.6772 35.1719 46.4236C35.2345 46.3864 35.6004 46.2704 35.7218 46.2141C36.1938 45.9951 36.2818 45.9084 36.4973 45.4878V45.4878ZM33.898 46.5808C33.8197 46.3174 33.85 45.8727 33.85 45.5471C33.8224 45.4403 33.685 45.4221 33.5824 45.3544C33.5946 44.9257 33.9795 44.3009 34.0814 43.7006L33.7868 43.6217C33.5542 43.5392 33.4309 43.1871 34.0064 43.1853L35.1959 43.2124C35.3026 43.6944 35.0763 43.64 34.6447 43.64C34.4818 43.6809 34.3965 44.1946 34.3816 44.3617L34.975 44.4138L35.0275 44.8858C35.0531 44.7283 35.2076 44.346 35.2626 44.0827C35.3261 43.7793 35.3107 43.5502 35.5168 43.5342C35.7908 43.513 35.6323 43.5535 35.6853 43.5969C35.8291 43.8241 35.6572 44.3685 35.5868 44.6381C35.4807 45.0442 35.4788 45.3291 35.013 45.208C34.9961 46.4934 35.2932 46.8081 33.898 46.5808V46.5808ZM32.4598 45.2586C32.6079 46.84 34.0668 48.1653 35.8609 47.9753C37.407 47.8115 38.7317 46.3966 38.5667 44.6395C38.4191 43.0677 36.9668 41.7236 35.1699 41.909C33.6016 42.0707 32.2941 43.4883 32.4598 45.2586Z" fill="#E6212C"/>
  <path fill-rule="evenodd" clip-rule="evenodd" d="M20.9781 43.5001L21.7601 43.4468L21.8296 43.0919C22.5125 43.0173 22.0746 43.4033 22.3984 43.4582C22.6917 43.4582 22.979 43.4297 23.2164 43.5129L23.2283 43.8301C22.9672 43.9078 22.4979 43.8135 22.2735 43.9315L22.2662 44.1045C22.2825 44.1135 22.3047 44.1068 22.3131 44.1255C22.3522 44.2133 23.0768 44.144 23.3254 44.2213L23.3609 44.5856C23.1718 44.6305 23.0137 44.5959 22.8771 44.6816L22.8745 44.8548C23.1673 45.0204 23.4298 44.7997 23.3241 45.3151L22.8823 45.3959C22.8293 46.1619 23.1916 47.0158 21.9596 46.7829C21.6588 46.726 21.6198 46.6246 21.7027 46.3606C22.0264 46.3061 22.0976 46.4249 22.3767 46.3273C22.4525 46.0836 22.4283 45.6741 22.4007 45.379L21.6538 45.3784C21.8032 45.6015 22.0153 45.7768 21.9827 46.1208C21.6908 46.2431 21.6811 46.2373 21.4969 45.9816C21.3666 45.8006 21.2228 45.6446 21.2855 45.3829C21.1667 45.373 20.7103 45.1767 20.6745 45.7171C20.651 46.0737 20.7253 46.4691 20.6347 46.7841C20.0885 46.889 20.2624 46.6352 20.2333 45.7268C19.8611 45.8037 19.5562 46.1347 19.5588 45.5333C19.6964 45.4061 20.0218 45.3083 20.2304 45.1838C20.2438 44.9389 20.2801 44.5763 20.1933 44.3906C19.8141 44.4727 20.2061 45.131 19.5831 44.8838C19.5042 44.6502 19.6567 44.2944 19.694 43.998C19.7422 43.6149 19.6163 43.2546 20.0501 43.323C20.0948 43.4116 20.1007 43.4528 20.115 43.5897L20.1715 43.8852C20.1752 43.8946 20.1835 43.9126 20.1933 43.9237C20.3325 43.6471 20.0928 43.1655 20.3851 43.0703C20.7815 42.9414 20.6781 43.5674 20.6781 43.8161C20.6964 43.9249 20.7956 43.9898 20.956 44.1533L21.0204 44.2161C21.1785 44.1455 21.2252 44.1808 21.4128 44.179C21.4607 44.1786 21.6012 44.1763 21.6408 44.1632C21.8113 44.1067 21.7091 44.202 21.7933 44.0469C21.8608 43.5508 20.8231 44.2837 20.9781 43.5001V43.5001ZM18.3975 45.374C18.5894 46.8887 20.0501 48.2159 21.8755 47.963C23.4141 47.7499 24.718 46.3484 24.4756 44.5182C24.273 42.9874 22.8279 41.673 21.0065 41.9203C19.4565 42.1307 18.1652 43.5403 18.3975 45.374Z" fill="#E6212C"/>
  <path fill-rule="evenodd" clip-rule="evenodd" d="M51.519 43.7312L50.5657 43.7964L50.5232 44.0675C50.9245 44.0474 51.4079 43.9081 51.1575 44.4229L50.7213 45.2018L51.3873 45.2252C51.8419 45.8458 50.7572 45.6633 50.2458 45.6701C50.5222 46.1064 51.8719 46.3186 51.4338 46.7179C51.2805 46.7969 51.4289 46.7921 51.1996 46.7523L50.5906 46.4237C50.3674 46.2883 50.0098 46.02 49.8062 45.9583L49.7855 46.9012C49.1685 47.0095 49.3745 46.5554 49.3386 46.0088C49.0644 46.1233 48.1976 46.9314 47.6873 46.7766C47.5619 46.2064 48.5358 46.2363 48.9765 45.6724C48.6957 45.6644 47.8596 45.7895 47.7219 45.5695C47.4068 45.0662 48.7195 45.2197 49.3433 45.2135C49.3778 44.5471 49.3854 45.0647 49.286 44.546L48.4928 44.5632C48.5886 44.8559 48.6762 44.808 48.5908 45.1034C48.2016 45.2282 48.2168 44.9921 48.0089 44.5464C47.9218 44.3598 47.8513 44.4324 47.9836 44.2068C48.1818 44.0945 49.7442 44.1152 50.1464 44.0931L50.0587 43.7843L49.1522 43.782C49.065 43.9643 49.1448 44.0362 48.9139 44.065C48.6251 44.1008 48.696 43.9637 48.6255 43.7808C48.0438 43.7808 47.7187 43.8859 47.6966 43.5837C47.6692 43.2079 48.3458 43.3536 48.6299 43.3323C48.7024 43.1585 48.625 43.0466 48.8698 43.0207C49.1473 42.9915 49.0731 43.1542 49.1522 43.334C50.432 43.3507 49.9813 43.3346 50.1126 43.1492C50.4099 42.7295 50.5691 43.3229 50.661 43.3435C50.964 43.3435 51.2387 43.3169 51.4869 43.3991L51.519 43.7312V43.7312ZM52.5966 45.5471C52.9825 43.6748 51.6658 42.2521 50.2206 41.9552C48.3527 41.5715 46.8832 42.8698 46.5842 44.317C46.1961 46.1947 47.503 47.6254 48.9561 47.9294C50.8423 48.3241 52.2973 46.9992 52.5966 45.5471Z" fill="#E6212C"/>
  <path fill-rule="evenodd" clip-rule="evenodd" d="M26.5163 44.5259C26.4943 44.2022 26.5196 44.2156 26.7267 44.082C27.8489 43.3578 27.5366 42.8707 28.1029 43.0919C28.7537 43.3462 29.1276 43.0384 29.6515 43.2904C29.6709 43.6232 29.4235 43.8334 29.2697 44.0799C29.5195 44.1162 29.7944 44.0951 29.9918 44.1707C30.0837 44.3951 30.0896 44.911 30.069 45.2064C30.0392 45.6313 29.818 45.5844 29.4212 45.5797C28.7224 45.5716 28.0177 45.5764 27.3171 45.579L27.3314 46.2419C27.6467 46.3479 29.4339 46.493 29.7418 46.2732C30.0045 46.0857 29.7243 45.7444 30.0609 45.7022C30.1675 45.6888 30.1999 45.7114 30.2486 45.7553C30.456 45.942 30.2461 46.5193 30.0904 46.6182C29.8714 46.7574 29.4288 46.7658 29.1293 46.7676C26.4445 46.7836 26.8461 46.763 26.8451 44.6815C26.6884 44.5514 26.7031 44.6692 26.5163 44.5259V44.5259ZM25.419 45.2585C25.5816 46.8397 26.9856 48.1461 28.7816 47.979C30.3788 47.8304 31.7006 46.426 31.5244 44.622C31.371 43.0501 29.9532 41.729 28.145 41.9075C26.5798 42.0619 25.2351 43.4717 25.419 45.2585Z" fill="#E6212C"/>
  <path fill-rule="evenodd" clip-rule="evenodd" d="M42.039 43.7863C41.4835 43.9136 41.4579 43.5927 41.2848 44.1818C41.624 44.1818 42.0249 44.0973 41.9189 44.5328C41.8212 44.5861 41.7143 44.6021 41.552 44.6127L41.5588 45.0706C41.8073 45.0808 42.0495 45.0439 42.0215 45.3123C41.9914 45.6014 41.7706 45.4653 41.5642 45.5472L41.5567 46.1079C41.7358 45.9843 41.7302 45.7658 42.0348 45.9193L42.0631 44.8786C42.8828 44.7124 42.9511 45.0514 43.0064 44.624C42.7043 44.4203 42.1918 44.7892 42.1918 44.1625C42.1918 43.0645 41.9973 43.2372 43.8667 43.2372C44.0116 43.2372 44.1119 43.2665 44.2065 43.3044C44.2464 43.409 44.4387 44.469 44.0315 44.5452C43.9309 44.5639 43.8483 44.5482 43.7504 44.5537C43.5161 44.5668 43.6165 44.5142 43.4619 44.624L43.4614 44.7972C43.6993 44.8862 44.0634 44.8118 44.3344 44.911C44.4776 45.2631 44.461 46.459 44.3483 46.8346C44.1995 46.8985 44.0345 46.9469 43.8125 46.9245C43.5132 46.8942 43.489 46.8577 43.5051 46.56C43.6541 46.5014 43.8181 46.5039 43.9542 46.4127C43.8706 46.2373 43.9469 46.3565 43.7736 46.2713C43.6813 46.226 43.6512 46.2406 43.534 46.1641C43.3899 46.0702 43.3311 45.9547 43.2307 45.836C43.1697 45.9766 43.063 46.1197 42.9519 46.2538C42.8159 46.4181 42.7938 46.5054 42.4838 46.5076C42.4822 46.7139 42.483 46.9969 42.2014 46.9176C41.9674 46.8516 42.0502 46.5877 42.0397 46.3164C41.7992 46.5319 41.6674 46.9644 41.1883 46.8251C41.083 46.4373 41.1791 45.9477 41.1059 45.5216C40.7077 45.501 40.5732 45.5371 40.6687 45.1301L41.115 45.0604L41.1231 44.6321C40.9073 44.6911 40.8916 44.7252 40.6596 44.6452C40.6098 44.3633 40.8473 44.0161 40.9594 43.752C41.1178 43.379 41.1007 43.0367 41.5219 43.0931C41.578 43.1848 41.5965 43.2442 41.5929 43.3998L42.0256 43.4333L42.039 43.7863V43.7863ZM39.4932 45.2587C39.6484 46.836 41.0609 48.1666 42.8831 47.9758C44.4466 47.812 45.778 46.4333 45.5996 44.6341C45.4422 43.0453 43.9936 41.7115 42.1852 41.9116C40.6158 42.0852 39.3178 43.4764 39.4932 45.2587Z" fill="#E6212C"/>
  <path fill-rule="evenodd" clip-rule="evenodd" d="M11.9862 31.4497C11.9363 31.1387 11.78 31.5198 11.8473 30.8165C11.5484 30.8618 11.4732 30.8897 11.1732 30.7976L11.3643 30.6544C9.87773 30.4083 7.05611 30.4815 5.50866 30.5493C4.74765 30.5827 3.56197 30.7945 2.918 30.7266C2.83804 30.5477 2.99079 30.914 2.88045 30.6136C2.84573 30.5191 2.86127 30.5535 2.83979 30.5139C2.47223 30.7153 1.81227 30.9573 1.67551 31.2905C1.29424 32.2197 3.4246 33.1018 3.75667 33.0263C3.87645 32.999 4.1834 32.7659 4.39813 32.6713C5.16585 32.3327 5.98785 32.1661 6.10001 32.1091C6.38968 31.9619 6.16725 32.0059 6.72693 31.9857C7.24701 31.967 8.1961 31.8621 8.66623 31.9651C9.34417 32.1136 9.76937 32.083 10.4632 31.9558C10.8307 31.8885 11.7892 31.5887 11.9862 31.4497V31.4497Z" fill="#312B2B"/>
  <path fill-rule="evenodd" clip-rule="evenodd" d="M11.8327 33.9505C11.1529 33.9752 11.2873 34.0011 11.2012 33.5839C11.1712 33.4381 11.1606 33.5848 11.1772 33.4384C11.1907 33.3186 11.2571 33.374 11.287 33.1636C10.6661 32.9412 6.47586 32.8783 5.60222 32.944C5.07377 32.9838 2.23022 33.3556 1.93119 33.799C1.67381 34.1807 1.66095 34.4569 1.96142 34.8825C2.57486 35.7514 3.17314 35.1027 3.96987 34.7834C4.51233 34.566 5.95973 34.4013 6.61246 34.4015C7.50544 34.4016 8.55656 34.6798 9.45068 34.5713C10.2039 34.4796 11.4562 34.4541 11.8327 33.9505Z" fill="#312B2B"/>
  <path fill-rule="evenodd" clip-rule="evenodd" d="M30.0627 6.55433L30.1404 6.63596C31.3838 8.28111 29.5604 10.1946 29.9652 11.7766C30.3581 13.3115 32.1737 14.2565 33.6938 14.6909C33.6835 14.6768 33.668 14.639 33.6622 14.6493L33.3249 14.317C32.1117 13.3417 31.6633 12.3779 31.7744 10.6726C31.8504 9.50601 31.8864 9.15262 31.4143 8.19555C31.1787 7.71797 30.8332 7.22918 30.4855 6.86912L30.1257 6.47968C30.1154 6.49194 30.0904 6.49156 30.0888 6.51057C30.087 6.53064 30.0737 6.54131 30.0627 6.55433V6.55433Z" fill="#BB2E32"/>
  <path fill-rule="evenodd" clip-rule="evenodd" d="M38.5568 14.0411C38.4327 13.6798 38.2201 13.5156 38.1354 13.0525C37.9544 12.0618 38.9478 11.5798 39.7627 10.421C40.6679 9.13383 39.8501 6.88676 39.1109 6.14081C39.2773 7.24985 39.3833 7.51609 38.8398 8.46558C38.2775 9.44801 36.7718 10.7327 37.2676 12.4138C37.4735 13.1119 38.022 13.8242 38.5568 14.0411Z" fill="#BB2E32"/>
  <path fill-rule="evenodd" clip-rule="evenodd" d="M43.3669 45.4029C43.4226 45.266 43.3581 45.2942 43.9559 45.3068L43.9518 45.896C43.7804 45.8056 43.8155 45.7977 43.6722 45.6848C43.6191 45.6428 43.4158 45.5466 43.4134 45.5443C43.4087 45.54 43.2723 45.6362 43.3669 45.4029V45.4029ZM42.5007 45.3165L42.9171 45.3312C42.8334 45.6144 42.6807 45.9627 42.4868 46.0729L42.5007 45.3165ZM42.9989 43.6108C43.2727 43.6123 43.5506 43.5971 43.8195 43.6421C43.8668 44.0599 43.9335 44.1453 43.4675 44.1447C43.1817 44.1444 42.8418 44.164 42.599 44.1028C42.5922 43.6265 42.5155 43.6081 42.9989 43.6108V43.6108ZM42.0296 43.4332L41.5968 43.3997C41.6005 43.2441 41.582 43.1846 41.5259 43.0929C41.1046 43.0366 41.1217 43.3789 40.9634 43.7519C40.8513 44.016 40.6137 44.3632 40.6636 44.6451C40.8955 44.7251 40.9112 44.691 41.127 44.632L41.1189 45.0603L40.6726 45.13C40.5771 45.537 40.7116 45.5008 41.1099 45.5215C41.183 45.9475 41.0869 46.4372 41.1923 46.825C41.6713 46.9643 41.8031 46.5318 42.0437 46.3162C42.0542 46.5876 41.9713 46.8515 42.2053 46.9175C42.487 46.9967 42.4861 46.7138 42.4877 46.5075C42.7977 46.5053 42.8198 46.418 42.9559 46.2537C43.0669 46.1196 43.1736 45.9765 43.2347 45.8359C43.335 45.9546 43.3939 46.07 43.538 46.164C43.6551 46.2405 43.6852 46.2259 43.7775 46.2712C43.9508 46.3564 43.8745 46.2372 43.9581 46.4126C43.8221 46.5038 43.658 46.5013 43.509 46.5598C43.493 46.8576 43.5171 46.8941 43.8164 46.9243C44.0385 46.9468 44.2035 46.8984 44.3522 46.8345C44.465 46.4589 44.4815 45.263 44.3383 44.9109C44.0673 44.8117 43.7033 44.8861 43.4654 44.7971L43.4658 44.6239C43.6204 44.5141 43.5201 44.5666 43.7544 44.5535C43.8523 44.5481 43.9348 44.5638 44.0354 44.5451C44.4427 44.4689 44.2504 43.4089 44.2105 43.3043C44.1158 43.2664 44.0155 43.237 43.8706 43.237C42.0012 43.2371 42.1957 43.0644 42.1957 44.1624C42.1957 44.7891 42.7083 44.4201 43.0103 44.6239C42.9551 45.0513 42.8867 44.7123 42.067 44.8785L42.0387 45.9192C41.7341 45.7657 41.7398 45.9842 41.5607 46.1078L41.5681 45.5471C41.7745 45.4652 41.9954 45.6013 42.0255 45.3122C42.0534 45.0438 41.8112 45.0806 41.5627 45.0705L41.5559 44.6126C41.7183 44.6019 41.8251 44.586 41.9229 44.5327C42.0288 44.0972 41.6279 44.1817 41.2887 44.1817C41.4618 43.5926 41.4874 43.9135 42.043 43.7862L42.0296 43.4332V43.4332Z" fill="#FEFEFE"/>
  <path fill-rule="evenodd" clip-rule="evenodd" d="M49.7451 44.531L50.6275 44.4846C50.5266 44.8082 50.3511 44.8997 50.5073 45.2128L49.8112 45.2165L49.7451 44.531V44.531ZM51.4823 43.399C51.2341 43.3169 50.9594 43.3435 50.6564 43.3435C50.5645 43.3229 50.4053 42.7295 50.108 43.1492C49.9767 43.3346 50.4274 43.3507 49.1476 43.334C49.0685 43.1542 49.1428 42.9915 48.8652 43.0207C48.6204 43.0465 48.6978 43.1585 48.6253 43.3323C48.3412 43.3536 47.6646 43.2079 47.692 43.5837C47.7141 43.8859 48.0392 43.7808 48.6209 43.7808C48.6914 43.9637 48.6205 44.1008 48.9093 44.0649C49.1402 44.0362 49.0604 43.9643 49.1476 43.782L50.0541 43.7843L50.1418 44.0931C49.7396 44.1152 48.1772 44.0945 47.979 44.2068C47.8467 44.4324 47.9173 44.3598 48.0043 44.5464C48.2122 44.9921 48.197 45.2282 48.5862 45.1033C48.6716 44.8079 48.584 44.8559 48.4882 44.5632L49.2814 44.546C49.3808 45.0647 49.3732 44.5471 49.3387 45.2135C48.7149 45.2196 47.4022 45.0661 47.7173 45.5695C47.855 45.7895 48.6911 45.6644 48.9719 45.6724C48.5312 46.2363 47.5573 46.2064 47.6827 46.7766C48.193 46.9314 49.0598 46.1232 49.334 46.0088C49.3699 46.5554 49.1639 47.0095 49.7809 46.9012L49.8016 45.9583C50.0052 46.0199 50.3629 46.2883 50.586 46.4237L51.195 46.7523C51.4243 46.7921 51.2759 46.7969 51.4292 46.7179C51.8673 46.3186 50.5176 46.1064 50.2412 45.6701C50.7526 45.6633 51.8373 45.8458 51.3827 45.2252L50.7167 45.2018L51.1529 44.4229C51.4033 43.908 50.9199 44.0474 50.5187 44.0675L50.5611 43.7964L51.5144 43.7312L51.4823 43.399V43.399Z" fill="#FEFEFE"/>
  <path fill-rule="evenodd" clip-rule="evenodd" d="M20.7812 44.3538C20.9824 44.3986 20.7212 44.2487 20.8639 44.4212L20.9057 44.4901C21.1154 44.762 21.7091 44.5665 22.225 44.6276C22.6289 44.6754 21.9723 44.5734 22.3232 44.6477L22.409 44.8548C21.9587 45.076 21.1196 44.8026 20.6814 44.9049C20.6779 44.6415 20.6138 44.4859 20.7812 44.3538V44.3538ZM20.9793 43.5001C20.8243 44.2837 21.862 43.5508 21.7945 44.0469C21.7103 44.202 21.8125 44.1067 21.642 44.1632C21.6025 44.1763 21.462 44.1785 21.414 44.179C21.2265 44.1808 21.1797 44.1455 21.0216 44.2161L20.9572 44.1533C20.7969 43.9898 20.6976 43.9249 20.6794 43.8161C20.6794 43.5674 20.7828 42.9414 20.3863 43.0703C20.094 43.1655 20.3337 43.6471 20.1945 43.9237C20.1847 43.9126 20.1765 43.8946 20.1728 43.8852L20.1163 43.5897C20.1019 43.4528 20.096 43.4116 20.0514 43.323C19.6176 43.2546 19.7434 43.6149 19.6952 43.9979C19.6579 44.2944 19.5055 44.6502 19.5844 44.8838C20.2073 45.131 19.8153 44.4727 20.1945 44.3906C20.2813 44.5763 20.2451 44.9389 20.2316 45.1838C20.023 45.3083 19.6977 45.4061 19.5601 45.5333C19.5575 46.1347 19.8624 45.8037 20.2345 45.7268C20.2637 46.6352 20.0898 46.889 20.636 46.7841C20.7266 46.4691 20.6523 46.0737 20.6758 45.7171C20.7116 45.1767 21.168 45.373 21.2868 45.3829C21.224 45.6446 21.3678 45.8006 21.4982 45.9816C21.6824 46.2373 21.692 46.2431 21.9839 46.1208C22.0166 45.7768 21.8044 45.6014 21.655 45.3784L22.4019 45.379C22.4295 45.6741 22.4537 46.0836 22.378 46.3273C22.0989 46.4249 22.0276 46.3061 21.704 46.3606C21.6211 46.6245 21.6601 46.726 21.9608 46.7829C23.1929 47.0158 22.8306 46.1619 22.8836 45.3959L23.3254 45.3151C23.4311 44.7997 23.1686 45.0204 22.8757 44.8548L22.8783 44.6816C23.0149 44.5959 23.173 44.6305 23.3622 44.5856L23.3267 44.2213C23.0781 44.144 22.3534 44.2133 22.3143 44.1255C22.3059 44.1068 22.2838 44.1135 22.2675 44.1045L22.2748 43.9315C22.4991 43.8135 22.9685 43.9078 23.2295 43.8301L23.2176 43.5129C22.9803 43.4297 22.6929 43.4582 22.3997 43.4582C22.0758 43.4033 22.5137 43.0173 21.8308 43.0919L21.7613 43.4468L20.9793 43.5001V43.5001Z" fill="#FEFEFE"/>
  <path fill-rule="evenodd" clip-rule="evenodd" d="M28.6751 44.5558L29.5856 44.5726L29.5922 44.7971L29.5974 44.9131L29.5653 45.119L29.3599 45.1257L28.8956 45.1272L28.6819 45.1178L28.6751 44.5558V44.5558ZM27.3172 44.5548L28.2223 44.5539L28.19 45.1257H27.3265L27.3172 44.5548V44.5548ZM27.5154 44.088C27.8763 43.5872 28.0985 43.5953 28.888 43.6588C28.7756 44.2369 28.2435 44.1287 27.5154 44.088ZM26.5149 44.526C26.7017 44.6693 26.6871 44.5515 26.8437 44.6816C26.8447 46.7631 26.4431 46.7837 29.128 46.7677C29.4275 46.7659 29.8701 46.7575 30.0891 46.6183C30.2447 46.5194 30.4547 45.9421 30.2473 45.7554C30.1985 45.7115 30.1662 45.6889 30.0596 45.7023C29.723 45.7445 30.0031 46.0858 29.7404 46.2733C29.4326 46.4931 27.6453 46.348 27.3301 46.242L27.3158 45.5791C28.0164 45.5765 28.721 45.5717 29.4198 45.5798C29.8166 45.5845 30.0378 45.6314 30.0676 45.2065C30.0883 44.9111 30.0823 44.3952 29.9905 44.1708C29.793 44.0952 29.5181 44.1163 29.2684 44.08C29.4222 43.8335 29.6696 43.6233 29.6501 43.2905C29.1263 43.0385 28.7523 43.3463 28.1015 43.092C27.5353 42.8708 27.8476 43.3579 26.7253 44.0821C26.5183 44.2157 26.4929 44.2023 26.5149 44.526V44.526Z" fill="#FEFEFE"/>
  <path fill-rule="evenodd" clip-rule="evenodd" d="M34.2961 46.2272C34.2543 45.9664 34.2747 45.6969 34.2717 45.4318C34.2659 44.9022 34.1841 44.754 34.4701 44.8136C34.5869 44.838 34.5883 44.9671 34.5929 45.1379C34.5957 45.2416 34.5866 45.3799 34.5861 45.4895C34.5851 45.7322 34.5994 45.9783 34.5676 46.222L34.2961 46.2272V46.2272ZM34.0809 43.7007C33.979 44.301 33.5942 44.9258 33.5819 45.3545C33.6845 45.4222 33.8219 45.4404 33.8495 45.5472C33.8495 45.8728 33.8193 46.3175 33.8975 46.5809C35.2927 46.8082 34.9956 46.4935 35.0126 45.2082C35.4783 45.3292 35.4802 45.0444 35.5863 44.6382C35.6568 44.3686 35.8286 43.8242 35.6849 43.597C35.6318 43.5536 35.7903 43.5131 35.5163 43.5343C35.3102 43.5503 35.3256 43.7794 35.2622 44.0828C35.2071 44.3461 35.0526 44.7284 35.027 44.8859L34.9746 44.4139L34.3811 44.3618C34.396 44.1947 34.4813 43.6811 34.6442 43.6402C35.0758 43.6402 35.3021 43.6945 35.1954 43.2125L34.0059 43.1854C33.4305 43.1873 33.5537 43.5393 33.7863 43.6218L34.0809 43.7007V43.7007Z" fill="#FEFEFE"/>
  <path fill-rule="evenodd" clip-rule="evenodd" d="M36.9867 45.5061C37.9738 46.2646 36.9674 43.6387 36.9673 43.6386C36.8449 43.4622 36.5461 43.4326 36.5365 43.7513C36.5232 44.1856 37.0676 44.3732 36.4968 45.4878C36.2813 45.9085 36.1933 45.9952 35.7213 46.2142C35.5998 46.2705 35.234 46.3865 35.1714 46.4237C34.7441 46.6773 35.2583 47.1567 36.3553 46.3838C36.6322 46.1887 36.8387 45.9288 36.9867 45.5061V45.5061Z" fill="#FEFEFE"/>
  <path fill-rule="evenodd" clip-rule="evenodd" d="M23.3199 33.1902C23.5006 33.6706 23.58 33.3501 23.9441 33.7395C24.3109 34.1318 23.9209 34.11 23.8885 34.5419C24.178 34.5583 24.4377 34.4749 24.6728 34.4182C24.9921 33.2384 25.3938 32.708 23.3199 33.1902Z" fill="#FEFEFE"/>
  <path fill-rule="evenodd" clip-rule="evenodd" d="M35.9082 43.4122L35.9081 45.374C35.9082 45.7143 36.0044 45.7326 36.302 45.6931C36.3878 45.3988 36.3908 43.39 36.3106 43.0895C35.9768 43.0603 35.9082 43.0438 35.9082 43.4122V43.4122Z" fill="#FEFEFE"/>
  <path fill-rule="evenodd" clip-rule="evenodd" d="M41.8058 31.3308C41.5529 31.293 39.9593 31.5738 40.322 31.9225C40.3692 31.968 41.0573 31.8537 41.2459 31.8329C41.5782 31.7961 41.9238 31.7125 41.8058 31.3308Z" fill="#FEFEFE"/>
  <path fill-rule="evenodd" clip-rule="evenodd" d="M20.6817 44.9049C21.1199 44.8026 21.959 45.0761 22.4093 44.8548L22.3235 44.6478C21.9726 44.5735 22.6291 44.6755 22.2253 44.6277C21.7094 44.5665 21.1157 44.7621 20.9059 44.4901L20.8642 44.4212C20.7215 44.2487 20.9827 44.3987 20.7815 44.3538C20.6141 44.486 20.6782 44.6416 20.6817 44.9049V44.9049Z" fill="#E6212C"/>
  <path fill-rule="evenodd" clip-rule="evenodd" d="M60.7395 31.3571C60.448 31.333 59.1172 31.4813 59.5525 31.9122C59.6491 32.0079 60.0843 31.863 60.2562 31.8304C60.6469 31.7561 60.7528 31.7753 60.7395 31.3571Z" fill="#FEFEFE"/>
  <path fill-rule="evenodd" clip-rule="evenodd" d="M49.7452 44.5311L49.8113 45.2166L50.5075 45.2129C50.3512 44.8998 50.5267 44.8083 50.6276 44.4847L49.7452 44.5311V44.5311Z" fill="#E6212C"/>
  <path fill-rule="evenodd" clip-rule="evenodd" d="M28.6809 45.1178L28.8947 45.1273L29.3589 45.1258L29.5643 45.1191L29.5964 44.9131L29.5912 44.7971L29.5846 44.5726L28.6741 44.5558L28.6809 45.1178Z" fill="#E6212C"/>
  <path fill-rule="evenodd" clip-rule="evenodd" d="M27.327 45.1258H28.1905L28.2228 44.554L27.3177 44.5548L27.327 45.1258Z" fill="#E6212C"/>
  <path fill-rule="evenodd" clip-rule="evenodd" d="M27.52 44.0879C28.2481 44.1286 28.7802 44.2368 28.8926 43.6587C28.1031 43.5952 27.8809 43.5872 27.52 44.0879Z" fill="#E6212C"/>
  <path fill-rule="evenodd" clip-rule="evenodd" d="M48.2852 32.6721C48.5489 32.6823 48.561 32.614 48.6691 32.4332C48.7492 32.2993 48.8521 32.1761 48.8901 31.9875C48.3688 31.3422 48.031 31.9571 48.2852 32.6721Z" fill="#FEFEFE"/>
  <path fill-rule="evenodd" clip-rule="evenodd" d="M66.4321 31.0643C66.5838 31.2169 66.7934 31.2768 67.0731 31.2756C67.187 31.1386 67.4969 30.5771 67.0821 30.528C66.8056 30.4952 66.4956 30.875 66.4321 31.0643V31.0643Z" fill="#FEFEFE"/>
  <path fill-rule="evenodd" clip-rule="evenodd" d="M42.6586 44.098L43.7814 44.0922L43.7963 43.7191L42.6361 43.686L42.6586 44.098Z" fill="#E6212C"/>
  <path fill-rule="evenodd" clip-rule="evenodd" d="M34.2937 46.2273L34.5652 46.2221C34.597 45.9784 34.5827 45.7323 34.5838 45.4896C34.5842 45.38 34.5933 45.2417 34.5905 45.138C34.586 44.9672 34.5845 44.8381 34.4677 44.8137C34.1817 44.7541 34.2636 44.9023 34.2693 45.4318C34.2723 45.697 34.2519 45.9664 34.2937 46.2273V46.2273Z" fill="#E6212C"/>
  <path fill-rule="evenodd" clip-rule="evenodd" d="M40.3401 33.6031C40.5162 33.7294 41.4713 33.81 41.8245 33.5454C41.5715 32.9721 40.45 33.5222 40.3401 33.6031Z" fill="#FEFEFE"/>
  <path fill-rule="evenodd" clip-rule="evenodd" d="M65.4028 32.789C65.7848 32.9071 66.1097 32.7738 66.3322 32.583C66.192 32.2164 66.4789 32.8995 66.2631 32.4536C66.0648 32.0441 66.2596 32.179 66.0342 31.9937C65.6962 32.1294 65.8933 32.1643 65.8108 32.4039C65.6906 32.7535 65.5056 32.5038 65.4028 32.789Z" fill="#FEFEFE"/>
  <path fill-rule="evenodd" clip-rule="evenodd" d="M43.9506 45.8959L43.9547 45.3067C43.3569 45.2941 43.4214 45.266 43.3657 45.4029C43.2711 45.6362 43.4075 45.5399 43.4122 45.5443C43.4146 45.5465 43.6179 45.6428 43.671 45.6847C43.8143 45.7977 43.7792 45.8055 43.9506 45.8959V45.8959Z" fill="#E6212C"/>
  <path fill-rule="evenodd" clip-rule="evenodd" d="M59.6204 33.4662C59.9465 33.5058 60.4706 33.356 60.5417 33.1231C60.2451 32.9016 59.7147 33.243 59.6204 33.4662Z" fill="#FEFEFE"/>
  <path fill-rule="evenodd" clip-rule="evenodd" d="M42.4873 46.0729C42.6813 45.9628 42.8339 45.6144 42.9176 45.3312L42.5012 45.3166L42.4873 46.0729Z" fill="#E6212C"/>
  <path fill-rule="evenodd" clip-rule="evenodd" d="M42.6363 43.6859L43.7965 43.7189L43.7816 44.092L42.6588 44.0978L42.6363 43.6859V43.6859ZM42.597 44.1028C42.8398 44.164 43.1798 44.1444 43.4655 44.1447C43.9315 44.1453 43.8649 44.0599 43.8175 43.642C43.5486 43.597 43.2708 43.6123 42.9969 43.6107C42.5136 43.608 42.5902 43.6265 42.597 44.1028V44.1028Z" fill="#F7C5B8"/>
</svg>
