<svg xmlns="http://www.w3.org/2000/svg" fill="none" viewBox="0 0 50 48" class="design-iconfont">
  <path d="M9.141 0.834491C9.00795 3.10923 8.10103 6.47958 6.10847 8.47041C4.21877 10.3585 2.4715 9.34888 2.233 7.01287C2.06209 5.33827 2.37969 2.84486 4.09293 0.203163C3.53209 -0.140353 3.23752 -0.0330884 2.85788 0.410645C-0.222511 4.01157 -0.376472 7.50793 0.382992 9.63634C1.14772 11.7795 3.58957 12.4764 4.44864 14.4301C5.39355 16.579 7.00665 20.3303 7.49039 21.2909C13.5711 18.6134 9.74562 18.0474 11.008 14.201C11.8935 10.8649 12.086 10.5989 11.0449 9.11044C9.23429 6.52172 10.3508 6.75703 10.3789 1.97461C10.3831 1.25626 9.69115 0.92068 9.141 0.834491V0.834491ZM40.2135 13.7355C42.6031 13.0257 45.5099 13.3443 47.8088 14.7809C48.3895 15.1443 48.8284 15.5874 49.1104 16.0623C50.0169 17.5882 49.1595 18.3078 47.8561 19.0933C46.8164 19.7198 45.0916 21.4263 47.7092 21.4263C48.304 21.4263 49.0657 21.306 49.9904 20.9544C50.3783 26.3035 38.8557 23.2584 47.395 17.8721C48.2693 17.3452 47.833 16.663 47.2069 16.2711C44.5475 14.6592 41.4044 15.2116 39.8642 18.031C39.3165 19.0336 39.0852 20.3894 39.0738 21.7036C39.3574 25.184 39.8796 27.6864 40.9022 30.1119C32.3295 29.4849 31.942 26.9261 31.9968 20.3513C32.0228 17.2402 31.844 14.3205 33.3969 11.8315C35.9893 12.8959 37.4425 11.4549 40.2135 13.7355V13.7355ZM31.7141 11.2876C29.6478 10.5934 27.4955 9.61255 25.7992 8.1633C24.3479 9.16093 23.313 10.5653 22.9614 12.789C22.0568 18.5119 22.0861 20.1321 20.4555 22.8307C27.9382 24.7364 28.1058 23.6011 28.9845 19.6762C29.4337 17.6697 29.0765 11.9352 31.7141 11.2876V11.2876ZM11.994 7.7713C14.0596 8.5228 14.4527 9.68133 14.236 11.2654C14.004 12.9615 13.5875 14.6324 13.2307 16.3262C12.6635 19.0152 11.5928 23.1825 9.91843 25.4094C19.8803 28.3358 19.5479 16.8346 20.4793 12.0481C21.0251 9.24352 22.1114 7.84689 24.386 6.63083C23.5567 5.7871 21.0391 2.21827 18.8598 2.0205C17.0541 1.85658 13.4416 5.84878 11.994 7.7713V7.7713Z" fill="url(#muqagdg87__paint0_radial_1028_4129)"/>
  <path d="M34.7504 33.6721C34.7504 34.3548 34.7897 34.7319 34.6132 35.2955H36.947V33.6721H38.5327V35.2955H43.0462L42.6953 35.98H38.5327V39.4584H43.0163L42.6654 40.1428H38.5327V42.2956H36.947V40.1428H32.4006V39.4584H36.947V35.98H34.3691L34.0238 36.9334H32.3416C32.5322 36.4073 32.7226 35.8814 32.9133 35.3552C33.1404 34.7281 33.1646 34.3435 33.1646 33.6721C33.6933 33.6721 34.2219 33.6721 34.7504 33.6721V33.6721ZM9.43661 33.6721C9.43661 34.8789 9.43661 36.0856 9.43661 37.2924C9.43661 39.0649 9.03723 40.6077 8.58585 42.2956H6.94629C7.38568 40.6527 7.85081 39.0827 7.85081 37.3593V33.6721H9.43661ZM13.3888 34.4258V41.3244H11.8031V34.4258H13.3888ZM17.3744 33.6721V42.2956H15.7886V33.6721H17.3744ZM29.8575 34.0173V36.2341H28.2718V34.0173H29.8575ZM21.6189 34.7017V36.2341H20.0333V34.7017V34.0173H21.6189H23.9437V33.6721H25.5293V34.0173H27.9209L27.57 34.7017H25.5293V36.0499V36.4344L25.2227 36.6737L24.1596 37.4993L23.0499 38.3609V42.2956H21.4641V39.5921L20.0256 40.7091V38.7025L23.2093 36.2347L23.9437 35.6654V34.7017H21.6189V34.7017ZM29.8575 42.2956H26.7659L23.8259 38.2217L25.108 37.2908L26.1097 38.679C26.7984 38.067 27.6194 37.3355 27.6917 37.2631L29.8575 37.2646C29.8062 37.3162 28.082 38.941 27.0203 39.9411L27.8127 41.0394L29.8575 41.0425V42.2956V42.2956Z" fill="#474443"/>
  <path fill-rule="evenodd" clip-rule="evenodd" d="M32.6904 48.0001V46.0263H31.2265V46.449H31.8509V47.5859H30.6064V45.1937H32.4636L32.6781 44.7753H29.7584V48.0001H31.6442L31.8509 47.6535V48.0001H32.6904Z" fill="#474443"/>
  <path fill-rule="evenodd" clip-rule="evenodd" d="M26.4799 48.0001V44.7753H25.6446V46.8082L24.4971 44.7753H23.5437V48.0001H24.3874V46.0137L25.5434 48.0001H26.4799Z" fill="#474443"/>
  <path fill-rule="evenodd" clip-rule="evenodd" d="M20.2946 47.5816H18.1462V45.1937H19.9889L20.2034 44.7753H17.3025V48H20.0801L20.2946 47.5816Z" fill="#474443"/>
  <defs>
    <radialGradient id="muqagdg87__paint0_radial_1028_4129" cx="0" cy="0" r="1" gradientUnits="userSpaceOnUse" gradientTransform="matrix(-2.30596 13.96804 -13.9418 -2.30162 31.0001 4.21601)">
      <stop stop-color="#FFF000"/>
      <stop offset="1" stop-color="#EA5824"/>
    </radialGradient>
  </defs>
</svg>
