<svg xmlns="http://www.w3.org/2000/svg" fill="none" viewBox="0 0 42 48" class="design-iconfont">
  <path fill-rule="evenodd" clip-rule="evenodd" d="M24.7946 25.0249C24.7946 24.9452 24.8638 24.9022 24.917 24.9022H26.5663C26.6237 24.9022 26.6924 24.9691 26.6924 25.035V33.5504C26.6924 33.5882 26.6701 33.6118 26.6312 33.6118H24.8558C24.8199 33.6118 24.7946 33.5858 24.7946 33.5504V25.0249V25.0249ZM14.2646 25.0476C14.2646 25.002 14.2963 24.9635 14.3621 24.9635C14.9214 24.9635 15.4807 24.9635 16.04 24.9635C16.0765 24.9635 16.1012 24.9952 16.1012 25.0249C16.1012 27.8463 16.1012 30.6677 16.1012 33.4891C16.1012 33.5323 16.0794 33.5504 16.04 33.5504H14.4483C14.338 33.5504 14.2646 33.4536 14.2646 33.3764V25.0476ZM21.4275 23.9208C21.3939 23.9208 21.3662 23.9491 21.3662 23.9821C21.3662 27.1716 21.3662 30.3609 21.3662 33.5504C21.3662 33.5918 21.3439 33.6118 21.305 33.6118H19.5596C19.5417 33.6118 19.5296 33.6005 19.5296 33.5846C19.5296 30.3838 19.5296 27.1829 19.5296 23.9821C19.5296 23.9518 19.5159 23.9208 19.4683 23.9208C17.4763 23.9208 15.4844 23.9208 13.4924 23.9208C13.478 23.9208 13.4687 23.9073 13.4687 23.8942V22.6065C13.4687 22.5441 13.4983 22.5101 13.5634 22.5101C15.5355 22.5101 17.4741 22.5101 19.4462 22.5101C19.5051 22.5101 19.5296 22.4767 19.5296 22.4196C19.5296 21.7485 19.5296 21.0772 19.5296 20.406C19.5296 20.3474 19.582 20.302 19.652 20.302H21.3385C21.3594 20.302 21.3662 20.3163 21.3662 20.3356C21.3662 21.04 21.3662 21.7444 21.3662 22.4488C21.3662 22.4844 21.3959 22.5101 21.4275 22.5101C23.4274 22.5101 25.4272 22.5101 27.4271 22.5101C27.4654 22.5101 27.4883 22.5349 27.4883 22.5714C27.4883 23.0008 27.4883 23.4182 27.4883 23.8475C27.4883 23.8913 27.4494 23.9208 27.4092 23.9208C27.2343 23.9208 22.0769 23.9208 21.4275 23.9208ZM14.2646 21.5288C14.169 21.5725 14.003 21.6845 13.8973 21.5288C13.8973 21.5288 13.2335 20.6663 13.1762 20.5802C13.066 20.4048 13.3069 20.3212 13.4219 20.2628C14.1445 19.8835 19.9266 16.7416 20.1418 16.6219H20.5703C20.9124 16.808 26.8702 19.9081 27.6049 20.2842C27.6539 20.3144 27.7333 20.3688 27.7333 20.4713C27.7333 20.7736 27.7361 21.0001 27.7391 21.4649C27.7391 21.54 27.6949 21.5862 27.5849 21.5862C27.2466 21.5875 26.9989 21.5884 26.6606 21.5897C26.5574 21.5897 26.482 21.5728 26.1746 21.3941C25.374 20.928 22.9041 19.5888 20.5703 18.278H20.203C18.1693 19.3968 16.1545 20.4963 14.2646 21.5288V21.5288ZM20.9376 11.2858C20.9376 11.2444 20.9587 11.2245 20.9989 11.2245C21.5873 11.2245 22.1613 11.2245 22.7497 11.2245C22.7671 11.2245 22.7749 11.2405 22.7743 11.2536V13.7392C22.7743 13.7678 22.7985 13.8006 22.8355 13.8006C23.0396 13.8006 23.2437 13.8006 23.4477 13.8006C23.483 13.8006 23.5089 13.7706 23.5089 13.7392C23.5089 12.9107 23.5089 12.0819 23.5089 11.2534C23.5089 11.2387 23.5183 11.2245 23.5382 11.2245H25.2844C25.3203 11.2245 25.3455 11.2529 25.3455 11.2858C25.3455 12.1031 25.3455 12.9205 25.3455 13.7378C25.3455 13.7754 25.3727 13.8006 25.4068 13.8006H25.9023C25.9375 13.8006 25.9578 13.7705 25.9578 13.7392C25.9578 12.901 25.9578 12.0628 25.9578 11.2245C25.9578 11.194 25.9735 11.1632 26.019 11.1632C26.6313 11.1632 27.2435 11.1632 27.8556 11.1632C27.888 11.1632 27.9168 11.1969 27.9168 11.2245C27.9168 12.5943 27.9168 13.9641 27.9168 15.3339C27.9168 15.3676 27.8952 15.3953 27.8556 15.3953H25.3455V17.0513H25.2844V17.1127H23.5702V17.0513H23.5089V15.404C23.5089 15.3638 23.4848 15.3339 23.4477 15.3339H20.9874C20.9562 15.3339 20.9376 15.3024 20.9376 15.2726C20.9376 13.9437 20.9376 12.6148 20.9376 11.2858V11.2858ZM13.0401 11.3472C13.0404 11.2777 13.0933 11.2245 13.1626 11.2245H14.7668C14.801 11.2245 14.8156 11.2473 14.8156 11.2748C14.8156 12.129 14.8156 12.9832 14.8156 13.8373C14.8156 13.8518 14.8283 13.8619 14.8414 13.8619H15.5704C15.599 13.8619 15.6114 13.8387 15.6114 13.815V11.2858C15.6114 11.2588 15.6337 11.2245 15.6727 11.2245C16.2265 11.2245 16.7804 11.2245 17.3343 11.2245C17.3757 11.2245 17.3869 11.2495 17.3869 11.2799V13.7392C17.3869 13.7734 17.4096 13.8006 17.4481 13.8006C17.6521 13.8006 17.8563 13.8006 18.0603 13.8006C18.0896 13.8006 18.1215 13.7662 18.1215 13.7392V11.2858C18.1215 11.2498 18.1348 11.2245 18.1827 11.2245H19.8969C19.9322 11.2245 19.9582 11.245 19.9582 11.2858V15.2726C19.9582 15.3289 19.9134 15.3953 19.8357 15.3953C19.0398 15.3953 18.2439 15.3953 17.4481 15.3953C17.4049 15.3953 17.3869 15.4194 17.3869 15.4566C17.3869 15.9882 17.3869 16.5198 17.3869 17.0513C17.3869 17.0909 17.358 17.1127 17.3256 17.1127H15.6114C15.5731 17.1127 15.5502 17.0775 15.5502 17.0331V15.3953H13.1626C13.1017 15.3953 13.0401 15.3373 13.0401 15.2726V11.3472V11.3472ZM11.1423 35.0838C11.1423 35.1174 11.1715 35.1451 11.2035 35.1451C17.3664 35.1451 23.5294 35.1451 29.6923 35.1451C29.7268 35.1451 29.7535 35.1237 29.7535 35.0838V9.56848H11.1423C11.1423 18.0736 11.1423 26.5787 11.1423 35.0838V35.0838Z" fill="#190000"/>
  <path fill-rule="evenodd" clip-rule="evenodd" d="M32.2023 5.33654V6.44057C23.7538 6.44057 15.3053 6.44057 6.85679 6.44057C6.82028 6.44057 6.79556 6.47513 6.79556 6.50186C6.79556 10.0593 6.79556 13.6167 6.79556 17.1741C6.79556 17.2101 6.78107 17.2355 6.73438 17.2355C5.12221 17.2355 3.51008 17.2355 1.89791 17.2355C1.826 17.2355 1.77545 17.1776 1.77545 17.1128V7.9739C1.77545 7.94144 1.78403 7.9126 1.83663 7.9126H3.91818C3.95584 7.91014 3.97941 7.88301 3.97941 7.85121V6.5632C3.97941 6.49719 3.93302 6.44057 3.86668 6.44057C2.61055 6.44057 1.40582 6.44057 0.149689 6.44057C0.0507487 6.44057 0 6.52005 0 6.62455V18.6462C2.20651 18.6462 4.41308 18.6462 6.61954 18.6462C6.72836 18.6462 6.79556 18.74 6.79556 18.8301V31.8332L3.73454 34.3479H1.89791C1.86501 34.3479 1.83663 34.3148 1.83663 34.2865V23.185H3.97941V21.5902H0.122509C0.0457841 21.5902 0 21.6352 0 21.69C0 26.417 0 31.1057 0 35.8328C0 35.8879 0.0708576 35.9426 0.122509 35.9426H4.46919L8.63219 32.5079V8.09658C8.63219 8.0269 8.68379 7.9739 8.74005 7.9739C16.5428 7.9739 24.2988 7.9739 32.1016 7.9739C32.1603 7.9739 32.2023 8.03052 32.2023 8.09658V32.4465L36.4266 35.9426H40.8345V21.7742C40.8345 21.713 40.796 21.6516 40.7373 21.6516H36.9163V23.185H39.0591C39.0902 23.185 39.1203 23.221 39.1203 23.2463V34.3479C39.1203 34.4006 39.0636 34.4706 38.9978 34.4706H37.2836L34.0389 31.7719V12.8194C34.0389 12.787 34.0559 12.758 34.1001 12.758H39.3039V17.1741C38.508 17.1741 37.7122 17.1741 36.9163 17.1741C36.8827 17.1741 36.8551 17.2007 36.8551 17.2355C36.8551 17.6905 36.8551 18.1456 36.8551 18.6006C36.86 18.6506 36.9224 18.7075 36.9775 18.7075C38.3192 18.7075 39.6609 18.7075 41.0026 18.7075C41.0437 18.7075 41.0794 18.6637 41.0794 18.6184V11.4087C41.0794 11.3245 40.9823 11.2247 40.8998 11.2247H34.1613C34.1305 11.2247 34.1001 11.1942 34.1001 11.1633V8.03524C34.1001 8.00032 34.1235 7.9739 34.1613 7.9739H41.0794C41.1535 7.9739 41.2018 7.93129 41.2018 7.86658V5.33654C41.2018 5.30177 41.1717 5.27515 41.1405 5.27515C40.5691 5.27515 39.9978 5.27515 39.4264 5.27515C39.3976 5.27515 39.3652 5.29333 39.3652 5.33654C39.3652 5.6636 39.3652 5.99077 39.3652 6.31783C39.3652 6.3526 39.3374 6.37917 39.3039 6.37917H34.0389V5.33654C34.0389 5.30293 34.0112 5.27515 33.9777 5.27515C33.4063 5.27515 32.8349 5.27515 32.2635 5.27515C32.23 5.27515 32.2023 5.30474 32.2023 5.33654V5.33654Z" fill="#190000"/>
  <path fill-rule="evenodd" clip-rule="evenodd" d="M21.7949 0.122648V4.17075C21.7949 4.20612 21.8273 4.23214 21.8561 4.23214H41.1407C41.203 4.23214 41.2632 4.17763 41.2632 4.11805V0.0613045C41.2632 0.0271412 41.2367 0.000664578 41.202 1.14559e-05C40.6102 1.14559e-05 40.0184 1.14559e-05 39.4266 1.14559e-05C39.3894 1.14559e-05 39.3653 0.0348782 39.3653 0.0613045V2.57607C39.3653 2.61084 39.34 2.63616 39.3041 2.63737H34.1003V1.14559e-05H32.2041C32.2041 0.844197 32.2025 1.72033 32.2025 2.57607C32.2025 2.61325 32.1712 2.63737 32.1412 2.63737H23.8152C23.7505 2.63737 23.6927 2.58934 23.6927 2.53297V0.0613045C23.6927 0.0289498 23.6566 0.000463617 23.6316 1.14559e-05C23.0573 1.14559e-05 22.4829 1.14559e-05 21.9087 1.14559e-05C21.8433 -0.00104359 21.7949 0.0710008 21.7949 0.122648V0.122648Z" fill="#190000"/>
  <path d="M5.65612 44.7906V44.1238H4.07479V44.7906H5.65612ZM8.52588 40.8735C8.35904 40.5677 8.16557 40.317 7.94377 40.1232C8.19401 39.9845 8.38742 39.8458 8.52588 39.7071C8.69272 39.9294 8.90032 40.1925 9.15056 40.4984C8.92876 40.5819 8.7211 40.7064 8.52588 40.8735ZM4.82373 43.5406V42.7067H4.07479V43.5406H4.82373ZM4.82373 46.1668V45.3738H4.07479V46.1668H4.82373ZM5.86373 40.2068V39.6644H3.99315V40.3739H3.2442C3.27083 40.1232 3.28502 39.8867 3.28502 39.6644H1.66292C1.27423 39.6644 0.873158 39.6929 0.456086 39.748V38.9977C0.873158 39.0261 1.27423 39.0546 1.66292 39.0812H3.28502C3.28502 38.8875 3.27083 38.5816 3.2442 38.1656H4.03397C4.00558 38.5816 3.99315 38.8875 3.99315 39.0812H5.86373C5.86373 38.859 5.84954 38.5389 5.82291 38.1229H6.6553C6.59848 38.5389 6.57185 38.859 6.57185 39.0812H8.40161C8.70691 39.0812 9.10798 39.0546 9.60845 38.9977V39.748C9.19138 39.6929 8.7903 39.6644 8.40161 39.6644H6.57185C6.57185 39.8601 6.58429 40.0396 6.61267 40.2068H5.86373V40.2068ZM6.52928 40.2903C6.83452 40.317 7.11138 40.3312 7.36162 40.3312C7.33323 40.6104 7.3208 40.8184 7.3208 40.9571H8.06799C8.51169 40.9571 8.99796 40.9429 9.52505 40.9144V41.5812C9.02459 41.5545 8.54007 41.5403 8.06799 41.5403H7.36162C7.41663 42.3173 7.49295 42.9716 7.59059 43.4997C7.68817 44.026 7.77693 44.4705 7.86033 44.8332C8.02717 44.499 8.16557 44.1024 8.2774 43.6455C8.38742 43.1868 8.47087 42.7067 8.52588 42.2071C8.7211 42.3173 9.01215 42.4436 9.39904 42.5822C9.28901 42.8596 9.14349 43.3041 8.96246 43.9157C8.78323 44.5274 8.54007 45.1248 8.23482 45.7081C8.48506 46.1792 8.69272 46.5135 8.8595 46.7073C9.02459 46.9029 9.12217 46.91 9.15056 46.7286C9.17719 46.5473 9.20562 46.2912 9.234 45.9569C9.42742 46.1525 9.66346 46.2912 9.94032 46.3748C9.77353 47.3741 9.55168 47.8737 9.27482 47.8755C9.02459 47.8737 8.76192 47.7226 8.48506 47.4167C8.2082 47.1109 7.95796 46.75 7.73611 46.3321C7.45925 46.6664 7.17352 46.9509 6.88246 47.1874C6.59141 47.4239 6.2808 47.6657 5.94717 47.9164C5.78033 47.639 5.60111 47.4167 5.40584 47.2496C5.62769 47.1376 5.86373 46.9989 6.11401 46.8335C5.83715 46.8051 4.92137 46.7909 3.36847 46.7909C3.39685 46.3464 3.40929 45.8467 3.40929 45.2902V43.4997C3.40929 42.9983 3.39685 42.5129 3.36847 42.0399C4.80954 42.0684 5.78033 42.0684 6.2808 42.0399V42.7067H5.48928V43.5406H6.32162V45.3738H5.48928V46.1668H6.32162V46.75C6.68193 46.4441 7.04218 46.0548 7.40244 45.5818C7.15401 44.8599 6.98005 44.1665 6.88246 43.4997C6.78663 42.8329 6.71031 42.1786 6.6553 41.5403H2.86976C2.86976 43.2632 2.85557 44.3816 2.82713 44.8955C2.80055 45.4093 2.72423 45.9232 2.59821 46.437C2.474 46.9509 2.27341 47.4718 1.99655 48C1.74632 47.8613 1.48189 47.7492 1.20503 47.6657C1.53871 47.1945 1.76763 46.6931 1.89184 46.1668C2.01611 45.6387 2.09238 45.0964 2.12081 44.5399H1.49608C1.49608 44.9844 1.44107 45.4236 1.33105 45.8539C1.21922 46.2841 0.997372 46.7624 0.6655 47.2905C0.498661 47.1518 0.276861 47.0131 0 46.8744C0.2218 46.6237 0.408146 46.3126 0.560793 45.9374C0.71344 45.5622 0.803955 45.0964 0.830533 44.5399C0.637116 44.5399 0.401075 44.5541 0.124214 44.5825V43.8322C0.53948 43.8606 0.98318 43.8731 1.45526 43.8731H2.12081V42.9147H0.622925C0.651308 42.5538 0.6655 42.1786 0.6655 41.791C0.6655 41.3731 0.651308 40.998 0.622925 40.6655H1.33105C1.30267 40.998 1.28842 41.3322 1.28842 41.6647V42.248H2.12081C2.12081 41.6932 2.10662 41.2629 2.07819 40.9571H6.57185C6.57185 40.7615 6.55766 40.5393 6.52928 40.2903ZM14.3488 38.2473C14.3222 38.5816 14.308 38.9284 14.308 39.2893H16.8867C16.8867 38.9017 16.8725 38.5532 16.8459 38.2473H17.7191C17.664 38.5532 17.6357 38.9017 17.6357 39.2893H19.2169C19.4104 39.2893 19.7299 39.2768 20.1735 39.2484V40.0396C19.7299 40.0129 19.382 39.9987 19.1336 39.9987H17.6357C17.6357 40.2761 17.664 40.5819 17.7191 40.9144H16.8867V39.9987H14.308V40.9571H13.4756C13.5041 40.5961 13.5183 40.2761 13.5183 39.9987H12.2706C12.0754 39.9987 11.7293 40.0129 11.2306 40.0396V39.2484C11.7843 39.2768 12.1304 39.2893 12.2706 39.2893H13.5183C13.5183 38.9568 13.5041 38.6101 13.4756 38.2473H14.3488ZM16.0135 40.998C16.7891 41.6381 17.5735 42.1377 18.3633 42.4987C19.1531 42.8596 19.9091 43.1103 20.6314 43.249C20.3262 43.4713 20.131 43.7771 20.0475 44.1665C19.3004 43.8873 18.5514 43.5548 17.8025 43.1654C17.0536 42.776 16.3188 42.2213 15.5982 41.4994C15.1545 41.9706 14.5369 42.4578 13.7472 42.9574C12.9557 43.457 12.118 43.8873 11.2306 44.2482C11.1188 43.9709 10.9395 43.7078 10.6893 43.457C11.1614 43.3735 11.708 43.1868 12.3327 42.8952C12.9557 42.6036 13.552 42.2284 14.1217 41.7696C14.6896 41.3109 15.1404 40.79 15.4722 40.2068C15.7509 40.4005 16.0278 40.5677 16.3046 40.7064L16.0135 40.998V40.998ZM12.7267 43.8322C13.0604 43.8606 13.3656 43.8731 13.6425 43.8731H15.2646C15.2646 43.3468 15.2504 42.9023 15.2238 42.5396H16.097C16.0686 43.1512 16.0543 43.5957 16.0543 43.8731H17.5522C17.9693 43.8731 18.3296 43.8606 18.6348 43.8322V44.6234C18.3562 44.5967 17.9959 44.5825 17.5522 44.5825H16.0543V46.6664C16.0543 47.166 15.9372 47.4718 15.7012 47.5821C15.4652 47.6941 15.0285 47.7919 14.3914 47.8755C14.3364 47.5697 14.2104 47.2354 14.017 46.8744C14.3488 46.9029 14.6416 46.91 14.8901 46.8958C15.1404 46.8816 15.2646 46.7073 15.2646 46.3748V44.5825H13.6016C13.268 44.5825 12.9769 44.5967 12.7267 44.6234V43.8322V43.8322ZM14.308 45.7916C14.0027 45.957 13.5875 46.2219 13.0604 46.5828C12.5333 46.9438 12.0754 47.2639 11.6867 47.5412C11.5483 47.2905 11.369 47.0558 11.1472 46.8335C11.5358 46.6113 11.944 46.3534 12.3735 46.0619C12.803 45.7703 13.2538 45.4289 13.7259 45.0413L14.308 45.7916V45.7916ZM17.5948 45.1248C18.3988 45.6796 19.1886 46.2628 19.9659 46.8744C19.6606 47.0683 19.4388 47.3047 19.3004 47.5821C18.578 46.8887 17.8291 46.3055 17.0536 45.8325C17.247 45.6387 17.428 45.4022 17.5948 45.1248ZM27.6594 43.665C28.4084 43.665 29.0739 43.6384 29.656 43.5815V44.4581C29.1023 44.4012 28.4368 44.3745 27.6594 44.3745H26.7455V46.8744H29.2833C30.0873 46.8744 30.7387 46.846 31.2373 46.7909V47.6657C30.7652 47.6106 30.1423 47.5821 29.365 47.5821H23.8757C22.7931 47.5821 22.0175 47.6106 21.5454 47.6657V46.7909C22.0725 46.846 22.8765 46.8744 23.9591 46.8744H25.8297V44.3745H24.7897C24.0407 44.3745 23.3894 44.4012 22.8357 44.4581V43.5815C23.3628 43.6384 24.0549 43.665 24.9157 43.665H27.6594V43.665ZM29.6986 41.4567V40.3312H22.8765V41.5812H21.9625C21.9891 41.3038 22.0033 40.9838 22.0033 40.6228C22.0033 40.2352 21.9891 39.8867 21.9625 39.5809H26.1207C25.9557 39.1933 25.7605 38.8039 25.5386 38.4145C25.8155 38.2758 26.1207 38.1513 26.4544 38.0393C26.6763 38.5389 26.8697 38.971 27.0365 39.3319C26.7596 39.4155 26.4952 39.4991 26.2467 39.5809H30.6552C30.6268 39.8316 30.6144 40.1659 30.6144 40.5819C30.6144 40.9713 30.6268 41.2629 30.6552 41.4567H29.6986V41.4567ZM27.5778 40.998C27.9097 41.1367 28.3463 41.3322 28.8876 41.5812C29.4289 41.8319 30.0731 42.1786 30.822 42.6231C30.5434 42.9289 30.35 43.1939 30.2399 43.4162C29.7128 43.0819 29.1999 42.776 28.6994 42.4987C28.2007 42.2213 27.6594 41.9439 27.0773 41.6647C27.2157 41.4994 27.3826 41.2771 27.5778 40.998ZM25.4552 41.4994C25.1499 41.6381 24.7275 41.9083 24.1863 42.312C23.6467 42.7138 23.0291 43.1245 22.3352 43.5406C22.1702 43.2899 21.9625 43.041 21.7123 42.7903C22.2394 42.568 22.7523 42.2835 23.251 41.9368C23.7497 41.5883 24.1809 41.206 24.5412 40.79C24.8181 41.0407 25.1234 41.2771 25.4552 41.4994V41.4994ZM39.0161 40.9571C38.9877 41.4852 38.9735 41.9439 38.9735 42.3315V44.5399C38.9735 44.9026 38.9877 45.3329 39.0161 45.8325H34.8152C34.8419 45.3329 34.8561 44.8883 34.8561 44.499V42.3315C34.8561 41.9439 34.8419 41.4852 34.8152 40.9571H39.0161ZM41.2629 38.7487C41.2345 39.2768 41.2203 39.8031 41.2203 40.3312V46.4584C41.2487 47.0967 41.0748 47.4861 40.7003 47.6248C40.3258 47.7634 39.9176 47.8613 39.4739 47.9164C39.4456 47.5821 39.3355 47.2496 39.1403 46.9153C39.6674 46.9438 40.0064 46.9153 40.159 46.8335C40.3116 46.75 40.3879 46.5686 40.3879 46.2912V39.4564H37.8927C37.2271 39.4564 36.6042 39.4706 36.0203 39.4991V38.7061C36.6042 38.7345 37.2271 38.7487 37.8927 38.7487H41.2629V38.7487ZM32.5276 47.7492C32.5826 47.1945 32.611 46.6113 32.611 45.9997V41.6238C32.611 41.0407 32.5826 40.5535 32.5276 40.1659H33.4842C33.4558 40.5819 33.4416 40.9838 33.4416 41.3731V46.0406C33.4416 46.5971 33.4558 47.166 33.4842 47.7492H32.5276ZM38.1837 45.1657V43.6241H35.6458V45.1657H38.1837ZM38.1837 42.9574V41.6238H35.6458V42.9574H38.1837ZM34.1497 38.0393C34.3982 38.3736 34.7868 38.9017 35.314 39.6236C35.0087 39.7622 34.7176 39.9152 34.4407 40.0823C34.1639 39.5258 33.8161 38.9977 33.4008 38.498C33.706 38.2758 33.9545 38.1229 34.1497 38.0393V38.0393Z" fill="#190000"/>
  <path fill-rule="evenodd" clip-rule="evenodd" d="M19.4683 0.122698V4.1708C19.4683 4.20612 19.4359 4.23214 19.4071 4.23214H0.122509C0.0601763 4.23214 0 4.17768 0 4.11805V0.0613045C0 0.0271412 0.0264776 0.00066457 0.0612795 1.14481e-05C0.653013 1.14481e-05 1.2449 1.14481e-05 1.83663 1.14481e-05C1.87379 1.14481e-05 1.89791 0.0348782 1.89791 0.0613045V2.57608C1.89791 2.61089 1.92318 2.63616 1.95914 2.63737H7.16288V1.14481e-05H9.05914C9.05914 0.844197 9.06074 1.72033 9.06074 2.57608C9.06074 2.61325 9.09203 2.63737 9.12197 2.63737H17.448C17.5127 2.63737 17.5705 2.58934 17.5705 2.53302V0.0613045C17.5705 0.0289498 17.6066 0.000463609 17.6317 1.14481e-05C18.2059 1.14481e-05 18.7803 1.14481e-05 19.3545 1.14481e-05C19.4199 -0.0010436 19.4683 0.0710511 19.4683 0.122698V0.122698Z" fill="#190000"/>
</svg>
