<svg xmlns="http://www.w3.org/2000/svg" fill="none" viewBox="0 0 28 28" class="design-iconfont">
  <path d="M19.7694 14.7942C22.0548 13.61 23.6176 11.2247 23.6176 8.47299C23.6176 4.54219 20.431 1.35596 16.5005 1.35596C12.5699 1.35596 9.38335 4.54232 9.38335 8.47299C9.38335 11.1916 10.9084 13.5535 13.1491 14.752C8.38949 16.1755 4.86023 20.6241 4.97838 25.682L6.32616 25.7315H26.609L27.7921 25.682C27.9037 20.6722 24.4528 16.2635 19.7694 14.7942ZM9.19925 15.095C9.20849 15.095 9.21757 15.0957 9.2267 15.0957C10.0623 15.0957 10.0804 13.7383 9.19925 13.7383C9.17671 13.7383 9.15446 13.737 9.1319 13.7367L9.13064 13.7111C9.01334 13.7111 8.8974 13.716 8.78162 13.7205C6.29047 13.5232 4.21511 11.5799 4.21511 9.05177C4.21511 6.38338 6.52664 4.22038 9.19925 4.22038C10.0818 4.22038 9.84926 3.09797 8.93688 3.09797C5.65837 3.09797 3.00075 5.75141 3.00075 9.02432C3.00075 11.1995 4.30316 13.1637 6.13871 14.2377C2.49912 15.57 0.100503 19.2696 0.195988 23.3543C0.195988 24.1848 1.46482 24.0704 1.46482 23.3954C1.46482 18.7316 4.5277 15.095 9.19925 15.095Z" fill="#3C84CD"/>
</svg>
