<svg xmlns="http://www.w3.org/2000/svg" fill="none" viewBox="0 0 28 28" class="design-iconfont">
  <path d="M19.8953 13.2234H14.7246V8.05268C14.7246 6.92885 15.061 5.85698 15.6953 4.95463C16.286 4.11518 17.1063 3.4562 18.066 3.04877C18.993 2.65502 19.991 2.52651 20.9535 2.67417C21.9899 2.83276 22.9496 3.31674 23.7289 4.07143L23.8028 4.14526L23.8766 4.21909C24.6313 4.99838 25.1153 5.95815 25.2738 6.99448C25.4215 7.95424 25.293 8.95502 24.8992 9.88198C24.4918 10.8417 23.8328 11.6621 22.9934 12.2527C22.091 12.8898 21.0192 13.2234 19.8953 13.2234ZM13.2399 13.2234H8.06916C6.94533 13.2234 5.87346 12.8871 4.97111 12.2527C4.13166 11.6621 3.47268 10.8417 3.06525 9.88198C2.6715 8.95502 2.54299 7.95698 2.69064 6.99721C2.84924 5.96088 3.33322 5.00112 4.08791 4.22182L4.16174 4.14799L4.23557 4.07417C5.01486 3.31948 5.97463 2.83549 7.01096 2.6769C7.97072 2.52924 8.9715 2.65776 9.89846 3.05151C10.8582 3.45893 11.6785 4.11792 12.2692 4.95737C12.9035 5.85971 13.2399 6.93159 13.2399 8.05542V13.2234ZM7.79299 25.3175C7.53049 25.3175 7.27072 25.2984 7.01369 25.2574C5.97736 25.0988 5.0176 24.6148 4.2383 23.8601L4.16447 23.7863L4.09065 23.7124C3.33596 22.9331 2.85197 21.9734 2.69338 20.9371C2.54572 19.9773 2.67424 18.9765 3.06799 18.0496C3.47541 17.0898 4.13439 16.2695 4.97385 15.6789C5.87619 15.0445 6.94807 14.7082 8.0719 14.7082H13.2426V19.8789C13.2426 21.0027 12.9063 22.0746 12.2719 22.9769C11.6785 23.8164 10.8582 24.4781 9.89846 24.8828C9.22033 25.1699 8.50393 25.3175 7.79299 25.3175ZM20.1715 25.3175C19.4606 25.3175 18.7442 25.1699 18.066 24.8828C17.1063 24.4753 16.286 23.8164 15.6953 22.9769C15.061 22.0746 14.7246 21.0027 14.7246 19.8789V14.7109H19.8953C21.0192 14.7109 22.091 15.0472 22.9934 15.6816C23.8328 16.2722 24.4918 17.0925 24.8992 18.0523C25.293 18.9792 25.4215 19.9773 25.2738 20.9398C25.1153 21.9761 24.6313 22.9359 23.8766 23.7152L23.8028 23.789L23.7289 23.8628C22.9496 24.6175 21.9899 25.1015 20.9535 25.2601C20.6938 25.2984 20.434 25.3175 20.1715 25.3175Z" fill="#3C84CD"/>
</svg>
