<svg xmlns="http://www.w3.org/2000/svg" fill="none" viewBox="0 0 30 50" class="design-iconfont">
  <path fill-rule="evenodd" clip-rule="evenodd" d="M0.156128 6.21207H7.74717V11.8181H1.66398C1.51126 11.8181 0.351624 12.4039 0.260156 12.5252H7.74717V22.2221H11.1787V12.5252H17.3139V14.7474H14.6102C14.4626 14.7474 13.3153 15.3102 13.2064 15.4545H17.3139C17.3139 16.7954 17.4705 16.4181 16.6276 16.9091C15.8798 17.3293 15.1112 17.7906 14.3502 18.1817V18.8383C15.1614 18.6548 16.5737 17.4402 17.3139 17.2727V18.7372H21.4213C21.4213 16.6068 21.4541 14.4978 21.4738 12.3732C21.476 12.1322 21.5498 11.8181 21.3173 11.8181H11.1787V6.21207H18.8736C18.7757 6.08237 18.4446 5.90437 18.259 5.81487C18.0817 5.72952 17.6578 5.50502 17.4698 5.50502H11.1787V1.56569L7.72298 1.58104L7.74717 5.50502H4.00369L2.13192 0L0.156128 6.21207V6.21207Z" fill="#1C3086"/>
  <path fill-rule="evenodd" clip-rule="evenodd" d="M17.9896 35.5048C18.172 35.6346 20.0437 40.5787 20.427 41.6725C20.9244 43.0912 20.1232 43.3334 18.9255 43.3331H17.2227L15.8525 40.5042L17.9896 35.5048ZM11.2825 43.3836L11.0889 43.3846L9.0204 40.1688L12.0104 33.9392L13.7782 37.424C13.7782 37.7439 11.752 42.2809 11.2825 43.3836V43.3836ZM7.17504 37.3734H7.07106L4.83533 34.0402L0 44.0401H6.96709L7.38304 43.3331H2.91163L6.0312 36.5149L11.0225 44.0401H14.3501L15.6499 41.0098C16.0923 41.9092 16.5389 42.8059 16.984 43.7039C17.0536 43.8443 17.1388 44.0421 17.2617 44.0401C18.1447 44.0401 19.8341 44.1889 20.3433 43.7507C21.1823 43.0287 20.6952 41.7788 20.3873 40.9534L16.5338 31.1614L14.0381 36.9694L10.5546 30.3533L7.17504 37.3734V37.3734Z" fill="#1C3086"/>
  <path fill-rule="evenodd" clip-rule="evenodd" d="M14.4022 31.1107H16.586L16.638 23.6359H24.5929C24.4864 23.4814 24.1442 23.2026 23.9784 23.0641C23.8798 22.9817 23.7868 22.8784 23.657 22.8784H16.638V20.3026H25.7887V26.1107H18.6657C18.5062 26.1107 17.925 26.7359 17.8338 26.8683H25.7887V30.4035H21.8892C21.9419 30.48 22.7373 31.1107 22.9811 31.1107H29.8962V19.545H14.4022V31.1107V31.1107Z" fill="#1C3086"/>
  <path fill-rule="evenodd" clip-rule="evenodd" d="M24.1249 43.3332C24.2784 43.1104 24.7428 42.7075 24.9698 42.4872L25.7887 41.616H24.0729V41.414H26.3086L24.5322 43.2238C24.3645 43.374 24.4201 43.3332 24.1249 43.3332V43.3332ZM26.7765 38.6362H28.9602L29.0122 40.8584H26.9325C26.9325 41.4062 26.828 41.2824 27.3928 41.7244C27.5131 41.8185 27.8473 42.0747 27.9203 42.1716C28.327 41.9071 28.8723 41.4216 29.2722 41.1614C29.2722 41.493 29.2284 41.4103 28.7642 41.7791L28.1283 42.2726C28.3117 42.5385 29.2112 43.1692 29.3242 43.3332C29.0311 43.3332 29.0683 43.3884 28.6292 42.9977C28.4006 42.8123 27.6504 42.1758 26.9325 41.616V43.3332L25.631 43.3348C25.4209 43.3058 25.4961 43.3101 25.3727 43.1311H26.6725V40.8584H24.4888V38.6362H26.5166C26.5805 38.4035 26.7057 38.1877 26.9845 38.1816C26.923 38.4381 26.838 38.3797 26.7765 38.6362V38.6362ZM25.7887 36.515V37.0705H25.5807V34.5453H28.9602C29.0801 34.5453 29.1163 34.5804 29.1163 34.6968V37.0705L27.4489 37.074C27.0903 37.0786 27.1501 37.1275 27.0365 36.919H28.8562V36.3635H25.9446C25.8248 36.3635 25.7887 36.3986 25.7887 36.515V36.515ZM24.1249 37.0705L24.6642 35.4732C24.8163 35.0159 24.7449 35.056 25.0088 35.0504L24.384 36.9182C24.3091 37.086 24.3616 37.0654 24.1249 37.0705ZM24.1249 33.3837C24.4135 33.3899 24.424 33.5055 24.6104 33.8717C24.7326 34.1117 24.836 34.3236 24.9568 34.5453C24.6827 34.5453 24.7448 34.5833 24.6389 34.3995L24.1249 33.3837V33.3837ZM25.4247 32.4241H27.1924V31.9696H27.4004V32.4241H29.3242V32.6262H27.4004V33.1312H29.1682V33.3332H27.4004V33.8887H29.5322V34.0403H25.2687V33.8887H27.1924V33.3332H25.5807V33.1312H27.1924V32.6262H25.4247V32.4241ZM24.1249 32.1211C24.3781 32.1266 24.3697 32.1463 24.6109 32.6086C24.6973 32.7743 24.9206 33.151 24.9568 33.2827C24.6378 33.2758 24.6888 33.2171 24.4721 32.7939L24.1249 32.1211V32.1211ZM23.241 43.8382H29.8961V31.515H23.241V43.8382Z" fill="#1C3086"/>
  <path fill-rule="evenodd" clip-rule="evenodd" d="M25.1644 18.737H29.9478V16.6158C29.6798 16.7902 28.9026 17.7775 28.7 17.7775H26.7763C26.7763 15.9054 26.6138 16.0151 27.1022 15.8214L29.9998 14.5452V13.8381L27.6154 14.9058C27.3588 15.0068 27.0679 15.1863 26.7763 15.2522V13.0806H25.1644V18.737V18.737Z" fill="#1C3086"/>
  <path fill-rule="evenodd" clip-rule="evenodd" d="M0.260376 49.848H0.988256V46.0601L2.69325 49.8482L3.37995 49.848V44.444H2.65202V48.1813L0.999015 44.4476L0.260376 44.444V49.848Z" fill="#1C3086"/>
  <path fill-rule="evenodd" clip-rule="evenodd" d="M14.454 45.7989V47.468L14.8463 47.8784H16.2737V49.141H15.0259V48.2824H14.454V49.3513L14.852 49.6965H16.4232L16.8456 49.3335V47.7489L16.3529 47.2723H15.0259V45.9087H16.2737V46.8683L16.847 46.872L16.8456 45.799L16.4192 45.3531H14.8946L14.454 45.7989Z" fill="#1C3086"/>
  <path fill-rule="evenodd" clip-rule="evenodd" d="M24.6971 40.6565H28.8046V39.8989C28.8046 39.7826 28.7684 39.7474 28.6486 39.7474H24.6971V40.6565V40.6565Z" fill="#1C3086"/>
  <path fill-rule="evenodd" clip-rule="evenodd" d="M24.6971 39.4444C24.6971 39.5608 24.7333 39.5959 24.8531 39.5959H28.6486C28.8704 39.5959 28.8046 39.402 28.8046 38.9393C28.8046 38.8229 28.7684 38.7878 28.6486 38.7878H24.6971V39.4444V39.4444Z" fill="#1C3086"/>
  <path fill-rule="evenodd" clip-rule="evenodd" d="M8.21489 47.7773H8.8388V49.141H8.21772L8.21489 47.7773ZM7.74695 49.5955H8.9002L9.2547 49.2511V47.6671L8.96161 47.3228H8.21489L8.21885 46.2625L7.74695 46.2622V49.5955Z" fill="#1C3086"/>
  <path fill-rule="evenodd" clip-rule="evenodd" d="M24.8005 47.7272H25.4244V48.6868H24.8005V47.7272ZM24.3325 47.6641V48.6868C24.3325 48.8096 24.6221 49.0908 24.7485 49.0908H25.4244V49.5454H24.3846V49.9999H25.5945L25.9065 49.6736L25.8944 47.292L24.6888 47.2924L24.3325 47.6641V47.6641Z" fill="#1C3086"/>
  <path fill-rule="evenodd" clip-rule="evenodd" d="M10.2946 47.7772H10.9185V48.3328H10.2946V47.7772V47.7772ZM9.87866 47.6908V49.2466L10.1971 49.5954H11.3864V49.1409H10.2946V48.7368H11.325V47.6793L11.0437 47.3227L10.2124 47.3221L9.87866 47.6908V47.6908Z" fill="#1C3086"/>
  <path fill-rule="evenodd" clip-rule="evenodd" d="M17.9893 47.7265H18.6132V48.6861H17.9893V47.7265ZM17.5734 49.9992H17.9893V49.1407H18.7575L19.0812 48.8538V47.6535L18.717 47.3225H17.5734V49.9992V49.9992Z" fill="#1C3086"/>
  <path fill-rule="evenodd" clip-rule="evenodd" d="M22.2014 47.6392V49.5952H22.6694V47.7265H23.2933V49.5952H23.7612V47.6309L23.4327 47.3225H22.5555L22.2014 47.6392Z" fill="#1C3086"/>
  <path fill-rule="evenodd" clip-rule="evenodd" d="M5.30322 49.2508L5.65782 49.5952H6.45648L6.81107 49.2508V47.3225H6.34313V49.1407H5.71923V47.3225H5.30322V49.2508Z" fill="#1C3086"/>
  <path fill-rule="evenodd" clip-rule="evenodd" d="M25.7882 34.8987V35.3532H28.8557V34.7472H25.9442C25.8243 34.7472 25.7882 34.7823 25.7882 34.8987Z" fill="#1C3086"/>
  <path fill-rule="evenodd" clip-rule="evenodd" d="M25.7882 35.7072V36.1617H28.8557V35.5557H25.9442C25.8243 35.5557 25.7882 35.5908 25.7882 35.7072Z" fill="#1C3086"/>
  <path fill-rule="evenodd" clip-rule="evenodd" d="M4.26367 49.5959H4.73161V46.9696H4.26367V49.5959Z" fill="#1C3086"/>
  <path fill-rule="evenodd" clip-rule="evenodd" d="M11.958 49.5959H12.426V46.9696H11.958V49.5959Z" fill="#1C3086"/>
  <path fill-rule="evenodd" clip-rule="evenodd" d="M19.6531 47.6693V49.5952H20.121V47.7771H20.433V47.3225H20.0284L19.6531 47.6693Z" fill="#1C3086"/>
  <path fill-rule="evenodd" clip-rule="evenodd" d="M21.2131 49.5959H21.6291V46.9696H21.2131V49.5959Z" fill="#1C3086"/>
  <path d="M4.49657 46.2583L4.23352 46.5138L4.49657 46.7693L4.75963 46.5138L4.49657 46.2583Z" fill="#1C3086"/>
  <path d="M12.1997 46.2391L11.9366 46.4946L12.1997 46.7501L12.4628 46.4946L12.1997 46.2391Z" fill="#1C3086"/>
  <path d="M21.4152 46.274L21.1521 46.5295L21.4152 46.7851L21.6782 46.5295L21.4152 46.274Z" fill="#1C3086"/>
</svg>
