<svg xmlns="http://www.w3.org/2000/svg" fill="none" viewBox="0 0 93 49" class="design-iconfont">
  <path d="M41.9633 28.8998C42.0409 28.255 42.3353 27.4735 43.3692 26.2204C44.2754 25.1222 45.4485 24.7872 46.8591 24.9855C47.4114 25.0629 48.8151 25.5277 49.0639 26.5075C49.4154 27.8905 48.313 28.189 46.8088 28.6515C45.6243 29.016 44.9806 29.9525 44.7889 30.3398C44.7889 30.3398 44.321 31.2421 43.3875 31.2489C42.1664 31.2603 41.8081 30.1758 41.9633 28.8998Z" fill="#129044"/>
  <path d="M7.16636 28.8998C7.08876 28.255 6.79433 27.4735 5.76039 26.2204C4.85426 25.1222 3.68109 24.7872 2.27055 24.9855C1.7182 25.0629 0.314509 25.5277 0.0657247 26.5075C-0.285769 27.8905 0.816645 28.189 2.32077 28.6515C3.50535 29.016 4.14899 29.9525 4.34299 30.3398C4.34299 30.3398 4.8109 31.2421 5.74441 31.2489C6.96094 31.2603 7.32156 30.1758 7.16636 28.8998Z" fill="#129044"/>
  <path d="M43.2745 17.7943C41.5375 10.4827 38.406 4.71594 24.5175 4.71594C10.6289 4.71594 7.59324 10.4827 5.85632 17.7943C5.18985 20.599 4.93879 23.5496 4.63751 26.5093C4.25862 30.2574 3.98701 34.0191 4.74706 37.5188C5.7673 42.2147 7.67541 44.2334 11.0443 45.9878C12.4913 46.742 15.0226 47.3048 16.0405 47.5098C16.6727 47.6374 19.8864 47.9746 20.7149 48.002C23.269 48.1751 25.8572 48.1751 28.4113 48.002C29.0755 47.9404 32.4261 47.6693 33.0857 47.5098C34.1037 47.3025 36.6349 46.742 38.0819 45.9878C41.4531 44.2311 43.3589 42.2147 44.3792 37.5188C45.1392 34.0214 44.8699 30.2597 44.4887 26.5139C44.192 23.5519 43.9409 20.6013 43.2745 17.7943Z" fill="#129044"/>
  <path d="M33.8475 13.8043C33.8475 15.8435 32.1905 17.4977 30.1477 17.4977C28.1049 17.4977 26.4479 15.8435 26.4479 13.8043C26.4479 11.7651 28.1049 10.111 30.1477 10.111C32.1927 10.111 33.8475 11.7628 33.8475 13.8043Z" fill="#fff"/>
  <path d="M22.6796 13.8042C22.6796 15.8434 21.0225 17.4976 18.9797 17.4976C16.937 17.4976 15.2799 15.8434 15.2799 13.8042C15.2799 11.765 16.937 10.1108 18.9797 10.1108C21.0225 10.1108 22.6796 11.7627 22.6796 13.8042Z" fill="#fff"/>
  <path d="M19.6349 11.6774C19.6349 12.0374 19.3428 12.3313 18.9799 12.3313C18.6193 12.3313 18.3248 12.0397 18.3248 11.6774C18.3248 11.3174 18.617 11.0235 18.9799 11.0235C19.3405 11.0235 19.6349 11.3151 19.6349 11.6774Z" fill="#129044"/>
  <path d="M30.8028 11.6774C30.8028 12.0374 30.5106 12.3313 30.1477 12.3313C29.7871 12.3313 29.4927 12.0397 29.4927 11.6774C29.4927 11.3174 29.7848 11.0235 30.1477 11.0235C30.5106 11.0235 30.8028 11.3151 30.8028 11.6774Z" fill="#129044"/>
  <path d="M25.2643 5.79427C25.9353 5.79427 26.5858 5.57554 27.1199 5.16998L30.4773 2.62495C30.5777 2.54976 30.612 2.41305 30.5572 2.29913C30.5024 2.1852 30.3746 2.12596 30.2536 2.15558L26.6611 3.02595L27.0742 0.305481C27.0925 0.184723 27.0263 0.0662481 26.9122 0.0184006C26.8026 -0.02489 26.6679 0.00928542 26.5949 0.109537L24.5635 2.85051L22.5367 0.109537C22.4637 0.00928542 22.329 -0.02489 22.2195 0.0184006C22.1054 0.0662481 22.0392 0.182444 22.0574 0.305481L22.4705 3.02595L18.878 2.15558C18.7548 2.12596 18.6292 2.1852 18.5745 2.29913C18.5197 2.41305 18.5539 2.54976 18.6543 2.62495L22.0118 5.16998C22.5459 5.57554 23.1987 5.79427 23.8674 5.79427H25.2643Z" fill="#129044"/>
  <path d="M31.2185 40.1561C26.2063 40.7508 21.7008 40.8214 17.9097 40.1561C12.336 39.0077 7.41736 35.4443 7.41736 29.682C7.41736 23.9221 12.1374 19.208 17.9097 19.208H31.2185C36.9885 19.208 41.7109 23.9198 41.7109 29.682C41.7109 35.4443 37.3788 39.2789 31.2185 40.1561Z" fill="#fff"/>
  <path d="M59.4007 18.8513C56.8827 18.8513 54.833 20.8974 54.833 23.411C54.833 25.9245 56.8827 27.9707 59.4007 27.9707C61.9186 27.9707 63.9683 25.9245 63.9683 23.411C63.9683 20.8974 61.9186 18.8513 59.4007 18.8513ZM59.4007 26.4891C57.7002 26.4891 56.3172 25.1085 56.3172 23.411C56.3172 21.7135 57.7002 20.3329 59.4007 20.3329C61.1011 20.3329 62.4841 21.7135 62.4841 23.411C62.4841 25.1085 61.1011 26.4891 59.4007 26.4891Z" fill="#000"/>
  <path d="M68.9622 27.9704C71.4802 27.9704 73.5299 25.9243 73.5299 23.4107C73.5299 20.8971 71.4802 18.851 68.9622 18.851C66.4442 18.851 64.3945 20.8971 64.3945 23.4107C64.3945 25.9243 66.4422 27.9704 68.9622 27.9704ZM68.9622 20.3306C70.6627 20.3306 72.0457 21.7112 72.0457 23.4087C72.0457 25.1062 70.6627 26.4868 68.9622 26.4868C67.2617 26.4868 65.8787 25.1062 65.8787 23.4087C65.8787 21.7112 67.2617 20.3306 68.9622 20.3306Z" fill="#000"/>
  <path d="M72.7706 37.1293C71.6376 36.9788 70.4411 36.0855 69.703 34.8514V33.9126H72.0086C72.4174 33.9126 72.7507 33.5818 72.7507 33.1718C72.7507 32.7618 72.4194 32.431 72.0086 32.431H69.703V30.2581C69.703 29.85 69.3716 29.5173 68.9609 29.5173C68.5522 29.5173 68.2188 29.8481 68.2188 30.2581V32.431H65.9151C65.5064 32.431 65.173 32.7618 65.173 33.1718C65.173 33.5818 65.5044 33.9126 65.9151 33.9126H68.2208V34.8534C67.4827 36.0874 66.2882 36.9808 65.1532 37.1313C64.7464 37.1848 64.4627 37.5572 64.5163 37.9632C64.5659 38.3356 64.8853 38.605 65.2504 38.605C65.2822 38.605 65.3159 38.603 65.3496 38.599C66.3616 38.4644 67.3696 37.9533 68.2208 37.1788V39.4012C68.2208 39.8093 68.5522 40.142 68.9629 40.142C69.3736 40.142 69.705 39.8113 69.705 39.4012V37.1788C70.5562 37.9533 71.5642 38.4644 72.5761 38.599C72.6099 38.603 72.6416 38.605 72.6753 38.605C73.0424 38.605 73.3599 38.3356 73.4095 37.9632C73.4631 37.5552 73.1774 37.1828 72.7706 37.1293Z" fill="#000"/>
  <path d="M63.2096 37.1293C62.0766 36.9788 60.8801 36.0855 60.142 34.8514V33.9126H62.4477C62.8564 33.9126 63.1897 33.5818 63.1897 33.1718C63.1897 32.7618 62.8584 32.431 62.4477 32.431H60.142V30.2581C60.142 29.85 59.8106 29.5173 59.3999 29.5173C58.9912 29.5173 58.6578 29.8481 58.6578 30.2581V32.431H56.3522C55.9414 32.431 55.61 32.7618 55.61 33.1718C55.61 33.5818 55.9414 33.9126 56.3522 33.9126H58.6578V34.8514C57.9197 36.0855 56.7232 36.9788 55.5902 37.1293C55.1834 37.1828 54.8997 37.5552 54.9533 37.9612C55.0029 38.3336 55.3223 38.603 55.6874 38.603C55.7192 38.603 55.7529 38.601 55.7866 38.5971C56.7986 38.4624 57.8066 37.9513 58.6578 37.1769V39.3993C58.6578 39.8073 58.9892 40.1401 59.3999 40.1401C59.8106 40.1401 60.142 39.8093 60.142 39.3993V37.1769C60.9932 37.9513 62.0012 38.4624 63.0132 38.5971C63.0469 38.601 63.0786 38.603 63.1124 38.603C63.4795 38.603 63.7969 38.3336 63.8465 37.9612C63.9001 37.5552 63.6144 37.1828 63.2096 37.1293Z" fill="#000"/>
  <path d="M80.3687 24.773C80.2576 24.7691 80.1444 24.7671 80.0294 24.7651C79.2436 24.7532 78.7813 24.7255 78.4023 24.264C78.1424 23.947 77.6741 23.9015 77.3586 24.161C77.0411 24.4204 76.9955 24.8879 77.2554 25.2028C78.0888 26.217 79.198 26.2348 80.0075 26.2447C80.1107 26.2467 80.2159 26.2487 80.3429 26.2507H90.1866C90.5973 26.2507 90.9286 25.9199 90.9286 25.5099C90.9286 25.0998 90.5973 24.7691 90.1866 24.7691L80.3687 24.773Z" fill="#000"/>
  <path d="M84.0095 29.6595C83.4519 29.6595 82.9995 30.1112 82.9995 30.6677C82.9995 31.2243 83.4519 31.676 84.0095 31.676C84.567 31.676 85.0194 31.2243 85.0194 30.6677C85.0175 30.1112 84.5651 29.6595 84.0095 29.6595Z" fill="#000"/>
  <path d="M84.0095 36.9806C84.567 36.9806 85.0194 36.529 85.0194 35.9724C85.0194 35.4159 84.567 34.9642 84.0095 34.9642C83.4519 34.9642 82.9995 35.4159 82.9995 35.9724C82.9995 36.531 83.4519 36.9806 84.0095 36.9806Z" fill="#000"/>
  <path d="M92.2599 32.3062H90.0952C89.9444 29.5807 87.6823 27.4098 84.9144 27.4098H83.1048C80.3388 27.4098 78.0768 29.5827 77.924 32.3062H75.7572C75.3485 32.3062 75.0151 32.637 75.0151 33.047C75.0151 33.457 75.3465 33.7878 75.7572 33.7878H77.9081V34.9545C77.9081 37.8147 80.2376 40.1401 83.1028 40.1401H84.9124C87.7776 40.1401 90.1071 37.8147 90.1071 34.9545V33.7878H92.2579C92.6687 33.7878 93 33.457 93 33.047C93 32.637 92.6687 32.3062 92.2599 32.3062ZM83.1048 28.8914H84.9144C86.8629 28.8914 88.4621 30.3987 88.611 32.3082H79.4082C79.557 30.3987 81.1563 28.8914 83.1048 28.8914ZM88.6249 34.9545C88.6249 36.9966 86.9601 38.6585 84.9144 38.6585H83.1048C81.059 38.6585 79.3943 36.9966 79.3943 34.9545V33.7878H88.6268V34.9545H88.6249Z" fill="#000"/>
  <path d="M76.6744 21.7644L78.4444 21.7683L78.4463 22.4259C78.4483 22.834 78.7797 23.1648 79.1884 23.1648H79.1904C79.6012 23.1648 79.9325 22.832 79.9305 22.422L79.9286 21.7703L81.6905 21.7743H81.6925C82.1013 21.7743 82.4346 21.4435 82.4346 21.0354C82.4346 20.6274 82.1033 20.2946 81.6945 20.2927L79.9246 20.2887L79.9226 19.6311C79.9206 19.2231 79.5893 18.8923 79.1805 18.8923H79.1785C78.7698 18.8923 78.4384 19.225 78.4384 19.6351L78.4404 20.2847L76.6784 20.2808H76.6764C76.2677 20.2808 75.9363 20.6116 75.9343 21.0196C75.9324 21.4316 76.2637 21.7624 76.6744 21.7644Z" fill="#000"/>
  <path d="M86.3256 21.7644L88.0955 21.7683L88.0975 22.4259C88.0995 22.834 88.4308 23.1648 88.8396 23.1648H88.8416C89.2503 23.1648 89.5817 22.832 89.5817 22.422L89.5797 21.7703L91.3417 21.7743H91.3436C91.7524 21.7743 92.0838 21.4435 92.0857 21.0354C92.0857 20.6274 91.7544 20.2946 91.3456 20.2927L89.5757 20.2887L89.5737 19.6311C89.5717 19.2231 89.2404 18.8923 88.8316 18.8923H88.8296C88.4209 18.8923 88.0895 19.225 88.0895 19.6351L88.0915 20.2847L86.3295 20.2808H86.3276C85.9188 20.2808 85.5874 20.6116 85.5854 21.0196C85.5854 21.4316 85.9168 21.7624 86.3256 21.7644Z" fill="#000"/>
  <path d="M69.3798 13.6741C68.9512 14.1395 68.596 14.3436 68.1615 14.5238C67.3043 14.8803 66.3162 14.4723 65.959 13.6166C65.7864 13.2026 65.7864 12.7451 65.957 12.3291C66.1277 11.9132 66.4511 11.5903 66.8678 11.418C67.4611 11.1704 68.1297 11.2932 68.598 11.6834L66.7646 12.4381C66.461 12.5629 66.3162 12.9115 66.4412 13.2145C66.5662 13.5176 66.9134 13.6642 67.219 13.5374L69.7727 12.4856C69.9255 12.4222 70.0465 12.2974 70.104 12.1429C70.1616 11.9865 70.1517 11.8141 70.0763 11.6676C69.3996 10.3385 67.7865 9.74623 66.4075 10.3187C65.6971 10.6138 65.1455 11.1664 64.8518 11.8755C64.5582 12.5846 64.5601 13.3651 64.8558 14.0742C65.3141 15.1775 66.3876 15.843 67.5166 15.843C67.8837 15.843 68.2567 15.7717 68.6179 15.6231C69.11 15.4191 69.6477 15.1398 70.2548 14.4783C70.4771 14.2366 70.4612 13.8603 70.2191 13.6384C69.979 13.4166 69.602 13.4324 69.3798 13.6741Z" fill="#000"/>
  <path d="M61.4213 10.1053C60.7566 10.1053 60.1633 10.3965 59.7466 10.8501C59.3299 10.3905 58.7327 10.0954 58.064 10.0954C56.808 10.0954 55.7881 11.1155 55.7881 12.3673V15.1661C55.7881 15.4949 56.054 15.7604 56.3833 15.7604C56.7127 15.7604 56.9786 15.4949 56.9786 15.1661V12.3673C56.9786 11.7711 57.4648 11.2858 58.064 11.2858C58.6553 11.2858 59.1355 11.7612 59.1474 12.3475L59.1454 12.3772C59.1454 12.3851 59.1493 12.3931 59.1513 12.403V15.1661C59.1513 15.4949 59.4172 15.7604 59.7466 15.7604C60.076 15.7604 60.3419 15.4949 60.3419 15.1661V12.3673L60.3399 12.3475C60.3557 11.7652 60.8339 11.2938 61.4213 11.2938C62.0185 11.2938 62.5066 11.779 62.5066 12.3772V15.1661C62.5066 15.4949 62.7725 15.7604 63.1019 15.7604C63.4313 15.7604 63.6972 15.4949 63.6972 15.1661V12.3772C63.6991 11.1234 62.6773 10.1053 61.4213 10.1053Z" fill="#000"/>
  <path d="M71.9478 10.3607C71.6184 10.3607 71.3525 10.6261 71.3525 10.9549V15.166C71.3525 15.4948 71.6184 15.7603 71.9478 15.7603C72.2772 15.7603 72.5431 15.4948 72.5431 15.166V10.9549C72.5431 10.6281 72.2772 10.3607 71.9478 10.3607Z" fill="#000"/>
  <path d="M71.947 9.62575C72.3955 9.62575 72.7586 9.26327 72.7586 8.81562C72.7586 8.36797 72.3955 8.00549 71.947 8.00549C71.4986 8.00549 71.1355 8.36797 71.1355 8.81562C71.1355 9.26327 71.4986 9.62575 71.947 9.62575Z" fill="#000"/>
  <path d="M66.9792 9.67524C67.0507 9.67524 67.1241 9.66138 67.1935 9.63563L68.4733 9.14044C68.7809 9.02159 68.9337 8.67694 68.8146 8.36993C68.6956 8.06291 68.3503 7.91237 68.0428 8.02923L66.7629 8.52442C66.4554 8.64327 66.3026 8.98792 66.4217 9.29494C66.5149 9.53065 66.7411 9.67524 66.9792 9.67524Z" fill="#000"/>
  <path d="M80.0665 10.1052C79.4018 10.1052 78.8085 10.3964 78.3919 10.85C77.9752 10.3905 77.3779 10.0953 76.7092 10.0953C75.4532 10.0953 74.4333 11.1154 74.4333 12.3673V15.1661C74.4333 15.4949 74.6992 15.7603 75.0286 15.7603C75.358 15.7603 75.6239 15.4949 75.6239 15.1661V12.3673C75.6239 11.7711 76.11 11.2858 76.7092 11.2858C77.3005 11.2858 77.7807 11.7612 77.7926 12.3494L77.7906 12.3772C77.7906 12.3772 77.7946 12.393 77.7946 12.4009V15.1661C77.7946 15.4949 78.0605 15.7603 78.3899 15.7603C78.7193 15.7603 78.9851 15.4949 78.9851 15.1661V12.3673L78.9832 12.3475C78.999 11.7631 79.4772 11.2937 80.0646 11.2937C80.6618 11.2937 81.1499 11.779 81.1499 12.3772V15.1661C81.1499 15.4949 81.4158 15.7603 81.7452 15.7603C82.0746 15.7603 82.3404 15.4949 82.3404 15.1661V12.3772C82.3424 11.1233 81.3225 10.1052 80.0665 10.1052Z" fill="#000"/>
  <path d="M90.5901 10.3607C90.2608 10.3607 89.9949 10.6261 89.9949 10.9549V15.166C89.9949 15.4948 90.2608 15.7602 90.5901 15.7602C90.9195 15.7602 91.1854 15.4948 91.1854 15.166V10.9549C91.1874 10.6281 90.9195 10.3607 90.5901 10.3607Z" fill="#000"/>
  <path d="M90.5908 9.62569C91.0393 9.62569 91.4024 9.26321 91.4024 8.81556C91.4024 8.36791 91.0393 8.00543 90.5908 8.00543C90.1424 8.00543 89.7793 8.36791 89.7793 8.81556C89.7813 9.26321 90.1444 9.62569 90.5908 9.62569Z" fill="#000"/>
  <path d="M88.0258 13.674C87.5972 14.1395 87.242 14.3435 86.8075 14.5237C85.9503 14.8803 84.9622 14.4722 84.605 13.6166C84.4324 13.2026 84.4324 12.745 84.603 12.3291C84.7757 11.9131 85.0991 11.5902 85.5138 11.4179C86.1071 11.1703 86.7757 11.2931 87.244 11.6833L85.4106 12.438C85.107 12.5628 84.9622 12.9114 85.0872 13.2145C85.2122 13.5175 85.5594 13.6641 85.865 13.5373L88.4187 12.4856C88.5715 12.4222 88.6925 12.2974 88.75 12.1429C88.8076 11.9864 88.7977 11.8141 88.7223 11.6675C88.0456 10.3384 86.4345 9.74617 85.0534 10.3186C84.3431 10.6137 83.7915 11.1664 83.4978 11.8755C83.2042 12.5846 83.2061 13.365 83.4998 14.0741C83.9601 15.1774 85.0316 15.8429 86.1606 15.8429C86.5277 15.8429 86.9007 15.7716 87.2619 15.6231C87.754 15.4191 88.2917 15.1398 88.8988 14.4782C89.1211 14.2365 89.1052 13.8602 88.8631 13.6383C88.625 13.4165 88.248 13.4324 88.0258 13.674Z" fill="#000"/>
  <path d="M85.6265 9.67518C85.698 9.67518 85.7714 9.66131 85.8408 9.63556L87.1206 9.14038C87.4282 9.02153 87.581 8.67688 87.4619 8.36986C87.3429 8.06285 86.9976 7.91231 86.692 8.02917L85.4122 8.52436C85.1047 8.64321 84.9519 8.98786 85.0709 9.29487C85.1602 9.53058 85.3864 9.67518 85.6265 9.67518Z" fill="#000"/>
</svg>
