<svg xmlns="http://www.w3.org/2000/svg" fill="none" viewBox="0 0 29 32" class="design-iconfont">
  <path d="M13.1967 0C17.5696 0 21.1145 3.58169 21.1145 7.99914C21.1145 12.4177 17.5696 15.9994 13.1967 15.9994C8.82372 15.9994 5.27889 12.4177 5.27889 7.99914C5.27889 3.58055 8.82483 0 13.1967 0ZM13.1967 0C17.5696 0 21.1145 3.58169 21.1145 7.99914C21.1145 12.4177 17.5696 15.9994 13.1967 15.9994C8.82372 15.9994 5.27889 12.4177 5.27889 7.99914C5.27889 3.58055 8.82483 0 13.1967 0ZM10.2276 18.6666H16.8271C22.4761 18.6666 27.0547 23.2918 27.0547 28.9995V29.6651C27.0547 31.9144 22.475 32 16.8271 32H10.2276C4.5786 32 0 31.9966 0 29.6651V28.9995C0 23.2918 4.5786 18.6666 10.2276 18.6666Z" fill="url(#ovcl0uwhr__paint0_linear_885_7926)"/>
  <path d="M20.8188 15.0643C20.8188 14.5993 20.9602 14.1449 21.225 13.7591C21.4897 13.3734 21.8657 13.0739 22.3049 12.8989C22.7442 12.7239 23.2266 12.6815 23.6906 12.7769C24.1545 12.8724 24.5789 13.1014 24.9095 13.4347C25.24 13.1014 25.6644 12.8724 26.1283 12.7769C26.5923 12.6815 27.0748 12.7239 27.514 12.8989C27.9532 13.0739 28.3292 13.3734 28.5939 13.7591C28.8587 14.1449 29.0001 14.5993 29.0001 15.0643C29.001 15.4294 28.9143 15.7895 28.7469 16.1155C28.5796 16.4416 28.3363 16.7244 28.0369 16.9411L25.3406 19.1204C25.1907 19.2416 25.0017 19.3065 24.8074 19.3036C24.6131 19.3006 24.4263 19.2299 24.2803 19.1041L21.6542 16.8413C21.392 16.6222 21.1815 16.3497 21.0373 16.0429C20.8931 15.7361 20.8185 15.4022 20.8188 15.0643V15.0643Z" fill="url(#ovcl0uwhr__paint1_linear_885_7926)"/>
  <defs>
    <linearGradient id="ovcl0uwhr__paint0_linear_885_7926" x1="13.5274" y1="0" x2="13.5274" y2="32" gradientUnits="userSpaceOnUse">
      <stop stop-color="#1281E3"/>
      <stop offset="1" stop-color="#47DEF6"/>
    </linearGradient>
    <linearGradient id="ovcl0uwhr__paint1_linear_885_7926" x1="24.9095" y1="12.7271" x2="24.9095" y2="19.3037" gradientUnits="userSpaceOnUse">
      <stop stop-color="#27A6EA"/>
      <stop offset="1" stop-color="#32B9EE"/>
    </linearGradient>
  </defs>
</svg>
