<svg xmlns="http://www.w3.org/2000/svg" fill="none" viewBox="0 0 32 32" class="design-iconfont">
  <path d="M31.12 15.1111H29.3004C28.8604 8.46667 23.5333 3.13956 16.8889 2.69956V0.88C16.8889 0.393778 16.4951 0 16.0089 0H15.9911C15.5049 0 15.1111 0.393778 15.1111 0.88V2.69956C8.46667 3.13956 3.13956 8.46667 2.69956 15.1111H0.88C0.393778 15.1111 0 15.5049 0 15.9911V16.0089C0 16.4951 0.393778 16.8889 0.88 16.8889H2.69956C3.13956 23.5333 8.46667 28.8604 15.1111 29.3004V31.12C15.1111 31.6062 15.5049 32 15.9911 32H16.0089C16.4951 32 16.8889 31.6062 16.8889 31.12V29.3004C23.5333 28.8604 28.8604 23.5333 29.3004 16.8889H31.12C31.6062 16.8889 32 16.4951 32 16.0089V15.9911C32 15.5049 31.6062 15.1111 31.12 15.1111ZM26.6267 15.1111H25.0658C24.6458 10.7956 21.204 7.35378 16.8884 6.93378V5.37333C22.0622 5.80267 26.1973 9.93778 26.6267 15.1111ZM20.88 16.8889H23.7231C23.3133 20.4676 20.4676 23.3133 16.8889 23.7231V20.88C16.8889 20.3938 16.4951 20 16.0089 20H15.9911C15.5049 20 15.1111 20.3938 15.1111 20.88V23.7231C11.5324 23.3133 8.68667 20.4676 8.27689 16.8889H11.12C11.6062 16.8889 12 16.4951 12 16.0089V15.9911C12 15.5049 11.6062 15.1111 11.12 15.1111H8.27689C8.68667 11.5324 11.5324 8.68667 15.1111 8.27689V11.12C15.1111 11.6062 15.5049 12 15.9911 12H16.0089C16.4951 12 16.8889 11.6062 16.8889 11.12V8.27689C20.4676 8.68667 23.3133 11.5324 23.7231 15.1111H20.88C20.3938 15.1111 20 15.5049 20 15.9911V16.0089C20 16.4951 20.3938 16.8889 20.88 16.8889ZM15.1111 5.37333V6.93422C10.7956 7.35378 7.35378 10.7956 6.93378 15.1111H5.37333C5.80267 9.93778 9.93778 5.80267 15.1111 5.37333ZM5.37333 16.8889H6.93422C7.35422 21.2044 10.796 24.6462 15.1116 25.0662V26.6271C9.93778 26.1973 5.80267 22.0622 5.37333 16.8889ZM16.8889 26.6267V25.0658C21.2044 24.6462 24.6462 21.2044 25.0662 16.8889H26.6271C26.1973 22.0622 22.0622 26.1973 16.8889 26.6267Z" fill="url(#paint0_linear_707_5796)"/>
  <defs>
    <linearGradient id="paint0_linear_707_5796" x1="16" y1="0" x2="16" y2="32" gradientUnits="userSpaceOnUse">
      <stop stop-color="#1281E3"/>
      <stop offset="1" stop-color="#47DEF6"/>
    </linearGradient>
  </defs>
</svg>
