<svg xmlns="http://www.w3.org/2000/svg" fill="none" viewBox="0 0 32 30" class="design-iconfont">
  <path d="M29.5671 14.893C27.9983 13.2443 25.8387 12.2068 23.5077 11.9821L22.3202 11.9021L23.1208 11.0081C23.3905 10.5389 23.4508 10.0279 23.5143 9.48766L23.5227 9.41661L23.554 6.15488C23.554 5.69692 23.4411 5.29904 23.1883 4.86565L23.1827 4.85588L23.1099 4.64865L23.1271 4.6078C23.2383 4.34344 23.2815 4.1522 23.2815 3.92692C23.2815 3.33159 22.9527 2.77475 22.3043 2.27208C21.6902 1.79635 20.8043 1.37716 19.6715 1.02665C17.5674 0.373597 14.6999 0 11.8046 0C8.90934 0 6.04216 0.373597 3.9378 1.02488C2.80468 1.37538 1.91905 1.79457 1.30499 2.2703C0.65656 2.77356 0.327811 3.32952 0.327811 3.92514C0.327811 4.1744 0.381248 4.4133 0.47781 4.59744L0.50031 4.64214L0.425936 4.85499L0.420311 4.86476C0.167499 5.29904 0.0546873 5.69662 0.0546873 6.15577V9.42371C0.0546873 9.96102 0.258124 10.5057 0.627185 10.9578L0.68031 11.0229L0.473435 11.3512C0.192187 11.8349 0.0543748 12.2734 0.0543748 12.6914V15.9596C0.0543748 16.4442 0.221874 16.9365 0.581247 17.5058L0.624997 17.5754L0.415623 17.8418C0.134374 18.3231 0 18.7595 0 19.1766V22.444C0 23.7989 1.19749 25.0677 3.37186 26.0171C5.57716 26.9801 8.55246 27.5103 11.7499 27.5103C13.0893 27.5103 15.6468 27.2368 15.6724 27.2341L15.7349 27.2273L15.7787 27.2702C16.6399 28.117 17.669 28.7943 18.8071 29.2635C19.9835 29.7508 21.2538 30.0016 22.5377 30C27.7549 30 31.9992 25.9588 31.9992 20.9913C32.0296 18.7407 31.1608 16.5624 29.5671 14.893ZM4.65029 2.4867C6.56278 1.93163 9.12152 1.62553 11.8593 1.62553C17.714 1.62553 21.794 3.00151 21.794 4.23628C21.794 4.84463 20.8005 5.48259 19.068 5.98585C17.1565 6.5424 14.5968 6.84731 11.8593 6.84731C6.00466 6.84731 1.92468 5.47134 1.92468 4.23657C1.92437 3.62792 2.91811 2.98996 4.65029 2.4867ZM1.70656 6.4003L1.9203 6.58532C2.75218 7.30528 4.16654 7.90091 6.0106 8.30766C7.73215 8.68747 9.73589 8.88818 11.8046 8.88818C13.8734 8.88818 15.8771 8.68747 17.5987 8.30766C19.4424 7.90091 20.8574 7.30528 21.689 6.58532L21.9027 6.4003V9.37191C21.9027 10.3633 20.8624 11.3773 19.049 12.1546C17.1184 12.9812 14.5456 13.4362 11.8046 13.4362C9.06371 13.4362 6.49216 12.9812 4.56029 12.1546C2.7478 11.3784 1.70656 10.3645 1.70656 9.37191V6.4003ZM15.2377 15.3424L15.0665 15.5644C14.3009 16.5527 13.7701 17.6862 13.5103 18.8871C13.4943 18.9759 13.4746 19.0689 13.454 19.166C13.4024 19.406 13.349 19.6547 13.349 19.9022V20.023H13.2215C13.034 20.023 12.8296 20.036 12.6306 20.0487C12.4315 20.0615 12.2178 20.0751 12.0228 20.0751C9.27933 20.0751 6.69685 19.6201 4.75154 18.7936C2.9203 18.0159 1.8703 17.0019 1.8703 16.0108L1.81062 12.6064L2.03249 12.8116C2.93374 13.6446 4.31686 14.3406 6.03247 14.8246C7.77934 15.3175 9.83214 15.5783 11.9699 15.5783C12.9978 15.5783 13.9912 15.4732 14.9515 15.3711L15.2377 15.3424ZM14.8162 25.5725C13.8529 25.6797 12.8836 25.7319 11.9137 25.7288C9.13902 25.7288 6.54247 25.3507 4.60123 24.6631C2.76093 24.0118 1.70562 23.1459 1.70562 22.2868V19.4952L1.9128 19.6518C3.79561 21.0754 7.62747 21.9608 11.9128 21.9608C12.3471 21.9608 12.7221 21.9608 13.1499 21.9099L13.2718 21.8954L13.2918 22.01C13.4562 22.9481 13.7806 23.8066 14.2562 24.5615L14.2609 24.5698C14.4052 24.8445 14.5996 25.0908 14.8909 25.3691L15.0759 25.5467L14.8162 25.5725ZM28.1189 26.1915C26.6518 27.5991 24.6877 28.3745 22.594 28.3745C20.4065 28.3745 18.3824 27.5322 16.8899 26.0029C16.5565 25.685 16.2768 25.3123 16.0065 24.952L16.0027 24.9467C15.2035 23.7475 14.7808 22.3577 14.784 20.9395V20.8877C14.784 20.465 14.8399 20.0396 14.894 19.6278C14.9499 19.2545 15.0618 18.8815 15.1702 18.5206L15.1721 18.5147C15.6372 17.2068 16.4804 16.0489 17.606 15.1727C18.7315 14.2964 20.0941 13.7372 21.5387 13.5584C21.8752 13.5052 22.2121 13.5052 22.5387 13.5052H22.8161C24.833 13.5818 26.7224 14.3894 28.1402 15.779C29.5579 17.1612 30.3503 19.0129 30.3486 20.9401C30.3752 22.9209 29.583 24.7868 28.1189 26.1915Z" fill="url(#paint0_linear_667_7836)"/>
  <path d="M26.4502 20.2725C26.3714 20.2166 26.2818 20.1758 26.1864 20.1527C26.0909 20.1295 25.9917 20.1244 25.8942 20.1376C25.7967 20.1508 25.7028 20.182 25.6181 20.2296C25.5334 20.2771 25.4593 20.34 25.4002 20.4146L23.7502 22.4987V16.1043C23.7502 15.9159 23.6712 15.7352 23.5306 15.602C23.3899 15.4687 23.1991 15.3939 23.0002 15.3939C22.8013 15.3939 22.6106 15.4687 22.4699 15.602C22.3293 15.7352 22.2502 15.9159 22.2502 16.1043V22.4987L20.6002 20.4146C20.4809 20.2639 20.3032 20.1642 20.1063 20.1376C19.9094 20.1109 19.7094 20.1595 19.5502 20.2725C19.3911 20.3856 19.2859 20.5539 19.2578 20.7404C19.2297 20.927 19.2809 21.1165 19.4002 21.2672L22.4002 25.0565C22.4701 25.1447 22.5607 25.2163 22.6648 25.2657C22.769 25.315 22.8838 25.3407 23.0002 25.3407C23.1167 25.3407 23.2315 25.315 23.3356 25.2657C23.4398 25.2163 23.5304 25.1447 23.6002 25.0565L26.6002 21.2672C26.7196 21.1165 26.7708 20.927 26.7427 20.7404C26.7145 20.5539 26.6093 20.3856 26.4502 20.2725Z" fill="url(#paint1_linear_667_7836)"/>
  <defs>
    <linearGradient id="paint0_linear_667_7836" x1="16" y1="0" x2="16" y2="30" gradientUnits="userSpaceOnUse">
      <stop stop-color="#0B8AFA"/>
      <stop offset="1" stop-color="#47DEF6"/>
    </linearGradient>
    <linearGradient id="paint1_linear_667_7836" x1="23.0002" y1="15.3939" x2="23.0002" y2="25.3407" gradientUnits="userSpaceOnUse">
      <stop stop-color="#0B8AFA"/>
      <stop offset=".0001" stop-color="#0069C4"/>
      <stop offset="1" stop-color="#47DDF6"/>
    </linearGradient>
  </defs>
</svg>
