<svg xmlns="http://www.w3.org/2000/svg" fill="none" viewBox="0 0 60 60" class="design-iconfont">
  <path d="M30 11.6588C31.6708 10.6942 33.7293 10.6942 35.4 11.6588L51.0444 20.6911C52.7152 21.6557 53.7444 23.4384 53.7444 25.3677V43.4323C53.7444 45.3615 52.7152 47.1442 51.0444 48.1088L35.4 57.1411C33.7293 58.1057 31.6708 58.1057 30 57.1411L14.3556 48.1088C12.6848 47.1442 11.6556 45.3615 11.6556 43.4323V25.3677C11.6556 23.4384 12.6848 21.6557 14.3556 20.6911L30 11.6588Z" fill="url(#5najzcn62__paint0_linear_968_5176)"/>
  <g filter="url(#5najzcn62__filter0_b_968_5176)">
    <path d="M24.6 3.55885C26.2708 2.59423 28.3292 2.59423 30 3.55885L45.6444 12.5912C47.3152 13.5558 48.3444 15.3385 48.3444 17.2677V35.3323C48.3444 37.2615 47.3152 39.0442 45.6444 40.0088L30 49.0412C28.3292 50.0058 26.2708 50.0058 24.6 49.0412L8.95558 40.0088C7.28482 39.0442 6.25558 37.2615 6.25558 35.3323V17.2677C6.25558 15.3385 7.28482 13.5558 8.95558 12.5912L24.6 3.55885Z" fill="url(#5najzcn62__paint1_linear_968_5176)"/>
    <path d="M29.8312 3.85113L45.4757 12.8834C47.042 13.7878 48.0069 15.459 48.0069 17.2677V35.3323C48.0069 37.141 47.042 38.8122 45.4757 39.7166L29.8313 48.7489C28.2649 49.6532 26.3351 49.6532 24.7687 48.7489L9.12433 39.7166C7.55799 38.8122 6.59308 37.141 6.59308 35.3323V17.2677C6.59308 15.459 7.55799 13.7878 9.12433 12.8834L24.7687 3.85113C26.3351 2.9468 28.2649 2.9468 29.8312 3.85113Z" stroke="url(#5najzcn62__paint2_linear_968_5176)" stroke-width=".675"/>
  </g>
  <g filter="url(#5najzcn62__filter1_b_968_5176)">
    <path d="M24.6 3.55885C26.2708 2.59423 28.3292 2.59423 30 3.55885L45.6444 12.5912C47.3152 13.5558 48.3444 15.3385 48.3444 17.2677V35.3323C48.3444 37.2615 47.3152 39.0442 45.6444 40.0088L30 49.0412C28.3292 50.0058 26.2708 50.0058 24.6 49.0412L8.95558 40.0088C7.28482 39.0442 6.25558 37.2615 6.25558 35.3323V17.2677C6.25558 15.3385 7.28482 13.5558 8.95558 12.5912L24.6 3.55885Z" fill="url(#5najzcn62__paint3_linear_968_5176)"/>
    <path d="M29.8312 3.85113L45.4757 12.8834C47.042 13.7878 48.0069 15.459 48.0069 17.2677V35.3323C48.0069 37.141 47.042 38.8122 45.4757 39.7166L29.8313 48.7489C28.2649 49.6532 26.3351 49.6532 24.7687 48.7489L9.12433 39.7166C7.55799 38.8122 6.59308 37.141 6.59308 35.3323V17.2677C6.59308 15.459 7.55799 13.7878 9.12433 12.8834L24.7687 3.85113C26.3351 2.9468 28.2649 2.9468 29.8312 3.85113Z" stroke="url(#5najzcn62__paint4_linear_968_5176)" stroke-width=".675"/>
  </g>
  <path fill-rule="evenodd" clip-rule="evenodd" d="M20.3167 35.887C20.4716 36.0093 20.6636 36.0758 20.8614 36.0757C21.0435 36.0754 21.2211 36.019 21.3695 35.9141C21.5179 35.8092 21.6298 35.6611 21.6899 35.4902C21.7499 35.3193 21.755 35.1341 21.7045 34.9603C21.654 34.7864 21.5503 34.6324 21.4079 34.5196C18.9758 32.6054 17.5823 29.7447 17.5823 26.6727C17.5816 25.9077 17.6695 25.1458 17.844 24.4022C18.0871 24.4473 18.3355 24.4704 18.5861 24.4705C19.6767 24.4707 20.7227 24.034 21.494 23.2563C22.2653 22.4786 22.6988 21.4237 22.699 20.3236C22.6993 19.2236 22.2663 18.1685 21.4953 17.3905C20.7243 16.6124 19.6785 16.1752 18.5879 16.175C17.4973 16.1747 16.4513 16.6115 15.68 17.3892C14.9087 18.1669 14.4752 19.2218 14.475 20.3218C14.4748 21.4219 14.9078 22.477 15.6788 23.255C15.8431 23.4209 16.0199 23.5712 16.207 23.7052C15.9539 24.6692 15.825 25.6658 15.825 26.6727C15.821 28.4466 16.2233 30.1982 17.0015 31.7947C17.7798 33.3912 18.9134 34.7907 20.3167 35.887ZM31.4954 37.7587C31.4764 37.8107 31.4564 37.8625 31.4353 37.9138C31.2288 38.4171 30.926 38.8745 30.5443 39.2598C30.1625 39.645 29.7092 39.9506 29.2103 40.1591C28.7114 40.3677 28.1766 40.475 27.6366 40.475C26.5456 40.475 25.4992 40.0378 24.7277 39.2596C23.9563 38.4814 23.5228 37.426 23.5228 36.3254C23.5228 35.2249 23.9563 34.1695 24.7277 33.3913C25.4992 32.6131 26.5456 32.1759 27.6366 32.1759C28.1769 32.1757 28.7119 32.2829 29.211 32.4914C29.7101 32.7 30.1635 33.0057 30.5454 33.3912C30.9272 33.7767 31.23 34.2344 31.4363 34.738C31.5765 35.0803 31.6703 35.4393 31.7158 35.8053C33.3738 35.0713 34.806 33.9036 35.856 32.4211C37.048 30.7381 37.6893 28.7309 37.6927 26.6727C37.6927 26.4411 37.7853 26.219 37.9501 26.0552C38.1148 25.8915 38.3383 25.7995 38.5714 25.7995C38.8044 25.7995 39.0279 25.8915 39.1927 26.0552C39.3574 26.219 39.45 26.4411 39.45 26.6727C39.4461 29.0906 38.6929 31.4487 37.2928 33.4261C35.8926 35.4036 33.9136 36.9044 31.6248 37.7243C31.5825 37.7389 31.5392 37.7504 31.4954 37.7587ZM34.7573 18.9712C34.492 19.3552 34.3364 19.8215 34.3364 20.3236C34.3373 20.9522 34.5853 21.5548 35.0259 21.9993C35.4666 22.4437 36.0639 22.6939 36.6871 22.6948C37.9841 22.6948 39.0396 21.6301 39.0396 20.3236C39.0396 19.0172 37.9841 17.9525 36.6871 17.9525C36.211 17.9525 35.7677 18.0959 35.3972 18.3422C35.3907 18.3671 35.383 18.3918 35.3743 18.4162C35.3133 18.5858 35.2012 18.7326 35.0532 18.8366C34.9633 18.8997 34.8629 18.9451 34.7573 18.9712ZM33.1571 18.1946C30.5383 16.5036 27.1316 16.095 24.2126 17.1475C23.9964 17.214 23.7628 17.1953 23.5601 17.0952C23.3575 16.995 23.2014 16.8212 23.1243 16.6098C23.0472 16.3983 23.055 16.1655 23.1461 15.9596C23.2371 15.7537 23.4045 15.5906 23.6133 15.504C27.1369 14.2328 31.2616 14.7737 34.3681 16.8973C34.6014 16.7367 34.851 16.6003 35.1132 16.4908C35.6122 16.2823 36.147 16.175 36.6871 16.175C37.7779 16.175 38.824 16.6121 39.5954 17.3901C40.3667 18.1681 40.8 19.2233 40.8 20.3236C40.8 21.4239 40.3667 22.4791 39.5954 23.2572C38.824 24.0352 37.7779 24.4723 36.6871 24.4723C36.147 24.4723 35.6122 24.365 35.1132 24.1565C34.6142 23.948 34.1608 23.6424 33.7788 23.2572C33.3969 22.8719 33.094 22.4146 32.8873 21.9112C32.6806 21.4079 32.5742 20.8684 32.5742 20.3236C32.5742 19.7788 32.6806 19.2393 32.8873 18.736C32.9642 18.5487 33.0544 18.3678 33.1571 18.1946ZM20.9386 20.3236C20.9386 19.0172 19.8831 17.9525 18.5879 17.9525C17.2909 17.9525 16.2372 19.0172 16.2372 20.3236C16.2381 20.9522 16.4861 21.5548 16.9267 21.9993C17.3674 22.4437 17.9647 22.6939 18.5879 22.6948C19.8831 22.6948 20.9386 21.6301 20.9386 20.3236ZM29.2288 34.6865C28.8112 34.2448 28.241 33.9823 27.6366 33.9534C27.0133 33.9548 26.4159 34.2053 25.9753 34.6501C25.5347 35.0948 25.2868 35.6976 25.2859 36.3263C25.2868 36.9549 25.5348 37.5575 25.9754 38.002C26.4161 38.4464 27.0135 38.6966 27.6366 38.6975C28.241 38.6686 28.8112 38.406 29.2288 37.9644C29.6464 37.5227 29.8793 36.9358 29.8793 36.3254C29.8793 35.7151 29.6464 35.1282 29.2288 34.6865Z" fill="url(#5najzcn62__paint5_linear_968_5176)"/>
  <defs>
    <linearGradient id="5najzcn62__paint0_linear_968_5176" x1="8.40002" y1="10.1" x2="81.3" y2="84.6875" gradientUnits="userSpaceOnUse">
      <stop stop-color="#2BB7F8"/>
      <stop offset="1" stop-color="#fff"/>
    </linearGradient>
    <linearGradient id="5najzcn62__paint1_linear_968_5176" x1="24.5351" y1="18.8996" x2="28.8939" y2="46.4218" gradientUnits="userSpaceOnUse">
      <stop stop-color="#2BB7F8" stop-opacity=".19"/>
      <stop offset="1" stop-color="#fff" stop-opacity=".12"/>
    </linearGradient>
    <linearGradient id="5najzcn62__paint2_linear_968_5176" x1="3" y1="2" x2="60.6855" y2="34.4481" gradientUnits="userSpaceOnUse">
      <stop stop-color="#fff"/>
      <stop offset="1" stop-color="#fff" stop-opacity="0"/>
    </linearGradient>
    <linearGradient id="5najzcn62__paint3_linear_968_5176" x1="24.5351" y1="18.8996" x2="28.8939" y2="46.4218" gradientUnits="userSpaceOnUse">
      <stop stop-color="#fff" stop-opacity=".01"/>
      <stop offset="1" stop-color="#fff" stop-opacity=".12"/>
    </linearGradient>
    <linearGradient id="5najzcn62__paint4_linear_968_5176" x1="3" y1="2" x2="60.6855" y2="34.4481" gradientUnits="userSpaceOnUse">
      <stop stop-color="#fff"/>
      <stop offset="1" stop-color="#fff" stop-opacity="0"/>
    </linearGradient>
    <linearGradient id="5najzcn62__paint5_linear_968_5176" x1="14.475" y1="14.15" x2="35.4" y2="38.7875" gradientUnits="userSpaceOnUse">
      <stop stop-color="#fff" stop-opacity=".76"/>
      <stop offset="1" stop-color="#fff"/>
    </linearGradient>
    <filter id="5najzcn62__filter0_b_968_5176" x="-.494446" y="-3.91467" width="55.5889" height="60.4293" filterUnits="userSpaceOnUse" color-interpolation-filters="sRGB">
      <feFlood flood-opacity="0" result="BackgroundImageFix"/>
      <feGaussianBlur in="BackgroundImage" stdDeviation="3.375"/>
      <feComposite in2="SourceAlpha" operator="in" result="effect1_backgroundBlur_968_5176"/>
      <feBlend in="SourceGraphic" in2="effect1_backgroundBlur_968_5176" result="shape"/>
    </filter>
    <filter id="5najzcn62__filter1_b_968_5176" x="-.494446" y="-3.91467" width="55.5889" height="60.4293" filterUnits="userSpaceOnUse" color-interpolation-filters="sRGB">
      <feFlood flood-opacity="0" result="BackgroundImageFix"/>
      <feGaussianBlur in="BackgroundImage" stdDeviation="3.375"/>
      <feComposite in2="SourceAlpha" operator="in" result="effect1_backgroundBlur_968_5176"/>
      <feBlend in="SourceGraphic" in2="effect1_backgroundBlur_968_5176" result="shape"/>
    </filter>
  </defs>
</svg>
