<svg xmlns="http://www.w3.org/2000/svg" fill="none" viewBox="0 0 36 36" class="design-iconfont">
  <path d="M27.5641 2C30.067 2 32.0961 4.03156 32.0961 6.5375V30.4625C32.0961 32.9684 30.067 35 27.5641 35H9.43605C6.93315 35 4.90405 32.9684 4.90405 30.4625V6.5375C4.90405 4.03156 6.93315 2 9.43605 2H27.5641ZM21.7961 28.8125H15.2041C14.8762 28.8125 14.5619 28.9429 14.3301 29.175C14.0983 29.407 13.9681 29.7218 13.9681 30.05C13.9681 30.3782 14.0983 30.693 14.3301 30.925C14.5619 31.1571 14.8762 31.2875 15.2041 31.2875H21.7961C22.1239 31.2875 22.4382 31.1571 22.67 30.925C22.9018 30.693 23.0321 30.3782 23.0321 30.05C23.0321 29.7218 22.9018 29.407 22.67 29.175C22.4382 28.9429 22.1239 28.8125 21.7961 28.8125ZM27.5641 4.475H9.43605C9.16553 4.475 8.89766 4.52835 8.64773 4.632C8.39779 4.73565 8.1707 4.88757 7.97941 5.07909C7.78812 5.27061 7.63639 5.49798 7.53286 5.74821C7.42934 5.99845 7.37605 6.26665 7.37605 6.5375V25.1H29.6241V6.5375C29.6241 6.26665 29.5708 5.99845 29.4672 5.74821C29.3637 5.49798 29.212 5.27061 29.0207 5.07909C28.8294 4.88757 28.6023 4.73565 28.3524 4.632C28.1025 4.52835 27.8346 4.475 27.5641 4.475Z" fill="url(#z0kognock__paint0_linear_27_64)"/>
  <g clip-path="url(#z0kognock__clip0_27_64)">
    <path d="M22.8483 17.7446C22.5718 17.7446 22.3015 17.6626 22.0716 17.509C21.8417 17.3554 21.6625 17.137 21.5567 16.8816C21.4509 16.6261 21.4232 16.345 21.4771 16.0738C21.5311 15.8026 21.6642 15.5535 21.8597 15.358C22.0552 15.1625 22.3043 15.0294 22.5755 14.9754C22.8467 14.9215 23.1278 14.9492 23.3833 15.055C23.6387 15.1608 23.857 15.34 24.0107 15.5699C24.1643 15.7998 24.2463 16.0701 24.2463 16.3466C24.2463 16.7173 24.099 17.0729 23.8368 17.3351C23.5746 17.5973 23.219 17.7446 22.8483 17.7446ZM22.2774 14.5809C22.1446 13.9991 21.8741 13.4578 21.4886 13.0023C21.1031 12.5468 20.6138 12.1905 20.062 11.9634C20.2717 11.7246 20.4162 11.4356 20.4814 11.1246C21.1797 11.4243 21.7941 11.8902 22.2712 12.4816C22.7483 13.073 23.0735 13.7721 23.2187 14.518C23.0967 14.4938 22.9726 14.4819 22.8483 14.4826C22.654 14.485 22.4613 14.5182 22.2774 14.5809ZM18.6543 12.1526C18.3778 12.1526 18.1075 12.0706 17.8776 11.917C17.6477 11.7633 17.4685 11.545 17.3627 11.2896C17.2569 11.0341 17.2292 10.753 17.2831 10.4818C17.3371 10.2106 17.4702 9.96155 17.6657 9.76603C17.8612 9.57052 18.1103 9.43737 18.3815 9.38343C18.6527 9.32949 18.9338 9.35717 19.1893 9.46298C19.4447 9.5688 19.663 9.74798 19.8167 9.97788C19.9703 10.2078 20.0523 10.4781 20.0523 10.7546C20.0523 10.9382 20.0161 11.1199 19.9458 11.2896C19.8756 11.4592 19.7726 11.6133 19.6428 11.7431C19.513 11.8729 19.3589 11.9759 19.1893 12.0462C19.0196 12.1164 18.8378 12.1526 18.6543 12.1526ZM15.0306 14.5809C14.8469 14.5182 14.6544 14.485 14.4603 14.4826C14.3361 14.4826 14.2123 14.4951 14.0907 14.5199C14.236 13.7742 14.5613 13.0753 15.0383 12.4841C15.5153 11.8928 16.1295 11.4271 16.8275 11.1274C16.8929 11.4384 17.0373 11.7273 17.2469 11.9662C16.6952 12.1929 16.2059 12.5487 15.8202 13.0036C15.4345 13.4586 15.1635 13.9995 15.0302 14.5809H15.0306ZM15.8583 16.3466C15.8583 16.6231 15.7763 16.8934 15.6227 17.1233C15.469 17.3532 15.2507 17.5323 14.9952 17.6382C14.7398 17.744 14.4587 17.7717 14.1875 17.7177C13.9163 17.6638 13.6672 17.5306 13.4717 17.3351C13.2762 17.1396 13.1431 16.8905 13.0891 16.6193C13.0352 16.3481 13.0629 16.067 13.1687 15.8116C13.2745 15.5561 13.4537 15.3378 13.6836 15.1842C13.9135 15.0306 14.1838 14.9486 14.4603 14.9486C14.6438 14.9486 14.8256 14.9847 14.9952 15.055C15.1649 15.1252 15.319 15.2282 15.4488 15.358C15.5786 15.4879 15.6816 15.642 15.7518 15.8116C15.8221 15.9812 15.8583 16.163 15.8583 16.3466ZM18.6543 19.1426C19.2197 19.1426 19.7778 19.0137 20.2859 18.7657C20.7941 18.5176 21.239 18.1569 21.5868 17.711C21.8207 17.9281 22.1068 18.0811 22.4172 18.1551C21.9861 18.7493 21.4203 19.233 20.7663 19.5665C20.1123 19.9 19.3886 20.0738 18.6545 20.0738C17.9204 20.0738 17.1967 19.9 16.5426 19.5665C15.8886 19.233 15.3229 18.7493 14.8918 18.1551C15.2022 18.0811 15.4883 17.9282 15.7222 17.711C16.0699 18.1569 16.5147 18.5176 17.0228 18.7657C17.5309 19.0138 18.0888 19.1427 18.6543 19.1426Z" fill="url(#z0kognock__paint1_linear_27_64)"/>
  </g>
  <defs>
    <linearGradient id="z0kognock__paint0_linear_27_64" x1="18.5001" y1="2" x2="18.5001" y2="35" gradientUnits="userSpaceOnUse">
      <stop stop-color="#8DEAFF"/>
      <stop offset=".9999" stop-color="#3E90FF"/>
      <stop offset="1" stop-color="#4B9FFF"/>
    </linearGradient>
    <linearGradient id="z0kognock__paint1_linear_27_64" x1="18.6543" y1="9.35657" x2="18.6543" y2="20.0738" gradientUnits="userSpaceOnUse">
      <stop stop-color="#8DEAFF"/>
      <stop offset=".9999" stop-color="#3E90FF"/>
      <stop offset="1" stop-color="#4B9FFF"/>
    </linearGradient>
    <clipPath id="z0kognock__clip0_27_64">
      <path fill="#fff" transform="translate(12.5963 8.66052)" d="M0 0H12.1101V12.1101H0z"/>
    </clipPath>
  </defs>
</svg>
