<svg xmlns="http://www.w3.org/2000/svg" fill="none" viewBox="0 0 36 36" class="design-iconfont">
  <path d="M4.8166 4.52783C5.4739 4.52671 6.41736 4.86919 6.9416 5.22228C7.46584 5.57537 7.75554 6.18652 7.93327 6.75006L8.06725 7.12047C8.49697 8.30854 9.62498 9.10006 10.8884 9.10006H29.4196C31.9148 9.10006 33.9376 10.6241 33.9376 12.8334C33.9376 13.0867 33.9106 13.3401 33.856 13.5887L32.2277 21.0867C32.1616 21.3908 32.0016 21.553 31.7333 21.7501C31.465 21.9471 31.1052 21.889 30.7574 21.8889H13.8047C13.0572 21.8889 12.5124 22.5968 12.7038 23.3194V23.3194C12.8361 23.8189 13.288 24.1667 13.8047 24.1667H30.4146C30.5537 24.1666 30.6912 24.1939 30.8171 24.2467C30.943 24.2995 31.0543 24.3764 31.1428 24.472C31.2314 24.5676 31.2952 24.6795 31.3295 24.7996C31.3638 24.9197 31.3348 25.6562 31.3083 25.7778C31.1818 26.3578 30.6444 26.4723 29.9804 26.4723H12.0416C11.7082 26.4724 11.313 26.3491 11.0499 26.1667C10.7869 25.9844 10.5926 25.4479 10.5109 25.1601L5.60517 7.84139C5.52225 7.55266 5.33362 7.29678 5.06909 7.11422C4.80457 6.93167 4.47926 6.83284 4.1446 6.83339H1.37919C1.23126 6.83383 1.08469 6.8083 0.947852 6.75828C0.811011 6.70825 0.68658 6.63471 0.58167 6.54184C0.47676 6.44897 0.393428 6.3386 0.336434 6.21704C0.279441 6.09549 0.249904 5.96512 0.249512 5.83339C0.249512 5.28139 0.792998 4.52783 1.4166 4.52783H4.8166Z" fill="#86909C"/>
  <path fill="#86909C" d="M14.45 27.1666A2.55 2.5 0 1 0 14.45 32.1666A2.55 2.5 0 1 0 14.45 27.1666Z"/>
  <path fill="#86909C" d="M26.35 27.1666A2.55 2.5 0 1 0 26.35 32.1666A2.55 2.5 0 1 0 26.35 27.1666Z"/>
  <path fill-rule="evenodd" clip-rule="evenodd" d="M21.7042 14.9533C21.5339 14.9775 21.3902 15.016 21.3061 15.185C21.2377 15.3224 21.257 15.5847 21.2597 15.7658C21.2629 15.974 21.2632 16.1862 21.2599 16.3944C21.2565 16.614 21.2626 16.7753 21.1789 16.9492C20.883 17.5642 20.0363 17.7567 19.5661 17.1944C19.4763 17.087 19.3986 16.9442 19.3592 16.7719C19.2659 16.3646 19.3765 16.1534 19.7045 15.9288C19.7869 15.8723 20.0255 15.7319 20.1614 15.7595C20.3136 15.7904 20.4342 16.0146 20.2939 16.1312C20.2356 16.1796 20.1636 16.2054 20.0895 16.2412C20.0094 16.28 19.9545 16.3196 19.9033 16.3746C19.7758 16.5116 19.7938 16.6815 19.8879 16.8413C20.0889 17.1829 20.5985 17.05 20.7184 16.8229C20.8053 16.6581 20.7751 16.4712 20.775 16.2604C20.7749 16.0511 20.7723 15.8411 20.7754 15.6318C20.7786 15.4192 20.7727 15.2408 20.8343 15.0587C20.9354 14.7596 21.1867 14.5696 21.5264 14.4872C21.8466 14.4096 22.2539 14.5364 22.4725 14.7635C22.82 15.1245 22.7212 15.7575 22.3214 16.0709C22.1664 16.1923 21.7865 16.356 21.6833 16.0783C21.6362 15.9517 21.7623 15.8417 21.8458 15.7864C21.9274 15.7323 22.0401 15.6935 22.1315 15.5924C22.1789 15.54 22.2285 15.4748 22.2308 15.3742C22.2346 15.2173 22.1329 15.0526 21.9837 14.9891C21.9061 14.9561 21.7996 14.9397 21.7042 14.9533ZM20.8754 13.0059C20.6128 13.0248 20.4827 13.0346 20.2247 13.1037C19.6691 13.2523 19.1882 13.5513 18.8205 13.9424C18.5982 14.1788 18.3726 14.4917 18.2293 14.8506C18.0815 15.2208 17.9783 15.6544 18.0039 16.1168C18.034 16.6618 18.1622 17.0981 18.4363 17.556C18.4821 17.6326 18.5353 17.7148 18.5871 17.7811C18.8617 18.1324 19.0174 18.2719 19.359 18.5095C19.4807 18.5941 19.7072 18.7131 19.8508 18.7704C20.2092 18.9133 20.661 19.0249 21.1219 18.9952C21.3912 18.9778 21.5136 18.9635 21.7746 18.8981C21.9634 18.8508 22.1603 18.7713 22.3209 18.6929C23.3326 18.1995 24.0338 17.1514 23.9987 15.8737C23.9927 15.6546 23.951 15.4279 23.8999 15.2275C23.8483 15.0246 23.7764 14.8537 23.6953 14.6798C23.563 14.3958 23.2911 14.0217 23.0579 13.8177L22.8587 13.6458C22.3391 13.2257 21.5687 12.956 20.8754 13.0059Z" fill="#fff"/>
  <path fill-rule="evenodd" clip-rule="evenodd" d="M21.7041 14.9533C21.7995 14.9397 21.9061 14.9561 21.9836 14.9891C22.1328 15.0526 22.2345 15.2173 22.2308 15.3742C22.2284 15.4748 22.1789 15.54 22.1315 15.5924C22.0401 15.6935 21.9274 15.7323 21.8457 15.7864C21.7623 15.8417 21.6361 15.9517 21.6832 16.0783C21.7865 16.356 22.1663 16.1923 22.3213 16.0709C22.7212 15.7575 22.82 15.1245 22.4725 14.7635C22.2539 14.5364 21.8466 14.4096 21.5263 14.4872C21.1866 14.5696 20.9354 14.7596 20.8342 15.0587C20.7726 15.2408 20.7785 15.4192 20.7754 15.6318C20.7722 15.8411 20.7749 16.0511 20.775 16.2604C20.7751 16.4712 20.8053 16.6581 20.7183 16.8229C20.5984 17.05 20.0889 17.1829 19.8878 16.8413C19.7938 16.6815 19.7757 16.5117 19.9032 16.3746C19.9545 16.3196 20.0094 16.28 20.0895 16.2412C20.1636 16.2054 20.2356 16.1796 20.2939 16.1312C20.4342 16.0146 20.3136 15.7904 20.1613 15.7595C20.0255 15.7319 19.7868 15.8723 19.7044 15.9288C19.3764 16.1534 19.2658 16.3647 19.3591 16.7719C19.3986 16.9442 19.4763 17.087 19.5661 17.1944C20.0363 17.7567 20.8829 17.5642 21.1788 16.9492C21.2625 16.7753 21.2564 16.614 21.2599 16.3944C21.2631 16.1862 21.2628 15.974 21.2597 15.7658C21.257 15.5847 21.2377 15.3224 21.3061 15.1851C21.3902 15.016 21.5339 14.9775 21.7041 14.9533Z" fill="#86909C"/>
</svg>
