<svg xmlns="http://www.w3.org/2000/svg" fill="none" viewBox="0 0 72 72" class="design-iconfont">
  <g filter="url(#a52c5w1lh__filter0_d_2_396)">
    <path fill="#fff" d="M36 4A30 30 0 1 0 36 64A30 30 0 1 0 36 4Z"/>
    <path d="M42.668 39.4492C42.5918 39.5195 42.5566 39.5283 42.4775 39.4492C41.6572 38.6201 40.831 37.7968 40.0019 36.9736C39.9287 36.9004 39.9082 36.8652 39.999 36.7773C41.2324 35.5879 41.7568 34.1318 41.5049 32.4385C41.2646 30.8213 40.3799 29.623 38.9502 28.8261C38.8594 28.7734 38.8447 28.75 38.915 28.665C39.3105 28.1816 39.7002 27.6924 40.084 27.2031C40.1514 27.1181 40.2041 27.1035 40.3008 27.1445C40.831 27.3672 41.3848 27.4345 41.9502 27.3672C43.8984 27.1386 45.2432 25.375 44.9531 23.4355C44.6338 21.3027 42.4072 19.9931 40.3828 20.7431C37.9307 21.6513 37.3535 24.8359 39.3281 26.5527C39.4072 26.623 39.4014 26.6582 39.3398 26.7314C38.9121 27.2588 38.4873 27.7861 38.0684 28.3222C37.998 28.4101 37.9394 28.4248 37.8369 28.3984C37.0019 28.1875 36.167 28.1963 35.335 28.4219C34.5176 28.6445 33.8086 29.0547 33.1992 29.6406C33.1582 29.6787 33.1318 29.749 33.0469 29.6845C32.6719 29.3974 32.291 29.1162 31.9131 28.8291C31.957 28.7676 31.9951 28.7148 32.0361 28.6562C32.458 28.0381 32.6338 27.3525 32.543 26.6142C32.3613 25.1347 31.2217 24.0713 29.7363 23.9658C27.8965 23.834 26.3379 25.4951 26.584 27.3232C26.8799 29.5205 29.2705 30.6513 31.166 29.4912C31.2451 29.4443 31.2891 29.456 31.3564 29.5058C31.7256 29.7871 32.0947 30.0654 32.4697 30.3379C32.5518 30.3965 32.5371 30.4375 32.4932 30.5078C31.5996 31.9551 31.4648 33.4726 32.083 35.0547C32.1182 35.1426 32.1064 35.1894 32.0361 35.251C30.9756 36.1885 29.915 37.126 28.8574 38.0693C28.7812 38.1367 28.7285 38.1484 28.6348 38.0957C28.0078 37.7441 27.3281 37.6152 26.6162 37.6914C24.668 37.9052 23.2969 39.7217 23.6191 41.6758C23.9268 43.5566 25.7607 44.8515 27.6182 44.4765C28.9043 44.2187 29.8066 43.4599 30.2314 42.2177C30.6562 40.9785 30.4102 39.833 29.5547 38.831C29.4639 38.7256 29.4873 38.6845 29.5752 38.6084C30.2783 37.9902 30.9785 37.3662 31.6816 36.7451C31.9775 36.4843 32.2734 36.2207 32.5693 35.9599C32.5869 35.9834 32.6016 35.998 32.6133 36.0127C34.1396 38.1162 36.8203 38.708 39.1025 37.4424C39.1816 37.3984 39.2168 37.416 39.2695 37.4717C40.1572 38.3652 41.0478 39.2558 41.9414 40.1435C42.0117 40.2138 42.0234 40.2578 41.9736 40.3515C41.6367 40.9756 41.5107 41.6435 41.5898 42.3467C41.8154 44.3125 43.6113 45.6572 45.5771 45.3408C47.5049 45.0302 48.7998 43.0732 48.334 41.1718C47.7012 38.6113 44.6191 37.6738 42.668 39.4492V39.4492ZM39.0205 23.9599C39.0234 22.5537 40.1689 21.4082 41.5723 21.4111C42.9785 21.414 44.124 22.5654 44.1211 23.9658C44.1182 25.372 42.9727 26.5146 41.5693 26.5117C40.1543 26.5088 39.0176 25.3662 39.0205 23.9599V23.9599ZM29.5723 29.081C28.3975 29.081 27.4482 28.1377 27.4482 26.9658C27.4482 25.791 28.3916 24.8447 29.5635 24.8418C30.7324 24.8388 31.6816 25.7851 31.6846 26.9599C31.6904 28.1318 30.7441 29.081 29.5723 29.081ZM29.543 41.1191C29.54 42.5166 28.3916 43.6592 26.9971 43.6562C25.585 43.6533 24.4394 42.5049 24.4453 41.0927C24.4512 39.6982 25.5967 38.5556 26.9941 38.5586C28.4121 38.5615 29.5459 39.7011 29.543 41.1191ZM36.5478 37.2256C34.3389 37.1963 32.5576 35.333 32.5898 33.0859C32.6221 30.8886 34.4795 29.0986 36.6885 29.1338C38.9121 29.166 40.7197 30.997 40.6904 33.1855C40.6582 35.4824 38.8418 37.2549 36.5478 37.2256ZM45.0176 44.5146C43.6055 44.5234 42.4541 43.3838 42.4482 41.9687C42.4424 40.5713 43.5791 39.4258 44.9766 39.417C46.3916 39.4082 47.543 40.5478 47.5459 41.9599C47.5518 43.3545 46.4092 44.5058 45.0176 44.5146Z" fill="#000"/>
  </g>
  <defs>
    <filter id="a52c5w1lh__filter0_d_2_396" x="0" y="0" width="72" height="72" filterUnits="userSpaceOnUse" color-interpolation-filters="sRGB">
      <feFlood flood-opacity="0" result="BackgroundImageFix"/>
      <feColorMatrix in="SourceAlpha" values="0 0 0 0 0 0 0 0 0 0 0 0 0 0 0 0 0 0 127 0" result="hardAlpha"/>
      <feOffset dy="2"/>
      <feGaussianBlur stdDeviation="3"/>
      <feComposite in2="hardAlpha" operator="out"/>
      <feColorMatrix values="0 0 0 0 0 0 0 0 0 0 0 0 0 0 0 0 0 0 0.06 0"/>
      <feBlend in2="BackgroundImageFix" result="effect1_dropShadow_2_396"/>
      <feBlend in="SourceGraphic" in2="effect1_dropShadow_2_396" result="shape"/>
    </filter>
  </defs>
</svg>
