<svg xmlns="http://www.w3.org/2000/svg" fill="none" viewBox="0 0 36 36" class="design-iconfont">
  <path d="M3.75 6C3.75 5.17157 4.42157 4.5 5.25 4.5H30.75C31.5784 4.5 32.25 5.17157 32.25 6V24C32.25 24.8284 31.5784 25.5 30.75 25.5H5.25C4.42157 25.5 3.75 24.8284 3.75 24V6Z" stroke="#86909C" stroke-width="1.5" stroke-linecap="round" stroke-linejoin="round"/>
  <path d="M3.75 19.5C3.75 18.6716 4.42157 18 5.25 18H30.75C31.5784 18 32.25 18.6716 32.25 19.5V24C32.25 24.8284 31.5784 25.5 30.75 25.5H5.25C4.42157 25.5 3.75 24.8284 3.75 24V19.5Z" fill="#86909C" stroke="#86909C" stroke-width="1.5" stroke-linecap="round" stroke-linejoin="round"/>
  <path d="M18 23.25C18.8284 23.25 19.5 22.5784 19.5 21.75C19.5 20.9216 18.8284 20.25 18 20.25C17.1716 20.25 16.5 20.9216 16.5 21.75C16.5 22.5784 17.1716 23.25 18 23.25Z" fill="#fff"/>
  <path d="M12.75 25.5L10.5 31.5H25.5L23.25 25.5" stroke="#86909C" stroke-width="1.5" stroke-linecap="round" stroke-linejoin="round"/>
  <path d="M15.5094 9.28527C15.3785 9.4661 15.2127 9.62187 15.0207 9.74435L18.452 12.962C18.5837 12.7815 18.75 12.6259 18.9423 12.5034L15.5094 9.28527V9.28527ZM24.3743 9.08311L20.9551 12.4783C21.1511 12.5958 21.322 12.7473 21.4587 12.9247L24.8799 9.52739C24.6836 9.41042 24.5121 9.25965 24.3744 9.08288V9.08311H24.3743ZM12.3827 9.13764L10.3291 10.7201C10.5033 10.8646 10.6467 11.0394 10.7515 11.2351L12.8231 9.63832C12.6443 9.49917 12.4949 9.3292 12.3829 9.13741V9.13764H12.3827ZM13.9898 7.24574C13.6876 7.24444 13.3973 7.35678 13.1826 7.55807C12.968 7.75935 12.8466 8.03309 12.8451 8.3191C12.8453 8.50442 12.8961 8.68653 12.9926 8.84781C13.089 9.00908 13.2278 9.14405 13.3955 9.23964C13.5632 9.33523 13.7542 9.38822 13.9499 9.39345C14.1456 9.39869 14.3394 9.35601 14.5125 9.26954C14.7217 9.16805 14.8923 9.00739 15.0005 8.80988C15.0866 8.65924 15.1321 8.49083 15.133 8.31957C15.1324 8.17806 15.1024 8.03805 15.0446 7.90753C14.9869 7.777 14.9026 7.65852 14.7965 7.55885C14.6903 7.45918 14.5645 7.38027 14.4262 7.32663C14.2879 7.27298 14.1397 7.24566 13.9903 7.24621L13.9898 7.24574V7.24574ZM20.4669 12.9637C20.3328 12.9039 20.1875 12.8697 20.0394 12.863C19.8912 12.8564 19.7432 12.8774 19.6037 12.9249C19.4641 12.9724 19.3358 13.0455 19.2261 13.1399C19.1164 13.2344 19.0274 13.3484 18.9643 13.4754C18.6984 14.0094 18.9405 14.6464 19.5048 14.8978C20.0689 15.1495 20.7416 14.9203 21.0074 14.3862C21.0788 14.2429 21.1155 14.0863 21.115 13.9276C21.1124 13.7256 21.0503 13.5283 20.9356 13.358C20.821 13.1877 20.6583 13.0511 20.4659 12.9636H20.4669V12.9637ZM25.8556 7.00001C25.2267 6.99768 24.7146 7.47843 24.7123 8.07383C24.7071 8.6718 25.215 9.16059 25.8468 9.16549C26.4786 9.17038 26.9948 8.68963 27 8.09166C27.0051 7.49369 26.4973 7.0049 25.8655 7.00001H25.8556V7.00001ZM9.78797 11.1377C9.66704 11.056 9.53031 10.9977 9.38557 10.966C9.24083 10.9344 9.09093 10.9301 8.94442 10.9533C8.79791 10.9765 8.65767 11.0268 8.5317 11.1013C8.40573 11.1758 8.2965 11.2731 8.21025 11.3876C8.03605 11.6188 7.96601 11.906 8.01552 12.1861C8.06503 12.4662 8.23005 12.7162 8.47427 12.8811C8.64378 12.9957 8.8434 13.0637 9.05114 13.0776C9.25888 13.0916 9.46666 13.051 9.65157 12.9603C9.83649 12.8696 9.99136 12.7324 10.0991 12.5637C10.2069 12.3949 10.2633 12.2014 10.2622 12.0042C10.2609 11.8875 10.2389 11.7717 10.1971 11.6619C10.1216 11.4511 9.97858 11.2679 9.78797 11.1377V11.1377Z" fill="#86909C"/>
</svg>
