<svg xmlns="http://www.w3.org/2000/svg" fill="none" viewBox="0 0 36 36" class="design-iconfont">
  <path fill-rule="evenodd" clip-rule="evenodd" d="M4.5 6C4.5 5.58579 4.83579 5.25 5.25 5.25H30.75C31.1642 5.25 31.5 5.58578 31.5 6V18.2007C31.2794 18.073 31.0232 18 30.75 18H5.25C4.97678 18 4.72063 18.073 4.5 18.2007V6ZM5.25 3.75C4.00736 3.75 3 4.75736 3 6V24C3 25.2427 4.00737 26.25 5.25 26.25H11.6678L9.79775 31.2367C9.71138 31.467 9.74344 31.725 9.88356 31.9272C10.0237 32.1294 10.254 32.25 10.5 32.25H25.5C25.746 32.25 25.9763 32.1294 26.1164 31.9272C26.2566 31.725 26.2886 31.467 26.2022 31.2367L24.3323 26.25H30.75C31.9927 26.25 33 25.2427 33 24V6C33 4.75737 31.9927 3.75 30.75 3.75H5.25ZM22.7302 26.25H13.2697L11.5823 30.75H24.4178L22.7302 26.25Z" fill="url(#850aqbaa0__paint0_linear_27_69)"/>
  <path d="M15.5094 10.2853C15.3785 10.4661 15.2127 10.6219 15.0207 10.7443L18.452 13.962C18.5837 13.7815 18.75 13.6259 18.9423 13.5034L15.5094 10.2853V10.2853ZM24.3743 10.0831L20.9551 13.4783C21.1511 13.5958 21.322 13.7473 21.4587 13.9247L24.8799 10.5274C24.6836 10.4104 24.5121 10.2596 24.3744 10.0829V10.0831H24.3743ZM12.3827 10.1376L10.3291 11.7201C10.5033 11.8646 10.6467 12.0394 10.7515 12.2351L12.8231 10.6383C12.6443 10.4992 12.4949 10.3292 12.3829 10.1374V10.1376H12.3827ZM13.9898 8.24574C13.6876 8.24444 13.3973 8.35678 13.1826 8.55807C12.968 8.75935 12.8466 9.03309 12.8451 9.3191C12.8453 9.50442 12.8961 9.68653 12.9926 9.84781C13.089 10.0091 13.2278 10.144 13.3955 10.2396C13.5632 10.3352 13.7542 10.3882 13.9499 10.3935C14.1456 10.3987 14.3394 10.356 14.5125 10.2695C14.7217 10.1681 14.8923 10.0074 15.0005 9.80988C15.0866 9.65924 15.1321 9.49083 15.133 9.31957C15.1324 9.17806 15.1024 9.03805 15.0446 8.90753C14.9869 8.777 14.9026 8.65852 14.7965 8.55885C14.6903 8.45918 14.5645 8.38027 14.4262 8.32663C14.2879 8.27298 14.1397 8.24566 13.9903 8.24621L13.9898 8.24574V8.24574ZM20.4669 13.9637C20.3328 13.9039 20.1875 13.8697 20.0394 13.863C19.8912 13.8564 19.7432 13.8774 19.6037 13.9249C19.4641 13.9724 19.3358 14.0455 19.2261 14.1399C19.1164 14.2344 19.0274 14.3484 18.9643 14.4754C18.6984 15.0094 18.9405 15.6464 19.5048 15.8978C20.0689 16.1495 20.7416 15.9203 21.0074 15.3862C21.0788 15.2429 21.1155 15.0863 21.115 14.9276C21.1124 14.7256 21.0503 14.5283 20.9356 14.358C20.821 14.1877 20.6583 14.0511 20.4659 13.9636H20.4669V13.9637ZM25.8556 8.00001C25.2267 7.99768 24.7146 8.47843 24.7123 9.07383C24.7071 9.6718 25.215 10.1606 25.8468 10.1655C26.4786 10.1704 26.9948 9.68963 27 9.09166C27.0051 8.49369 26.4973 8.0049 25.8655 8.00001H25.8556V8.00001ZM9.78797 12.1377C9.66704 12.056 9.53031 11.9977 9.38557 11.966C9.24083 11.9344 9.09093 11.9301 8.94442 11.9533C8.79791 11.9765 8.65767 12.0268 8.5317 12.1013C8.40573 12.1758 8.2965 12.2731 8.21025 12.3876C8.03605 12.6188 7.96601 12.906 8.01552 13.1861C8.06503 13.4662 8.23005 13.7162 8.47427 13.8811C8.64378 13.9957 8.8434 14.0637 9.05114 14.0776C9.25888 14.0916 9.46666 14.051 9.65157 13.9603C9.83649 13.8696 9.99136 13.7324 10.0991 13.5637C10.2069 13.3949 10.2633 13.2014 10.2622 13.0042C10.2609 12.8875 10.2389 12.7717 10.1971 12.6619C10.1216 12.4511 9.97858 12.2679 9.78797 12.1377V12.1377Z" fill="url(#850aqbaa0__paint1_linear_27_69)"/>
  <defs>
    <linearGradient id="850aqbaa0__paint0_linear_27_69" x1="18" y1="3.75" x2="18" y2="32.25" gradientUnits="userSpaceOnUse">
      <stop stop-color="#5CDBF8"/>
      <stop offset=".9999" stop-color="#3E90FF"/>
      <stop offset="1" stop-color="#4B9FFF"/>
    </linearGradient>
    <linearGradient id="850aqbaa0__paint1_linear_27_69" x1="17.5" y1="8" x2="17.5" y2="16" gradientUnits="userSpaceOnUse">
      <stop stop-color="#5CDBF8"/>
      <stop offset=".9999" stop-color="#3E90FF"/>
      <stop offset="1" stop-color="#4B9FFF"/>
    </linearGradient>
  </defs>
</svg>
