<svg xmlns="http://www.w3.org/2000/svg" fill="none" viewBox="0 0 72 72" class="design-iconfont">
  <g filter="url(#284ujztge__filter0_d_2_405)">
    <path fill="#fff" d="M36 4A30 30 0 1 0 36 64A30 30 0 1 0 36 4Z"/>
    <mask id="284ujztge__ggnxi1zmma" fill="#fff">
      <path fill-rule="evenodd" clip-rule="evenodd" d="M41.0662 34.2007C42.1276 33.1606 42.1448 31.457 41.1047 30.3956C40.0646 29.3342 38.361 29.317 37.2997 30.3571L36.8019 30.8448C36.7231 30.9221 36.5964 30.9208 36.5191 30.8419L36.0314 30.3442C34.9913 29.2828 33.2877 29.2656 32.2263 30.3057C31.1649 31.3458 31.1477 33.0494 32.1878 34.1107L32.8155 34.7513C32.8155 34.7513 32.8155 34.7513 32.8155 34.7513V34.7513C32.8154 34.7513 32.8154 34.7514 32.8155 34.7514L35.5357 37.5273C35.5388 37.5304 35.5419 37.5336 35.545 37.5367L36.442 38.4521C36.5194 38.531 36.646 38.5323 36.7249 38.455L40.4256 34.8285C40.4256 34.8285 40.4256 34.8284 40.4256 34.8284V34.8284C40.4256 34.8284 40.4256 34.8284 40.4256 34.8284L41.0662 34.2007Z"/>
    </mask>
    <path d="M41.0662 34.2007L40.3663 33.4864L41.0662 34.2007ZM36.0314 30.3442L36.7457 29.6443L36.0314 30.3442ZM32.1878 34.1107L31.4736 34.8106L32.1878 34.1107ZM35.5357 37.5273L36.25 36.8274L35.5357 37.5273ZM35.545 37.5367L36.2593 36.8367L36.2532 36.8306L35.545 37.5367ZM32.8155 34.7513L32.1013 35.4512L32.8155 34.7513ZM36.5192 30.8419L37.2334 30.142L36.5192 30.8419ZM40.3905 31.0955C41.0441 31.7624 41.0332 32.8329 40.3663 33.4864L41.7661 34.9149C43.222 33.4883 43.2456 31.1515 41.819 29.6957L40.3905 31.0955ZM37.9996 31.0713C38.6665 30.4177 39.737 30.4286 40.3905 31.0955L41.819 29.6957C40.3924 28.2398 38.0556 28.2162 36.5998 29.6428L37.9996 31.0713ZM37.5019 31.559L37.9996 31.0713L36.5998 29.6428L36.1021 30.1305L37.5019 31.559ZM35.3172 31.0441L35.8049 31.5418L37.2334 30.142L36.7457 29.6443L35.3172 31.0441ZM32.9263 31.0199C33.5932 30.3663 34.6636 30.3772 35.3172 31.0441L36.7457 29.6443C35.319 28.1884 32.9823 28.1648 31.5264 29.5914L32.9263 31.0199ZM32.902 33.4108C32.2485 32.7439 32.2593 31.6734 32.9263 31.0199L31.5264 29.5914C30.0706 31.018 30.0469 33.3548 31.4736 34.8106L32.902 33.4108ZM33.5297 34.0513L32.902 33.4108L31.4736 34.8106L32.1013 35.4512L33.5297 34.0513ZM36.25 36.8274L33.5297 34.0514L32.1013 35.4512L34.8215 38.2272L36.25 36.8274ZM36.2532 36.8306C36.2521 36.8295 36.251 36.8284 36.25 36.8274L34.8215 38.2272C34.8266 38.2324 34.8318 38.2376 34.8369 38.2428L36.2532 36.8306ZM37.1563 37.7522L36.2593 36.8368L34.8308 38.2366L35.7279 39.152L37.1563 37.7522ZM39.7258 34.1142L36.025 37.7407L37.4248 39.1692L41.1256 35.5427L39.7258 34.1142ZM40.3663 33.4864L39.7258 34.1141L41.1256 35.5426L41.7661 34.9149L40.3663 33.4864ZM41.1399 34.1285C41.527 34.5235 41.5195 35.1566 41.1256 35.5426L39.7258 34.1141C39.3319 34.5001 39.3243 35.1333 39.7114 35.5283L41.1399 34.1285ZM35.7279 39.152C36.1917 39.6253 36.9515 39.633 37.4248 39.1692L36.025 37.7407C36.3406 37.4315 36.8471 37.4366 37.1563 37.7522L35.7279 39.152ZM41.1256 35.5427C41.5201 35.1561 41.5265 34.523 41.1399 34.1285L39.7114 35.5283C39.3249 35.1338 39.3313 34.5007 39.7258 34.1142L41.1256 35.5427ZM32.1013 35.4512C31.7147 35.0567 31.7211 34.4236 32.1156 34.0371L33.5154 35.4655C33.9099 35.079 33.9163 34.4458 33.5297 34.0513L32.1013 35.4512ZM32.1156 34.0371C31.7212 34.4235 31.7146 35.0566 32.1013 35.4512L33.5297 34.0514C33.9164 34.446 33.9097 35.0791 33.5154 35.4655L32.1156 34.0371ZM36.1021 30.1305C36.4176 29.8213 36.9242 29.8264 37.2334 30.142L35.8049 31.5418C36.2688 32.0152 37.0285 32.0229 37.5019 31.559L36.1021 30.1305Z" fill="#000" mask="url(#284ujztge__ggnxi1zmma)"/>
    <path d="M36.136 46.9004C36.0579 46.9006 35.9806 46.8853 35.9085 46.8555C35.8364 46.8257 35.7708 46.7819 35.7157 46.7267L32.3229 43.338L25.4392 43.3423C24.8091 43.342 24.2049 43.0917 23.7591 42.6465C23.3133 42.2012 23.0623 41.5973 23.0612 40.9672L23.0523 26.7079C23.0526 26.0778 23.3028 25.4735 23.7481 25.0277C24.1933 24.5819 24.7972 24.3309 25.4273 24.3298L46.8163 24.3164C47.4464 24.3167 48.0507 24.567 48.4965 25.0122C48.9423 25.4575 49.1933 26.0614 49.1944 26.6915L49.2033 40.9508C49.203 41.5809 48.9528 42.1852 48.5075 42.631C48.0622 43.0768 47.4583 43.3278 46.8282 43.3289L39.9446 43.3332L36.556 46.7262C36.5009 46.7815 36.4355 46.8253 36.3634 46.8552C36.2913 46.8851 36.214 46.9005 36.136 46.9004ZM25.4281 25.5181C25.113 25.5186 24.8111 25.6441 24.5884 25.867C24.3658 26.0899 24.2407 26.3921 24.2405 26.7071L24.2495 40.9664C24.25 41.2815 24.3755 41.5835 24.5984 41.8061C24.8213 42.0287 25.1234 42.1538 25.4385 42.154L32.5682 42.1495C32.6462 42.1495 32.7235 42.1648 32.7956 42.1946C32.8677 42.2244 32.9332 42.2681 32.9884 42.3232L36.1351 45.4661L39.2778 42.3193C39.3329 42.2641 39.3984 42.2203 39.4705 42.1904C39.5425 42.1605 39.6198 42.1451 39.6978 42.1451L46.8275 42.1406C47.1425 42.1401 47.4445 42.0146 47.6671 41.7917C47.8898 41.5688 48.0149 41.2666 48.015 40.9516L48.0061 26.6922C48.0056 26.3772 47.8801 26.0752 47.6572 25.8526C47.4342 25.63 47.1321 25.5049 46.8171 25.5047L25.4281 25.5181Z" fill="#000"/>
  </g>
  <defs>
    <filter id="284ujztge__filter0_d_2_405" x="0" y="0" width="72" height="72" filterUnits="userSpaceOnUse" color-interpolation-filters="sRGB">
      <feFlood flood-opacity="0" result="BackgroundImageFix"/>
      <feColorMatrix in="SourceAlpha" values="0 0 0 0 0 0 0 0 0 0 0 0 0 0 0 0 0 0 127 0" result="hardAlpha"/>
      <feOffset dy="2"/>
      <feGaussianBlur stdDeviation="3"/>
      <feComposite in2="hardAlpha" operator="out"/>
      <feColorMatrix values="0 0 0 0 0 0 0 0 0 0 0 0 0 0 0 0 0 0 0.06 0"/>
      <feBlend in2="BackgroundImageFix" result="effect1_dropShadow_2_405"/>
      <feBlend in="SourceGraphic" in2="effect1_dropShadow_2_405" result="shape"/>
    </filter>
  </defs>
</svg>
