<svg xmlns="http://www.w3.org/2000/svg" fill="none" viewBox="0 0 72 72" class="design-iconfont">
  <g filter="url(#a3rtom9xx__filter0_d_2_417)">
    <path fill="#fff" d="M36 4A30 30 0 1 0 36 64A30 30 0 1 0 36 4Z"/>
    <path d="M43.5 31.75C43.5 31.3 43.125 31 42.75 31H29.25C28.875 31 28.5 31.3 28.5 31.75C28.5 32.2 28.875 32.5 29.25 32.5H42.75C43.2 32.5 43.5 32.2 43.5 31.75ZM33.675 35.5H29.4C28.95 35.5 28.575 35.8 28.575 36.25C28.575 36.7 28.95 37 29.4 37H33.675C34.125 37 34.5 36.7 34.5 36.25C34.5 35.8 34.125 35.5 33.675 35.5ZM33.675 40H29.4C28.95 40 28.575 40.3 28.575 40.75C28.575 41.2 28.95 41.5 29.4 41.5H33.675C34.125 41.5 34.5 41.2 34.5 40.75C34.5 40.3 34.125 40 33.675 40ZM29.25 28H42.75C43.125 28 43.5 27.625 43.5 27.25C43.5 26.875 43.125 26.5 42.75 26.5H29.25C28.875 26.5 28.5 26.875 28.5 27.25C28.5 27.625 28.875 28 29.25 28V28Z" fill="#000"/>
    <path d="M47.25 20.5H24.75C24.375 20.5 24 20.875 24 21.25V46.75C24 47.2 24.375 47.5 24.75 47.5H36C36.45 47.5 36.75 47.2 36.75 46.75C36.75 46.3 36.45 46 36 46H25.5V22H46.5V33.25C46.5 33.7 46.8 34 47.25 34C47.7 34 48 33.7 48 33.25V21.25C48 20.875 47.7 20.5 47.25 20.5V20.5Z" fill="#000"/>
    <path d="M45.675 42.625C46.2 41.875 46.5 40.975 46.5 40C46.5 37.525 44.475 35.5 42 35.5C39.525 35.5 37.5 37.525 37.5 40C37.5 42.475 39.525 44.5 42 44.5C42.975 44.5 43.875 44.2 44.625 43.675L47.7 46.75C47.85 46.9 48.075 46.975 48.225 46.975C48.375 46.975 48.6 46.9 48.75 46.75C49.05 46.45 49.05 46 48.75 45.7L45.675 42.625V42.625ZM42 43C40.35 43 39 41.65 39 40C39 38.35 40.35 37 42 37C43.65 37 45 38.35 45 40C45 41.65 43.65 43 42 43Z" fill="#000"/>
  </g>
  <defs>
    <filter id="a3rtom9xx__filter0_d_2_417" x="0" y="0" width="72" height="72" filterUnits="userSpaceOnUse" color-interpolation-filters="sRGB">
      <feFlood flood-opacity="0" result="BackgroundImageFix"/>
      <feColorMatrix in="SourceAlpha" values="0 0 0 0 0 0 0 0 0 0 0 0 0 0 0 0 0 0 127 0" result="hardAlpha"/>
      <feOffset dy="2"/>
      <feGaussianBlur stdDeviation="3"/>
      <feComposite in2="hardAlpha" operator="out"/>
      <feColorMatrix values="0 0 0 0 0 0 0 0 0 0 0 0 0 0 0 0 0 0 0.06 0"/>
      <feBlend in2="BackgroundImageFix" result="effect1_dropShadow_2_417"/>
      <feBlend in="SourceGraphic" in2="effect1_dropShadow_2_417" result="shape"/>
    </filter>
  </defs>
</svg>
