<svg xmlns="http://www.w3.org/2000/svg" fill="none" viewBox="0 0 40 34" class="design-iconfont">
  <path d="M2.5 0.25H37.5C38.7416 0.25 39.75 1.25379 39.75 2.49513V24.9513C39.75 26.189 38.7413 27.1964 37.5 27.1964H25.3125C25.003 27.1964 24.75 27.4482 24.75 27.7583V31.0331C24.75 31.2574 24.9327 31.4391 25.1562 31.4391H27.5C28.0538 31.4391 28.5 31.8851 28.5 32.4366V33.4342H11.5V32.4366C11.5 31.8851 11.9462 31.4391 12.5 31.4391H14.8438C15.0673 31.4391 15.25 31.2574 15.25 31.0331V27.7583C15.25 27.4482 14.997 27.1964 14.6875 27.1964H2.5C1.2587 27.1964 0.25 26.189 0.25 24.9513V2.49513C0.25 1.25379 1.25845 0.25 2.5 0.25ZM22.3438 31.4391C22.5673 31.4391 22.75 31.2574 22.75 31.0331V29.0058C22.75 28.6958 22.497 28.444 22.1875 28.444H17.8125C17.503 28.444 17.25 28.6958 17.25 29.0058V31.0331C17.25 31.2574 17.4327 31.4391 17.6562 31.4391H22.3438ZM36.875 25.2013C37.3564 25.2013 37.75 24.8091 37.75 24.3275V22.6121C37.75 22.3878 37.5673 22.2061 37.3438 22.2061H2.65625C2.4327 22.2061 2.25 22.3878 2.25 22.6121V24.3275C2.25 24.8091 2.64364 25.2013 3.125 25.2013H36.875ZM2.65625 20.211H37.3438C37.5673 20.211 37.75 20.0294 37.75 19.8051V3.11891C37.75 2.6373 37.3564 2.24513 36.875 2.24513H3.125C2.64364 2.24513 2.25 2.6373 2.25 3.11891V19.8051C2.25 20.0294 2.4327 20.211 2.65625 20.211Z" fill="#ECF4FF" stroke="#38F" stroke-width=".5"/>
</svg>
