<svg xmlns="http://www.w3.org/2000/svg" fill="none" viewBox="0 0 46 39" class="design-iconfont">
  <rect x=".216981" y=".216981" width="35.5849" height="37.5377" rx="1.51887" fill="#fff" stroke="#38F" stroke-width=".433962"/>
  <path d="M0.216981 27.7734H35.8019V36.2356C35.8019 37.0745 35.1219 37.7545 34.283 37.7545H1.73585C0.896999 37.7545 0.216981 37.0745 0.216981 36.2356V27.7734Z" fill="#ECF4FF" stroke="#38F" stroke-width=".433962"/>
  <path fill="#96B8E8" d="M18.0095 30.37741A2.38679 2.38679 0 1 0 18.0095 35.15099A2.38679 2.38679 0 1 0 18.0095 30.37741Z"/>
  <rect x="26.2144" y="7.3373" width="19.6089" height="30.5617" rx="1.2366" fill="#fff" stroke="#38F" stroke-width=".353314"/>
  <path d="M26.2144 29.7724H45.8233V36.662C45.8233 37.3449 45.2697 37.8986 44.5867 37.8986H27.451C26.768 37.8986 26.2144 37.3449 26.2144 36.662V29.7724Z" fill="#ECF4FF" stroke="#38F" stroke-width=".353314"/>
  <path fill="#96B8E8" d="M36.1073 31.89237A1.94323 1.94323 0 1 0 36.1073 35.77883A1.94323 1.94323 0 1 0 36.1073 31.89237Z"/>
</svg>
