<svg xmlns="http://www.w3.org/2000/svg" fill="none" viewBox="0 0 38 32" class="design-iconfont">
  <rect x="4.60606" y=".287879" width="33.1061" height="22.1667" rx=".287879" fill="#ECF4FF" stroke="#38F" stroke-width=".575758"/>
  <path d="M0.287879 3.45467C0.287879 3.29567 0.416767 3.16679 0.575758 3.16679H34.2576C34.4166 3.16679 34.5455 3.29567 34.5455 3.45466V24.7577C34.5455 24.9167 34.4166 25.0456 34.2576 25.0456H17.9137C17.711 25.0456 17.5148 25.1168 17.3594 25.2469L10.962 30.5998C10.8301 30.7102 10.6314 30.681 10.5368 30.5374L7.1762 25.4342C7.01644 25.1916 6.74541 25.0456 6.45492 25.0456H0.575758C0.416766 25.0456 0.287879 24.9167 0.287879 24.7577V3.45467Z" fill="#fff" stroke="#38F" stroke-width=".575758"/>
  <path fill="#ECF4FF" stroke="#38F" stroke-width=".575758" d="M7.19696 10.65139A2.59091 2.59091 0 1 0 7.19696 15.833210000000001A2.59091 2.59091 0 1 0 7.19696 10.65139Z"/>
  <path fill="#ECF4FF" stroke="#38F" stroke-width=".575758" d="M17.5606 10.65139A2.59091 2.59091 0 1 0 17.5606 15.833210000000001A2.59091 2.59091 0 1 0 17.5606 10.65139Z"/>
  <path fill="#ECF4FF" stroke="#38F" stroke-width=".575758" d="M27.9243 10.65139A2.59091 2.59091 0 1 0 27.9243 15.833210000000001A2.59091 2.59091 0 1 0 27.9243 10.65139Z"/>
</svg>
