<svg xmlns="http://www.w3.org/2000/svg" fill="none" viewBox="0 0 43 40" class="design-iconfont">
  <path d="M37.3712 12.1822L37.4036 12.3005L37.517 12.3473C39.6199 13.2137 42.75 15.5081 42.75 20.0965C42.75 25.0666 38.8551 27.5603 36.7514 28.2323L36.6933 28.2509L36.6519 28.2925C36.6517 28.2921 36.6366 28.3023 36.5905 28.31C36.5403 28.3184 36.4865 28.3189 36.4361 28.3189C36.1926 28.3189 35.9689 28.2365 35.8306 28.0974C35.572 27.8373 35.414 27.5039 35.414 27.1909V13.2992V13.2768L35.4101 13.2548C35.3084 12.6916 34.7097 9.98663 32.691 7.41715C30.6637 4.83681 27.214 2.40748 21.4511 2.40748C15.6881 2.40748 12.2384 4.81184 10.2108 7.38054C8.19202 9.93808 7.59333 12.6437 7.49148 13.2583L7.48812 13.2786V13.2992V27.0945C7.48812 27.2161 7.54029 28.4025 8.05339 29.85C8.56727 31.2997 9.55049 33.0299 11.4257 34.2021L11.4277 34.2033C13.7337 35.616 16.5277 36.0127 18.499 36.1119L18.6691 36.1204L18.7393 35.9653C19.1941 34.9613 20.0889 34.3386 21.1575 34.3386C22.6779 34.3386 23.845 35.5995 23.845 37.0453C23.845 38.5837 22.6817 39.75 21.1575 39.75C20.1727 39.75 19.2797 39.21 18.8333 38.3119L18.7677 38.1799L18.6204 38.1735C16.3786 38.0755 13.1057 37.6837 10.4199 35.9475L10.42 35.9475L10.4158 35.9449C6.69281 33.6409 5.82758 29.7965 5.53651 28.0379L5.51478 27.9066L5.39374 27.8513C3.2899 26.8903 0.25 24.3976 0.25 20C0.25 15.5066 3.28397 13.2121 5.47904 12.3508L5.60042 12.3032L5.63083 12.1764C5.96721 10.7737 6.98096 7.78764 9.37988 5.15637C11.7715 2.5331 15.5502 0.25 21.4511 0.25C27.4003 0.25 31.1789 2.53293 33.5705 5.15542C35.9693 7.78587 36.9846 10.7719 37.3712 12.1822Z" fill="#ECF4FF" stroke="#38F" stroke-width=".5"/>
</svg>
