<svg xmlns="http://www.w3.org/2000/svg" fill="none" viewBox="0 0 35 36" class="design-iconfont">
  <path d="M4.6902 35.6555H4.68906C2.29355 35.6555 0.25 33.6872 0.25 31.1811V4.72441C0.25 2.30625 2.20625 0.25 4.68906 0.25H24.852C27.2475 0.25 29.2911 2.21829 29.2911 4.72441V13.6063C29.2911 14.3301 28.7353 14.9626 27.9468 14.9626C27.2329 14.9626 26.6025 14.4053 26.6025 13.6063V4.72441C26.6025 3.74747 25.8454 2.86811 24.7582 2.86811H4.68906C3.71487 2.86811 2.84478 3.63367 2.84478 4.72441V31.2756C2.84478 32.2525 3.60193 33.1319 4.68906 33.1319H25.4147C26.238 33.1319 26.8148 33.2714 27.1784 33.5055C27.525 33.7286 27.6968 34.0487 27.6968 34.4882C27.6968 34.8714 27.5329 35.1699 27.1827 35.3855C26.817 35.6107 26.2375 35.75 25.415 35.75C25.4149 35.75 25.4148 35.75 25.4147 35.75L4.6902 35.6555ZM7.58897 27.0361C7.58614 27.0349 7.58422 27.034 7.58305 27.0334L7.5575 27.0076L7.52119 26.9893C7.30161 26.8787 7.20879 26.5766 7.3491 26.2888C8.98491 23.3229 10.1155 21.9153 10.8774 21.2605C11.2561 20.9351 11.5334 20.8047 11.7265 20.7549C11.9046 20.7089 12.0281 20.7266 12.127 20.746C12.2624 20.7917 12.4239 20.8505 12.5764 20.9861C12.7304 21.123 12.8935 21.3557 12.9779 21.781L12.9777 21.781L12.9805 21.7925C13.0695 22.1511 13.1151 22.537 13.15 22.924C13.1595 23.0291 13.1682 23.1352 13.1769 23.2409C13.1991 23.5102 13.2211 23.7769 13.2545 24.0174V24.4724V25.1521L13.6949 24.6344L14.2576 23.973C14.8225 23.309 15.275 22.8099 15.6841 22.498C16.0863 22.1914 16.4089 22.094 16.729 22.1645C17.0187 22.2386 17.2282 22.4418 17.37 22.6765C17.5161 22.9184 17.5684 23.1577 17.5684 23.2441V23.2687L17.5732 23.2928C17.6617 23.7388 17.6622 24.0949 17.6622 24.4724V25.0792L18.0896 24.6486C18.0893 24.6489 18.0891 24.6491 18.0891 24.6491C18.0893 24.6494 18.1035 24.6404 18.1793 24.6149C18.183 24.6137 18.187 24.6124 18.1913 24.611C18.2433 24.5938 18.3412 24.5615 18.425 24.4951C18.6575 24.3966 18.9653 24.5113 19.095 24.7725C19.2139 25.0121 19.0993 25.3403 18.8345 25.4759C18.2183 25.7624 17.7788 25.9597 17.4262 26.035C17.0948 26.1059 16.8745 26.0621 16.6662 25.8873L16.6663 25.8872L16.6624 25.8841C16.3258 25.6128 16.3713 25.2008 16.4668 24.8161L16.4727 24.7923C16.5625 24.4309 16.6694 24.0005 16.5606 23.5618L16.4535 23.1305L16.1405 23.4459L16.1376 23.4488C15.8593 23.7293 15.3877 24.2044 15.0054 24.684L14.3586 25.3357C14.3288 25.3657 14.2982 25.3971 14.2668 25.4293C14.0885 25.6116 13.8839 25.8211 13.6483 25.9763C13.3763 26.1555 13.1113 26.2299 12.8426 26.1283C12.5588 26.0211 12.3915 25.8118 12.2903 25.4752C12.1848 25.1246 12.1602 24.6623 12.1602 24.0945C12.1602 23.5802 12.0858 23.0659 12.0055 22.5101C11.9938 22.429 11.9819 22.3471 11.9702 22.2641L11.9051 21.8051L11.5573 22.1117C11.158 22.4637 10.6278 23.123 10.052 23.9518C9.47789 24.7782 8.84725 25.7894 8.2397 26.8703C8.1701 26.9368 8.10779 26.98 8.04506 27.0081C7.9766 27.0387 7.89509 27.0571 7.78384 27.0571C7.7355 27.0571 7.68476 27.0566 7.63767 27.0487C7.61499 27.0449 7.59905 27.0402 7.58897 27.0361ZM34.0794 16.3569L34.0792 16.3572L34.0907 16.365C34.808 16.8468 34.9805 17.9079 34.4073 18.6504L34.4072 18.6503L34.4021 18.6575L27.0898 28.8586C27.0893 28.8592 27.0889 28.8598 27.0884 28.8604C26.9604 29.0322 26.8407 29.1497 26.7089 29.2351C26.5772 29.3204 26.4208 29.3816 26.2093 29.4242L26.1999 29.4261L26.1906 29.4288L23.498 30.1918L23.4139 27.3979C23.4146 27.0435 23.5059 26.656 23.7165 26.4438L23.7306 26.4296L23.7423 26.4134L31.0545 16.2124C31.6332 15.4661 32.607 15.3095 33.3349 15.7944L34.0794 16.3569ZM6.43956 9.60433H23.0077V10.7106H6.43956V9.60433ZM6.43956 12.7224H23.0077V13.8287H6.43956V12.7224ZM6.43956 15.8405H19.9129V16.9468H6.43956V15.8405Z" fill="#ECF4FF" stroke="#38F" stroke-width=".5"/>
</svg>
