<svg xmlns="http://www.w3.org/2000/svg" fill="none" viewBox="0 0 39 38" class="design-iconfont">
  <path d="M38.75 33.8844C38.75 36.0168 37.0023 37.75 34.841 37.75H4.159C1.99769 37.75 0.25 36.0168 0.25 33.8844V4.11565C0.25 1.98326 1.99769 0.25 4.159 0.25H34.841C37.0023 0.25 38.75 1.98322 38.75 4.11565V33.8844ZM36.85 4.11565C36.85 3.01375 35.9481 2.12498 34.841 2.12498H4.159C3.05192 2.12498 2.15 3.01375 2.15 4.11565V33.8844C2.15 34.9863 3.05193 35.875 4.159 35.875H34.841C35.9481 35.875 36.85 34.9863 36.85 33.8844V4.11565Z" fill="#ECF4FF" stroke="#38F" stroke-width=".5"/>
  <path d="M5.33333 5.85H4.66667C4.54812 5.85 4.42264 5.77807 4.31996 5.62406C4.21796 5.47105 4.15 5.25092 4.15 5C4.15 4.74908 4.21796 4.52895 4.31996 4.37594C4.42264 4.22193 4.54812 4.15 4.66667 4.15H5.33333C5.45152 4.15 5.57702 4.22188 5.67982 4.37598C5.78192 4.52902 5.85 4.74915 5.85 5C5.85 5.25085 5.78192 5.47098 5.67982 5.62402C5.57702 5.77812 5.45152 5.85 5.33333 5.85Z" fill="#ECF4FF" stroke="#38F" stroke-width=".3"/>
  <path d="M9.33333 5.85H8.66667C8.54812 5.85 8.42264 5.77807 8.31996 5.62406C8.21796 5.47105 8.15 5.25092 8.15 5C8.15 4.74908 8.21796 4.52895 8.31996 4.37594C8.42264 4.22193 8.54812 4.15 8.66667 4.15H9.33333C9.45152 4.15 9.57702 4.22188 9.67982 4.37598C9.78192 4.52902 9.85 4.74915 9.85 5C9.85 5.25085 9.78192 5.47098 9.67982 5.62402C9.57702 5.77812 9.45152 5.85 9.33333 5.85Z" fill="#ECF4FF" stroke="#38F" stroke-width=".3"/>
  <path d="M13.3333 5.85H12.6667C12.5481 5.85 12.4226 5.77807 12.3199 5.62406C12.2179 5.47105 12.15 5.25092 12.15 5C12.15 4.74908 12.2179 4.52895 12.3199 4.37594C12.4226 4.22193 12.5481 4.15 12.6667 4.15H13.3333C13.4515 4.15 13.577 4.22188 13.6798 4.37598C13.7819 4.52902 13.85 4.74915 13.85 5C13.85 5.25085 13.7819 5.47098 13.6798 5.62402C13.577 5.77812 13.4515 5.85 13.3333 5.85Z" fill="#ECF4FF" stroke="#38F" stroke-width=".3"/>
  <path d="M8.31996 22.6171L8.23609 22.7148L8.31996 22.8125L13.7464 29.1338C13.9071 29.3212 13.8785 29.5946 13.6766 29.7491L13.6766 29.7491C13.5883 29.8168 13.4812 29.85 13.3736 29.85C13.2312 29.85 13.0929 29.7914 12.9999 29.6837C12.9999 29.6837 12.9999 29.6837 12.9999 29.6836L7.25351 22.9905C7.25349 22.9905 7.25347 22.9905 7.25345 22.9905C7.11553 22.8294 7.11551 22.6015 7.2534 22.4404C7.25344 22.4403 7.25347 22.4403 7.25351 22.4403L10.7936 18.3164C10.7936 18.3164 10.7936 18.3164 10.7936 18.3163C10.9586 18.1247 11.2635 18.093 11.4705 18.2505C11.6726 18.4049 11.7009 18.6784 11.5401 18.866L8.31996 22.6171Z" fill="#ECF4FF" stroke="#38F" stroke-width=".3"/>
  <path d="M13.1697 16.7949L13.1697 16.7949L13.7972 16.4345C13.7972 16.4345 13.7972 16.4345 13.7972 16.4345C13.9005 16.3751 13.9028 16.3267 13.8987 16.3086C13.8917 16.2775 13.8479 16.2169 13.7104 16.165L13.1697 16.7949ZM13.1697 16.7949C13.0546 16.861 12.8753 16.9 12.686 16.9C12.5437 16.9 12.4034 16.8779 12.2896 16.8349L13.1697 16.7949ZM12.2896 16.8349C12.1521 16.783 12.1083 16.7224 12.1013 16.6913C12.0972 16.6731 12.0995 16.6248 12.2028 16.5654C12.2028 16.5654 12.2028 16.5654 12.2028 16.5654L12.8302 16.205C12.8302 16.205 12.8302 16.205 12.8302 16.205C12.9317 16.1469 13.0823 16.1096 13.2473 16.1016C13.4115 16.0936 13.5788 16.1152 13.7104 16.165L12.2896 16.8349Z" fill="#ECF4FF" stroke="#38F" stroke-width=".2"/>
  <path d="M25.3211 29.7525L25.3216 29.7528C25.4091 29.8175 25.5167 29.85 25.6266 29.85C25.7706 29.85 25.9092 29.793 26.0023 29.6899C26.0024 29.6898 26.0025 29.6897 26.0025 29.6896L31.7481 23.2586L31.7482 23.2586C31.8839 23.1067 31.8839 22.8941 31.7482 22.7422L31.7481 22.7422L26.0023 16.3105C26.0022 16.3105 26.0022 16.3104 26.0022 16.3104C25.8366 16.1258 25.5284 16.0947 25.3213 16.2473L25.3211 16.2474L25.3211 16.2474C25.1207 16.3945 25.0948 16.6507 25.2518 16.8267C25.2518 16.8267 25.2518 16.8267 25.2519 16.8267L30.6782 22.8999L30.7675 22.9999L30.6782 23.0998L25.2519 29.1737L25.3211 29.7525ZM25.3211 29.7525C25.1207 29.6054 25.0949 29.3499 25.2518 29.1738L25.3211 29.7525Z" fill="#ECF4FF" stroke="#38F" stroke-width=".3"/>
  <path d="M16.3242 26.7477C16.4126 26.8164 16.5193 26.85 16.6264 26.85C16.7678 26.85 16.906 26.7908 16.9993 26.6811C16.9993 26.6811 16.9993 26.681 16.9994 26.681L22.7456 19.8827C22.7457 19.8826 22.7457 19.8826 22.7457 19.8826C22.9077 19.6904 22.8782 19.409 22.6759 19.2516C22.4698 19.0924 22.1661 19.1243 22.0008 19.3191L16.3242 26.7477ZM16.3242 26.7477C16.1217 26.5902 16.0923 26.3099 16.2543 26.1178C16.2543 26.1178 16.2544 26.1178 16.2544 26.1178L22.0007 19.3193L16.3242 26.7477Z" fill="#ECF4FF" stroke="#38F" stroke-width=".3"/>
  <path fill="#ECF4FF" stroke="#38F" stroke-width=".5" d="M2.25 8.25H36.75V9.75H2.25z"/>
</svg>
