<svg xmlns="http://www.w3.org/2000/svg" fill="none" viewBox="0 0 36 36" class="design-iconfont">
  <path fill="url(#paint0_linear_731_5636)" d="M18 0A18 18 0 1 0 18 36A18 18 0 1 0 18 0Z"/>
  <path d="M30.0001 14.6312L22.1311 6H19.7441L21.3445 7.87093L25.8039 12.7603H14.3226L25.4136 27.1291L26.7448 29H29.1772L18.0862 14.6312H30.0001Z" fill="#fff"/>
  <path d="M22.225 11.4569L19.7455 7.87093L18.4458 6H16.2387L18.7183 9.58595H10.4111L6 29H7.81176L8.26995 27.1291L11.8336 11.4569H22.225ZM21.8687 26.7362L20.9703 26.362C20.0772 26.0076 19.0902 26.0076 18.1972 26.362L17.2988 26.7362C16.8378 26.9067 16.3344 26.9067 15.8734 26.7362L14.975 26.362C14.082 26.0076 13.0949 26.0076 12.2019 26.362L11.04 26.8515C10.9277 26.8954 10.825 26.9622 10.7379 27.048C10.6508 27.1339 10.5811 27.237 10.5329 27.3514C10.4846 27.4657 10.4589 27.5889 10.4571 27.7138C10.4554 27.8386 10.4777 27.9626 10.5226 28.0784C10.5676 28.1941 10.6344 28.2993 10.7191 28.3878C10.8037 28.4762 10.9045 28.5461 11.0156 28.5934C11.1266 28.6406 11.2455 28.6643 11.3655 28.6629C11.4854 28.6615 11.6038 28.6351 11.7138 28.5853L12.8757 28.0957C13.3368 27.9252 13.8401 27.9252 14.3012 28.0957L15.1996 28.4699C16.0926 28.8243 17.0796 28.8243 17.9726 28.4699L18.871 28.0957C19.3321 27.9252 19.8354 27.9252 20.2965 28.0957L21.1949 28.4699C21.3048 28.5197 21.4233 28.5461 21.5432 28.5475C21.6631 28.5489 21.7821 28.5253 21.8931 28.478C22.0041 28.4308 22.1049 28.3609 22.1896 28.2724C22.2742 28.184 22.341 28.0788 22.386 27.963C22.431 27.8472 22.4533 27.7233 22.4515 27.5984C22.4498 27.4735 22.424 27.3503 22.3758 27.236C22.3276 27.1216 22.2579 27.0185 22.1708 26.9327C22.0837 26.8468 21.981 26.78 21.8687 26.7362Z" fill="#fff"/>
  <path d="M16.2824 23.1634L15.3757 22.8306C14.4928 22.5252 13.5384 22.5252 12.6556 22.8306L11.4829 23.267C11.3655 23.3039 11.2566 23.3651 11.1627 23.447C11.0687 23.5289 10.9918 23.6297 10.9364 23.7433C10.881 23.857 10.8485 23.9811 10.8406 24.1082C10.8328 24.2353 10.8498 24.3627 10.8907 24.4828C10.9316 24.6029 10.9956 24.7131 11.0786 24.8067C11.1617 24.9004 11.2622 24.9756 11.3741 25.0278C11.486 25.0799 11.6068 25.108 11.7294 25.1102C11.852 25.1125 11.9738 25.0889 12.0873 25.0409L13.26 24.6045C13.752 24.4443 14.2793 24.4443 14.7712 24.6045L15.6779 24.9373C16.5607 25.2432 17.5152 25.2432 18.398 24.9373L19.3047 24.6045C19.4031 24.5684 19.5042 24.5411 19.607 24.5228C19.8352 24.4717 20.0356 24.3312 20.1666 24.1304C20.2975 23.9296 20.3489 23.6841 20.3099 23.445C20.271 23.2059 20.1447 22.9916 19.9575 22.8467C19.7702 22.7019 19.5364 22.6376 19.3047 22.6674C19.0992 22.7039 18.8969 22.7585 18.7003 22.8306L17.7936 23.1634C17.3017 23.324 16.7743 23.324 16.2824 23.1634ZM17.3221 19.5404C16.9013 19.6653 16.4553 19.6653 16.0345 19.5404L15.2487 19.2735C14.4607 19.0235 13.6188 19.0235 12.8308 19.2735L11.8063 19.622C11.5821 19.7034 11.3976 19.8729 11.2924 20.094C11.1872 20.3152 11.1697 20.5704 11.2438 20.8048C11.3178 21.0392 11.4774 21.2341 11.6883 21.3475C11.8991 21.461 12.1444 21.484 12.3714 21.4116L13.396 21.0631C13.8168 20.9381 14.2628 20.9381 14.6836 21.0631L15.4694 21.3299C16.2573 21.5804 17.0993 21.5804 17.8873 21.3299C18.1114 21.2486 18.296 21.0791 18.4011 20.8579C18.5063 20.6368 18.5238 20.3816 18.4498 20.1472C18.3757 19.9128 18.2161 19.7179 18.0053 19.6044C17.7944 19.491 17.5491 19.468 17.3221 19.5404ZM14.7772 15.886H12.3926C12.1521 15.886 11.9215 15.9852 11.7515 16.1619C11.5814 16.3385 11.4859 16.578 11.4859 16.8278C11.4859 17.0776 11.5814 17.3172 11.7515 17.4938C11.9215 17.6705 12.1521 17.7697 12.3926 17.7697H14.7772C15.0177 17.7697 15.2483 17.6705 15.4184 17.4938C15.5884 17.3172 15.684 17.0776 15.684 16.8278C15.684 16.578 15.5884 16.3385 15.4184 16.1619C15.2483 15.9852 15.0177 15.886 14.7772 15.886Z" fill="#fff"/>
  <defs>
    <linearGradient id="paint0_linear_731_5636" x1="18" y1="0" x2="18" y2="36" gradientUnits="userSpaceOnUse">
      <stop stop-color="#8EEBFF"/>
      <stop offset="1" stop-color="#56D1EC"/>
    </linearGradient>
  </defs>
</svg>
