<svg xmlns="http://www.w3.org/2000/svg" fill="none" viewBox="0 0 36 36" class="design-iconfont">
  <path fill="url(#paint0_linear_731_5650)" d="M18 0A18 18 0 1 0 18 36A18 18 0 1 0 18 0Z"/>
  <path d="M17.5958 27.2754H7.17864C6.97482 27.2875 6.7835 27.373 6.64366 27.5147C6.50382 27.6563 6.42597 27.8433 6.42597 28.0377C6.42597 28.232 6.50382 28.4191 6.64366 28.5607C6.7835 28.7023 6.97482 28.7879 7.17864 28.8H17.5958C17.7996 28.7879 17.9909 28.7023 18.1307 28.5607C18.2706 28.4191 18.3484 28.232 18.3484 28.0377C18.3484 27.8433 18.2706 27.6563 18.1307 27.5147C17.9909 27.373 17.7996 27.2875 17.5958 27.2754ZM29.5993 21.3679L19.8763 16.4994L22.0483 12.9185C22.2606 12.5683 22.3182 12.1523 22.2084 11.7617C22.0986 11.3712 21.8304 11.0381 21.4627 10.8356L15.2172 7.40415C14.8492 7.20209 14.4121 7.1473 14.0017 7.2518C13.5913 7.3563 13.2413 7.61155 13.0286 7.96148L6.215 19.1867C6.00237 19.537 5.94461 19.9533 6.05443 20.3441C6.16425 20.7348 6.43265 21.0681 6.80062 21.2706L13.0472 24.7011C13.4149 24.9029 13.8517 24.9577 14.2618 24.8534C14.6719 24.7491 15.0218 24.4942 15.2347 24.1447L17.4181 20.5442L26.7921 25.9897C26.9762 26.0908 27.1949 26.1183 27.4002 26.0659C27.6055 26.0136 27.7806 25.8857 27.8869 25.7106L29.8896 22.4088C29.9431 22.3225 29.9781 22.2268 29.9925 22.1275C30.0069 22.0281 30.0005 21.927 29.9734 21.8301C29.9464 21.7331 29.8995 21.6423 29.8352 21.5628C29.771 21.4832 29.6908 21.4167 29.5993 21.3669V21.3679ZM14.2515 22.7214C14.1452 22.8966 13.9701 23.0244 13.7648 23.0768C13.5595 23.1291 13.3407 23.1017 13.1567 23.0006L8.29926 20.3299C8.11564 20.2286 7.98175 20.0621 7.92695 19.8669C7.87216 19.6718 7.90093 19.4639 8.00697 19.289L14.0149 9.3838C14.1214 9.20879 14.2965 9.08117 14.5018 9.02901C14.7071 8.97684 14.9258 9.0044 15.1097 9.10563L19.9661 11.7743C20.3483 11.9847 20.4794 12.4516 20.2584 12.8163L14.2515 22.7204V22.7214ZM26.9026 24.2882L18.2423 19.1926L19.0438 17.8725L28.1048 22.3086L26.9026 24.2882Z" fill="#fff"/>
  <defs>
    <linearGradient id="paint0_linear_731_5650" x1="18" y1="0" x2="18" y2="36" gradientUnits="userSpaceOnUse">
      <stop stop-color="#8EEBFF"/>
      <stop offset="1" stop-color="#56D1EC"/>
    </linearGradient>
  </defs>
</svg>
