<svg xmlns="http://www.w3.org/2000/svg" fill="none" viewBox="0 0 36 36" class="design-iconfont">
  <path fill="url(#paint0_linear_731_5648)" d="M18 0A18 18 0 1 0 18 36A18 18 0 1 0 18 0Z"/>
  <path d="M26.5714 23.3793C25.7839 23.3794 25.0205 23.6412 24.4094 24.1208C23.7983 24.6004 23.3768 25.2684 23.2157 26.0127L14.6897 26.011C14.466 25.867 14.3297 24.883 14.2491 24.2069H16.7237C17.1146 24.7068 17.73 25.0345 18.4286 25.0345C18.834 25.0344 19.2311 24.9233 19.5737 24.714C19.9164 24.5047 20.1905 24.2059 20.3642 23.8522C20.538 23.4985 20.6043 23.1044 20.5553 22.7158C20.5064 22.3272 20.3443 21.96 20.0878 21.6568C19.8314 21.3536 19.4911 21.1269 19.1065 21.003C18.7219 20.879 18.3088 20.863 17.9152 20.9567C17.5215 21.0504 17.1635 21.25 16.8826 21.5324C16.6018 21.8147 16.4097 22.1682 16.3286 22.5517H14.0186C13.7074 20.9189 12.9917 19.2414 10.7469 19.2414H6.85714C6.62981 19.2414 6.4118 19.3286 6.25105 19.4838C6.09031 19.639 6 19.8495 6 20.069C6 20.2885 6.09031 20.499 6.25105 20.6542C6.4118 20.8094 6.62981 20.8966 6.85714 20.8966H10.7477C11.6134 20.8966 12.0103 21.408 12.2666 22.5517H6.85714C6.62981 22.5517 6.4118 22.6389 6.25105 22.7941C6.09031 22.9493 6 23.1598 6 23.3793C6 23.5988 6.09031 23.8093 6.25105 23.9645C6.4118 24.1197 6.62981 24.2069 6.85714 24.2069H12.5237C12.7037 25.7603 12.9411 27.6679 14.7266 27.6679H23.2491C23.2706 27.6679 23.2877 27.6579 23.3083 27.6563C23.7394 29.0094 25.0286 30 26.5714 30C27.4807 30 28.3528 29.6512 28.9958 29.0304C29.6388 28.4096 30 27.5676 30 26.6897C30 25.8117 29.6388 24.9697 28.9958 24.3489C28.3528 23.7281 27.4807 23.3793 26.5714 23.3793ZM26.5714 28.3448C26.3462 28.3448 26.1233 28.3019 25.9153 28.2186C25.7073 28.1354 25.5183 28.0134 25.3591 27.8596C25.1999 27.7059 25.0736 27.5233 24.9875 27.3224C24.9014 27.1215 24.8571 26.9062 24.8571 26.6888C24.8572 26.4714 24.9016 26.2561 24.9878 26.0553C25.0741 25.8545 25.2004 25.672 25.3597 25.5183C25.5189 25.3646 25.708 25.2427 25.9161 25.1595C26.1241 25.0764 26.3471 25.0336 26.5723 25.0337C27.0271 25.0338 27.4632 25.2083 27.7846 25.5189C28.1061 25.8294 28.2867 26.2506 28.2866 26.6897C28.2865 27.1287 28.1057 27.5498 27.784 27.8602C27.4624 28.1706 27.0262 28.3449 26.5714 28.3448ZM6.85714 17.5862H17.1566C17.1926 17.5862 17.2234 17.5705 17.2577 17.5663C17.4425 18.2802 17.8689 18.9141 18.4692 19.3675C19.0694 19.8208 19.8093 20.0677 20.5714 20.069C21.4807 20.069 22.3528 19.7202 22.9958 19.0994C23.6388 18.4786 24 17.6366 24 16.7586C24 15.8807 23.6388 15.0387 22.9958 14.4179C22.3528 13.797 21.4807 13.4483 20.5714 13.4483C19.8093 13.4495 19.0694 13.6964 18.4692 14.1498C17.8689 14.6031 17.4425 15.237 17.2577 15.9509C17.2234 15.9468 17.1926 15.931 17.1566 15.931H6.85714C6.62981 15.931 6.4118 16.0182 6.25105 16.1734C6.09031 16.3286 6 16.5391 6 16.7586C6 16.9781 6.09031 17.1886 6.25105 17.3438C6.4118 17.499 6.62981 17.5862 6.85714 17.5862ZM20.5714 15.1034C20.7966 15.1035 21.0196 15.1464 21.2276 15.2296C21.4356 15.3129 21.6246 15.4349 21.7838 15.5887C21.943 15.7424 22.0692 15.925 22.1554 16.1259C22.2415 16.3267 22.2858 16.542 22.2857 16.7594C22.2857 16.9769 22.2413 17.1921 22.155 17.393C22.0688 17.5938 21.9424 17.7763 21.7832 17.93C21.6239 18.0837 21.4349 18.2056 21.2268 18.2888C21.0187 18.3719 20.7958 18.4147 20.5706 18.4146C20.1158 18.4145 19.6797 18.24 19.3582 17.9294C19.0367 17.6189 18.8562 17.1977 18.8563 16.7586C18.8564 16.3195 19.0372 15.8985 19.3588 15.5881C19.6805 15.2777 20.1167 15.1033 20.5714 15.1034ZM6.85714 14.4257H10.7477C13.6466 14.4257 14.0049 12.091 14.2191 10.6966C14.3983 9.51972 14.508 9.31034 14.7266 9.31034H22.7237C23.1146 9.81021 23.73 10.1379 24.4286 10.1379C24.834 10.1379 25.2311 10.0267 25.5737 9.81743C25.9164 9.60815 26.1905 9.30931 26.3642 8.95562C26.538 8.60193 26.6043 8.2079 26.5553 7.8193C26.5064 7.4307 26.3443 7.06347 26.0878 6.76027C25.8314 6.45707 25.4911 6.23034 25.1065 6.10642C24.7219 5.98249 24.3088 5.96645 23.9152 6.06016C23.5215 6.15387 23.1635 6.35348 22.8826 6.63582C22.6018 6.91815 22.4097 7.27162 22.3286 7.65517H14.7266C12.9514 7.65517 12.6934 9.33931 12.5229 10.4541C12.2709 12.1001 12.0394 12.7705 10.7477 12.7705H6.85714C6.62981 12.7705 6.4118 12.8577 6.25105 13.0129C6.09031 13.1681 6 13.3786 6 13.5981C6 13.8176 6.09031 14.0281 6.25105 14.1833C6.4118 14.3385 6.62981 14.4257 6.85714 14.4257Z" fill="#fff"/>
  <defs>
    <linearGradient id="paint0_linear_731_5648" x1="18" y1="0" x2="18" y2="36" gradientUnits="userSpaceOnUse">
      <stop stop-color="#8EEBFF"/>
      <stop offset="1" stop-color="#56D1EC"/>
    </linearGradient>
  </defs>
</svg>
