<svg xmlns="http://www.w3.org/2000/svg" fill="none" viewBox="0 0 36 36" class="design-iconfont">
  <path fill="url(#paint0_linear_731_5644)" d="M18 0A18 18 0 1 0 18 36A18 18 0 1 0 18 0Z"/>
  <path d="M25.4345 13.551L20.2955 17.7888L14.8597 14.0276C14.5911 13.8418 14.2328 13.8667 13.9915 14.0882L9.64971 18.0728C9.36005 18.3386 9.33659 18.7934 9.59731 19.0888C9.85801 19.3841 10.3041 19.408 10.5937 19.1422L14.5247 15.5346L19.9362 19.2789C20.053 19.3598 20.1911 19.4031 20.3323 19.403C20.4939 19.4031 20.6505 19.3466 20.7761 19.243L26.3219 14.6696C26.6249 14.4198 26.6718 13.9668 26.4268 13.6579C26.1817 13.349 25.7375 13.3011 25.4345 13.551Z" fill="#fff"/>
  <path d="M28.3999 7.805H18.7055V6.73555C18.7055 6.33226 18.3818 5.99245 17.9863 6.00013C17.603 6.00751 17.2944 6.32671 17.2944 6.71938V7.805H7.59997C6.71633 7.805 6 8.53537 6 9.43633V22.8703C6 23.7712 6.71633 24.5016 7.59997 24.5016H17.2944V25.322L12.9129 28.7072C12.6023 28.9472 12.5413 29.3984 12.7766 29.7151C13.012 30.0317 13.4545 30.0939 13.7651 29.8539L17.2944 27.1271C17.2944 27.1271 17.5236 26.9557 17.7236 26.8147C17.804 26.7579 17.8995 26.7275 17.9973 26.7278C18.0952 26.728 18.1906 26.7589 18.2707 26.8161L18.7056 27.1271L22.2349 29.8539C22.3572 29.9488 22.5068 30.0001 22.6605 30C22.8737 30 23.0845 29.9017 23.2233 29.7151C23.4587 29.3984 23.3977 28.9472 23.0871 28.7072L18.7056 25.3219V24.5016H28.4C29.2836 24.5016 30 23.7712 30 22.8702V9.43627C30 8.53531 29.2836 7.80497 28.3999 7.80497V7.805ZM28.5888 22.8702C28.5888 22.9213 28.5689 22.9702 28.5335 23.0063C28.498 23.0424 28.45 23.0627 28.3999 23.0628H7.59997C7.5499 23.0627 7.5019 23.0424 7.46649 23.0063C7.43109 22.9702 7.41117 22.9213 7.41112 22.8702V9.43627C7.41117 9.38522 7.43109 9.33628 7.46649 9.30018C7.5019 9.26408 7.5499 9.24377 7.59997 9.24371H28.4C28.45 9.24376 28.4981 9.26407 28.5335 9.30017C28.5689 9.33627 28.5888 9.38522 28.5889 9.43627V22.8702L28.5888 22.8702Z" fill="#fff"/>
  <defs>
    <linearGradient id="paint0_linear_731_5644" x1="18" y1="0" x2="18" y2="36" gradientUnits="userSpaceOnUse">
      <stop stop-color="#8EEBFF"/>
      <stop offset="1" stop-color="#56D1EC"/>
    </linearGradient>
  </defs>
</svg>
