<svg xmlns="http://www.w3.org/2000/svg" fill="none" viewBox="0 0 36 36" class="design-iconfont">
  <path fill="url(#paint0_linear_731_5642)" d="M18 0A18 18 0 1 0 18 36A18 18 0 1 0 18 0Z"/>
  <g clip-path="url(#clip0_731_5642)" fill="#fff">
    <path d="M27.6876 21.9C27.5338 21.75 27.38 21.55 27.2262 21.4C25.5342 19.6 23.2783 18.35 20.8686 17.85C23.0732 16.85 24.5601 14.7 24.5601 12.2C24.6114 8.8 21.7402 6 18.2538 6C14.7161 6 11.8449 8.8 11.8449 12.2C11.8449 14.7 13.383 16.85 15.5364 17.85C10.1017 19.05 6 23.8 6 29.5V30H24.1499C24.4063 30 24.6626 29.8 24.6626 29.5C24.6626 29.25 24.4576 29 24.1499 29H7.02542C7.28177 23.2 12.2038 18.55 18.2538 18.55C21.3813 18.55 24.4063 19.85 26.5084 22.1C26.6622 22.25 26.7647 22.4 26.9186 22.55C27.0724 22.75 27.38 22.8 27.6364 22.65C27.8414 22.45 27.8927 22.15 27.6876 21.9ZM12.8703 12.2C12.8703 9.35 15.28 7 18.2538 7C21.2275 7 23.5859 9.35 23.5859 12.2C23.5859 15.1 21.1762 17.4 18.2538 17.4C15.28 17.45 12.8703 15.1 12.8703 12.2Z"/>
    <path d="M29.4909 27.8825H25.4181C25.1636 27.8825 24.9091 27.5616 24.9091 27.2408V27.1124C24.9091 26.7916 25.1636 26.4707 25.4181 26.4707H29.4909C29.7454 26.4707 30 26.7916 30 27.1124V27.2408C30 27.6258 29.7454 27.8825 29.4909 27.8825Z"/>
    <path d="M27.8182 24.9177V29.4354C27.8182 29.7177 27.6529 30.0001 27.4876 30.0001H27.4215C27.2562 30.0001 27.0909 29.7177 27.0909 29.4354V24.9177C27.0909 24.6354 27.2562 24.353 27.4215 24.353H27.4876C27.686 24.353 27.8182 24.6354 27.8182 24.9177Z"/>
  </g>
  <defs>
    <linearGradient id="paint0_linear_731_5642" x1="18" y1="0" x2="18" y2="36" gradientUnits="userSpaceOnUse">
      <stop stop-color="#8EEBFF"/>
      <stop offset="1" stop-color="#56D1EC"/>
    </linearGradient>
    <clipPath id="clip0_731_5642">
      <path fill="#fff" transform="translate(6 6)" d="M0 0H24V24H0z"/>
    </clipPath>
  </defs>
</svg>
