<svg xmlns="http://www.w3.org/2000/svg" fill="none" viewBox="0 0 36 36" class="design-iconfont">
  <path fill="url(#paint0_linear_731_5646)" d="M18 0A18 18 0 1 0 18 36A18 18 0 1 0 18 0Z"/>
  <g clip-path="url(#clip0_731_5646)" fill="#fff">
    <path d="M18.0001 6C12.8656 6 8.30113 9.26284 6.64209 14.1194L8.26432 14.6736C9.68649 10.5109 13.5989 7.71429 18.0001 7.71429C23.0944 7.71429 27.3357 11.4375 28.146 16.3058L26.6686 15.3206L25.7177 16.7469L28.6674 18.7132C28.8106 18.8086 28.9763 18.8571 29.1429 18.8571C29.2819 18.8571 29.4208 18.8237 29.5472 18.7559C29.826 18.6069 30.0001 18.3164 30.0001 18C30.0001 11.3831 24.617 6 18.0001 6Z"/>
    <path d="M18 28.2858C12.9057 28.2858 8.66434 24.5626 7.85409 19.6943L9.3315 20.6795L10.2824 19.2532L7.33264 17.2869C7.07066 17.112 6.73166 17.0952 6.45291 17.2442C6.17417 17.3932 6 17.6837 6 18.0001C6 24.617 11.3831 30.0001 18 30.0001C23.1353 30.0001 27.6998 26.7373 29.358 21.8807L27.7358 21.3265C26.3145 25.4892 22.4021 28.2858 18 28.2858Z"/>
    <path d="M17.7 11.6724C18.921 11.6724 19.92 12.6735 19.92 13.897C19.92 15.1206 18.921 16.1216 17.7 16.1216C17.0757 16.1216 16.5068 15.8714 16.0767 15.4125C15.6465 14.9537 15.4384 14.3697 15.48 13.7441C15.5494 12.6457 16.4652 11.7419 17.5613 11.6863C17.6029 11.6724 17.6445 11.6724 17.7 11.6724ZM17.7 19.4447C18.6297 19.4447 20.142 19.6811 21.4463 20.1955C22.5563 20.6404 23.25 21.1966 23.25 21.6554V22.7816H12.15V21.6554C12.15 21.1966 12.8438 20.6404 13.9538 20.1955C15.258 19.6811 16.7704 19.4447 17.7 19.4447ZM17.7 10.5601H17.5058C15.8408 10.6574 14.481 12.0061 14.37 13.6606C14.2452 15.6072 15.7714 17.2201 17.6862 17.2201C19.5177 17.2201 21.0162 15.7184 21.0162 13.8831C21.0162 12.0478 19.5315 10.5601 17.7 10.5601ZM17.7 18.3324C15.48 18.3324 11.04 19.4447 11.04 21.6554V23.3239C11.04 23.6298 11.2898 23.8801 11.595 23.8801H23.805C24.1103 23.8801 24.36 23.6298 24.36 23.3239V21.6415C24.36 19.4447 19.92 18.3324 17.7 18.3324Z"/>
  </g>
  <defs>
    <linearGradient id="paint0_linear_731_5646" x1="18" y1="0" x2="18" y2="36" gradientUnits="userSpaceOnUse">
      <stop stop-color="#8EEBFF"/>
      <stop offset="1" stop-color="#56D1EC"/>
    </linearGradient>
    <clipPath id="clip0_731_5646">
      <path fill="#fff" transform="translate(6 6)" d="M0 0H24V24H0z"/>
    </clipPath>
  </defs>
</svg>
