<svg xmlns="http://www.w3.org/2000/svg" fill="none" viewBox="0 0 36 36" class="design-iconfont">
  <path d="M26.8618 28.7668L19.6129 25.0218C22.172 23.0676 22.8667 19.2258 22.8667 17.0731V12.5907C22.8667 9.62449 18.8025 6.31868 14.7212 6.31868C10.6414 6.31868 6.47177 9.62584 6.47177 12.5907V17.0731C6.47177 19.032 7.32492 22.9943 9.91072 25.0059L2.84624 28.7253C2.84624 28.7253 1 29.5229 1 30.5155V33.2071C0.998602 34.1983 1.8261 35 2.84409 35H26.8619C27.8824 35 28.7103 34.2038 28.7103 33.2188V30.5452C28.7103 29.498 26.8618 28.7668 26.8618 28.7668ZM26.5193 32.8903L3.18656 32.8764V30.979C3.34394 30.8676 3.56257 30.739 3.73633 30.6615C3.78727 30.6386 3.83853 30.6158 3.88802 30.5895L10.9514 26.8714C11.5949 26.5318 12.0239 25.9037 12.0873 25.1954C12.1539 24.4864 11.8495 23.7946 11.2772 23.3491C9.44342 21.9228 8.65726 18.7609 8.65726 17.073V12.5906C8.65726 11.0667 11.6198 8.44161 14.7212 8.44161C17.8795 8.44161 20.6783 11.0315 20.6783 12.5906V17.073C20.6783 18.7373 20.1485 21.9124 18.2598 23.354C17.6816 23.796 17.3703 24.4877 17.4327 25.1995C17.4928 25.9092 17.9198 26.5442 18.5639 26.8873L25.8128 30.6171C25.873 30.6489 25.9509 30.6842 26.0143 30.7098C26.1767 30.7769 26.375 30.8863 26.5192 30.983V32.8903H26.5193ZM34.1766 23.7137L27.2727 19.9666C29.8016 17.9875 30.1783 14.2072 30.1783 12.0096V7.43585C30.1783 4.40607 26.4726 1 22.4422 1C19.8215 1 17.1424 2.41598 15.5832 4.22969C16.4723 4.28569 17.4529 4.28709 18.2997 4.55545C19.4376 3.67348 20.8791 3.14849 22.4422 3.14849C25.5618 3.14849 28.0468 5.84276 28.0468 7.43581V12.0103C28.0468 13.7091 27.8011 16.8198 25.9353 18.2787C25.367 18.7242 25.0601 19.427 25.1192 20.1485C25.1793 20.8665 25.5988 21.5099 26.238 21.8557L33.1425 25.6028C33.2013 25.6354 33.2785 25.6706 33.3423 25.6962C33.5 25.7661 33.698 25.8782 33.8401 25.9764V27.8877H29.4774C30.1369 28.3802 30.3356 29.0872 30.5902 30.0362H34.1741C35.1824 30.0362 36 29.2228 36 28.2218V25.5296C36.0019 24.4608 34.1766 23.7137 34.1766 23.7137Z" fill="#86909C"/>
</svg>
