<svg xmlns="http://www.w3.org/2000/svg" fill="none" viewBox="0 0 36 36" class="design-iconfont">
  <path d="M14.6712 14.4279C14.4853 14.6992 14.2497 14.9328 13.9768 15.1165L18.8528 19.943C19.04 19.6722 19.2763 19.4389 19.5495 19.2551L14.6712 14.4279V14.4279ZM27.2687 14.1247L22.4098 19.2175C22.6884 19.3938 22.9312 19.6209 23.1256 19.887L27.9873 14.7911C27.7082 14.6156 27.4646 14.3895 27.2689 14.1243V14.1247H27.2687ZM10.2281 14.2065L7.30971 16.5801C7.55736 16.7969 7.76113 17.0592 7.91001 17.3526L10.8539 14.9575C10.5998 14.7488 10.3875 14.4938 10.2283 14.2061V14.2065H10.2281ZM12.5118 11.3686C12.0824 11.3667 11.6699 11.5352 11.3648 11.8371C11.0598 12.139 10.8872 12.5496 10.8851 12.9787C10.8855 13.2566 10.9577 13.5298 11.0947 13.7717C11.2318 14.0136 11.429 14.2161 11.6673 14.3595C11.9057 14.5029 12.177 14.5823 12.4551 14.5902C12.7332 14.598 13.0086 14.534 13.2546 14.4043C13.5519 14.2521 13.7943 14.0111 13.9481 13.7148C14.0705 13.4889 14.1351 13.2362 14.1363 12.9794C14.1355 12.7671 14.0929 12.5571 14.0108 12.3613C13.9288 12.1655 13.8089 11.9878 13.6581 11.8383C13.5073 11.6888 13.3285 11.5704 13.132 11.4899C12.9354 11.4095 12.7249 11.3685 12.5125 11.3693L12.5118 11.3686V11.3686ZM21.7161 19.9456C21.5255 19.8559 21.3191 19.8045 21.1086 19.7946C20.8981 19.7846 20.6877 19.8161 20.4894 19.8874C20.2911 19.9586 20.1088 20.0682 19.9529 20.2099C19.797 20.3516 19.6706 20.5225 19.5808 20.713C19.203 21.514 19.5471 22.4695 20.3489 22.8467C21.1505 23.2242 22.1066 22.8804 22.4842 22.0793C22.5856 21.8643 22.6378 21.6294 22.6371 21.3913C22.6335 21.0884 22.5452 20.7925 22.3822 20.537C22.2193 20.2815 21.9881 20.0766 21.7147 19.9454H21.7161V19.9456ZM29.3738 11C28.48 10.9965 27.7524 11.7176 27.749 12.6108C27.7417 13.5077 28.4634 14.2409 29.3612 14.2482C30.259 14.2556 30.9926 13.5344 30.9999 12.6375C31.0073 11.7405 30.2856 11.0074 29.3878 11H29.3738V11ZM6.5408 17.2065C6.36895 17.084 6.17465 16.9965 5.96897 16.9491C5.76329 16.9016 5.55027 16.8951 5.34207 16.9299C5.13388 16.9647 4.93459 17.0402 4.75558 17.152C4.57657 17.2637 4.42134 17.4097 4.29878 17.5814C4.05123 17.9282 3.95169 18.359 4.02205 18.7792C4.09241 19.1993 4.32691 19.5743 4.67396 19.8217C4.91484 19.9935 5.19852 20.0955 5.49372 20.1165C5.78893 20.1374 6.0842 20.0765 6.34697 19.9405C6.60975 19.8045 6.82982 19.5986 6.98294 19.3455C7.13606 19.0924 7.21627 18.802 7.21473 18.5063C7.21281 18.3312 7.18153 18.1576 7.1222 17.9928C7.01489 17.6767 6.81167 17.4019 6.5408 17.2065V17.2065Z" fill="#86909C"/>
  <path d="M29.2746 3H5.72274C3.67129 3 2 4.60528 2 6.57533V22.6278C2 24.5979 3.67129 26.2033 5.72274 26.2033H29.2746C31.3259 26.2033 32.9975 24.5979 32.9975 22.6278V6.57533C33.0734 4.60528 31.4017 3 29.2746 3V3ZM31.4449 22.9272C31.4449 23.8356 30.6567 24.5167 29.7898 24.5167H5.35922C4.41377 24.5167 3.70422 23.7598 3.70422 22.9272V6.27592C3.70422 5.36758 4.49235 4.68645 5.35922 4.68645H29.79C30.7358 4.68645 31.445 5.44337 31.445 6.27592V22.9272H31.4449ZM28.2871 29.9568H22.3608V29.3731C22.3608 28.8625 21.9812 28.4975 21.4493 28.4975H12.9401C12.4083 28.4975 12.0284 28.8625 12.0284 29.3731V29.9568H6.17858C5.57068 29.9568 5.11484 30.3949 5.11484 30.9785C5.11484 31.5624 5.57068 32 6.17858 32H28.2871C28.8948 32 29.3506 31.5624 29.3506 30.9785C29.3505 30.3949 28.8948 29.9568 28.2871 29.9568V29.9568Z" fill="#86909C"/>
</svg>
