<svg xmlns="http://www.w3.org/2000/svg" fill="none" viewBox="0 0 36 36" class="design-iconfont">
  <path stroke="#86909C" stroke-width="1.49139" d="M7.95982 7.7113A4.2256 4.2256 0 1 0 7.95982 16.1625A4.2256 4.2256 0 1 0 7.95982 7.7113Z"/>
  <path stroke="#86909C" stroke-width="1.49139" d="M17.9022 26.6022A4.2256 4.2256 0 1 0 17.9022 35.053399999999996A4.2256 4.2256 0 1 0 17.9022 26.6022Z"/>
  <path stroke="#86909C" stroke-width="1.49139" d="M28.8395 7.7113A4.2256 4.2256 0 1 0 28.8395 16.1625A4.2256 4.2256 0 1 0 28.8395 7.7113Z"/>
  <path d="M11.9368 6.96556V6.96556C15.2315 3.67087 20.5732 3.67087 23.8679 6.96556V6.96556" stroke="#86909C" stroke-width="1.5"/>
  <path d="M29.8337 17.9024V17.9024C31.0396 22.4031 28.3687 27.0292 23.8681 28.2351V28.2351" stroke="#86909C" stroke-width="1.5"/>
  <path d="M12.1319 28.2351V28.2351C7.63128 27.0291 4.9604 22.4031 6.16634 17.9024V17.9024" stroke="#86909C" stroke-width="1.5"/>
</svg>
