<svg xmlns="http://www.w3.org/2000/svg" fill="none" viewBox="0 0 22 22" class="design-iconfont">
  <path d="M9.71547 14.2772L1.36549 8.64509C1.24731 8.5654 1.15138 8.45457 1.0874 8.3238C1.02342 8.19304 0.993663 8.04697 1.00112 7.90036C1.00859 7.75375 1.05301 7.61179 1.1299 7.48883C1.20679 7.36587 1.31343 7.26627 1.43903 7.20008L10.9831 2.17103C11.1917 2.06115 11.2707 2.03269 11.3631 2.01402C11.4535 1.99533 11.5465 1.99533 11.6369 2.01402C11.7293 2.03279 11.8082 2.06115 12.0168 2.17103L21.561 7.20008C21.6866 7.26627 21.7932 7.36587 21.8701 7.48883C21.947 7.61179 21.9914 7.75375 21.9989 7.90036C22.0063 8.04697 21.9766 8.19304 21.9126 8.3238C21.8486 8.45457 21.7527 8.5654 21.6345 8.64509L13.2844 14.2771C12.5957 14.7416 12.3178 14.8617 11.9894 14.9408C11.6675 15.0197 11.3323 15.0197 11.0104 14.9408C10.6821 14.8617 10.4042 14.7416 9.71547 14.2772Z" fill="#000"/>
  <path d="M1.58332 10.0001L9.71551 15.5714C10.4043 16.0432 10.6822 16.1652 11.0105 16.2455C11.3388 16.3257 11.6612 16.3257 11.9896 16.2455C12.3178 16.1652 12.5957 16.0432 13.2845 15.5714L21.4166 10.0001L21.5611 10.0774C21.6866 10.1446 21.7933 10.2458 21.8701 10.3707C21.947 10.4956 21.9914 10.6398 21.9989 10.7887C22.0063 10.9376 21.9766 11.0859 21.9126 11.2187C21.8487 11.3515 21.7528 11.4641 21.6346 11.5451L13.2845 17.2657C12.5957 17.7376 12.3178 17.8596 11.9895 17.9398C11.6675 18.0201 11.3324 18.0201 11.0104 17.9398C10.6822 17.8596 10.4043 17.7376 9.71551 17.2658L1.36549 11.5451C1.24731 11.4641 1.15138 11.3515 1.0874 11.2187C1.02342 11.0859 0.993663 10.9375 1.00112 10.7886C1.00859 10.6397 1.05301 10.4955 1.1299 10.3706C1.20679 10.2457 1.31343 10.1445 1.43903 10.0773L1.58352 10L1.58332 10.0001Z" fill="#000"/>
  <path d="M1.58332 13.0001L9.71551 18.5714C10.4043 19.0432 10.6822 19.1652 11.0105 19.2455C11.3388 19.3257 11.6612 19.3257 11.9896 19.2455C12.3178 19.1652 12.5957 19.0432 13.2845 18.5714L21.4166 13.0001L21.5611 13.0774C21.6866 13.1446 21.7933 13.2458 21.8701 13.3707C21.947 13.4956 21.9914 13.6398 21.9989 13.7887C22.0063 13.9376 21.9766 14.0859 21.9126 14.2187C21.8487 14.3515 21.7528 14.4641 21.6346 14.5451L13.2845 20.2657C12.5957 20.7376 12.3178 20.8596 11.9895 20.9398C11.6675 21.0201 11.3324 21.0201 11.0104 20.9398C10.6822 20.8596 10.4043 20.7376 9.71551 20.2658L1.36549 14.5451C1.24731 14.4641 1.15138 14.3515 1.0874 14.2187C1.02342 14.0859 0.993663 13.9375 1.00112 13.7886C1.00859 13.6397 1.05301 13.4955 1.1299 13.3706C1.20679 13.2457 1.31343 13.1445 1.43903 13.0773L1.58352 13L1.58332 13.0001Z" fill="#000"/>
</svg>
