<svg xmlns="http://www.w3.org/2000/svg" fill="none" viewBox="0 0 22 22" class="design-iconfont">
  <path d="M16.5077 0H2.82924C1.82056 0 1 0.807522 1 1.80029V20.1997C1 21.1923 1.82056 22 2.82924 22H20.1712C21.1794 22 22 21.1924 22 20.1997V5.17645L16.5077 0ZM20.7077 5.17645H16.5077V1.29411L20.7077 5.17645ZM20.0616 21.0294H2.93847C2.45282 21.0294 1.9486 20.6775 1.9486 20.1997V1.80014C1.9486 1.32218 2.45282 0.97058 2.93847 0.97058H15.5385V6.14703H21.0308V20.0588C21.0308 20.0588 20.7789 21.0294 20.0616 21.0294ZM10.0462 10.0294V9.0588H4.87692V10.0294H10.0462ZM4.87692 13.5882H17.4769V12.6176H4.87692V13.5882ZM4.87692 17.147H17.4769V16.1764H4.87692V17.147Z" fill="#000"/>
</svg>
