<svg xmlns="http://www.w3.org/2000/svg" fill="none" viewBox="0 0 22 22" class="design-iconfont">
  <path d="M11.0345 13.6905H4.0412L1.81218 2.75323H17.6139L15.8952 8.00947C15.8897 8.03002 15.8925 8.05057 15.8883 8.0725C15.8783 8.11793 15.8737 8.16438 15.8746 8.21089C15.8727 8.25395 15.875 8.29708 15.8815 8.33969C15.8996 8.42754 15.9332 8.51151 15.9808 8.58771C15.9946 8.60552 15.9959 8.62881 16.0097 8.64389L18.7684 12.127C18.8821 12.2694 19.0479 12.3613 19.2296 12.3826C19.4113 12.4039 19.5941 12.3529 19.7381 12.2408C19.8813 12.128 19.9738 11.9636 19.9952 11.7833C20.0167 11.603 19.9654 11.4217 19.8526 11.2789L17.3215 8.08346L19.2195 2.27912C19.2305 2.2435 19.225 2.21061 19.2305 2.17362C19.2374 2.13799 19.2526 2.1051 19.2526 2.06811C19.2526 2.05715 19.247 2.04892 19.247 2.03796C19.2443 1.99 19.2305 1.94479 19.2195 1.8982C19.2084 1.85846 19.2015 1.81598 19.1836 1.77899C19.1657 1.74062 19.1381 1.70774 19.1119 1.67348C19.0857 1.63648 19.0622 1.59949 19.0305 1.56934C19.0001 1.54194 18.9643 1.52412 18.9298 1.50083C18.8884 1.47479 18.8484 1.44739 18.8015 1.42958C18.7919 1.42684 18.785 1.41861 18.7753 1.41587C18.7394 1.40354 18.7036 1.40902 18.6663 1.40354C18.6319 1.39806 18.6001 1.38299 18.5629 1.38299H1.53494L1.36528 0.549883C1.32924 0.371812 1.22348 0.215254 1.07125 0.114651C0.919015 0.0140469 0.732789 -0.0223618 0.553535 0.0134341C0.464777 0.0311584 0.380403 0.0660761 0.30523 0.116193C0.230057 0.16631 0.165557 0.230645 0.115412 0.305525C0.0141402 0.456751 -0.0225103 0.641749 0.0135233 0.81982L4.2081 21.431C4.22372 21.5212 4.2574 21.6075 4.30715 21.6846C4.35691 21.7617 4.42172 21.8281 4.49776 21.8799C4.5738 21.9317 4.65953 21.9678 4.74987 21.9862C4.8402 22.0045 4.93332 22.0046 5.02372 21.9866C5.11411 21.9685 5.19994 21.9326 5.27613 21.8811C5.35233 21.8295 5.41734 21.7633 5.46733 21.6863C5.51731 21.6093 5.55125 21.5232 5.56714 21.433C5.58304 21.3427 5.58056 21.2503 5.55985 21.161L4.31844 15.0635H11.0358C11.2187 15.0635 11.3942 14.9913 11.5235 14.8628C11.6528 14.7343 11.7255 14.56 11.7255 14.3783C11.7255 14.1966 11.6528 14.0224 11.5235 13.8939C11.3942 13.7654 11.2187 13.6932 11.0358 13.6932" fill="#000"/>
  <path d="M21.14 14.2061C20.7415 13.6172 20.221 13.1195 19.6133 12.7462C19.0055 12.3729 18.3245 12.1326 17.6158 12.0414C16.907 11.9502 16.1868 12.0101 15.5032 12.2172C14.8196 12.4243 14.1884 12.7738 13.6518 13.2424V13.1523C13.6518 12.973 13.58 12.8009 13.4523 12.6741C13.3245 12.5473 13.1512 12.476 12.9704 12.476C12.7897 12.476 12.6164 12.5473 12.4886 12.6741C12.3608 12.8009 12.289 12.973 12.289 13.1523V15.2198C12.289 15.3542 12.3395 15.4729 12.4086 15.5787C12.4754 15.7001 12.5793 15.7972 12.7054 15.8561C12.7868 15.8926 12.8747 15.9128 12.964 15.9155C13.0533 15.9183 13.1422 15.9035 13.2258 15.872C13.3093 15.8405 13.3857 15.793 13.4507 15.7321C13.5156 15.6712 13.5678 15.5982 13.6043 15.5172C13.8719 14.9227 14.2949 14.4101 14.8293 14.0323C15.3637 13.6546 15.9901 13.4256 16.6437 13.369C17.2973 13.3125 17.9542 13.4304 18.5465 13.7105C19.1387 13.9907 19.6447 14.4229 20.012 14.9625C20.3834 15.5115 20.5975 16.1503 20.6315 16.8107C20.6655 17.4711 20.5181 18.1283 20.2051 18.712C19.8921 19.2958 19.4252 19.7842 18.8543 20.125C18.2834 20.4659 17.63 20.6464 16.9637 20.6474C16.1011 20.6492 15.2654 20.3492 14.6036 19.8C13.9417 19.2509 13.4961 18.4877 13.345 17.6448C13.3054 17.4761 13.202 17.3289 13.0563 17.2336C12.9105 17.1383 12.7335 17.1022 12.5617 17.1326C12.3898 17.163 12.2363 17.2577 12.1328 17.3972C12.0293 17.5367 11.9836 17.7102 12.0052 17.8821C12.2119 19.0377 12.8223 20.0839 13.7292 20.837C14.636 21.5901 15.7813 22.0019 16.9637 22C18.2992 21.9985 19.5795 21.4712 20.5237 20.5338C21.4679 19.5963 21.9989 18.3254 22 16.9999C22 15.9991 21.7018 15.0311 21.14 14.2075" fill="#000"/>
</svg>
