<svg xmlns="http://www.w3.org/2000/svg" fill="none" viewBox="0 0 18 18" class="design-iconfont">
  <path d="M9 12.4754C7.08368 12.4754 5.52455 10.9163 5.52455 9C5.52455 7.08368 7.08368 5.52455 9 5.52455C10.9163 5.52455 12.4754 7.08368 12.4754 9C12.4754 10.9163 10.9163 12.4754 9 12.4754ZM9 6.81027C7.79263 6.81027 6.81027 7.79263 6.81027 9C6.81027 10.2074 7.79263 11.1897 9 11.1897C10.2074 11.1897 11.1897 10.2074 11.1897 9C11.1897 7.79263 10.2074 6.81027 9 6.81027ZM3.21429 18C1.44201 18 0 16.558 0 14.7857C0 13.0134 1.44201 11.5714 3.21429 11.5714C4.98656 11.5714 6.42857 13.0134 6.42857 14.7857C6.42857 16.558 4.98656 18 3.21429 18ZM3.21429 12.8571C2.15096 12.8571 1.28571 13.7224 1.28571 14.7857C1.28571 15.849 2.15096 16.7143 3.21429 16.7143C4.27761 16.7143 5.14286 15.849 5.14286 14.7857C5.14286 13.7224 4.27761 12.8571 3.21429 12.8571ZM14.7857 18C13.0134 18 11.5714 16.558 11.5714 14.7857C11.5714 13.0134 13.0134 11.5714 14.7857 11.5714C16.558 11.5714 18 13.0134 18 14.7857C18 16.558 16.558 18 14.7857 18ZM14.7857 12.8571C13.7224 12.8571 12.8571 13.7224 12.8571 14.7857C12.8571 15.849 13.7224 16.7143 14.7857 16.7143C15.849 16.7143 16.7143 15.849 16.7143 14.7857C16.7143 13.7224 15.849 12.8571 14.7857 12.8571ZM4.26395 5.90625C2.63551 5.90625 1.31083 4.58156 1.31083 2.95312C1.31083 1.32469 2.63551 0 4.26395 0C5.89239 0 7.21708 1.32469 7.21708 2.95312C7.21708 4.58156 5.89239 5.90625 4.26395 5.90625ZM4.26395 1.28571C3.34446 1.28571 2.59654 2.03364 2.59654 2.95312C2.59654 3.87261 3.34446 4.62054 4.26395 4.62054C5.18344 4.62054 5.93136 3.87261 5.93136 2.95312C5.93136 2.03364 5.18344 1.28571 4.26395 1.28571ZM14.1177 5.2433C12.6777 5.2433 11.5061 4.0717 11.5061 2.6317C11.5061 1.1917 12.6777 0.0200893 14.1177 0.0200893C15.5577 0.0200893 16.7294 1.1917 16.7294 2.6317C16.7294 4.0717 15.5577 5.2433 14.1177 5.2433ZM14.1177 1.3058C13.3867 1.3058 12.7919 1.90065 12.7919 2.6317C12.7919 3.36275 13.3867 3.95759 14.1177 3.95759C14.8488 3.95759 15.4436 3.36275 15.4436 2.6317C15.4436 1.90065 14.8488 1.3058 14.1177 1.3058Z" fill="#1D2129"/>
  <path d="M7.37218 7.30029C7.20162 7.30029 7.03146 7.23278 6.9049 7.09899L5.16376 5.2572C4.91988 4.99926 4.93133 4.59225 5.18927 4.34837C5.44722 4.10448 5.85423 4.11593 6.09811 4.37388L7.83925 6.21566C8.08314 6.47361 8.07168 6.88062 7.81374 7.1245C7.69453 7.23754 7.53646 7.30047 7.37218 7.30029V7.30029ZM10.8036 7.43328C10.6611 7.43341 10.5225 7.38589 10.4101 7.29828C10.1296 7.08071 10.0786 6.67691 10.2962 6.39627L12.3493 3.74991C12.5669 3.46946 12.9709 3.41843 13.2513 3.636C13.5318 3.85357 13.5828 4.25736 13.3652 4.53801L11.3121 7.18437C11.1853 7.3477 10.9955 7.43328 10.8036 7.43328ZM4.75052 13.3664C4.58559 13.3664 4.42086 13.3034 4.2953 13.1774C4.04459 12.9259 4.04519 12.5189 4.29671 12.2684L6.28575 10.2852C6.53706 10.0344 6.94427 10.035 7.19479 10.2866C7.4455 10.5381 7.4449 10.9451 7.19338 11.1956L5.20434 13.1788C5.07898 13.304 4.91485 13.3664 4.75052 13.3664V13.3664ZM12.8572 13.7281C12.6888 13.7281 12.5209 13.6624 12.3947 13.5318L10.4732 11.5419C10.2265 11.2866 10.2337 10.8796 10.489 10.6329C10.7444 10.3862 11.1514 10.3934 11.3981 10.6488L13.3196 12.6386C13.5663 12.8939 13.5591 13.301 13.3037 13.5477C13.1839 13.6635 13.0238 13.7282 12.8572 13.7281V13.7281Z" fill="#1D2129"/>
</svg>
