<svg xmlns="http://www.w3.org/2000/svg" fill="none" viewBox="0 0 18 18" class="design-iconfont">
  <path d="M0.858506 17.1415V0H0V18H18V17.1415H0.858506Z" fill="#1D2129"/>
  <path d="M2.75604 16.2851H4.10103C4.44003 16.2851 4.71519 16.01 4.71519 15.671V12.1841C4.71519 11.8451 4.44003 11.57 4.10103 11.57H2.75604C2.41704 11.57 2.14188 11.8451 2.14188 12.1841V15.671C2.14188 16.01 2.41704 16.2851 2.75604 16.2851V16.2851ZM3.00038 12.4285H3.85669V15.4288H3.00038V12.4285V12.4285ZM6.75579 9.4281C6.41679 9.4281 6.14163 9.70326 6.14163 10.0423V15.6732C6.14163 16.0122 6.41679 16.2873 6.75579 16.2873H8.10079C8.43979 16.2873 8.71495 16.0122 8.71495 15.6732V10.0423C8.71495 9.70326 8.43979 9.4281 8.10079 9.4281H6.75579ZM7.85864 15.4266H7.00234V10.2844H7.85864V15.4266ZM10.7555 7.28404C10.4165 7.28404 10.1414 7.5592 10.1414 7.8982V15.671C10.1414 16.01 10.4165 16.2851 10.7555 16.2851H12.1005C12.4395 16.2851 12.7147 16.01 12.7147 15.671V7.8982C12.7147 7.5592 12.4395 7.28404 12.1005 7.28404H10.7555V7.28404ZM11.8584 15.4288H11.0021V8.14255H11.8584V15.4288ZM14.1433 5.75634V15.6732C14.1433 16.0122 14.4185 16.2873 14.7575 16.2873H16.1025C16.4415 16.2873 16.7167 16.0122 16.7167 15.6732V5.75634C16.7145 5.41734 16.4415 5.14218 16.1025 5.14218H14.7575C14.4185 5.14218 14.1433 5.41734 14.1433 5.75634ZM15.0018 5.99848H15.8582V15.4266H15.0018V5.99848ZM2.57113 9.85735C2.65478 9.85735 2.74063 9.83314 2.81327 9.78251L8.3011 6.00068H11.0219C11.2178 6.00068 11.4071 5.91704 11.5436 5.77175L15.0018 1.99873V3.42737C15.0018 3.66511 15.1934 3.85662 15.4311 3.85662C15.6688 3.85662 15.8604 3.66511 15.8604 3.42737V0.427002H12.8578C12.62 0.427002 12.4285 0.618515 12.4285 0.856255C12.4285 1.09399 12.62 1.28551 12.8578 1.28551H14.4911L10.9559 5.14218H8.25047C8.08538 5.14218 7.92908 5.19941 7.80361 5.30067L2.32899 9.07589C2.13307 9.21017 2.08464 9.47653 2.21892 9.67245C2.30037 9.79132 2.43465 9.85735 2.57113 9.85735Z" fill="#1D2129"/>
</svg>
