<svg xmlns="http://www.w3.org/2000/svg" fill="none" viewBox="0 0 18 18" class="design-iconfont">
  <path d="M16.7269 8.50484C16.7269 8.8465 17.0042 9.12379 17.3459 9.12379C17.6876 9.12379 17.9648 8.8465 17.9648 8.50484C17.9648 7.36102 17.742 6.25187 17.2989 5.20709C16.873 4.19944 16.2615 3.2933 15.4841 2.5159C14.7067 1.7385 13.8006 1.12698 12.7929 0.701145C11.7481 0.260454 10.639 0.0351562 9.49516 0.0351562C9.1535 0.0351562 8.87621 0.312445 8.87621 0.654104C8.87621 0.995764 9.1535 1.27305 9.49516 1.27305C11.4263 1.27305 13.2435 2.02569 14.6101 3.39233C15.9743 4.75649 16.7269 6.57372 16.7269 8.50484ZM8.50484 16.7269C6.57372 16.7269 4.75649 15.9743 3.38985 14.6077C2.02569 13.2435 1.27305 11.4263 1.27305 9.49516C1.27305 9.1535 0.995764 8.87621 0.654104 8.87621C0.312445 8.87621 0.0351562 9.1535 0.0351562 9.49516C0.0351562 10.639 0.257978 11.7481 0.701145 12.7929C1.12698 13.8006 1.7385 14.7067 2.5159 15.4841C3.2933 16.2615 4.19944 16.873 5.20709 17.2989C6.25187 17.7395 7.36102 17.9648 8.50484 17.9648C8.8465 17.9648 9.12379 17.6876 9.12379 17.3459C9.12379 17.0042 8.8465 16.7269 8.50484 16.7269Z" fill="#000"/>
  <path d="M3.55009 8.11268C1.19498 8.11268 0 7.57032 0 6.50021C0 5.73701 1.23144 5.23524 2.45653 5.06636V4.90723C1.71957 4.37948 1.3614 3.45877 1.3614 2.10124C1.3614 0.785936 2.16492 0 3.51205 0H3.58495C4.93209 0 5.73561 0.785936 5.73561 2.10124C5.73561 2.61275 5.73561 4.12779 4.64998 4.90885L4.64681 5.06636C5.87191 5.23687 7.09859 5.73701 7.09859 6.49858C7.10017 7.57032 5.90519 8.11268 3.55009 8.11268ZM3.51364 0.560223C2.78143 0.560223 1.90817 0.828155 1.90817 2.10124C1.90817 3.32561 2.22356 4.11642 2.87177 4.51588C2.95418 4.56622 3.00331 4.65716 3.00331 4.75459V5.31481C3.00331 5.45933 2.89713 5.57949 2.75766 5.59249C1.42796 5.72889 0.546777 6.22903 0.546777 6.49858C0.546777 7.36896 2.18077 7.55245 3.55009 7.55245C4.92099 7.55245 6.5534 7.37058 6.5534 6.49858C6.5534 6.2274 5.67222 5.72889 4.34252 5.59249C4.19988 5.57787 4.09369 5.45446 4.09686 5.30831L4.10954 4.74809C4.11113 4.65229 4.16184 4.5646 4.24109 4.51426C4.89088 4.11317 5.192 3.34672 5.192 2.09962C5.192 0.824908 4.31874 0.558599 3.58654 0.558599L3.51364 0.560223Z" fill="#000"/>
  <path d="M14.4515 18C12.0964 18 10.9014 17.4576 10.9014 16.3875C10.9014 15.6243 12.1328 15.1226 13.3579 14.9537V14.7946C12.621 14.2668 12.2628 13.3461 12.2628 11.9886C12.2628 10.6733 13.0663 9.88733 14.4134 9.88733H14.4864C15.8335 9.88733 16.637 10.6733 16.637 11.9886C16.637 12.5001 16.637 14.0151 15.5514 14.7962L15.5482 14.9537C16.7733 15.1242 18 15.6243 18 16.3859C18.0016 17.4576 16.8066 18 14.4515 18ZM14.415 10.4476C13.6828 10.4476 12.8096 10.7155 12.8096 11.9886C12.8096 13.2129 13.125 14.0037 13.7732 14.4032C13.8556 14.4536 13.9047 14.5445 13.9047 14.6419V15.2021C13.9047 15.3467 13.7985 15.4668 13.6591 15.4798C12.3294 15.6162 11.4482 16.1164 11.4482 16.3859C11.4482 17.2563 13.0822 17.4398 14.4515 17.4398C15.8224 17.4398 17.4548 17.2579 17.4548 16.3859C17.4548 16.1147 16.5736 15.6162 15.2439 15.4798C15.1013 15.4652 14.9951 15.3418 14.9983 15.1956L15.0109 14.6354C15.0125 14.5396 15.0632 14.4519 15.1425 14.4016C15.7923 14.0005 16.0934 13.2341 16.0934 11.9869C16.0934 10.7122 15.2201 10.4459 14.4879 10.4459L14.415 10.4476Z" fill="#000"/>
</svg>
