<svg xmlns="http://www.w3.org/2000/svg" fill="none" viewBox="0 0 120 120" class="design-iconfont">
  <path d="M103.086 74.1955C105.89 74.5317 107.96 76.7516 107.96 79.5302C107.96 82.2001 106.334 84.3606 103.645 84.865C100.352 85.4582 97.3783 86.8426 94.9036 88.9686L94.0055 89.8091C93.4418 90.3628 92.6036 90.8622 92.0398 90.0316C91.8153 89.5866 91.93 88.5286 92.2643 88.1973C94.9046 85.5466 96.6481 82.1481 97.2535 78.4722C97.5031 77.1623 98.2425 75.994 99.3239 75.2011C100.405 74.4082 101.749 74.049 103.086 74.1955Z" fill="#0185F3"/>
  <path d="M78.1399 84.4743C80.7593 87.0749 83.9274 88.6373 87.4398 89.6162L88.6223 89.9178C91.087 90.3628 92.3792 92.5876 92.4889 94.862C92.4889 97.5318 90.5282 99.8061 87.834 100.197C85.2596 100.528 82.5654 98.9161 82.0066 96.36C81.2233 92.4195 79.5369 88.9735 76.6232 86.0861C76.4155 85.8773 76.4235 85.5196 76.4319 85.1459C76.4369 84.918 76.4422 84.6841 76.3987 84.4743L77.7109 84.3754C77.9104 84.3754 78.0601 84.4001 78.1399 84.4743Z" fill="#FF6900"/>
  <path d="M81.8915 70.9175C79.0925 73.6961 77.5758 77.0284 76.7925 80.8651C76.2287 83.6388 73.6493 85.2505 70.9601 84.8056C68.2659 84.3606 66.2502 82.027 66.2502 79.4165C66.2502 77.0828 67.9915 74.9173 70.3414 74.4723C74.1349 73.859 77.6425 72.0934 80.3797 69.4194C80.6494 69.1482 81.25 69.1698 81.7655 69.1882C81.8892 69.1927 82.0079 69.1969 82.116 69.1969C82.0751 69.4032 82.0806 69.6479 82.0861 69.8911C82.0953 70.3008 82.1044 70.7065 81.8915 70.9175Z" fill="#FECD02"/>
  <path d="M87.1055 58.75C89.5752 58.75 91.8702 60.3618 92.3791 62.9179C93.0477 66.7496 94.7341 70.0869 97.4781 72.8606C97.8174 73.1968 97.5929 74.1411 97.7027 74.6949C97.0291 74.6949 96.1909 74.9174 95.8566 74.5861C93.0477 71.6938 89.5702 70.1957 85.7036 69.3651C84.4532 69.0695 83.3566 68.3278 82.6231 67.2817C81.8896 66.2357 81.5706 64.9585 81.7272 63.6941C82.1163 60.9205 84.3066 58.8637 87.1055 58.75Z" fill="#26BD00"/>
  <path fill-rule="evenodd" clip-rule="evenodd" d="M52.0611 18.75C30.8145 18.75 12.5002 33.0606 12.5002 51.7439C12.5002 61.9311 16.0044 68.3143 23.5772 76.0677C24.0809 76.5835 24.3478 77.2854 24.3016 78.0048C24.1363 80.5743 23.7502 86.7853 23.7502 88.75C23.7502 91.25 26.2502 91.5625 28.1252 90.625C29.6984 89.8384 36.9912 86.412 39.2984 85.3292C39.7572 85.114 40.2679 85.0448 40.7678 85.1277C44.2654 85.7081 47.8095 86.2605 52.0352 86.4035C56.7457 86.3779 61.1995 85.7296 65.3092 84.5575C64.3292 83.2987 63.7502 81.7429 63.7502 80.1068C63.7502 79.4114 63.8633 78.727 64.0732 78.0761C60.4162 79.25 56.3995 79.9047 52.1224 79.9279C48.7468 79.8137 45.9064 79.3783 43.111 78.9159C42.6114 78.8332 40.8515 78.902 40.393 79.117C38.3884 80.0573 33.9454 81.4809 32.6956 82.1053C31.1721 82.8665 30.3909 82.6128 30.3909 80.583C30.3909 79.0397 30.4845 75.9477 30.6252 73.75C30.6713 73.0302 29.3527 71.8995 28.8501 71.3822C22.801 65.1563 20.0002 59.9912 20.0002 51.7878C20.0002 36.6188 34.8805 25 52.1434 25C70.4218 25 85.0002 36.8814 85.0002 52.0493C85.0002 53.5339 84.8679 54.9934 84.6113 56.4189C85.0397 56.3258 85.4831 56.2685 85.9386 56.25C88.2034 56.25 90.3576 57.2713 91.6952 59.0216C92.2245 56.7718 92.5002 54.4449 92.5002 52.066C92.5002 33.3841 74.5575 18.75 52.0611 18.75Z" fill="url(#paint0_linear_823_5713)"/>
  <defs>
    <linearGradient id="paint0_linear_823_5713" x1="92.5003" y1="91.25" x2="12.5002" y2="18.75" gradientUnits="userSpaceOnUse">
      <stop stop-color="#0783E3"/>
      <stop offset="1" stop-color="#C2E5FF"/>
    </linearGradient>
  </defs>
</svg>
