<svg xmlns="http://www.w3.org/2000/svg" fill="none" viewBox="0 0 37 98" class="design-iconfont">
  <path d="M17.5515 13.794L17.1715 11.058H23.5555L23.9355 13.794H27.3555L28.0395 12.312L27.7355 11.058H34.8035L33.6255 13.794H36.0575L34.3855 25.612H13.4475L15.1195 13.794H17.5515ZM33.5115 26.562L31.9535 37.696H12.4595L14.0175 26.562H33.5115ZM11.3195 35.53L0.983484 37.696L1.55348 33.478L4.17548 32.946L5.54348 23.218H2.99748L3.52948 19.456H6.07548L6.98748 13.148L5.92348 11.704H12.6875L11.5855 19.456H13.5615L13.0295 23.218H11.0535L9.83748 31.73L11.8895 31.312L11.3195 35.53ZM22.2635 22.648L23.0995 16.758H19.4135L19.2235 17.974H21.9595L22.3775 21.584H19.6035L19.1855 18.202L18.5775 22.648H22.2635ZM30.7375 17.974L30.9275 16.758H27.3175L26.4815 22.648H30.0915L30.6995 18.24L29.4835 21.584H26.7095L28.0395 17.974H30.7375ZM25.7595 34.96L25.9875 33.364H19.6415L19.4135 34.96H25.7595ZM19.9835 30.856H26.3295L26.5195 29.412H20.1735L19.9835 30.856ZM5.96148 74.422H3.07348L3.60548 70.812H6.45548L7.78548 61.426L6.56948 59.982H15.2335L13.7135 70.812H15.0435L25.2275 60.704H33.1695L22.9855 70.812H33.9295L33.3975 74.422H13.1815L12.0035 82.896L16.4115 82.364L15.9175 85.974L4.13748 87.342L5.96148 74.422ZM26.7095 75.866L33.0175 87.342H25.0755L18.7675 75.866H26.7095Z" fill="url(#dkah741z3__paint0_linear_870_7720)"/>
  <defs>
    <linearGradient id="dkah741z3__paint0_linear_870_7720" x1="18.5" y1="0" x2="18.5" y2="98" gradientUnits="userSpaceOnUse">
      <stop stop-color="#5897EE"/>
      <stop offset="1" stop-color="#326FC5"/>
    </linearGradient>
  </defs>
</svg>
