<svg xmlns="http://www.w3.org/2000/svg" fill="none" viewBox="0 0 35 98" class="design-iconfont">
  <path d="M1.38948 37.696L3.36548 33.934L5.15148 21.09H3.70748L4.23948 17.48H12.1815L10.0535 32.528L15.2595 34.086H32.9295L32.4355 37.696H12.2195L8.45749 36.594L7.88749 37.696H1.38948ZM30.6495 24.7L31.7135 32.642H25.9375L25.7855 31.654L12.2575 32.3L12.7135 29.032L16.2095 22.534H12.9035L13.3975 18.924H33.6135L33.1195 22.534H23.4295L20.1235 28.69L25.3675 28.462L24.8735 24.7H30.6495ZM33.1955 11.742L32.7015 15.314H15.3735L15.8675 11.742H33.1955ZM10.8135 11.704L12.3715 16.036H6.59548L5.03748 11.704H10.8135ZM31.8275 78.944L30.6875 86.886H0.515484L1.65548 78.944H31.8275ZM31.5615 70.964L30.5735 78.146H3.28948L4.27748 70.964H31.5615ZM9.40748 64.77H3.63148L4.12548 61.388H9.82548L8.64748 59.982H16.5895L16.3615 61.388H22.0995L20.9215 59.982H28.8635L28.6355 61.388H34.4495L33.9555 64.77H28.1795L28.0655 65.644H21.5675L21.6815 64.77H15.9055L15.7915 65.644H9.29349L9.40748 64.77ZM26.5075 69.33H9.78748L9.67348 70.318H2.87148L3.40348 66.29H33.7275L33.1955 70.318H26.3935L26.5075 69.33ZM24.7595 83.884L25.0635 81.946H7.58348L7.27948 83.884H24.7595ZM24.8735 75.258L25.0635 73.852H9.90149L9.71149 75.258H24.8735Z" fill="url(#273rtah5z__paint0_linear_870_7721)"/>
  <defs>
    <linearGradient id="273rtah5z__paint0_linear_870_7721" x1="17.5" y1="0" x2="17.5" y2="98" gradientUnits="userSpaceOnUse">
      <stop stop-color="#5897EE"/>
      <stop offset="1" stop-color="#326FC5"/>
    </linearGradient>
  </defs>
</svg>
