<svg xmlns="http://www.w3.org/2000/svg" fill="none" viewBox="0 0 35 98" class="design-iconfont">
  <path d="M22.4795 30.666L23.3535 31.54L26.4695 29.032H16.5895L18.6415 23.978H16.2855L16.7795 20.406H20.0855L21.2255 17.594H18.5655L19.0595 14.098H22.6315L23.5055 11.932L22.5555 10.982H29.7755L28.5975 14.098H34.2975L33.8035 17.594H27.2675L26.2415 20.406H34.3355L33.8415 23.978H24.8735L24.2275 25.726H32.4355L31.7515 30.248L26.4695 34.618L30.2315 38.304H23.3915L16.0575 30.666H22.4795ZM3.09948 22.724L5.26548 17.29H3.32748L3.82148 13.756H6.67148L7.31748 12.16L6.55748 11.02H11.9535L10.8515 13.756H17.6915L17.1975 17.29H9.44548L7.20348 22.952H8.91348L9.55949 18.544H14.2715L13.6635 22.952H15.7915L15.3355 26.334H13.1695L12.7515 29.26L15.6015 28.88L15.0695 32.68L12.2195 33.06L11.4975 38.266H5.79748L6.40548 33.858L0.667484 34.618L1.19948 30.818L6.93748 30.058L7.46948 26.334H2.60548L3.09948 22.724ZM32.4735 69.368L24.1135 72.294L22.7075 82.364H29.9275L31.5615 80.92L30.7635 86.696H14.8795L16.5135 74.992L11.9535 76.588L12.6755 71.534L17.1975 69.938L18.4135 61.426L17.1975 59.982H25.8615L24.8355 67.278L33.1955 64.314L32.4735 69.368ZM12.2575 64.314L8.98948 87.342H1.76948L4.88548 65.34L1.92148 65.758L2.52948 61.464L12.8655 59.982L12.2575 64.314Z" fill="url(#0v17v1jax__paint0_linear_870_7722)"/>
  <defs>
    <linearGradient id="0v17v1jax__paint0_linear_870_7722" x1="17.5" y1="0" x2="17.5" y2="98" gradientUnits="userSpaceOnUse">
      <stop stop-color="#5897EE"/>
      <stop offset="1" stop-color="#326FC5"/>
    </linearGradient>
  </defs>
</svg>
