<svg xmlns="http://www.w3.org/2000/svg" fill="none" viewBox="0 0 107 70" class="design-iconfont">
  <path fill-rule="evenodd" clip-rule="evenodd" d="M10.588 34.2174L22.0986 34.1934L22.133 44.3761C23.7134 45.2479 24.0315 44.9663 26.2135 44.9648C32.769 44.9602 30.0166 45.2106 30.5856 34.2944L41.8329 34.2363L41.9512 41.1283L37.9461 41.1948C37.1002 41.324 37.3321 41.2175 36.9542 41.7639C36.4944 42.3965 36.4207 46.1095 36.8855 46.9081C37.4274 47.8393 40.8966 47.4706 42.099 47.4707C47.274 47.4711 50.4583 48.4283 50.5235 44.4028C50.6466 36.8109 50.5178 29.0917 50.5185 21.4849C50.5188 17.7038 50.5144 13.9226 50.5153 10.1414C50.5164 5.64161 51.5725 2.56643 46.5782 2.57778L6.06678 2.57324C4.09282 2.57434 2.8686 3.08881 2.77034 5.02634C2.06568 18.9268 4.15785 29.2392 0.773812 43.1314C0.449091 44.4645 -0.785442 47.0198 0.762482 47.4255C1.10657 47.5156 5.96183 47.5211 6.51394 47.4669C8.25366 47.2962 8.5903 45.6923 9.01371 44.1746C9.87109 41.101 10.13 37.5122 10.588 34.2174V34.2174ZM41.9372 21.716L30.8173 21.6801L30.7389 27.9284L41.9024 28.0072L41.9372 21.716V21.716ZM30.5584 15.1453L41.8715 15.2261C42.0194 13.962 42.2479 10.404 41.6492 9.52509C41.1333 8.85517 40.7426 9.02902 39.1933 9.04298C38.2234 9.05172 37.2518 9.046 36.2818 9.046C34.8873 9.04608 31.7763 8.87745 30.6022 9.15394L30.5584 15.1453V15.1453ZM10.781 13.2553L10.8019 15.2036L22.0933 15.1942L22.104 9.11561L14.3553 9.03515C10.1913 9.04037 10.7056 8.90561 10.781 13.2553ZM10.8078 27.8516L22.0739 27.8694L22.1196 21.7472L10.8272 21.6589L10.8078 27.8516Z" fill="#E70012"/>
  <path fill-rule="evenodd" clip-rule="evenodd" d="M64.8639 5.15701L57.9848 5.18172C54.9494 5.18121 55.2792 5.34237 55.2858 9.47408C55.2903 12.3099 56.5928 11.521 62.2359 11.5371L64.161 11.548C64.6007 16.1011 60.4679 33.3599 58.1249 39.2046C56.8433 42.4016 54.6235 45.5101 55.0064 47.1234C56.0474 47.692 58.2057 47.4647 59.7762 47.4702C61.9331 47.4777 62.5971 47.5844 63.5681 46.1664C65.8443 42.8427 68.0888 35.2146 69.0806 31.1968C69.3842 29.9663 70.694 23.1309 71.0203 22.682C71.5487 22.1492 89.4405 22.3789 91.3457 22.4314C92.233 22.4558 92.121 22.2937 92.5384 22.7367C93.7459 23.9989 88.0842 30.5537 87.0709 31.4673C85.933 31.0269 83.4904 27.3988 82.5082 26.2396C81.6443 25.2198 80.0451 25.5617 78.3451 25.5614C76.8485 25.5611 75.0057 25.4656 73.5529 25.63C72.8657 27.984 80.8376 36.0865 81.4181 37.0377C79.9418 38.0776 78.8471 39.1079 76.9615 40.1299C74.3224 41.5605 72.0356 40.7981 70.738 41.431C69.8888 42.4004 70.012 46.0722 70.5335 47.2843C73.254 48.1513 77.9941 47.2011 80.1149 46.1534C83.0746 44.6912 85.7867 42.2901 86.8472 41.7773C91.5427 44.4161 93.1752 47.6624 102.061 47.6489C106.054 47.6428 105.607 47.9046 105.608 43.5046C105.608 42.3638 105.673 42.2476 105.289 41.4488C102.503 40.6062 99.7108 42.4399 92.694 36.6545C92.9942 35.9151 95.3838 33.5791 96.1985 32.5638C97.4167 31.0456 98.3016 29.8794 99.378 28.1592C100.591 26.2211 104.139 19.5762 101.606 17.05C99.8802 15.3294 90.847 16.0062 87.5184 16.0062C82.4484 16.0062 77.0505 16.1829 72.0209 15.9796L72.5868 11.5574C82.2746 11.3096 94.558 11.5307 104.523 11.5373C106.214 11.5396 106.365 10.8785 106.359 9.26157C106.34 4.04945 107.779 5.1813 91.0982 5.1813L73.3137 5.16692C73.216 3.62181 73.6736 2.19379 73.3639 0.612106C72.0594 -0.256623 70.075 0.0551794 67.8294 0.0514805C66.3134 0.0477817 65.423 0.0361784 65.1622 1.49504C64.9623 2.61311 65.0767 3.92562 64.8639 5.15701V5.15701Z" fill="#E70012"/>
  <path fill-rule="evenodd" clip-rule="evenodd" d="M87.158 56.1732C83.9201 56.7847 82.1099 58.7804 82.8017 61.7549C83.4317 64.4633 86.3232 65.7894 89.692 65.2246C96.6513 64.058 94.8362 54.7231 87.158 56.1732ZM88.0904 58.2388C84.7451 60.1547 85.7968 64.6276 88.5668 63.2536C89.4964 62.7926 90.4541 61.3769 90.6696 60.1488C90.9712 58.4295 89.5617 57.3962 88.0904 58.2388Z" fill="#D9D9D9"/>
  <path fill-rule="evenodd" clip-rule="evenodd" d="M52.7022 56.1422C45.3274 57.419 47.3971 66.6054 55.2243 65.2223C61.9857 64.0274 60.4879 54.7943 52.7022 56.1422ZM53.5769 58.214C50.6235 59.7993 50.9229 64.8359 54.1113 63.2347C56.885 61.8418 56.8507 56.4566 53.5769 58.214Z" fill="#D9D9D9"/>
  <path fill-rule="evenodd" clip-rule="evenodd" d="M73.3384 69.8314L76.4549 69.9046C77.384 68.1663 83.0797 57.4838 83.2142 56.4565C82.189 56.3776 80.6652 56.259 79.8753 56.5779C78.9502 57.1921 78.0731 60.1694 77.131 61.1772C74.2661 56.7905 76.353 56.033 71.2278 56.4643C71.5933 58.016 73.4785 61.4808 74.2341 63.1609C75.0577 64.9923 75.4995 64.7572 74.597 66.4565C74.1456 67.3066 72.9929 68.7839 73.3384 69.8314V69.8314Z" fill="#D9D9D9"/>
  <path fill-rule="evenodd" clip-rule="evenodd" d="M41.8752 69.8695C42.4943 69.1167 48.5584 57.2475 48.6656 56.416C44.6748 56.4019 45.3131 56.1676 44.2385 58.3118C43.7395 59.3071 43.4074 60.1751 42.7702 61.0752C41.4789 60.5177 41.1346 56.9424 39.8975 56.5187L36.6982 56.3929C36.9385 57.7518 39.533 62.7315 40.2287 64.2751C40.8948 65.7531 39.8216 66.8874 39.1323 68.1459C37.8382 70.5087 39.4475 69.986 41.8752 69.8695Z" fill="#D9D9D9"/>
  <path fill-rule="evenodd" clip-rule="evenodd" d="M105.594 56.4377C103.93 56.3453 102.15 56.0153 101.957 57.1327L101.918 59.7414C101.919 60.9207 101.918 62.0956 101.9 63.2737C97.9191 63.7153 98.4893 62.8772 98.4952 59.7414L98.4843 57.3014C98.3242 56.0496 97.858 56.408 94.856 56.4066C94.777 57.812 94.6187 62.3284 95.0597 63.3651C96.21 66.0696 100.831 65.5517 103.359 65.0438C104.552 64.8041 105.409 64.8006 105.591 63.7265C105.815 62.4065 105.621 58.031 105.594 56.4377V56.4377Z" fill="#D9D9D9"/>
  <path fill-rule="evenodd" clip-rule="evenodd" d="M60.5008 57.1237C60.1041 58.6995 60.365 63.1806 60.3272 65.106C60.969 65.1055 61.6149 65.1198 62.2536 65.118C63.8426 65.1135 63.5106 64.9724 63.675 64.9157C64.4841 64.637 63.7957 59.9941 64.0947 58.2466C65.8062 57.9775 65.9649 57.8541 67.335 58.6604L67.4784 64.9477C68.3837 65.2013 70.1854 65.1932 71.0682 64.9847C71.1778 61.2102 71.721 57.7165 69.175 56.6177C66.9935 55.6762 62.4528 56.0126 60.5008 57.1237Z" fill="#D9D9D9"/>
</svg>
